<svg xmlns="http://www.w3.org/2000/svg" fill="none" viewBox="0 0 59 26"><path d="M15.923 21.604h-2.795q-.47 0-.779-.214-.298-.224-.416-.565l-.917-2.71h-5.91l-.917 2.71q-.106.299-.416.544-.309.235-.757.235H.2L6.216 6.063h3.69zm-9.984-5.942h4.245l-1.43-4.256q-.138-.405-.33-.949-.181-.555-.363-1.195-.17.651-.352 1.206-.181.554-.341.96zm25.941-1.834q0 1.685-.586 3.136-.576 1.45-1.632 2.528-1.056 1.066-2.55 1.674-1.482.608-3.295.608-1.814 0-3.307-.608-1.493-.608-2.56-1.674-1.056-1.078-1.643-2.528-.576-1.45-.576-3.136 0-1.686.576-3.136.587-1.45 1.643-2.518 1.067-1.066 2.56-1.674 1.493-.608 3.307-.608 1.813 0 3.296.619 1.493.608 2.549 1.674 1.056 1.067 1.632 2.517.587 1.451.587 3.126zm-3.69 0q0-1.152-.299-2.07-.298-.928-.864-1.568-.554-.64-1.365-.98-.81-.342-1.845-.342-1.046 0-1.867.341-.81.341-1.376.981-.555.64-.853 1.568-.299.918-.299 2.07 0 1.162.299 2.09.298.918.853 1.558.565.64 1.376.981.821.33 1.867.33 1.034 0 1.845-.33.81-.341 1.365-.981.566-.64.864-1.558.299-.928.299-2.09zm9.04 2.582v5.194h-3.605V6.063h5.483q1.643 0 2.816.394 1.184.384 1.941 1.067.768.682 1.13 1.61.364.928.364 2.006 0 1.162-.374 2.133-.373.97-1.141 1.664-.768.693-1.952 1.088-1.173.384-2.784.384zm0-2.72h1.878q1.408 0 2.027-.673.618-.672.618-1.877 0-.534-.16-.97-.16-.438-.49-.748-.32-.32-.822-.49-.49-.17-1.173-.17H37.23zm13.626 2.72v5.194H47.25V6.063h5.483q1.643 0 2.816.394 1.184.384 1.941 1.067.768.682 1.13 1.61.364.928.364 2.006 0 1.162-.374 2.133-.373.97-1.141 1.664-.768.693-1.952 1.088-1.173.384-2.784.384zm0-2.72h1.877q1.408 0 2.027-.673.618-.672.618-1.877 0-.534-.16-.97-.16-.438-.49-.748-.32-.32-.822-.49-.49-.17-1.173-.17h-1.877z" aria-label="AOPP" fill="#495057"/></svg>