<svg xmlns="http://www.w3.org/2000/svg" width="300" height="74" viewBox="0 0 224.88 55.5"><defs><clipPath id="a"><path d="M100 .027h29V43h-29Zm0 0"/></clipPath><clipPath id="b"><path d="M176 5h47.816v50H176Zm0 0"/></clipPath></defs><g clip-path="url(#a)"><path fill="#3e3f3f" d="M114.645.402c-4.055.676-7.54 3.008-9.032 6.051-.89 1.817-1.351 3.774-1.351 5.7v1.566l-1.903.05-1.921.055-.055 2.707-.051 2.723h3.93v22.96h7.113v-22.96h9.602v22.96l3.609-.034 3.59-.051V13.824l-8.426-.054-8.43-.036.09-1.742c.106-2.086.586-3.347 1.742-4.469 1.793-1.746 5.547-2.082 9.121-.82.711.25 1.422.5 1.602.57.246.07.516-.34 1.477-2.351.62-1.352 1.136-2.473 1.101-2.492-.586-.516-4.039-1.743-5.726-2.028-1.227-.23-4.766-.215-6.082 0m0 0"/></g><path fill="#3e3f3f" d="M59.965 2.219c-2.063.765-3.13 2.918-2.453 4.949.57 1.672 1.867 2.543 3.804 2.543 2.614 0 4.145-1.617 3.965-4.184-.14-1.937-1.597-3.328-3.664-3.468-.601-.055-1.277.015-1.652.16M168.398 2.219c-1.632.535-2.593 1.922-2.613 3.738 0 3.328 3.735 5 6.617 2.953.711-.515 1.387-1.976 1.387-3.023 0-1.23-.766-2.617-1.816-3.242-.957-.586-2.504-.782-3.575-.426m0 0"/><g clip-path="url(#b)"><path fill="#3e3f3f" d="m184.457 6.598-3.289.836-.055 3.152-.035 3.133-2.008.05-1.992.055-.055 2.707-.05 2.723h4.07l.09 8.133c.05 6.836.125 8.332.355 9.277.782 2.988 2.383 4.715 5.121 5.57.817.25 1.618.34 3.325.34 1.957 0 4.515-.34 4.8-.605.036-.055.02-1.285-.05-2.742l-.125-2.653-2.082.09c-1.938.07-2.098.05-2.684-.34-.356-.25-.82-.82-1.066-1.316l-.446-.89-.054-7.442-.055-7.422 4.75.035 4.766.055 4.23 10.59c2.527 6.32 4.234 10.824 4.234 11.18 0 1.21-1.851 3.968-3.523 5.269-1.207.926-2.649 1.726-3.856 2.172-.48.16-.91.32-.945.336-.07.054 1.531 5.804 1.656 5.93.32.32 3.43-.731 5.207-1.762 1.407-.84 4.59-4.043 5.711-5.77 1.192-1.816 3.43-6.39 4.692-9.613 1.281-3.274 8.66-23.477 8.66-23.746 0-.14-1.102-.196-3.805-.196h-3.804l-.196.57c-.41 1.317-4.66 16.216-5.105 17.942-.266 1.035-.531 1.941-.602 2.012-.074.074-.34-.711-.625-1.762-.406-1.637-5.957-18.156-6.238-18.601-.055-.09-3.434-.16-7.649-.16h-7.539V9.73c0-3.097-.054-4.003-.214-3.988-.125 0-1.707.39-3.52.856m0 0"/></g><path fill="#3e3f3f" d="M12.984 13.2c-4.214.765-7.343 2.777-9.546 6.16-1.583 2.421-2.313 5.128-2.313 8.652 0 4.449 1.121 7.441 3.824 10.218 1.989 2.028 4.25 3.329 7.149 4.094 1.672.446 5.867.446 7.59.016 2.738-.692 4.96-1.887 6.972-3.738l1.086-.997 1.047 1.07a13.6 13.6 0 0 0 5.371 3.38c1.688.59 1.797.605 4.66.605 3.11 0 4.035-.16 6.258-1.05 1.777-.727 3.023-1.567 4.535-3.079 1.242-1.246 1.598-1.746 2.348-3.293 1.066-2.226 1.422-3.578 1.562-5.965.391-6.585-2.472-12.175-7.504-14.648-2.347-1.14-3.308-1.336-6.757-1.336-2.95 0-3.059.02-4.711.59-3.54 1.226-5.887 3.059-7.254 5.676-.906 1.746-1.352 3.312-1.903 6.82-.765 4.75-1.496 6.531-3.468 8.543-3.875 3.934-9.957 3.348-12.25-1.191-.89-1.762-1.157-3.082-1.157-5.66-.02-2.602.176-3.653 1.047-5.52.766-1.672 1.637-2.637 2.989-3.293 2.437-1.192 5.191-1.121 7.914.195.816.39 1.511.696 1.547.66.105-.125 2.043-4.308 2.043-4.418 0-.265-3.325-1.652-4.942-2.062-1.902-.48-4.766-.676-6.137-.43m28.97 5.859c1.706.8 2.878 2.437 3.573 5 .246.89.32 1.816.32 4.093-.019 2.707-.054 3.063-.5 4.364-.78 2.347-2.027 3.863-3.859 4.664-.39.175-1.172.285-2.062.285-1.278.015-1.582-.055-2.614-.555-2.792-1.387-4.25-4.43-4.25-8.933 0-3.579.782-5.91 2.614-7.762 1.191-1.192 2.347-1.656 4.27-1.656 1.206-.016 1.581.054 2.507.5M83.617 13.61a10.3 10.3 0 0 0-5.336 3.738l-.48.675-.106-1.03c-.074-.571-.18-1.513-.25-2.102l-.125-1.067h-6.222v.836c.015.48.035 6.817.05 14.117l.04 13.262h7.269l.055-9.223.054-9.203.461-.996c1.067-2.242 2.953-3.543 5.211-3.543.676 0 1.528.09 1.903.215.89.25 1.992 1.211 2.558 2.188.89 1.515.98 2.476.98 11.875v8.687h7.13l-.051-10.113c-.074-9.914-.074-10.11-.48-11.426-.59-1.977-1.387-3.328-2.688-4.648-1.848-1.868-3.91-2.653-6.934-2.633-1.21 0-2.062.105-3.039.39M147.168 13.54c-.586.179-1.547.55-2.117.835-1.012.5-3.11 2.387-3.66 3.277-.27.426-.27.391-.395-.98-.07-.781-.16-1.762-.23-2.188l-.086-.75-3.149.036c-3.113.054-3.129.054-3.113.445 0 .23.02 6.57.035 14.117l.035 13.707h7.293v-8.422c0-4.93.07-8.863.176-9.539.34-2.047 1.461-3.578 3.29-4.488 1.085-.531 1.23-.55 2.702-.48 2.207.109 3.309.8 4.215 2.617.766 1.515.82 2.242.82 11.5v8.812h7.309l-.074-9.754c-.051-9.328-.07-9.793-.442-11.234-1.07-4.059-3.453-6.64-6.972-7.582-1.352-.356-4.25-.32-5.637.07M57.762 13.95c-.055.124-.075 6.515-.055 14.202l.055 13.977h7.113V13.824l-3.523-.054c-2.704-.036-3.54 0-3.59.18M166.23 13.95c-.054.124-.07 6.515-.054 14.202l.054 13.977h7.114V13.824l-3.52-.054c-2.703-.036-3.539 0-3.594.18m0 0"/></svg>