<?xml version="1.0" encoding="UTF-8"?>
<svg width="256px" height="256px" viewBox="0 0 256 256" version="1.1" xmlns="http://www.w3.org/2000/svg" xmlns:xlink="http://www.w3.org/1999/xlink">
    <title>Artboard Copy 36</title>
    <defs>
        <linearGradient x1="-21.2681634%" y1="0%" x2="88.8762164%" y2="77.0793666%" id="linearGradient-1">
            <stop stop-color="#000000" offset="0%"></stop>
            <stop stop-color="#000000" stop-opacity="0" offset="100%"></stop>
        </linearGradient>
    </defs>
    <g id="Artboard-Copy-36" stroke="none" stroke-width="1" fill="none" fill-rule="evenodd">
        <rect fill="#9013FE" x="0" y="0" width="256" height="256"></rect>
        <circle id="Mask" fill="#9013FE" cx="127.61791" cy="127.61791" r="127.61791"></circle>
        <path d="M126.248555,53 C136.11368,53 145.323699,54.0494753 153.878613,56.1484258 C161.311338,57.9720471 167.929573,60.7010446 173.733319,64.3354183 L256,111.833 L256,256 L168.715,256 L77.0172211,203.058433 L77.018,203 L77,203 L77,53 Z" id="Combined-Shape" fill="url(#linearGradient-1)"></path>
        <path d="M126.248555,53 C136.11368,53 145.323699,54.0494753 153.878613,56.1484258 C162.433526,58.2473763 169.909441,61.5457271 176.306358,66.0434783 C182.703276,70.5412294 187.751445,76.4257871 191.450867,83.6971514 C195.150289,90.9685157 197,99.7766117 197,110.121439 C197,120.466267 195.150289,129.274363 191.450867,136.545727 C187.751445,143.817091 182.703276,149.701649 176.306358,154.1994 C169.909441,158.697151 162.433526,161.995502 153.878613,164.094453 C145.323699,166.193403 136.11368,167.242879 126.248555,167.242879 L126.248555,167.242879 L126.248555,203 L77,203 L77,53 Z M129.25,92 L127,92 L127,127 L129.25,127 C136.25,127 141.291667,125.462838 144.375,122.388514 C147.458333,119.314189 149,115.018018 149,109.5 C149,103.981982 147.458333,99.6858108 144.375,96.6114865 C141.291667,93.5371622 136.25,92 129.25,92 L129.25,92 Z" id="Path-2" fill="#FFFFFF"></path>
    </g>
</svg>