<svg xmlns="http://www.w3.org/2000/svg" width="34" height="34" fill="none"><g clip-path="url(#a)"><path fill="#888" fill-rule="evenodd" d="M16.514.74C7.394.74 0 8.133 0 17.252c0 9.12 7.393 16.512 16.512 16.512 9.12 0 16.513-7.392 16.513-16.512C33.026 8.132 25.633.74 16.513.74ZM3.017 17.252C3.017 9.8 9.06 3.756 16.514 3.756c7.453 0 13.496 6.043 13.496 13.496 0 7.454-6.043 13.497-13.497 13.497-7.453 0-13.496-6.043-13.496-13.497Zm14.61-9.412v1.843c.855.066 1.593.259 2.215.578.79.402 1.387.966 1.79 1.693.406.721.61 1.563.61 2.525 0 .967-.206 1.807-.618 2.518-.408.707-1.009 1.255-1.804 1.642a4.803 4.803 0 0 1-.287.127l3.261 5.97h-3.048l-2.963-5.522h-2.78v5.522h-2.731V9.656h4.098V7.84h2.257Zm-3.624 9.106h2.518c.678 0 1.232-.093 1.664-.28.432-.191.751-.469.957-.832.212-.368.317-.82.317-1.355s-.105-.991-.317-1.37a2.014 2.014 0 0 0-.964-.868c-.432-.201-.99-.302-1.671-.302h-2.504v5.007Zm3.624 9.803H15.37v-3.966h2.257v3.966Z" clip-rule="evenodd"/></g><defs><clipPath id="a"><path fill="#fff" d="M.001.74h33.024v33.024H.001z"/></clipPath></defs></svg>