<?xml version="1.0"?>
<svg xmlns="http://www.w3.org/2000/svg" xmlns:xlink="http://www.w3.org/1999/xlink" version="1.1" viewBox="0 0 252 252" width="100px" height="100px"><g transform="translate(-7.56,-7.56) scale(1.06,1.06)"><g fill="none" fill-rule="nonzero" stroke="none" stroke-width="1" stroke-linecap="butt" stroke-linejoin="miter" stroke-miterlimit="10" stroke-dasharray="" stroke-dashoffset="0" font-family="none" font-weight="none" font-size="none" text-anchor="none" style="mix-blend-mode: normal"><path d="M0,252v-252h252v252z" fill="none"/><g fill="#91b496"><path d="M126,10.08c-63.92232,0 -115.92,51.99768 -115.92,115.92c0,63.92232 51.99768,115.92 115.92,115.92c63.92232,0 115.92,-51.99768 115.92,-115.92c0,-22.9824 -6.75218,-44.40579 -18.32906,-62.43891l-6.90047,8.15063c9.5508,15.89616 15.14953,34.43068 15.14953,54.28828c0,58.35816 -47.48184,105.84 -105.84,105.84c-58.35816,0 -105.84,-47.48184 -105.84,-105.84c0,-58.35816 47.48184,-105.84 105.84,-105.84c27.43272,0 52.38529,10.58282 71.20969,27.76922l6.59531,-7.78641c-20.5884,-18.6732 -47.8926,-30.06281 -77.805,-30.06281zM217.91109,39.07969l-97.38422,114.91594l-40.98937,-38.23313l-6.87094,7.37297l48.71672,45.43875l104.22563,-122.97797z"/></g></g></g></svg>
