<?xml version="1.0"?>
<svg height="300" width="300" xmlns="http://www.w3.org/2000/svg" viewBox="0 0 24 24">
  <path fill="#ffffff" d="M17.1 6.2V4c0-1.8-3.7-2.8-7.1-2.8-3.4 0-7.1 1-7.1 2.8 0 .2 0 .4.1.5h-.1v2.2c0 1.3 1.8 2.1 4 2.5v2.2c0 .2.1.4.2.7-1.6.5-2.5 1.3-2.5 2.2V20c0 1.8 3.7 2.8 7.1 2.8 3.4 0 7.1-1 7.1-2.8v-2.8-3c0-.2-.1-.4-.2-.7 1.5-.5 2.5-1.2 2.5-2.2V8.7c0-1.1-1.5-2.1-4-2.5zM10 2.1c3.8 0 6.2 1.1 6.2 1.9 0 .8-2.4 1.9-6.2 1.9-3.8 0-6.2-1.1-6.2-1.9 0-.8 2.4-1.9 6.2-1.9zM3.8 6.8V5.4c1.3.9 3.8 1.4 6.2 1.4 2.4 0 4.9-.5 6.2-1.4v1.4c0 .8-2.4 1.9-6.2 1.9-3.8 0-6.2-1.1-6.2-1.9zM17.9 20c0 .8-2.4 1.9-6.2 1.9-3.8 0-6.2-1.1-6.2-1.9v-1.5c1.3.9 3.8 1.4 6.2 1.4 2.4 0 4.9-.5 6.2-1.4V20zm0-3c0 .8-2.4 1.9-6.2 1.9-3.8 0-6.2-1.1-6.2-1.9v-1.4c1.3.9 3.8 1.4 6.2 1.4 2.4 0 4.9-.5 6.2-1.4V17zm-6.2-.8c-3.8 0-6.2-1.1-6.2-1.9 0-.4.7-1 2.3-1.4 1.3.9 3.8 1.4 6.2 1.4 1.3 0 2.5-.1 3.7-.4.1.1.2.3.2.4 0 .8-2.4 1.9-6.2 1.9zm8.5-4.7c0 .8-2.4 1.9-6.2 1.9s-6.2-1.1-6.2-1.9v-1.4c1.3.9 3.8 1.4 6.2 1.4 2.4 0 4.9-.5 6.2-1.4v1.4zm-6.2-.9c-2.6 0-4.6-.5-5.5-1.1.5 0 1 .1 1.6.1 3.2 0 6.7-.9 7-2.5 2 .4 3.1 1.1 3.1 1.6 0 .8-2.4 1.9-6.2 1.9z"/>
</svg>
