<svg xmlns="http://www.w3.org/2000/svg" width="30" height="30" viewBox="0 0 30 30"><path fill="#7B98A3" d="M29.624 11.613a1.247 1.247 0 0 0-.153-.276 2.728 2.728 0 0 0-2.26-1.046h-.152a1.401 1.401 0 0 1-1.2-.738.038.038 0 0 1-.042-.042c-.16-.276-.3-.504-.462-.78l-.001.001a.04.04 0 0 1-.03-.036 1.45 1.45 0 0 1-.042-1.44.177.177 0 0 0 .075-.117 2.995 2.995 0 0 0 .229-2.563.7.7 0 0 0-.154-.276 19.352 19.352 0 0 0-1.608-1.361 3.309 3.309 0 0 0-.27-.117 2.826 2.826 0 0 0-2.455.663.21.21 0 0 0-.11.075c-.236.199-.536.307-.845.3a1.436 1.436 0 0 1-.54-.118 6.122 6.122 0 0 0-.88-.3 1.415 1.415 0 0 1-.917-1.087.692.692 0 0 0-.042-.154A2.756 2.756 0 0 0 16.307.102a.534.534 0 0 0-.267-.071 17.397 17.397 0 0 0-2.068 0 .772.772 0 0 0-.27.075 2.852 2.852 0 0 0-1.458 2.134.134.134 0 0 0-.042.117 1.367 1.367 0 0 1-.918 1.088c-.264.075-.573.192-.88.3a2.729 2.729 0 0 1-.54.075 1.367 1.367 0 0 1-.843-.3c-.037-.042-.075-.042-.112-.08h.001a2.807 2.807 0 0 0-2.454-.663.397.397 0 0 0-.27.116c-.581.4-1.121.854-1.613 1.359a1.115 1.115 0 0 0-.152.276c-.33.843-.245 1.791.227 2.563.03.038.054.076.075.117.242.455.226 1-.04 1.44a.038.038 0 0 0-.043.042 6.05 6.05 0 0 0-.438.779.04.04 0 0 0-.042.042 1.325 1.325 0 0 1-1.2.738h-.156a2.798 2.798 0 0 0-2.26 1.053.693.693 0 0 0-.153.275 14.923 14.923 0 0 0-.39 2.177.816.816 0 0 0 .042.3 2.845 2.845 0 0 0 1.758 1.76 1.327 1.327 0 0 1 1.033 1.131v.042-.001c.03.303.08.604.152.9v.042a1.499 1.499 0 0 1-.461 1.358.215.215 0 0 0-.112.075 2.881 2.881 0 0 0-1.071 2.219c.01.103.035.205.075.3.337.687.722 1.35 1.15 1.985.035.11.122.199.233.234a2.779 2.779 0 0 0 2.4.152.175.175 0 0 0 .154-.042c.149-.05.305-.076.462-.075.169 0 .335.03.492.088.167.063.323.152.462.263l.69.6.043.042c.385.321.574.82.498 1.317a.27.27 0 0 0-.042.152c-.174.83.024 1.696.54 2.37a.741.741 0 0 0 .27.19c.7.347 1.434.62 2.19.813a.501.501 0 0 0 .346 0 2.789 2.789 0 0 0 1.914-1.44.853.853 0 0 0 .075-.115c.23-.462.717-.737 1.23-.696h.961c.506-.013.98.254 1.23.696a.754.754 0 0 1 .075.116 2.789 2.789 0 0 0 1.914 1.44h.153c.043 0 .112 0 .064-.082a20.644 20.644 0 0 0 2.183-.818.703.703 0 0 0 .271-.192 2.666 2.666 0 0 0 .627-1.746c0-.182-.018-.365-.054-.544a.485.485 0 0 0-.042-.234 1.384 1.384 0 0 1 .54-1.28c-.04-.04.02-.101.06-.06.246-.18.477-.382.69-.6h.043a1.348 1.348 0 0 1 1.25-.31c.045.01.089.024.13.043.052.01.103.023.153.042.164.06.332.108.504.14a2.824 2.824 0 0 0 1.918-.297l.234-.234v.001c.45-.62.835-1.286 1.149-1.985a.7.7 0 0 0 .075-.3 2.94 2.94 0 0 0-1.071-2.218 2.158 2.158 0 0 1-.112-.118 1.32 1.32 0 0 1-.462-1.199v-.046c.072-.295.124-.596.154-.9v-.032c.147-.888.804-1.11.881-1.11a.178.178 0 0 0 .166-.053 2.812 2.812 0 0 0 1.749-1.745.788.788 0 0 0 .042-.3 13.328 13.328 0 0 0-.375-2.18zm-14.62 9.709a6.158 6.158 0 0 1-6.21-6.115 6.156 6.156 0 0 1 6.13-6.196 6.156 6.156 0 0 1 6.19 6.137 6.113 6.113 0 0 1-1.769 4.359 6.125 6.125 0 0 1-4.34 1.815z" opacity=".33"/></svg>