<svg width="14" height="14" viewBox="0 0 14 14" fill="none" xmlns="http://www.w3.org/2000/svg">
<path d="M0 3.48187C0.0173841 3.14487 0.0282686 2.80734 0.0538216 2.47106C0.0858074 2.0512 0.435514 1.71325 0.855581 1.686C1.22824 1.6618 1.6029 1.65632 1.97382 1.61629C3.45645 1.45642 4.82614 0.967807 6.08367 0.166395C6.33782 0.00443731 6.60301 -0.0484792 6.89039 0.0486421C6.96707 0.0745767 7.04088 0.114437 7.10948 0.158129C8.22999 0.873627 9.44623 1.33865 10.757 1.55501C11.2524 1.63674 11.7518 1.67468 12.2539 1.68175C12.7856 1.68914 13.1313 2.03737 13.1682 2.57028C13.2171 3.27619 13.211 3.981 13.1441 4.68457C12.912 7.127 12.1017 9.34036 10.5171 11.2385C9.54735 12.4 8.36833 13.2913 6.98864 13.9145C6.72615 14.0331 6.46763 14.0261 6.20549 13.9072C4.95691 13.3408 3.87215 12.5495 2.9512 11.5344C1.75227 10.213 0.950871 8.6743 0.475781 6.96034C0.160508 5.82289 0.0127765 4.6622 0 3.48187ZM0.923382 2.56965C0.913833 2.73651 0.900433 2.90005 0.895825 3.06393C0.872609 3.88064 0.922269 4.6926 1.05529 5.49931C1.26779 6.78758 1.67096 8.0104 2.3136 9.14906C3.30342 10.9027 4.68903 12.2347 6.52319 13.0852C6.58059 13.1118 6.62607 13.1134 6.6845 13.0865C8.34789 12.3179 9.65864 11.1456 10.6281 9.59676C11.9289 7.51822 12.4098 5.23123 12.3025 2.80213C12.299 2.72415 12.2892 2.64652 12.2822 2.56671C12.2507 2.56471 12.2268 2.56225 12.2029 2.56192C11.6492 2.5533 11.0987 2.50769 10.5528 2.41413C9.16261 2.17584 7.86993 1.68166 6.67893 0.924115C6.62676 0.890962 6.58997 0.88704 6.5339 0.921508C6.31391 1.0564 6.09342 1.19113 5.86613 1.31289C4.55 2.01874 3.14674 2.42614 1.6569 2.53128C1.41786 2.54817 1.17816 2.55662 0.923382 2.56965Z" fill="#4F9879"/>
<path d="M5.73005 8.10645C5.76248 8.06791 5.78211 8.04039 5.80569 8.01682C6.83446 6.98652 7.86411 5.9569 8.89208 4.92571C9.00598 4.81146 9.13337 4.74252 9.2983 4.76645C9.46943 4.79125 9.58845 4.88603 9.6501 5.04687C9.71209 5.20892 9.67897 5.3574 9.5702 5.48988C9.54716 5.51798 9.5202 5.54304 9.49447 5.56882C8.36014 6.70435 7.2259 7.83971 6.09149 8.97515C5.84255 9.22432 5.60841 9.2238 5.358 8.97357C4.79683 8.41281 4.23522 7.85241 3.67477 7.29078C3.49147 7.10714 3.47833 6.84604 3.63964 6.66752C3.81039 6.47867 4.09359 6.47065 4.28087 6.65482C4.54963 6.91914 4.81508 7.18668 5.08132 7.45354C5.29347 7.66623 5.50475 7.87966 5.73005 8.10645Z" fill="#4F9879"/>
</svg>
