<svg id="Layer_1" data-name="Layer 1" xmlns="http://www.w3.org/2000/svg" viewBox="0 0 204.74 48.72"><defs><style>.cls-1{fill:#e11a27;}.cls-2{fill:#fff;}.cls-3{fill:#333132;}</style></defs><title>shift-cryptosecurity-logo</title><rect class="cls-1" x="172.87" width="31.87" height="31.88"/><polygon class="cls-2" points="199.44 19.15 192 19.15 192 26.57 185.63 26.57 185.63 19.15 178.19 19.15 178.19 12.75 185.63 12.75 185.63 5.3 192 5.3 192 12.75 199.44 12.75 199.44 19.15"/><path class="cls-3" d="M16.22,4.09a16.2,16.2,0,0,1,4.7,3l-3.29,3.87a14.43,14.43,0,0,0-3.46-2.33A9.25,9.25,0,0,0,10.74,8c-2.43,0-4,1.06-4,2.53.21,1.54.9,1.68,4.7,2.57l1,.24c6.23,1.58,8.67,2.91,8.8,7.23,0,4.7-3.77,8.12-9.93,8.12a14.62,14.62,0,0,1-5.83-1.06A19.1,19.1,0,0,1,.12,24.1l3.36-3.91a18.08,18.08,0,0,0,4,2.88,9.15,9.15,0,0,0,3.87.79c2.57,0,4.35-1,4.35-2.78-.17-1.57-1.09-1.85-4.18-2.6-.55-.11-1.13-.24-1.75-.41-6.61-1.72-8.49-3.5-8.49-7.23,0-4.08,3.8-7.64,9.56-7.64A15.14,15.14,0,0,1,16.22,4.09Z"/><path class="cls-3" d="M59.9,28.1H54.35V17.59H44.52V28.1H39V3.78h5.55v9.15h9.83V3.78H59.9Z"/><path class="cls-3" d="M84.83,28.1H79.28V3.78h5.55Z"/><path class="cls-3" d="M121.72,8.44h-12v5.45h11.1v4.66h-11.1V28.1h-5.55V3.78h17.5Z"/><path class="cls-3" d="M158,8.54h-6.92V28.1h-5.55V8.54h-6.85V3.78H158Z"/><path class="cls-3" d="M8.86,39.38l-1,1.2a3.89,3.89,0,0,0-2.76-1.2c-2,0-3.32,1.58-3.32,3.9S3.05,47.21,5,47.21a3.14,3.14,0,0,0,1.46-.32A8.8,8.8,0,0,0,8,45.8L9,47a5.26,5.26,0,0,1-4,1.76C1.93,48.72,0,46.42,0,43.28s1.89-5.41,5.1-5.41A5.32,5.32,0,0,1,8.86,39.38Z"/><path class="cls-3" d="M22.77,48.48l-2.62-4H18v4H16.26V38.11h4.67a3.14,3.14,0,0,1,3.39,3.2,3,3,0,0,1-2.36,3l2.74,4.12ZM18,43.06h2.63c1.23,0,2-.63,2-1.75s-.76-1.77-2-1.77H18Z"/><path class="cls-3" d="M40,38.11l-3.67,6v4.38H34.55V44.09l-3.66-6h1.92l2.64,4.46,2.65-4.46Z"/><path class="cls-3" d="M51.88,38.11a3.2,3.2,0,1,1,0,6.38h-3v4H47.11V38.11Zm-3,1.43v3.52h2.73c1.23,0,2-.63,2-1.75s-.75-1.77-2-1.77Z"/><path class="cls-3" d="M70.07,39.58H66.91v8.9H65.19v-8.9H62.05V38.11h8Z"/><path class="cls-3" d="M86.41,43.3c0,3.08-2,5.46-5,5.42s-5-2.31-5-5.42,2-5.43,5-5.43S86.44,40.21,86.41,43.3Zm-8.29,0c0,2.32,1.29,3.9,3.26,3.9s3.26-1.58,3.26-3.9-1.29-3.91-3.26-3.91S78.12,41,78.12,43.3Z"/><path class="cls-3" d="M101.42,39.45l-1,1.2a7,7,0,0,0-1.54-1,4.23,4.23,0,0,0-1.53-.26c-1.27,0-2.11.61-2.11,1.45,0,.63.37.93,1.07,1.17.34.11.88.26,1.59.42,2.66.66,3.6,1.26,3.66,3,0,1.93-1.58,3.29-4,3.29a6.07,6.07,0,0,1-2.34-.43,8.18,8.18,0,0,1-2.16-1.43l1-1.21a7.61,7.61,0,0,0,1.81,1.23,4.2,4.2,0,0,0,1.68.33c1.33,0,2.24-.63,2.24-1.66,0-.7-.49-1.07-1.13-1.27-.32-.11-.86-.24-1.64-.41-2.7-.65-3.55-1.35-3.55-3s1.64-3,3.85-3A5.65,5.65,0,0,1,101.42,39.45Z"/><path class="cls-3" d="M116.22,39.57h-5.38v2.84h5v1.44h-5V47h5.52v1.46H109.1V38.11h7.12Z"/><path class="cls-3" d="M132.21,39.38l-1,1.2a3.91,3.91,0,0,0-2.77-1.2c-2,0-3.31,1.58-3.31,3.9s1.28,3.93,3.26,3.93a3.14,3.14,0,0,0,1.46-.32,8.8,8.8,0,0,0,1.52-1.09l1,1.16a5.26,5.26,0,0,1-4,1.76c-3.13,0-5.06-2.3-5.06-5.44s1.88-5.41,5.1-5.41A5.32,5.32,0,0,1,132.21,39.38Z"/><path class="cls-3" d="M147.65,45.06c0,2.45-1.43,3.66-4.05,3.66s-4-1.21-4-3.66v-7h1.73V45a2.33,2.33,0,0,0,4.65,0V38.11h1.72Z"/><path class="cls-3" d="M162.21,48.48l-2.62-4h-2.15v4H155.7V38.11h4.66a3.13,3.13,0,0,1,3.39,3.2,3,3,0,0,1-2.35,3l2.73,4.12Zm-4.77-5.42h2.63c1.23,0,2-.63,2-1.75s-.76-1.77-2-1.77h-2.62Z"/><path class="cls-3" d="M173.38,48.48h-1.73V38.11h1.73Z"/><path class="cls-3" d="M188.92,39.58h-3.16v8.9H184v-8.9H180.9V38.11h8Z"/><path class="cls-3" d="M204.61,38.11l-3.67,6v4.38h-1.73V44.09l-3.66-6h1.92l2.64,4.46,2.65-4.46Z"/></svg>