<svg xmlns="http://www.w3.org/2000/svg" xmlns:xlink="http://www.w3.org/1999/xlink" width="512" height="512" viewBox="0 0 512 512"><defs><path id="a" d="M6.095 0h115.931c7.855 0 14.222 6.368 14.222 14.222v97.524H0V6.096A6.095 6.095 0 0 1 6.095 0z"/><path id="b" d="M18.297 14.222h99.655a6.095 6.095 0 0 1 6.095 6.095v91.429H12.201V20.317a6.095 6.095 0 0 1 6.096-6.095z"/><path id="d" d="M24.65 109.173h5.881v-7.22h7.079c1.122 0 2.031-.91 2.031-2.032V19.573a4.063 4.063 0 0 0-4.063-4.063H17.469c-1.122 0-2.032.91-2.032 2.032V99.92c0 1.122.91 2.031 2.032 2.031h7.18v7.221z"/><filter id="c" width="199.2%" height="125.6%" x="-49.6%" y="-12.8%" filterUnits="objectBoundingBox"><feOffset in="SourceAlpha" result="shadowOffsetOuter1"/><feGaussianBlur in="shadowOffsetOuter1" result="shadowBlurOuter1" stdDeviation="4"/><feColorMatrix in="shadowBlurOuter1" values="0 0 0 0 0 0 0 0 0 0 0 0 0 0 0 0 0 0 0.11 0"/></filter><path id="f" d="M105.992 109.173h5.881v-7.22h7.079c1.122 0 2.032-.91 2.032-2.032V19.573a4.063 4.063 0 0 0-4.064-4.063H98.811c-1.122 0-2.031.91-2.031 2.032V99.92c0 1.122.91 2.031 2.031 2.031h7.181v7.221z"/><filter id="e" width="199.2%" height="125.6%" x="-49.6%" y="-12.8%" filterUnits="objectBoundingBox"><feOffset in="SourceAlpha" result="shadowOffsetOuter1"/><feGaussianBlur in="shadowOffsetOuter1" result="shadowBlurOuter1" stdDeviation="4"/><feColorMatrix in="shadowBlurOuter1" values="0 0 0 0 0 0 0 0 0 0 0 0 0 0 0 0 0 0 0.11 0"/></filter><path id="h" d="M75.489 109.173h5.881V90.06h5.045c1.122 0 2.032-.91 2.032-2.032V27.7a4.063 4.063 0 0 0-4.064-4.063H72.375c-1.122 0-2.032.91-2.032 2.032v62.359c0 1.122.91 2.032 2.032 2.032h3.114v19.113z"/><filter id="g" width="232.6%" height="128.1%" x="-66.3%" y="-14%" filterUnits="objectBoundingBox"><feOffset in="SourceAlpha" result="shadowOffsetOuter1"/><feGaussianBlur in="shadowOffsetOuter1" result="shadowBlurOuter1" stdDeviation="4"/><feColorMatrix in="shadowBlurOuter1" values="0 0 0 0 0 0 0 0 0 0 0 0 0 0 0 0 0 0 0.11 0"/></filter><path id="j" d="M51.086 109.173h5.881V90.06h5.045c1.122 0 2.032-.91 2.032-2.032v-62.36c0-1.121-.91-2.031-2.032-2.031h-14.04c-1.122 0-2.031.91-2.031 2.032v62.359c0 1.122.91 2.032 2.031 2.032h3.114v19.113z"/><filter id="i" width="232.6%" height="128.1%" x="-66.3%" y="-14%" filterUnits="objectBoundingBox"><feOffset in="SourceAlpha" result="shadowOffsetOuter1"/><feGaussianBlur in="shadowOffsetOuter1" result="shadowBlurOuter1" stdDeviation="4"/><feColorMatrix in="shadowBlurOuter1" values="0 0 0 0 0 0 0 0 0 0 0 0 0 0 0 0 0 0 0.11 0"/></filter><linearGradient id="k" x1="50%" x2="50%" y1="33.29%" y2="97.927%"><stop offset="0%" stop-color="#CBC4AF"/><stop offset="100%" stop-color="#D3CDBB"/></linearGradient><path id="l" d="M126.053 111.746h146.47c16.832 0 30.477 13.645 30.477 30.476v339.302C303 498.355 289.355 512 272.524 512h-146.47c-16.832 0-30.477-13.645-30.477-30.476V142.222c0-16.831 13.645-30.476 30.476-30.476zm148.465 331.175c-7.855 0-14.223 6.367-14.223 14.222v22.35c0 7.854 6.368 14.221 14.223 14.221h.025c7.855 0 14.222-6.367 14.222-14.222v-22.35c0-7.854-6.367-14.221-14.222-14.221h-.025z"/><linearGradient id="m" x1="50%" x2="50%" y1="-22.754%" y2="100%"><stop offset="0%" stop-color="#949083"/><stop offset="100%" stop-color="#D4D1C9"/></linearGradient><linearGradient id="n" x1="50%" x2="50%" y1="-48.145%" y2="100%"><stop offset="0%" stop-color="#949083"/><stop offset="100%" stop-color="#D4D1C9"/></linearGradient></defs><g fill="none" fill-rule="evenodd" transform="translate(57)"><g transform="translate(130.148)"><use fill="#CBC4AF" xlink:href="#a"/><path stroke="#CBC4AF" stroke-width="2.032" d="M1.016 110.73h134.216V14.222c0-7.293-5.912-13.206-13.206-13.206H6.096a5.08 5.08 0 0 0-5.08 5.08V110.73z"/><use fill="#264434" xlink:href="#b"/><path stroke="#ABA9A2" stroke-width="2.032" d="M13.217 110.73h109.814V20.317a5.08 5.08 0 0 0-5.08-5.079H18.298a5.08 5.08 0 0 0-5.08 5.08v90.412z"/><use fill="#000" filter="url(#c)" xlink:href="#d"/><use fill="#A39771" xlink:href="#d"/><use fill="#000" filter="url(#e)" xlink:href="#f"/><use fill="#A39771" xlink:href="#f"/><use fill="#000" filter="url(#g)" xlink:href="#h"/><use fill="#A39771" xlink:href="#h"/><g transform="matrix(-1 0 0 1 109.985 0)"><use fill="#000" filter="url(#i)" xlink:href="#j"/><use fill="#A39771" xlink:href="#j"/></g></g><use fill="url(#k)" xlink:href="#l"/><path stroke="#CBC4AF" stroke-width="2.032" d="M126.053 112.762c-16.27 0-29.46 13.19-29.46 29.46v339.302c0 16.27 13.19 29.46 29.46 29.46h146.47c16.271 0 29.461-13.19 29.461-29.46V142.222c0-16.27-13.19-29.46-29.46-29.46h-146.47zm148.465 329.143h.025c8.416 0 15.238 6.822 15.238 15.238v22.35c0 8.415-6.822 15.237-15.238 15.237h-.025c-8.416 0-15.239-6.822-15.239-15.238v-22.35c0-8.415 6.823-15.237 15.239-15.237z"/><path fill="url(#m)" opacity=".375" style="mix-blend-mode:darken" d="M97.611 335.238H303V351.492H97.611z"/><path fill="url(#n)" opacity=".375" style="mix-blend-mode:darken" transform="rotate(-180 200.305 327.111)" d="M97.611 318.984H303V335.238H97.611z"/><path fill="#A39771" d="M184.2 388.06c0-8.412 5.698-15.412 13.425-17.53v-25.827l-.367.508c-3.356-2.258-30.091-20.747-35.76-38.671-7.36-1.214-13-7.566-13-15.271 0-8.582 6.965-15.525 15.51-15.553 8.573 0 15.51 6.972 15.51 15.553 0 6.83-4.483 12.589-10.632 14.65 4.428 11.007 19.544 23.908 28.767 30.654l-.029-102.438h-15.99l10.407-18.01 10.406-18.036 10.407 18.037 10.378 18.009H207.27v74.516c9.815-7.141 26.933-21.707 29.922-33.336h-8.15v-24.558h24.507v24.558h-8.968c-3.328 18.771-32.968 39.264-36.55 41.663l-.761.649v52.898c7.727 2.117 13.424 9.117 13.424 17.529 0 10.077-8.179 18.234-18.247 18.234-10.096.029-18.274-8.129-18.246-18.234v.006z"/></g></svg>