<svg xmlns="http://www.w3.org/2000/svg" id="flag-icons-np" viewBox="0 0 512 512">
  <defs>
    <clipPath id="b">
      <path d="M0-16h512v512H0z"/>
    </clipPath>
    <clipPath id="a">
      <path d="M0 0h512v512H0z"/>
    </clipPath>
  </defs>
  <g clip-path="url(#a)">
    <g clip-path="url(#b)" transform="translate(0 16)">
      <g fill-rule="evenodd">
        <path fill="#ce0000" stroke="#000063" stroke-width="13" d="M7 490h378L137 238h258L7-9v499z"/>
        <path fill="#fff" d="M181 356l-27 9 21 20-29-2 12 26-25-12v28l-19-21-10 27-10-26-20 20 2-27-27 11 13-25-30 1 22-19-28-10 27-9-21-20 29 2-12-26 26 12-1-29 19 21 11-26 9 26 20-21-2 28 27-11-13 25 30-1-22 18zm-33-185l-11 9 6 4a94 94 0 0030-36c2 21-17 69-68 70a71 71 0 01-72-71c10 19 16 27 32 37l5-5-11-8 14-4-8-12 15 1-2-15 13 7 4-13 9 11 8-10 5 14 12-9-2 15 14-2-6 13 13 4z"/>
      </g>
    </g>
  </g>
</svg>
