<svg xmlns="http://www.w3.org/2000/svg" id="flag-icons-va" viewBox="0 0 512 512">
  <g fill-rule="evenodd">
    <path fill="#fff" d="M256 0h256v512H256z"/>
    <path fill="#fff" stroke="#000" d="M282-735s56 223 119 300c69 88 113 88 113 88l71-18s-42 2-124-104a697 697 0 01-108-283l-71 17z" transform="matrix(-.21542 0 0 .17871 451 341)"/>
    <path fill="#fff" stroke="#000" d="M285-728c-1-9 34 221 140 328 53 53 89 53 89 53l88-18s-51 4-134-102a650 650 0 01-108-264l-75 3z" transform="matrix(.21542 0 0 .17871 314 342)"/>
    <path fill="#fff" stroke="#000" d="M282-735s56 223 119 300c69 88 113 88 113 88l71-18s-42 2-124-104a697 697 0 01-108-283l-71 17z" transform="matrix(.21542 0 0 .17871 314 342)"/>
    <path fill="#fff" stroke="#000" d="M285-728c-1-9 34 221 140 328 53 53 89 53 89 53l88-18s-51 4-134-102a650 650 0 01-108-264l-75 3z" transform="matrix(-.21542 0 0 .17871 451 341)"/>
    <path fill="#fff133" stroke="#000" d="M345-596l9 22s1-10 8-12l7-1 32 58c6 9-3 17-1 17l26-12s-10 1-15-6l-35-60 12-5c5-3 10 8 10 8l-13-27s0 9-4 11l-8 3-8-13c-5-7 4-14 4-14l-23 11s8 5 11 9l5 9-8 3c-4 2-8 0-9-1z" transform="matrix(.21538 .00384 -.00463 .17867 312 348)"/>
    <g fill="#b00" stroke="#000" stroke-width="14">
      <path d="M213-453c-36 0-71 35-71 70s35 71 71 71h195c35 0 70-35 70-71 0-37-35-70-71-70H213z" transform="matrix(.01583 .00247 .00912 -.01043 340 337)"/>
      <path d="M213-453c-36 0-71 35-71 70s35 71 71 71h195c35 0 70-35 70-71 0-37-35-70-71-70H213z" transform="matrix(.01553 .00281 .0093 -.0104 339 338)"/>
      <path d="M213-453c-36 0-71 35-71 70s35 71 71 71h195c35 0 70-35 70-71 0-37-35-70-71-70H213z" transform="matrix(.01583 .00247 .00912 -.01043 337 339)"/>
      <path d="M213-453c-36 0-71 35-71 70s35 71 71 71h195c35 0 70-35 70-71 0-37-35-70-71-70H213z" transform="matrix(.01606 -.001 .00564 -.01204 357 321)"/>
      <path d="M213-453c-36 0-71 35-71 70s35 71 71 71h195c35 0 70-35 70-71 0-37-35-70-71-70H213z" transform="matrix(.01588 -.00034 .0061 -.01195 356 322)"/>
      <path d="M213-453c-36 0-71 35-71 70s35 71 71 71h195c35 0 70-35 70-71 0-37-35-70-71-70H213z" transform="matrix(.01608 -.00073 .00592 -.01194 354 324)"/>
      <path d="M213-453c-36 0-71 35-71 70s35 71 71 71h195c35 0 70-35 70-71 0-37-35-70-71-70H213z" transform="matrix(.01587 .0005 .007 -.0116 353 325)"/>
      <path d="M213-453c-36 0-71 35-71 70s35 71 71 71h195c35 0 70-35 70-71 0-37-35-70-71-70H213z" transform="matrix(.01584 -.00241 .00408 -.01247 361 315)"/>
      <path d="M213-453c-36 0-71 35-71 70s35 71 71 71h195c35 0 70-35 70-71 0-37-35-70-71-70H213z" transform="matrix(.0157 -.002 .00426 -.0125 360 317)"/>
      <path d="M213-453c-36 0-71 35-71 70s35 71 71 71h195c35 0 70-35 70-71 0-37-35-70-71-70H213z" transform="matrix(.01584 -.00241 .00408 -.01247 359 319)"/>
      <path d="M213-453c-36 0-71 35-71 70s35 71 71 71h195c35 0 70-35 70-71 0-37-35-70-71-70H213z" transform="matrix(.01575 -.00175 .00455 -.01242 358 320)"/>
      <path d="M213-453c-36 0-71 35-71 70s35 71 71 71h195c35 0 70-35 70-71 0-37-35-70-71-70H213z" transform="matrix(.01601 .0014 .00808 -.01102 346 331)"/>
      <path d="M213-453c-36 0-71 35-71 70s35 71 71 71h195c35 0 70-35 70-71 0-37-35-70-71-70H213z" transform="matrix(.01575 .00175 .00826 -.011 345 333)"/>
      <path d="M213-453c-36 0-71 35-71 70s35 71 71 71h195c35 0 70-35 70-71 0-37-35-70-71-70H213z" transform="matrix(.01601 .0014 .00808 -.01102 343 334)"/>
      <path d="M213-453c-36 0-71 35-71 70s35 71 71 71h195c35 0 70-35 70-71 0-37-35-70-71-70H213z" transform="matrix(.01553 .00281 .0093 -.0104 342 335)"/>
      <path d="M213-453c-36 0-71 35-71 70s35 71 71 71h195c35 0 70-35 70-71 0-37-35-70-71-70H213z" transform="matrix(.0161 .00013 .00681 -.0116 352 326)"/>
      <path d="M213-453c-36 0-71 35-71 70s35 71 71 71h195c35 0 70-35 70-71 0-37-35-70-71-70H213z" transform="matrix(.01587 .0005 .007 -.0116 351 328)"/>
      <path d="M213-453c-36 0-71 35-71 70s35 71 71 71h195c35 0 70-35 70-71 0-37-35-70-71-70H213z" transform="matrix(.01601 .0014 .00808 -.01102 349 329)"/>
      <path d="M213-453c-36 0-71 35-71 70s35 71 71 71h195c35 0 70-35 70-71 0-37-35-70-71-70H213z" transform="matrix(.01575 .00175 .00826 -.011 348 330)"/>
      <path d="M213-453c-36 0-71 35-71 70s35 71 71 71h195c35 0 70-35 70-71 0-37-35-70-71-70H213z" transform="matrix(.01497 -.00495 .0011 -.0129 369 296)"/>
      <path d="M213-453c-36 0-71 35-71 70s35 71 71 71h195c35 0 70-35 70-71 0-37-35-70-71-70H213z" transform="matrix(.01532 -.00352 .0025 -.01283 369 296)"/>
      <path d="M213-453c-36 0-71 35-71 70s35 71 71 71h195c35 0 70-35 70-71 0-37-35-70-71-70H213z" transform="matrix(.0154 -.00394 .00232 -.01278 368 298)"/>
      <path d="M213-453c-36 0-71 35-71 70s35 71 71 71h195c35 0 70-35 70-71 0-37-35-70-71-70H213z" transform="matrix(.01532 -.00352 .0025 -.01283 368 300)"/>
      <path d="M213-453c-36 0-71 35-71 70s35 71 71 71h195c35 0 70-35 70-71 0-37-35-70-71-70H213z" transform="matrix(.01493 -.00453 .00126 -.01295 371 290)"/>
      <path d="M213-453c-36 0-71 35-71 70s35 71 71 71h195c35 0 70-35 70-71 0-37-35-70-71-70H213z" transform="matrix(.01497 -.00495 .0011 -.0129 371 292)"/>
      <path d="M213-453c-36 0-71 35-71 70s35 71 71 71h195c35 0 70-35 70-71 0-37-35-70-71-70H213z" transform="matrix(.01493 -.00453 .00126 -.01295 370 294)"/>
      <path d="M213-453c-36 0-71 35-71 70s35 71 71 71h195c35 0 70-35 70-71 0-37-35-70-71-70H213z" transform="matrix(.01572 -.0029 .00353 -.01259 364 308)"/>
      <path d="M213-453c-36 0-71 35-71 70s35 71 71 71h195c35 0 70-35 70-71 0-37-35-70-71-70H213z" transform="matrix(.0156 -.00249 .0037 -.01262 364 310)"/>
      <path d="M213-453c-36 0-71 35-71 70s35 71 71 71h195c35 0 70-35 70-71 0-37-35-70-71-70H213z" transform="matrix(.01572 -.0029 .00353 -.01259 362 312)"/>
      <path d="M213-453c-36 0-71 35-71 70s35 71 71 71h195c35 0 70-35 70-71 0-37-35-70-71-70H213z" transform="matrix(.0157 -.002 .00426 -.0125 362 313)"/>
      <path d="M213-453c-36 0-71 35-71 70s35 71 71 71h195c35 0 70-35 70-71 0-37-35-70-71-70H213z" transform="matrix(.0154 -.00394 .00232 -.01278 367 302)"/>
      <path d="M213-453c-36 0-71 35-71 70s35 71 71 71h195c35 0 70-35 70-71 0-37-35-70-71-70H213z" transform="matrix(.0156 -.00249 .0037 -.01262 367 303)"/>
      <path d="M213-453c-36 0-71 35-71 70s35 71 71 71h195c35 0 70-35 70-71 0-37-35-70-71-70H213z" transform="matrix(.01572 -.0029 .00353 -.01259 366 305)"/>
      <path d="M213-453c-36 0-71 35-71 70s35 71 71 71h195c35 0 70-35 70-71 0-37-35-70-71-70H213z" transform="matrix(.0156 -.00249 .0037 -.01262 365 306)"/>
      <path d="M213-453c-36 0-71 35-71 70s35 71 71 71h195c35 0 70-35 70-71 0-37-35-70-71-70H213z" transform="matrix(.01384 -.0069 -.00138 -.01288 374 280)"/>
      <path d="M213-453c-36 0-71 35-71 70s35 71 71 71h195c35 0 70-35 70-71 0-37-35-70-71-70H213z" transform="matrix(.01486 -.00518 .00082 -.01291 374 281)"/>
      <path d="M213-453c-36 0-71 35-71 70s35 71 71 71h195c35 0 70-35 70-71 0-37-35-70-71-70H213z" transform="matrix(.01483 -.00476 .00099 -.01297 374 283)"/>
      <path d="M213-453c-36 0-71 35-71 70s35 71 71 71h195c35 0 70-35 70-71 0-37-35-70-71-70H213z" transform="matrix(.01388 -.00647 -.00122 -.01295 375 274)"/>
      <path d="M213-453c-36 0-71 35-71 70s35 71 71 71h195c35 0 70-35 70-71 0-37-35-70-71-70H213z" transform="matrix(.01384 -.0069 -.00138 -.01288 374 276)"/>
      <path d="M213-453c-36 0-71 35-71 70s35 71 71 71h195c35 0 70-35 70-71 0-37-35-70-71-70H213z" transform="matrix(.01388 -.00647 -.00122 -.01295 374 278)"/>
      <path d="M213-453c-36 0-71 35-71 70s35 71 71 71h195c35 0 70-35 70-71 0-37-35-70-71-70H213z" transform="matrix(.01486 -.00518 .00082 -.01291 373 285)"/>
      <path d="M213-453c-36 0-71 35-71 70s35 71 71 71h195c35 0 70-35 70-71 0-37-35-70-71-70H213z" transform="matrix(.01493 -.00453 .00126 -.01295 372 286)"/>
      <path d="M213-453c-36 0-71 35-71 70s35 71 71 71h195c35 0 70-35 70-71 0-37-35-70-71-70H213z" transform="matrix(.01497 -.00495 .0011 -.0129 372 288)"/>
    </g>
    <g fill="#b00" stroke="#000" stroke-width="14">
      <path d="M213-453c-36 0-71 35-71 70s35 71 71 71h195c35 0 70-35 70-71 0-37-35-70-71-70H213z" transform="matrix(-.01599 .0016 -.00828 -.01091 423 331)"/>
      <path d="M213-453c-36 0-71 35-71 70s35 71 71 71h195c35 0 70-35 70-71 0-37-35-70-71-70H213z" transform="matrix(-.01571 .00195 -.00846 -.0109 424 333)"/>
      <path d="M213-453c-36 0-71 35-71 70s35 71 71 71h195c35 0 70-35 70-71 0-37-35-70-71-70H213z" transform="matrix(-.01599 .0016 -.00828 -.01091 426 334)"/>
      <path d="M213-453c-36 0-71 35-71 70s35 71 71 71h195c35 0 70-35 70-71 0-37-35-70-71-70H213z" transform="matrix(-.01594 -.00187 -.00468 -.01232 407 315)"/>
      <path d="M213-453c-36 0-71 35-71 70s35 71 71 71h195c35 0 70-35 70-71 0-37-35-70-71-70H213z" transform="matrix(-.01582 -.00121 -.00515 -.01226 408 316)"/>
      <path d="M213-453c-36 0-71 35-71 70s35 71 71 71h195c35 0 70-35 70-71 0-37-35-70-71-70H213z" transform="matrix(-.01598 -.0016 -.00497 -.01224 410 318)"/>
      <path d="M213-453c-36 0-71 35-71 70s35 71 71 71h195c35 0 70-35 70-71 0-37-35-70-71-70H213z" transform="matrix(-.01588 -.00037 -.00607 -.01196 410 319)"/>
      <path d="M213-453c-36 0-71 35-71 70s35 71 71 71h195c35 0 70-35 70-71 0-37-35-70-71-70H213z" transform="matrix(-.01562 -.00328 -.0031 -.01267 404 309)"/>
      <path d="M213-453c-36 0-71 35-71 70s35 71 71 71h195c35 0 70-35 70-71 0-37-35-70-71-70H213z" transform="matrix(-.01551 -.00286 -.00327 -.0127 405 311)"/>
      <path d="M213-453c-36 0-71 35-71 70s35 71 71 71h195c35 0 70-35 70-71 0-37-35-70-71-70H213z" transform="matrix(-.01562 -.00328 -.0031 -.01267 406 313)"/>
      <path d="M213-453c-36 0-71 35-71 70s35 71 71 71h195c35 0 70-35 70-71 0-37-35-70-71-70H213z" transform="matrix(-.01558 -.0026 -.00357 -.01265 407 314)"/>
      <path d="M213-453c-36 0-71 35-71 70s35 71 71 71h195c35 0 70-35 70-71 0-37-35-70-71-70H213z" transform="matrix(-.01609 .0005 -.0072 -.01144 417 326)"/>
      <path d="M213-453c-36 0-71 35-71 70s35 71 71 71h195c35 0 70-35 70-71 0-37-35-70-71-70H213z" transform="matrix(-.01585 .00088 -.00738 -.01143 418 327)"/>
      <path d="M213-453c-36 0-71 35-71 70s35 71 71 71h195c35 0 70-35 70-71 0-37-35-70-71-70H213z" transform="matrix(-.01609 .0005 -.0072 -.01144 420 329)"/>
      <path d="M213-453c-36 0-71 35-71 70s35 71 71 71h195c35 0 70-35 70-71 0-37-35-70-71-70H213z" transform="matrix(-.01571 .00195 -.00846 -.0109 421 330)"/>
      <path d="M213-453c-36 0-71 35-71 70s35 71 71 71h195c35 0 70-35 70-71 0-37-35-70-71-70H213z" transform="matrix(-.01607 -.00076 -.00589 -.01195 412 321)"/>
      <path d="M213-453c-36 0-71 35-71 70s35 71 71 71h195c35 0 70-35 70-71 0-37-35-70-71-70H213z" transform="matrix(-.01588 -.00037 -.00607 -.01196 413 322)"/>
      <path d="M213-453c-36 0-71 35-71 70s35 71 71 71h195c35 0 70-35 70-71 0-37-35-70-71-70H213z" transform="matrix(-.01609 .0005 -.0072 -.01144 414 323)"/>
      <path d="M213-453c-36 0-71 35-71 70s35 71 71 71h195c35 0 70-35 70-71 0-37-35-70-71-70H213z" transform="matrix(-.01585 .00088 -.00738 -.01143 415 324)"/>
      <path d="M213-453c-36 0-71 35-71 70s35 71 71 71h195c35 0 70-35 70-71 0-37-35-70-71-70H213z" transform="matrix(-.01455 -.00577 -.00008 -.01293 397 289)"/>
      <path d="M213-453c-36 0-71 35-71 70s35 71 71 71h195c35 0 70-35 70-71 0-37-35-70-71-70H213z" transform="matrix(-.015 -.00436 -.00148 -.01293 397 290)"/>
      <path d="M213-453c-36 0-71 35-71 70s35 71 71 71h195c35 0 70-35 70-71 0-37-35-70-71-70H213z" transform="matrix(-.01505 -.00478 -.00131 -.01288 397 292)"/>
      <path d="M213-453c-36 0-71 35-71 70s35 71 71 71h195c35 0 70-35 70-71 0-37-35-70-71-70H213z" transform="matrix(-.015 -.00436 -.00148 -.01293 398 293)"/>
      <path d="M213-453c-36 0-71 35-71 70s35 71 71 71h195c35 0 70-35 70-71 0-37-35-70-71-70H213z" transform="matrix(-.01455 -.00534 -.00025 -.013 395 283)"/>
      <path d="M213-453c-36 0-71 35-71 70s35 71 71 71h195c35 0 70-35 70-71 0-37-35-70-71-70H213z" transform="matrix(-.01455 -.00577 -.00008 -.01293 396 285)"/>
      <path d="M213-453c-36 0-71 35-71 70s35 71 71 71h195c35 0 70-35 70-71 0-37-35-70-71-70H213z" transform="matrix(-.01455 -.00534 -.00025 -.013 396 287)"/>
      <path d="M213-453c-36 0-71 35-71 70s35 71 71 71h195c35 0 70-35 70-71 0-37-35-70-71-70H213z" transform="matrix(-.01546 -.00376 -.00253 -.01275 401 302)"/>
      <path d="M213-453c-36 0-71 35-71 70s35 71 71 71h195c35 0 70-35 70-71 0-37-35-70-71-70H213z" transform="matrix(-.01538 -.00334 -.0027 -.0128 401 304)"/>
      <path d="M213-453c-36 0-71 35-71 70s35 71 71 71h195c35 0 70-35 70-71 0-37-35-70-71-70H213z" transform="matrix(-.01546 -.00376 -.00253 -.01275 402 306)"/>
      <path d="M213-453c-36 0-71 35-71 70s35 71 71 71h195c35 0 70-35 70-71 0-37-35-70-71-70H213z" transform="matrix(-.01551 -.00286 -.00327 -.0127 403 307)"/>
      <path d="M213-453c-36 0-71 35-71 70s35 71 71 71h195c35 0 70-35 70-71 0-37-35-70-71-70H213z" transform="matrix(-.01505 -.00478 -.00131 -.01288 399 295)"/>
      <path d="M213-453c-36 0-71 35-71 70s35 71 71 71h195c35 0 70-35 70-71 0-37-35-70-71-70H213z" transform="matrix(-.01538 -.00334 -.0027 -.0128 398 296)"/>
      <path d="M213-453c-36 0-71 35-71 70s35 71 71 71h195c35 0 70-35 70-71 0-37-35-70-71-70H213z" transform="matrix(-.01546 -.00376 -.00253 -.01275 399 298)"/>
      <path d="M213-453c-36 0-71 35-71 70s35 71 71 71h195c35 0 70-35 70-71 0-37-35-70-71-70H213z" transform="matrix(-.01538 -.00334 -.0027 -.0128 400 300)"/>
      <path d="M213-453c-36 0-71 35-71 70s35 71 71 71h195c35 0 70-35 70-71 0-37-35-70-71-70H213z" transform="matrix(-.01327 -.00764 .00239 -.01277 393 273)"/>
      <path d="M213-453c-36 0-71 35-71 70s35 71 71 71h195c35 0 70-35 70-71 0-37-35-70-71-70H213z" transform="matrix(-.01443 -.00598 .0002 -.01293 393 274)"/>
      <path d="M213-453c-36 0-71 35-71 70s35 71 71 71h195c35 0 70-35 70-71 0-37-35-70-71-70H213z" transform="matrix(-.01443 -.00556 .00003 -.013 394 276)"/>
      <path d="M213-453c-36 0-71 35-71 70s35 71 71 71h195c35 0 70-35 70-71 0-37-35-70-71-70H213z" transform="matrix(-.01334 -.00722 .00224 -.01286 393 267)"/>
      <path d="M213-453c-36 0-71 35-71 70s35 71 71 71h195c35 0 70-35 70-71 0-37-35-70-71-70H213z" transform="matrix(-.01327 -.00764 .00239 -.01277 393 269)"/>
      <path d="M213-453c-36 0-71 35-71 70s35 71 71 71h195c35 0 70-35 70-71 0-37-35-70-71-70H213z" transform="matrix(-.01334 -.00722 .00224 -.01286 393 271)"/>
      <path d="M213-453c-36 0-71 35-71 70s35 71 71 71h195c35 0 70-35 70-71 0-37-35-70-71-70H213z" transform="matrix(-.01443 -.00598 .0002 -.01293 394 278)"/>
      <path d="M213-453c-36 0-71 35-71 70s35 71 71 71h195c35 0 70-35 70-71 0-37-35-70-71-70H213z" transform="matrix(-.01455 -.00534 -.00025 -.013 394 279)"/>
      <path d="M213-453c-36 0-71 35-71 70s35 71 71 71h195c35 0 70-35 70-71 0-37-35-70-71-70H213z" transform="matrix(-.01455 -.00577 -.00008 -.01293 395 282)"/>
    </g>
    <path fill="#fff133" stroke="#000" d="M345-596l9 22s1-10 8-12l7-1 32 58c6 9-3 17-1 17l26-12s-10 1-15-6l-35-60 12-5c5-3 10 8 10 8l-13-27s0 9-4 11l-8 3-8-13c-5-7 4-14 4-14l-23 11s8 5 11 9l5 9-8 3c-4 2-8 0-9-1z" transform="matrix(-.21538 .00384 .00463 .17867 452 346)"/>
    <g transform="matrix(.12959 0 0 .10848 351 306)">
      <path fill="silver" d="M325-255l-51 50L450-30l50-50z"/>
      <circle cx="354" cy="-1428" r="35" fill="#fff133" stroke="#000" transform="scale(-1 1) rotate(45 -178 -1105)"/>
      <path fill="silver" stroke="#000" d="M-402-957l38 38-25 25-38-38c-13-12 12-37 25-25z"/>
      <path fill="#fff133" stroke="#000" d="M-347-926l-50 50a25 25 0 01-25-25c11-26 25-39 50-50a27 27 0 0125 25z"/>
      <path fill="silver" stroke="#000" d="M-352-932l38 38-51 50-37-38c5-20 30-45 50-50z"/>
      <path fill="#fff133" stroke="#000" d="M-309-889l-50 50a25 25 0 01-25-25c11-26 25-38 50-50a27 27 0 0125 25z"/>
      <path fill="silver" stroke="#000" d="M-314-894L28-551l-50 50-342-343c5-20 30-45 50-50z"/>
      <path fill="#fff133" stroke="#000" d="M49-531l-50 50a25 25 0 01-25-25c11-26 25-38 50-50a27 27 0 0125 25z"/>
      <path fill="silver" stroke="#000" d="M49-531l225 226-50 50L-1-481c5-20 30-45 50-50z"/>
      <path fill="silver" stroke="#000" d="M187-418l-75 75a25 25 0 01-25-25s0-25 25-50 50-25 50-25c11 1 21 12 25 25z"/>
      <path fill="silver" stroke="#000" d="M187-418l50 75-50 50-75-50c-3-2 0-25 25-50s49-25 50-25z"/>
      <path fill="silver" stroke="#000" d="M337-507c0-35 0-86 17-130 18 44 18 95 18 130h-35z" transform="rotate(135 435 19) scale(1 -.81782)"/>
      <path fill="silver" stroke="#000" d="M319-507h18v-43c0-43-36-65-36-65l18 108z" transform="rotate(-45 399 -194) scale(1 .81782)"/>
      <path fill="silver" stroke="#000" d="M319-507h18v-43c0-43-36-65-36-65l18 108z" transform="rotate(135 435 19) scale(1 -.81782)"/>
      <path fill="#fff133" stroke="#000" d="M-314-894l37 37c25 25 113 138 113 138s117 92 142 117l38 38c-25-25-180-130-180-130s92 143 130 180l-38-38c-25-25-117-142-117-142s-100-75-125-100l-50-50c25 25 175 125 175 125s-100-150-125-175z"/>
      <path fill="silver" stroke="#000" d="M300-230A907 907 0 00412-92a83 83 0 0050 25s0-25-25-50a899 899 0 00-137-113zm-63-113c88 88 188 138 250 200 50 50 16 89 2 101s-52 50-102 0c-62-63-113-163-200-251 0-25 25-50 50-50z"/>
      <path fill="silver" stroke="#000" d="M218 258h23v73h-23z" transform="matrix(-1.2487 -1.4214 -1.3593 1.3175 1166 -103)"/>
      <g fill="silver" stroke="#000">
        <path d="M301 397l18 18-18 17 9 9 18-18 35 36-18 18 9 8 18-17 18 17-53 54-36-36 18-18 9 9 9-9-36-35-9 9 9 9-17 17-18-17 9-9-9-9-36 35 9 9 9-9 18 18-18 18-9-9-9 9 36 35 9-9-9-8 18-18 35 35-53 53-18-17 18-18-9-9-18 18-35-36 18-17-9-9-18 18-18-18 124-124z" transform="matrix(-2.2946 0 0 2.2438 361 -1734)"/>
        <path d="M319 787v35l88 89v-71l-17-18h-36l-35-35zM230 699l71 70 1 35-72-71v-34z" transform="matrix(-1.1473 0 0 1.1219 157 -1288)"/>
        <path d="M301 804l36-35v-36l-36 36v35z" transform="matrix(-1.1473 0 0 1.1219 157 -1288)"/>
        <path d="M301 804l36-35v-36l-36 36v35z" transform="matrix(-1.1473 0 0 1.1219 259 -1388)"/>
        <path d="M248 645v35l18-17-18-18z" transform="matrix(-1.1473 0 0 1.1219 157 -1288)"/>
        <path d="M248 645v35l18-17-18-18z" transform="matrix(-1.1473 0 0 1.1219 56 -1189)"/>
        <path d="M230 699l36 35v36l-36-37v-34z" transform="matrix(-1.1473 0 0 1.1219 219 -1349)"/>
        <path d="M301 804l36-35v-36l-36 36v35z" transform="matrix(-1.1473 0 0 1.1219 56 -1507)"/>
        <path d="M301 804l36-35v-36l-36 36v35z" transform="matrix(-1.1473 0 0 1.1219 137 -1428)"/>
        <path d="M284 822l53-53v-36l-71 71 18 18z" transform="matrix(-1.1473 0 0 1.1219 137 -1547)"/>
        <path d="M248 645v35l18-17-18-18z" transform="matrix(-1.1473 0 0 1.1219 35 -1447)"/>
        <path d="M301 804l-35-35v-35l35 35v35z" transform="matrix(-1.1473 0 0 1.1219 56 -1507)"/>
        <path d="M390 822l-53-53v-35l71 70-18 18z" transform="matrix(-1.1473 0 0 1.1219 56 -1547)"/>
        <path d="M230 698l71 71h36l17 18v71L230 733v-35z" transform="matrix(-1.1473 0 0 1.1219 -66 -1388)"/>
        <path d="M354 822l107-106h35L390 822h-36zm54 18l106-107-18-17-106 106 18 18z" transform="matrix(-1.1473 0 0 1.1219 157 -1288)"/>
        <path d="M408 840v71l106-107v-71L408 841z" transform="matrix(-1.1473 0 0 1.1219 157 -1288)"/>
        <path d="M354 822l107-106h35L390 822h-36zm54 18l106-107-18-17-106 106 18 18z" transform="matrix(-1.1473 0 0 1.1219 -5 -1447)"/>
        <path d="M408 840v71l106-107v-71L408 841z" transform="matrix(-1.1473 0 0 1.1219 -5 -1447)"/>
        <path d="M319 787l18-18v-36l-36 36 18 18z" transform="matrix(-1.1473 0 0 1.1219 -87 -1527)"/>
        <path d="M319 787l18-18v-36l-36 36 18 18z" transform="matrix(-1.1473 0 0 1.1219 15 -1626)"/>
        <path d="M266 769v-36l18 18-18 18z" transform="matrix(-1.1473 0 0 1.1219 56 -1348)"/>
        <path d="M301 804l-35-35 18-18 17 18v35z" transform="matrix(-1.1473 0 0 1.1219 137 -1428)"/>
        <path d="M301 804l-18-17 18-18v35z" transform="matrix(-1.1473 0 0 1.1219 15 -1587)"/>
      </g>
      <path fill="#fff133" stroke="#000" d="M197 254h25v80h-26z" transform="matrix(-1.2509 -1.4194 -1.3614 1.3153 1166 -103)"/>
      <path fill="silver" stroke="#000" d="M337 167c0 14 35 35 35-18h-35v18z" transform="matrix(-1.8992 0 0 1.8865 1166 -103)"/>
      <path fill="silver" stroke="#000" d="M242 25C95 25 129 189 142 149c9-30 35-71 65-80 40-13 26 9 41 9s1-22 41-9c30 9 56 50 65 80 13 40 53-124-112-124z" transform="matrix(-1.8992 0 0 1.8865 1166 -103)"/>
      <path fill="silver" stroke="#000" d="M390 167a142 142 0 01-284 0v-18c0-29 36 124 142 124s142-125 142-124v18z" transform="matrix(-1.8992 0 0 1.8865 1166 -103)"/>
      <path fill="silver" stroke="#000" d="M337 167c0 14 35 35 35-18h-35v18z" transform="matrix(1.8992 0 0 1.8865 224 -100)"/>
      <path fill="silver" stroke="#000" d="M390 149a142 142 0 11-284 0 142 142 0 01284 0zm-53 0c0 15 22 3 9 43a81 81 0 01-57 55c-40 13-26-10-41-10s-1 23-41 10a80 80 0 01-57-57c-13-40 9-26 9-41s-22-1-9-41a80 80 0 0157-57c40-13 26 9 41 9s1-22 41-9a80 80 0 0157 57c13 40-9 26-9 41z" transform="matrix(-1.8992 0 0 1.8865 1166 -103)"/>
      <path fill="silver" stroke="#000" d="M127 158c-21 0-2 67-9 51a127 127 0 010-103c7-16-12 52 9 52z" transform="matrix(-1.6618 0 0 1.7607 1107 -99)"/>
      <path fill="silver" stroke="#000" d="M372 140a88 88 0 01-10 45c-8 14 10-45-8-45 18 0 2-59 8-45a108 108 0 0110 45z" transform="matrix(-1.8992 0 0 2.0316 1166 -106)"/>
      <path fill="silver" stroke="#000" d="M296 263a124 124 0 01-96 0c-15-6 48 10 48-8 0 18 63 2 48 8zM248 43c0-18-63-2-48-8a123 123 0 0196 0c15 6-48-10-48 8z" transform="matrix(-1.8992 0 0 1.8865 1166 -103)"/>
      <ellipse cx="82" cy="161" fill="#fff133" stroke="#000" rx="18" ry="20" transform="matrix(-1.2929 -1.3819 -1.3912 1.2842 1258 -120)"/>
      <path fill="#fff133" stroke="#000" d="M277 288a142 142 0 01-57 0l-2 7a149 149 0 0060 0l-1-7z" transform="matrix(-1.2929 -1.3819 1.3912 -1.2842 809 712)"/>
      <path fill="#fff133" stroke="#000" d="M277 288a142 142 0 01-57 0l-2 7a149 149 0 0060 0l-1-7z" transform="matrix(-1.2929 -1.3819 -1.3912 1.2842 1223 330)"/>
      <path fill="#fff133" stroke="#000" d="M268 309l-30 1c-10 0-20-3-29-5l9-10a149 149 0 0060 0l-10 14z" transform="matrix(-1.2929 -1.3819 -1.3912 1.2842 1223 330)"/>
      <path fill="#fff133" stroke="#000" d="M277 288a142 142 0 01-57 0l-2 7a149 149 0 0060 0l-1-7z" transform="matrix(-1.3912 1.2842 1.2929 1.3819 847 -345)"/>
      <ellipse cx="82" cy="161" fill="#fff133" stroke="#000" rx="18" ry="20" transform="matrix(-1.2929 -1.3819 -1.3912 1.2842 789 314)"/>
      <path fill="#fff133" stroke="#000" d="M268 282c-10 1-17 3-27 3s-23-1-33-3l10 13a150 150 0 0060 0l-10-13z" transform="matrix(-1.3912 1.2842 1.2929 1.3819 851 -315)"/>
      <path fill="#fff133" stroke="#000" d="M174 272l-1 15-3 4 1-15 3-4zm157-6l3 4 1 13-3-3-1-14z" transform="matrix(-1.8992 0 0 1.8865 1166 -103)"/>
      <ellipse cx="82" cy="161" fill="#fff133" stroke="#000" rx="18" ry="20" transform="matrix(-1.2929 -1.3819 -1.3912 1.2842 1238 330)"/>
    </g>
    <path fill="#fff" stroke="#000" d="M514-790l35-18 36 18s-74 35-74 159c0 89 125 107 125 213 0 45-34 88-69 88s-89-17-142-70c36 17 76 37 106 36 20-1 55-18 55-53 0-71-122-107-122-214 0-124 50-159 50-159z" transform="matrix(-.21542 0 0 .17871 451 341)"/>
    <path fill="#fff" stroke="#000" d="M520-790l47-18 10 18s-71 35-71 159c0 89 126 107 126 213 0 45-27 87-65 88-74 3-91-23-142-70 43 32 105 46 129 34 30-16 35-36 35-54 0-71-121-104-121-211 0-124 52-159 52-159z" transform="matrix(-.21542 0 0 .17871 451 341)"/>
    <path fill="#fff" stroke="#000" d="M513-790c7-2 36-18 72 18 17 17 17 53 17 70l53-53s-29-87-107-53a335 335 0 00-35 18z" transform="matrix(-.21542 0 0 .17871 451 341)"/>
    <path fill="#fff" stroke="#000" d="M524-796c9-3 36-6 64 19 18 17 19 43 19 60l41-38c3-3-25-81-99-54a154 154 0 00-25 13z" transform="matrix(-.21542 0 0 .17871 451 341)"/>
    <path fill="#fff133" stroke="#000" d="M345-596l9 22s1-10 8-12l7-1 32 58c6 9-3 17-1 17l26-12s-10 1-15-6l-35-60 12-5c5-3 10 8 10 8l-13-27s0 9-4 11l-8 3-8-13c-5-7 4-14 4-14l-23 11s8 5 11 9l5 9-8 3c-4 2-8 0-9-1z" transform="matrix(-.17534 -.01853 -.05985 .15541 366 343)"/>
    <path fill="#fff133" stroke="#000" d="M345-596l9 22s1-10 8-12l7-1 32 58c6 9-3 17-1 17l26-12s-10 1-15-6l-35-60 12-5c5-3 10 8 10 8l-13-27s0 9-4 11l-8 3-8-13c-5-7 4-14 4-14l-23 11s8 5 11 9l5 9-8 3c-4 2-8 0-9-1z" transform="matrix(.15954 .02165 .00278 -.11904 259 126)"/>
    <g transform="matrix(.12959 0 0 .10848 351 306)">
      <g transform="rotate(45 478 -505)">
        <circle cx="354" cy="-1428" r="35" fill="silver" stroke="#000" transform="translate(124 284)"/>
        <path fill="#fff133" stroke="#000" d="M461-1127v53h35v-53c0-17-35-17-35 0z"/>
        <path fill="silver" stroke="#000" d="M443-1066h71a25 25 0 000-35c-26-11-45-10-71 0a27 27 0 000 35z"/>
        <path fill="#fff133" stroke="#000" d="M443-1074v54h71v-54a83 83 0 00-71 0z"/>
        <path fill="silver" stroke="#000" d="M443-1013h71a25 25 0 000-35c-26-11-45-10-71 0a27 27 0 000 35z"/>
        <path fill="#fff133" d="M443-117h71v248h-71z"/>
        <path fill="#fff133" stroke="#000" d="M443-1020v484h71v-485a83 83 0 00-71 1z"/>
        <path fill="silver" stroke="#000" d="M443-507h71a25 25 0 000-35c-26-11-45-10-71 0a27 27 0 000 35z"/>
        <path fill="#fff133" stroke="#000" d="M443-507v319h71v-319a83 83 0 00-71 0z"/>
        <path fill="#fff133" stroke="#000" d="M425-329h106a25 25 0 001-36s-18-18-54-18-53 18-53 18c-7 9-6 24 0 36z"/>
        <path fill="#fff133" stroke="#000" d="M425-329l18 88h71l17-88c1-4-17-18-53-18s-52 17-53 18z"/>
        <path fill="#fff133" stroke="#000" d="M337-507c0-35 0-86 17-130 18 44 18 95 18 130h-35z" transform="matrix(1 0 0 .81782 124 173)"/>
        <path fill="#fff133" stroke="#000" d="M319-507h18v-43c0-43-36-65-36-65l18 108z" transform="matrix(-1 0 0 .81782 833 173)"/>
        <path fill="#fff133" stroke="#000" d="M319-507h18v-43c0-43-36-65-36-65l18 108z" transform="matrix(1 0 0 .81782 124 173)"/>
        <path fill="#fff133" stroke="#000" d="M478-117a909 909 0 0118 177 83 83 0 01-18 53s-17-17-17-53c0-18 0-88 17-177zm-35-124c0 124-35 230-35 319 0 71 51 73 70 72 18-1 72-1 71-72 0-89-35-195-35-319a54 54 0 00-71 0z"/>
        <path fill="silver" stroke="#000" d="M443-1020v53c0 35 18 177 18 177s-18 148-18 183v54c0-36 35-219 35-219s36 166 36 219v-54c0-35-18-183-18-183s18-124 18-160v-71c0 36-36 213-36 213s-35-177-35-212z"/>
      </g>
      <path fill="#fff133" stroke="#000" d="M218 258h23v73h-23z" transform="matrix(1.2487 -1.4214 1.3593 1.3175 -662 -103)"/>
      <path fill="#fff133" stroke="#000" d="M337 167c0 14 35 35 35-18h-35v18z" transform="matrix(1.8992 0 0 1.8865 -662 -103)"/>
      <path fill="#fff133" stroke="#000" d="M242 25C95 25 129 189 142 149c9-30 35-71 65-80 40-13 26 9 41 9s1-22 41-9c30 9 56 50 65 80 13 40 53-124-112-124z" transform="matrix(1.8992 0 0 1.8865 -662 -103)"/>
      <path fill="#fff133" stroke="#000" d="M390 167a142 142 0 01-284 0v-18c0-29 36 124 142 124s142-125 142-124v18z" transform="matrix(1.8992 0 0 1.8865 -662 -103)"/>
      <ellipse cx="82" cy="161" fill="silver" stroke="#000" rx="18" ry="20" transform="matrix(1.2929 -1.3819 1.3912 1.2842 -754 -120)"/>
      <path fill="silver" stroke="#000" d="M197 254h25v80h-26z" transform="matrix(1.2509 -1.4194 1.3614 1.3153 -662 -103)"/>
      <path fill="#fff133" stroke="#000" d="M337 167c0 14 35 35 35-18h-35v18z" transform="matrix(-1.8992 0 0 1.8865 280 -100)"/>
      <path fill="#fff133" stroke="#000" d="M390 149a142 142 0 11-284 0 142 142 0 01284 0zm-53 0c0 15 22 3 9 43a81 81 0 01-57 55c-40 13-26-10-41-10s-1 23-41 10a80 80 0 01-57-57c-13-40 9-26 9-41s-22-1-9-41a80 80 0 0157-57c40-13 26 9 41 9s1-22 41-9a80 80 0 0157 57c13 40-9 26-9 41z" transform="matrix(1.8992 0 0 1.8865 -662 -103)"/>
      <path fill="#fff133" stroke="#000" d="M127 158c-21 0-2 67-9 51a127 127 0 010-103c7-16-12 52 9 52z" transform="matrix(1.6618 0 0 1.7607 -604 -99)"/>
      <path fill="#fff133" stroke="#000" d="M372 140a88 88 0 01-10 45c-8 14 10-45-8-45 18 0 2-59 8-45a108 108 0 0110 45z" transform="matrix(1.8992 0 0 2.0316 -662 -106)"/>
      <path fill="#fff133" stroke="#000" d="M296 263a124 124 0 01-96 0c-15-6 48 10 48-8 0 18 63 2 48 8zM248 43c0-18-63-2-48-8a123 123 0 0196 0c15 6-48-10-48 8z" transform="matrix(1.8992 0 0 1.8865 -662 -103)"/>
      <path fill="silver" stroke="#000" d="M277 288a142 142 0 01-57 0l-2 7a149 149 0 0060 0l-1-7z" transform="matrix(1.2929 -1.3819 -1.3912 -1.2842 -305 712)"/>
      <path fill="silver" stroke="#000" d="M277 288a142 142 0 01-57 0l-2 7a149 149 0 0060 0l-1-7z" transform="matrix(1.2929 -1.3819 1.3912 1.2842 -720 330)"/>
      <path fill="silver" stroke="#000" d="M268 309l-30 1c-10 0-20-3-29-5l9-10a149 149 0 0060 0l-10 14z" transform="matrix(1.2929 -1.3819 1.3912 1.2842 -720 330)"/>
      <path fill="silver" stroke="#000" d="M277 288a142 142 0 01-57 0l-2 7a149 149 0 0060 0l-1-7z" transform="matrix(1.3912 1.2842 -1.2929 1.3819 -344 -345)"/>
      <ellipse cx="82" cy="161" fill="silver" stroke="#000" rx="18" ry="20" transform="matrix(1.2929 -1.3819 1.3912 1.2842 -285 314)"/>
      <path fill="silver" stroke="#000" d="M268 282c-10 1-17 3-27 3s-23-1-33-3l10 13a150 150 0 0060 0l-10-13z" transform="matrix(1.3912 1.2842 -1.2929 1.3819 -347 -315)"/>
      <path fill="silver" stroke="#000" d="M174 272l-1 15-3 4 1-15 3-4zm157-6l3 4 1 13-3-3-1-14z" transform="matrix(1.8992 0 0 1.8865 -662 -103)"/>
      <ellipse cx="82" cy="161" fill="silver" stroke="#000" rx="18" ry="20" transform="matrix(1.2929 -1.3819 1.3912 1.2842 -734 330)"/>
      <g fill="#fff133" stroke="#000">
        <path d="M301 397l18 18-18 17 9 9 18-18 35 36-18 18 9 8 18-17 18 17-53 54-36-36 18-18 9 9 9-9-36-35-9 9 9 9-17 17-18-17 9-9-9-9-36 35 9 9 9-9 18 18-18 18-9-9-9 9 36 35 9-9-9-8 18-18 35 35-53 53-18-17 18-18-9-9-18 18-35-36 18-17-9-9-18 18-18-18 124-124z" transform="matrix(2.2946 0 0 2.2438 143 -1734)"/>
        <path d="M319 787v35l88 89v-71l-17-18h-36l-35-35zM230 699l71 70 1 35-72-71v-34z" transform="matrix(1.1473 0 0 1.1219 346 -1288)"/>
        <path d="M301 804l36-35v-36l-36 36v35z" transform="matrix(1.1473 0 0 1.1219 346 -1288)"/>
        <path d="M301 804l36-35v-36l-36 36v35z" transform="matrix(1.1473 0 0 1.1219 245 -1388)"/>
        <path d="M248 645v35l18-17-18-18z" transform="matrix(1.1473 0 0 1.1219 346 -1288)"/>
        <path d="M248 645v35l18-17-18-18z" transform="matrix(1.1473 0 0 1.1219 448 -1189)"/>
        <path d="M230 699l36 35v36l-36-37v-34z" transform="matrix(1.1473 0 0 1.1219 285 -1349)"/>
        <path d="M301 804l36-35v-36l-36 36v35z" transform="matrix(1.1473 0 0 1.1219 448 -1507)"/>
        <path d="M301 804l36-35v-36l-36 36v35z" transform="matrix(1.1473 0 0 1.1219 367 -1428)"/>
        <path d="M284 822l53-53v-36l-71 71 18 18z" transform="matrix(1.1473 0 0 1.1219 367 -1547)"/>
        <path d="M248 645v35l18-17-18-18z" transform="matrix(1.1473 0 0 1.1219 468 -1447)"/>
        <path d="M301 804l-35-35v-35l35 35v35z" transform="matrix(1.1473 0 0 1.1219 448 -1507)"/>
        <path d="M390 822l-53-53v-35l71 70-18 18z" transform="matrix(1.1473 0 0 1.1219 448 -1547)"/>
        <path d="M230 698l71 71h36l17 18v71L230 733v-35z" transform="matrix(1.1473 0 0 1.1219 570 -1388)"/>
        <path d="M354 822l107-106h35L390 822h-36zm54 18l106-107-18-17-106 106 18 18z" transform="matrix(1.1473 0 0 1.1219 346 -1288)"/>
        <path d="M408 840v71l106-107v-71L408 841z" transform="matrix(1.1473 0 0 1.1219 346 -1288)"/>
        <path d="M354 822l107-106h35L390 822h-36zm54 18l106-107-18-17-106 106 18 18z" transform="matrix(1.1473 0 0 1.1219 509 -1447)"/>
        <path d="M408 840v71l106-107v-71L408 841z" transform="matrix(1.1473 0 0 1.1219 509 -1447)"/>
        <path d="M319 787l18-18v-36l-36 36 18 18z" transform="matrix(1.1473 0 0 1.1219 590 -1527)"/>
        <path d="M319 787l18-18v-36l-36 36 18 18z" transform="matrix(1.1473 0 0 1.1219 489 -1626)"/>
        <path d="M266 769v-36l18 18-18 18z" transform="matrix(1.1473 0 0 1.1219 448 -1348)"/>
        <path d="M301 804l-35-35 18-18 17 18v35z" transform="matrix(1.1473 0 0 1.1219 367 -1428)"/>
        <path d="M301 804l-18-17 18-18v35z" transform="matrix(1.1473 0 0 1.1219 489 -1587)"/>
      </g>
    </g>
    <g fill="#b00" stroke="#000" stroke-width="20">
      <path d="M213-453c-36 0-71 35-71 70s35 71 71 71h195c35 0 70-35 70-71 0-37-35-70-71-70H213z" transform="matrix(.01288 .00808 -.003 .01268 377 291)"/>
      <path d="M213-453c-36 0-71 35-71 70s35 71 71 71h195c35 0 70-35 70-71 0-37-35-70-71-70H213z" transform="matrix(.01298 .00767 -.00286 .01277 377 290)"/>
      <path d="M213-453c-36 0-71 35-71 70s35 71 71 71h195c35 0 70-35 70-71 0-37-35-70-71-70H213z" transform="matrix(.01288 .00808 -.003 .01268 377 287)"/>
      <path d="M213-453c-36 0-71 35-71 70s35 71 71 71h195c35 0 70-35 70-71 0-37-35-70-71-70H213z" transform="matrix(.01298 .00767 -.00286 .01277 377 286)"/>
      <path d="M213-453c-36 0-71 35-71 70s35 71 71 71h195c35 0 70-35 70-71 0-37-35-70-71-70H213z" transform="matrix(.01288 .00808 -.003 .01268 377 299)"/>
      <path d="M213-453c-36 0-71 35-71 70s35 71 71 71h195c35 0 70-35 70-71 0-37-35-70-71-70H213z" transform="matrix(.01298 .00767 -.00286 .01277 377 297)"/>
      <path d="M213-453c-36 0-71 35-71 70s35 71 71 71h195c35 0 70-35 70-71 0-37-35-70-71-70H213z" transform="matrix(.01288 .00808 -.003 .01268 377 295)"/>
      <path d="M213-453c-36 0-71 35-71 70s35 71 71 71h195c35 0 70-35 70-71 0-37-35-70-71-70H213z" transform="matrix(.01298 .00767 -.00286 .01277 377 293)"/>
      <path d="M213-453c-36 0-71 35-71 70s35 71 71 71h195c35 0 70-35 70-71 0-37-35-70-71-70H213z" transform="matrix(.01288 .00808 -.003 .01268 377 276)"/>
      <path d="M213-453c-36 0-71 35-71 70s35 71 71 71h195c35 0 70-35 70-71 0-37-35-70-71-70H213z" transform="matrix(.01298 .00767 -.00286 .01277 377 274)"/>
      <path d="M213-453c-36 0-71 35-71 70s35 71 71 71h195c35 0 70-35 70-71 0-37-35-70-71-70H213z" transform="matrix(.01288 .00808 -.003 .01268 377 272)"/>
      <path d="M213-453c-36 0-71 35-71 70s35 71 71 71h195c35 0 70-35 70-71 0-37-35-70-71-70H213z" transform="matrix(.01298 .00767 -.00286 .01277 377 270)"/>
      <path d="M213-453c-36 0-71 35-71 70s35 71 71 71h195c35 0 70-35 70-71 0-37-35-70-71-70H213z" transform="matrix(.01288 .00808 -.003 .01268 377 284)"/>
      <path d="M213-453c-36 0-71 35-71 70s35 71 71 71h195c35 0 70-35 70-71 0-37-35-70-71-70H213z" transform="matrix(.01298 .00767 -.00286 .01277 377 282)"/>
      <path d="M213-453c-36 0-71 35-71 70s35 71 71 71h195c35 0 70-35 70-71 0-37-35-70-71-70H213z" transform="matrix(.01288 .00808 -.003 .01268 377 280)"/>
      <path d="M213-453c-36 0-71 35-71 70s35 71 71 71h195c35 0 70-35 70-71 0-37-35-70-71-70H213z" transform="matrix(.01298 .00767 -.00286 .01277 377 278)"/>
      <path d="M213-453c-36 0-71 35-71 70s35 71 71 71h195c35 0 70-35 70-71 0-37-35-70-71-70H213z" transform="matrix(.01288 .00808 -.003 .01268 377 322)"/>
      <path d="M213-453c-36 0-71 35-71 70s35 71 71 71h195c35 0 70-35 70-71 0-37-35-70-71-70H213z" transform="matrix(.01298 .00767 -.00286 .01277 377 320)"/>
      <path d="M213-453c-36 0-71 35-71 70s35 71 71 71h195c35 0 70-35 70-71 0-37-35-70-71-70H213z" transform="matrix(.01288 .00808 -.003 .01268 377 318)"/>
      <path d="M213-453c-36 0-71 35-71 70s35 71 71 71h195c35 0 70-35 70-71 0-37-35-70-71-70H213z" transform="matrix(.01298 .00767 -.00286 .01277 377 317)"/>
      <path d="M213-453c-36 0-71 35-71 70s35 71 71 71h195c35 0 70-35 70-71 0-37-35-70-71-70H213z" transform="matrix(.01288 .00808 -.003 .01268 377 330)"/>
      <path d="M213-453c-36 0-71 35-71 70s35 71 71 71h195c35 0 70-35 70-71 0-37-35-70-71-70H213z" transform="matrix(.01298 .00767 -.00286 .01277 377 328)"/>
      <path d="M213-453c-36 0-71 35-71 70s35 71 71 71h195c35 0 70-35 70-71 0-37-35-70-71-70H213z" transform="matrix(.01288 .00808 -.003 .01268 377 326)"/>
      <path d="M213-453c-36 0-71 35-71 70s35 71 71 71h195c35 0 70-35 70-71 0-37-35-70-71-70H213z" transform="matrix(.01298 .00767 -.00286 .01277 377 324)"/>
      <path d="M213-453c-36 0-71 35-71 70s35 71 71 71h195c35 0 70-35 70-71 0-37-35-70-71-70H213z" transform="matrix(.01288 .00808 -.003 .01268 377 307)"/>
      <path d="M213-453c-36 0-71 35-71 70s35 71 71 71h195c35 0 70-35 70-71 0-37-35-70-71-70H213z" transform="matrix(.01298 .00767 -.00286 .01277 377 305)"/>
      <path d="M213-453c-36 0-71 35-71 70s35 71 71 71h195c35 0 70-35 70-71 0-37-35-70-71-70H213z" transform="matrix(.01288 .00808 -.003 .01268 377 303)"/>
      <path d="M213-453c-36 0-71 35-71 70s35 71 71 71h195c35 0 70-35 70-71 0-37-35-70-71-70H213z" transform="matrix(.01298 .00767 -.00286 .01277 377 301)"/>
      <path d="M213-453c-36 0-71 35-71 70s35 71 71 71h195c35 0 70-35 70-71 0-37-35-70-71-70H213z" transform="matrix(.01288 .00808 -.003 .01268 377 314)"/>
      <path d="M213-453c-36 0-71 35-71 70s35 71 71 71h195c35 0 70-35 70-71 0-37-35-70-71-70H213z" transform="matrix(.01298 .00767 -.00286 .01277 377 313)"/>
      <path d="M213-453c-36 0-71 35-71 70s35 71 71 71h195c35 0 70-35 70-71 0-37-35-70-71-70H213z" transform="matrix(.01288 .00808 -.003 .01268 377 311)"/>
      <path d="M213-453c-36 0-71 35-71 70s35 71 71 71h195c35 0 70-35 70-71 0-37-35-70-71-70H213z" transform="matrix(.01298 .00767 -.00286 .01277 377 309)"/>
      <path d="M213-453c-36 0-71 35-71 70s35 71 71 71h195c35 0 70-35 70-71 0-37-35-70-71-70H213z" transform="matrix(.01288 .00808 -.003 .01268 376 353)"/>
      <path d="M213-453c-36 0-71 35-71 70s35 71 71 71h195c35 0 70-35 70-71 0-37-35-70-71-70H213z" transform="matrix(.01298 .00767 -.00286 .01277 376 351)"/>
      <path d="M213-453c-36 0-71 35-71 70s35 71 71 71h195c35 0 70-35 70-71 0-37-35-70-71-70H213z" transform="matrix(.01288 .00808 -.003 .01268 376 349)"/>
      <path d="M213-453c-36 0-71 35-71 70s35 71 71 71h195c35 0 70-35 70-71 0-37-35-70-71-70H213z" transform="matrix(.01298 .00767 -.00286 .01277 376 347)"/>
      <path d="M213-453c-36 0-71 35-71 70s35 71 71 71h195c35 0 70-35 70-71 0-37-35-70-71-70H213z" transform="matrix(.01298 .00767 -.00286 .01277 376 359)"/>
      <path d="M213-453c-36 0-71 35-71 70s35 71 71 71h195c35 0 70-35 70-71 0-37-35-70-71-70H213z" transform="matrix(.01288 .00808 -.003 .01268 376 357)"/>
      <path d="M213-453c-36 0-71 35-71 70s35 71 71 71h195c35 0 70-35 70-71 0-37-35-70-71-70H213z" transform="matrix(.01298 .00767 -.00286 .01277 376 355)"/>
      <path d="M213-453c-36 0-71 35-71 70s35 71 71 71h195c35 0 70-35 70-71 0-37-35-70-71-70H213z" transform="matrix(.01288 .00808 -.003 .01268 376 337)"/>
      <path d="M213-453c-36 0-71 35-71 70s35 71 71 71h195c35 0 70-35 70-71 0-37-35-70-71-70H213z" transform="matrix(.01298 .00767 -.00286 .01277 376 336)"/>
      <path d="M213-453c-36 0-71 35-71 70s35 71 71 71h195c35 0 70-35 70-71 0-37-35-70-71-70H213z" transform="matrix(.01288 .00808 -.003 .01268 376 334)"/>
      <path d="M213-453c-36 0-71 35-71 70s35 71 71 71h195c35 0 70-35 70-71 0-37-35-70-71-70H213z" transform="matrix(.01298 .00767 -.00286 .01277 377 332)"/>
      <path d="M213-453c-36 0-71 35-71 70s35 71 71 71h195c35 0 70-35 70-71 0-37-35-70-71-70H213z" transform="matrix(.01288 .00808 -.003 .01268 376 345)"/>
      <path d="M213-453c-36 0-71 35-71 70s35 71 71 71h195c35 0 70-35 70-71 0-37-35-70-71-70H213z" transform="matrix(.01298 .00767 -.00286 .01277 376 343)"/>
      <path d="M213-453c-36 0-71 35-71 70s35 71 71 71h195c35 0 70-35 70-71 0-37-35-70-71-70H213z" transform="matrix(.01288 .00808 -.003 .01268 376 341)"/>
      <path d="M213-453c-36 0-71 35-71 70s35 71 71 71h195c35 0 70-35 70-71 0-37-35-70-71-70H213z" transform="matrix(.01298 .00767 -.00286 .01277 376 340)"/>
      <path d="M213-453c-36 0-71 35-71 70s35 71 71 71h195c35 0 70-35 70-71 0-37-35-70-71-70H213z" transform="matrix(.01288 .00808 -.003 .01268 376 372)"/>
      <path d="M213-453c-36 0-71 35-71 70s35 71 71 71h195c35 0 70-35 70-71 0-37-35-70-71-70H213z" transform="matrix(.01298 .00767 -.00286 .01277 376 370)"/>
      <path d="M213-453c-36 0-71 35-71 70s35 71 71 71h195c35 0 70-35 70-71 0-37-35-70-71-70H213z" transform="matrix(.01288 .00808 -.003 .01268 376 368)"/>
      <path d="M213-453c-36 0-71 35-71 70s35 71 71 71h195c35 0 70-35 70-71 0-37-35-70-71-70H213z" transform="matrix(.01298 .00767 -.00286 .01277 376 367)"/>
      <path d="M213-453c-36 0-71 35-71 70s35 71 71 71h195c35 0 70-35 70-71 0-37-35-70-71-70H213z" transform="matrix(.01298 .00767 -.00286 .01277 376 378)"/>
      <path d="M213-453c-36 0-71 35-71 70s35 71 71 71h195c35 0 70-35 70-71 0-37-35-70-71-70H213z" transform="matrix(.01288 .00808 -.003 .01268 376 376)"/>
      <path d="M213-453c-36 0-71 35-71 70s35 71 71 71h195c35 0 70-35 70-71 0-37-35-70-71-70H213z" transform="matrix(.01298 .00767 -.00286 .01277 376 374)"/>
      <path d="M213-453c-36 0-71 35-71 70s35 71 71 71h195c35 0 70-35 70-71 0-37-35-70-71-70H213z" transform="matrix(.01288 .00808 -.003 .01268 376 364)"/>
      <path d="M213-453c-36 0-71 35-71 70s35 71 71 71h195c35 0 70-35 70-71 0-37-35-70-71-70H213z" transform="matrix(.01298 .00767 -.00286 .01277 376 363)"/>
      <path d="M213-453c-36 0-71 35-71 70s35 71 71 71h195c35 0 70-35 70-71 0-37-35-70-71-70H213z" transform="matrix(.01288 .00808 -.003 .01268 376 361)"/>
    </g>
    <g fill="#b00" stroke="#000" stroke-width="20">
      <path d="M213-453c-36 0-71 35-71 70s35 71 71 71h195c35 0 70-35 70-71 0-37-35-70-71-70H213z" transform="matrix(.013 .00796 -.00283 .0127 380 292)"/>
      <path d="M213-453c-36 0-71 35-71 70s35 71 71 71h195c35 0 70-35 70-71 0-37-35-70-71-70H213z" transform="matrix(.01308 .00754 -.00269 .0128 380 290)"/>
      <path d="M213-453c-36 0-71 35-71 70s35 71 71 71h195c35 0 70-35 70-71 0-37-35-70-71-70H213z" transform="matrix(.013 .00796 -.00283 .0127 380 288)"/>
      <path d="M213-453c-36 0-71 35-71 70s35 71 71 71h195c35 0 70-35 70-71 0-37-35-70-71-70H213z" transform="matrix(.01308 .00754 -.00269 .0128 380 286)"/>
      <path d="M213-453c-36 0-71 35-71 70s35 71 71 71h195c35 0 70-35 70-71 0-37-35-70-71-70H213z" transform="matrix(.013 .00796 -.00283 .0127 380 299)"/>
      <path d="M213-453c-36 0-71 35-71 70s35 71 71 71h195c35 0 70-35 70-71 0-37-35-70-71-70H213z" transform="matrix(.01308 .00754 -.00269 .0128 380 298)"/>
      <path d="M213-453c-36 0-71 35-71 70s35 71 71 71h195c35 0 70-35 70-71 0-37-35-70-71-70H213z" transform="matrix(.013 .00796 -.00283 .0127 380 295)"/>
      <path d="M213-453c-36 0-71 35-71 70s35 71 71 71h195c35 0 70-35 70-71 0-37-35-70-71-70H213z" transform="matrix(.01308 .00754 -.00269 .0128 380 294)"/>
      <path d="M213-453c-36 0-71 35-71 70s35 71 71 71h195c35 0 70-35 70-71 0-37-35-70-71-70H213z" transform="matrix(.013 .00796 -.00283 .0127 379 276)"/>
      <path d="M213-453c-36 0-71 35-71 70s35 71 71 71h195c35 0 70-35 70-71 0-37-35-70-71-70H213z" transform="matrix(.01308 .00754 -.00269 .0128 380 274)"/>
      <path d="M213-453c-36 0-71 35-71 70s35 71 71 71h195c35 0 70-35 70-71 0-37-35-70-71-70H213z" transform="matrix(.013 .00796 -.00283 .0127 379 272)"/>
      <path d="M213-453c-36 0-71 35-71 70s35 71 71 71h195c35 0 70-35 70-71 0-37-35-70-71-70H213z" transform="matrix(.01308 .00754 -.00269 .0128 379 271)"/>
      <path d="M213-453c-36 0-71 35-71 70s35 71 71 71h195c35 0 70-35 70-71 0-37-35-70-71-70H213z" transform="matrix(.013 .00796 -.00283 .0127 380 284)"/>
      <path d="M213-453c-36 0-71 35-71 70s35 71 71 71h195c35 0 70-35 70-71 0-37-35-70-71-70H213z" transform="matrix(.01308 .00754 -.00269 .0128 380 282)"/>
      <path d="M213-453c-36 0-71 35-71 70s35 71 71 71h195c35 0 70-35 70-71 0-37-35-70-71-70H213z" transform="matrix(.013 .00796 -.00283 .0127 380 280)"/>
      <path d="M213-453c-36 0-71 35-71 70s35 71 71 71h195c35 0 70-35 70-71 0-37-35-70-71-70H213z" transform="matrix(.01308 .00754 -.00269 .0128 380 278)"/>
      <path d="M213-453c-36 0-71 35-71 70s35 71 71 71h195c35 0 70-35 70-71 0-37-35-70-71-70H213z" transform="matrix(.013 .00796 -.00283 .0127 380 322)"/>
      <path d="M213-453c-36 0-71 35-71 70s35 71 71 71h195c35 0 70-35 70-71 0-37-35-70-71-70H213z" transform="matrix(.01308 .00754 -.00269 .0128 380 321)"/>
      <path d="M213-453c-36 0-71 35-71 70s35 71 71 71h195c35 0 70-35 70-71 0-37-35-70-71-70H213z" transform="matrix(.013 .00796 -.00283 .0127 380 318)"/>
      <path d="M213-453c-36 0-71 35-71 70s35 71 71 71h195c35 0 70-35 70-71 0-37-35-70-71-70H213z" transform="matrix(.01308 .00754 -.00269 .0128 380 317)"/>
      <path d="M213-453c-36 0-71 35-71 70s35 71 71 71h195c35 0 70-35 70-71 0-37-35-70-71-70H213z" transform="matrix(.013 .00796 -.00283 .0127 380 330)"/>
      <path d="M213-453c-36 0-71 35-71 70s35 71 71 71h195c35 0 70-35 70-71 0-37-35-70-71-70H213z" transform="matrix(.01308 .00754 -.00269 .0128 380 328)"/>
      <path d="M213-453c-36 0-71 35-71 70s35 71 71 71h195c35 0 70-35 70-71 0-37-35-70-71-70H213z" transform="matrix(.013 .00796 -.00283 .0127 380 326)"/>
      <path d="M213-453c-36 0-71 35-71 70s35 71 71 71h195c35 0 70-35 70-71 0-37-35-70-71-70H213z" transform="matrix(.01308 .00754 -.00269 .0128 380 324)"/>
      <path d="M213-453c-36 0-71 35-71 70s35 71 71 71h195c35 0 70-35 70-71 0-37-35-70-71-70H213z" transform="matrix(.013 .00796 -.00283 .0127 380 307)"/>
      <path d="M213-453c-36 0-71 35-71 70s35 71 71 71h195c35 0 70-35 70-71 0-37-35-70-71-70H213z" transform="matrix(.01308 .00754 -.00269 .0128 380 305)"/>
      <path d="M213-453c-36 0-71 35-71 70s35 71 71 71h195c35 0 70-35 70-71 0-37-35-70-71-70H213z" transform="matrix(.013 .00796 -.00283 .0127 380 303)"/>
      <path d="M213-453c-36 0-71 35-71 70s35 71 71 71h195c35 0 70-35 70-71 0-37-35-70-71-70H213z" transform="matrix(.01308 .00754 -.00269 .0128 380 301)"/>
      <path d="M213-453c-36 0-71 35-71 70s35 71 71 71h195c35 0 70-35 70-71 0-37-35-70-71-70H213z" transform="matrix(.013 .00796 -.00283 .0127 380 315)"/>
      <path d="M213-453c-36 0-71 35-71 70s35 71 71 71h195c35 0 70-35 70-71 0-37-35-70-71-70H213z" transform="matrix(.01308 .00754 -.00269 .0128 380 313)"/>
      <path d="M213-453c-36 0-71 35-71 70s35 71 71 71h195c35 0 70-35 70-71 0-37-35-70-71-70H213z" transform="matrix(.013 .00796 -.00283 .0127 380 311)"/>
      <path d="M213-453c-36 0-71 35-71 70s35 71 71 71h195c35 0 70-35 70-71 0-37-35-70-71-70H213z" transform="matrix(.01308 .00754 -.00269 .0128 380 309)"/>
      <path d="M213-453c-36 0-71 35-71 70s35 71 71 71h195c35 0 70-35 70-71 0-37-35-70-71-70H213z" transform="matrix(.013 .00796 -.00283 .0127 380 353)"/>
      <path d="M213-453c-36 0-71 35-71 70s35 71 71 71h195c35 0 70-35 70-71 0-37-35-70-71-70H213z" transform="matrix(.01308 .00754 -.00269 .0128 380 351)"/>
      <path d="M213-453c-36 0-71 35-71 70s35 71 71 71h195c35 0 70-35 70-71 0-37-35-70-71-70H213z" transform="matrix(.013 .00796 -.00283 .0127 380 349)"/>
      <path d="M213-453c-36 0-71 35-71 70s35 71 71 71h195c35 0 70-35 70-71 0-37-35-70-71-70H213z" transform="matrix(.01308 .00754 -.00269 .0128 380 348)"/>
      <path d="M213-453c-36 0-71 35-71 70s35 71 71 71h195c35 0 70-35 70-71 0-37-35-70-71-70H213z" transform="matrix(.01308 .00754 -.00269 .0128 380 359)"/>
      <path d="M213-453c-36 0-71 35-71 70s35 71 71 71h195c35 0 70-35 70-71 0-37-35-70-71-70H213z" transform="matrix(.013 .00796 -.00283 .0127 380 357)"/>
      <path d="M213-453c-36 0-71 35-71 70s35 71 71 71h195c35 0 70-35 70-71 0-37-35-70-71-70H213z" transform="matrix(.01308 .00754 -.00269 .0128 380 355)"/>
      <path d="M213-453c-36 0-71 35-71 70s35 71 71 71h195c35 0 70-35 70-71 0-37-35-70-71-70H213z" transform="matrix(.013 .00796 -.00283 .0127 380 338)"/>
      <path d="M213-453c-36 0-71 35-71 70s35 71 71 71h195c35 0 70-35 70-71 0-37-35-70-71-70H213z" transform="matrix(.01308 .00754 -.00269 .0128 380 336)"/>
      <path d="M213-453c-36 0-71 35-71 70s35 71 71 71h195c35 0 70-35 70-71 0-37-35-70-71-70H213z" transform="matrix(.013 .00796 -.00283 .0127 380 334)"/>
      <path d="M213-453c-36 0-71 35-71 70s35 71 71 71h195c35 0 70-35 70-71 0-37-35-70-71-70H213z" transform="matrix(.01308 .00754 -.00269 .0128 380 332)"/>
      <path d="M213-453c-36 0-71 35-71 70s35 71 71 71h195c35 0 70-35 70-71 0-37-35-70-71-70H213z" transform="matrix(.013 .00796 -.00283 .0127 380 345)"/>
      <path d="M213-453c-36 0-71 35-71 70s35 71 71 71h195c35 0 70-35 70-71 0-37-35-70-71-70H213z" transform="matrix(.01308 .00754 -.00269 .0128 380 344)"/>
      <path d="M213-453c-36 0-71 35-71 70s35 71 71 71h195c35 0 70-35 70-71 0-37-35-70-71-70H213z" transform="matrix(.013 .00796 -.00283 .0127 380 342)"/>
      <path d="M213-453c-36 0-71 35-71 70s35 71 71 71h195c35 0 70-35 70-71 0-37-35-70-71-70H213z" transform="matrix(.01308 .00754 -.00269 .0128 380 340)"/>
      <path d="M213-453c-36 0-71 35-71 70s35 71 71 71h195c35 0 70-35 70-71 0-37-35-70-71-70H213z" transform="matrix(.013 .00796 -.00283 .0127 380 372)"/>
      <path d="M213-453c-36 0-71 35-71 70s35 71 71 71h195c35 0 70-35 70-71 0-37-35-70-71-70H213z" transform="matrix(.01308 .00754 -.00269 .0128 380 371)"/>
      <path d="M213-453c-36 0-71 35-71 70s35 71 71 71h195c35 0 70-35 70-71 0-37-35-70-71-70H213z" transform="matrix(.013 .00796 -.00283 .0127 380 369)"/>
      <path d="M213-453c-36 0-71 35-71 70s35 71 71 71h195c35 0 70-35 70-71 0-37-35-70-71-70H213z" transform="matrix(.01308 .00754 -.00269 .0128 380 367)"/>
      <path d="M213-453c-36 0-71 35-71 70s35 71 71 71h195c35 0 70-35 70-71 0-37-35-70-71-70H213z" transform="matrix(.01308 .00754 -.00269 .0128 380 378)"/>
      <path d="M213-453c-36 0-71 35-71 70s35 71 71 71h195c35 0 70-35 70-71 0-37-35-70-71-70H213z" transform="matrix(.013 .00796 -.00283 .0127 380 376)"/>
      <path d="M213-453c-36 0-71 35-71 70s35 71 71 71h195c35 0 70-35 70-71 0-37-35-70-71-70H213z" transform="matrix(.01308 .00754 -.00269 .0128 380 375)"/>
      <path d="M213-453c-36 0-71 35-71 70s35 71 71 71h195c35 0 70-35 70-71 0-37-35-70-71-70H213z" transform="matrix(.013 .00796 -.00283 .0127 380 365)"/>
      <path d="M213-453c-36 0-71 35-71 70s35 71 71 71h195c35 0 70-35 70-71 0-37-35-70-71-70H213z" transform="matrix(.01308 .00754 -.00269 .0128 380 363)"/>
      <path d="M213-453c-36 0-71 35-71 70s35 71 71 71h195c35 0 70-35 70-71 0-37-35-70-71-70H213z" transform="matrix(.013 .00796 -.00283 .0127 380 361)"/>
    </g>
    <g fill="#b00" stroke="#000" stroke-width="14">
      <path d="M213-453c-36 0-71 35-71 70s35 71 71 71h195c35 0 70-35 70-71 0-37-35-70-71-70H213z" transform="matrix(.0162 .00404 .00232 .0128 390 280)"/>
      <path d="M213-453c-36 0-71 35-71 70s35 71 71 71h195c35 0 70-35 70-71 0-37-35-70-71-70H213z" transform="matrix(.0045 .013 -.01229 .00849 387 276)"/>
      <path d="M213-453c-36 0-71 35-71 70s35 71 71 71h195c35 0 70-35 70-71 0-37-35-70-71-70H213z" transform="matrix(.01181 .00968 -.00565 .01213 388 278)"/>
      <path d="M213-453c-36 0-71 35-71 70s35 71 71 71h195c35 0 70-35 70-71 0-37-35-70-71-70H213z" transform="matrix(-.00986 .01097 -.01604 -.00222 386 273)"/>
      <path d="M213-453c-36 0-71 35-71 70s35 71 71 71h195c35 0 70-35 70-71 0-37-35-70-71-70H213z" transform="matrix(-.00934 .01104 -.01615 -.0021 389 273)"/>
      <path d="M213-453c-36 0-71 35-71 70s35 71 71 71h195c35 0 70-35 70-71 0-37-35-70-71-70H213z" transform="matrix(-.01037 .01067 -.01593 -.0027 377 273)"/>
      <path d="M213-453c-36 0-71 35-71 70s35 71 71 71h195c35 0 70-35 70-71 0-37-35-70-71-70H213z" transform="matrix(-.00985 .01076 -.01604 -.00257 379 273)"/>
      <path d="M213-453c-36 0-71 35-71 70s35 71 71 71h195c35 0 70-35 70-71 0-37-35-70-71-70H213z" transform="matrix(-.01037 .01067 -.01593 -.0027 382 273)"/>
      <path d="M213-453c-36 0-71 35-71 70s35 71 71 71h195c35 0 70-35 70-71 0-37-35-70-71-70H213z" transform="matrix(-.00934 .01104 -.01615 -.0021 384 273)"/>
      <path d="M213-453c-36 0-71 35-71 70s35 71 71 71h195c35 0 70-35 70-71 0-37-35-70-71-70H213z" transform="matrix(-.01037 .01067 -.01593 -.0027 374 272)"/>
      <path d="M213-453c-36 0-71 35-71 70s35 71 71 71h195c35 0 70-35 70-71 0-37-35-70-71-70H213z" transform="matrix(-.01138 .00976 -.01555 -.00406 375 273)"/>
      <path d="M213-453c-36 0-71 35-71 70s35 71 71 71h195c35 0 70-35 70-71 0-37-35-70-71-70H213z" transform="matrix(-.01504 .00625 -.01305 -.00773 375 271)"/>
    </g>
    <g fill="#b00" stroke="#000" stroke-width="14">
      <path d="M213-453c-36 0-71 35-71 70s35 71 71 71h195c35 0 70-35 70-71 0-37-35-70-71-70H213z" transform="matrix(-.01307 -.00787 -.01355 .0062 421 360)"/>
      <path d="M213-453c-36 0-71 35-71 70s35 71 71 71h195c35 0 70-35 70-71 0-37-35-70-71-70H213z" transform="matrix(-.01263 -.00807 -.0137 .00611 423 360)"/>
      <path d="M213-453c-36 0-71 35-71 70s35 71 71 71h195c35 0 70-35 70-71 0-37-35-70-71-70H213z" transform="matrix(-.01307 -.00787 -.01355 .0062 425 359)"/>
      <path d="M213-453c-36 0-71 35-71 70s35 71 71 71h195c35 0 70-35 70-71 0-37-35-70-71-70H213z" transform="matrix(-.01263 -.00807 -.0137 .00611 427 359)"/>
      <path d="M213-453c-36 0-71 35-71 70s35 71 71 71h195c35 0 70-35 70-71 0-37-35-70-71-70H213z" transform="matrix(-.01559 .00255 -.00363 .01263 441 352)"/>
      <path d="M213-453c-36 0-71 35-71 70s35 71 71 71h195c35 0 70-35 70-71 0-37-35-70-71-70H213z" transform="matrix(-.0103 .01036 .00644 .01175 443 347)"/>
      <path d="M213-453c-36 0-71 35-71 70s35 71 71 71h195c35 0 70-35 70-71 0-37-35-70-71-70H213z" transform="matrix(-.0157 .00296 -.00345 .0126 442 350)"/>
      <path d="M213-453c-36 0-71 35-71 70s35 71 71 71h195c35 0 70-35 70-71 0-37-35-70-71-70H213z" transform="matrix(-.01221 -.00878 -.01414 .0052 412 362)"/>
      <path d="M213-453c-36 0-71 35-71 70s35 71 71 71h195c35 0 70-35 70-71 0-37-35-70-71-70H213z" transform="matrix(-.01175 -.00895 -.01428 .0051 414 362)"/>
      <path d="M213-453c-36 0-71 35-71 70s35 71 71 71h195c35 0 70-35 70-71 0-37-35-70-71-70H213z" transform="matrix(-.0134 -.00747 -.01328 .0066 417 361)"/>
      <path d="M213-453c-36 0-71 35-71 70s35 71 71 71h195c35 0 70-35 70-71 0-37-35-70-71-70H213z" transform="matrix(-.01125 -.00939 -.01454 .00455 418 361)"/>
      <path d="M213-453c-36 0-71 35-71 70s35 71 71 71h195c35 0 70-35 70-71 0-37-35-70-71-70H213z" transform="matrix(-.01307 -.00787 -.01355 .0062 429 358)"/>
      <path d="M213-453c-36 0-71 35-71 70s35 71 71 71h195c35 0 70-35 70-71 0-37-35-70-71-70H213z" transform="matrix(-.01263 -.00807 -.0137 .00611 431 357)"/>
      <path d="M213-453c-36 0-71 35-71 70s35 71 71 71h195c35 0 70-35 70-71 0-37-35-70-71-70H213z" transform="matrix(-.00984 -.01067 -.0151 .0027 383 364)"/>
      <path d="M213-453c-36 0-71 35-71 70s35 71 71 71h195c35 0 70-35 70-71 0-37-35-70-71-70H213z" transform="matrix(-.00934 -.01075 -.01521 .00257 385 364)"/>
      <path d="M213-453c-36 0-71 35-71 70s35 71 71 71h195c35 0 70-35 70-71 0-37-35-70-71-70H213z" transform="matrix(-.00984 -.01067 -.0151 .0027 387 364)"/>
      <path d="M213-453c-36 0-71 35-71 70s35 71 71 71h195c35 0 70-35 70-71 0-37-35-70-71-70H213z" transform="matrix(-.00934 -.01075 -.01521 .00257 390 364)"/>
      <path d="M213-453c-36 0-71 35-71 70s35 71 71 71h195c35 0 70-35 70-71 0-37-35-70-71-70H213z" transform="matrix(-.00984 -.01067 -.0151 .0027 374 364)"/>
      <path d="M213-453c-36 0-71 35-71 70s35 71 71 71h195c35 0 70-35 70-71 0-37-35-70-71-70H213z" transform="matrix(-.00934 -.01075 -.01521 .00257 376 364)"/>
      <path d="M213-453c-36 0-71 35-71 70s35 71 71 71h195c35 0 70-35 70-71 0-37-35-70-71-70H213z" transform="matrix(-.00984 -.01067 -.0151 .0027 378 364)"/>
      <path d="M213-453c-36 0-71 35-71 70s35 71 71 71h195c35 0 70-35 70-71 0-37-35-70-71-70H213z" transform="matrix(-.00934 -.01075 -.01521 .00257 380 364)"/>
      <path d="M213-453c-36 0-71 35-71 70s35 71 71 71h195c35 0 70-35 70-71 0-37-35-70-71-70H213z" transform="matrix(-.01117 -.0097 -.01466 .00406 402 363)"/>
      <path d="M213-453c-36 0-71 35-71 70s35 71 71 71h195c35 0 70-35 70-71 0-37-35-70-71-70H213z" transform="matrix(-.01105 -.00955 -.01463 .00433 404 363)"/>
      <path d="M213-453c-36 0-71 35-71 70s35 71 71 71h195c35 0 70-35 70-71 0-37-35-70-71-70H213z" transform="matrix(-.01153 -.0094 -.0145 .00444 407 363)"/>
      <path d="M213-453c-36 0-71 35-71 70s35 71 71 71h195c35 0 70-35 70-71 0-37-35-70-71-70H213z" transform="matrix(-.01175 -.00895 -.01428 .0051 409 363)"/>
      <path d="M213-453c-36 0-71 35-71 70s35 71 71 71h195c35 0 70-35 70-71 0-37-35-70-71-70H213z" transform="matrix(-.00984 -.01067 -.0151 .0027 392 364)"/>
      <path d="M213-453c-36 0-71 35-71 70s35 71 71 71h195c35 0 70-35 70-71 0-37-35-70-71-70H213z" transform="matrix(-.01015 -.01023 -.01499 .00338 394 364)"/>
      <path d="M213-453c-36 0-71 35-71 70s35 71 71 71h195c35 0 70-35 70-71 0-37-35-70-71-70H213z" transform="matrix(-.01123 -.00966 -.01464 .00412 397 364)"/>
      <path d="M213-453c-36 0-71 35-71 70s35 71 71 71h195c35 0 70-35 70-71 0-37-35-70-71-70H213z" transform="matrix(-.00994 -.01037 -.01505 .00317 399 363)"/>
      <path d="M213-453c-36 0-71 35-71 70s35 71 71 71h195c35 0 70-35 70-71 0-37-35-70-71-70H213z" transform="matrix(-.0074 -.01197 -.01544 .00039 345 362)"/>
      <path d="M213-453c-36 0-71 35-71 70s35 71 71 71h195c35 0 70-35 70-71 0-37-35-70-71-70H213z" transform="matrix(-.00689 -.01198 -.01552 .00025 347 362)"/>
      <path d="M213-453c-36 0-71 35-71 70s35 71 71 71h195c35 0 70-35 70-71 0-37-35-70-71-70H213z" transform="matrix(-.00882 -.01127 -.0153 .00171 350 363)"/>
      <path d="M213-453c-36 0-71 35-71 70s35 71 71 71h195c35 0 70-35 70-71 0-37-35-70-71-70H213z" transform="matrix(-.00832 -.01133 -.0154 .00158 352 363)"/>
      <path d="M213-453c-36 0-71 35-71 70s35 71 71 71h195c35 0 70-35 70-71 0-37-35-70-71-70H213z" transform="matrix(-.00689 -.01198 -.01552 .00025 338 361)"/>
      <path d="M213-453c-36 0-71 35-71 70s35 71 71 71h195c35 0 70-35 70-71 0-37-35-70-71-70H213z" transform="matrix(-.0074 -.01197 -.01544 .00039 341 362)"/>
      <path d="M213-453c-36 0-71 35-71 70s35 71 71 71h195c35 0 70-35 70-71 0-37-35-70-71-70H213z" transform="matrix(-.00689 -.01198 -.01552 .00025 343 362)"/>
      <path d="M213-453c-36 0-71 35-71 70s35 71 71 71h195c35 0 70-35 70-71 0-37-35-70-71-70H213z" transform="matrix(-.00882 -.01127 -.0153 .00171 364 364)"/>
      <path d="M213-453c-36 0-71 35-71 70s35 71 71 71h195c35 0 70-35 70-71 0-37-35-70-71-70H213z" transform="matrix(-.00832 -.01133 -.0154 .00158 366 364)"/>
      <path d="M213-453c-36 0-71 35-71 70s35 71 71 71h195c35 0 70-35 70-71 0-37-35-70-71-70H213z" transform="matrix(-.00984 -.01067 -.0151 .0027 369 364)"/>
      <path d="M213-453c-36 0-71 35-71 70s35 71 71 71h195c35 0 70-35 70-71 0-37-35-70-71-70H213z" transform="matrix(-.00934 -.01075 -.01521 .00257 371 364)"/>
      <path d="M213-453c-36 0-71 35-71 70s35 71 71 71h195c35 0 70-35 70-71 0-37-35-70-71-70H213z" transform="matrix(-.00882 -.01127 -.0153 .00171 355 363)"/>
      <path d="M213-453c-36 0-71 35-71 70s35 71 71 71h195c35 0 70-35 70-71 0-37-35-70-71-70H213z" transform="matrix(-.00832 -.01133 -.0154 .00158 357 363)"/>
      <path d="M213-453c-36 0-71 35-71 70s35 71 71 71h195c35 0 70-35 70-71 0-37-35-70-71-70H213z" transform="matrix(-.00882 -.01127 -.0153 .00171 359 363)"/>
      <path d="M213-453c-36 0-71 35-71 70s35 71 71 71h195c35 0 70-35 70-71 0-37-35-70-71-70H213z" transform="matrix(-.00832 -.01133 -.0154 .00158 361 364)"/>
      <path d="M213-453c-36 0-71 35-71 70s35 71 71 71h195c35 0 70-35 70-71 0-37-35-70-71-70H213z" transform="matrix(.01592 -.00203 .00451 -.01237 330 345)"/>
      <path d="M213-453c-36 0-71 35-71 70s35 71 71 71h195c35 0 70-35 70-71 0-37-35-70-71-70H213z" transform="matrix(.01266 -.00804 -.00338 -.01268 328 348)"/>
      <path d="M213-453c-36 0-71 35-71 70s35 71 71 71h195c35 0 70-35 70-71 0-37-35-70-71-70H213z" transform="matrix(.0085 -.01144 -.0083 -.0109 327 352)"/>
      <path d="M213-453c-36 0-71 35-71 70s35 71 71 71h195c35 0 70-35 70-71 0-37-35-70-71-70H213z" transform="matrix(.00338 -.013 -.01242 -.0078 328 355)"/>
      <path d="M213-453c-36 0-71 35-71 70s35 71 71 71h195c35 0 70-35 70-71 0-37-35-70-71-70H213z" transform="matrix(.01585 .00085 .00735 -.01145 335 339)"/>
      <path d="M213-453c-36 0-71 35-71 70s35 71 71 71h195c35 0 70-35 70-71 0-37-35-70-71-70H213z" transform="matrix(.01609 .00047 .00716 -.01145 333 341)"/>
      <path d="M213-453c-36 0-71 35-71 70s35 71 71 71h195c35 0 70-35 70-71 0-37-35-70-71-70H213z" transform="matrix(.01577 -.00162 .0047 -.01239 331 343)"/>
      <path d="M213-453c-36 0-71 35-71 70s35 71 71 71h195c35 0 70-35 70-71 0-37-35-70-71-70H213z" transform="matrix(-.0009 -.01346 -.01428 -.00493 330 358)"/>
      <path d="M213-453c-36 0-71 35-71 70s35 71 71 71h195c35 0 70-35 70-71 0-37-35-70-71-70H213z" transform="matrix(-.00393 -.01288 -.01527 -.00232 333 360)"/>
      <path d="M213-453c-36 0-71 35-71 70s35 71 71 71h195c35 0 70-35 70-71 0-37-35-70-71-70H213z" transform="matrix(-.0074 -.01197 -.01544 .00039 336 361)"/>
      <path d="M213-453c-36 0-71 35-71 70s35 71 71 71h195c35 0 70-35 70-71 0-37-35-70-71-70H213z" transform="matrix(-.01563 -.00324 -.00984 .00997 435 356)"/>
      <path d="M213-453c-36 0-71 35-71 70s35 71 71 71h195c35 0 70-35 70-71 0-37-35-70-71-70H213z" transform="matrix(-.01507 -.0042 -.0106 .0095 435 357)"/>
      <path d="M213-453c-36 0-71 35-71 70s35 71 71 71h195c35 0 70-35 70-71 0-37-35-70-71-70H213z" transform="matrix(-.01583 -.00244 -.0091 .01045 439 354)"/>
      <path d="M213-453c-36 0-71 35-71 70s35 71 71 71h195c35 0 70-35 70-71 0-37-35-70-71-70H213z" transform="matrix(-.01496 -.00447 -.01083 .0093 437 356)"/>
      <path d="M213-453c-36 0-71 35-71 70s35 71 71 71h195c35 0 70-35 70-71 0-37-35-70-71-70H213z" transform="matrix(.01467 -.00556 .01183 .00831 430 347)"/>
      <path d="M213-453c-36 0-71 35-71 70s35 71 71 71h195c35 0 70-35 70-71 0-37-35-70-71-70H213z" transform="matrix(.01428 -.00583 .012 .00825 429 346)"/>
      <path d="M213-453c-36 0-71 35-71 70s35 71 71 71h195c35 0 70-35 70-71 0-37-35-70-71-70H213z" transform="matrix(.01514 -.0046 .01102 .00905 426 345)"/>
      <path d="M213-453c-36 0-71 35-71 70s35 71 71 71h195c35 0 70-35 70-71 0-37-35-70-71-70H213z" transform="matrix(.01428 -.00583 .012 .00825 437 350)"/>
      <path d="M213-453c-36 0-71 35-71 70s35 71 71 71h195c35 0 70-35 70-71 0-37-35-70-71-70H213z" transform="matrix(.01467 -.00556 .01183 .00831 434 349)"/>
      <path d="M213-453c-36 0-71 35-71 70s35 71 71 71h195c35 0 70-35 70-71 0-37-35-70-71-70H213z" transform="matrix(.01428 -.00583 .012 .00825 433 348)"/>
    </g>
    <g transform="matrix(.07228 0 0 .0858 365 299)">
      <path fill="#fff133" stroke="#000" d="M213-1995v53h-54v36h54v106h35v-106h53v-36h-53v-53h-35z"/>
      <ellipse cx="239" cy="-1814" fill="#fff133" stroke="#000" rx="62" ry="57" transform="matrix(.57143 0 0 .61816 94 -679)"/>
      <path fill="#fff" stroke="#000" d="M602-1119c0 68-10 145-29 205-120-27-268-40-339-40-87 0-246 13-345 26a631 631 0 01-31-191c0-274 106-391 368-496 233 105 376 222 376 496z" transform="matrix(1.0576 0 0 1.3394 -6 364)"/>
      <path fill="#fff133" stroke="#000" d="M567-657c0-44-151-80-337-80s-336 36-336 80v26c0-44 151-71 336-71s337 45 337 89v-44z" transform="matrix(1.1715 0 0 .74463 -33 -635)"/>
      <g fill="#fff133" stroke="#000">
        <path d="M230-826l-53 54 36 35-18 18-36-36-53 53 53 54 36-36 18 18v53h35v-53l18-18 35 36 53-54-53-53-35 36-18-18 36-35-54-54z" transform="matrix(1.1725 0 0 .74463 -33 -767)"/>
        <path d="M221-826l-8 54v35l-18 18v-36l-18 53 18 54v-36l18 18v53h17v-53l18-18v36l18-54-18-53v36l-18-18v-35l-9-54z" transform="matrix(1.13516 -.18643 .29356 .72091 -190 -704)"/>
        <path d="M221-826l-8 54v35l-18 18v-36l-18 53 18 54v-36l18 18v53h17v-53l18-18v36l18-54-18-53v36l-18-18v-35l-9-54z" transform="matrix(1.1416 .16986 -.26746 .725 182 -778)"/>
        <path d="M142-1020a38 38 0 0135-36c18 0 36 18 36 35s-18 36-18 36l71 71h-36l-53-53-53 53H89l71-71s-18-18-18-36z" transform="matrix(.92597 -.09509 .18717 .73508 29 -522)"/>
        <path d="M142-1020a38 38 0 0135-36c18 0 36 18 36 35s-18 36-18 36l71 71h-36l-53-53-53 53H89l71-71s-18-18-18-36z" transform="matrix(.92699 .091 -.17909 .7359 125 -554)"/>
        <path d="M567-657c0-44-151-80-337-80s-336 36-336 80v26c0-44 151-71 336-71s337 45 337 89v-44z" transform="matrix(1.1725 0 0 .74463 -33 -674)"/>
      </g>
      <path fill="#fff133" stroke="#000" d="M567-657c0-44-151-80-337-80s-336 36-336 80v26c0-44 151-71 336-71s337 45 337 89v-44z" transform="matrix(1.0735 0 0 .74463 -9 -387)"/>
      <g fill="#fff133" stroke="#000">
        <path d="M230-826l-53 54 36 35-18 18-36-36-53 53 53 54 36-36 18 18v53h35v-53l18-18 35 36 53-54-53-53-35 36-18-18 36-35-54-54z" transform="matrix(1.1042 0 0 .74463 -13 -519)"/>
        <path d="M221-826l-8 54v35l-18 18v-36l-18 53 18 54v-36l18 18v53h17v-53l18-18v36l18-54-18-53v36l-18-18v-35l-9-54z" transform="matrix(1.06903 -.18643 .27645 .72092 -161 -456)"/>
        <path d="M221-826l-8 54v35l-18 18v-36l-18 53 18 54v-36l18 18v53h17v-53l18-18v36l18-54-18-53v36l-18-18v-35l-9-54z" transform="matrix(1.0751 .16986 -.25188 .725 190 -530)"/>
        <path d="M142-1020a38 38 0 0135-36c18 0 36 18 36 35s-18 36-18 36l71 71h-36l-53-53-53 53H89l71-71s-18-18-18-36z" transform="matrix(.87203 -.09509 .17626 .73508 45 -274)"/>
        <path d="M142-1020a38 38 0 0135-36c18 0 36 18 36 35s-18 36-18 36l71 71h-36l-53-53-53 53H89l71-71s-18-18-18-36z" transform="matrix(.873 .091 -.16866 .7359 136 -306)"/>
        <path d="M567-657c0-44-151-80-337-80s-336 36-336 80v26c0-44 151-71 336-71s337 45 337 89v-44z" transform="matrix(1.1042 0 0 .74463 -13 -426)"/>
      </g>
      <path fill="#fff133" stroke="#000" d="M567-657c0-44-151-80-337-80s-336 36-336 80v26c0-44 151-71 336-71s337 45 337 89v-44z" transform="matrix(1.105 0 0 .74463 -16 -865)"/>
      <g fill="#fff133" stroke="#000">
        <path d="M230-826l-53 54 36 35-18 18-36-36-53 53 53 54 36-36 18 18v53h35v-53l18-18 35 36 53-54-53-53-35 36-18-18 36-35-54-54z" transform="matrix(1.0799 0 0 .70238 -6 -1031)"/>
        <path d="M221-826l-8 54v35l-18 18v-36l-18 53 18 54v-36l18 18v53h17v-53l18-18v36l18-54-18-53v36l-18-18v-35l-9-54z" transform="matrix(1.0455 -.17585 .27037 .68 -151 -972)"/>
        <path d="M221-826l-8 54v35l-18 18v-36l-18 53 18 54v-36l18 18v53h17v-53l18-18v36l18-54-18-53v36l-18-18v-35l-9-54z" transform="matrix(1.05143 .16022 -.24634 .68386 192 -1042)"/>
        <path d="M142-1020a38 38 0 0135-36c18 0 36 18 36 35s-18 36-18 36l71 71h-36l-53-53-53 53H89l71-71s-18-18-18-36z" transform="matrix(.85284 -.0897 .17238 .69338 51 -800)"/>
        <path d="M142-1020a38 38 0 0135-36c18 0 36 18 36 35s-18 36-18 36l71 71h-36l-53-53-53 53H89l71-71s-18-18-18-36z" transform="matrix(.85378 .08583 -.16494 .69414 139 -831)"/>
        <path d="M567-657c0-44-151-80-337-80s-336 36-336 80v26c0-44 151-71 336-71s337 45 337 89v-44z" transform="matrix(1.0799 0 0 .70238 -6 -944)"/>
      </g>
      <ellipse cx="234" cy="-822" fill="#b90000" rx="376" ry="121" transform="matrix(.96627 0 0 .41385 13 -517)"/>
    </g>
    <path fill="#fff" stroke="#000" d="M514-790l35-18 36 18s-74 35-74 159c0 89 125 107 125 213 0 45-34 88-69 88s-89-17-142-70c36 17 76 37 106 36 20-1 55-18 55-53 0-71-122-107-122-214 0-124 50-159 50-159z" transform="matrix(.21542 0 0 .17871 314 342)"/>
    <path fill="#b00" stroke="#000" stroke-width="20" d="M213-453c-36 0-71 35-71 70s35 71 71 71h195c35 0 70-35 70-71 0-37-35-70-71-70H213z" transform="matrix(.01859 -.00133 .0085 .02009 379 385)"/>
    <path fill="#fff" stroke="#000" d="M520-790l47-18 10 18s-71 35-71 159c0 89 126 107 126 213 0 45-27 87-65 88-74 3-91-23-142-70 43 32 105 46 129 34 30-16 35-36 35-54 0-71-121-104-121-211 0-124 52-159 52-159z" transform="matrix(.21542 0 0 .17871 314 342)"/>
    <path fill="#fff" stroke="#000" d="M513-790c7-2 36-18 72 18 17 17 17 53 17 70l53-53s-29-87-107-53a335 335 0 00-35 18z" transform="matrix(.21542 0 0 .17871 314 342)"/>
    <path fill="#fff" stroke="#000" d="M524-796c9-3 36-6 64 19 18 17 19 43 19 60l41-38c3-3-25-81-99-54a154 154 0 00-25 13z" transform="matrix(.21542 0 0 .17871 314 342)"/>
    <path fill="#fff133" stroke="#000" d="M345-596l9 22s1-10 8-12l7-1 32 58c6 9-3 17-1 17l26-12s-10 1-15-6l-35-60 12-5c5-3 10 8 10 8l-13-27s0 9-4 11l-8 3-8-13c-5-7 4-14 4-14l-23 11s8 5 11 9l5 9-8 3c-4 2-8 0-9-1z" transform="matrix(.17534 -.01853 .05985 .15541 399 345)"/>
    <path fill="#fff133" stroke="#000" d="M345-596l9 22s1-10 8-12l7-1 32 58c6 9-3 17-1 17l26-12s-10 1-15-6l-35-60 12-5c5-3 10 8 10 8l-13-27s0 9-4 11l-8 3-8-13c-5-7 4-14 4-14l-23 11s8 5 11 9l5 9-8 3c-4 2-8 0-9-1z" transform="matrix(-.15954 .02165 -.00278 -.11904 506 128)"/>
    <path fill="#b00" stroke="#000" stroke-width="20" d="M213-453c-36 0-71 35-71 70s35 71 71 71h195c35 0 70-35 70-71 0-37-35-70-71-70H213z" transform="matrix(.01859 -.00133 .0085 .02009 382 385)"/>
    <path fill="#b00" stroke="#000" stroke-width="20" d="M213-453c-36 0-71 35-71 70s35 71 71 71h195c35 0 70-35 70-71 0-37-35-70-71-70H213z" transform="matrix(.0313 -.00133 .01432 .02009 377 388)"/>
    <path fill="#b00" stroke="#000" stroke-width="20" d="M213-453c-36 0-71 35-71 70s35 71 71 71h195c35 0 70-35 70-71 0-37-35-70-71-70H213z" transform="matrix(.0313 -.00133 .01432 .02009 380 388)"/>
    <path fill="#b00" stroke="#000" stroke-width="20" d="M213-453c-36 0-71 35-71 70s35 71 71 71h195c35 0 70-35 70-71 0-37-35-70-71-70H213z" transform="matrix(.0388 -.00133 .01775 .02009 376 391)"/>
    <path fill="#b00" stroke="#000" stroke-width="20" d="M213-453c-36 0-71 35-71 70s35 71 71 71h195c35 0 70-35 70-71 0-37-35-70-71-70H213z" transform="matrix(.0388 -.00133 .01775 .02009 380 390)"/>
    <path fill="#ffe000" d="M0 0h256v512H0z"/>
  </g>
</svg>
