<svg xmlns="http://www.w3.org/2000/svg" xmlns:xlink="http://www.w3.org/1999/xlink" id="flag-icons-ad" viewBox="0 0 640 480">
  <path fill="#d0103a" d="M0 0h640v480H0z"/>
  <path fill="#fedf00" d="M0 0h435v480H0z"/>
  <path fill="#0018a8" d="M0 0h205v480H0z"/>
  <path fill="#c7b37f" d="M300 137c8 0 11 6 19 6 5 0 8-1 12-4l8-2c3 0 5 1 7 4 1 1 2 5 1 6a40 40 0 01-2 9l-2 4c0 4 6 5 10 6 0 0 7 0 12-5-3 0-5-2-5-4 0-3 2-4 4-5h2l1-1 3-2 3 1h4a5 5 0 012 0l2 2 3-1 5 2 1 2a6 6 0 015 3l1 1 2 1a6 6 0 012 5v2c-2 6-6 9-11 14-2 3-3 5-3 8l1 2c0-1 0-3 2-3a4 4 0 014 4 5 5 0 010 1 10 10 0 014-1h1c4 0 7 2 10 4a21 21 0 017 17c-1 5 0 14-14 18 3 1 4 3 4 5a5 5 0 01-4 5 4 4 0 01-3-1c-3 3-4 5-4 9l2 6 3 6c1-2 2-3 4-3l4 2v2l2 1v3l1 1 1 3c0 3-3 5-6 5h-2l4 4a18 18 0 013 10 22 22 0 01-3 12 20 20 0 01-7 8 35 35 0 01-16 6 74 74 0 01-11 2l-14 1c-7 0-12 1-17 6 2 2 4 4 4 7s-2 5-5 6h-2l-1 2a6 6 0 01-4 1 8 8 0 01-6-3c-2 2-3 4-6 5l-2 1-3-1a23 23 0 01-5-4l-6 2a7 7 0 01-4-1l-1-2h-3c-3-2-5-4-5-7s2-5 5-6c-5-5-10-6-17-6l-14-1-11-2c-3 0-5 0-8-2-11-4-17-11-18-22l-1-3c0-5 3-9 7-13h-3c-2-1-4-3-4-6v-3l1-1 1-2 1-2c1-2 2-3 4-3l4 2 3-3a16 16 0 001-14c0-1 0-2-2-3l-3 1c-3 0-5-2-5-5a5 5 0 013-5l-5-2-5-6-2-5a19 19 0 01-1-8c1-5 2-8 5-12l6-5 6-1h2a7 7 0 013 1h1l-1-1c0-2 2-4 4-4l3 2 1-2c0-3-2-5-4-8-5-6-11-8-11-16 0-2 1-4 3-5h2l1-1 1-2 3-2 1-1c2-2 3-2 5-2h2l2 1 1-2a4 4 0 012 0h4l3-1 2 1c2 0 2 1 3 2h1c3 1 5 3 5 5l-2 4-3 1a16 16 0 0012 3c4 0 9-1 9-6l-2-4a19 19 0 01-2-9c0-3 0-4 2-7 1-2 3-2 6-2z"/>
  <g fill="none" stroke="#703d29">
    <path stroke-linejoin="round" d="M272 159a4 4 0 003 2c1 1 2 1 4-1v-4a5 5 0 00-2-2l-5 5z"/>
    <path stroke-linecap="round" d="M401 236c-1-3-4-2-4 0-1 4 2 5 5 4a4 4 0 002-2l1-3a5 5 0 00-1-2 5 5 0 00-2-1l-3-1c-5 0-10 7-12 14v12a22 22 0 006 11 26 26 0 009 6 8 8 0 004 0c4-1 5-4 3-7-1-3-5-4-7-1v2l1 2c1 1 4 1 4-2"/>
    <path d="M384 274a11 11 0 016-4l9 2a19 19 0 0110 17l-2 10c0 1-3 9-15 14-7 3-18 3-26 4-10 0-20 0-25 7"/>
    <path d="M386 286l1-4c1-1 4-2 6-1a7 7 0 013 3l1 1 1 3c2 7-2 14-7 17-4 3-8 4-14 4l-7 1h-9a70 70 0 00-7 0l-8 1-5 1h-3l-10 5-3 1-1 1c-2 2-4 4-4 7v2c0 1 1 4 5 5m6-170v4c0 1-1 2-3 2-4 0-7-4-5-7 3-6 9-3 15 0l-1-4 5-10c1-2 1-4-1-6h-5c-4 1-8 6-16 6-9 0-13-5-17-6-2-1-4-1-5 1-2 1-2 3-1 6s4 5 5 10l-1 3c6-3 12-6 15 0 2 3-1 7-5 7l-3-2c-1-2 0-3 1-4"/>
    <path stroke-linecap="round" d="M315 160a5 5 0 012 5c0 2-1 3-3 4m3-3l-3 3"/>
    <path fill="#c7b37f" d="M277 153v1l1 1 1 1v3l-1 1-1 1h-3l-1-1-1-1v-1l5-5z" stroke="none"/>
    <path stroke-linecap="round" d="M275 157c0-2-2-2-3-1-1 2 0 4 2 5a4 4 0 004-2l1-4a5 5 0 00-2-2c-3-2-7-1-9 2-2 5 2 8 6 11 5 3 10 3 14 3 9 0 16-4 21-7l3 1a2 2 0 01-1 2"/>
    <path d="M248 281l-2 1-2 1-1 2-1 2-1 1v4m19-11v2l-1 1-1 3-1 1-1 2h-3M320 329c-1 2-2 4-6 4v1M404 276a18 18 0 016 14l-2 9c-1 2-3 9-15 14a85 85 0 01-26 4c-10 0-20 1-26 7"/>
    <path d="M388 283c0-1 3-3 5-1a6 6 0 013 2M402 274h1a7 7 0 004 0c3 0 5-3 3-7a6 6 0 00-2-2"/>
    <path stroke-linecap="round" d="M240 200l-4 3a28 28 0 00-3 7m46-52c0 2-1 3-3 3"/>
    <path d="M397 192a19 19 0 0119 20c0 16-10 18-14 19"/>
    <path d="M398 192c8 0 17 6 17 21 1 11-8 17-12 18M394 248v-1l1-3v-2l1-1 1-2m8-3v2l-1 1v1h-1l-1 1h-2m-14-53v-2l1-1 1-2 1-2 2-2 2-2 2-2 1-1 1-2 2-2v-2l1-2v-3m-12 128h1l1-1 1-1 1-1v-2m-158-12h4m5-37v2h-1v1h-1v1h-2m10-16v2l-1 1-1 1-1 1-1 1h-2m15-39l-1 1v1l-1 1-1 1-1 1h-2m0-6v1"/>
    <path stroke-linecap="round" d="M254 224a7 7 0 01-2 1m151 45h0c2 1 4 0 4-2"/>
    <path d="M398 240l4 1a4 4 0 003-2v-4a5 5 0 00-1-1 7 7 0 00-1-2h-1m7 34a4 4 0 000-1 4 4 0 00-1-3l-1-1m0 1c0-2-1-3-3-4m-4 3l-2-1a16 16 0 01-4-10c0-5 2-9 4-10m-57 84l2-2 1-1 2-1 3-1h1l3-1 4-1m-30 20a17 17 0 01-7 6 18 18 0 01-8-6"/>
    <path stroke-linecap="round" d="M314 333a10 10 0 01-2 4"/>
    <path d="M315 331l-1 2m-2 4l-1 1-2 1h-2m-5-177v-3c0-4-3-6-4-10v-6l5-1c4 2 9 6 17 7-8-1-13-5-17-6h-5c-2 2-1 4 0 6 1 4 4 6 4 10l-1 3m19-14c8 0 15-6 17-6 2-1 3-1 5 1-2-2-3-1-5-1-4 2-9 6-17 6m80 113a16 16 0 01-7-12c0-4 2-9 4-10m-70 97c-1 2-4 5-8 7a18 18 0 01-7-7"/>
    <path stroke-linecap="round" d="M307 164l2-2 3 1v2"/>
    <path d="M295 169l13-5m32 164l1 1v1c1 1 0 2-2 2-1 1-3 0-3-2m-42-161c6-1 10-4 14-5m97 106h-3l-1-1a21 21 0 01-9-9 19 19 0 01-2-4 12 12 0 010-4 26 26 0 015-15c1-2 2-3 4-3m-144-39a7 7 0 013 6c0 3-3 8-9 10a8 8 0 01-6-1"/>
    <path d="M256 206c1 0 2 1 2 3l-2 4a12 12 0 01-9 4l-6-2a9 9 0 01-4-5"/>
    <path d="M256 212l2 5c0 3-1 5-4 7l-2 1m130-22v4m-1-5v5m1-15v6m-1-8v9m-2 82a19 19 0 01-4 6 20 20 0 01-5 4 25 25 0 01-7 2 33 33 0 01-7 1h-6l-7-1h-6a28 28 0 00-11 1l-6 4a22 22 0 00-6-4 22 22 0 00-5-1h-12l-7 1h-6a33 33 0 01-13-3 20 20 0 01-7-5m42 54l2-1m31-2h1l2-1 1-1 2-2h0l1-2v-1m47-136c0-3-1-6-3-6m-132 47a8 8 0 01-4 4m4-46a7 7 0 01-4 4c-2 1-4 0-5-1"/>
    <path stroke-linecap="round" d="M244 202c1 1 3 0 3-2a3 3 0 00-3-2"/>
    <path d="M250 287h3c1-1 0-3-1-4a5 5 0 00-5-1l-3 2-1 2-1 2c-2 6 0 12 4 16"/>
    <path stroke-linecap="round" d="M340 328l1 1v1l-2 2c-2 0-3-1-3-2"/>
    <path d="M389 155a7 7 0 017 7c0 4-2 6-4 9-3 3-11 10-11 17 0 4 1 7 4 8s5 0 6-1c2-2 1-6-1-7-4-1-4 5-1 4m18 69a4 4 0 00-4-3 4 4 0 00-3 4l1 3"/>
    <path d="M384 195a7 7 0 00-3 6c0 3 3 8 9 10l6-1m-156-10a9 9 0 00-4 4 17 17 0 00-3 12 16 16 0 003 6 8 8 0 001 1l1 1m64 92c5 2 8 4 11 9a10 10 0 011 5c0 2-1 5-3 7a8 8 0 01-7 2l-4-2m-46-113c3 2 4 4 4 8a8 8 0 01-4 7"/>
    <path stroke-linecap="round" d="M252 236c4 6 6 9 6 15 0 5-2 9-5 13"/>
    <path d="M330 169a4 4 0 001-2v-4l1 4-2 2m52 87v18a34 34 0 01-1 2M381 254v22m0-42v14m1-13v11m0-26v8m-1-9v11m1-19v3m-1-4v5m-1 65l-1 1a19 19 0 01-4 6 20 20 0 01-6 4 25 25 0 01-6 2l-7 1-6-1h-7l-6-1-6 1a22 22 0 00-5 1l-6 4-6-4a22 22 0 00-6-1l-5-1-6 1h-7l-6 1a33 33 0 01-14-3 20 20 0 01-5-5 22 22 0 01-3-2m-2-4a10 10 0 01-2 8c-1 1-3 3-5 3-4 0-5-3-5-3"/>
    <path d="M256 279l1 2c2 2 1 5 0 7a4 4 0 010 0m-20 18c2 2 5 5 11 7 7 3 18 4 25 4 10 0 20 1 25 7m18-4a12 12 0 014 6m-8 11a8 8 0 010 1 8 8 0 01-7 2c-2 0-4-2-4-3m-6-3l1 1a8 8 0 005 2m27 0a18 18 0 01-8 6 18 18 0 01-7-6h-1m16 0l1 1a8 8 0 006 2 6 6 0 004-3l1-1"/>
    <path d="M339 337l-1 1-1 1-2 1h-1"/>
    <path d="M343 325a8 8 0 012 3l1 2a6 6 0 01-2 5 8 8 0 01-5 2 6 6 0 010 0m0 0a7 7 0 01-5-2m63-68a24 24 0 01-4-7 19 19 0 01-2-4 12 12 0 01-1-3 26 26 0 015-16l2-2m-1-76c2 0 5 3 5 6 0 4-2 5-5 9-2 3-10 9-10 15l1 2m-3 4a7 7 0 002 1 5 5 0 004 0m-21-43a6 6 0 012 3c2 4-2 7-6 10a21 21 0 01-8 3"/>
    <path d="M365 162a4 4 0 01-3-2 3 3 0 01-1-1m-15 5a5 5 0 01-1-1c-1-1-2-2-1-4 0-2 4-8 4-11 0-6-2-9-6-11"/>
    <path stroke-linecap="round" d="M347 147v4l-1 3-1 2-1 1-1 2v2m38 126l1 1c1 1 3 3 5 3 4 0 5-3 5-3 1-3 0-4-2-5h-2"/>
    <path d="M237 274a7 7 0 01-4 0c-3-1-5-3-4-7m14-31v1c1 3-3 4-5 4a6 6 0 01-3-3 5 5 0 01-1-2m22-23l2 1m-1-8l1 1"/>
    <path stroke-linecap="round" d="M258 211a9 9 0 01-2 2 12 12 0 01-9 4c-2 0-4 0-6-2a10 10 0 01-4-5"/>
    <path d="M255 195a8 8 0 013 4"/>
    <path stroke-linecap="round" d="M258 203c-1 3-4 7-9 8-2 1-5 0-6-1"/>
    <path d="M240 203c0 2 2 4 5 4 5 0 8-7 4-11"/>
    <path stroke-linecap="round" d="M229 226l3 2a17 17 0 006 3m5 1c4-1 7-4 6-8 0-2-3-5-5-5"/>
    <path d="M250 188c2 0 3 2 3 3"/>
    <path stroke-linecap="round" d="M249 163a12 12 0 005 6m145 31c1 2 0 7-4 7a5 5 0 01-5-3"/>
    <path d="M382 169v16"/>
    <path stroke-linecap="round" d="M244 202c1 1 3 0 2-2 0-1-2-3-4-1-3 2-2 8 3 8s7-7 3-12c-4-4-11-3-16 0a21 21 0 00-7 12 23 23 0 000 9 21 21 0 003 8l1 1 2 2a15 15 0 0011 4c4 0 7-3 7-7-1-4-5-6-7-4-2 1-2 5 1 6 1 0 3-2 2-3m129-72c3-1 5-1 6 1a10 10 0 012 7 9 9 0 01-4 6"/>
    <path stroke-linecap="round" d="M381 152c3-2 6-1 8 2 1 2 2 3 1 6a11 11 0 01-5 9"/>
    <path d="M395 159c3 0 5 3 5 5 0 4-1 6-4 10-3 3-11 9-11 14 0 2 2 4 4 4"/>
    <path stroke-linecap="round" d="M395 202c-1 1-3 0-2-2 0-1 2-3 5-1 2 2 2 8-4 8-4 0-8-7-3-12 4-4 12-4 16 0 2 2 6 6 7 12 1 7 1 16-6 21-3 2-7 3-11 3s-7-3-6-7c0-4 4-6 6-4 3 1 3 5 0 6-2 0-4-2-2-3"/>
    <path d="M393 200c1-4 4-4 6-4 7 0 11 8 11 16 0 9-4 15-11 15-2 0-5-1-5-3"/>
    <path stroke-linecap="square" d="M397 198c7 2 9 8 9 14 0 5 0 12-10 14"/>
    <path d="M408 265a4 4 0 10-6 3"/>
    <path stroke-linecap="round" d="M394 259c2 2 3 4 7 6m-2 11c-3-2-9-5-15-2a8 8 0 00-4 4 10 10 0 002 10l5 2c4 0 5-2 5-3 0-3-2-4-2-4l-4 1 1 2"/>
    <path stroke-linecap="round" d="M341 328c1 3-1 4-2 4-2 0-3-2-4-3a4 4 0 015-5c2 0 4 2 5 4v2a6 6 0 01-1 4 8 8 0 01-5 3c-5 0-8-4-8-8 0-8 11-12 16-13a84 84 0 0118-3h10l9-1a27 27 0 0013-7l6-8a17 17 0 00-2-14 14 14 0 00-10-7c-4 0-7 1-9 5v6a6 6 0 005 3c4 0 5-2 5-3 0-3-2-4-2-4l-4 1 1 2"/>
    <path stroke-linecap="round" d="M337 316c-5 2-8 4-11 9a10 10 0 00-1 5c0 2 1 5 3 7a8 8 0 007 2l4-2"/>
    <path d="M385 224c-2 1-4 4-4 8a8 8 0 004 7"/>
    <path stroke-linecap="round" d="M388 236c-4 6-7 9-7 15 0 5 2 9 5 13"/>
    <path d="M366 152h0c2-3 5-4 7-2 3 2 3 5 3 9l-4 6"/>
    <path stroke-linecap="round" d="M265 151c-2-1-5-1-6 1a9 9 0 00-2 7l4 6"/>
    <path d="M259 152a6 6 0 00-9 2 9 9 0 00-1 6c0 4 3 7 6 9"/>
    <path d="M250 155a7 7 0 00-6 6c0 5 1 7 3 10 3 3 11 10 11 17 0 4-1 7-4 8-2 1-5 0-6-1-2-2-1-6 1-7 4-1 4 5 1 4"/>
    <path d="M244 159c-2 0-5 2-5 5 0 4 2 6 5 10 2 3 10 9 9 14 1 2-1 5-2 4"/>
    <path stroke-linecap="round" d="M238 236c1-3 4-2 5 0 0 4-3 5-6 4a4 4 0 01-2-2 5 5 0 010-3 5 5 0 010-2 5 5 0 012-1l3-1c6 0 10 7 12 14v12a22 22 0 01-5 11 26 26 0 01-10 6 7 7 0 01-4 0c-3-1-5-4-4-7 2-3 6-4 8-1v2l-1 2c-1 1-3 1-3-2"/>
    <path d="M234 270h3l2-1c2-1 5-4 8-9a19 19 0 002-4v-4a26 26 0 00-5-15c-1-2-2-3-4-3m-9 31a4 4 0 116 3"/>
    <path d="M232 261a4 4 0 014-3 4 4 0 013 4 4 4 0 01-1 3"/>
    <path d="M239 261a16 16 0 007-12c0-4-2-8-4-10"/>
    <path stroke-linecap="round" d="M245 259a17 17 0 01-7 6"/>
    <path d="M255 274c-1-3-3-4-6-4l-8 2a19 19 0 00-11 17 25 25 0 002 10c1 1 3 9 15 14a86 86 0 0026 3c10 1 20 1 25 8"/>
    <path stroke-linecap="round" d="M240 276c3-2 9-5 15-2a8 8 0 014 4 10 10 0 01-2 10c-1 1-2 2-5 2-4 0-4-2-5-3 0-3 2-4 2-4l4 1-1 2"/>
    <path d="M253 286l-1-4a5 5 0 00-6-1l-3 3-1 1-1 3c-2 7 2 14 7 17 4 3 9 4 14 4l7 1h9a70 70 0 018 0l7 1 6 1h3l9 5 3 1 1 1 5 7v2c0 1-2 4-6 5"/>
    <path d="M299 328c-1 3 0 4 1 4 2 0 4-2 4-3a4 4 0 00-5-5 6 6 0 00-5 4 7 7 0 000 2 6 6 0 001 4 8 8 0 006 3c4 0 7-4 7-8 0-8-11-12-16-13a84 84 0 00-18-3h-10l-9-1a27 27 0 01-12-7 17 17 0 01-5-22 14 14 0 0110-7c4 0 7 1 9 5v6a6 6 0 01-5 3c-3 0-4-2-4-3-1-3 1-4 2-4l3 1-1 2"/>
    <path stroke-linecap="round" d="M273 152h0c-2-3-5-4-7-2-3 2-3 5-2 9a9 9 0 004 6"/>
    <path d="M367 160c-4 4-8 5-14 6-2 0-6-1-8-3-1 0-3-2-2-5 1-2 4-7 4-11 0-6-2-9-5-10-7-2-13 4-17 6h-11c-4-2-10-8-17-6-3 1-5 4-5 10 0 4 3 9 4 11 1 3-1 5-2 6l-7 2c-6-1-11-2-15-6"/>
    <path stroke-linecap="round" d="M297 314l6 2a22 22 0 0111 9 11 11 0 011 8"/>
    <path d="M298 336a8 8 0 003 1c4 0 7-4 7-8 0-3-1-5-3-7"/>
    <path stroke-linecap="round" d="M299 328c-1 3 0 4 1 4 3 0 4-1 4-3a5 5 0 00-2-4"/>
    <path d="M390 155c3 0 6 3 6 7s-2 7-4 9l-4 5"/>
    <path stroke-linecap="round" d="M386 151a9 9 0 013 3l2 6c0 4-3 7-6 9m-5-18l1 1c2 2 2 5 1 7a8 8 0 01-4 6m-5-15c3 2 4 6 3 9s-2 4-4 5m11 42l1 2a14 14 0 007 3c2 1 4 0 6-1m-163 54l3 2 1 2-1 2c-2 1-4 1-4-2"/>
    <path d="M242 231c5 1 9 7 11 14v12a22 22 0 01-6 11 17 17 0 01-2 2l-1 1m-8-13c2 0 4 2 4 4a4 4 0 01-1 3"/>
    <path d="M235 261c2 0 4 2 4 4a4 4 0 01-2 3"/>
    <path stroke-linecap="round" d="M254 240a18 18 0 014 7m0 9a17 17 0 01-2 4 18 18 0 01-3 4"/>
    <path d="M254 224l4 5"/>
    <path stroke-linecap="round" d="M258 220a10 10 0 01-4 4m-9-17l2-1 2-1 1-1v-2l1-1"/>
    <path d="M241 199l-2 1a9 9 0 00-4 3 17 17 0 00-2 13 16 16 0 002 5l1 2 5 2"/>
    <path stroke-linecap="round" d="M253 190c0 1-1 3-3 3"/>
    <path d="M246 199c-2-2-6-3-10 0l-2 1a9 9 0 00-1 2 18 18 0 00-3 5v9l2 6c1 1 3 5 8 5 2 0 5-1 5-3"/>
    <path stroke-linecap="round" d="M364 157c0-2 2-2 3-1 1 2 0 4-2 5a4 4 0 01-4-1v-4l1-3c3-2 7-1 9 2 2 5-2 8-6 11-5 3-10 3-14 3-9 0-16-4-21-7l-3 1a2 2 0 001 2"/>
    <path stroke-linecap="round" d="M366 156h1c1 2 0 4-2 5m18 52c-4 4 0 10 2 12h2"/>
    <path d="M383 205l-1 4a5 5 0 001 4 14 14 0 009 3l6-1a9 9 0 004-6m-21 62v3a19 19 0 01-2 7 19 19 0 01-4 5 20 20 0 01-6 4 25 25 0 01-7 3 44 44 0 01-13 0l-7-1h-5a28 28 0 00-11 2l-6 4-7-4a22 22 0 00-5-2h-11l-7 1h-6a33 33 0 01-7 0 25 25 0 01-7-3 20 20 0 01-6-4 19 19 0 01-4-6 19 19 0 01-2-6V169h123v102z"/>
    <g fill="#c7b37f" stroke="none">
      <path d="M248 286a3 3 0 115 0 3 3 0 01-5 0zm-15-18l1-2 2 2-2 2-1-2zM241 224l2-2 2 2-2 1-2-1zm31-66l1-2 2 2-1 2-2-2z"/>
    </g>
    <g stroke="#c7b37f" stroke-linecap="round">
      <path d="M239 234v1h-1v2m4 26l1-1 1-1 1-1v-1m-1 14l-2 1h-1a17 17 0 00-1 1l-1 1m15-38l-1-1h-1l-1-1"/>
      <path stroke-linecap="butt" d="M254 225l-1 1a5 5 0 01-1 0"/>
      <path d="M237 208l1 2 1 2a8 8 0 002 2l2 1m-1-6l1 1a7 7 0 003 0h2m7-40l-2-2-2-1a9 9 0 01-1-1l-1-2m8-4v1a8 8 0 002 2l3 3m1-6l1 1v1l2 2 2 1"/>
    </g>
    <path fill="#703d29" d="M333 152c0-2-1-2-2-2l-5 2a12 12 0 01-6 2 12 12 0 01-7-2l-5-2a2 2 0 00-2 2v1l1-1a2 2 0 012-1l4 2c3 2 5 2 7 2a12 12 0 007-2l5-2 1 1v0z" stroke="none"/>
  </g>
  <g fill="#703d29">
    <path d="M264 294l1-1h-1l-1-1v2a4 4 0 010 1l-3 3v-6h1v-1h-3s0-1 0 0v8l1 1 5-6zM268 295l1-1h-2l-1-1h-1c0 1 2 1 1 2l-1 5-2 1 2 1h2s-2 0-1-1l2-6zm3 1h1l1 2c0 1 0 2-2 1h-1l1-3zm-3 5c0 2-1 1-1 1v1h3l-1-1 1-2h2v2l1 2h1-1v-4h1a2 2 0 001-2s0-2-2-3h-2l-2-1 1 2-2 5zm9 3l-2 1h2l1 1h1l-1-2 1-5 1-1h1l1 2v-2l-3-1-3-1v1l-1 1c1 1 1-1 2-1h1v1l-1 6zm12-4h1v-1h-2l1 1-1 2-2 3-1-4a5 5 0 010-2h0l-1-1h-1-1 1v1l2 8 4-7zm1 7v1h2c1 1 3 0 3-2l-2-3-1-2 1-1c2 1 2 3 2 3v-2l-2-1-2 2c-1 1 0 2 1 2l2 3-2 1-2-3v2zm16-4l1-1h-3l1 1v1l-2 4-1-4a5 5 0 01-1-2l1-1h-3l1 1 2 7v1l4-7z"/>
    <path d="M308 309l-1 1h3c0-1-2 0-2-2v-4l6 6v-7l1-1h-3l2 1v4l-1 1v-1l-4-5h-3s2 0 2 2v5zm10-6l1-1h-3l1 1v6l-1 1h3l-1-1v-6zm5 6l-2 1h4l-1-2v-5-1h1c2 0 1 2 2 2v-2h-7v2l1-2h1v7zm6-3h-1 1v-3 1l1 2h0-1zm2 1v1l1 1-1 1h3v-1h-1l-3-7v-1l-1 1-2 7-1 1h3l-1-1v-1l1-1h2zm8-5l1-1 2 1v-2h-3l-2 1h-1l2 1v7h2l1-1c0-1-1 1-1-1l-1-1 1-1c2-1 1 1 2 1v-3h-1l-1 1-1-1v-1zm4 3c0 2 2 3 4 3 4-1 4-4 3-5 0-3-2-4-4-4-3 1-4 3-3 6zm1-1c0-2 0-4 2-4 1 0 3 1 3 3s0 4-2 4c-2 1-3-2-3-3zm8-4l1-1c1-1 2 0 2 1l-1 2h-1l-1-2zm0 5v2h2l1-1-1-1-1-2h2l1 2 2 1 1-1h-1l-2-3v-1-1c0-1 0-2-3-2l-2 1h-1l1 1 1 5zm9-2l-1 2h2l2-1-2-1-1-5v-1h1c1-1 1 1 2 1v-1l-1-1-3 1h-3v3l1-2 1-1 1 1 1 5zm6-7v-1h-3l1 1 2 6-1 1h3l1-1c-1 0-2 1-2-1l-1-5zm2 3c1 2 2 3 5 2s3-4 2-5c-1-3-3-4-5-3s-3 3-2 6zm1-1c-1-2-1-4 1-4 1-1 3 0 4 2l-1 5c-2 0-4-2-4-4zm7-6l1-1 2 1c0 1 1 2-1 2h-1l-1-2zm1 6v1c0 1 0 0 0 0h3v-1h-1l-1-2v-1h1l2 2h2l1-1h-1v1l-3-3v-1a2 2 0 000-1c0-1-1-2-3-2l-2 1-1 1 1 1 2 5z"/>
  </g>
  <g fill="#fedf00" transform="matrix(.64 0 0 .64 0 16)">
    <path fill="#d52b1e" d="M413 249h82v82h-82z"/>
    <path id="a" fill="#fff" d="M451 314l-1 5-2 4a13 13 0 01-3 4l-6 2c-6-1-8-7-10-11-1-6-4-8-7-6v4a9 9 0 004 3l-3 4s-6-1-8-8c0-2 1-7 5-8 6-2 9 2 11 5 2 4 3 12 9 11 3-1 5-5 5-8l2-2 4 1z"/>
    <use xlink:href="#a" width="100%" height="100%" transform="matrix(-1 0 0 1 908 0)"/>
    <path d="M461 279l11-12 2-3h-3v-2l3-1v-2h-3v-2h1l2-1h1c2-3 10-6 15-1 4 4 3 11-2 13a6 6 0 01-7-1l2-4c3 2 5 0 5-2 0-3-2-4-4-5-3 0-4 1-5 3l-1 4v4a9 9 0 01-3 3l-11 12-43 47-3-3 43-47z"/>
    <path fill="#fff" d="M430 283s2 13 11 34c5-2 8-3 13-3l12 2a171 171 0 0012-33l-24-31-25 31z"/>
    <path d="M456 262l17 22s-2 11-9 26l-8-1v-47zm-5 0l-16 22s2 11 9 26l7-1v-47z"/>
  </g>
  <g fill="#d52b1e">
    <path fill="#fedf00" d="M322 176h53v52h-53z"/>
    <path d="M330 176h7v52h-7zm15 0h7v52h-7zm15 0h8v52h-8z"/>
  </g>
  <g fill="#d52b1e" stroke="none">
    <path fill="#fedf00" d="M264 274l2 4 2 4a15 15 0 004 3 33 33 0 0015 2l7-1a71 71 0 0111 0h5l7 2v-54h-53v39z"/>
    <path d="M270 283l3 2 3 1v-52h-6zm30 3v-52h-6v52h6zm11-52h-6v52l6 1v-53zm-23 0v53h-6v-53z"/>
  </g>
  <g transform="matrix(.64 0 0 .64 0 16)">
    <path fill="#fedf00" d="M586 402a21 21 0 01-3 7l-4 6a26 26 0 01-13 7 52 52 0 01-17 2l-10-1-11-1a63 63 0 00-6 0 83 83 0 00-18 4v-86h82v59l-1 3z"/>
    <g id="b">
      <path fill="#d52b1e" d="M525 347h-1l-1 1-1 1h-1v2l-1 1-2 1h-1v2l1 1v1h1l2 1h2l1 1h2l2 1a2 2 0 000 1l1 4 1 1-2 2v3l2 2v2l1 2 1 1v-1l1-1v-1-1h1l-1-1-2-2 1-1 2-2h1l1 1h2v10h-1v1l1 1h2v-1h1v-1-2a12 12 0 010-3v-1l1-2v-3a24 24 0 0010 0l3 1v2h1v-1h2v1h1v-2h1a5 5 0 010 1v1l-1 1-1 2-1 1-1 1-2 1v1l1 1h2v-1h1l1-1 1-1a13 13 0 013-4l1-1 1-1v-2l1 1v8a4 4 0 01-1 2h-1v1l1 1h2v-2h1v-1l1-4v-2l1-2-1-4-1-1v-3a43 43 0 010-3l3-2a3 3 0 000-2v-2a3 3 0 00-1-1l-3-1-4-1h-4l-5 1h-11l-6 1a67 67 0 01-4 0l-2-1h1l1-2 1-1a2 2 0 00-1 0h-1a3 3 0 00-1 0l-1 1-2-1a9 9 0 00-3-1zm2 12z"/>
      <g fill="none" stroke="#fedf00" stroke-linecap="round">
        <path d="M569 360h-4c-2 1-4-1-7-1l-3 2a9 9 0 01-2 0l1-1-2 1a8 8 0 01-2-1l1-1h-1a4 4 0 01-1-1 21 21 0 001 0l4-1 8 1 6-1 1-2-1-1-1-1"/>
        <path fill="#fcd900" stroke-linecap="butt" d="M525 351h-2v1h2v-1h0z"/>
        <path d="M536 364a14 14 0 001 2v4m7-7v1l-1 4v0m-11-4c1 0 0 4 2 4"/>
        <path stroke-linecap="butt" d="M560 370h1a8 8 0 002-2"/>
        <path d="M552 368l8-3m-4-1h1c1-1 1 0 2 1l5 3h0l1 1"/>
        <path fill="#fcd900" stroke-linecap="butt" d="M518 355h0l1-1 1 1s0 0 0 0 0 0 0 0v1l-1-1a1 1 0 010 0 1 1 0 01-1 0 1 1 0 010 0z"/>
      </g>
      <path fill="#0065bd" d="M525 364l-2-1h1l1-1v-2h1l1 1v4l-2-1zm-1 1a1 1 0 111 1 1 1 0 01-1-1zm-2-16v-2a4 4 0 01-1-1v-2-1h1l1 1v3h1l-1 1-1 1zm4 10l2 1a9 9 0 004-4l1-4h-2l-2 4-2 3h-1zm5 18l1-1 1-1h1a9 9 0 01-1 3v1h-1l-1-2zm33 2l1 1 2 1h-2a8 8 0 01-1 0h-1l1-2zm-10-2l2 1 1 1a9 9 0 01-3 0h-1l1-2zm-17 2l1 1 2 1a9 9 0 01-3 1h-1l-1-1 2-2zm-9-29l-1-2 1-1v-2-2l1-1v2l1 2v2a2 2 0 01-1 1 2 2 0 01-1 1z"/>
    </g>
    <use xlink:href="#b" width="100%" height="100%" y="37"/>
  </g>
  <path fill="none" stroke="#703d29" d="M264 176h53v52h-53zm58 0h53v52h-53zm-58 98l2 4 2 4a15 15 0 004 3 33 33 0 0015 2l7-1a71 71 0 0111 0h5l7 2v-54h-53v39zm111 0a13 13 0 01-2 4l-2 4a15 15 0 01-4 3l-5 1a33 33 0 01-10 1l-7-1a71 71 0 00-7 0 41 41 0 00-4 0h-5l-7 2v-54h53v40z"/>
</svg>
