<svg xmlns="http://www.w3.org/2000/svg" xmlns:xlink="http://www.w3.org/1999/xlink" id="flag-icons-af" viewBox="0 0 640 480">
  <g fill-rule="evenodd">
    <path d="M0 0h640v480H0z"/>
    <path fill="#090" d="M427 0h213v480H427z"/>
    <path fill="#bf0000" d="M213 0h214v480H213z"/>
  </g>
  <g fill="#fff" fill-rule="evenodd" stroke="#bd6b00" transform="translate(1 27) scale(1.06346)">
    <path d="M320 226h8c0 3 2 6 4 8h-16c3-2 4-5 4-8z"/>
    <path d="M267 179l4 5h57l5-5-15-1-7-5h-23l-6 5h-15z" stroke="none"/>
    <path d="M290 173h20c2-2 3-6 3-9 0-7-5-11-10-11l-2-1-1-3-1 3-2 1c-6 0-10 5-10 11 0 4 0 7 3 9z"/>
    <path d="M258 243h84l-7-6h-70l-7 6z" stroke="none"/>
    <path d="M296 220l2 4h3l-2-4h-3zm-2 4l1 5h4l-1-5h-4zm7 0l3 5h6l-5-5h-4zm-34 11c3-3 5-6 5-9h8l1 3h8v-5h-5v-24c-1-9 10-14 15-14h-27v-1h55v1h-26c8 0 16 7 16 14v7h-1v-7c0-7-9-14-16-13-6 0-16 6-15 13v2h14v2l2 2 4 1v4l4 1v4l3 1v4l3 2v4l3 2h-8l5 5h-7l-4-5h-4l2 5h-5l-2-5h-6v6h-22zm22-15v4h5l-1-4h-4z"/>
    <path fill="none" d="M289 212h4v7h-4z"/>
    <path fill="none" d="M285 220h3v-6c0-2 2-5 3-5s3 3 3 5v6h3v-15h-12v15zm25 3h4v3h-4zm-2-5h4v3h-4zm-4-6h4v4h-4zm-3-4h4v3h-4z"/>
    <path fill="none" d="M298 220h4l7 6v-3l-2-2v-3l-4-2v-4l-3-1v-4l-2-1v14z"/>
    <path d="M315 210h1v7h-1z"/>
    <g id="a">
      <path d="M257 187c-1-2-2 2-7 6-3 1-4 6-4 9v5c-1 1-2 4-1 5l6 7c2 1 3-6 3-8 1-3 1-7 4-10l6-5-7-9z"/>
      <path fill="#bf0000" d="M257 202a10 10 0 00-2-3 6 6 0 00-2-1 5 5 0 01-2-2 4 4 0 01-1-1 6 6 0 010-2h-1c-2 1-4 6-4 9a29 29 0 000 2l1 1 1 1 3 1a7 7 0 012 2 11 11 0 012 2v-1l3-8z"/>
      <path fill="none" d="M250 192c-1 4 1 5 3 6 2 0 3 2 4 4m-12 1c1 3 3 3 5 4 2 0 4 3 4 4"/>
      <path d="M256 185l1-1 17 30h-1l-17-30z"/>
      <path d="M258 183a2 2 0 11-4 0 2 2 0 114 0zm15-24h7v2h-7zm0 3h7v14h-7zm-1-5h8c1-2-2-5-4-5-1 0-4 3-4 5z"/>
      <path fill="#bd6b00" stroke="none" d="M293 156c-2 0-3 2-4 4v8h1l1-1v-5a8 8 0 013-5 1 1 0 000-1h-1zm0 0h1v1a8 8 0 00-3 5 17 17 0 00-1 5 1 1 0 010 1l-1-1a4 4 0 010-1l1-6c0-2 2-3 3-4z"/>
      <path fill="#bd6b00" stroke="none" d="M295 158l-3 4a14 14 0 000 6l1 2 1-1 1-1-1-5 2-4 1-1h-2zm0 0h1v1a7 7 0 00-2 4v6l-2-1 1-6 2-4z"/>
      <path d="M272 187h8v11h-8zm1 18h8v2h-8zm0 4h8v9h-8zm-1 10h9v5h-9zm1-16h7l2-3h-10l1 3zm10-9v-6h4a17 17 0 00-4 6z"/>
      <path fill="none" d="M274 197h1v-6h3v6h1v-7c0-2-5-2-5 0v7zm0 13h5v7h-5z"/>
      <path d="M277 213h2v1h-2zm-3 0h2v1h-2zm2-3h1v3h-1zm0 4h1v3h-1zm-32-75c0 6-1 9-4 8-1-3 1-5 4-8zm-6 12c-3-1-1-11 0-15 1 5 2 13 0 15z"/>
      <path d="M238 152c5 1 8-3 10-9-4 5-10 5-9 9zm-3 5c-3-1-1-12-1-16 1 4 4 14 1 16zm1 0c0-4 4-3 7-5-1 2-2 5-7 5zm-4 5c-3-1-1-13-2-18 2 4 5 16 2 18zm2-1c2 1 6-1 6-4-2 1-6 0-6 4z"/>
      <path d="M230 167c-4 0-2-10-2-19 1 8 4 16 1 19zM231 166c2 1 6 0 7-4-4 2-7 0-7 4zm25-22c0 5-2 8-5 7-1-3 1-5 5-7zm-7 13c4 0 6-3 10-8-5 3-11 4-10 8z"/>
      <path d="M247 156c-3-3 0-7 2-11 0 5 1 8-2 11zm-1 5c0-3 5-4 7-5 0 2-2 6-7 5z"/>
      <path d="M245 161c-4 0-2-6 0-10-1 5 2 8 0 10z"/>
      <path d="M242 167c-4-2-1-8 0-11-1 4 3 7 0 10zM243 166c2 3 6-1 7-5-3 3-6 2-7 5zm-10 20c0-4 3-12 1-16-1 0 0-2 1-1s2 6 3 4c0-2 0-5 2-5 1 0 2-1 2 1l-1 3 4-3c1 0 2 1 1 2-5 4-10 6-13 15zm-8 65h-1c6 7 7 9 16 8 8-1 10-3 16-6a15 15 0 0111-1c2 0 3 0 1-1l-4-4a18 18 0 00-12-3l-18 7a25 25 0 01-9 0zm47 12c1 1 2 3 3 1l-1-4-2 3z"/>
      <path stroke="none" d="M221 183c-2-1-1-2 1-2h5l1-5c0-1 1-2 2 0 4 6 8 13 10 20 1 3 0 9-3 13 0-3-2-5-3-8l-13-18z"/>
      <path d="M236 213c4 0 4-5 4-6-2 0-5 3-5 6zm34 52c3 1 3-6 0-9 1 5-2 9 0 9zm-1 0c0 3-8 0-10-3 5 2 10 1 10 3zm-4-4c1 3-7 0-9-3 5 2 9 0 9 2zm2 0c3 1 2-6-1-9 2 5-2 8 1 9zm-3-4c3 0 1-6-1-8 0 4-1 7 1 8zm-2 0c0 3-5 0-7-3 4 2 7 0 7 3zm-1-3c1-1 0-5-4-4 0 2 2 5 4 4zm14 15c0 3-8 1-11-2 5 1 10-1 11 2zm-33-6c1 3-8 0-11-3 5 1 11 0 11 3zm6 1c2-1-2-4-5-5 0 2 3 7 5 5zm0 3c0 3-9 1-12-2 9 2 12-1 12 2z"/>
      <path d="M253 269c1 2-8 2-12 0 6 0 11-2 12 0z"/>
      <path d="M257 271c1 2-7 2-12 1 6 0 11-4 12-1zm6 1c2 3-7 3-10 2 5-1 9-4 10-2zm-10-5c-3 2-3-4-5-7 3 3 7 5 5 7z"/>
      <path d="M258 269c-3 2-5-5-7-9 4 4 9 7 7 9zm7 2c-2 2-8-7-11-12 4 4 12 10 11 12zm-6 7c-1 4-16-3-18-7 9 5 18 4 18 7zm-49-74l-1 1c0 2 3 10 6 12s17 5 24 7c3 0 6 2 9 5a94 94 0 00-3-10c-2-3-5-6-8-6-6 0-14-1-20-3a16 16 0 01-7-6z"/>
      <path d="M246 235c2 1 4-4 1-9 0 5-4 7-2 9z"/>
      <path d="M247 240c3 0 4-4 2-8 1 4-4 6-2 8z"/>
      <path d="M250 243c2 2 3-3 1-7 0 5-4 6-2 7z"/>
      <path d="M248 244c-1 3-7-3-8-6 4 4 9 3 8 6zM246 239c-2 3-9-5-11-9 4 4 11 7 11 9z"/>
      <path d="M244 234c-1 4-9-5-12-9 5 4 13 7 12 9zm0-3c3-1 0-3-4-7 0 4 1 7 4 7z"/>
      <path d="M239 229c1-2-1-2-4-6-1 2 3 7 4 5zm14 15c2 1 3-3 1-6-1 4-2 5-1 6zm-34-21c-3 2-9-6-10-9 3 4 10 7 10 9z"/>
      <path d="M222 228c-2 2-8-3-10-6 3 2 11 3 10 6z"/>
      <path d="M225 232c-1 3-9-3-11-6 3 3 11 3 11 6z"/>
      <path d="M224 235c-2 3-9-3-10-7 4 4 11 5 10 7zm-4-12c2-2 1-3 0-7-1 4-3 5 0 7zm3 4c4 1 0-4-1-8 0 4-1 8 1 8z"/>
      <path d="M225 231c3-1 2-4 0-9 1 5-2 8 0 9zm-1 8c-1 3-8-4-10-7 4 3 11 4 10 7z"/>
      <path d="M229 244c-1 3-9-4-12-7 5 4 13 4 12 7z"/>
      <path d="M234 249c-1 4-10-3-12-6 5 4 13 3 12 6zm-8-11c2 1 3-6 2-11 0 5-5 9-2 10z"/>
      <path d="M230 243c3 0 2-7-1-11 0 4-2 9 1 11zm5 5c3 0 1-7-2-10 1 5-1 9 2 10zm-6 2c-1 2-3-1-7-3 4 1 8 2 7 3zm-1-53c3-2 0-6 0-9-1 3-4 8 0 10zm0 6c-5-1-4-6-4-10 1 5 5 6 4 10zm0-1c4 0 4-4 4-8-2 3-4 4-4 8z"/>
      <path d="M228 207c-3 1-4-2-5-7 3 4 5 3 5 7zm1 0c4 1 3-4 3-7-1 3-4 4-3 7z"/>
      <path d="M223 205c0 3 2 8 5 7 1-4-2-4-5-7zM229 212c-1-2 3-4 4-7 0 5 0 8-4 7zm-12-29c2-3 0-7 0-10-1 3-3 8 0 10zm0 4c-4 1-5-7-5-11 1 5 6 7 5 11zm1 0c3-1 2-4 3-7-2 3-4 4-3 7z"/>
      <path d="M217 193c-4 0-7-9-7-13 1 5 8 8 7 13zm1 0c4-1 3-4 3-8-1 4-4 3-3 8z"/>
      <path d="M217 198c-5 1-4-7-8-12 3 4 9 9 8 12zm1 0c4 0 4-5 4-8-1 3-5 5-4 8z"/>
      <path d="M210 192c2 6 4 12 7 11 2-3-3-3-7-11z"/>
      <path d="M218 202c-1-2 3-3 4-6 0 4 0 7-4 6zm-7-3c3 5 4 11 7 10 1-4-4-5-7-10z"/>
      <path d="M219 208c-2-3 2-4 3-7 1 4 1 8-3 7zm7-34c2 0 5-3 4-7-3 1-4 4-4 7zm-8-3c0 2 2 2 1 0a5 5 0 010-3 8 8 0 000-5h-1v8zm23 16c-1 2-3 1-2-1l3-4 3-7c1-1 2 1 1 2l-2 5c0 2-2 4-3 5zm-3-2c-1 1-3 1-2-2l2-4 4-4c1-1 2 0 1 1a27 27 0 00-3 4c-2 2-1 4-2 5zm-16-7c0 2 2 2 2 0 0-3-3-6-1-11v-8c0-2-2-1-1 1l-1 7c-1 6 1 8 1 11zm4-11c0 2-1 2-1-1v-5-7c1-2 2-1 2 0a10 10 0 00-1 6v7zm-15 37c1 1 2 0 1-1l-1-2-2-3h-1l1 3 2 3zm20 25a9 9 0 015 6 16 16 0 002 7c-2 0-3-3-4-6 0-4-2-5-3-7zm5 5l5 7 1 5c-2 0-3 0-3-4l-3-7z"/>
      <path stroke="none" d="M289 263c1 2 2 5 4 4l-4-4zm3 1c4 2 7 1 8 4-4 0-5-1-8-4zm-16-13a14 14 0 015 8 29 29 0 003 8 13 13 0 01-5-8l-3-8zm3 0c3 2 5 5 6 8l3 8c-3-2-4-5-5-8 0-3-2-5-4-8zm9 8a1 1 0 011-2 33 33 0 012 0h2v2l-1 1-2 1h-1l-1-2zm11 0l-1-2a5 5 0 00-2 0l-1 1v3h4v-2z"/>
    </g>
    <use xlink:href="#a" width="100%" height="100%" x="-600" transform="scale(-1 1)"/>
    <g stroke="none">
      <path d="M329 287l1 3a19 19 0 00-14 1c-2 1-4-1-2-3 3-2 10-1 15-1zm-58 0a7 7 0 010 3c4-2 9-1 13 1 3 2 4-1 3-1a7 7 0 00-5-3h-11zm4-22c-1-1-3 0-4 1-4 5-10 9-14 12-1 1-3 4 4 6l8 2 1 2-1 3c-2 1 0 2 1 1 3-3 9-1 15 1 1 0 4 0 4-2l2-4 18 1c2-1 2 2 3 4h6c4-2 10-2 12 0 1 0 2 0 1-1l-1-2c-1-2 0-3 1-3 11-1 15-5 11-8l-13-12c-1-2-2-2-4-1a67 67 0 01-26 6 76 76 0 01-24-6z"/>
      <path fill="#bd6b00" d="M327 266h-2c-9 3-17 5-26 5-8 0-17-2-25-5a2 2 0 00-1 0h-1a116 116 0 01-12 11v2c9 3 17 8 40 8s32-5 39-8l1-1a1 1 0 001-1 2 2 0 00-1-1c-4-3-9-6-12-10h-1zm0 0h1c3 5 7 7 12 11v1l-1 1c-8 2-16 8-39 8s-31-6-39-9l-1-1 12-10a3 3 0 011-1h1a68 68 0 0025 6c9 0 17-3 26-6a7 7 0 012 0z"/>
      <path d="M270 115c0-2 2-2 1 0 0 2 5 8 5 12 1 3-1 5-3 6a7 7 0 01-7 1l-1-5c1 0 2 4 4 4 3 0 6-3 6-5 0-4-5-10-5-13zm9 9c1 0 2 1 1 2l-1-2zm2-3l-1-1a12 12 0 014-3v1a11 11 0 01-3 3zm12-10l3-2c0-1 1 0 0 0l-2 2h-1zm5 0a8 8 0 012-4l1 1a9 9 0 01-3 3zm-4 2v1h2v-1l-2 1zm-7 6c-2-1 0-2 1-1 3 2-4 9-7 13-1 1-2-1-1-2a34 34 0 007-7v-3zm15-7s-2 1-2-1h3c1 1 0 3-2 4-2 0-5 2-4 3l8 1c2-1 1 1-1 1l-4 1c-2 0-3 3-4 4l-1-1 4-4-4-1v-2c0-1 3-4 5-4h2zm5 1l1-2 1 1-1 1h-1zm6-3l1 2-1-2zm-2 5c0 2 1 2 2 2l3-1-1-2-1 2h-1l-1-1-1 1zm-9 8l1 4 5-6h1v7c1 1 3-1 4-1v-7l1-1a76 76 0 000 8c0 1 3 2 3-1v-5c-1-2 1-1 2 0v5c0 2-2 4-3 4l-3-2-3 2c-4 0-2-5-3-5s-3 5-4 4c-1 0-3-4-2-5 0-2 1-2 1-1zm17-8c-2-1 0-4 1-3l4 7 1-5c1-2 2-1 2 0l-2 7a47 47 0 013 8h-1l-2-6-2 7c0 2-2 1-1 0l2-9a17 17 0 00-5-6z"/>
      <path d="M322 131s-1 1 1 2c3 0 7-1 8-4l3-8 1-4c-1-2-2-1-2 0l-3 11c-2 3-4 4-8 3z"/>
      <path d="M328 119l-1 1a1 1 0 002 1l2-1-1-1h-2zm1-3v1a7 7 0 004-1h-1-3zm9 2c1-1 3-1 2 1a614 614 0 01-6 12h-1l5-13z"/>
      <path d="M330 133c0-1-1-2-1 0 0 4 5 3 7 1s0 5 2 5c1 1 3-1 4-2 3-3 5-9 7-12 1-1 0-2-1-1-2 4-5 11-8 13s-2-2-2-3-1-2-2-1a6 6 0 01-4 1l-2-1z"/>
      <path d="M340 126l-1 1 1 1v-2zm-3 4l1 2 3-1c1 0 1-1 0 0h-4zm-62-16l2 2-2-1v-1zm-5 10c-1 1 0 2 1 1 3-1 7-3 8-7l3-4c1 0 2 2 3 0h3l1-3h-2v2h-1v-1h-1c-1 1-1 2-2 1s-2-3-2 0l-3 2c-1 0-1-3-3-2l-1 3 4 1c-1 3-5 6-8 7zm-23 13l1 2 1-2h-2zm4 5c-1 0-2 1-1 2h3v-6l4 3c3 0 2-5 5-4 2 0 2-2 2-4l-4-5c-1-1-2 1-1 2l4 4-2 2-4-5c-1 0-2 0-1 1l3 4-2 3-4-4-1 1a22 22 0 000 5c0 2-1 2-1 1zm-4-8l1 1 1-3-3-2c0 2 3 2 2 2a7 7 0 00-1 2zm4-9s1 3 1 2c1-1-1-2-1-2zm1 4l-1 1h3c0-1 3 0 2-3a4 4 0 00-2-1s-1 0 0 0l1 2h-2v2l-1-1zm5-9a4 4 0 00-1 2h1a3 3 0 001-2h-1zm3 0c-1-1 1-3 2-1l6 10c1 2 0 2-1 1l-7-10zm5 0l3-4-2-1v1l-1 3v1zm78 3c-1-1 1-3 2-2 2 3 3 11 4 18l-1 1c0-4-2-15-5-17zm-53-9c-1-2 1-2 1-1l7 14c1 1 0 2-1 1l-3-4c-1 0-4 5-9 3-2 0-2-4-2-6h1c0 2 0 5 2 6 2 0 6-3 7-5s-2-6-3-8z"/>
      <path d="M345 138l7-12c0-1 2 1 0 3-2 1-6 8-6 10-1 1-2 1-1-1z"/>
      <path d="M354 129c1-4 4 1 2 3-4 4-5 10-10 11l-5-1s0-2 1-1h6a25 25 0 006-12zm-57 13l-1 1v3l-1 1v-5l2-1v1z"/>
      <path d="M297 140l-5 4-1 2-1 1-1-1-2 2-1-2c2 0 2-2 3-2l2 1 1-2 4-4c1-1 1 0 1 1zm5 5l-1 2 2-1c0-1 0 3 2 1 1-1 3 1 4-1v-2h-1l-1 2v-2a1 1 0 00-1 0l-1 2-1-1h-2zm9-3l2-1v1l-1 1v4h-1v-4-1zm-5-2v2h1v-2l-1-1z"/>
      <path d="M300 130l-2 6-2-4v4l-4-5 1 5-4-3 2 4-7-5 5 5-6-2 4 3-9-3 9 4a29 29 0 0112-3c5 0 10 1 13 3l9-4-9 3 4-3-6 2 5-5-7 5 2-4-4 3 1-5-4 5v-4l-2 4-1-6z"/>
    </g>
  </g>
  <path fill="#fff" d="M311 295v3-2a9 9 0 00-1-2 7 7 0 000-1l-1-2v-2a7 7 0 012 3 9 9 0 010 3m7-4v1l-1 1v1a7 7 0 010 2 23 23 0 010 2h-1a8 8 0 000-2 6 6 0 000-1v-1a11 11 0 00-1-1l-1-2 1-2 1 1 1 1 1-2v2m7 4l-1 3-1-1v-1a12 12 0 010-2 4 4 0 01-1 0 2 2 0 01-2 0 1 1 0 010-1l1-3 1-1 1 1a2 2 0 010 1v2l1 1 1 1m-2-3l-1-1a1 1 0 00-1 0v1h2m8 3v3l-1-2a25 25 0 01-2-5 53 53 0 01-2 6 3 3 0 010 1v-3l1-1a8 8 0 000-2l1-3 1 3 1 2 1 1"/>
  <path fill="#bf0000" d="M351 319l1 2v1h-1a8 8 0 00-1-1 19 19 0 00-1-1 46 46 0 00-2-2 34 34 0 00-2-2 2 2 0 01-1-1 11 11 0 010-1l3 2a44 44 0 012 2l2 1m-10-5v2h-3v-2h3m9 8l-8 3-1-2 6-2v-1a3 3 0 00-1-1 1 1 0 01-1 1 2 2 0 01-1 1 3 3 0 01-1 0 2 2 0 01-2-1 4 4 0 01-1-2l1-2 3 1a8 8 0 013 2l3 3m-6-4a4 4 0 00-1 0 1 1 0 00-1 0 1 1 0 000 1h1l1-1m-8-1l-1 2h-3l1-2h3m7 8h-1a5 5 0 01-2 0 4 4 0 01-2 0l-1 1a7 7 0 01-2 0l-1 1-1-2 1-1a9 9 0 001 0l1-1h-1-1v-2l2-1a7 7 0 012 0l2 1v1l-1 1h1a2 2 0 001 0h1l1 2m-8 1l-1 1a3 3 0 01-3-1 6 6 0 01-1-2l-1-3a2 2 0 00-1-1 5 5 0 00-1 0l1-2 1 1 1 2 1 1 1 2 1 1 2-1v2m-7-7l-1 2-3-1 1-2 3 1m2 8l-7 1-1-2 6-1a2 2 0 000-1 8 8 0 00-1 0v-2l2 1 1 2v2m-6 1a17 17 0 01-2 0 11 11 0 01-2 0 6 6 0 01-1 0 10 10 0 01-2 0h-2a3 3 0 01-1 0l-1-1a4 4 0 01-1 1h-4v-2h2l2-1a2 2 0 002-2v1a30 30 0 000 1v1h5l1-1v-1h1v2a12 12 0 002 0v-1h-1a1 1 0 010-1h1l1-1v5m-11-8l-2 1-2-1-1 1-2-1 2-1h3l2 1m-3 8l-8-2 1-1 6 1v-1a5 5 0 000-1l1-2 1 2v2l-1 2m-6-1l-2-1-1-1v-3l2-2v-1l2-2v1l-1 2v2a6 6 0 00-1 2l2 1-1 2m-4-8l-3 1-1-2 2-1 2 2m-1 6a7 7 0 01-2 2 4 4 0 01-1 0h-3a15 15 0 01-3 0 8 8 0 01-3-2v-3a7 7 0 012-1l4-2v1l-3 1-1 1v2a11 11 0 007 2l2-1v-1l1-2 2-1a8 8 0 010 1 4 4 0 01-1 2l-1 1"/>
</svg>
