<svg xmlns="http://www.w3.org/2000/svg" id="flag-icons-ag" viewBox="0 0 640 480">
  <defs>
    <clipPath id="a">
      <path fill-opacity=".7" d="M-80 0h683v512H-80z"/>
    </clipPath>
  </defs>
  <g fill-rule="evenodd" clip-path="url(#a)" transform="translate(75) scale(.9375)">
    <path fill="#fff" d="M-80 0h683v512H-80V0Z"/>
    <path d="M-80 0h683v205H-80V0Z"/>
    <path fill="#0072c6" d="M21 203h480v112H21V203Z"/>
    <path fill="#ce1126" d="M603 0v512H262L603 0ZM-80 0v512h342L-80 0Z"/>
    <path fill="#fcd116" d="m440 203-76-19 65-49-80 11 41-69-71 41 13-81-48 64-19-74-22 76-47-65 13 83-70-43 41 70-78-13 64 48-80 20h354z"/>
  </g>
</svg>
