<svg xmlns="http://www.w3.org/2000/svg" id="flag-icons-ai" viewBox="0 0 640 480">
  <path fill="#012169" d="M0 0h640v480H0z"/>
  <path fill="#49497d" d="M484 180l2 2z"/>
  <path fill="#0e0e6e" d="M486 180l2 2z"/>
  <path fill="#262678" d="M480 182l2 2z"/>
  <path fill="#808067" d="M482 182l2 2z"/>
  <path fill="#58587b" d="M488 182l2 2z"/>
  <path fill="#0e0e6e" d="M413 185l2 2z"/>
  <path fill="#1b1b74" d="M476 185l2 2z"/>
  <path fill="#6e6c70" d="M478 185l2 2z"/>
  <path fill="#cc3" d="M417 188c0 53-6 112 33 153 8 8 23 28 36 27 14-1 32-21 40-31 34-45 28-98 29-150-15 7-23 9-36 9-10 1-25-6-35-10-6 4-14 9-30 9-18 1-24-2-37-7z"/>
  <path fill="#99994e" d="M490 185l2 2z"/>
  <path fill="#49497d" d="M492 185l2 2z"/>
  <path fill="#0e0e6e" d="M555 185l2 2z"/>
  <path fill="#a4a43d" d="M415 187l2 2z"/>
  <path fill="#6e6c70" d="M417 187l2 2z"/>
  <path fill="#3a3a7c" d="M419 187l2 2z"/>
  <path fill="#1b1b74" d="M472 187l2 2z"/>
  <path fill="#6e6c70" d="M474 187l2 2z"/>
  <path fill="#a4a43d" d="M476 187l2 2z"/>
  <path fill="#d0d045" d="M484 187l2 2z"/>
  <path fill="#a4a43d" d="M492 187l2 2z"/>
  <path fill="#8d8d5b" d="M494 187l2 2z"/>
  <path fill="#3a3a7c" d="M497 187l2 2z"/>
  <path fill="#262678" d="M549 187l2 2z"/>
  <path fill="#53527c" d="M551 187l2 2z"/>
  <path fill="#8d8d5b" d="M553 187l2 2z"/>
  <path fill="#737370" d="M423 189l2 2z"/>
  <path fill="#53527c" d="M425 189l2 2z"/>
  <path fill="#1b1b74" d="M427 189l2 2z"/>
  <path fill="#262678" d="M468 189l2 2z"/>
  <path fill="#6e6c70" d="M470 189l2 2z"/>
  <path fill="#a4a43d" d="M472 189l2 2z"/>
  <path fill="#e5e59d" d="M482 189l2 2z"/>
  <path fill="#fff" d="M421 194c-1 27 0 58 4 88 5 15 4 24 11 33l99-1c6-10 11-24 11-30 6-30 6-63 6-92a62 62 0 01-36 7 69 69 0 01-30-9c-10 6-13 8-29 9-12 1-21 2-36-5z"/>
  <path fill="#f2f1d7" d="M486 189l2 2z"/>
  <path fill="#d9d868" d="M488 189l2 2z"/>
  <path fill="#a4a43d" d="M497 189l2 2z"/>
  <path fill="#99994e" d="M499 189l2 2z"/>
  <path fill="#49497d" d="M501 189l2 2z"/>
  <path fill="#0e0e6e" d="M503 189l2 2z"/>
  <path fill="#3a3a7c" d="M543 189l2 2z"/>
  <path fill="#667" d="M545 189l2 2z"/>
  <path fill="#99994e" d="M547 189l2 2z"/>
  <path fill="#a4a43d" d="M549 189l2 2-2-2m-122 2l2 2z"/>
  <path fill="#99994e" d="M430 191l2 2z"/>
  <path fill="#6e6c70" d="M432 191l2 2z"/>
  <path fill="#49497d" d="M434 191l2 2z"/>
  <path fill="#1b1b74" d="M436 191l2 2-2-2m26 0l2 2z"/>
  <path fill="#53527c" d="M464 191l2 2-2-2z"/>
  <path fill="#8d8d5b" d="M466 191l2 2z"/>
  <path fill="#a4a43d" d="M468 191l2 2z"/>
  <path fill="#e5e59d" d="M478 191l2 2z"/>
  <path fill="#fbfaf2" d="M480 191l2 2z"/>
  <path fill="#f2f1d2" d="M490 191l2 2z"/>
  <path fill="#d9d868" d="M492 191l2 2z"/>
  <path fill="#a4a43d" d="M503 191l2 2z"/>
  <path fill="#6e6c70" d="M505 191l2 2z"/>
  <path fill="#3a3a7c" d="M507 191l2 2z"/>
  <path fill="#0e0e6e" d="M533 191l2 2z"/>
  <path fill="#32327b" d="M535 191l2 2z"/>
  <path fill="#58587b" d="M537 191l2 2z"/>
  <path fill="#808067" d="M539 191l2 2z"/>
  <path fill="#a4a43d" d="M543 191l1 1z"/>
  <path fill="#dddc7a" d="M419 193l2 2z"/>
  <path fill="#d0d045" d="M421 193l2 2z"/>
  <path fill="#a4a43d" d="M437 193l1 1z"/>
  <path fill="#808067" d="M440 193l2 2z"/>
  <path fill="#667" d="M442 193l2 2z"/>
  <path fill="#58587b" d="M444 193l2 2z"/>
  <path fill="#49497d" d="M446 193l2 2z"/>
  <path fill="#737370" d="M458 193l2 2z"/>
  <path fill="#99994e" d="M460 193l2 2z"/>
  <path fill="#a4a43d" d="M462 193l2 2z"/>
  <path fill="#e5e59d" d="M474 193l2 2z"/>
  <path fill="#fbfaf2" d="M476 193l2 2z"/>
  <path fill="#f2f1d2" d="M494 193l2 2z"/>
  <path fill="#d9d868" d="M497 193l2 2z"/>
  <path fill="#a4a43d" d="M508 193l1 1-1-1z"/>
  <path fill="#808067" d="M511 193l2 2z"/>
  <path fill="#667" d="M513 193l2 2z"/>
  <path fill="#58587b" d="M515 193l2 2z"/>
  <path fill="#3a3a7c" d="M517 193l2 2z"/>
  <path fill="#58587b" d="M526 193l2 1z"/>
  <path fill="#737370" d="M529 193l2 2z"/>
  <path fill="#99994e" d="M531 193l2 2-2-2z"/>
  <path fill="#a4a43d" d="M533 193l2 2z"/>
  <path fill="#dddc7a" d="M549 193l2 2z"/>
  <path fill="#d0d045" d="M551 193l2 2z"/>
  <path fill="#f2f1d7" d="M423 195l2 2z"/>
  <path fill="#e0dea1" d="M425 195l2 2z"/>
  <path fill="#dddc7a" d="M427 195l2 2z"/>
  <path fill="#d9d868" d="M468 195l2 2z"/>
  <path fill="#e5e3af" d="M470 195l2 2z"/>
  <path fill="#f6f6e4" d="M499 195l2 2z"/>
  <path fill="#e1e18c" d="M501 195l2 2z"/>
  <path fill="#d4d456" d="M541 195l2 2z"/>
  <path fill="#e1e18c" d="M543 195l2 2z"/>
  <path fill="#eeedc1" d="M545 195l2 2z"/>
  <path fill="#f2f1d2" d="M432 197l2 2z"/>
  <path fill="#e0dea1" d="M434 197l2 2z"/>
  <path fill="#dddc7a" d="M436 197l2 2z"/>
  <path fill="#d0d045" d="M438 197l2 2z"/>
  <path fill="#dddc7a" d="M462 197l2 2z"/>
  <path fill="#e5e3af" d="M464 197l2 2-2-2z"/>
  <path fill="#f6f6e4" d="M466 197l2 2z"/>
  <path fill="#eeedc1" d="M505 197l2 2z"/>
  <path fill="#e1e18c" d="M507 197l2 2z"/>
  <path fill="#d4d456" d="M509 197l2 2z"/>
  <path fill="#d9d868" d="M533 197l2 2z"/>
  <path fill="#e1e18c" d="M535 197l2 2z"/>
  <path fill="#eeedc1" d="M537 197l2 2z"/>
  <path fill="#f6f6e4" d="M539 197l2 2z"/>
  <path fill="#f2f1d7" d="M442 199l2 2-2-2z"/>
  <path fill="#f2f1d2" d="M444 199l2 2-2-2z"/>
  <path fill="#eeedc1" d="M446 199l2 2-2-2z"/>
  <path fill="#f2f1d2" d="M455 199l1 1z"/>
  <path fill="#fbfaf2" d="M458 199l2 2-2-2z"/>
  <path fill="#fef8f1" d="M468 199l4 4v-4h-4z"/>
  <path fill="#f2f1d7" d="M513 199l2 2-2-2z"/>
  <path fill="#f2f1d2" d="M515 199l2 2-2-2z"/>
  <path fill="#e5e3af" d="M517 199l2 2-2-2z"/>
  <path fill="#e5e59d" d="M520 199l2 1-2-1z"/>
  <path fill="#e0dea1" d="M523 199l2 2-2-2z"/>
  <path fill="#f2f1d2" d="M526 199l2 1z"/>
  <path fill="#fbfaf2" d="M529 199l2 2-2-2z"/>
  <path fill="#fef8f1" d="M464 201l2 2-2-2z"/>
  <path fill="#fbbe66" d="M466 201l2 2z"/>
  <path fill="#fbc477" d="M464 203l2 2-2-2z"/>
  <path fill="#fcb144" d="M468 203l2 2z"/>
  <path fill="#fe9f11" d="M464 205l2 2-2-2z"/>
  <path fill="#fea522" d="M468 205l2 2z"/>
  <path fill="#fae3c9" d="M462 207l2 2-2-2m8 0l2 2z"/>
  <path fill="#fbead6" d="M480 207l2 2z"/>
  <path fill="#f9d6aa" d="M482 207l2 2z"/>
  <path fill="#fae3c9" d="M490 207l2 2z"/>
  <path fill="#fef8f1" d="M492 207l2 2z"/>
  <path fill="#f9d099" d="M462 209l2 2z"/>
  <path fill="#fdab33" d="M470 209l2 2z"/>
  <path fill="#fcf1e4" d="M474 209l2 2z"/>
  <path fill="#fbc477" d="M476 209l2 2z"/>
  <path fill="#fea522" d="M478 209l2 2z"/>
  <path fill="#fcb755" d="M494 209l2 2z"/>
  <path fill="#f9d6aa" d="M497 209l2 2z"/>
  <path fill="#faca88" d="M462 211l2 2z"/>
  <path fill="#fea522" d="M472 211l2 2-2-2m27 0l2 2z"/>
  <path fill="#f8dcbb" d="M501 211l2 2z"/>
  <path fill="#f6f6e4" d="M419 213l2 2z"/>
  <path fill="#fbc477" d="M462 213l2 2z"/>
  <path fill="#fbbe66" d="M503 213l2 2z"/>
  <path fill="#f8dcbb" d="M505 213l2 2z"/>
  <path fill="#faca88" d="M462 215l2 2z"/>
  <path fill="#fcb755" d="M509 215l2 2z"/>
  <path fill="#f8dcbb" d="M511 215l2 2z"/>
  <path fill="#fef8f1" d="M460 217l2 2z"/>
  <path fill="#fe9f11" d="M462 217l2 2z"/>
  <path fill="#fdab33" d="M519 217l2 2z"/>
  <path fill="#fcb144" d="M521 217l2 2z"/>
  <path fill="#fbc477" d="M523 217l2 2z"/>
  <path fill="#f9d6aa" d="M525 217l4 4z"/>
  <path fill="#fef8f1" d="M527 217l2 2z"/>
  <path fill="#fcb144" d="M460 219l2 2z"/>
  <path fill="#fdab33" d="M488 219l2 2z"/>
  <path fill="#fbc477" d="M490 219l2 2zm8 0l2 2-2-2z"/>
  <path fill="#fea522" d="M501 219l2 2z"/>
  <path fill="#fae3c9" d="M458 221l2 2z"/>
  <path fill="#fcb144" d="M484 221l2 2z"/>
  <path fill="#fae3c9" d="M486 221l2 2z"/>
  <path fill="#f8dcbb" d="M503 221l2 2z"/>
  <path fill="#fdab33" d="M505 221l2 2z"/>
  <path fill="#fe9f11" d="M517 221l2 2z"/>
  <path fill="#fcb755" d="M519 221l2 2z"/>
  <path fill="#f9d099" d="M521 221l2 2z"/>
  <path fill="#fbead6" d="M523 221l2 2z"/>
  <path fill="#fcb144" d="M458 223l2 2z"/>
  <path fill="#fbbe66" d="M482 223l2 2z"/>
  <path fill="#f9d099" d="M507 223l2 2z"/>
  <path fill="#fbead6" d="M515 223l2 2z"/>
  <path fill="#fcf1e4" d="M456 225l2 2z"/>
  <path fill="#fbbe66" d="M480 225l2 2z"/>
  <path fill="#f9d099" d="M509 225l2 2z"/>
  <path fill="#fae3c9" d="M515 225l2 2z"/>
  <path fill="#fbc477" d="M456 227l2 2z"/>
  <path fill="#fcb144" d="M478 227l2 2-2-2m33 0l2 2z"/>
  <path fill="#fbbe66" d="M515 227l2 2z"/>
  <path fill="#f6f6e4" d="M419 229l2 2z"/>
  <path fill="#fea522" d="M456 229l2 2z"/>
  <path fill="#fbead6" d="M478 229l2 2z"/>
  <path fill="#fcf1e4" d="M511 229l2 2z"/>
  <path fill="#fef8f1" d="M517 229l2 2z"/>
  <path fill="#fcf1e4" d="M454 231l2 2z"/>
  <path fill="#fbbe66" d="M476 231l2 2z"/>
  <path fill="#faca88" d="M513 231l2 2z"/>
  <path fill="#f9d099" d="M517 231l2 2z"/>
  <path fill="#f9d6aa" d="M454 233l2 2z"/>
  <path fill="#fcf1e4" d="M476 233l2 2z"/>
  <path fill="#fae3c9" d="M486 233l2 2z"/>
  <path fill="#fea522" d="M488 233l2 2z"/>
  <path fill="#fcb144" d="M490 233l2 2z"/>
  <path fill="#f9d6aa" d="M492 233l2 2z"/>
  <path fill="#fef8f1" d="M513 233l2 2z"/>
  <path fill="#fea522" d="M515 233l2 2z"/>
  <path fill="#fdab33" d="M517 233l2 2z"/>
  <path fill="#faca88" d="M454 235l-2 6 2-6z"/>
  <path fill="#fea522" d="M474 235l2 2z"/>
  <path fill="#fef8f1" d="M476 235l2 2z"/>
  <path fill="#f9d099" d="M486 235l2 2z"/>
  <path fill="#fdab33" d="M494 235l2 2z"/>
  <path fill="#fae3c9" d="M497 235l2 2z"/>
  <path fill="#f8dcbb" d="M515 235l2 2z"/>
  <path fill="#f90" d="M517 235l2 2z"/>
  <path fill="#fbead6" d="M520 237v1z"/>
  <path fill="#fea522" d="M478 237l2 2z"/>
  <path fill="#fbbe66" d="M480 237l2 2z"/>
  <path fill="#faca88" d="M482 237l2 2z"/>
  <path fill="#fcb144" d="M484 237l2 2z"/>
  <path fill="#fae3c9" d="M486 237l2 2z"/>
  <path fill="#fe9f11" d="M488 237l2 2z"/>
  <path fill="#fdab33" d="M499 237l2 2z"/>
  <path fill="#fbc477" d="M501 237l2 2z"/>
  <path fill="#faca88" d="M503 237l2 2z"/>
  <path fill="#f9d6aa" d="M505 237l2 2z"/>
  <path fill="#fae3c9" d="M508 238l1 1-1-1z"/>
  <path fill="#fef8f1" d="M511 237l2 2z"/>
  <path fill="#fbc477" d="M517 237l2 2z"/>
  <path fill="#fef8f1" d="M430 239l2 2z"/>
  <path fill="#fcf1e4" d="M432 239l2 2z"/>
  <path fill="#fcb755" d="M484 239l2 2z"/>
  <path fill="#fbead6" d="M488 239l2 2z"/>
  <path fill="#fea522" d="M490 239l2 2z"/>
  <path fill="#fe9f11" d="M507 239l2 2z"/>
  <path fill="#fcb144" d="M509 239l-2 4z"/>
  <path fill="#fe9f11" d="M513 239l2 2z"/>
  <path fill="#fbbe66" d="M515 239l2 2z"/>
  <path fill="#fcf1e4" d="M517 239l2 2z"/>
  <path fill="#fae3c9" d="M430 241l2 2z"/>
  <path fill="#fe9f11" d="M432 241l4 4z"/>
  <path fill="#fbead6" d="M434 241l2 2zm18 0l2 2z"/>
  <path fill="#fae3c9" d="M454 241l2 2z"/>
  <path fill="#fe9f11" d="M472 241l2 2z"/>
  <path fill="#fbc477" d="M474 241l2 2z"/>
  <path fill="#fea522" d="M476 241l2 2z"/>
  <path fill="#fbc477" d="M482 241l2 2z"/>
  <path fill="#fef8f1" d="M484 241l2 2z"/>
  <path fill="#fbc477" d="M492 241l2 2z"/>
  <path fill="#fff" d="M509 241l2 2z"/>
  <path fill="#fdab33" d="M511 241l2 2z"/>
  <path fill="#fbc477" d="M519 241l2 2z"/>
  <path fill="#fef8f1" d="M430 243l2 2z"/>
  <path fill="#fbead6" d="M436 243l2 2z"/>
  <path fill="#f9d6aa" d="M446 243l2 2z"/>
  <path fill="#fe9f11" d="M456 243l2 2z"/>
  <path fill="#f9d6aa" d="M459 244l2 1z"/>
  <path fill="#f8dcbb" d="M472 243l2 2z"/>
  <path fill="#fcf1e4" d="M478 243l2 2z"/>
  <path fill="#f9d6aa" d="M494 243l2 2z"/>
  <path fill="#fdab33" d="M509 243l2 2z"/>
  <path fill="#fcb755" d="M521 243l2 2z"/>
  <path fill="#fef8f1" d="M523 243l2 2z"/>
  <path fill="#53527c" d="M413 245l2 2z"/>
  <path fill="#fcb755" d="M432 245l2 2z"/>
  <path fill="#fea522" d="M436 245l2 2z"/>
  <path fill="#fbead6" d="M444 245l2 2z"/>
  <path fill="#fe9f11" d="M448 245l2 2z"/>
  <path fill="#fcf1e4" d="M450 245l2 2z"/>
  <path fill="#fbbe66" d="M456 245l2 2z"/>
  <path fill="#fbc477" d="M458 245l2 2z"/>
  <path fill="#fbbe66" d="M460 245l2 2z"/>
  <path fill="#fea522" d="M470 245l2 2z"/>
  <path fill="#f9d6aa" d="M497 245l2 2z"/>
  <path fill="#fcb144" d="M523 245l2 2z"/>
  <path fill="#8d8d5b" d="M555 245l2 2z"/>
  <path fill="#e5e3af" d="M419 247l2 2z"/>
  <path fill="#f8dcbb" d="M432 247l2 2z"/>
  <path fill="#fdab33" d="M438 247l2 2z"/>
  <path fill="#fe9f11" d="M444 247l2 2z"/>
  <path fill="#faca88" d="M448 247l2 2z"/>
  <path fill="#fcf1e4" d="M456 247l2 2z"/>
  <path fill="#f9d099" d="M470 247l2 2-2-2m29 0l2 2z"/>
  <path fill="#fbbe66" d="M525 247l2 2z"/>
  <path fill="#fea522" d="M434 249l2 2z"/>
  <path fill="#fdab33" d="M440 249l2 2z"/>
  <path fill="#fea522" d="M442 249l2 2z"/>
  <path fill="#fe9f11" d="M446 249l2 2z"/>
  <path fill="#fef8f1" d="M448 249l2 2z"/>
  <path fill="#fbbe66" d="M458 249l2 2z"/>
  <path fill="#fef8f1" d="M470 249l2 2z"/>
  <path fill="#fbbe66" d="M501 249l2 2z"/>
  <path fill="#f9d099" d="M527 249l2 2z"/>
  <path fill="#f9d6aa" d="M434 252l2 2z"/>
  <path fill="#f9d099" d="M446 252l2 2z"/>
  <path fill="#fcf1e4" d="M458 252l2 2z"/>
  <path fill="#fdab33" d="M468 252l2 2-2-2m35 0l2 2z"/>
  <path fill="#fbead6" d="M529 252l2 2z"/>
  <path fill="#fea522" d="M436 254l2 2z"/>
  <path fill="#fe9f11" d="M444 254l2 2z"/>
  <path fill="#fcb144" d="M460 254l2 2z"/>
  <path fill="#faca88" d="M468 254l2 2z"/>
  <path fill="#f8dcbb" d="M503 254l2 2z"/>
  <path fill="#fcb144" d="M529 254l2 2z"/>
  <path fill="#d3d079" d="M419 256l2 2z"/>
  <path fill="#faca88" d="M436 256l2 2zm24 0l2 2z"/>
  <path fill="#fae3c9" d="M468 256l2 2-2-2m35 0l2 2z"/>
  <path fill="#f8dcbb" d="M531 256l2 2-2-2z"/>
  <path fill="#f2f1d7" d="M549 256l2 2z"/>
  <path fill="#58587b" d="M556 257l1 1z"/>
  <path fill="#d9d868" d="M420 259l1 1-1-1z"/>
  <path fill="#f8dcbb" d="M436 258l2 2z"/>
  <path fill="#f9d6aa" d="M501 258l2 2z"/>
  <path fill="#fe9f11" d="M503 258l2 2z"/>
  <path fill="#fcb144" d="M531 258l2 2-2-2z"/>
  <path fill="#f2f1d2" d="M550 259l1 1z"/>
  <path fill="#fcf1e4" d="M436 260l2 2z"/>
  <path fill="#fef8f1" d="M499 260l2 2z"/>
  <path fill="#fe9f11" d="M501 260l2 2z"/>
  <path fill="#fdab33" d="M507 260l-2 4z"/>
  <path fill="#fcb755" d="M509 260l2 2z"/>
  <path fill="#fea522" d="M533 260l2 2z"/>
  <path fill="#f9d099" d="M535 260l2 2z"/>
  <path fill="#53527c" d="M555 260l2 2z"/>
  <path fill="#808067" d="M416 263l1 1z"/>
  <path fill="#fea522" d="M438 262l2 2-2-2m6 0l2 2-2-2z"/>
  <path fill="#fe9f11" d="M466 262l2 2z"/>
  <path fill="#fae3c9" d="M499 262l2 2z"/>
  <path fill="#fef8f1" d="M507 262l2 2z"/>
  <path fill="#fcb144" d="M511 262l2 2z"/>
  <path fill="#fcb755" d="M537 262l2 2z"/>
  <path fill="#fef8f1" d="M539 262l4 4z"/>
  <path fill="#e5e59d" d="M550 263l1 1z"/>
  <path fill="#32327b" d="M556 263l1 1z"/>
  <path fill="#fcb755" d="M438 265l1 1z"/>
  <path fill="#fef8f1" d="M446 264l2 2z"/>
  <path fill="#fbbe66" d="M466 264l2 2z"/>
  <path fill="#fbead6" d="M499 264l2 2z"/>
  <path fill="#fe9f11" d="M503 264l2 2z"/>
  <path fill="#fcf1e4" d="M505 264l2 2z"/>
  <path fill="#fbead6" d="M511 264l2 2z"/>
  <path fill="#fdab33" d="M539 264l2 2z"/>
  <path fill="#667" d="M415 266l2 2-2-2z"/>
  <path fill="#f6f6e4" d="M421 266l2 2-2-2z"/>
  <path fill="#f9d6aa" d="M446 266l2 2-2-2z"/>
  <path fill="#fdab33" d="M462 266l2 2-2-2z"/>
  <path fill="#fe9f11" d="M464 266l2 2-2-2z"/>
  <path fill="#fcf1e4" d="M466 266l2 2-2-2z"/>
  <path fill="#fea522" d="M501 266l2 2-2-2z"/>
  <path fill="#faca88" d="M503 266l2 2-2-2m10 0l2 2z"/>
  <path fill="#fcb144" d="M541 266l2 2-2-2z"/>
  <path fill="#dddc7a" d="M549 266l2 2-2-2z"/>
  <path fill="#58587b" d="M415 268l2 2z"/>
  <path fill="#f2f1d2" d="M421 268l2 2z"/>
  <path fill="#fcb144" d="M438 269l1 1z"/>
  <path fill="#fea522" d="M446 268l2 2z"/>
  <path fill="#fef8f1" d="M466 268l2 2z"/>
  <path fill="#fea522" d="M468 268l2 2z"/>
  <path fill="#fcb144" d="M472 268l2 2z"/>
  <path fill="#fbead6" d="M474 268l2 2z"/>
  <path fill="#f8dcbb" d="M501 268l2 2z"/>
  <path fill="#fcf1e4" d="M503 268l2 2z"/>
  <path fill="#fef8f1" d="M513 268l2 2z"/>
  <path fill="#fe9f11" d="M515 268l2 2z"/>
  <path fill="#fbead6" d="M543 268l2 2z"/>
  <path fill="#d9d868" d="M549 268l2 2z"/>
  <path fill="#3a3a7c" d="M415 270l2 2z"/>
  <path fill="#e5e3af" d="M421 270l2 2z"/>
  <path fill="#faca88" d="M448 270l2 2z"/>
  <path fill="#fbead6" d="M468 270l2 2z"/>
  <path fill="#fe9f11" d="M474 270l2 2z"/>
  <path fill="#fcf1e4" d="M476 270l2 2z"/>
  <path fill="#fbead6" d="M499 270l2 2z"/>
  <path fill="#fae3c9" d="M501 270l2 2z"/>
  <path fill="#fbead6" d="M503 270l2 2z"/>
  <path fill="#fbbe66" d="M515 270l2 2-2-2m16 0l2 2z"/>
  <path fill="#fcf1e4" d="M533 270l2 2z"/>
  <path fill="#fef8f1" d="M535 270l2 2z"/>
  <path fill="#f8dcbb" d="M537 270l2 2z"/>
  <path fill="#fcb755" d="M539 270l2 2z"/>
  <path fill="#fae3c9" d="M543 270l2 2z"/>
  <path fill="#808067" d="M553 270l2 2z"/>
  <path fill="#32327b" d="M415 272l2 2z"/>
  <path fill="#a4a43d" d="M418 273l1 2-1-2z"/>
  <path fill="#e5e59d" d="M421 272l2 2z"/>
  <path fill="#fbc477" d="M438 272l2 2z"/>
  <path fill="#f9d6aa" d="M450 272l2 2z"/>
  <path fill="#fbbe66" d="M470 272l2 2z"/>
  <path fill="#f9d099" d="M476 272l2 2z"/>
  <path fill="#fae3c9" d="M494 272l2 2z"/>
  <path fill="#fcb144" d="M497 272l2 2z"/>
  <path fill="#fae3c9" d="M505 272l2 2z"/>
  <path fill="#f8dcbb" d="M515 272l2 2z"/>
  <path fill="#f9d099" d="M531 272l2 2-2-2z"/>
  <path fill="#fbc477" d="M541 272l2 2z"/>
  <path fill="#fbead6" d="M543 272l2 2z"/>
  <path fill="#737370" d="M553 272l2 2z"/>
  <path fill="#d9d868" d="M421 274l2 2z"/>
  <path fill="#f9d099" d="M438 274l2 2z"/>
  <path fill="#f9d6aa" d="M452 274l2 2-2-2m18 0l2 2z"/>
  <path fill="#fbc477" d="M476 274l2 2z"/>
  <path fill="#fef8f1" d="M486 274l2 2z"/>
  <path fill="#f8dcbb" d="M488 274l2 2z"/>
  <path fill="#fbc477" d="M490 274l2 2z"/>
  <path fill="#fea522" d="M492 274l2 2z"/>
  <path fill="#fbead6" d="M505 274l2 2z"/>
  <path fill="#f2f1d2" d="M547 274l2 2z"/>
  <path fill="#58587b" d="M553 274l2 2z"/>
  <path fill="#99994e" d="M417 276l2 2z"/>
  <path fill="#d0d045" d="M421 276l2 2z"/>
  <path fill="#fcb144" d="M454 276l2 2z"/>
  <path fill="#fae3c9" d="M456 276l2 2z"/>
  <path fill="#fef8f1" d="M470 276l2 2z"/>
  <path fill="#fcb755" d="M478 276l2 2z"/>
  <path fill="#fbc477" d="M480 276l2 2z"/>
  <path fill="#fcb144" d="M482 276l2 2z"/>
  <path fill="#fea522" d="M484 276l2 2z"/>
  <path fill="#fe9f11" d="M501 276l2 2z"/>
  <path fill="#f9d6aa" d="M503 276l2 2z"/>
  <path fill="#fef8f1" d="M531 276l2 2-2-2z"/>
  <path fill="#e0dea1" d="M547 276l2 2z"/>
  <path fill="#3a3a7c" d="M553 276l2 2z"/>
  <path fill="#737370" d="M417 278l2 2z"/>
  <path fill="#fbfaf2" d="M423 278l2 2z"/>
  <path fill="#fea522" d="M440 278l2 2z"/>
  <path fill="#fe9f11" d="M458 278l2 2z"/>
  <path fill="#fcb144" d="M460 278l2 2z"/>
  <path fill="#fbc477" d="M462 278l2 2z"/>
  <path fill="#faca88" d="M464 278l2 2-2-2z"/>
  <path fill="#fbc477" d="M466 278l2 2z"/>
  <path fill="#fcb144" d="M468 278l2 2z"/>
  <path fill="#fdab33" d="M470 278l2 2z"/>
  <path fill="#fbc477" d="M499 278l2 2z"/>
  <path fill="#fef8f1" d="M501 278l2 2z"/>
  <path fill="#fdab33" d="M529 278l2 2z"/>
  <path fill="#e1e18c" d="M547 278l2 2z"/>
  <path fill="#a4a43d" d="M552 279l1 2z"/>
  <path fill="#262678" d="M553 278l2 2z"/>
  <path fill="#58587b" d="M417 280l2 2z"/>
  <path fill="#f2f1d2" d="M423 280l2 2z"/>
  <path fill="#faca88" d="M440 280l2 2z"/>
  <path fill="#fe9f11" d="M494 280l2 2z"/>
  <path fill="#fbead6" d="M497 280l2 2z"/>
  <path fill="#fbc477" d="M515 280l2 2z"/>
  <path fill="#faca88" d="M529 280l2 2z"/>
  <path fill="#d4d456" d="M547 280l2 2z"/>
  <path fill="#32327b" d="M417 282l2 2z"/>
  <path fill="#e5e59d" d="M423 282l2 2z"/>
  <path fill="#fef8f1" d="M440 282l2 2z"/>
  <path fill="#fe9f11" d="M442 282l2 2z"/>
  <path fill="#fbead6" d="M494 282l2 2z"/>
  <path fill="#fea522" d="M515 282l2 2z"/>
  <path fill="#fcf1e4" d="M529 282l2 2z"/>
  <path fill="#808067" d="M551 282l2 2z"/>
  <path fill="#0e0e6e" d="M417 284l2 2z"/>
  <path fill="#a4a43d" d="M419 284l2 2z"/>
  <path fill="#d9d868" d="M423 284l2 2z"/>
  <path fill="#f8dcbb" d="M442 284l2 2z"/>
  <path fill="#f9d6aa" d="M513 284l2 2z"/>
  <path fill="#faca88" d="M527 284l2 2z"/>
  <path fill="#f2f1d2" d="M545 284l2 2z"/>
  <path fill="#58587b" d="M551 284l2 2z"/>
  <path fill="#8d8d5b" d="M419 286l2 2z"/>
  <path fill="#f9d6aa" d="M444 286l2 2z"/>
  <path fill="#fdab33" d="M484 286l2 2z"/>
  <path fill="#fff" d="M486 286l2 2z"/>
  <path fill="#fcb144" d="M490 287h1z"/>
  <path fill="#fef8f1" d="M511 286l-2 4z"/>
  <path fill="#fe9f11" d="M513 286l2 2z"/>
  <path fill="#fdab33" d="M525 286l-2 4z"/>
  <path fill="#e5e59d" d="M545 286l2 2z"/>
  <path fill="#3a3a7c" d="M551 286l2 2z"/>
  <path fill="#667" d="M419 288l2 2z"/>
  <path fill="#f2f1d2" d="M425 288l2 2z"/>
  <path fill="#f9d6aa" d="M446 288l2 2z"/>
  <path fill="#fe9f11" d="M484 288l2 2z"/>
  <path fill="#faca88" d="M486 288l2 2z"/>
  <path fill="#fea522" d="M488 288l2 2z"/>
  <path fill="#fcf1e4" d="M490 288l2 2z"/>
  <path fill="#fdab33" d="M511 288l2 2z"/>
  <path fill="#fef8f1" d="M525 288l2 2z"/>
  <path fill="#d9d868" d="M545 288l2 2z"/>
  <path fill="#a4a43d" d="M549 288l2 2z"/>
  <path fill="#0e0e6e" d="M551 288l2 2z"/>
  <path fill="#3a3a7c" d="M419 290l2 2z"/>
  <path fill="#e5e59d" d="M425 290l2 2z"/>
  <path fill="#fae3c9" d="M448 290l4 4z"/>
  <path fill="#fe9f11" d="M450 290l2 2z"/>
  <path fill="#f8dcbb" d="M488 290l2 2z"/>
  <path fill="#fcf1e4" d="M507 290l2 2z"/>
  <path fill="#fdab33" d="M509 290l2 2z"/>
  <path fill="#fcb144" d="M521 290l2 2z"/>
  <path fill="#fef8f1" d="M523 290l2 2z"/>
  <path fill="#fbfaf2" d="M543 290l2 2z"/>
  <path fill="#8d8d5b" d="M549 290l2 2z"/>
  <path fill="#0e0e6e" d="M419 292l2 2z"/>
  <path fill="#a4a43d" d="M421 292l2 2z"/>
  <path fill="#d4d456" d="M425 292l2 2z"/>
  <path fill="#f9d6aa" d="M486 292l2 2z"/>
  <path fill="#f9d099" d="M505 292l2 2z"/>
  <path fill="#fe9f11" d="M507 292l2 2z"/>
  <path fill="#faca88" d="M519 292l2 2z"/>
  <path fill="#eeedc1" d="M543 292l2 2z"/>
  <path fill="#58587b" d="M549 292l2 2z"/>
  <path fill="#737370" d="M421 294l2 2z"/>
  <path fill="#f6f6e4" d="M427 294l2 2z"/>
  <path fill="#fbbe66" d="M450 294l2 2z"/>
  <path fill="#fcb144" d="M482 294l2 2z"/>
  <path fill="#f8dcbb" d="M485 296l1 1z"/>
  <path fill="#fbbe66" d="M501 294l2 2z"/>
  <path fill="#fe9f11" d="M503 294l2 2z"/>
  <path fill="#fbc477" d="M515 294l2 2z"/>
  <path fill="#fcf1e4" d="M517 294l2 2z"/>
  <path fill="#d3d079" d="M543 294l2 2z"/>
  <path fill="#a4a43d" d="M547 294l2 2z"/>
  <path fill="#262678" d="M549 294l2 2z"/>
  <path fill="#49497d" d="M421 296l2 2z"/>
  <path fill="#e0dea1" d="M427 296l2 2z"/>
  <path fill="#fae3c9" d="M448 296l2 2z"/>
  <path fill="#fdab33" d="M476 296l2 2z"/>
  <path fill="#fbc477" d="M478 296l2 2z"/>
  <path fill="#fbead6" d="M480 296l2 2z"/>
  <path fill="#fcb144" d="M486 296l2 2z"/>
  <path fill="#f9d6aa" d="M513 296l2 2z"/>
  <path fill="#99994e" d="M547 296l2 2z"/>
  <path fill="#0e0e6e" d="M421 298l2 2z"/>
  <path fill="#a4a43d" d="M423 298l2 2z"/>
  <path fill="#d4d456" d="M427 298l2 2z"/>
  <path fill="#f9d099" d="M446 298l2 2z"/>
  <path fill="#fe9f11" d="M448 298l2 2-2-2m10 0l2 2z"/>
  <path fill="#f9d6aa" d="M460 298l2 2z"/>
  <path fill="#f9d099" d="M462 298l2 2z"/>
  <path fill="#f9d6aa" d="M470 298l2 2z"/>
  <path fill="#fae3c9" d="M472 298l2 2z"/>
  <path fill="#fef8f1" d="M474 298l2 2z"/>
  <path fill="#fbead6" d="M490 298l2 2z"/>
  <path fill="#fae3c9" d="M492 298l2 2z"/>
  <path fill="#faca88" d="M494 298l2 2z"/>
  <path fill="#fbc477" d="M497 298l2 2z"/>
  <path fill="#fdab33" d="M499 298l2 2z"/>
  <path fill="#fe9f11" d="M509 298l2 2z"/>
  <path fill="#f9d6aa" d="M511 298l2 2z"/>
  <path fill="#e5e3af" d="M541 298l2 2z"/>
  <path fill="#667" d="M547 298l2 2z"/>
  <path fill="#737370" d="M423 300l2 2z"/>
  <path fill="#f2f1d7" d="M430 300l2 2z"/>
  <path fill="#fea522" d="M444 300l2 2z"/>
  <path fill="#fe9f11" d="M454 300l2 2z"/>
  <path fill="#fbbe66" d="M456 300l2 2z"/>
  <path fill="#fcf1e4" d="M458 300l2 2z"/>
  <path fill="#fea522" d="M507 300l2 2z"/>
  <path fill="#fbead6" d="M509 300l2 2z"/>
  <path fill="#dddc7a" d="M541 300l2 2z"/>
  <path fill="#a4a43d" d="M545 300l2 2z"/>
  <path fill="#262678" d="M547 300l2 2z"/>
  <path fill="#49497d" d="M423 302l2 2z"/>
  <path fill="#a4a43d" d="M426 304l1 1z"/>
  <path fill="#d3d079" d="M430 302l2 2z"/>
  <path fill="#f9d099" d="M446 302l2 2z"/>
  <path fill="#fcb144" d="M448 302l2 2z"/>
  <path fill="#faca88" d="M450 302l2 2z"/>
  <path fill="#f8dcbb" d="M452 302l2 2z"/>
  <path fill="#fef8f1" d="M454 302l2 2z"/>
  <path fill="#f8dcbb" d="M499 302l2 2z"/>
  <path fill="#fcf1e4" d="M507 302l2 2z"/>
  <path fill="#f6f6e4" d="M539 302l2 2z"/>
  <path fill="#8d8d5b" d="M545 302l2 2z"/>
  <path fill="#fbfaf2" d="M432 304l2 2z"/>
  <path fill="#fbbe66" d="M499 304l2 2z"/>
  <path fill="#faca88" d="M505 304l2 2z"/>
  <path fill="#e1e18c" d="M539 304l2 2z"/>
  <path fill="#49497d" d="M545 304l2 2z"/>
  <path fill="#58587b" d="M425 306l2 2z"/>
  <path fill="#e5e59d" d="M432 306l2 2z"/>
  <path fill="#fe9f11" d="M499 306l2 2z"/>
  <path fill="#fdab33" d="M503 306l2 2z"/>
  <path fill="#fbfaf2" d="M537 306l2 2z"/>
  <path fill="#a4a43d" d="M543 306l2 2z"/>
  <path fill="#0e0e6e" d="M545 306l2 2z"/>
  <path fill="#1b1b74" d="M425 308l2 2z"/>
  <path fill="#a4a43d" d="M427 308l2 2z"/>
  <path fill="#d0d045" d="M432 308l2 2z"/>
  <path fill="#fbead6" d="M497 308l2 2z"/>
  <path fill="#fe9f11" d="M501 308l2 2z"/>
  <path fill="#fbead6" d="M503 308l2 2z"/>
  <path fill="#e5e59d" d="M537 308l2 2z"/>
  <path fill="#667" d="M543 308l2 2z"/>
  <path fill="#6e6c70" d="M427 310l2 2z"/>
  <path fill="#e5e3af" d="M434 310l2 2z"/>
  <path fill="#faca88" d="M497 312l1 1z"/>
  <path fill="#fae3c9" d="M501 310l2 2z"/>
  <path fill="#fbfaf2" d="M535 310l2 2z"/>
  <path fill="#a4a43d" d="M541 310l2 2z"/>
  <path fill="#1b1b74" d="M543 310l2 2-2-2m-116 2l2 2z"/>
  <path fill="#a4a43d" d="M430 312l2 2z"/>
  <path fill="#d0d045" d="M434 312l2 2z"/>
  <path fill="#fbfaf2" d="M436 312l2 2z"/>
  <path fill="#f9d6aa" d="M499 312l2 2z"/>
  <path fill="#e5e59d" d="M535 312l2 2z"/>
  <path fill="#6e6c70" d="M541 312l2 2-2-2m-111 2l2 2z"/>
  <path fill="#8cbf84" d="M436 314l2 2z"/>
  <path fill="#0cf" d="M436 314c7 15 32 50 51 50 19-1 40-35 48-50z"/>
  <path fill="#a4a43d" d="M539 314l2 2z"/>
  <path fill="#1b1b74" d="M541 314l2 2-2-2m-111 2l2 2z"/>
  <path fill="#a4a43d" d="M432 316l2 2z"/>
  <path fill="#adb333" d="M436 316l2 2z"/>
  <path fill="#1ac5b5" d="M438 316l2 2z"/>
  <path fill="#68b070" d="M533 316l2 2z"/>
  <path fill="#667" d="M539 316l2 2z"/>
  <path fill="#58587b" d="M432 319l2 2z"/>
  <path fill="#7fb15c" d="M438 319l2 2z"/>
  <path fill="#27c2aa" d="M531 319l2 2-2-2z"/>
  <path fill="#a4a43d" d="M537 319l-2 4z"/>
  <path fill="#0e0e6e" d="M539 319l2 2-2-2m-107 2l2 2z"/>
  <path fill="#a4a43d" d="M434 321l4 4z"/>
  <path fill="#34be9e" d="M440 321l2 2z"/>
  <path fill="#96b247" d="M531 321l2 2-2-2z"/>
  <path fill="#53527c" d="M537 321l2 2z"/>
  <path fill="#3a3a7c" d="M434 323l2 2z"/>
  <path fill="#a2b23d" d="M440 323l2 2z"/>
  <path fill="#0dc9c1" d="M442 323l2 2z"/>
  <path fill="#5bb47c" d="M529 323l2 2z"/>
  <path fill="#8d8d5b" d="M535 323l2 2z"/>
  <path fill="#737370" d="M436 325l2 2z"/>
  <path fill="#74b166" d="M442 325l2 2z"/>
  <path fill="#27c2aa" d="M527 325l2 2z"/>
  <path fill="#a4a43d" d="M533 325l-2 4z"/>
  <path fill="#262678" d="M535 325l2 2z"/>
  <path fill="#0e0e6e" d="M436 327l2 2z"/>
  <path fill="#a4a43d" d="M438 327l4 4z"/>
  <path fill="#42bb92" d="M444 327l2 2z"/>
  <path fill="#0dc9c1" d="M525 327l2 2z"/>
  <path fill="#96b247" d="M527 327l2 2z"/>
  <path fill="#58587b" d="M533 327l2 2z"/>
  <path fill="#3a3a7c" d="M438 329l2 2z"/>
  <path fill="#adb333" d="M444 329l2 2z"/>
  <path fill="#27c2aa" d="M446 329l2 2z"/>
  <path fill="#74b166" d="M525 329l2 2z"/>
  <path fill="#8d8d5b" d="M531 329l2 2-2-2z"/>
  <path fill="#6e6c70" d="M440 331l2 2z"/>
  <path fill="#96b247" d="M446 331l2 2z"/>
  <path fill="#0dc9c1" d="M448 331l2 2z"/>
  <path fill="#42bb92" d="M523 331l2 2z"/>
  <path fill="#a4a43d" d="M529 331l-4 6 4-6z"/>
  <path fill="#1b1b74" d="M531 331l2 2-2-2z"/>
  <path fill="#0e0e6e" d="M440 333l2 2-2-2z"/>
  <path fill="#8d8d5b" d="M442 333l2 2-2-2z"/>
  <path fill="#7fb15c" d="M448 333l2 2-2-2z"/>
  <path fill="#34be9e" d="M521 333l2 2-2-2z"/>
  <path fill="#3a3a7c" d="M529 333l2 2-2-2z"/>
  <path fill="#1b1b74" d="M442 335l2 2z"/>
  <path fill="#a4a43d" d="M444 335l22 22z"/>
  <path fill="#74b166" d="M450 335l2 2z"/>
  <path fill="#27c2aa" d="M519 335l2 2z"/>
  <path fill="#adb333" d="M521 335l2 2z"/>
  <path fill="#667" d="M527 335l2 2z"/>
  <path fill="#32327b" d="M444 337l2 2z"/>
  <path fill="#42bb92" d="M452 337l2 2z"/>
  <path fill="#0dc9c1" d="M517 337l-8 10 8-10z"/>
  <path fill="#adb333" d="M519 337l2 2z"/>
  <path fill="#737370" d="M525 337l2 2z"/>
  <path fill="#49497d" d="M446 339l2 2z"/>
  <path fill="#42bb92" d="M454 339l2 2z"/>
  <path fill="#96b247" d="M517 339l2 2z"/>
  <path fill="#8d8d5b" d="M523 339l-2 4z"/>
  <path fill="#0e0e6e" d="M525 339l2 2z"/>
  <path fill="#53527c" d="M448 341l2 2z"/>
  <path fill="#42bb92" d="M456 341l2 2z"/>
  <path fill="#96b247" d="M515 341l2 2z"/>
  <path fill="#0e0e6e" d="M523 341l2 2z"/>
  <path fill="#6e6c70" d="M450 343l2 2z"/>
  <path fill="#42bb92" d="M458 343l2 2z"/>
  <path fill="#96b247" d="M513 343l2 2z"/>
  <path fill="#a4a43d" d="M519 343l-4 6 4-6z"/>
  <path fill="#262678" d="M521 343l2 2z"/>
  <path fill="#6e6c70" d="M452 345l2 2z"/>
  <path fill="#42bb92" d="M460 345l2 2z"/>
  <path fill="#96b247" d="M511 345l2 2z"/>
  <path fill="#262678" d="M519 345l2 2z"/>
  <path fill="#6e6c70" d="M454 347l2 2z"/>
  <path fill="#68b070" d="M462 347l2 2z"/>
  <path fill="#27c2aa" d="M507 347l2 2z"/>
  <path fill="#adb333" d="M509 347l2 2z"/>
  <path fill="#262678" d="M517 347l2 2z"/>
  <path fill="#667" d="M456 349l2 2z"/>
  <path fill="#74b166" d="M464 349l2 2-2-2z"/>
  <path fill="#34be9e" d="M505 349l2 2z"/>
  <path fill="#adb333" d="M507 349l2 2z"/>
  <path fill="#8d8d5b" d="M513 349l-2 4z"/>
  <path fill="#262678" d="M515 349l2 2z"/>
  <path fill="#49497d" d="M458 351l2 2z"/>
  <path fill="#96b247" d="M466 351l2 2z"/>
  <path fill="#0dc9c1" d="M468 351l2 2z"/>
  <path fill="#42bb92" d="M503 351l2 2z"/>
  <path fill="#0e0e6e" d="M513 351l2 2z"/>
  <path fill="#49497d" d="M460 353l2 2z"/>
  <path fill="#a2b23d" d="M468 353l2 2z"/>
  <path fill="#27c2aa" d="M470 353l2 2z"/>
  <path fill="#74b166" d="M501 353l2 2z"/>
  <path fill="#a4a43d" d="M507 353l-6 8z"/>
  <path fill="#808067" d="M509 353l2 2z"/>
  <path fill="#0e0e6e" d="M511 353l2 2z"/>
  <path fill="#262678" d="M462 355l2 2z"/>
  <path fill="#adb333" d="M470 355l2 2z"/>
  <path fill="#42bb92" d="M472 355l2 2z"/>
  <path fill="#0dc9c1" d="M497 355l2 2z"/>
  <path fill="#96b247" d="M499 355l2 2z"/>
  <path fill="#6e6c70" d="M507 355l2 2z"/>
  <path fill="#1b1b74" d="M464 357l2 2-2-2z"/>
  <path fill="#8d8d5b" d="M466 357l2 2z"/>
  <path fill="#74b166" d="M474 357l2 2z"/>
  <path fill="#0dc9c1" d="M476 357l2 2z"/>
  <path fill="#34be9e" d="M494 357l2 2z"/>
  <path fill="#adb333" d="M497 357l2 2z"/>
  <path fill="#49497d" d="M505 357l2 2z"/>
  <path fill="#0e0e6e" d="M466 359l2 2z"/>
  <path fill="#6e6c70" d="M468 359l2 2z"/>
  <path fill="#a4a43d" d="M470 359l4 4z"/>
  <path fill="#96b247" d="M476 359l2 2z"/>
  <path fill="#27c2aa" d="M478 359l2 2z"/>
  <path fill="#68b070" d="M492 359l2 2z"/>
  <path fill="#32327b" d="M503 359l2 2z"/>
  <path fill="#49497d" d="M470 361l2 2z"/>
  <path fill="#5bb47c" d="M480 361l2 2z"/>
  <path fill="#27c2aa" d="M488 361l2 2z"/>
  <path fill="#96b247" d="M490 361l2 2z"/>
  <path fill="#a4a43d" d="M497 361l-2 4z"/>
  <path fill="#808067" d="M499 361l2 2z"/>
  <path fill="#0e0e6e" d="M501 361l2 2z"/>
  <path fill="#262678" d="M472 363l2 2z"/>
  <path fill="#8d8d5b" d="M474 363l2 2z"/>
  <path fill="#8bb252" d="M482 363l2 2z"/>
  <path fill="#1ac5b5" d="M484 363l2 2z"/>
  <path fill="#5bb47c" d="M486 363l2 2z"/>
  <path fill="#58587b" d="M497 363l2 2z"/>
  <path fill="#0e0e6e" d="M474 365l2 2z"/>
  <path fill="#667" d="M476 365l2 2z"/>
  <path fill="#a4a43d" d="M478 365l2 2z"/>
  <path fill="#99994e" d="M492 365l2 2z"/>
  <path fill="#32327b" d="M494 365l2 2-2-2m-16 2l2 2z"/>
  <path fill="#99994e" d="M480 367l2 2z"/>
  <path fill="#a4a43d" d="M488 367l2 2z"/>
  <path fill="#667" d="M490 367l2 2z"/>
  <path fill="#0e0e6e" d="M492 367l2 2-2-2m-12 2l2 2z"/>
  <path fill="#667" d="M482 369l2 2z"/>
  <path fill="#a4a43d" d="M484 369l2 2z"/>
  <path fill="#99994e" d="M486 369l2 2z"/>
  <path fill="#32327b" d="M488 369l2 2z"/>
  <path fill="#262678" d="M484 371l2 2z"/>
  <path fill="#0e0e6e" d="M486 371l2 2z"/>
  <path fill="#f90" d="M488 235c4 8 14 16 16 20-3 4-4 3-3 11 6-7 6-7 10-6 8 8 1 27-6 31s-6-1-16 5c4 4 10-1 15 0 2 3-1 9 0 14 4 0 4-9 5-12 3-11 21-18 22-28 4-2 8-1 12 2-2-10-10-10-12-13-5-7-9-15-19-17-8-2-7 0-12-3-4-3-13-7-12-4z"/>
  <path fill="#fff" fill-rule="evenodd" d="M511 244a2 2 0 11-3 0 2 2 0 013 0z"/>
  <path fill="#f90" d="M463 267c5-7 8-19 10-24 5 2 5 2 12-1-9-3-10-3-11-7 4-11 24-14 30-9 8 4 3 5 13 12 1-6-6-9-7-14 2-3 8-3 12-7-2-3-9 1-13 2-11 2-26-10-35-6-3-3-4-7-4-12-7 6-4 13-5 16-5 8-10 16-7 26 2 8 4 6 3 12-1 4 0 15 2 12z"/>
  <path fill="#fff" fill-rule="evenodd" d="M460 243h2a2 2 0 11-2 0z"/>
  <path fill="#f90" d="M504 271c-8-1-20 3-25 4-1-6 0-6-7-9 2 8 3 9 0 12-12 2-24-13-24-21 0-9 3-5 4-17-6 2-5 9-8 12-4 1-7-5-12-6-2 4 5 8 7 10 8 8 6 28 14 34-1 4-4 6-8 9 9 3 13-4 16-4 9 0 19 0 26-7 5-6 3-7 9-9 3-2 12-8 8-8z"/>
  <path fill="#fff" fill-rule="evenodd" d="M486 286a2 2 0 111-3 2 2 0 01-2 3z"/>
  <path fill="#012169" d="M0 0h320v240H0z"/>
  <path fill="#fff" d="M38 0l122 91L281 0h39v31l-120 90 120 89v30h-40l-120-89-119 89H0v-30l120-89L0 32V0z"/>
  <path fill="#c8102e" d="M212 141l108 79v20l-135-99zm-92 10l3 17-96 72H0zM320 0v2L196 96l1-22 98-74zM0 0l120 88H90L0 21z"/>
  <path fill="#fff" d="M121 0v240h80V0zM0 80v80h320V80z"/>
  <path fill="#c8102e" d="M0 97v48h320V97zM137 0v240h48V0z"/>
</svg>
