<svg xmlns="http://www.w3.org/2000/svg" xmlns:xlink="http://www.w3.org/1999/xlink" id="flag-icons-al" viewBox="0 0 640 480">
  <path fill="red" d="M0 0h640v480H0z"/>
  <path id="a" d="M272 93c-5 0-12 2-12 5-13-2-14 3-14 8l4-3 6 2a22 22 0 014 4h-11a17 17 0 01-6-3l-4-4c-3-3-6-2-5 2 2 4 6 6 10 7l9 1h10l-6 2c-3 1-8-1-10-2 0 2 3 5 9 6 9 2 17 3 22 6a37 37 0 0111 9c5 6 5 10 5 11 1 9-2 14-7 16-3 0-8-1-10-3s-4-6-3-12c0-2 3-9 0-10a274 274 0 00-32-15c-2-1-4 3-5 4a50 50 0 01-36-24c-4-7-11 0-10 8 2 8 8 13 15 18 8 4 17 8 27 8 5 1 5 7-1 8-12 0-22 0-31-9-7-6-11 2-9 6 3 13 22 17 41 12 7-1 3 7 1 7-8 6-22 11-35 0-5-4-9-1-7 6 5 16 27 13 41 5 4-2 7 2 3 6-18 13-27 13-36 8-10-4-11 7-5 11 7 4 24 1 37-7 5-4 5 2 2 5-15 13-21 16-36 14-8-1-8 9-2 13 8 5 25-4 37-14 5-3 6 2 4 7a54 54 0 01-22 18c-7 3-14 2-18 1-6-2-7 4-4 9 2 4 10 5 19 2 8-3 18-11 24-19 5-5 5 2 2 6-12 20-24 28-39 26-7-1-9 4-4 9 7 7 17 6 25 0l29-30c5-4 7 0 5 8-1 5-5 10-14 14-7 3-2 8 3 9 3 0 8-4 12-8 6-6 6-10 9-20 3-5 8-2 8 2-2 10-4 12-9 16s3 6 6 4c7-6 10-12 13-19 2-4 7-2 5 5-6 18-16 25-34 28-1 1-3 2-2 4l7 7-30 8-15-10c-1-3-2-8-10-5-5-2-7-1-10 1 4 0 6 1 7 3 3 6 8 6 13 5l8 8-17-1c-6-6-10-6-14-1-4 1-5 1-7 4h7c6 4 10 3 13 0l18 1-8 5c-9-3-13 1-15 8a17 17 0 00-1 10c1-3 2-6 5-7 8 2 11-2 11-6 4-4 10-4 14-8l11 4c2 5 6 7 12 6 7 0 5 3 6 5 2-3 2-6-3-9-1-5-5-7-9-4l-10-4c11-4 19-5 30-8l7 7h4c7-10 10-19 16-26 3-2 6-6 9-7l6 1c1 2 2 4 2 9l-4 11-6 8c-4 5-9 8-12 10-7 4-9 3-14 2-7 1-8 4-3 8 5 3 9 3 13 3 3-1 6-5 9-7 3-3 7 1 4 5-6 7-12 11-19 11-8 1-6 5-1 7 9 4 17-3 21-8 4-3 6-3 5 2-3 10-7 14-14 15-6-1-6 4-2 7 10 6 17-5 20-12 2-6 6-3 6 2 0 7-3 12-11 19l20 31 19-214-19-34-10-11-1-1 5-1c-4-5-8-6-15-8l9-1a30 30 0 00-14-10l10-6a86 86 0 01-20-4 37 37 0 00-12-4zm1 9c4 0 6 1 6 3 0 1-2 3-6 3s-6-2-6-3c0-2 2-3 6-3z"/>
  <use xlink:href="#a" width="100%" height="100%" transform="matrix(-1 0 0 1 640 0)"/>
</svg>
