<svg xmlns="http://www.w3.org/2000/svg" id="flag-icons-aq" viewBox="0 0 640 480">
  <path fill="#3a7dce" d="M0 0h640v480H0z"/>
  <path fill="#fff" d="M158 231c-4-8-4-8-4-16h-3c-1 0-1 7-5 6 0-1 3-6 0-8l-1-8c1 0-3 3-6-5-2-3-4 2-4 2s1 2-1 3c-2-2-4-1-6-4-3-2 0-5-5-7 3-10 3-8 12-12-5-4-5-4-9-10-5-2-7-4-12-8-7-10-10-29-10-43 4-5 10 16 19 22l12 5c7 4 9 8 14 12l16 6c7 6 10 14 15 16 6 0 7-4 9-4 10-1 15-2 17-6 2-2 7 2 21-4l-1-8s3-3 8-2c0-3 0-13 5-17-3-4 2-9 2-11-2-9 1-9 2-11 0-3-3-2-2-5 1-4 6-5 7-8s-1-14-1-16c9-3 12-12 15-8 2-12 4-16 14-16 2-4-4-7-1-8 3 0 6 0 10 6 1 2 1-3 3-3 1-1 4-1 4-3l3-10c2-3 3 2 4 8 8 0 24 2 31 4 5 2 9-1 14-2 4 4 7 1 9 10 3 5 7 0 8 2 6 18 26 6 28 6s5 8 8 8c3-1 2-3 5-2-1 7 5 14 5 19h3c2-2 3-6 4-5l26 7c2 4 3 6 7 5 3 2 1 5 2 5 4-2 5-4 9-2 3 2 7 6 8 10 0 2-2 10 0 22l10 35c0 4-3 6-5 10 7 6 0 15-3 21 26 6 14 18 35 12-5 14-4 13 2 26-11 8-1 11-7 20-1 1 4 9 10 9-2 16-7 10-5 33-14 0-8 18-18 16 1 11 6 12 4 23-7 2-7 2-11 8l-5-2c-2 10-5 12 0 22h-9c0 3 3 4 4 8 0 1-10 7-17 8-2 4 5 10 4 12-8 2-11 13-11 13s4 2 3 4c-2-2-3-2-7-2-2 1-6 0-10 8-4 1-7 1-10 6-1-5-4 0-6 2l-7 6 2-6-10 2c-1 0 0-6-2-5-2 0-7 7-8 7l-4-2-5 8c-1 0-5-5-8-4-17 7-20-14-22-2-4-2-3-1-7 0-2 1-3-3-5-3-4 0-4 4-6 3-2-9-13-8-14-12s5-4 7-6c1-4-2-6 4-10 7-5 7-20 5-25l-7-18c-4-1-4 7-9 9-10 4-29-10-32-10s-16 4-16-4c-2 7-9 2-10 2-7 0-4 6-9 6l-24-3v4l-26-12c-10-4-5-13-22-7v-12h-9c3-24 0-12-2-34l-7 2c-7-10 10-8-5-15 0 0 0-12-4-8l2 6c-14-2-17-6-17-22 0 0 11 2 10 0l-3-23c0-3 11-9 8-15l6-1"/>
  <path fill="none" stroke="#fff" stroke-linejoin="round" stroke-width="3" d="M596 298v0zM120 148s-3 0-3 3l2-3zm-1-6c-1 0-4 0-3 2 1-2 3-2 3-2zm13 36s3 0 2 3l-2-3z" transform="scale(.86021 .96774)"/>
</svg>
