<svg xmlns="http://www.w3.org/2000/svg" xmlns:xlink="http://www.w3.org/1999/xlink" id="flag-icons-ar" viewBox="0 0 640 480">
  <path fill="#74acdf" d="M0 0h640v480H0z"/>
  <path fill="#fff" d="M0 160h640v160H0z"/>
  <g id="c" transform="translate(-64) scale(.96)">
    <path id="a" fill="#f6b40e" stroke="#85340a" stroke-width="1" d="M397 251l28 62 2 1v-1l-24-64m0 24c-1 9 5 14 4 23-1 8 4 13 5 16v6c1 0 3-2 2-7 0-4-4-6-3-16s-4-13-3-22"/>
    <use xlink:href="#a" width="100%" height="100%" transform="rotate(23 400 250)"/>
    <use xlink:href="#a" width="100%" height="100%" transform="rotate(45 400 250)"/>
    <use xlink:href="#a" width="100%" height="100%" transform="rotate(68 400 250)"/>
    <path id="b" fill="#85340a" d="M404 274c1 9 6 13 5 22 2-7-3-12-3-22m-8-23l20 42-16-44"/>
    <use xlink:href="#b" width="100%" height="100%" transform="rotate(23 400 250)"/>
    <use xlink:href="#b" width="100%" height="100%" transform="rotate(45 400 250)"/>
    <use xlink:href="#b" width="100%" height="100%" transform="rotate(68 400 250)"/>
  </g>
  <use xlink:href="#c" width="100%" height="100%" transform="rotate(90 320 240)"/>
  <use xlink:href="#c" width="100%" height="100%" transform="rotate(180 320 240)"/>
  <use xlink:href="#c" width="100%" height="100%" transform="rotate(-90 320 240)"/>
  <circle cx="320" cy="240" r="27" fill="#f6b40e" stroke="#85340a"/>
  <path id="h" fill="#843511" stroke-width="1" d="M329 234c-2 0-3 1-4 3 2 2 6 2 9 0a7 7 0 00-5-3zm0 1l4 1c-2 3-6 2-8 1 1-2 3-2 4-2z"/>
  <use xlink:href="#d" width="100%" height="100%" transform="matrix(-1 0 0 1 640 0)"/>
  <use xlink:href="#e" width="100%" height="100%" transform="matrix(-1 0 0 1 640 0)"/>
  <use xlink:href="#f" width="100%" height="100%" transform="translate(18)"/>
  <use xlink:href="#g" width="100%" height="100%" transform="matrix(-1 0 0 1 640 0)"/>
  <path fill="#85340a" d="M316 244a2 2 0 102 3 4 4 0 002 0h4a2 2 0 000-3l1 1a1 1 0 01-2 0 3 3 0 01-3 2 3 3 0 01-2-2l-2 1-1-1 1-1zm2 5c-2 0-3 2-5 3l3-2h8l3 2c-2-1-3-3-5-3l-2 1-2-1z"/>
  <path fill="#85340a" d="M317 252h-3c4-1 4 1 6 1s3-2 6-1h-9z"/>
  <path fill="#85340a" d="M314 252h-1c4 1 2 3 7 3s3-2 7-3c-5 0-3 2-7 2-3 1-2-2-6-2z"/>
  <path fill="#85340a" d="M324 259a4 4 0 00-8 0 4 4 0 018 0z"/>
  <path id="e" fill="#85340a" stroke-width="1" d="M303 234c5-4 11-4 14-1a8 8 0 012 3c0 2 0 5-2 8h1c1-3 2-6 1-9v-3c-5-3-11-4-16 2z"/>
  <path id="d" fill="#85340a" stroke-width="1" d="M311 233c3 0 3 1 4 2l2 1c1 0 0 0 0 0l-2-1-4-1c-4 0-6 3-6 2-1 0 2-3 6-3z"/>
  <use xlink:href="#h" width="100%" height="100%" transform="translate(-18)"/>
  <circle id="f" cx="311" cy="236" r="2" fill="#85340a" stroke-width="1"/>
  <path id="g" fill="#85340a" stroke-width="1" d="M306 238c3 2 7 2 9 1s2-2 1-2l-2 1h-8z"/>
</svg>
