<svg xmlns="http://www.w3.org/2000/svg" id="flag-icons-as" viewBox="0 0 640 480">
  <path fill="#006" d="M0 0h640v480H0z"/>
  <path fill="#bd1021" d="M-1 240L639 0v480z"/>
  <path fill="#fff" d="M60 240L640 26v428"/>
  <path d="M474 270c5 1 5 6 5 6h18c2-6 5-5 9-2a33 33 0 009 4c2-9 14-7 14-7 6-13 6-13 3-15a11 11 0 01-4-4c-3-4-5-9-5-13-1-3-5 2-5 1h-7-3v2l-4-1a6 6 0 01-1 1h-6a20 20 0 00-11 2c-2 1-8 4-13 9-4 4-7 4-7 4-1 5-13 11-13 11-2 2-7 3-10 0-3-2 0-7 0-7 1-1 2-1 2-8 0-5 5-9 10-14l15-18c0 3 2 4 2 4l4-7 1 1 3-4c-1 0-6 0-11 4s-9 3-9 3c-3-1-4-4-4-4-2-10 8-18 8-18-14-3-4-21 13-28 16-7 16-10 16-10a13 13 0 012 3s1-2 11-6l14-8 1 4c26-9 52-31 52-31l1 5c4-4 19-13 19-13a9 9 0 01-4 8 8 8 0 011 2 360 360 0 0014-9c4 3 0 9 0 9l3-1c1 6-6 12-6 12l3-1c-1 7-14 14-14 14 2 2 0 4-2 5-1 1-4 3-3 4s7-3 7-3c1 3-7 9-7 9 5 0 20-6 20-6-1 5-7 10-14 12l-6 3c1 1 11-2 11-2-3 7-13 11-13 11 3 2 6 0 10-3a58 58 0 0114-6c5-2 9-1 9-1a12 12 0 019 1c8 0 9 4 9 4l4 2c2 2 2 7 2 9l-1 3-1 3c0 1-2 7-15 7h-23c-6 3-3-2-9 4-7 5-11 4-11 4a90 90 0 01-12 11c-4 3-3 2 0 4s9 0 9 0c-3 2-1 3-1 3 4-2 7-1 7-1 2 3-4 10-4 10h6c-1 2-4 5-7 6s-2 1-2 3l1 3c-5-3-5 0-5 0l-1 9c-3-1-3 1-3 1-1 4-5 8-5 8-1-3-3-3-3-3-2 4-6 7-6 7l1 8h-4v1l34 1s2 0 2 4c0 3-3 4-3 4l-36-1-2 2c-2 1-1-1-2 3 0 5-7 0-7 0l-4 4c-2-5-4-7-6-2-3 4 4 3 4 3l45-6c3-1 5 0 7 3 1 3-6 4-6 4l-44 4c-1 3-4 3-4 3 0 2-3 4-4 5h-5c-5 4-8 1-8 1h-8c-3-2-3-5-3-5l-28 3a7 7 0 00-2 1c1 2-2 5-2 5 1 0 3 2 3 5 0 4-5 4-2 7 2 3 6 0 11-2s10-2 12-2l11 3c4 1 5 0 5-2l2-2 1 3a11 11 0 003-2c0 2-2 3-2 3-3 2 2 1 2 1a44 44 0 0115-1 123 123 0 0114 5v-4l5 2v-3c10 5-2 8-5 9l-3 2a28 28 0 016-1l7-1c5-1 8 1 8 1-5 0-6 2-6 2 3 1 0 3 0 3-4-5-7 0-7 0a15 15 0 016 2l6 2 5 2c3 1 2 4 2 4a7 7 0 00-4-3c0 3-3 3-3 3 4-4-4-6-8-6-3 0-6 3-6 3 7 7 12 4 12 4 0 3-6 2-6 2l2 3c-1-1-4 0-9-4-5-3-10-2-10-2 5 5-2 9-2 9-2 1 1 3 1 3-3 1-3-2-3-2-2-1-5 1-5 1 1-3 5-1 5-5 0-3-4-6-16-4-13 1-16-2-16-2l-2 1c2 2 3 2 3 4l1 2c-3-1-3-3-3-3l-1 2v3c-1-1-3-2-1-5 1-1-3-4-3-4h-5a15 15 0 01-14-3l-3-1c-8 4-16-5-16-5-7 2-10-2-12-5a12 12 0 00-5-5c-3-1-5-6-3-9l2-2c-4-6 6-8 6-9 0-2 2-4 4-4l4-1c1-2 4 0 4 0 1 0 6-4 10-2s8 1 8 1l28-4c1-3 2-6 9-7s12-6 12-6c-1-2-3-2-4-2l-3-2-11 6c-8 5-8-5-8-5h-18c0 4-3 5-3 5l-6 1c-4-2-4-8-4-8-20 0-30 7-30 7-22-11-39-14-39-14a122 122 0 0040-10 63 63 0 0029 9c0-6 4-7 4-7z"/>
  <path fill="#ffc221" d="M442 315c-5 3-4 5-4 6s1 2-1 3l-1 2c0 6 4 7 6 8l3 5c3 4 6 4 8 4 3 0 2 0 1-1l-3-3a18 18 0 016 4c5 6 11 5 13 5l2-1a9 9 0 00-2-1c-9-1-11-6-11-6a24 24 0 0015 6c3 0 2 0 2 1l-3-1v1l2 1 4 2c4 3 12 1 12 1-5-1-6-4-6-4-8 1-11-4-11-4a33 33 0 00-5-3 9 9 0 01-5-6c1 2 3 4 6 5l4 1a4 4 0 01-2 0h-2c4 3 5 2 5 2 8 1 4-2 4-2 6 1 7-1 7-1 2 3 6 2 6 2-6 3-1 2-1 2h7l4 2h3c3 1 6 3 10 2l4 1c-1 0-2-1-5 1h-14l-8-2a9 9 0 014 4l1 1 3-2a27 27 0 005 3v-1c2 2 5 2 5 2l1-2 2 1h3l-1-2c3-2 11-1 11-1 5 1 4 4 4 4a10 10 0 013 2v-2l3 4c3-3-3-7-3-7h8a14 14 0 016 3l6 3-3-2v-1h3l-8-6 4-1-6-1h14c-3-4-11-3-14-3h-4l3-1c2 0 5 0 7-2l6-1c-1-1-5-2-8 0l-7 2c6-1 7-3 7-3l-6 1c-3 1-4-1-4-1l6-3c-3 0-5-2-5-2-4 3-6 5-12 2l-9-3a14 14 0 0114 1c4 2 5 0 5 0l-1-1c10 5 14 2 16 0 2-1-1-3-1-3 0 3-4 4-7 3l-10-4c-5-2-10-1-15 0h-7-3c-3 1-9-2-13-3s-10 0-15 3c-6 3-8 2-10 1s-3-3-1-4 2-3 2-5c0-3-3-5-3-5 2-2 3-3 2-4s1-1 2-1l1-2h-2l-5-1c-5-3-10 2-10 2-3-2-3-1-4 0l-3 1-4 2v4l-2 4v-1l-2 3s-1-2 1-4l3-4c-1-1-2 0-3 1z"/>
  <path d="M448 338s-2-2-2-5v-4 2l-1 2-2-3v-3l-2-1c-1 1-2 2 2 5l2 4 3 3zm13-8l2-4a6 6 0 000-6l1-1c2-2-1-4 2-6l2-3-5 3c-2 1-9 4-8 7l2 4s-5-3-3-7l2-3c2-2 1 0 5-2l4-4-3 2-5 2c-2 2-6 5-4 8 0 0-4 0-5-4 0 0-8 9 8 13l5 1z"/>
  <path fill="#ffc221" d="M532 299l43-6c4-1 5-1 6 2s-5 3-5 3l-41 4h-2l-2-2 1-1z"/>
  <path fill="#5a3719" d="M447 318s-4 9 13 11l1-2c1-2 2-5 1-7-1-1 1 0 1-3l1-4s-5 2-7 5c-2 2 3 4 0 7 0 0-3-1-4-4 0 0-3 0-6-3z"/>
  <path d="M465 329s4 4 9 4 7-2 9-4l1 3s4-4 12-1l7 3s-4-1-11 3c-8 3-28 2-28-8z"/>
  <path fill="#5a3719" d="M457 313s2 0 4-2l-4 2zm-14 17s-4-3-2-3c0 0 2-1 2 3z"/>
  <path d="M521 348s2-4 8-4 6 3 13 3c0 0-9 3-14 1h-7z"/>
  <path fill="#5a3719" d="M466 332s9 5 16-1l1 2s6-5 16 1c0 0-2-1-6 1-6 3-22 5-27-3z"/>
  <path d="M498 337h15c4 0 9-1 6 1h9c9-1 0 2 6 3 0 0-16 8-36-4z"/>
  <path fill="#5a3719" d="M519 332s5-2 9 0l7 3s-2 2-7 0l-9-3zm5 14s5-2 10 0l3 1h-7l-6-1zm-22-8s10 1 16 0c0 0-7 3 9 1h3l1 2s-12 5-29-3z"/>
  <path d="M451 329l2 2a9 9 0 014 4 6 6 0 004 3s-8 1-12-3c0 0-3-3 2-6"/>
  <path fill="#5a3719" d="M514 348l-8-2c-4-2-5 0-8-2-2-2-7-1-8-1s-3 0 0-2l-4-1-5 1s2 3-6 2a10 10 0 0011 3s-1 2 3 3l6 3s0-2-4-5h6c4 1 12 3 17 1zm2 3s1 2 3 2a17 17 0 0110 0s1-3-7-3l-6 1zm-65-21s-3 3-1 5c3 3 6 2 8 2l-2-2-3-3-2-2zm-3-12s-5 9 13 11v-2c1-2 2-5 1-7-2-1 1 0 2-3 0-2-1-2 1-4 0 0-6 2-8 5-2 2 3 4 0 7 0 0-3-1-4-4 0 0-3 0-6-3z"/>
  <path d="M493 339s4 0 13 3c10 4 14 3 15 3 0 0-5 2-14-1l-14-5z"/>
  <path fill="#ffc221" d="M552 337l3 1 3-1s-1-2-6 0zm-7-5l3-1-3-2v3zm-71-24s-1-1 1-1l32-5 2 1c0 1-1 2-8 3l-25 3s-2 0-2-1zM502 307s0 4 4 5c4 0 6-1 7-3v-5h-3l-3 2 1 2c-1 1-1 0-2-1 0-1 1-1-2-1l-2 1zm18-3c2 0 1 4-1 7-3 2-6 1-6 1v-2c1-2 2-4 1-5l1-1h4z"/>
  <path fill="#ffc221" d="M521 304s2 2 0 6c0 0-1 1 1 1 2-1 6-3 6-5l-2-1c-2 0 0 0 1-1 0 0 2 0-2-3h-1l-3 2v1z"/>
  <path fill="#ffc221" d="M525 301l3 3 1 1c1 0 4-1 3-3l-3-3c-2-1-2 0-4 1v1zm-16 3s1-2-2-2l3-1c3 1 2 2 2 2l-3 1zm6-1h5s-2-3-6-2l1 3zm5 0l3-2s-1-2-3-1h-3s3 1 3 3zm1-4l3 1 3-2s-3-1-6 1z"/>
  <path fill="#5a3719" d="M436 291s7-6 11-6h6l11-1s-5-4-15-4l-11 6s-9-5-18-2c0 0 10 3 16 7z"/>
  <path fill="#ffc221" d="M512 301h1s2 3 1 3l-1-1a2 2 0 00-1-2zm-9 1s-1 1 1 0l3-1h6l3-1 2-1 3-1c2-1 3 0 0-2v-1l2 1 2 1s0-3 2-5c3-2 3-2 1-2h-4c-1 0-7 5-11 6-4 0-7 2-10 6zm-101-24l14 4s1-2-4-3c0 0 12 0 26 6 0 0 7-6 28-4v-3s-15-1-29-9c0 0-12 6-35 9zm65 6c-1-12 3-13 3-13h5s-4 5-3 13c0 0 1 1-3 1s-2-1-2-1z"/>
  <path fill="#5a3719" d="M470 292s-2-3-3-5l3-1 3 1 2 5z"/>
  <path fill="#ffc221" d="M475 286a28 28 0 01-1-5c0-6 2-6 2-5h2s-1-7-3-3a19 19 0 00-2 10l1 4z"/>
  <path fill="#5a3719" d="M500 286s4 0-2 2c0 0 0 8 8 3l8-5s2 0 1-1c0 0 1-2-1-2h-2l-2-1c-1 1-2 0-1 2l2 1c1-1 3-2 1 0s-4-1-5-2zm-22 1h-2s-1 1-2-1v1s2 9 4 0z"/>
  <path fill="#ffc221" d="M475 277s-1 5 1 9h21v-9h-3v7-7h-3v7-7h-3v7h-1v-7h-2v7h-1v-7h-3l1 7h-1v-7h-2v7h-1v-7h-3zm23 10s-1-10 1-13 3-2 6 0l8 5c1 0 2 0 2 2s0 3-3 0a9 9 0 00-2-2c-3-1 0 1 1 2s2 1 0 2a219 219 0 00-13 4z"/>
  <path d="M505 280s-1-2 1-3c2 0 2 3 2 5 0 3-2-2-3-2zm-3 9s-2 1 0 1c1 1 5-2 4-2l-4 1zm3-3h1-1z"/>
  <path fill="#ffc221" d="M516 283s1 4 4 5l2-1-1-2-2-2h2l-2-1h1l1-1-1-1-1-1h2l-1-2h1c1-1 2-1 0-1-1-1 0-1 1-1l2-1c1-1 4-3 0-2-5 0-7 3-7 3a13 13 0 00-1 8z"/>
  <path fill="#ffc221" d="M527 286h1c1 2-1 1-2 3s-1 1-2 0l-2-2 1-1h4zm-5-1l1 1 4-1 1-1h-5l-1 1zm0-3l1 2h3l2-1c0-1 0-2-1-1h-4-1zm0-2v1l3 1 3-1-1-1h-4-1z"/>
  <path fill="#5a3719" d="M582 286l1 2-45-1 1-2z"/>
  <path fill="#ffc221" d="M523 278v1h4l1-1h-2s-1-1 2-1h1s2-2 0-1c-2 0-1-1 0-1h2l-1-1c-1-1 0 0 0 0h2v-1h9c1-1-1-2-1-2h2c1-1-1-2 1-2 1-1 0-5-1-6l-3 5c-2 3-4 5-6 4-4-2-6 1-7 1-1 1 2 1 0 1h-1v1s1 0 0 0-2 0-2 1l1 1s1 0 0 0l-1 1zm4 11v1l2-1c0-1 2 0 1-1s-2 0-3 1z"/>
  <path fill="#ffc221" d="M532 276s3-4 6-2l4 3-1 1h1l2 1c0 1 1 1-1 1h-4s-2 0-1-1v-2 1l-2 1v1l-1 1c-1 0-3 0 0 0s-1 0 2 2c2 1 0 4-1 4v1h1c0 1-2 3-5 1l1-1h-2l-2-3c2 0 1 0 1-1v-1l3 1-2-1-2-2c1-2 3 0 2-1 0-1-2 0-1-2s1 0 1 0v-3z"/>
  <path d="M534 277l1-1h1s2 0 0 1h-2z"/>
  <path fill="#ffc221" d="M538 281s-1 0 0 2l1 2 43 1s0-3 2-4l-46-1z"/>
  <path fill="#5a3719" d="M583 285l1-3c1 0 2 0 2 2 1 2-1 5-2 4l-1-3z"/>
  <path fill="#7b3c20" d="M533 295l3-3s8 5 8 0v-2s3 0 3-2l-7-1-2 1c-1 2-4 3-6 2h-2v1l3 4zm17-15h-5l-4-5 1-2 2-3v-1c1 1 5 5 6 4l1-3h1l1 4 1 4s-6-2-4 2zm-19-9s3 2 5-1c2-2 3-3 1-5-1-2 0-4 1-5 1 0 2 0 2-4s3-5 4-6c1-2 4-3 0-4-5-1-14-3-16-7-2-3-3-1-3-1s-1 3 1 7 4 8 7 9c2 2 4 3 3 6l-5 11z"/>
  <path fill="#5a3719" d="M543 261s1 8 7 11v-6l3 1s0-3-3-4c-3 0-1-5 0-6v-3c-1-1-1-2 1-1 2 0 2-1 1-2-2-1-2-2 0-2s5-2 3-3c-1 0-2-1 1-2 2-1 4-2 2-2l-2-1c2 0 0-2-2-2-3-1-7 0-4-3 4-3-5 0-1-2s-2-2-2-2l-1-1h-1l-1-1c0-2-2-1-2 0-1 0-3 2-4 1s-2-2-4 0c-3 1-2 0-2-1s1-3-3 0 0-3-3-1-3 2-4 1c0-1-1-2-4 0s0-1 0-2c0 0 2-5-1-1 0 0-1 2-4-2 0 0-3 4-4 2s-2-2-3 0v-2c-1-1-1-3-6 1s2 1-2 3-14 7-5 6c9-2-4 3-1 4s2 3 13 0 10 0 15-3c6-2-1 1 7 1 7 0 1 0 3 2 1 1 8 5 14 6 6 0 7-2 6 1l-4 4c-1 1-4 3-4 7s-5 4-3 8l4-4z"/>
  <path fill="#5a3719" d="M553 270l-1-3 1 1s4-4-1-6c-4-1-1-5 0-5s2 0 0-2c-1-1-1-1 2-2 2 0 2-1 1-1a8 8 0 01-2-2s6-3 4-4c-2-2 0-1 2-3l3-2h-4s2-1 0-2-2-3-5-2c-2 1-1 0 0-1s0-2-2-2l2-3h-5s2-1 2-3l-5 1s2-1 2-3c0 0-5 1-7 3l-1-1-5 1s0-2 2-3c1-1 1-3-7 2l-2-3-3 3s-1 1-1-1h-1c-1 1-1 2-1-1l-1-4-4 4-3-4c-1-2-1-2-2 0l-2 3-1-2-1 1s-2-1-1-3c0 0-9 4-10 7h-10l2-4s-2 0-2-2h3c1 0-2-3 1-3 2 0 4 1 3-2l-1-4 5 2c1 0 0-2 4-1s3-2 4-2c2 0 3 1 2-6s4 4 0-7l-3-5s0 2-3 0-8-2-6-4c3-2 4-4 3-5 0 0-3 2-7 1-4-2-4 1-8 0l3-3c3-3-2 0-4 1-1 0-2 0 2-3s12-9 11-13c0 0 2 2 7 0 5-1 8-2 10-5a23 23 0 016-5c1-1 2-1 1 1-2 3-4 7-11 10l-11 6c-1 2-7 5-3 4 4 0 11 0 8-1s-7 1-4-2l8-5c4-2 9-6 8-2 0 5-8 9-10 11-2 1-1 1-1 2l-2 2v2l1 2 1 2 2 1h2c0 1 1 2 1 0 0-3 1-3-1-2h-3l-1-1c-1 0-1-1 1-2l3-2 2-3-4 3c-1 1-1 0-1-2 1-2 4-4 6-4s6 1 4 3l-5 6h4v5a8 8 0 01-3 2s-2-4-2-1v5l4 1c1 0-4 3-2 3s5-1 6-3l-6-3s5-1 4-5c0 0 5 1 3 3s-4 2-2 2l3 2v4c1 0 3-1 1-2s2-1 1-2l-3-2s20-12 10-7c0 0 2-5 5-5s3 2 1 4c-1 2-2 5-6 5 0 0 5 3-1 8 0 0-2 0-1 1s4-2 5-3a6 6 0 013-3 38 38 0 0011-10c2-4 3-4 7-7l4-4 3-3 12-8 10-7c2-3 8-7 9-6 2 1 0 3-3 5l-14 11a45 45 0 01-11 6l-4 3-6 7-5 4c0 2 1 2-2 4a50 50 0 01-11 8s4 2 1 5l-2 3s6-1 2 4c0 0-1 2 1 0s1-4 1-4 4-3 8-3 4 0 0-1c0 0 3-3 5-2 2 2 1 3-1 4l-8 3s5 1 7-1l3-1v3l-1 2c0 1-1 2-3 2l-3 3c1 1 1 4-1 3-2 0-1-2-2-2-1-1-2-2-5 0-4 2-4 0-4-1 0 0-2 2-4 0s-1-3 1-4c1-1 5-3 2-2-2 0-6 0-7-2s2-2 2-2c1 1 3 2 3 0s3-2 2-2c-1-1-3 0-3 1 0 0-2-3-6-2-3 1 1 1 2 1s1 1-2 4-2 2 0 2c3 0 8 0 5 3-3 2-5 4-6 3-2 0 0-1 1-2s1-1-1 0c-1 0-2 0-3-2v-3-2c-2 0-1 0-1-1 0-2-2-3-2-3v3c0 1-1 2 1 2 1 0 2 1 0 2v1c1 1 2 2 1 3-2 2-1 1 0 1l2 2c0 1 0 2 3 0 2-1 6-1 6 1s0 2 2 1c3-2 4 1 5 0 2-2 3-3 5-1 2 3 1 3-1 5s1 1 3 0 7-2 9 0h6c2-1 3-1 6 1l8 2-8 2-6 1 2 4h4l1 3c1 1 3 1 2 2-1 2 2 1 0 3s-2 3-2 5l-1 2c-2 0 0 1-1 4-1 2-5 1-5 7 0 0 1-3 4-5l3-4c0-2-1-1 1-3 1 0-1-1 1-3l1-3c2-1-1-1 0-3 2-2-3-4-2-5 2-1 5-2-5-2 0 0 3-4 10-3l-2 3 2 1-2 2 5 4-4 2s2 1 2 3c0 0-3-1-3 1l-2 2v2 5h-2l-1 4c-2 0 1 1-1 1s-2 0-4 4l4-2 3-4c3-3 2-3 2-5l1-5c1-2 2-3 6-3l-3-3 4-2-6-4 4-4h-2l3-3 1 3s5-3 8-2c0 0 1 3-5 10h6s-1 3-6 5 1 4-5 3c-5 0-3 2-3 4v6s-4-1-4 3-2 5-2 5l-3-2s-3 5-7 8z"/>
  <path fill="#7b3c20" d="M547 221l4 1c2 1 5-2 2-3l3 1h4c1-1 2-1 0-2h2c2 1 1 2 1 2s0 3 2 0l4-6 1 2c0 2 2 0 3-1l1-4s2 2 4 0 2-1 4-2a18 18 0 009-5c2-3 2-1 4-2s8-4 9-6c0-2 0-3-1-2l-1-1c-1-1-3 1-3 1s2 1 0 2c-1 0-2 2-4 1-3 0-5 3-5 3s2 1-1 2c-2 1-2 2-4 0l-4 5-1-1-3 3-3-2-4 4-2-2c1 0 0 4-4 6l-2-2-7 4c-2 1 0-1 0-1 1-1 2-3-1-3h-4l-2 1c-1 1-4 0-4 2s2 3-1 4h4z"/>
  <path fill="#5a3719" d="M558 215s0-2-2-3c0 0 13-2 3-7 0 0 12-3 9-6-2-4-5-3-6-3 0 0 3-3 4-2 0 0 10 4 8 0l-3-3s3 0 8 4l1-3 4 2v-2l4 4 2-3 4 2v-3s5 2 6-1c0 0 5 1 1 3l-4 2c-3 2-5 5-7 4-1 0-2 3-4 2-1-2-1-1-3 0a25 25 0 01-2 4l-2-1-2 2-3-2-3 4-3-2s0 4-3 6l-3-2-5 4z"/>
  <path fill="#5a3719" d="M551 210s-2 1-1 2h2c2-1 18-3 3-8h3c3-1 12-3 8-6-5-4-8 1-5-3 4-3 1-5 1-5l-10 7c-2 1-5 3-2 4 4 1 6-4 6-3s-6 5-5 7 0 3 2 3h3l-5 1z"/>
  <path d="M556 201s-1 1 1 1 6-1 5-2-3 0-6 1z"/>
  <path fill="#7b3c20" d="M582 185s8-1 11 1l5 4s0 3-5 1v3l-4-2-1 2-4-3-1 1-5-1v2s-5-4-10-4l4 5s-10 0-8-6c1-5 0-4 6-4h12z"/>
  <path fill="#5a3719" d="M536 199s-1 1 0 2 5-2 6-3c0 0 2 0 0 1l-5 5 10-5c5-4 0-2 7-5 8-4 11-9 8-9-4 1-8 5-11 7s-4 2-4 1l7-4c4-3 3-3 3-4s-1-4 5-8c6-3 25-14 27-18 0 0-6 1-13 6a70 70 0 01-14 9l-3 2a172 172 0 01-10 10c-1 1-2 1-2 3l-11 10z"/>
  <path fill="#5a3719" d="M562 184h-3c-1 0-1-3 3-5a50 50 0 0112-5s0 4-10 7c0 0 1 2-2 3z"/>
  <path fill="#aa5323" d="M565 182v2s18 1 27-10c1 0-12 2-17 5 0 0 3-4 12-8s14-7 15-9c0 0-12 4-18 4l-2 1-11 7 6-2s-3 8-12 10z"/>
  <path fill="#5a3719" d="M531 192s-2 2-1 2c1 1 2 1 6-1 3-3 12-11 7-11 0 0-7 0-7 4s-5 6-5 6zm-16-2s5 2 3 4c0 0 14-11 10-14s-7 2-6 3h2a77 77 0 01-9 6zm-3-4l3 2c0 1 9-6 7-10-2-1-6-2-7 1 0 3 5 0 3 2-2 3-6 4-6 5zm32-7s-2 2 0 3l4-2 6-6 4-3c2-1 13-7 20-13 6-6 4-5 11-8s11-8 13-12l-6 3a243 243 0 01-11 6l-4 2-4 5-24 17a335 335 0 00-9 8z"/>
  <path fill="#aa5323" d="M530 183h6c3 0 17-14 22-17a342 342 0 0018-14l4-4 6-3c4-2 21-12 20-18l-31 20a375 375 0 01-25 18l-10 8-10 10z"/>
  <path fill="#aa5323" d="M525 178s4 0 5 2c0 0 10-7 12-10 2-2-1-1 5-5a594 594 0 0027-19l12-8c4-3 20-10 18-17l-14 10c-3 1-4 0-7 3l-9 7a161 161 0 01-15 11l-18 13a603 603 0 01-16 13z"/>
  <path fill="#aa5323" d="M510 177l3 1c1 0 5-4 9 0 0 0 17-12 19-15l11-7 15-10 11-10c3-2 11-7 10-11 0 0-7 3-11 8-4 4-4 0-8 4a83 83 0 01-16 12c-6 3-2 2-6 5l-5 2a10 10 0 00-5 3l-10 7a107 107 0 00-17 11z"/>
  <path fill="#aa5323" d="M516 168s-1-2 0-3c2-2 5-5 5-7 1-3 0-2 5-4a188 188 0 0038-22l9-6s0 3-2 4a222 222 0 01-21 15 77 77 0 00-10 6c-2 1-1 2-10 6l-9 5 6-2 11-6a69 69 0 017-5 296 296 0 0018-12l6-3c0 1 2 1 0 2l-9 8-10 5-3 4-7 3c-3 1-4 3-6 5l-19 10v-3z"/>
  <path fill="#aa5323" d="M570 132v2s3 2 5-1a107 107 0 0113-10c2-1 4-3 4-5 0 0-12 6-22 14zm16-1l6-5 11-8s2 2-1 4a312 312 0 00-11 7c-1 1-2 2-5 2z"/>
  <path fill="#7b3c20" d="M499 163s-5 3-3 4c2 2 4 1 5 1l3-1 6-3 6-6c2-2 3-3 3-5l-20 10zm-28 22s3-2 8-1l-1-1 7-4 2-3c1-1 9-7 8-8l-2-4s-1 2-9 6c-7 4-15 6-21 14s-6 13 2 15c0 0 5-3 17-2 13 1 17 6 18 6 1 1 3 4 1 9 0 0 2 2 2-1l1-1c1 0 2 0 1-2a18 18 0 00-2-7c-1-1 0-1 1-1 1 1 3 3 2-1-2-4-2-2-2-2s-1 1-4-1a27 27 0 00-9-5c-2 0-1 0 1-1l3-2-3-1a13 13 0 00-12 2s1-4-2-4c-4 0-7 0-10 3 0 0-1-4 3-7 4-2 3-1 5-1 2-1 3-3 2-4 0 0 4 1 12-6 0 0-4 6-9 7 0 0-1 3-6 4s-4 3-4 4z"/>
  <path fill="#5a3719" d="M457 213s2-14 16-15c11-1 15 0 17 1s8 2 6 4l-4 2s3-3 0-4c-2 0-2 1-2 2l-2 4s-1-2-3 0 0 1 1 1h1c0 1-1 3-4 4-3 2-2 2-6 2-3 1-6 2-10 6-4 3-9 2-10-2v-5z"/>
  <path d="M472 212s1-3-1-4c0 0-7 1-9-1 0 0 8 0 12-2 5-2 3-3 2-3-2-1-5 0-5 2v-3a5 5 0 015-1c2 1 3 1 8-1 1 0 4 0 4 2l-1 4-1 1c-1-1-2-1-2 1a9 9 0 01-3 4s1-5-3-6l-5 2s3 3-1 5z"/>
  <path fill="#5a3719" d="M479 204s-1-2 1-2 4 1 4 3c-1 1-3 1-5-1z"/>
  <path fill="#fff" d="M593 182s-4 1-1 3l8 5c2 0 5 1 5 4s-1 3-2 5 1 2 3 1l4-2c1 0 3 0 2 1l-2 1 19-1c3 0 7-1 7-5l2-2v-1l-3 1v-1l3-1 1-2c-1-1-2-1-1-2 0-1 1-3-2-2-2 1-7 5-10 5l-7 2-8 3c-4 2-3-1-3-1s1 2 5-1c3-3 2 0 10-3 9-2 7-3 10-4 3-2 6-2 4-4-2-3-3-3-5 0a35 35 0 01-16 6s18-8 16-9a21 21 0 00-5-3l-5 1-4 2-7 2-8 4s2-3 9-5l11-5h-4c-2 0-1-1-6 1l-6 2-7 3 3-2c1-1-1-1 2-1h1a32 32 0 009-3c-1-1-5-1-10 1l-4 2-6 3-2 2z"/>
  <path fill="#5a3719" d="M483 202l2 2 1-1c0-1-1-3-2-2l-1 1z"/>
  <path fill="#7b3c20" d="M478 226l7-1s-2-5 1-4h2l-1-4 5 1s-2-4 0-7a7 7 0 004 3v-2h3c2 1 3-7-1-9l-5 2c-4 1-4 2-5 5s-3 2-6 5c-3 2-5 6-5 6l1 5z"/>
  <path fill="#999" d="M603 178c1 0-1-1 2-1h1a32 32 0 009-3c-1-1-5-1-10 1l-4 2-6 3-2 2s-4 1-1 3l8 5c2 0 5 1 5 4a7 7 0 01-2 5c-1 2 1 2 3 1l4-2c1 0 3 0 1 1-1 1-3 1-1 1l19-1c3 0 7-1 7-5l2-2v-1l-3 1v-1l3-1 1-2-1-1h-2a28 28 0 01-7 2l-7 3c-3 2-8 4-9 1l-2 1c-4 2-3 0-3-1 0 0-2 2-2 0s2-1 4-2 5-2 3-3c-1-1-2 1-4 2-1 1-4 1-5-1 0-2 0-4-4-4s-4-3-3-4l6-3z"/>
  <path d="M616 197l11-4h1a179 179 0 00-12 4zm1 1s7-2 8-1c2 1 0 0-1 1h-7c-1 0 0 0 0 0zm11-2h2l-2 1v-1z"/>
  <path fill="#fff" d="M446 256s0-6 3-9 18-19 20-23c0 0 2 1 2 4 0 0 2-5 4-6 0 0 2 2 2 5 0 0 3-2 9-2l-2 4h12s-11 6-8 6h6s-3 4-9 4c0 0 7 0 8 2 0 0-6 1-12 5v-2s0 2-2 3l-6 5c-2 1-4 4-7 4 0 0 1-2-1-3a6 6 0 00-6 2h-10l3-2c2 0 8 1 8-3 1-4-3-3-2-6l2-2s-2 0-3 3a11 11 0 01-4 6 15 15 0 00-5 5h-2z"/>
  <path fill="#fff" d="M453 252l2-1c2 0 2-1 2-2l1-3 1 1c0 1 3 6-6 5z"/>
  <path fill="#999" d="M448 248c0 4 5 2 5 2a21 21 0 00-4 4c1-2-3-2-3-2a12 12 0 012-4zm19-22l2-2s2 1 2 4c0 0 2-5 4-6 0 0 2 2 2 5 0 0 3-2 9-2l-2 4h11s-10 6-7 6h6s-3 4-9 4c0 0 7 0 8 2l-4 1s-2-2-8-1l8-4s-1-2-4 0c0 0-5-3-1-6 0 0-2-1-4 1 0 0 0-3 2-4 0 0-6-1-7 3v-3l-5 4-3-6m-10 26h-4l1-1 3 1"/>
  <path d="M467 237l3 3 3-3s2 1 2 3l2-2 4 1v-4h3s-1-2 5-4l-6 3-3-1v5l-3-1-1 1-3-3-3 3-3-1z"/>
  <path fill="#ffc221" d="M453 267l3-1c2-2 9-6 9-9 1-4-2-4-4-3s-1 3-1 4c0 0 0 3-3 6l-4 3z"/>
  <path fill="#ffc221" d="M452 268s-5-2-1-4 7-3 7-5c1-2 1-2-1-1s-8 4-9 1h6c3-2 6-2 4-3a37 37 0 00-11 0l-2 2-2 5s-2 4 1 5a9 9 0 008 0z"/>
  <path d="M450 257l-1 1h2l-1-1z"/>
  <path fill="#fff" d="M452 267s-3-1 0-2l6-4-7 6z"/>
</svg>
