<svg xmlns="http://www.w3.org/2000/svg" id="flag-icons-ba" viewBox="0 0 640 480">
  <defs>
    <clipPath id="a">
      <path d="M-85 0h682v512H-85z"/>
    </clipPath>
  </defs>
  <g fill-rule="evenodd" clip-path="url(#a)" transform="translate(80) scale(.9375)">
    <path fill="#009" d="M-85 0h682v512H-85V0z"/>
    <path fill="#FC0" d="M57 0l511 512V0H57z"/>
    <path fill="#FFF" d="M440 482l-28-21-29 20 11-33-28-20h35l11-34 11 34h35l-28 21 10 33zm81 10h-35l-11-34-10 34h-35l28 20-11 33 29-20 28 20-11-33 28-20zM366 385l28-21h-35l-11-33-11 33h-35l28 20-10 34 28-21 28 21-10-33zm-65-65l28-20-35-1-10-33-11 33h-35l28 21-11 33 29-20 28 20-11-33zm-63-63l28-21h-35l-11-33-11 33h-35l28 20-10 33 28-20 28 20-10-33zm-65-65l28-20h-35l-10-34-11 33h-35l28 21-11 33 29-20 28 20-11-33zm-63-64l28-20h-35L92 74l-11 34H46l28 20-10 33 28-20 28 20-10-33zM46 64l28-20H39L28 10 17 44h-35l28 20-11 33 29-20 28 20-10-33zM-18 0L9-20h-35l-10-34-11 34h-35l28 20-11 33 29-20 28 20-10-33z"/>
  </g>
</svg>
