<svg xmlns="http://www.w3.org/2000/svg" id="flag-icons-bm" viewBox="0 0 640 480">
  <path fill="#cf142b" d="M0 0h640v480H0z"/>
  <path fill="#fff" d="M560 131v161c0 43-86 57-86 57s-87-14-87-57V131h173z"/>
  <path fill="#2f8f22" d="M560 292c0 43-86 57-86 57s-87-14-87-57c0 0 0-3 2-5 0 0-1 7 4 12 0 0-4-8 0-15 0 0-1 10 5 15 0 0-3-8 0-16 0 0-2 14 5 17 0 0 2-9-1-14 0 0 5 2 4 14 0 0 2-2 2-10 0 0 0 10 4 12 0 0 1-1-1-6-1-4 1-6 1-6s0 5 4 9c0 0-2-8 0-9 0 0 0 7 5 8 0 0 1-2-1-4v-4s2 6 4 7v-7s0 5 5 7c0 0-3-4-2-8l29 1 15 1 44-3 8-7s3 4-2 11c0 0 5-1 7-8 0 0 2 4-1 8 0 0 5-5 6-11 0 0 2 6-3 12 0 0 4-2 6-8 0 0 2 4-3 9 0 0 9-4 8-13 0 0 4 5 0 12 0 0 4-4 4-9 0 0 3 2 0 9 0 0 5-5 6-10 0 0 1 5-3 11 0 0 3-1 5-7 0 0 1 3-1 7 0 0 2 0 4-6v6s2-1 2-7a9 9 0 002 4v1z"/>
  <path fill="#d40000" stroke="#000" stroke-linejoin="round" d="M515 199l-7-1h-6s1-3-2-6c0 1 1 4-1 5h-2l-2-3s3-1 2-4c0-3-2-4-3-4a6 6 0 000 2s-3-2 1-5c5-2 4-4 3-5a13 13 0 00-3-4l1 3c-1 1-3 2-2 0v-4s4 1 6-3c0 0 1-5-4-7v3s-1 3-2 1l-2-4s5 0 3-5c0 0 0 4-7-1 0 0 4-4 3-8h-5s4-3 2-5c0 0-1-1-4 1 0 0 1-3-3-5l-3 2-4-4s-3 1-4 4c0 0-1-2-4-2 0 0-1 2 1 5l-4-2s-3-1-3 2l1 4s-6-2-6 2a9 9 0 003 6s-3 5-6 1c0 0-2 1 1 4 0 0 2 3 0 4 0 0-2 2-4-2 0 0-4 5 1 8 0 0 3 1 7-1 0 0-1 8-4 6 0 0-2-1 1-3 0 0-5 0-6 4 0 0 0 4 4 5 0 0 3 1 0 4 0 0-3 1-1 4 0 0 2 3-3 3h-3l-1 4s-2-2-7 0l-5 1-2 3 3 3-1 4 2 1 11-5 11-6 9 1 5 1h7l6-2h7l9 4 9 6 5 1 4-1v-8z"/>
  <path fill="#d40000" stroke="#000" stroke-linejoin="round" d="M428 208s4 2 6-1c0 0 2-4-3-6 0 0 3-3 0-6h-4s-1-3-4-3l-3 3s-3-1-5 1c0 0-3 3 2 5l2 1 3-2 4 1s-1 3 2 7z"/>
  <path fill="#64b4d1" stroke="#000" d="M522 200a7 7 0 017 4c2 6-3 10-3 10v3c8 1 6 9 6 9l-2-2c-5-1-10 3-13 9-3 7-2 9-1 17s13 13 13 13l-10 25c-4 10-12 6-14 3-2-2-3 0-4 0-1 1 5 6-7 11-11 5-13 8-15 10-2 1-10 0-11-1l-4-3-13-6c-6-3-6-6-6-7s2-6-4-2c-7 5-12-2-12-2-2-2-7-16-7-16a92 92 0 00-5-12l5-2c5-3 7-8 9-12 1-5 0-13-1-14-1-2-4-9-9-11-4-1-7 3-7 3s-1-9 6-10l1-3s-6-4-3-10c0 0 2-4 7-4l-1 3s-2 12 17 4c18-9 18-10 28-5h8s11-5 15-3l16 9s12 5 15-4z"/>
  <path fill="#fff" stroke="#00247d" stroke-miterlimit="10" d="M466 255l-1-6s-2-4 1-7l2-4 4-2 3-1s3-4 8 0c0 0 2-3 5-3 0 0 3-1 5 1 0 0 3-3 6 2 0 0 4-3 7 2 0 0 4-2 7 2l2 6 2 7 6 8-15 6h-7l-14 3-24 2-7-8 10-8z"/>
  <path fill="#d40000" stroke="#000" stroke-linejoin="round" d="M445 296l-5 1-6 3h-5s-7-1-7 4c0 0-9 1-5 9 0 0 2 6 7 1 0 1-3 5 3 7 0 0 5 1 6-4 0 0 1-1-1-4l4-2s-5 5 0 8c0 0 6 1 7-5 0 0-1-4 2-5 0 0 5-1 7-6 0 0-7-4-7-8zm-14-58s-6-2-9 0c0 0-3-2-7 0l-7 5-1 7 1 5s-1-1-4 2c0 1-3 4-6 1 0 0 1 4 6 4 0 0-2 2 0 7 0 0 1 3-1 8 0 0 4-2 4-7l1-6s-1 2 2 7c0 0 2 3 0 7 0 0 5-2 4-7 0-5-3-3-1-8l2 4a7 7 0 012 7s3-4 2-7a13 13 0 00-1-4l8-5 5-8z"/>
  <path fill="none" stroke="#000" stroke-miterlimit="10" d="M418 260s-4-1-4-3m-6-2l2 1 2 1"/>
  <path d="M423 249l-3-1-1 1v2s3 1-1 3c0 1 4-1 3-3l-2-2h4z"/>
  <path fill="#784421" stroke="#000" d="M478 259l2-1-14-48h-1z"/>
  <path d="M431 312s-3-2-6 1c0 0 1-2 3-2 0 0 1-3 4-3l-3 3 2 1z"/>
  <path fill="#64b4d1" stroke="#00247d" stroke-miterlimit="3" d="M420 320s-6-3-3-9l3-1s3 1 0 5v5zm10 5s-7-3-5-9l2-2s3 0 3 4v7z"/>
  <path d="M429 304l-3 2-3-1h3l3-1z"/>
  <path fill="#64b4d1" stroke="#00247d" stroke-miterlimit="3" d="M435 324s6-2 5-8c0 0-1-2-3-2 0 0-3 1-1 5 0 0 1 2-1 5z"/>
  <path fill="#f5ce00" stroke="#000" stroke-miterlimit="3" d="M462 197l5 2s6 2 13 0l5-2-4 5v3l2 3s-1 1-5-2c0 0-4-3-10 0l-5 2 4-4-2-3-3-5z"/>
  <path fill="#fff" d="M438 317v-1h-1v5l1-1-1-1 1-3z"/>
  <path fill="#d40000" stroke="#000" stroke-linejoin="round" d="M518 208s-4 2-6-1c0 0-2-4 3-6 0 0-3-3 0-6h4s1-3 4-3l3 3s3-1 5 1c0 0 3 3-1 5l-3 1-3-2-3 1s1 3-3 7z"/>
  <path fill="#f5ce00" stroke="#000" stroke-miterlimit="3" d="M485 204l-1 1h-1v-1s-1-2 1-3c0 0 2-2 7 0a192 192 0 0015 8l8 2s7 0 10-4c0 0 2-4 0-6l-3-1a3 3 0 00-2 1s-1 2 1 3c0 0 1 1 2-1l-1 3s-4 6-15-1l-14-8s-7-3-11 2c0 0-4 5 1 8 0 0 3 2 5-1 0 0 2-3-1-4 0 0-2-1-3 1s2 3 2 1c0 0 0 0 0 0z"/>
  <path fill="#e4cb5e" stroke="#000" stroke-miterlimit="3" d="M428 229v-9l1-2c1-1 2-2 4 2l4-4s2-2 3 0l3-3s4-2 4 4l2-2s2-2 4 1l4 4 1 3 1 3 3 1s2 0 3 3l2 11v21l-15 18-23-7-9-4-2-7 9-5 5-13-2-10-2-5z"/>
  <path fill="#784421" stroke="#000" d="M492 240l1-1 2-2 5 13v3s6 1 7 10l-5 10-8-5-2-1v-26z"/>
  <path fill="#fff" d="M418 312s-2 2 0 5v-1-4z"/>
  <path fill="none" stroke="#000" stroke-miterlimit="10" d="M442 311l-1-2v-1m6-91v4l3 6"/>
  <path fill="#d40000" stroke="#000" stroke-linejoin="round" d="M501 296l6 1c2 0 3 1 5 3h5s7-1 7 4c0 0 9 1 6 9 0 0-3 6-8 1 0 1 3 5-3 7 0 0-4 1-5-4 0 0-1-1 1-4 0 0-3 0-4-2 0 0 5 5 0 8 0 0-7 1-7-5 0 0 0-4-2-5 0 0-5-1-7-6 0 0 7-4 6-8z"/>
  <path fill="none" stroke="#000" stroke-miterlimit="10" d="M444 227l6 48m-5-48l7 45m-6-45l8 44"/>
  <path fill="#784421" stroke="#000" d="M459 268l2-1-14-48h-1z"/>
  <path fill="none" stroke="#000" stroke-miterlimit="10" d="M451 225l14 36m-15-35l13 37"/>
  <path fill="#fff" d="M428 322s-2-2-2-5c0 0-1 3 1 5h1z"/>
  <path fill="none" stroke="#000" stroke-miterlimit="10" d="M452 225l14 32m-18-30l9 43"/>
  <path fill="#f5ce00" stroke="#000" stroke-miterlimit="3" d="M520 259c-6-4-8-11-8-11a25 25 0 012-15c4-8 11-10 11-10s-7 5-9 11v11l1 8 3 6z"/>
  <path fill="#784421" stroke="#000" d="M493 239l-27 8-1 12c-7 9-20 11-20 11l11 11 19 4 10-8 9-9-1-11 1-4s-2-10-1-14z"/>
  <path fill="none" stroke="#000" stroke-miterlimit="10" d="M465 256l28-10m-36 20s22-4 37-13l6-3"/>
  <path fill="none" stroke="#000" stroke-miterlimit="10" d="M500 253l-6 4s-25 11-44 12m43-4s-18 10-29 10"/>
  <path fill="#d40000" stroke="#000" stroke-linejoin="round" d="M516 238s5-2 8 0c0 0 4-2 8 0l6 5s2 2 1 7v5s1-1 3 2c0 1 4 4 6 1 0 0 0 4-6 4 0 0 3 2 1 7 0 0-2 3 1 8 0 0-5-2-5-7 0 0 1-4-1-6 0 0 2 2-1 7 0 0-3 3-1 7 0 0-4-2-4-7 1-5 3-3 2-8l-2 4a7 7 0 00-3 7s-2-4-2-7l2-4-9-5-4-8z"/>
  <path fill="#fff" stroke="#00247d" stroke-miterlimit="10" d="M421 268s0-3 4-2c0 0 1-6 8-6 6 0 6 6 6 7 0 0 2-3 6-3 0 0 5 0 3 9l1 1s4-10 13-8c0 0 8 3 3 11 0 0 4 6 7 5 4 0 7-1 11-8 3-6 11-7 13-6 2 0 4 1 4 3 0 0 5-15 20-13l6 4 3 1-4 10-8 19-7 2-7-4-2 1v6l-9 7-6 2-7 5-2 4s-3-2-8 0l-1-4-4-3-16-8-2-9-3-1-4 4h-4l-7-4-7-21z"/>
  <path fill="none" stroke="#000" stroke-miterlimit="3" d="M488 198s-6 0-6 6"/>
  <path fill="#f5ce00" stroke="#000" stroke-miterlimit="3" d="M527 263c-10-3-13-14-13-14a26 26 0 011-15c5-11 13-11 13-11a4 4 0 014 3c1 2-1 3-1 3-3 2-4 0-4 0-2-2-1-3-1-3l2-1c2 0 1 2 1 2s1-2-1-2c0 0-3-1-7 4 0 0-4 6-4 14 0 0-1 15 14 18l-4 12-7 17s-4 9-14 5c0 0-5-2-5-6 0 0 0-4 3-4 0 0 3-1 3 2 0 0 0 3-3 2 0 0-2 0-1-1l1-1c2 1 0 0 0 0h-1v2l2 1 3 2a8 8 0 007-1 11 11 0 003-4 113 113 0 005-14l4-9z"/>
  <path fill="#f5ce00" stroke="#000" stroke-miterlimit="3" d="M498 291s2 0 2 2c0 0 0 2-3 2 0 0-3-1-2-4 0 0 1-3 3-2 0 0 3 0 4 4v6c-2 3-6 5-9 6l-11 5s-4 3-2 5l2 2 1-2-1 1h-2v-2s1-2 4-1c0 0 2 1 1 3 0 0-1 3-3 2l-4-1c-2-2-2-6 0-8l5-3 9-4c3-1 5-2 6-4 0 0 2-1 2-4 0 0 1-2-1-2l-1-1z"/>
  <path fill="none" stroke="#000" stroke-miterlimit="3" d="M498 291s2 0 4 3v2m1-9s-2 0-1 3 3 4 4 5"/>
  <path fill="#f5ce00" stroke="#000" stroke-miterlimit="3" d="M462 204l1 1h1v-1l-1-3s-3-2-8 0l-7 4-8 4s-3 2-8 2c0 0-6 0-9-4 0 0-2-4 0-6l2-1 2 1v3s-2 1-2-1v3s4 6 15-1l14-8s8-3 12 2c0 0 3 5-1 8 0 0-3 2-6-1 0 0-1-3 1-4 0 0 3-1 4 1s-2 3-2 1c0 0 0 0 0 0zm-36 55c7-3 8-11 8-11 2-8-1-15-1-15-4-8-11-10-11-10s6 5 8 11c0 0 2 6 1 11l-2 8z"/>
  <path fill="none" stroke="#000" stroke-miterlimit="3" d="M458 198s6 0 6 6"/>
  <path fill="#f5ce00" stroke="#000" stroke-miterlimit="3" d="M419 263c11-3 13-14 13-14a26 26 0 00-1-15c-5-11-13-11-13-11a4 4 0 00-4 3l1 3c3 2 5 0 5 0v-3l-2-1-1 2 1-2s4-1 7 4c0 0 5 6 5 14 0 0 1 15-15 18l5 12 6 17s5 9 14 5c0 0 6-2 6-6 0 0 0-4-3-4 0 0-4-1-4 2 0 0 0 3 4 2l1-1-2-1c-1 1 0 0 0 0h1l1 1-1 1-1 1-3 2a8 8 0 01-7-1 11 11 0 01-3-4 114 114 0 01-6-14l-3-9-1-1z"/>
  <path fill="#f5ce00" stroke="#000" stroke-miterlimit="3" d="M449 291s-2 0-2 2c0 0 0 2 3 2 0 0 3-1 2-4 0 0-1-3-4-2 0 0-3 0-4 4 0 0-1 3 1 6s6 5 8 6l11 5s4 3 3 5l-2 2-1-2v1h2v-2s-1-2-3-1c0 0-2 1-1 3 0 0 0 3 3 2l3-1c2-2 2-6 0-8l-4-3-9-4-7-4-2-4 1-2 1-1z"/>
  <path fill="none" stroke="#000" stroke-miterlimit="3" d="M448 291s-2 0-3 3l-1 2m-1-9s2 0 1 3l-3 5m27-91s5-4 11 0m-40 31s1-3-3-8l-3-7m7-4l3 7 3 7"/>
  <path fill="none" stroke="#000" stroke-miterlimit="10" d="M441 238s2 2 2 6m-8-8s2 1 2 7c0 0 0 4 3 6m-6 1s7 0 8 4c0 0 0 4 2 4 0 0 3 0 4 4m-11-7l2 3m6-7l2 4m6-35l3 3m3 9s3 2 3 10c0 0-1 5 1 8"/>
  <path fill="#784421" stroke="#000" d="M443 227h1s6 1 9-3l-1-1s-5-1-9 4z"/>
  <path fill="none" stroke="#000" stroke-miterlimit="10" d="M465 259l28-10"/>
  <path fill="#784421" stroke="#000" d="M463 221l-1-1 10-4 1 1z"/>
  <path fill="none" stroke="#000" stroke-miterlimit="10" d="M463 220l7 33m-5-33l7 33m-6-34l8 33m-5-34l12 25m-10-25l12 24m-11-25l13 24m-15 13l5-2m-9-1l27-10m-28 11s20-5 28-9m-22 25l1 3 3-1-1-3m5-1l1 3 3-1-1-3m-16-18v-4l25-8 2 4m-16 1l1 4m8-7l1 4m1-5l1 4m1-4l1 3m0-4l3-1 1 3m-2-2l1 3"/>
  <path fill="none" stroke="#00247d" stroke-miterlimit="10" d="M430 283s-5-5 0-10c0 0-6-2-5-7m13 21s-5 1-3-9l-3 6a5 5 0 002 5c1 1 5 2 7-1m-8-16s-2 2-1 5m3-5s0 4 2 6m-1-7s0 4 3 6m-1-8s0 5 3 8m14-1s1-4 5-3c0 0-2 0-2 2 0 0 0 3 3 3 0 0 2 1 4-1"/>
  <path fill="none" stroke="#00247d" stroke-miterlimit="10" d="M463 293s-9-4-8-10c0 0 1-4 4-5m-2 3s-1 3 1 5m1-6s-1 3 1 5m1-7s-1 3 1 5m-9 11s5 4 9 4m-10-3l7 4m-9-3s6 5 9 5m14 5s-6 3-1 6m-3-9l9-5m-6 6l11-6m-7 7l12-8m-7 7l11-7m2-5s-3-4-12 0l10-5m8-16v5M487 286s1-3 6-4c0 0 1 3 5 2 0 0 5-1 3-7 0 0-1-4-7-5m18-7s6 1 6 6c0 0 1 8-7 9m6-12s2-3 6-5m-5-2l3 3m-4-1l2 3m-2-1a8 8 0 001 2m-33-31s1-2 4-1m12 15s2-7 9-5m-3 0s1-4-1-6m-3 6v2"/>
  <path fill="#64b4d1" stroke="#00247d" stroke-miterlimit="3" d="M516 325s8-3 5-9c0 0 0-2-2-2 0 0-3 0-2 4 0 0 1 4-1 7z"/>
  <path fill="#fff" d="M519 322s1-2 1-5h1s0 3-2 5z"/>
  <path fill="#64b4d1" stroke="#00247d" stroke-miterlimit="3" d="M527 320s5-3 2-9l-2-1s-3 1-1 5l1 5z"/>
  <path fill="#fff" d="M528 312s2 2 1 5h-1v-1s1-2 0-4z"/>
  <path fill="#64b4d1" stroke="#00247d" stroke-miterlimit="3" d="M511 324s-6-2-5-8c0 0 1-2 3-2 0 0 3 1 1 5 0 0-1 2 1 5z"/>
  <path fill="#fff" d="M509 317v-1 5-2-3z"/>
  <path d="M515 312s4-2 6 1c0 0 0-2-2-2 0 0-1-3-4-3l3 3-3 1zm3-8l3 2 2-1h-2l-3-1z"/>
  <path fill="none" stroke="#000" stroke-miterlimit="10" d="M505 311v-2-1m24-48s3-1 4-3m6-2l-2 1-2 1"/>
  <path d="M524 249l2-1 2 1s1 1-1 2c0 0-2 1 2 3 0 1-5-1-3-3 0 0 2-1 1-2h-1-2z"/>
  <path fill="#64b4d1" stroke="#00247d" stroke-miterlimit="3" d="M526 206l1-5c-1-3 2-4 3-3v3a8 8 0 01-4 5z"/>
  <path fill="#fff" d="M527 203s1-1 1-4v4h-1z"/>
  <path fill="#64b4d1" stroke="#00247d" stroke-miterlimit="3" d="M525 204l-2-3c-3-3-1-5 1-5l2 3a8 8 0 01-1 5z"/>
  <path fill="#fff" d="M525 201l-2-3s2 1 2 3v0z"/>
  <path fill="#64b4d1" stroke="#00247d" stroke-miterlimit="3" d="M522 203l-3-2c-3-1-3-3-1-4l2 1a8 8 0 012 5z"/>
  <path fill="#fff" d="M521 201l-4-2s3 0 4 2v0z"/>
  <path fill="#64b4d1" stroke="#00247d" stroke-miterlimit="3" d="M524 204l-5-1c-3-1-4 2-3 3l2 1a8 8 0 006-2z"/>
  <path fill="#fff" d="M517 205h4v1h-5 1z"/>
  <path fill="none" stroke="#000" stroke-miterlimit="3" d="M519 195l1 2"/>
  <path fill="none" stroke="#000" stroke-miterlimit="10" d="M526 195v3"/>
  <path fill="#64b4d1" stroke="#00247d" stroke-miterlimit="3" d="M420 206v-5c0-3-3-4-4-3v3a8 8 0 004 5z"/>
  <path fill="#fff" d="M419 203v-4h-1l1 4s0 1 0 0z"/>
  <path fill="#64b4d1" stroke="#00247d" stroke-miterlimit="3" d="M421 204l3-3c2-3 0-5-1-5 0 0-2 0-2 3a8 8 0 000 5z"/>
  <path fill="#fff" d="M422 201l2-3h-1s-2 1-2 3v1l1-1z"/>
  <path fill="#64b4d1" stroke="#00247d" stroke-miterlimit="3" d="M424 203l4-2c3-1 2-3 1-4l-3 1a8 8 0 00-2 5z"/>
  <path fill="#fff" d="M426 201l3-2s-3 0-4 2v1l1-1z"/>
  <path fill="#64b4d1" stroke="#00247d" stroke-miterlimit="3" d="M423 204l4-1c3-1 4 2 4 3l-3 1a8 8 0 01-6-2z"/>
  <path fill="#fff" d="M430 205h-4v1s2 1 4 0z"/>
  <path fill="none" stroke="#000" stroke-miterlimit="3" d="M427 195s-1 0-1 2"/>
  <path fill="none" stroke="#000" stroke-miterlimit="10" d="M420 195v3"/>
  <path d="M487 178v5l1 3c1 0 3 0 3-2 0 0 2 4-2 6 0 0-3 2-5 0l-1-5v-6l1 5s-1 6 4 6c0 0 3 0 3-4 0 0-1 2-3 1a2 2 0 01-2-3l1-6zm-5 9s0 5-5 6v-3l-1-4v8s7-1 6-7zm-6-4l-1-4-1-4 1 4a7 7 0 000 3s-2 0-4-3c-1-4-3-3-3-3l2 3c2 3 2 3 6 3zm-10-7l1 4-4-3s-3 1-2 5c0 0-3-1-4-4 0 0 1 2 3 2 0 0 0-3 3-4 1 0 1 3 3 3zm5-6l3 2a4 4 0 003-2s0 3-3 3c0 0-3 0-3-3zm-14 19l2 1s1 2 2 0c0 0 1-2 3-2l-2 3-2 1-1-1-2-2zm17-30c-3 0-1 3-1 3 0 4-3 5-5 4s0-4 0-4-3 1-1 4c1 2 5 1 7-1 1 2 6 3 7 1 2-3-1-4-1-4s2 3 0 4-6 0-6-4c1 0 3-3 0-3zm2-4l1 5s1-3-1-5zm-10 4s0-2-3-2l3 2zm16 0s0-2 2-2l-2 2zm-19 4l2-1zm-6-13s2-1 4 2l-2 2 1-2-3-2zm32 0s-2-1-4 2l3 2-1-2 2-2zm-14 2l3-1h5s-2-1-5 1h-3z"/>
  <path fill="#fff" d="M476 154s2-3 6-2c0 0-1 3-6 2z"/>
  <circle cx="479" cy="153" fill="#784421" r="1"/>
  <circle cx="479" cy="153" r="1"/>
  <path d="M467 148l4 1h4l4-3-5 3-1-3 2-2s-3 0-3 2a7 7 0 001 3l-2-1h-4zm7 17c-2 2 0 2 0 2s2 0 0-2zm-1-13l-4-1h-5l5 1s3 2 4 0z"/>
  <path fill="#fff" d="M471 154s-2-3-6-2c0 0 1 3 6 2z"/>
  <circle cx="468" cy="153" fill="#784421" r="1"/>
  <circle cx="468" cy="153" r="1"/>
  <path fill="none" stroke="#000" d="M560 131v161c0 43-86 57-86 57s-87-14-87-57V131h173z"/>
  <path fill="#006" d="M0 0h320v240H0z"/>
  <path fill="#fff" d="M38 0l122 91L281 0h39v31l-120 90 120 89v30h-40l-120-89-119 89H0v-30l120-89L0 32V0z"/>
  <path fill="#c8102e" d="M212 141l108 79v20l-135-99zm-92 10l3 17-96 72H0zM320 0v2L196 96l1-22 98-74zM0 0l120 88H90L0 21z"/>
  <path fill="#fff" d="M121 0v240h80V0zM0 80v80h320V80z"/>
  <path fill="#c8102e" d="M0 97v48h320V97zM137 0v240h48V0z"/>
</svg>
