<svg xmlns="http://www.w3.org/2000/svg" id="flag-icons-br" viewBox="0 0 640 480">
  <path fill="#229e45" fill-rule="evenodd" d="M0 0h640v480H0z"/>
  <path fill="#f8e509" fill-rule="evenodd" d="M321 436l302-196L320 44 17 241l304 195z"/>
  <path fill="#2b49a3" fill-rule="evenodd" d="M453 240c0 70-57 127-128 127a127 127 0 11128-127z"/>
  <path fill="#ffffef" fill-rule="evenodd" d="M283 316l-4-2-4 2 1-4-3-4h5l2-4 2 4 4 1-3 3m86 26l-4-2-4 2 1-5-4-3 5-1 2-4 2 4 4 1-3 3m-36-30l-4-2-3 2 1-4-3-3h4l2-4 1 4 4 1-3 2m87-8l-3-2-4 2 1-4-2-3h3l2-4 2 4h4l-3 3m-88-22l-4-2-4 2 1-5-3-3 5-1 2-4 2 5h4l-3 4m-105-35l-4-3-4 2 1-4-3-4h4l2-4 2 4 5 1-3 3m13 57l-4-2-4 2 1-5-3-3 4-1 2-4 2 5h5l-4 4m132-68l-3-2-4 2 1-4-3-3h4l2-4 2 4h4l-3 3m-7 38l-3-1-3 1 1-3-2-2 3-1 1-2 2 3h3l-2 2m-143 51l-2-2-3 1 1-3-3-2h3l2-3 1 3 3 1-2 2m200 15l-2-1-2 1v-3l-2-1 3-1 1-2 1 2 3 1-2 1"/>
  <path fill="#ffffef" fill-rule="evenodd" d="M219 288l-2-2-3 1 1-3-3-2h3l2-3 1 3 3 1-2 2"/>
  <path fill="#ffffef" fill-rule="evenodd" d="M219 288l-2-2-3 1 1-3-3-2h3l2-3 1 3 3 1-2 2m42 3l-2-2-3 1v-3l-2-2h3l2-3 1 3h3l-2 3m-5 17l-3-2-2 1v-3l-2-2h3l2-3 1 3h3l-2 2m87-22l-3-1-2 1v-3l-2-2 3-1 2-2 1 3h3l-2 2m-26 3l-2-1-3 1 1-3-2-2 3-1 1-2 1 3h3l-2 2m-69-6l-1-1-2 1v-2l-1-1h2l1-2v2h2l-1 1m168 46l-3-2-3 2 1-3-2-3h3l1-3 2 3 3 1-3 2m-20 6l-3-2-2 1 1-2-2-2h2l2-3 1 3h2l-2 2m11 2l-2-1-3 1 1-2-2-2h2l2-2 1 2h2l-2 2m29-23l-2-1-2 1 1-2-2-2h3l1-2 1 2h2l-2 2m-39 42l-2-2-3 2 1-3-2-2 3-1 1-2 1 3h3l-2 2m0 14l-2-1-2 1v-3l-2-2h3l1-3 1 3h3l-2 2m-19-23l-2-1-2 1 1-2-2-2h2l1-2 1 2h2l-1 2m-18 2l-2-1-2 1 1-2-2-2h2l1-2 1 2h2l-1 2m-31-25l-2-1-2 1 1-2-2-2h2l1-2 1 2 3 1-2 1m4 57l-2-1-2 1 1-2-2-1h2l1-2 1 2h2l-2 1m-46-86l-4-3-4 2 1-4-3-3 4-1 3-4 2 4 4 1-3 3"/>
  <path fill="#fff" fill-rule="evenodd" d="M444 286a125 125 0 006-20c-68-59-143-90-238-84a125 125 0 00-9 21c113-11 196 39 241 83z"/>
  <path fill="#309e3a" d="M414 252l2 2a3 3 0 000 2 3 3 0 001 2h4a1 1 0 000-1 2 2 0 00-1-1l-1-2a8 8 0 01-2-3 4 4 0 012-4 4 4 0 012-1 7 7 0 013 2l3 3a4 4 0 01-1 3l-2-1v-2l-1-2a3 3 0 00-2 0 1 1 0 00-1 0v1l1 2 2 3a4 4 0 010 4 4 4 0 01-2 2 4 4 0 01-2 0l-3-1-3-4a5 5 0 011-4zm-12-7l3 1a3 3 0 000 2 3 3 0 001 2l2 1 1-1a1 1 0 001-1l-1-1a35 35 0 00-2-2l-2-3a4 4 0 011-3 4 4 0 011-1 4 4 0 013-1 7 7 0 012 1c2 1 3 2 3 4a4 4 0 010 3l-3-1v-2l-1-2a3 3 0 00-2 0 1 1 0 00-1 0v1l2 3 2 2a4 4 0 010 4 4 4 0 01-2 2 4 4 0 01-2 0 8 8 0 01-3-1 6 6 0 01-3-3 5 5 0 010-4zm-14-4l7-12 9 6-1 2-6-4-2 2 6 4-1 2-6-4-2 3 7 5-2 2-9-6zm-21-17l2-2 5 3-2 5h-3a9 9 0 01-4-1 8 8 0 01-3-3 6 6 0 01-1-3 9 9 0 011-4 8 8 0 013-3 6 6 0 013-1l4 1 3 3a5 5 0 010 3h-3a3 3 0 000-2l-1-2a4 4 0 00-4 0l-2 2-1 4a4 4 0 002 3h2a6 6 0 002 0v-2l-2-1zm-90-22l2-14h5l1 10 4-9 4 1-2 14-3-1 2-11-5 11-2-1-1-11-2 11h-3zm-14-2l1-14 11 1v2h-8v3h7v3l-7-1-1 4 8 1v2l-11-1zM217 191v-3a7 7 0 012-2 5 5 0 011-1l3-1c3 0 4 1 5 2a7 7 0 012 6l-2 5a7 7 0 01-5 2 7 7 0 01-5-2 7 7 0 01-2-6z"/>
  <path fill="#f7ffff" d="M219 191l1 4 3 1a4 4 0 003-1l1-4-1-3a4 4 0 00-3-1 4 4 0 00-2 1l-2 3z"/>
  <path fill="#309e3a" d="M233 199v-14h9l2 1 1 3a4 4 0 01-1 2 5 5 0 01-3 1l1 2 2 2 2 3h-4l-2-3-1-2a2 2 0 00-1-1 5 5 0 00-2 0v6h-3z"/>
  <path fill="#fff" d="M236 191h2l3-1 1-1-1-1-1-1h-4v3z"/>
  <path fill="#309e3a" d="M249 185h5l3 1a5 5 0 012 1 6 6 0 011 3v3a9 9 0 010 3l-2 2a5 5 0 01-2 1l-2 1-6-1 1-14z"/>
  <path fill="#fff" d="M252 188l-1 9h5l1-2v-5a3 3 0 00-1-1 3 3 0 00-1-1 13 13 0 00-2 0h-1z"/>
  <path fill="#309e3a" d="M318 210l3-13 4 1 4 1 1 1v3l-1 2a4 4 0 01-3 2l-3-1h-1l-2 5-2-1z"/>
  <path fill="#fff" d="M323 200l-1 3 2 1h2a2 2 0 001-1v-2a2 2 0 00-1-1h-3z"/>
  <path fill="#309e3a" d="M331 214l4-13 6 2 3 1 1 2v2l-2 3h-3l1 2 1 2v3l-3-1-1-3a20 20 0 000-3 2 2 0 00-1-1h-2l-2 5-2-1z"/>
  <path fill="#fff" d="M336 207l2 1 2 1 1-1h1v-2a2 2 0 00-1-1h-2l-2-1-1 3z"/>
  <g>
    <path fill="#309e3a" d="M347 214a9 9 0 012-4 7 7 0 011-1 6 6 0 013-1l3 1a7 7 0 014 3v6a7 7 0 01-3 4l-6 1a7 7 0 01-4-4 7 7 0 010-5z"/>
    <path fill="#fff" d="M350 214v4l2 2h3l2-3v-4a4 4 0 00-2-2 4 4 0 00-3 0l-2 3z"/>
  </g>
  <g>
    <path fill="#309e3a" d="M374 233l7-12 5 2a10 10 0 013 2v4a4 4 0 01-2 2h-3l1 2v6l-3-2v-3a20 20 0 000-3 2 2 0 00-1-1l-1-1-3 5-3-1z"/>
    <path fill="#fff" d="M381 227l1 1 3 1h1v-1l1-1a2 2 0 00-1-1 24 24 0 00-2-1l-2-1-2 3z"/>
  </g>
  <g>
    <path fill="#309e3a" d="M426 259a9 9 0 013-3 7 7 0 012-1 6 6 0 012 0l3 1a7 7 0 013 5c0 1 0 3-2 5a7 7 0 01-4 4 7 7 0 01-5-2 7 7 0 01-3-4c-1-2 0-4 1-5z"/>
    <path fill="#fff" d="M429 260c-1 2-2 3-1 4a4 4 0 001 2l3 1 3-2 1-4-1-3h-3l-3 2z"/>
  </g>
  <path fill="#309e3a" d="M302 205l2-10 7 1v2l-5-1-1 2 5 1v2l-5-1-1 2 6 2-1 1-7-2z"/>
</svg>
