<svg xmlns="http://www.w3.org/2000/svg" id="flag-icons-bt" viewBox="0 0 640 480">
  <path fill="#ffd520" d="M0 0h640v480H0z"/>
  <path fill="#ff4e12" d="M0 480h640V0z"/>
  <g stroke="none">
    <g fill="#fff" stroke-width="0">
      <path d="M345 150c-4-1-6 1-6 6s3 8 7 6l-1-12z"/>
      <path d="M349 140c-3-2-7-1-8 4-2 5 0 8 4 8l4-12z"/>
      <path d="M354 131c-2-3-6-2-8 2-2 5-1 9 3 9l5-11zm-3 46c-5 1-6 8-3 12s9 5 12 0l-9-13z"/>
      <path d="M345 162c-4-1-9 5-9 11-1 7-11 9-6 20 1-7 6-11 10-11 3 0 9-1 11-5l-6-15zm15 28c-6 1-6 8-2 14 3 4 13 3 13-1l-11-13zm15 43c0-4-7-6-11-5-3 1-10 0-12-4-1 3 1 6 6 8 4 1 4 4 3 5 3 1 11 1 14-4z"/>
      <path d="M371 204c-5-3-9 1-11 4-2 5-12-1-15 6 5-2 9 2 11 3 5 4 16 3 18-6l-3-7z"/>
      <path d="M374 210c-5 4-7 9-7 12s4 10 9 11c3-6 5-18-2-23zm-22 25c0-2 3-3 5-2 2 0 5 2 4 4l-9-2zm-29-11c0-2 3-6 8-4s6 6 4 8l-12-4z"/>
      <path d="M335 228c0-1 3-3 10-2 6 2 7 6 7 9l-17-7zm-13-4c4-2 2-7-1-8-5-3-3-10-6-11-4-1-7-4-7-6-2 3-1 6 2 8 2 2-2 11 1 13l11 4zm-69-2c-2-4-9-3-11 0-3 3-3 7 0 9l11-9zm16-6c-1-6-8-6-12-5s-6 7-4 11l16-6z"/>
      <path d="M279 215c3-5-2-12-8-13-4-1-9-1-11-5-1 4 1 6 5 9 3 2-1 7 5 11l9-2z"/>
      <path d="M279 215c-2-3 1-8 5-7 5 0 8 3 6 8l-11-1z"/>
      <path d="M289 216c-1-4 2-8 7-7 4 1 6 5 4 8l-11-1z"/>
      <path d="M299 217c0-3 3-7 7-6 5 1 7 5 4 9l-11-3zm-78 59c-8 0-10 2-12 11-1 11 14 13 12-11z"/>
      <path d="M225 265c-13-5-20 16-33 12 4 7 16 0 20 1 7 1 23-2 13-13zm-8 28c-7-3-14 7-13 12 2 5 17 1 13-12zm-31 44c4 1 8 3 7 10s-14 21-26 22c-11 0-16 15-26 11 10-2 10-13 17-16-5-2-8 10-15 10s-10 11-19 10c-8 0-9 14-26 14-13 0-29 15-35 9 12-2 18-9 25-17 12-12 26-7 30-18a32 32 0 01-18 6c-8 0-16 12-25 7 5-1 8-3 14-9 5-6 13-2 20-8 10-9 18-1 28-13-3-1-8 0-14 3-5 2-12-2-18 1 0-8 15-3 24-8 10-6 18-5 26-4-11 0-15-11-31-8-6 2-12-9-18-3 0-4 7-8 14-4s10-3 25 6c6 4 16-2 22 2-1-3-4-4-9-4 3-6 20-5 28 1z"/>
      <path d="M197 328c-5-4-13 1-19-1 0 4 2 9 8 11l11-10z"/>
      <path d="M206 316c-9-5-10 7-17 4 0 3 3 7 8 8l9-12z"/>
      <path d="M212 306c-14-5-15 7-23 5 2 4 13 6 19 5l4-10zm18-56c-4-5-11-1-12 5-2 6 1 14 6 12l6-17z"/>
      <path d="M239 235c-6-1-13-1-13 5-2 1-3 9 4 10l9-15z"/>
      <path d="M243 231c-6-7-13-7-17-4-7 6-13 2-13 8 4-3 7 0 11-1 3-1 6 6 15 3l4-6zm-15 104c1 2 7 2 9-1 4-3 0-14-6-14-5-1-6 11-3 15z"/>
      <path d="M222 335c8 3 11-4 7-8a80 80 0 01-7 8z"/>
      <path d="M191 346c-1 5-9 6-18 20-9 15-18 8-20 18 11-8 19-3 26-11 10-13 18-12 21-20 6-13 29-13 31-33-8-1-33 20-40 26zm204-194c10 3 10 16 22 21 12 4 13 15 23 12-9-2-9-13-18-15-11-3-15-20-24-23m44 74c2 5 1 12-5 14 3 2 9 0 11-5-4 10-1 18 6 20-4-7 4-10 1-14 5 2 8 7 8 11 6-6-4-14-2-20l-19-6zm-67 67c-6-6-9 1-12-1-3-3-7-3-8-1 5 1 2 5 13 6-10 0-9 12-16 12 8 7 12-7 18-5-2 1 3 5-1 11 6 0 8-7 8-11l-2-11zm-139 60c-2-2-9-3-11-1-3 1-2 2 1 2s7 5 0 5c-3 0-2 8-8 8 2 4 10 1 13-2-1 3 3 5 2 9 4 0 2-10 9-9-3 0-2 7 4 5-4 2-2 6 2 5-3 0-3 3 0 5 3-4-1-19-12-27zm281-142a18 18 0 100-36 18 18 0 000 36z"/>
      <path d="M423 227c6-5 14-8 20-4 5 4 24 9 33 2 10-6 14-9 18-9 3 5 7 7 12 8l9 2c4 1 9 0 13-5 6 1 12-3 14-10 7-1 7-8 3-13-4-1-1-14-15-12 6 4 2 11 6 15-3 0-7 1-8 6 1-3 0-6-1-6 0-3-7-11-13-8 4 1 2 8 5 11a8 8 0 00-6 3c-2-3-8-6-11-6l-1-4c-1-3-3-7-2-12a48 48 0 00-7 12c-5-4-17 1-23 2-6 2-25-1-29-6a49 49 0 00-21-10c-11-3-11-15-23-23 0 15 22 62 27 67zM297 341a17 17 0 100-34 17 17 0 000 34z"/>
      <path d="M256 328c4 4 9 4 12 4 2 5 8 5 11 8s13 3 16 1c-3 0-6-2-9-5-4-3-3-9-6-12a11 11 0 003-8l4-5a15 15 0 0010-4c2 2 7-1 10 3 1-9-7-13-13-11-2-1-8 0-9 2-1-1-7 1-9 3 3-1 3-6 2-7 2-1 5-4 5-6 3 0 8-2 10-1-4-5-9-6-15-6-6 1-8 5-9 9-3 2-5 9-3 12-2 0-4 1-5 3a27 27 0 00-9-2m1-7c-1-4 0-7 1-9 2-7 1-9-5-8a47 47 0 004 17z"/>
      <path d="M249 282c1 2 7 3 7-2 1-6-1-8-6-6l-1 8z"/>
      <path d="M250 274c2 1 6 2 9-2 2-4-1-7-5-7l-4 9z"/>
      <path d="M254 264c0 2 5 7 9 3 4-3 4-9-2-11l-7 8z"/>
      <path d="M261 256c1 3 5 9 12 6 7-2 4-11 1-12a33 33 0 00-13 6z"/>
      <path d="M274 250c-1 2 0 10 9 10s6-11 4-12c-4 0-10 0-14 2z"/>
      <path d="M287 248c-1 2-3 17 15 13 2-1 8-14-15-13z"/>
      <path d="M297 249c-2 2 3 17 15 14 12-2 2-16-15-14z"/>
      <path d="M307 252c-2 4 1 15 16 15 14 0 0-15-16-15z"/>
      <path d="M319 255c-1 2-2 15 16 16 12 1 9-17-16-16z"/>
      <path d="M338 260c-2 4-4 14 15 15 12 0 5-14-15-15z"/>
      <path d="M354 263c-3 4-1 12 7 13 9 2 10-7 4-11s-11-2-11-2z"/>
      <path d="M363 265c-2 4-1 12 13 12 3 0 13-11-13-12zM257 433a20 20 0 100-40 20 20 0 000 40z"/>
      <path d="M404 142a35 35 0 00-5 8c-7 20 11 35 21 56a63 63 0 01-5 61c-5 6-3 8-9 13-2 3-5 6-4 14 4-1 9 2 10 5 2-2 6-1 7 1 5-2 8-1 12 3 3-1 7 0 10 3 2-3 6-5 9-4-1-5 4-8 8-6a8 8 0 0110-9c4-4 14-4 18 1-8-2-8 7-15 6 2 5-2 8-7 10 3-1 6-3 7-1 3-3 8-2 9-1 4-1 7 0 8 4 5 3 8 10 5 16-1-6-5-6-7-8-3 1-7 1-8-1-2 2-9 4-12 1-1 4-5 8-10 8 1 4-2 10-5 13 4 2 3 8 2 11 7 1 1 7 13 10-6 2-17 0-19-7-5 0-9-5-9-11-4-4-5-10 1-15-5 2-8-6-15-3-4 2-14-1-14-4-1 2-11 1-12-3-3 1-10-1-10-6-4 2-9-1-9-5-4-1-4-4-4-7-3-2-3-5-1-9-3-2-2-6 0-9-2-3-2-6-1-9-12-1-28-4-63-15-54-17-68 22-57 46 14 28-1 34 3 55 6 1 8 5 8 9 3 1 5 3 4 8a9 9 0 017 3c2-4 8-4 11-1 7 0 10 5 10 12a18 18 0 01-2 19v-9c0-4-6-5-5-8-3 0-6-2-7-4a7 7 0 01-7 1c3 2 6 8 5 12 2 3 2 9-1 11 0 5-4 7-9 5 2-2 3-5 3-8a10 10 0 01-3-6c-5 1-12-3-13-5a20 20 0 00-20 20c0-4-6-8-5-12-3-9 1-18 14-20-2-3 4-7 2-11a97 97 0 00-15-20c5-8 3-18 1-24-4-9-8-7-21 8-21 23-50 17-75 32-7 4-13 6-6-1s26-15 39-21c23-12 42-31 50-69 18-88 85-59 127-42 40 15 33-20 13-41-25-25-20-45-8-61 20-3 59 4 51 11z"/>
      <path d="M476 359a22 22 0 100-44 22 22 0 000 44z"/>
    </g>
    <g fill="none" stroke-width="0">
      <path d="M392 143c-5 21-1 31 6 41 15 19 27 64 10 94"/>
      <g stroke-linecap="round">
        <path d="M418 252c2 0 6-3 6-7m-5-2c1-4 7-5 7-9m-7-6c0-3 6-7 5-11m-8-2c-1-3 5-7 3-10m-7-4c-2-2 2-5 1-8m-8-3c0-2 2-5 1-7m-7-6c1 0 3-2 2-4m-6-5c1 0 3-1 3-3M266 411c-5-2-11 1-13 5m4 4c1-4 7-6 9-4-4-3-6 6-2 6m34-104c-2 2-3 7 1 12m4-11c-2 2-2 8 1 9-2-2 0-5 2-6 2 0 4 3 1 5m177 5c-7-2-13 7-6 14 0-7 5-12 11-11m-3 5a3 3 0 00-3 3c0 1 2 3 4 3l2-3m23-161c1 5 7 6 12 5m0-2c-4 0-7-4-7-7 0 2 5 3 6 2M268 332c-1-3 3-6 3-8s5-4 9 0m-2-27l-2 1m11 13l-5-1m0 6l-4 1m-40 77c0 2 3 5 4 6m6-12a10 10 0 00-1 8m21 0c-3-2-1-6-1-8-1-3 2-7 8-3m-29-4h6m23-7a8 8 0 00-1 4m12-5c-2 0-3 2-4 3m-21-68c2 0 8 4 8 7m14-24c-6 0-9-7-4-7m15 15c-2 1-1 6 3 8m-18 33c-1-2 1-6 5-5m5 52c0-4 5-6 7-2m-26 13c0-4 2-6 4-6s5 1 6 4m-48 5c0-2 3-5 5-5m231-109c-2 1-3 7 3 7m-13 2l1 2m29 8c-1-1-6 4-2 8m-39 36c-1-4 3-5 6-4m-14-22l7-4m-8 18c0-3 2-6 3-7m9-29a16 16 0 002 9m28-9l-4 3m2 8l2-2m47-111c0 4-5 6-8 4m17-3c2 1 9 0 8-4m-16 24a11 11 0 01-5-3m19-7l-5-1m-31 14a17 17 0 006-2m-10-21l-4 1m30 5a11 11 0 01-3 5M498 213c3-2 7 9 15 6m0-12a11 11 0 00-2 6"/>
      </g>
      <path d="M359 190l3-1M227 310c3 3 6 6 5 12m172-143h8m3 2c0 2 0 9-3 10m1-1c3 1 10 1 12-5m-5 5c2 3 2 8-3 10m4-6c4 1 13 2 12-6m-3 6c3 4 14 8 12 1m-22 10c4 1 10-2 8-10m12 4c0 3 15 6 13-1m-3 4c3 6 17 6 13-2m-3 6c3 3 16 1 11-7m0 7c8 6 17-3 7-9m4 7c7 5 16-5 10-7m-65 5c2 0 7 0 8-4m-2 3c0 6 10 8 12 1m-3 4c2 4 11 5 12 0m-1 2c1 4 9 4 11 0m-3 2c2 5 12 5 14-2m-2 3c4 2 12 2 11-6m-1 6c5 4 13 0 9-8m0 13c3 0 4-6 1-8m-70 9c6-3 8-9 3-14m3 9c3 2 11 0 12-6m-7 6c2 3 2 7 0 10m2-6c6-4 15 4 9 8m-1-8c1-1 4-4 4-7m-1 10c2-3 22 3 10 9m-1-17c3 1 5 6 0 8m5 4c4-4 17-1 12 4m-3-5c2-8 16-3 11 0m-14-8c0 1 0 5-2 7m14-9a6 6 0 01-1 6m9-6c1 2 2 5-1 7m-109-66c0 8 3 12 13 8m-10 1c-5 7 1 14 10 7m-25-4c7 7 19 2 11-9m8 15c-1 7 5 9 9 5m-34-10c1 7 9 13 16 9m-7 1c0 10 14 11 17 1m-5 6c5 10 14 6 18 0m-28-15c2 5 6 10 14 6m-40-8c2 4 8 8 16 3m-11 2c-4 6 4 12 14 3m-9 4c2 9 5 16 17 5m-6 4c5 6 11 9 18 0"/>
      <path d="M387 189c0 6 1 10 6 9 4 0 8-3 10-6m-11 6c0 8 6 13 17 6m-12 3c-2 5 4 14 16 10m-42-25c-1 7 6 12 16 3m-11 5c1 6 7 13 17 3m-12 4c-1 10 8 13 16 5m-30-12c2 0 4-2 5-3m-1 10c2 1 6-1 7-3m-2 15c2 2 9 1 10-2m-2 2c4 9 14 8 18-2m-2 4c2 5 7 8 15 7m-11-2c-4 8 1 16 12 8m-9 3c-1 5 3 10 9 11m-29-24c-1 10 6 15 16 10m-26-5c2 2 6 2 11 0m5 6c-3 9 6 15 14 6m-27-11c0 5 5 10 12 8m21 9c-5 4-6 10 1 14m-13-16c0 6 3 9 8 9m-16-11c-8 7 0 15 9 8m-3 2c-3 8 7 13 12 5m-28-22c-3 8 0 13 7 13m-18-15c1 5 5 7 10 6m-7-1c-3 7 2 11 9 8m21 15c-1 4 0 7 6 9m-5-3c-8 4-9 11-3 16m-4-24a8 8 0 002 12m-35-35c-5 4-1 16 9 9m16 5c-6 6-3 14 6 12m-16-15c-3 9 0 12 7 12"/>
      <path d="M359 236a8 8 0 00-1 12c2 3 7 2 8-2m-18-13c-6 7 0 16 9 14m23 8c-6 2-11 8-7 13 2 2 12 3 14-8m-18-12c-3 5-2 10 4 12m-4-2c-4 2-7 4-6 9m-3-17c-1 6 0 9 4 11m-4-4c-6-1-9 2-7 8m1-7c-6-2-7-7-4-12m-1 8c-6 0-9 3-9 7"/>
      <path d="M341 230c-5 2-6 8-5 11 2 3 7 4 10 1m-18-17c-4 5 1 14 8 11m-19-15c-3 6 1 15 11 12m0 25c-1-6 6-10 14-2m-4-13a10 10 0 00-3 8m-28-33c-4 7 1 14 10 11m14 7c-6 6-4 12 0 16m-4-9c-9 0-10 11-2 14m-5-24c-4 2-5 9 1 12m-1 4c-4-2-9 0-8 4m2-4c-4-9-14-7-13 1m16-12c-2 1-7 2-9 5m1-14a7 7 0 003 12m-15-25c-1 6 1 8 8 8m-6-1c-3 7 1 10 8 9m-6-1c-4 5-2 11 2 13m-4-6c-8-1-9 7-6 11"/>
      <path d="M293 216c-5 2-7 7-5 11 3 3 8 2 10 0m-8 1c-4 6-1 10 3 12"/>
      <path d="M275 215c-3 3-1 9 6 9 6 0 9-5 7-9m-8 9c-2 6 0 11 8 10m4 8c-5-2-13 0-10 7m0-16c-2 3-2 8 1 10m-2-2c-3 1-7 3-5 9m0-5c-5-1-11 2-7 7m-1-5c-4 0-9 4-5 8m-1-3c-4 1-8 5-4 8m22-29c-5 3-6 8-3 13m-3-23c-7 3-7 13 1 16m-3-2c-5 3-6 8-3 11m-5-29c-3 1-3 10 5 10m-14-7c-6 4 1 15 11 7m-5 3c-1 4 0 9 7 9m-7-4c-5 2-5 12 3 13m-18-22c-7 6 5 11 9 3m-18 7c-3 4 8 13 13-3m1 0c0 4 2 6 7 6m0 4c-8 1-10 11-2 13m-12-14c0 3 3 6 8 6m3 7c-7 2-7 11-1 10m-3 9c-6-2-6-9-1-11"/>
      <path d="M246 268c-5 3-3 10-1 11s5 0 5-3m0 10c0 4-12 2-6-8m0 9c-4 7 3 12 7 6m-6 2c-2 5 4 9 9 5m-23-55c-2 5 9 7 10-3m-13 10c-2 10 15 8 11-4m0 6a8 8 0 0012-6m-6 6a10 10 0 005 7m-13-4c-1 5 4 9 10 8m-9-3c-3 4-4 11 5 11m-19-10c-1 4 7 8 12 2m-15 8c0 3 7 7 11-6m-3 7c2 3 8 6 12-1m-6 4c-2 5 2 9 7 8m-17-9c-1 7 7 10 11 7m-16-4c-2 8 8 11 12 5m-2 3c0 4 7 8 13 4m-26 0c-1 2 8 4 9-3m-4 4c2 6 9 7 13 0m-2 3c1 5 7 8 12 4m3 2c-2 7 5 12 9 9m-20-10c-2 7 7 11 12 7m-23-11c-1 7 5 11 11 8m-23-7c-1 5 8 8 13 4m-18 8c2 3 11 0 11-6m-2 4c3 4 10 6 13-2m-2 4c0 6 10 10 13 0m11 2c-1 2 2 7 6 7m-14-9c0 3 4 7 9 6m1 1c-1 3 0 8 4 8m-4-2c-3 3-2 8 3 8m-4-3c-5 3-4 10 3 10m-18-24c0 7 9 8 10 2m-3 4c-1 4 2 8 7 7m-6 42c1 2 6-1 5-4-2-2-7-1-6 2m4-3c1-5-6-6-7-1m2-3c2-3-4-7-6-3m2-1c1-5-5-6-5-3m-2-5c1-2 8-1 5 3m6 6c2-3-2-8-5-6m24 13c-3 1-5 2-3 7 1 3 6 3 7 1"/>
      <path d="M261 366c-3-2-7 1-5 5 1 4 5 3 6 1m-14 0c1 3 7 2 8 0m-4-6c1-1 3 0 4 1m-4-33c-4 3-2 10 4 8m-6-2c-3 3 0 10 6 7m-5 0c-2 2 0 8 5 7m-6-4c-1 0-4 0-5 2m2-28c-3 3-1 8 4 9m-5-3c-4 2-4 10 4 10m-4-1c-3 2-1 9 4 8m-2-1l-1 4m-2-6c-2 0-5 1-5 3m-4-7c1-2 7-2 7 4m1-7c-1 0-3 1-3 3m0-22c-2 3-4 10 5 12m-10 4c0-2 5-4 7 0m-11-11c1 1 5 4 7 2m-28-15a6 6 0 007 7c5-1 6-5 4-7m-3 7c-3 3 1 8 4 7m-1-10c2 0 8-1 9 2m-27-1c-1 2 7 4 10 1m-3 1c0 3 1 7 8 6"/>
      <path d="M220 327c1-3-4-6-8-2-3 4 1 8 3 7m-12-14c-2 3 5 10 9 4"/>
      <path d="M198 324c-3 3 0 8 4 6 4-1 4-6 3-7"/>
      <path d="M193 329c-3 2 0 7 3 7s4-3 4-6m5-1c-1 3 4 5 7 2m0-6l-1-2m-23 10c-3 2 3 8 6 2m13-3c-1 1 1 5 4 4m-13-1c1 2 6 5 10 0m-7 2c-1 2 1 5 3 5m49 11c-2 4 4 9 9 4m-5 2c-1 2 0 5 2 6m-8-1c1-2 3-4 6-3m-9-2c0-2 2-4 4-3m147-78c-9 0-5 15 3 12m-5-1c-2 3 1 8 5 5m-1 1c-3 4 7 11 11 4m-3 3c0 4 12 7 11-2m-2 5c3 5 14 5 13-2m-2 5c2 3 13 5 12-2m-56-40c1 4 7 5 12 3m-16-1c4 3-1 13-7 9m8-2c4 2 8 0 10-5m-3 4c1 3 5 5 11 4m-21-1c6 5-2 14-5 10m7-6c3 1 9 0 10-4m-3 4c0 3 3 4 6 4m-14 0c2 3 9 4 12 0m-3 2c0 4 3 7 7 6m-21 2c3 2 7-5 4-9m0 16c4 0 4-6 1-10m8 15c3-1 2-8-6-9m16 15c3-1 1-9-8-9m20 12c3-4-5-9-11-6m17 10c4 1 7-9-6-8m14 8c3-1 6-7-4-5m12 6c3 1 4-8-5-5m-47-23c4 2 10-1 9-6m-1 5c1 2 0 6-2 8m2-3c2 1 6 0 8-4m-4 4v7m1-4c3 2 6-1 8-4m-2 3c2 1 4 7 0 10m2-3c3 0 6 0 8-3m-1 2c2 0 5 4 4 7m0-1c2 0 7-2 8-5m-2 2a7 7 0 014 7m0-3c2 0 4-1 5-4m-1 2c2 1 4 3 4 5m0-1l4-3m5-1c3 3 0 10-5 9m-44-165c-5 3-18 2-12-9m13 2c-9 3-21-4-9-12m-3-2c-8 0-13 12-3 17m-27-12c-2 4 5 8 10 4 4-3 4-11 1-14m-15 20c-3 8 16 9 13-5m-14 17c0 7 18 4 12-9m2-3c2 2 5 5 12 5m-9-14c1 2 5 4 10 2M185 335c-4 3 3 8 5 2m-8 0c-4 3 2 8 5 3m-9 0c-4 3 3 8 5 2m-9 0c-4 2 1 8 5 3m-9-1c-4 2 1 8 5 3m17-10c0 4 6 5 8 0m-4 3c-2 3 1 6 3 5m-12-5c0 3 6 4 8 1m-5 2c-1 2 2 5 4 4m-10-5c0 3 3 5 6 4m-4-1c-1 1-1 4 1 5m-8-5c0 2 3 6 6 3m-5-1c-2 2-2 4 1 5m-6-5c0 2 1 4 4 3m-15-3c-2 1 3 7 6 2m-11 0c-3 2 4 8 6 2m10-2c-2 1-3 4-1 5m-5-4c0 1 2 3 4 3m-6-2c-2 1-1 4 2 4m-9-2c-1 1 0 4 2 3m2-3c0 1 1 2 3 1m-13-2c-2 1-2 6 6 3m-11-1c-3 1-2 6 5 2m0 0c0 1-1 3 2 2m-7-1c-2 1-1 4 2 3m-9-2c-2 1 3 3 6-1m-4 2c-1 1-1 4 1 3m-8-1c-2 1 1 2 6 0m-4 1c-2 2-2 4 1 3m-6-2c-2 2 0 3 4 2m-4 0c-4 2-2 5 0 3m114 7c-1 2 1 3 4 3 2-1 4-3 3-5m0 3c2 2 6 0 6-3"/>
    </g>
    <g fill="#fff" stroke-width="0">
      <path d="M397 103c-10-5-32-15-38-7 6-2 22 0 35 13l3-6z"/>
      <path d="M403 103c-12-14-19-11-27-16-8-4-21-5-24 2 12-6 23 3 29 4 9 1 15 8 17 12l5-2zm45-2c-6-14-20-11-25-17-9-8-30-17-39-11 19-1 28 14 38 19 8 4 16 11 26 9z"/>
      <path d="M425 99c-11-13-27-24-35-20 10 0 13 7 20 12 7 4 4 10 15 8zm-51 23c-10-4-32-6-42 7 16 3 42 1 42-7z"/>
      <path d="M372 127c-11-5-19 2-30 1-20-2-34 0-36 9 12-10 31-2 39-4 7-2 36 0 45 4-5-6-12-7-18-10zm35-29c-2-9-2-18 10-17-3-4-14-6-16 9-14-10-30-12-33-3 8-7 19-2 32 13a24 24 0 017-2z"/>
      <path d="M388 110c-8-6-19-14 0-17-8-5-20-3-19 12-21-9-37-6-40 3-4 10 10 15 12 9-2 1-11-2-6-7s26-2 48 9c6 3 26 3 5-10z"/>
      <path d="M382 124c-6-13-26-1-30-14-6 18 28 8 30 14zm127 13c4 2 8-1 2-3 4 2 8-1 1-4 4 2 8-1 2-4-2 2-5 8-5 11zm2-24c10-10 0-13 11-23 9-8 2-14 11-20 2-2 9-6 9-10 4 9-11 10-10 25 0 10-6 9-9 25 0 3-3 11-12 3z"/>
      <path d="M516 118c5-11 11-11 14-16 5-8 16 2 26-6-2 11-15 7-20 14-6 6-11 9-20 7z"/>
      <path d="M517 121c9-7 16-2 22-6 15-10 22 2 36-3-4 9-25 2-34 8s-40 13-24 1zm-26 51c-1-4-4-9-10-9-5-1-7-7-12-7-4 0-6-9-12-8-6 0-8 7 5 14 14 6 28 14 29 10zm-17 4c-6 0-7 9-12 9 7 4 13-2 17-7l-5-2z"/>
      <path d="M479 177c-5 4-7 13 0 15-4-6 8-8 4-14l-4-1z"/>
      <path d="M483 177c-3 8 6 9 4 14 6-1 6-12 1-14h-5z"/>
      <path d="M446 161c9 0 17 5 23 13 4 5 16 7 20 3s2-13-9-10c-2-4-10-3-13-6-4-4-18-14-21 0z"/>
      <path d="M480 167c-2 1-3 5-1 7m7-4l-1 4m-25-12c5 0 6 3 11 5M457 150a161 161 0 0138 12c8 5 20 6 31 3s33-6 31 8c6-7-1-14-16-16 1-6-7-12-12-8 5-1 9 8 0 12a8 8 0 00-12-10c4 1 9 9-1 11-6 2-16 0-22-4-7-4-45-19-37-8z"/>
      <path d="M499 143c-5 3-2 8-10 11s-14 10-12 16c6-12 15-11 18-16 4-4 9-11 4-11z"/>
      <path d="M500 144c0 9-8 6-5 19 1 4 3 11 0 18 8-6 3-19 7-24l5-9c-2 5-2 16 3 18-4-10 12-18 1-30-2 3-7 8-11 8zm-26-9c1 2 2 6 1 9 3-1 6-5 8-8 5 1 7 7 2 10 3 0 8 0 11-3-3-4-14-11-22-8z"/>
      <path d="M394 116a10 10 0 00-5-2c-8-2-4-9 3-8 14-16 22-4 39-9 6-2 10-1 14 0 7-5 16-3 23 3a5 5 0 013-3c6-1 11 4 13 10 4 0 10 2 13 5 5-2 9-3 10 0 4-2 10-3 13 4s-7 5-9 19c-1 9-11 13-19 7-12-8-25-10-31 3-6 14-11 21-26 17a16 16 0 00-17 6c-4 6-11 1-19 1 10-1 6-4 15-4 8-1 6-8 11-9-20 5-19-3-36 3 8-10 19-4 25-10-15 0-22-10-29-6-10 7-6 25-33 23-14 0-22 1-30 9 14-28 33-13 42-22a68 68 0 0012-14 6 6 0 014-4c-23-7-9-18 14-19z"/>
      <path d="M507 112v3c0 6-8 6-9 14 0 5 0 7-3 6-3 0-6-5-3-10M398 108a11 11 0 00-6-2m53-9c6 3 10 10 20 11 9 0 15 14 31 5a38 38 0 011-1m-29-12a13 13 0 00-1 8m-30 21c-12 0-15 6-15 12s5 14 15 14 16-7 16-13-6-13-16-13z"/>
      <path d="M439 154c0-3-6-2-6-5s3-4 3-7 6-4 8-1c1 3 7 8 8 5m-9-5a10 10 0 000 13m4-9v7"/>
      <path fill="none" d="M496 136c9 0 11-10 4-11m-16-18c-3-4-11-5-11 4"/>
      <path d="M472 121c-3-8-11-9-16-5-4 3-4 12 4 14 3-4 8-8 12-9zm-3-5c-5-4-12 3-6 11m-83 8c3 0 8 1 15 4 4 2 17 7 26 2-9 3-15-9-22-8-6 2-18 4-23-1 12 1 19-8 32 0a24 24 0 0014 3c-12-13-27-4-28-16 7 8 23-1 32 13m-30-10l-2-6"/>
    </g>
    <path d="M484 108c-3-3-9-1-7 5a10 10 0 017-6zm-18 16a21 21 0 016-3 12 12 0 00-4-5c-1-1-6 4-2 8z"/>
    <path fill="none" d="M459 114c-5-4-9-3-11-1-3 0-6 3-6 7m7 3c-5-4-13-3-12 6m-4 4c3-2 7-3 10 1m32-9c-1 1-2 4 0 7-2-3-8-3-13 4m25-11c-7 1-7 5-1 7m-47-24c-5-1-9 2-2 5m13-9c-8-2-11 1-7 2m-16 30c0 3 1 7 6 3m-4 6l-1 2m-18-40c-5-1-6-6 0-5m-2 16c-5-2-5-7-1-7m11 4c-6-1-6-6-1-5m2-8c-3-1-8 3 0 5m10 2c-8-1-8 2-3 4m9-11c-6-1-9 2-4 4m-15 18c-2-1-3-7 4-5m10 3c-5-1-9 4-5 6m11-11c-5-1-9 0-6 2"/>
    <path fill="#fff" d="M484 108a10 10 0 00-7 5"/>
  </g>
</svg>
