<svg xmlns="http://www.w3.org/2000/svg" xmlns:xlink="http://www.w3.org/1999/xlink" id="flag-icons-bz" viewBox="0 0 640 480">
  <defs>
    <radialGradient id="a">
      <stop offset="0" stop-color="#ffef5d"/>
      <stop offset="1" stop-color="#ea5700"/>
    </radialGradient>
    <radialGradient id="b">
      <stop offset="0" stop-color="#952d1a"/>
      <stop offset="1" stop-color="#570a00"/>
    </radialGradient>
    <radialGradient xlink:href="#a" id="c" cx="247" cy="238" r="36" fx="247" fy="238" gradientTransform="scale(1.22624 .8155)" gradientUnits="userSpaceOnUse"/>
    <radialGradient xlink:href="#a" id="d" cx="322" cy="153" r="11" fx="322" fy="153" gradientTransform="scale(.93615 1.06821)" gradientUnits="userSpaceOnUse"/>
    <radialGradient xlink:href="#b" id="e" cx="364" cy="238" r="36" fx="364" fy="238" gradientTransform="scale(1.2242 .81686)" gradientUnits="userSpaceOnUse"/>
    <radialGradient xlink:href="#b" id="f" cx="468" cy="156" r="11" fx="468" fy="156" gradientTransform="scale(.95596 1.04607)" gradientUnits="userSpaceOnUse"/>
  </defs>
  <path fill="#ce1126" d="M0 0h640v480H0z"/>
  <path fill="#003f87" d="M0 34h640v412H0z"/>
  <circle cx="320" cy="240" r="189" fill="#fff"/>
  <circle cx="320" cy="239" r="156" fill="none" stroke="#552300" stroke-width="4"/>
  <path fill="#007f00" d="M302 73c14-15 27 3 27 11-1 8-15 26-28 12 13 3 17-12 24-12-7 0-9-15-23-11zM155 192c-8-19 14-23 21-19s17 25-1 30c9-11-3-21 0-27-3 6-18 2-20 16zm317-19c19 8 7 26 0 28-8 3-30-4-21-21 1 14 17 12 19 18-2-6 11-14 2-25zM219 377c-21-2-14-22-8-27 7-5 30-4 26 15-5-13-19-7-24-12 5 5-6 16 6 24zm209-15c0 21-21 17-26 11-6-6-8-29 11-27-12 6-4 20-9 25 5-5 17 4 24-9zM170 153c-2-21 20-18 26-13 6 6 10 29-10 29 12-8 3-21 7-26-4 5-17-3-23 10zm22 193c-20-3-13-24-5-28 7-4 30-2 25 17-5-13-20-8-24-14 4 5-7 16 4 25zM354 74c19-9 25 12 21 19-3 8-23 20-29 2 11 7 20-5 26-3-6-2-4-17-18-18zm40 314c-9 19-26 6-28-2s6-30 23-19c-14 0-14 16-20 18 6-2 13 11 25 3zm91-178c15 13-2 26-10 26-9 0-27-13-13-27-3 14 12 17 12 24 0-7 15-10 10-23zM222 101c4-20 24-11 28-4s0 30-18 24c13-4 9-19 15-22-6 3-16-8-25 2zm-62 172c-18-10-4-26 4-28 8-1 29 8 18 24 0-14-15-14-17-21 2 7-12 13-5 25zm264-159c20-3 19 18 14 25-6 6-28 11-29-8 8 11 20 1 26 6-6-5 2-18-11-23zM306 408c-19 9-23-13-20-20 4-7 24-18 30 0-11-8-20 4-27 1 6 3 3 18 17 19zm171-115c8 19-13 24-20 20-8-3-19-23-1-30-8 11 5 21 2 27 2-6 17-3 19-17zm-325-61c-12-17 8-25 16-23s22 20 5 29c7-12-7-19-6-26-1 7-16 6-15 20zm112 164c-20 7-23-15-19-22s25-17 30 2c-10-9-21 3-27 0 6 3 2 17 16 20zm-6-314c12-18 27-2 28 6s-10 28-25 16c14 1 15-14 22-15-7 1-12-13-25-7zm201 252c1 20-21 17-26 11-6-5-10-28 10-27-12 7-4 20-8 25 4-5 17 3 23-9zm-6-195c21 4 12 24 5 28s-30 2-25-17c5 13 20 9 23 15-3-6 8-16-3-26zm-258-14c0-21 21-16 27-10 5 6 7 29-13 27 12-6 5-20 10-25-5 5-17-4-24 8zm-26 186c-19-9-5-26 3-28s29 6 19 23c0-14-16-14-18-20 2 6-12 13-4 25zM392 91c20-7 23 14 19 21s-25 17-30-1c11 9 21-3 27 0-6-3-2-18-16-20zm-41 315c-16 14-27-4-26-12 1-9 16-26 28-10-13-5-18 10-25 10 7 0 9 15 23 12zm132-158c15 15-4 26-12 25s-26-16-10-28c-4 13 10 18 10 25 0-7 15-8 12-22z"/>
  <path fill="#005800" d="M301 96c13 3 17-12 24-12-4 5-15 17-24 12zm1-23c14-15 27 3 27 11-12-20-15-17-27-11zM174 203c9-11-2-20 0-26 3 5 9 20 0 26zm-19-11c-8-19 14-23 21-19-23 2-22 6-21 19zm296-12c1 14 16 12 19 18-6-2-21-7-19-18zm21-7c19 8 7 26 0 28 14-17 10-20 0-28zM237 365c-5-13-19-7-23-12 6 0 22 1 23 12zm-18 12c-21-2-14-22-8-27-9 21-4 22 8 27zm194-31c-12 6-4 19-9 24 0-6-1-22 9-24zm15 16c0 21-21 17-26 11 22 7 22 2 26-11zM186 168c12-7 3-19 7-25 1 7 3 22-7 25zm-16-15c-2-21 20-18 26-13-23-4-23 0-26 13zm41 182c-4-13-18-8-22-14 6 1 22 3 22 14zm-19 11c-20-3-13-24-6-28-10 21-5 22 6 28zM345 95c12 7 20-5 26-3-5 3-19 11-25 3zm9-21c19-9 25 12 21 19-3-23-8-21-21-19zm34 293c-13 0-12 15-19 17 3-5 9-20 19-17zm6 21c-9 19-27 6-29-2 17 16 20 12 29 2zm68-179c-3 14 12 17 12 23-5-3-17-13-12-23zm22 1c16 13-1 26-10 26 20-12 17-15 10-26zm-252-89c13-4 9-18 14-22-1 6-4 22-14 22zm-11-20c5-20 25-11 29-4-20-12-22-7-29 4zm-39 168c0-14-15-13-17-20 6 3 20 10 17 20zm-22 4c-18-10-4-26 4-28-17 16-13 19-4 28zm249-142c8 11 20 1 25 5-6 1-22 4-25-6zm14-17c21-3 20 18 14 25 4-23-1-23-14-25zM316 388c-11-8-20 4-26 1 5-2 20-9 26-1zm-10 20c-19 9-23-13-20-20 3 23 7 22 20 20zm151-125c-9 11 4 20 1 26-3-5-10-19-1-26zm20 10c8 19-13 24-20 20 23-3 21-7 20-20zm-303-55c6-12-8-19-7-25 4 5 14 17 6 25zm-22-6c-12-17 8-25 16-23-22 7-20 11-16 23zm123 144c-10-9-20 3-26 0 6-3 20-9 26 0zm-11 20c-20 7-23-15-19-22 1 23 6 22 19 22zm-3-292c14 1 15-14 21-15-3 5-11 19-21 15zm-3-22c12-18 27-2 28 6-14-18-17-14-28-6zm185 236c-12 7-3 19-8 24-1-6-2-21 8-24zm16 16c1 20-21 17-26 11 22 6 22 1 26-11zm-25-184c4 13 18 8 22 14-6-1-22-3-22-14zm19-11c21 4 12 24 5 28 11-20 7-21-5-28zm-244 3c13-6 5-20 10-24 0 6 1 22-10 24zm-14-17c0-21 21-16 27-10-22-7-23-3-27 10zm-4 181c0-14-16-13-18-19 6 2 21 9 18 19zm-22 5c-18-9-5-26 3-28-16 16-12 19-3 28zm212-200c11 9 20-3 26 0-5 2-20 8-26 0zm11-20c20-7 23 14 19 21-1-23-6-22-19-21zm-39 293c-13-5-17 10-24 10 4-5 15-16 24-10zm-2 22c-15 14-27-4-26-12 10 20 14 17 26 12zm110-161c-4 13 10 18 10 24-5-4-16-15-10-24zm22 3c15 15-4 26-12 25 21-10 18-13 12-25z"/>
  <g fill="#730000" stroke="#000">
    <path d="M349 120s1-1 2 0l1 4-2 1s1-2-1-5zm-9 31v-3l1-1v4h-1m27-5l-4 2 2 1 5-3h-3m-50 14l-1 3-2 3v4c1 1 3 8 2 13v9l2 3c2 0 1-1 2-2 1-2 0-22-1-28l-3-8-1-3c-1-3-3-6-3-13 0 0-5 1-9-9-2-4-5-4-9-5l2-1 5 1 1-3 1-2v7c0 3 4 8 7 9 2 1 4-2 3-6v-7l2 1v2l2-1h1l-2 4-1 8v8l4 7 1 4 2 4 2 7 1 7c0 3 2 1 4-1 3-1 3-6 3-6h1l1 2c-1 3-1 3 1 2l6-4h4l-2 2h4l-7 4a91 91 0 01-8 4c-3 1-7 3-7 5v11l-1 10h-11s2-7 0-10l-10-10c-3-2 2-1 2-1v-2l5 6s8-7 0-17l-7-9h-7c-4 1-13 1-16-4l3-1 2-1s-1 4 7 4 8 0 7-7l3-1 1 1v6l5 4 2 1 2-2 3-3 1-2 2 3z"/>
    <path d="M319 155l2-3 4-6c2-2 2-5 2-8l1 1v4l3-2h0s-6 6-11 16l-1-2zm-51-20c0 1 1 4 4 6l1-1-3-6-2 1m9-3s0 5-1 7l2-1v-5l-1-1zm51-15l1 11 2-1 1-2 8-3-1-2-4 3-3 1c-1 0-3-2-2-6l-2-1m21 32v8h1s0-6 1-7l-2-1m7 4s-1 3-4 4l4-1 2-2-2-1"/>
  </g>
  <g fill="#289400" stroke="#030">
    <path d="M327 138l1 1h1l3 3h2v3h1v3l2-2 2 2 3-1 1-1h0c-5-2-8-5-6-7 2-5 7-2 8-1l19 10s1-1 0-2l-1-3c1-1 3 2 4 2l3 1v-1l3 3s3-1 2-2l3 3 1-1 2-4a5 5 0 012-2l2-2-2-1-1-1 2-2v-1l-3-2-2-2h0l-2-3 1-1s-1-2-4-2h2l-5-1s1-1-1-2l-1 1-3-1 1 1-3-1-1-3-2 2v-1l-3 1v-2l-1 2v-2l-3 3-1 2h-2v2h-2l1 1h-3l1 1s-3 0-3-2h-2l-2 1-1-1v1l-2-2v1l-1-2v3l-1 1-1-1-2 1v-3l-2 2-2 1c-1 1 1 1 1 1h-3l1 1h-3c-2 1 1 1 1 1h-3v1l-3-1c-1 1 1 2 1 2l-3 2 2 1-1 1h1l-2 3s1 1 3-1c1-1 0 0 0 0h0l2-1v1l2-2 2 1z"/>
    <path d="M325 108l-1-2h5l1-2 3 2 6-1v3h5v2l6 2c3 1 3 2 1 2l3 5-5 1c-1 1-1-1-1-1l-1 3-4-2v2l-5-3s-2 0-2 1l-3-3-3 1-2-2v2l-1-2-2-2-2 2-1-2h-4s-1-4 3-5l4-1zm-19 13l-2 2-1-1-2 2v-1l-1 2-2-1-1 2-1-1-2 2v-2l-2 2-1-1-1 2-1-1-1 1v-1h-1l1-2c1-1-1-2-1-2l1-1h-2l3-3v-3l2-1c2 0 0-2 0-2l3-2v-3l5 1 1-2 4 1 3-2 3 3h3v3l5 2-1 3 4-1v4l5 2-1 2v4h0l-3-1-1 2-1-1h-2l-1-1v-1l-2 1-2-2v-2l-2 2v-2l-1 1-1-2-1 2-2-3z"/>
    <path d="M275 131l4 3v-3l2 1v-2c-1-1 3-3 4 0 0 0 2-2-2-5 0 0-1-1 2-1l-1-1h3l-4-2c-2 0-1-1-1-1v-2h-2v-1h-4l-1-2-2 1s-1 2-3 2l-2-1-1 3h-2l1 1h-4l1 3-3 1h1l-3 2h1l-2 2h1l-2 1 1 1-1 1h2l-1 6 2-3-1 3 3-2 1-1v2l1-3 2 1v-1l3 1 1-1h1v2l1-2h1l1-3h2zm-14 14l2 3c-2 0-3 2-3 2l-1 5-1 2 8-4v-1l9-4 1 1 2-2 2 5-2 1 2 5 3-1 2-1v1l3-1 2 1 2-3 2 1 1-2 3-1 1 2 3-2 1 1 4 2 1-3 4 2-2-4 1-2h-1l1-2h-2l1-1-3-1 2-3-8-2 2-1-2-2h-5l-1-2-3 2h-1l-3 1h0l-2-3-3 4-1 1c-1-2-3-3-4-2l-2 2h-3l-3 3h-3l-1 2-5 1zm44 39v-2l3 2 1-2 2 2 1-2v3l3-2h1v-2l1-3 2-1-4-3-2-1-3-2h-2l-2-2-1 1-3-1v1l-5-1 1 1-4-1v2l-3-1v1l-4 1 1 2-3-1v1l-3 1 1 1-4 3 1 1h-4l2 1-4 4 2 2-1 2 4 1 1 2h4v3l4-4 4 2v-3h2v-3l1 1 2-3 3 4 2-5h3zm19-11v-5l-1 1v-4h-2l1-4-2-1 1-2 1-1 3-3h7v-2l5 1c1 1 3-2 3-2h1l1 2 5 1-2 2h4l2 1 3-1h3l1 1h3l-1 1 3 2v1l3 1h1s1 2 0 2l3 4 3 1s0 3-3 3v2l-2 3-2-1-1 3-5-5-1 2-4-3v2l-3-2-2 1-3-3h-4l2-2h-4l-1-3-1 3-2-2-3 4-1-2c0-2-2 2-2 2l-1-3-1 2-2-2-3 5zm1 10v-2l6-2 5-2 2-1 1 2 1-3 2 3 2-1 1 1h2v2h5v2l4 1 1 4 1 5c0 2-2-2-2-2l-1 4-5-1-2 4-3-3-1 3-4-5c-2-2-2 2-2 2l-2-5-2-2-5 5-1-3c-1-1-3 1-3 1s-2-3 0-7z"/>
  </g>
  <g fill="none" stroke="#004b00">
    <path d="M351 125v2l3-1v2l3 1v1l2 1-2 2 5 3-3 1v2h-2l1 3h-4m14-5s1-4 0-5l4 3c2 0 0-4 0-4l3 2c2 0-1-3-1-3s1-1 3 0m-45-15l-1-2c-2-3 3 3 4 3m4 0l3 1-1-3 4 1 1-2 5 1m-25 0l-1-3m-24 12v-3l2 1v-2h1l1-2 2 2 1-2 1 1 2-1h2v-2m-19 10v-3m-24 10v-4h2m9 0c-1-1-1-2-3-2m-16 9v-4m25 52l1-3 2 4 1-2h0l3-2 2 4m41-17l2-3 2 1 1-3 2 1 2-3 2 1 1-2 2 2v-3l2 1s2-2-1-2"/>
    <path d="M344 163l2 3 2-2 2 4 2-1 3 2 2-2 3 3 2-3 3 1 2-4m-85-9l1-3 3 2v-4l4 3v-4l5 1s2-1 1-2l3 2v-4l3 2-1-3h3v-3m30 45l2-1 2 2 3-4 2 3 1-3 2 2 1-2 3 2v-3l2 1v-2"/>
  </g>
  <path fill="#9dd7ff" d="M283 298a70 70 0 01-6-13l43-37 42 37a65 65 0 01-6 13l-1 1-3-1-2 1-3-1-4 1-2-1-4 1-2-1-3 1-3-1-4 1-3-1-2 1-4-1-4 1-4-2-4 1-4-1-3 1-3-1-4 1-3-1-4 1"/>
  <path fill="#fff" stroke="#000" d="M320 205v43l-43 37a84 84 0 01-4-27v-53h47"/>
  <path fill="#ffd83c" stroke="#000" d="M320 205v43l42 37a84 84 0 004-27v-53h-46"/>
  <g stroke="#000">
    <path fill="#730000" d="M292 289l9 4a62 62 0 0021 2c8 1 12 0 15-1l3-2-7 7s-26 1-31-2l-10-8z"/>
    <path fill="none" d="M331 277s8 5 0 14m-38-1l12-12-1 16m6 1v-26m21 26v-27m-11 27v-29"/>
    <path fill="#ff0018" d="M310 271l-5 1 5 1v-2m10-4l-5 2h5v-2m11 1l-6 2 6 1v-3zm3 13c0-2 4-1 4-1v6l-4-1v-4z"/>
    <g fill="#fff">
      <path d="M295 288l10-10v6s-6 4-6 6l-4-2m5 2s1-3 4-4v6l-4-2zm15-17h7v5s-5-1-8 1c0 0-1-4 1-6zm-9 1h8l-1 5s-5-2-7 0v-5z"/>
      <path d="M306 279h7v5s-5-1-8 1c0 0-1-4 1-6zm8 0l9-1s-1 4 1 6c0 0-7-2-9 0 0 0-2-4-1-5zm-9 6l8 1v7s-6-2-8 0c0 0-2-5 0-8zm9 0h11s-2 5 0 9c0 0-9-3-11-1 0 0-2-5 0-8zm11-12h8v5s-6-2-8 1v-6zm0 6h8v5s-6-2-8 0v-5zm1 6h7v7s-5-2-7 0c0 0-2-5 0-7z"/>
      <path d="M335 285s1 5 3 6l-3 3s-3-2-3-5l3-4z"/>
    </g>
  </g>
  <g stroke="#000">
    <path fill="#006ac8" d="M355 299a66 66 0 01-36 28 67 67 0 01-36-29l4-1 3 1 4-1 3 1 3-1 3 1 5-1 4 2 4-1 3 1 3-1 3 1 4-1 3 1 3-1 2 1 3-1 3 1 4-1 3 1 2-1 3 1" stroke="none"/>
    <path fill="none" d="M354 301l-2-1-4 2-3-2s-2 2-3 1a5 5 0 01-2-1l-3 1-3-1-5 2-3-2-4 1-4-1-3 1-4-1-4 1-4-1-4 1-2-1-5 1-3-2-4 2h0"/>
    <path fill="#5ac800" d="M293 305l-3 1v1-1 1a44 44 0 0011 11c5 3 10 6 19 9a71 71 0 0017-9c6-5 10-7 13-12-3 2-2 2-4 1l-2-1s-1 2-3 1l-3-1-4 2-3-2-5 1-4-1-3 1-4-1-4 1-3-1-4 1-3-1-4 1-4-2z"/>
    <path fill="#ffd800" d="M320 327a89 89 0 0017-9l-3-1-2 1-5-1h-7-11l-4-1-4 2a55 55 0 0019 9z"/>
  </g>
  <g stroke="#000">
    <path fill="#b34b00" d="M313 249c2-2 3-3 2-4h-2l-3-2-3-3-9-11c-2-1-2-4-3-5l-13-14c-1-1-2-2-5 0-2 2-2 4 0 6l13 12 6 3 13 13c1 2 2 3 1 4v2h2l1-1z"/>
    <path fill="none" d="M281 214l13 13"/>
    <path fill="#fff" d="M299 220l1-2c0-1 4-7 6-7l11 8-5 8s-14-6-13-7z"/>
    <path fill="#ccb8c8" d="M306 222l-6-4-1 2 12 6-5-4z" stroke="none"/>
    <path fill="none" d="M300 218a73 73 0 005 3l6 5" stroke="none"/>
    <path fill="#782121" d="M277 253l26-32s3 0 3 2l-24 33s-3 0-5-3z"/>
    <path fill="#730000" d="M363 253l-3 1-5-6-26-32 3-2 23 27 9 9-1 3z"/>
    <path fill="#fff" d="M338 220l-4-5s-3 1-4 2c0 0-2 4-8 5 0 0 2 7 9 10 0 0 2-7 5-8l2-4z"/>
    <path fill="#730000" d="M328 242h-4l1-2a6 6 0 015 0l-2 2m28-28v-2c1-1 1-2-1-1-2 0-2 2-1 5l2-2z"/>
    <path fill="#fff" d="M327 243l29-29 7 7h-2l1 2h-2v2h-2v2h-2v2h-2v2h-3l1 2h-2v2h-3l1 2h-2v2h-2v2h-3v2h-2l1 2h-2v2l-2-1v3s-1-2-2-1l1 2-2-1z"/>
    <path fill="#7e4b7e" d="M355 216l-3 2 1 8s0-2 1-1l1-1v-8m-5 4l-1 2v8s1-3 1-1v-9m-17 18l-2 1 1 5s0-3 1-1v-5" stroke="none"/>
    <g fill="none" stroke="#7e4b7e">
      <path d="M331 218l4 5m-3-3l-1 4m2-3l-2 3m2-3l-1 2m1-1v1m-3-3a29 29 0 01-5 3m4-2a14 14 0 01-3 2m3-1l-3 2m2 0l-1 1"/>
      <path stroke-linecap="square" d="M311 225l2-3 2-2"/>
    </g>
  </g>
  <path fill="#289400" stroke="#060" d="M217 303c2 1 0-4 1-6 0-3 4 5 6 6 3 1 16-5 16-5l3-6 1 5 5-6-1 4c-1 2 3 3 3 6-1 3 4-2 4-2l12 1s2-8 5-12l1 5 5-5a66 66 0 0041 39 67 67 0 0041-37l6 7 7-2a70 70 0 0115 6v-4c1 0 6 1 6 4l2-3 4 4 15 3 1 3h5l-1 2c0 2-1 3-3 4-1 1 0 1 2 1 2 1 0 3-4 5 0 0-1 2 1 3l-4-1-2 4-5-2v2s-7 0-9-3l-2 2-6-4-1 2-5-2v2l-5-3-2 3-5-3c-1-1-1 2-2 2 0 0-1-2-3-2l-1 3-7-1v2l-5-2-1 2-4-1-3 3h-3l-1 3s-6-2-7-1v3l-5-1-1 3s-7-2-8-1l-3 2c-2 1 0-1 0-1l-2-3-4 1-7 2-1-3-4 1-2-3c-1-2-3 0-3 0v-2l-4-1c-2 0-3-2-3-2h-6l1-1-9 1c-2 0 2-3 2-3l-8-2-10 2-2-2-3 2-1-3-5 2-1-3-4 5v-2l-4 4v-3s-8 5-11 4l1-2h-5l-4-2 4-1s-6-2-8-1c0 0-1-2 2-3l-6-3s3-2 5-1l-4-7 7-1z"/>
  <path fill="#730000" stroke="#000" d="M209 189l71-37-2-5c-20 10-39 22-61 30-2 0-13 5-19 12a8 8 0 00-2 4l1 4 2 2h1l2-2a52 52 0 017-8z"/>
  <path fill="#fff" stroke="#000" d="M266 152l9-4s3 2 3 5c0 0 1 6 8 10 0 0-6 8-17 9 0 0 1-11-1-14 0 0-1 1 0 0l-2-5v-1z"/>
  <path fill="none" stroke="#7e4b7e" d="M277 154l-8 4m5-2v5m-1-5v5m-1-5v3m-1-2v1m6-1l4 6m-4-5l3 5m-3-3l2 4m-2-2a8 8 0 001 3"/>
  <g stroke="#000">
    <path fill="#b34b00" d="M342 148l26 13c6 3 8 0 10 2l52 26c5 2 7 2 6 5 0 3 2 3 3 3l2-1h1l1-1c2-3 3-6 1-8-3-1-3 2-6 1 0 0-5-1-7-3l-8-5c-4 0-28-14-42-21-2-2-3-6-6-8l-30-15c-3-1-5-2-8 3-2 4-2 6 5 9z"/>
    <path fill="none" d="M345 143l29 14"/>
  </g>
  <g fill="#ffa54b" stroke="#000" transform="translate(-40) scale(.96)">
    <path fill="url(#c)" d="M310 165h-1l-1 5a7 7 0 01-3 3c-2 0-4 3-8 0h-1s1 4-3 6l-16 8s-1 3 0 7l-1 1-3 6s-3-1-3-3l1-4 1-6-3-2-1 1 1 2-1 3-9 5 2 2c0 1 1 10 4 15s4 3 4 4l2 2 5-1a9 9 0 013-5c2-1 6-5 6-7l2 13 16 2c8 0 12-2 12-2v-8l2 6c1 2 2 5 5 5 2 1 4-2 4-3v-6h9l5 1c1 0 2-1 0-2h0l3 1h4v-1l-4-3-5-1a20 20 0 00-6 0l-6 2-1-1-1-11-1-5a87 87 0 000-9c0-2-3-4-7-4-4-1-7-4-7-7l1-9"/>
    <g fill="none">
      <path fill="url(#d)" d="M292 154v9l2 7a10 10 0 003 3c3 3 7 0 8 0a6 6 0 003-3l1-4 1-1 1-3-2-2v-6-2c-5 2-10 2-15 2l-1-1-1 1"/>
      <path fill="#000" d="M292 155v-3l1-3 2-2h3a11 11 0 019-1l4 4 1 8c0 4-1 3-1 3s-1-2-2 0v-3-5l-9 2-7-2-1 2"/>
      <path fill="#fff" stroke="#fff" d="M295 152c0-1-2-3-1-4l2 4h-1z"/>
      <path d="M298 160l-1 3m11 2h1m0-4c1 0 2 0 1 2m-18-5l3 1c2 0 1 3 0 4v3h2l1-1 1 1 1-2m0-4l1-1h5m-5 11h-5m0-1h2a5 5 0 011 0h2m-6 1h6"/>
      <path fill="#fff" d="M292 160h4c1 1-2 2-2 2l-2-1v-1zm9 1l2-1 2 1h-2l-2 1-1-1h1z" stroke="none"/>
      <path fill="#000" d="M294 161h1l-1-1-1 1h1zm8 1l1-1a1 1 0 00-1-1v2z" stroke="none"/>
    </g>
    <g id="g">
      <g fill="none">
        <path d="M346 214a4 4 0 00-2-2l-2-1-2-1m0 3l-1-1h-1s0 0 0 0a4 4 0 01-2-1m-63-10c1 1 3 3 3 6a11 11 0 001 3m-13-8c1 2 1 7 6 13m-5-21v3m15 11c1-3 4-3 4-5"/>
        <path d="M285 207l-1-8v-8s2 7-3 9m34 12l1-6v-9c1-1 2-4 0-9 0 0 3 11-4 11-8 0-7-3-7-3"/>
        <path d="M284 191c0 2 0 8 9 8 3 0 6-2 8-3m2-3v-7m-14-3l9-1m0-6c1 2 0 5 4 6m5-7l-1 4m0 3h9m1 22c1 2 1 4 4 7m-32-12c0 1-2 6 0 9a12 12 0 01-1 12m6-19l-2 4m6-1c0 1-2 8-4 10 0 1 3 2 3 7m7-21l1 2m3 1c1 1 5 6 4 9m-7-7l-1 9m-2 0c-1 0-3 1-3 3m9-3c1-1 3 1 3 7m16-11l-3 2-2 1"/>
      </g>
      <path fill="#000" stroke-width="0" d="M290 198l1-1-1-1-1 1 1 1zm23 0l1-1h-2l1 1z"/>
      <path fill="#fff" d="M281 240c1-8 5-15 5-15l10 1h19l1 4 2 34 1 12 3 40h-3s-14 1-14-1-1-27 1-42l-1-5-5-12-6 19-1 41-10 7c-1 1-9-3-9-4a211 211 0 015-33v-11c0-2 0-27 2-35z"/>
      <path fill="none" d="M294 275l-3 6m-3-54c0 1-2 7-7 11m14-10c-1 4-5 23-6 46m0 7l-2 20m-1 4a71 71 0 00-3 18m33-36c-1 2-1 16 3 28m-18-86l-1 18 2 3-2 6m-4-13l-3 11m13-25h5l4 46m-11-42v16m2 2l1 4m-17-28l3 1m5 2l-1 4m9 39l1 5"/>
      <path fill="#9b5f00" d="M285 224l1-4 9 1h12l8-1v5l-8 1a86 86 0 01-15 0 57 57 0 01-7-2z"/>
      <path fill="#fff" d="M288 225l1-5h1l-1 5h-1m22-4v5h2l-1-5h-1m-15 0l-1 5h1l1-5h-1"/>
      <path d="M277 321l-1 5c0 1-1 4 1 4l1-3v4c2 0 3-4 3-4-1 1-2 4 0 4s2-4 2-4-1 5 0 5c2 0 2-4 2-4s-1 5 2 4l2-3v-6l-1-3-5 3c-1 1-6-2-6-2zm30-5l-1 3c0 1 0 4 3 3h9l7 1 4-1h3l2-1c0-2-2-2-3-2a22 22 0 01-5-1l-6-2h-13z"/>
    </g>
    <g fill="none">
      <path fill="#ffb366" d="M256 190v-3s0-2 2-2c0 0 1-2 3-2l3-1 3 3v2c-1 1-1 0-1-1l-1 2h-1l-1 2-2-1v2h-2c-1-1-1-2-3-1z"/>
      <path d="M266 186l-4-3m2 5l-1-2-4-1m2 4l-1-1-4-1"/>
    </g>
  </g>
  <g stroke="#000" transform="translate(-40) scale(.96)">
    <path fill="url(#e)" d="M439 165l1 1 1 4 1 2c2 1 7 4 10 2a3 3 0 001-1s-1 4 3 6l16 8s1 3 0 7v1l4 6s3-1 3-3l-1-4-1-6 3-2 1 1c0 2-1 1-2 2l1 3 10 5-2 2c0 1-1 10-4 15l-4 4-2 1h-5a9 9 0 00-3-5c-2-1-6-5-6-7l-2 13-16 2c-8 0-12-2-12-2v-8l-2 6c-2 2-3 5-5 5-2 1-4-2-4-3v-6h-9l-5 1c-1 0-2-1-1-2h1a7 7 0 00-3 1h-4v-1l4-3 5-1h6l6 2 1-1v-9l1-5-1-7c0-6 4-8 8-9 4-2 7-3 7-6v-9"/>
    <g fill="none">
      <path fill="url(#f)" d="M456 154a20 20 0 012 5l-1 3c1 2 0 5-2 8l-3 4c-3 2-7-1-9-2a4 4 0 01-2-2l-1-4-1-1-1-3c-1-1 1-2 2-2a10 10 0 01-1-6l1-2c4 2 10 2 15 2l1-1v1"/>
      <path fill="#000" d="M457 155l-1-4-2-3c-1-2-1-1-2-1h-3-3l-5 1c-1 1-3 1-3 3l-1 7c0 4 1 3 1 3s1-1 2 0l-1-4 1-5s4 2 9 2l7-1 1 2z"/>
      <path d="M450 160l1 2m-10 3h-1M457 159h-4v4l1 2-2 1h-3v-2m0-4l-2-1-5 1m12 9h-2l-2-1-2 1m6 0h-6m0 1h5"/>
      <path fill="#fff" d="M456 160h-3c-1 1 2 2 2 2l1-1v-1zm-8 1l-3-1-1 1h1l3 1v-1z" stroke="none"/>
      <path fill="#000" d="M455 161a1 1 0 01-1 0l1-1 1 1h-1zm-9 1v-1l1-1v1l-1 1z" stroke="none"/>
    </g>
    <use xlink:href="#g" width="100%" height="100%" fill="#730000" transform="matrix(-1 0 0 1 749 0)"/>
    <g fill="none">
      <path fill="#730000" d="M492 194s2-2 0-3c0 0 0-2-2-2 0 0-1-2-3-2l-3-2-3 3v3l1-1 1 2c1 1 1 0 1-1l2 2h2l-1 1h2c1 0 1-2 3 0z"/>
      <path d="M483 190c0-2 2-3 4-3m-2 4v-1l5-2m-3 5l2-2a5 5 0 013 0"/>
      <path fill="#730000" d="M482 187l-2 2 1 3 1-1 1 2 1-1 1 2h2v1h2c0-1 0-2 2-1l1-1-7-5-3-1z" stroke="none"/>
      <path d="M481 188c-2 3 0 4 1 3 0 2 2 2 2 1 1 3 2 2 3 1-1 3 2 2 2 1h2l1-1m-8-6l-2 4m5-2l-3 3m6-1l-3 2"/>
    </g>
  </g>
  <path fill="#5ac800" d="M239 311l-1-5 2 2 1-4 2 2v-4l2 3 1-4 2 4c0 2 2-2 2-2a3116 3116 0 002 5l1-2 1 4 2-4 2 4h4l1 2 2-2 2 2 3-1 3 2 1-2 2 1 2-3 2 3 1-3c1-1 1 0 2 1l1-4 3 2c1 2 1-2 1-2l3 5s-17 6-28 4a306 306 0 01-24-4m110-1l2-3 2 3 2-1 2 2 1-2 2 2 3-1 2 1 5-1 1 1 2-2 2 2 3-3 1 2 3-2s2-1 2 1l1-2c0-2 2-1 2 1l2-3 1 4 4-2-1 5 3-3v5l3-1v3l3-1s-14 2-27 1-26-6-26-6m-9 10s-5 10-17 11c-17 1-31-8-31-8l3-4 3 5 1-3s3 1 3 3l2-2c1-1 2 2 2 3l3-2s2 1 2 5l3-2 2 4c0 1 2-2 5-2l3 2 4-5 2 2 2-4 1 2 2-3 2 2 3-4z"/>
  <path fill="none" stroke="#060" d="M239 311l-1-5 2 2 1-4 2 2v-4l2 3 1-4 2 4c0 2 2-2 2-2l2 5 1-2 1 4 2-4 2 4h4l1 2 2-2 2 2 3-1 3 2 1-2c1-1 2 1 2 1l2-3 2 3 1-3c1-1 1 0 2 1l1-4 3 2c1 2 1-2 1-2l3 5m58-1l2-3 2 3 2-1 2 2 1-2 2 2 3-1 2 1 5-1 1 1 2-2 2 2 3-3 1 2 3-2s2-1 2 1l1-2c0-2 2-1 2 1l2-3 1 4 4-2-1 5 3-3v5l3-1v3l3-1m-110 8l3-3 3 4 1-3s3 1 3 3l2-2c1-1 2 2 2 3l3-2s2 1 2 5l3-2 2 4c-1 1 2-2 5-2l3 2 4-5 2 2 1-4 2 2 2-3 2 2 3-4"/>
  <g fill="#fff">
    <path d="M320 362c22 0 35-8 42-13 16-11 20-11 23-11s7 1 8 4c0 4-7 6-11 6l-14-3-3 2c2 1 23 8 27 1l9-17s-5-9-16-9c-10 0-20 7-27 12s-16 12-39 12c-22 0-31-7-38-12s-17-12-28-12a18 18 0 00-15 9l9 18c4 6 25-1 27-2l-3-2-14 3c-4 0-11-2-11-6 1-3 5-4 8-4s7 0 23 11a72 72 0 0043 13"/>
    <path d="M284 336v-5c-1-3-3-4-4-4l-3 4a31 31 0 00-3-2 18 18 0 016-4l19 9 1 9a47 47 0 01-16-7m-6 14s-3 3-3 8c0 6 4 7 7 7 4 0 7-3 7-9l-11-6m77-14v-5c1-3 3-4 4-3l3 3 3-2-6-4-19 9-1 9a46 46 0 0016-7m6 14s3 3 3 8c0 6-4 7-7 7-4 0-7-3-7-9l11-6"/>
  </g>
  <path fill="#69f" d="M271 345l-14 3c-4 0-11-2-11-6 1-3 5-4 8-4s6 0 17 7m96 0l15 3c4 0 11-2 10-6 0-3-4-4-8-4-2 0-5 0-16 7m-84-9a94 94 0 01-3-2l-4-3 3-3c1-1 3 0 4 3v5m-7 28h5c4 1 7-2 7-8l11 4s2 1 2 4-2 5-3 5l-17-3-5-2m78-28l3-2 4-3-3-3c-2-1-4 0-4 3v5m7 28h-5c-4 1-7-2-7-8l-12 4-1 4c0 3 2 5 3 5l17-3 5-2"/>
  <g fill="none" stroke="#000">
    <path d="M320 362c22 0 35-8 42-13 16-11 20-11 23-11s7 1 8 4c0 4-7 6-11 6l-14-3-3 2c2 1 23 8 27 1l9-17s-5-9-16-9c-10 0-20 7-27 12s-16 12-39 12-31-7-38-12-17-12-27-12-16 9-16 9l9 18c4 6 25-1 27-2l-3-2-14 3c-4 0-11-2-11-6 1-3 5-4 8-4s7 0 23 11a72 72 0 0043 13z"/>
    <path d="M271 345l-14 3c-4 0-11-2-11-6 1-3 5-4 8-4s6 0 17 7zm97 0l14 3c4 0 11-2 10-6 0-3-4-4-8-4-2 0-5 0-16 7zm-84-9a93 93 0 01-3-2l-4-3 3-3c1-1 3 0 4 3v5z"/>
    <path d="M284 336v-5c-1-3-3-4-4-4l-3 4v0a32 32 0 00-3-2 18 18 0 016-4l19 9 1 9a47 47 0 01-16-7m-6 14s-3 3-3 8c0 6 4 7 7 7 4 0 7-3 7-9l-11-6z"/>
    <path d="M280 351s-2 3-3 7c0 3 2 5 5 4 4 0 5-5 3-8l-5-3"/>
    <path d="M277 364h5c4 1 7-2 7-8l11 4s2 1 2 4-2 5-4 5l-16-3-5-2zm78-28l3-2 4-3-3-3c-2-1-4 0-4 3v5z"/>
    <path d="M355 336v-5c0-3 2-4 4-4l3 4v0a32 32 0 013-2l-6-4-19 9c-1 1-2 7-1 9a46 46 0 0016-7m6 14s3 3 3 8c0 6-4 7-7 7-4 0-7-3-7-9l11-6z"/>
    <path d="M359 351s2 3 2 7c1 3-1 5-4 4-4 0-5-5-3-8l5-3"/>
    <path d="M362 364h-5c-4 1-7-2-7-8l-12 4-1 4c0 3 2 5 3 5l17-3 5-2z"/>
  </g>
  <path fill="none" stroke="#fff" d="M300 361s3 3-1 6m-9-7l10 4m-8-2l7 3m-5-5l6 3m39-2s-3 3 1 6m9-7l-10 4m8-2l-7 3m5-5l-6 3"/>
  <path stroke="#000" d="M261 331v1a3 3 0 010 1 2 2 0 01-1 1 3 3 0 01-2 1 4 4 0 01-1-1 4 4 0 01-1 0h0-1l1-3h0v1l1 1v1h2a1 1 0 001 0 2 2 0 000-1 2 2 0 000-1 2 2 0 00-1-1 48 48 0 00-1 0v-1l-1-1-1-1 1-1a3 3 0 011-1 3 3 0 011 0l1 1h2l-1 3h0a11 11 0 000-1 4 4 0 000-1 2 2 0 00-1-1 2 2 0 00-1 0 1 1 0 00-1 0v2h0l1 1a14 14 0 011 1h1m12 2h-1a1 1 0 000 0h-1a6 6 0 000 1l-2 3a2 2 0 01-2 1h-1a4 4 0 01-1 0 4 4 0 01-1-1 3 3 0 01-1-1 2 2 0 010-1 2 2 0 010-1l3-4a1 1 0 000 0v-1a2 2 0 000 0h-1v-1l4 2h-1 0a2 2 0 000 0h-1a1 1 0 000 1l-2 4a3 3 0 000 0 2 2 0 000 1v1l1 1h1a2 2 0 001-1h1l1-3 1-1v-1h-1a4 4 0 000-1h0l3 2a19 19 0 010 0m4 7a2 2 0 010 2 2 2 0 01-1 1 2 2 0 01-1 0h-1a4 4 0 010 0l-4-2v-1a5 5 0 001 1 1 1 0 000 0 1 1 0 001-1l3-5a1 1 0 000 0 1 1 0 000-1 2 2 0 00-1 0h0l4 2h0l1 1a2 2 0 010 1 2 2 0 01-1 1h0a3 3 0 01-1 0 3 3 0 01-1 0v0a5 5 0 011 1v1zm0-1v-1a3 3 0 001 0v-1l-1-1v-1h-1l-1 3h0l1 1h1zm-1 2v-1l-1-1a29 29 0 000 0l-1-1-1 3a1 1 0 000 1s0 0 0 0h2l1-1zm19 5a4 4 0 00-1 0 1 1 0 000 0h-1a6 6 0 000 1l-2 3v1a3 3 0 01-1 1 3 3 0 01-1 0 4 4 0 01-3-1 3 3 0 010-1 2 2 0 01-1-1 2 2 0 011-1l2-5a1 1 0 000 0 1 1 0 000 0 2 2 0 00-1-1h0l3 1v1a4 4 0 000 0 2 2 0 00-1 0h0a1 1 0 000 0l-2 4v1a2 2 0 000 1l1 1h1a2 2 0 002-1 3 3 0 000 0l1-3 1-1v-1h-1a4 4 0 000-1h0l3 1v1m9 10l-3-1v0a9 9 0 000 0h1a1 1 0 000 0 1 1 0 000 0l2-6a1 1 0 000 0l-5 6h0l-1-8-1 5-1 1h0l1 1a3 3 0 000 0v1l-3-1v-1h1a1 1 0 000 0h1v-1l1-4a2 2 0 000-1 1 1 0 000 0 1 1 0 000-1 2 2 0 00-1 0h3l1 7 3-4 1-1a3 3 0 000 0h2v1a4 4 0 000 0 2 2 0 00-1 0h0a1 1 0 000 0l-2 6a1 1 0 000 0v1a3 3 0 001 0h0m9-2a2 2 0 011 2l-1 1h-1-6v0h1a2 2 0 000 0 1 1 0 001-1 1 1 0 000 0v-6a1 1 0 000 0 1 1 0 000-1 2 2 0 000 0h-1v0h5l1 1a2 2 0 011 1l-1 1a2 2 0 010 1 3 3 0 01-1 0 3 3 0 01-1 0h1l1 1zm-1-2h0v-1a2 2 0 000-1h-1a27 27 0 00-1-1l-1 4h2a1 1 0 001-1zm0 3v-1l-2-1h0-1v3a1 1 0 000 1h2l1-2zm11 3h-2a44 44 0 00-1-2l-1-2h-1v3h1v1h-4v-1h1a1 1 0 000 0 1 1 0 000 0v-7h0a2 2 0 000 0h-1v-1h5a3 3 0 011 1h1a2 2 0 010 2 2 2 0 01-1 1 3 3 0 010 0 5 5 0 01-1 1l1 1 1 1a3 3 0 001 1 3 3 0 001 0v1zm-3-6v-2h-2v3h2v-1zm13 5h-3v0h1v0a1 1 0 000-1l-1-1h-3a10 10 0 000 1h0a3 3 0 00-1 1v0h2v1h-3v0a2 2 0 000-1 1 1 0 001 0v-1l1-3 1-4h1l3 7h0a1 1 0 001 1h0v0zm-3-3l-2-3-1 3h3zm15-7a28 28 0 000 1 3 3 0 00-1-1l-1-1a6 6 0 000 0l-1 1h-1l1 3h1l1-1h0v-1h0l1 3h0a3 3 0 00-1 0v-1a1 1 0 00-1 0 2 2 0 000 0l-1 1 1 3h0a1 1 0 000 0h1l-3 1h-1a10 10 0 001 0h0a1 1 0 000-1 1 1 0 000 0l-1-6a1 1 0 000 0h-1a2 2 0 000 0 2 2 0 00-1 0v-1l7-2v2m10 0l1 2-6 3h0v-1a1 1 0 000 0 1 1 0 000 0 1 1 0 000-1l-2-5a1 1 0 00-1 0 1 1 0 000 0h0a2 2 0 00-1 0v-1l3-1h1a3 3 0 00-1 0 2 2 0 000 1h0a1 1 0 000 0l2 5 1 1h1l1-1h0a1 1 0 000 0 6 6 0 000-2h1m4-9a4 4 0 012 1l1 2a5 5 0 011 1 4 4 0 010 2 4 4 0 01-1 1 4 4 0 01-1 1 4 4 0 01-4 1 4 4 0 01-1-1 5 5 0 01-1-1 5 5 0 01-1-2 4 4 0 010-2 4 4 0 012-2 4 4 0 012-1 4 4 0 011 0zm3 6a4 4 0 00-1-1 7 7 0 000-2 7 7 0 00-1-1 4 4 0 00-1-1 2 2 0 00-1 0h-2v1a3 3 0 00-1 1l1 2a7 7 0 001 2l1 1a2 2 0 001 0h1a2 2 0 002-2zm10-6l-2 2-2-1-2-1-1 1 2 2h0a2 2 0 001 0h0l-3 2h0a9 9 0 001-1 1 1 0 000 0 1 1 0 000 0l-4-5a1 1 0 000-1h-1a3 3 0 000 1l-1-1 4-2a5 5 0 011 0 3 3 0 010-1h1a2 2 0 011 2v1a3 3 0 010 0 5 5 0 010 1l1 1h2a3 3 0 001 0h0a3 3 0 001 0h0zm-6-3l-1-1-1 1h-1l2 3h0l1-1v-2zm13-2l1 2-7 3v-1a4 4 0 001 0 1 1 0 000 0 1 1 0 000-1l-2-5a1 1 0 000-1h-1 0a2 2 0 00-1 0h0l6-2 1 2h0a3 3 0 00-1-1h-1a4 4 0 000 0h-2l1 4 1-1s0 0 0 0a1 1 0 001 0v-2h0l1 3v1a3 3 0 00-1-1 2 2 0 000 0 1 1 0 000 0h-2l1 2v1a1 1 0 000 0h2a4 4 0 001-1h0l1-1v-1h0m7-6l1 1 1 2a5 5 0 010 2 4 4 0 01-1 1 4 4 0 01-3 2 4 4 0 01-3-1 4 4 0 01-1-1 5 5 0 010-2 5 5 0 010-2v-1a4 4 0 013-2 4 4 0 012 0l1 1zm0 6v-3a7 7 0 000-1 4 4 0 00-1-1 2 2 0 00-1-1 2 2 0 00-1 0h-1l-1 1a4 4 0 000 2 7 7 0 000 3l1 1h1l1 1a2 2 0 001-1 2 2 0 001-1z"/>
  <path fill="none" stroke="#000" d="M366 205v53c0 11-1 53-46 69a70 70 0 01-47-69v-53h93"/>
</svg>
