<svg xmlns="http://www.w3.org/2000/svg" xmlns:xlink="http://www.w3.org/1999/xlink" id="flag-icons-cc" viewBox="0 0 640 480">
  <defs>
    <path id="a" d="M0-360l69 216 212-80L156-36 351 80l-226 20 31 224L0 160l-156 164 31-224-226-20 195-116-125-189 212 81z"/>
    <path id="b" d="M0-210L55-75l145 10L89 29l34 141L0 93l-123 77 34-141-111-94 145-10z"/>
  </defs>
  <path fill="green" d="M0 0h640v480H0z"/>
  <circle cx="320" cy="240" r="67" fill="#ffe000"/>
  <circle cx="341" cy="240" r="55" fill="green"/>
  <circle cx="110" cy="173" r="70" fill="#ffe000"/>
  <path fill="#802000" stroke="#7b3100" stroke-width="2" d="M105 226h18l-1-2c-1-1-4-1-3-4 2-6 2-4 3-18a739 739 0 002-36h-2l-1 16-4 16a64 64 0 01-3 11l-4 8-3 5-1 1-1 3z"/>
  <path fill="green" d="M118 123a23 23 0 01-1 9 27 27 0 00-2 9c-2 1-4-3-6-1l7 10c0 1 3 4 1 5-4-2-5-7-8-11a19 19 0 00-15-10c-3 0-11 0-9 4 3 2 7 3 10 6 2 0 6 4 6 5l-10-5c-6-2-13-1-17 5 0 1-1 5 1 6 2-3 5-7 10-6 3 0-4 6-1 5l4-2 4 1 2 2-3 1-3 2h-5c-4-2-10-1-11 3 0 2-2 0-3 1 0 2 0 4-4 4l-6 6c1 3 7-4 7-1-3 4 1 4 3 2 3-3 6-7 11-4 2 2 3-1 4-1 1 3 2 0 3 0 2-1 2 2 4 0 4-2 9 0 13-3 4-2 0 2-1 3-2 4 0 9-4 11-2 4 2 10-2 13 0 2 5 2 6 3 3 0 0-6 3-7 3 2 3-4 2-6l3-12c2-4 4 2 2 4-2 4-4 9-1 13l3 3c1 1 3 0 3-2l3-18c2-2 4-1 5 1l8 11a15 15 0 018 7c0 3 8 3 5 0-2-3 0-5 2-7v-1c-2-1-2-3 0-2 4 1 0-3-1-3-3-1-7-3-8-7 4 0 8 2 12 1 3-1 6 0 7 3 2 0 1-3 0-4 2 0 3-2 1-3-1-1 1-4-2-4 0-2-1-5-4-5-2-3-10 3-10-2-1-3 3-1 4-2 2-3-5-3-3-5 2-1 8-2 3-3a8 8 0 01-7-1c-2 3-7-2-6 4-1 2-6 7-7 3 1-3 7-4 5-9 0-2-3 1-4 1 0-2 2-4 4-5 3 3 3-3 6-2 2-1-1-2-2-2 1-1 4-2 1-4s-5 2-7 3c-3-3 2-4 3-5 0-1-3-1-2-2s5-1 3-3a15 15 0 00-10 1l-4 5c-1-2 0-6-3-6zm15 42c3-1 0 4-1 3 0-1-3-1-1-2a7 7 0 012-1z"/>
  <g fill="#ffe000" transform="translate(0 80) scale(.0635)">
    <use xlink:href="#a" width="100%" height="100%" x="7560" y="4200"/>
    <use xlink:href="#a" width="100%" height="100%" x="6300" y="2205"/>
    <use xlink:href="#a" width="100%" height="100%" x="7560" y="840"/>
    <use xlink:href="#a" width="100%" height="100%" x="8680" y="1869"/>
    <use xlink:href="#b" width="100%" height="100%" x="8064" y="2730"/>
  </g>
</svg>
