<svg xmlns="http://www.w3.org/2000/svg" id="flag-icons-cefta" viewBox="0 0 640 480">
  <path fill="#039" d="M0 0h640v480H0z"/>
  <circle cx="320" cy="250" r="30" fill="none" stroke="#fc0" stroke-width="28"/>
  <circle cx="320" cy="250" r="88" fill="none" stroke="#fc0" stroke-width="28"/>
  <path fill="#039" d="M405 165l84 85-84 85-85-85z"/>
  <path fill="#fc0" d="M176 236h59v28h-59zm259 0h88v28h-88zm-72-49l39-38 19 19-39 39zM306 49h28v107h-28z"/>
  <circle cx="225" cy="160" r="14" fill="#fc0"/>
  <circle cx="144" cy="250" r="14" fill="#fc0"/>
  <circle cx="320" cy="381" r="14" fill="#fc0"/>
  <circle cx="320" cy="426" r="14" fill="#fc0"/>
  <circle cx="408" cy="250" r="14" fill="#fc0"/>
  <path fill="#fc0" d="M208 342l20-20 19 20-19 19zm205 21l20-20 19 20-19 19z"/>
</svg>
