<svg xmlns="http://www.w3.org/2000/svg" xmlns:xlink="http://www.w3.org/1999/xlink" id="flag-icons-cx" viewBox="0 0 640 480">
  <path fill="#0021ad" d="M0 0h640v480H0z"/>
  <path fill="#1c8a42" d="M0 0h640v480z"/>
  <circle cx="320" cy="240" r="58" fill="#ffc639"/>
  <path fill="#1c8a42" d="M285 214c4 6 10 15 14 12 4 0 6 0 7 3a37 37 0 0033-14v-5c0-2 3-1 3-1l1 2 4-5v-2c1-2 2-1 3 0v1h6l1-1h1c0 8 2 8 2 12 0 5-2 6-2 7 1 3 7 3 5 4s0 3-3 4c-9 5-10 9-10 9l-3 4c-1 3-3 1-4 2v8l-1 7-3 8-1 12-14-2c3-11 2-20 2-21-1-8-12-6-14-7l-3-2-3-1-2 2c-5 0-7-4-7-4 1-2-9 0-15-1-2 1-3 5-5 5l-4-2c0-3 3-4 3-4l5-4c1-2 0-5 2-7l3-1c1-1 2-6 1-7l-5-4c-1-5 2-7 3-7z"/>
  <path fill="#ffc639" d="M562 142c-3-10-26-32-44-46-4-3-7-2-6 3l6 11 2 6 1 5c5 6 6 11 6 11a49 49 0 0012 16c6 4 1 16 1 22 0 4-3 4-5 3-20-18-40-18-58-24-7 0-7 3-5 5a129 129 0 0039 29l8 5 9 7c7 5 7 9 7 9 0 8-4 15-5 17-3 9-7 11-7 11-38 25-58 32-119 24-1-1-7 0 0 3 16 5 54 13 91-4 9-7 15-5 21-8a287 287 0 0128-16c9-4 32-9 37-14 6 0 12-1 13-6 2-1 5 0 7-5 5-1 4-2 4-2-1-4-6-5-9-8-5-1-8-2-11 0l-4 2-5-2c-11 0-10-38-14-54z"/>
  <path fill="#1c8a42" d="M589 204a3 2 16 11-6-2 3 2 16 016 2z"/>
  <g fill="#fff" transform="matrix(.64 0 0 .64 0 80)">
    <path id="a" d="M188 191l-13-12-13 12 2-18-17-2 14-10-9-15 17 5 7-16 6 16 17-5-9 15 14 10-17 3 1 17z"/>
    <path d="M233 336l-13-10-14 10 5-15-14-10h17l5-16 6 15h16l-13 10 5 15z"/>
    <use xlink:href="#a" width="100%" height="100%" x="3" y="269"/>
    <use xlink:href="#a" width="100%" height="100%" x="-112" y="123"/>
    <use xlink:href="#a" width="100%" height="100%" x="108" y="85"/>
  </g>
</svg>
