<svg xmlns="http://www.w3.org/2000/svg" id="flag-icons-dm" viewBox="0 0 640 480">
  <defs>
    <clipPath id="a">
      <path d="M-85 0h683v512H-85z"/>
    </clipPath>
  </defs>
  <g fill-rule="evenodd" clip-path="url(#a)" transform="translate(80) scale(.94)">
    <path fill="#108c00" d="M-258 0H769v512H-258z"/>
    <path fill="#ffd600" d="M-260 178H773v50H-260z"/>
    <path fill="#ffd600" d="M181 0h49v512h-49z"/>
    <path d="M228 0h48v512h-48z"/>
    <path d="M-260 227H773v50H-260z"/>
    <path fill="#fff" d="M-260 277H773v50H-260z"/>
    <path fill="#fff" d="M276 0h49v512h-49z"/>
    <rect width="274" height="275" x="-395" y="-394" fill="#e72910" ry="138" transform="scale(-1)"/>
    <path d="M251 137l5-16 5 16h17l-13 10 6 18-15-11-14 10 5-17-13-10h17z"/>
    <path fill="#ffe700" d="M251 138l5-14 4 14h15l-11 9 5 15-13-9-13 9 5-15-11-9h14z"/>
    <path fill="#108c00" d="M253 140l3-8 3 8h8l-6 5 3 9-8-5-7 5 3-9-7-5h8z"/>
    <path d="M357 212l5-16 6 16h17l-14 10 6 18-15-11-14 10 6-17-14-10h17z"/>
    <path fill="#ffe700" d="M358 213l5-14 4 13 15 1-12 9 5 15-12-10-13 9 5-15-12-8h15z"/>
    <path fill="#108c00" d="M360 215l2-8 3 8h9l-7 5 3 9-7-6-8 6 3-9-7-5h9z"/>
    <path d="M326 331l5-16 6 15 17 1-14 10 6 18-15-11-14 10 6-17-14-10h17z"/>
    <path fill="#ffe700" d="M327 331l5-13 4 13h15l-12 9 5 16-12-10-13 9 5-15-12-8 15-1z"/>
    <path fill="#108c00" d="M329 334l2-8 3 8h9l-7 5 3 9-7-6-8 5 3-8-7-5h9z"/>
    <path d="M177 331l6-16 5 15 17 1-14 10 7 18-15-11-15 10 6-17-13-10h16z"/>
    <path fill="#ffe700" d="M178 331l5-13 4 13h15l-12 9 6 16-13-10-13 9 5-15-11-8 14-1z"/>
    <path fill="#108c00" d="M180 334l3-8 2 8h9l-7 5 3 9-7-6-8 5 3-8-6-5h8z"/>
    <g>
      <path d="M150 209l6-16 5 15 17 1-14 10 6 18-14-11-15 10 6-17-14-10h17z"/>
      <path fill="#ffe700" d="M151 210l5-14 4 13h15l-12 9 5 16-12-10-13 9 5-15-12-8 15-1z"/>
      <path fill="#108c00" d="M153 212l3-8 2 8h9l-7 5 3 9-7-6-8 5 3-8-6-5h8z"/>
    </g>
    <g>
      <path d="M325 174l-6 16-5-16h-17l13-10-6-18 15 11 15-10-6 17 13 10h-16z"/>
      <path fill="#ffe700" d="M324 173l-5 14-4-13-15-1 11-9-5-15 13 10 13-9-5 14 11 9h-14z"/>
      <path fill="#108c00" d="M322 171l-3 8-2-8h-9l7-5-3-9 7 6 7-6-3 9 7 5h-8z"/>
    </g>
    <g>
      <path d="M367 290l-5 16-5-15-18-1 14-10-6-18 15 11 14-10-5 17 13 10h-17z"/>
      <path fill="#ffe700" d="M367 290l-5 13-5-13-14-1 11-8-5-16 13 10 12-9-5 14 12 9-14 1z"/>
      <path fill="#108c00" d="M365 287l-3 8-3-8h-8l6-5-3-9 8 6 7-6-3 9 7 5h-8z"/>
    </g>
    <g>
      <path d="M261 375l-5 16-5-15-17-1 13-10-6-18 15 11 14-10-5 17 13 10h-17z"/>
      <path fill="#ffe700" d="M261 374l-5 14-5-13-14-1 11-8-5-16 13 10 12-9-5 14 12 9h-14z"/>
      <path fill="#108c00" d="M259 372l-3 8-3-8h-8l7-5-3-9 7 6 7-6-3 9 7 5h-8z"/>
    </g>
    <g>
      <path d="M162 290l-6 16-5-15-17-1 14-10-6-18 14 11 15-10-6 17 14 10h-17z"/>
      <path fill="#ffe700" d="M161 290l-5 13-4-13-15-1 12-8-6-16 13 10 13-9-5 14 11 9-14 1z"/>
      <path fill="#108c00" d="M159 287l-3 8-2-8h-9l7-5-3-9 7 6 8-6-3 9 6 5h-8z"/>
    </g>
    <g>
      <path d="M199 176l-6 16-5-16h-17l13-10-6-18 15 11 15-10-6 17 13 10h-16z"/>
      <path fill="#ffe700" d="M198 175l-5 14-4-14h-15l11-9-5-15 13 9 13-9-5 15 11 9h-14z"/>
      <path fill="#108c00" d="M196 173l-3 8-2-8h-9l7-5-3-9 7 5 7-5-2 9 6 5h-8z"/>
    </g>
    <g transform="matrix(1.04 0 0 1.04 -251 359)">
      <g fill="#009200" stroke="#000" stroke-width="3" transform="matrix(.16 -.02 0 .18 430 -216)">
        <ellipse cx="680" cy="586" rx="31" ry="190" transform="matrix(1.4 0 0 1 -534 264)"/>
        <ellipse cx="680" cy="586" rx="31" ry="190" transform="matrix(1.5 0 0 1 -547 267)"/>
        <ellipse cx="680" cy="586" rx="31" ry="190" transform="matrix(1.2 0 0 1.1 -365 214)"/>
      </g>
      <g stroke="#000" transform="translate(73 -10)">
        <path fill="#a95600" d="M389-53c6 0 3-3 6-5s7-1 8 1c2 2 1 4 3 4s47-2 48-1c2 2 2 6 0 7-1 1-58 3-60 1l-5-7z"/>
        <path fill="#ff0" stroke-width="4" d="M530 406c0 40 45 27 46 61 0 35-76 3-78-62 2-64 75-97 76-60 2 30-44 21-44 61z" transform="matrix(.15 0 0 .1 340 -82)"/>
        <path fill="#ff0" stroke-width="4" d="M530 406c0 40 45 27 46 61 0 35-76 3-78-62 2-64 75-97 76-60 2 30-44 21-44 61z" transform="matrix(.15 0 0 .1 344 -82)"/>
        <path fill="#ff0" stroke-width="4" d="M530 406c0 40 45 27 46 61 0 35-76 3-78-62 2-64 75-97 76-60 2 30-44 21-44 61z" transform="matrix(.15 0 0 .1 349 -82)"/>
        <path fill="#ff0" stroke-width="4" d="M530 406c0 40 45 27 46 61 0 35-76 3-78-62 2-64 75-97 76-60 2 30-44 21-44 61z" transform="matrix(.15 0 0 .1 353 -82)"/>
        <ellipse cx="478" cy="-41" fill="#a95600" rx="4" ry="3" transform="matrix(1.1 .02 -.02 1.15 -76 5)" stroke="none"/>
      </g>
      <g fill="#009200" stroke="#000" stroke-width="3" transform="rotate(-6 688 -625)">
        <ellipse cx="427" cy="905" rx="21" ry="24" transform="matrix(.17 0 0 .32 370 -362)"/>
        <ellipse cx="427" cy="905" rx="21" ry="24" transform="matrix(.17 0 0 .32 364 -363)"/>
        <ellipse cx="427" cy="905" rx="21" ry="24" transform="matrix(.17 0 0 .32 361 -371)"/>
        <ellipse cx="427" cy="905" rx="21" ry="24" transform="matrix(.16 0 0 .35 369 -399)"/>
        <ellipse cx="427" cy="905" rx="21" ry="24" transform="matrix(.16 0 0 .33 377 -379)"/>
        <ellipse cx="427" cy="905" rx="21" ry="24" transform="matrix(.16 0 0 .33 373 -382)"/>
        <ellipse cx="427" cy="905" rx="21" ry="24" transform="matrix(.16 0 0 .33 368 -387)"/>
        <ellipse cx="427" cy="905" rx="21" ry="24" transform="matrix(.16 0 0 .33 363 -389)"/>
      </g>
      <path fill="#804bff" stroke="#000" d="M483-141s-12 10-10 37c1 27 26 39 26 39s6-7 5-29c-2-32-14-46-14-46l-7-1z"/>
      <g fill="#009200" stroke="#000" stroke-width="3" transform="rotate(5 181 770)">
        <ellipse cx="427" cy="905" rx="21" ry="24" transform="matrix(.17 0 0 .32 370 -362)"/>
        <ellipse cx="427" cy="905" rx="21" ry="24" transform="matrix(.17 0 0 .32 364 -363)"/>
        <ellipse cx="427" cy="905" rx="21" ry="24" transform="matrix(.17 0 0 .32 361 -371)"/>
        <ellipse cx="427" cy="905" rx="21" ry="24" transform="matrix(.16 0 0 .35 369 -399)"/>
        <ellipse cx="427" cy="905" rx="21" ry="24" transform="matrix(.16 0 0 .33 377 -379)"/>
        <ellipse cx="427" cy="905" rx="21" ry="24" transform="matrix(.16 0 0 .33 373 -382)"/>
        <ellipse cx="427" cy="905" rx="21" ry="24" transform="matrix(.16 0 0 .33 368 -387)"/>
        <ellipse cx="427" cy="905" rx="21" ry="24" transform="matrix(.16 0 0 .33 363 -389)"/>
      </g>
      <ellipse cx="624" cy="606" fill="#c90000" stroke="#000" rx="58" ry="187" transform="matrix(.16 -.06 .06 .15 370 -145)"/>
      <g fill="#009200" stroke="#000" transform="rotate(1 242 -1958)" stroke-width="2">
        <ellipse cx="218" cy="357" rx="11" ry="13" transform="matrix(.4 0 0 .3 445 -230)"/>
        <ellipse cx="218" cy="357" rx="11" ry="13" transform="matrix(.35 0 0 .3 457 -236)"/>
        <ellipse cx="218" cy="357" rx="11" ry="13" transform="matrix(.35 0 0 .3 452 -236)"/>
        <ellipse cx="218" cy="357" rx="11" ry="13" transform="matrix(.37 0 0 .27 450 -233)"/>
        <ellipse cx="218" cy="357" rx="11" ry="13" transform="matrix(.37 0 0 .27 449 -238)"/>
        <ellipse cx="218" cy="357" rx="11" ry="13" transform="matrix(.35 0 0 .3 447 -239)"/>
        <ellipse cx="218" cy="357" rx="11" ry="13" transform="matrix(.35 0 0 .3 448 -242)"/>
        <ellipse cx="218" cy="357" rx="11" ry="13" transform="matrix(.4 0 0 .3 433 -243)"/>
        <ellipse cx="218" cy="357" rx="11" ry="13" transform="matrix(.37 0 0 .27 446 -243)"/>
        <ellipse cx="218" cy="357" rx="11" ry="13" transform="matrix(.35 0 0 .3 444 -247)"/>
        <ellipse cx="218" cy="357" rx="11" ry="13" transform="matrix(.35 0 0 .3 436 -243)"/>
        <ellipse cx="218" cy="357" rx="11" ry="13" transform="matrix(.35 0 0 .3 437 -244)"/>
        <ellipse cx="218" cy="357" rx="11" ry="13" transform="matrix(.35 0 0 .3 439 -247)"/>
      </g>
      <g fill="#009200" stroke="#000" transform="matrix(.18 0 0 .2 421 -217)">
        <ellipse cx="529" cy="565" stroke-width="3" rx="67" ry="206" transform="matrix(.98 -.3 .36 .87 -246 324)"/>
        <ellipse cx="529" cy="646" stroke-width="3" rx="13" ry="41" transform="rotate(-23 631 661)"/>
        <path stroke-width="2" d="M140 644c0 58-19 86-35 110 8-32 13-52 13-110s30-85 41-102c-5 17-19 44-19 102z" transform="matrix(1.88 -.46 .95 1.18 -352 -10)"/>
        <path stroke-width="2" d="M140 644c0 58-19 86-35 110 8-32 13-52 13-110s30-85 41-102c-5 17-19 44-19 102z" transform="matrix(1.88 -.46 .95 1.18 -348 44)"/>
        <path stroke-width="2" d="M140 644c0 58-19 86-35 110 8-32 13-52 13-110s30-85 41-102c-5 17-19 44-19 102z" transform="matrix(1.87 -.5 .98 1.16 -362 106)"/>
        <ellipse cx="529" cy="646" rx="13" ry="41" transform="matrix(1.8 -.4 .7 1.64 -916 -221)"/>
        <ellipse cx="529" cy="646" stroke-width="2" rx="13" ry="41" transform="matrix(1.63 -.23 .54 1.35 -739 -92)"/>
        <ellipse cx="529" cy="646" stroke-width="2" rx="13" ry="41" transform="matrix(1.63 -.2 .5 1.36 -751 -92)"/>
        <ellipse cx="529" cy="646" stroke-width="2" rx="13" ry="41" transform="matrix(1.3 -.2 .47 1 -531 48)"/>
        <ellipse cx="529" cy="646" stroke-width="2" rx="13" ry="41" transform="matrix(1.33 -.13 .4 1.03 -518 12)"/>
        <path stroke-width="2" d="M146 570c0 34-7 61-15 61s-15-27-15-61" transform="matrix(1.03 -.5 .46 1.18 13 -14)"/>
        <ellipse cx="529" cy="646" stroke-width="2" rx="13" ry="41" transform="matrix(1.33 -.13 .4 1.03 -519 -34)"/>
        <ellipse cx="529" cy="646" stroke-width="2" rx="13" ry="41" transform="matrix(1.33 -.1 .38 1.04 -534 -40)"/>
        <path stroke-width="3" d="M146 570c0 34-7 61-15 61s-15-27-15-61" transform="matrix(.67 -.47 .46 .8 40 143)"/>
        <path stroke-width="3" d="M146 570c0 34-7 61-15 61s-15-27-15-61" transform="matrix(.67 -.47 .46 .8 51 126)"/>
        <path stroke-width="2" d="M146 570c0 34-7 61-15 61s-15-27-15-61" transform="matrix(.94 -.64 .64 1.1 -40 -11)"/>
        <path stroke-width="3" d="M146 570c0 34-7 61-15 61s-15-27-15-61" transform="matrix(.67 -.52 .46 .88 69 71)"/>
      </g>
      <g fill="#804bff" stroke="#000" stroke-width="3">
        <path d="M276 345c-12 10 1 26 12 31 13 8 87 58 137 12-41 1-119-63-149-43z" transform="matrix(.16 0 0 .22 458 -214)"/>
        <path d="M276 345c-12 10 1 26 12 31 13 8 87 58 137 12-41 1-119-63-149-43z" transform="matrix(.16 0 0 .22 457 -220)"/>
        <path d="M276 345c-12 10 1 26 12 31 13 8 87 58 137 12-41 1-119-63-149-43z" transform="matrix(.16 0 0 .22 455 -226)"/>
        <path d="M276 345c-12 10 1 26 12 31 13 8 87 58 137 12-41 1-119-63-149-43z" transform="matrix(.16 0 0 .22 451 -232)"/>
      </g>
      <g transform="rotate(1 -590 682)">
        <path fill="#804bff" stroke="#000" stroke-width="3" d="M211 247c22-12 57-9 80 12 19 17 45 75 70 92a58 58 0 01-42-15 97 97 0 01-64 16c-36-2-62-18-68-41-6-22 5-52 24-64z" transform="matrix(.2 -.04 .05 .18 408 -214)"/>
        <ellipse cx="287" cy="323" fill="red" stroke="#000" stroke-width="3" rx="14" ry="15" transform="matrix(.25 0 0 .13 402 -215)"/>
        <ellipse cx="205" cy="348" fill="#ff0" stroke="#000" stroke-width="3" rx="23" ry="16" transform="matrix(.2 -.08 .07 .17 399 -208)"/>
        <circle cx="284" cy="334" r="6" transform="matrix(.2 0 0 .2 411 -234)"/>
        <path fill="#ff0" stroke="#000" stroke-width="7" d="M517 260c4 18-7 43-33 53-27 13-46 42-56 88-47-103-23-148 21-160 37-15 60-14 68 19z" transform="matrix(.1 0 0 .08 418 -191)"/>
        <circle cx="199" cy="362" r="5" transform="matrix(.2 0 0 .2 419 -235)"/>
      </g>
    </g>
  </g>
</svg>
