<svg xmlns="http://www.w3.org/2000/svg" xmlns:xlink="http://www.w3.org/1999/xlink" id="flag-icons-do" viewBox="0 0 640 480">
  <path fill="#fff" d="M0 0h640v480H0Z"/>
  <path fill="#002d62" d="M0 0h272v192H0Zm368 288h272v192H368Z"/>
  <path fill="#ce1126" d="M0 288h272v192H0ZM368 0h272v192H368Z"/>
  <path fill="#201b18" d="M307 197c-6 0-13 1-19 4-2 2-3 3-1 5l-4 1a38 38 0 0 0-6 3l-2 2h5l-1 1-2 4 5-3c4-2 10-2 13-6v-2l5-2 14-1 1-1v-3h10c0 1-2 4 1 4l14 1 5 2v2l2 2a22 22 0 0 0 5 2c6 1 7 2 11 5l-3-5h5l-5-3-7-3 1-3-8-4a68 68 0 0 0-7-2h-7v-4l-4-1h-16l-4 1-1 4z"/>
  <g fill="#002d62">
    <path d="m309 200 2-1 9-1h6l5 2 1-4c0-2-1-3-3-3l-9-1-10 1c-1 0-2 1-2 3l1 4z"/>
    <path d="m289 209 3-2a35 35 0 0 1 9-4h14v-2c-1-1-3 2-6 1l-1-2-1-3c-4 0-11 1-15 3l-5 3v3l2 3zm36-8c0 2 1 2 2 2h12a35 35 0 0 1 6 2l5 3 1 1 2-3v-3l-5-3a39 39 0 0 0-8-2l-8-1-1 5c-3 1-4-1-6-1z"/>
    <path d="m345 207 1 2 12 4 4 2-3-4h5c-2-2-8-3-11-4l-2 2-2 1-2-2-2-1zm-20-6 3 1h2l1-1-2-2h-4zm-10 0v-2c-1 0-6 0-6 2l1 1 5-1zm-25 8 3-2 2-1h-1l-2 1-2 2z"/>
    <path d="m345 206 1 1c1 1 3 3 4 2l-2-2-2-1a2 2 0 0 0-1 0zm-50 1-1 2-12 4-4 2 3-4h-5c2-2 8-3 11-4l1 1 1 1 2 1 2-2 2-1z"/>
  </g>
  <path fill="#eac102" d="M296 200h-2v1l1 1v2l1-1h1v-2a2 2 0 0 0 0-1h-1zm-1 0 1 1 1 2h-1v-1l-1-1a5 5 0 0 1 0-1zm2-1v1h1v3l1-1v-1h-1v-2h-1zm3-1-1 1v1l1 2h1l1-1v-1a3 3 0 0 0-1-1 1 1 0 0 0-1-1zm0 1h1v3l-1-1v-2zm2-1v1a1 1 0 0 0 1 1h1v1a1 1 0 0 1-1 0c0-1 0 0 0 0l1 1v-1h1a1 1 0 0 0 0-1 1 1 0 0 0-1-1 4 4 0 0 0-1 0v-1l1 1v-1a1 1 0 0 0-1 0h-1zm12-4h-2a1 1 0 0 1 1 0v3h1-1v-1h1l1-1a1 1 0 0 0 0-1 1 1 0 0 0-1 0zm0 0v2l-1-1v-1h1zm2 0v1a10 10 0 0 1 0 1l-1 1h1v-1h1v1h1-1v-2a9 9 0 0 1 0-1h-1zm0 0 1 2h-1v-2zm3-1h-1a1 1 0 0 1 0 1h1v3h1-1v-3h1v-1h-1zm3 0h-1v4h1v-2 1l1 1v-4a3 3 0 0 0-1 0zm0 1h1v1h-1v-1zm2 0v3h1v-3h-1zm3 0v1h-1v2l1-1v1h1v-2a2 2 0 0 0-1-1c1 0 0 0 0 0zm0 1v1h-1l1-1zm6 3 1 1v2l-1 1h2v-1h-1a32 32 0 0 1 0-2v-1zm3 4h1v-4h-1v4zm1-4v2a26 26 0 0 1 0 1v1h2v-2a1 1 0 0 0 0-1v-1h-2zm1 0 1 1-1 1v-2zm0 2h1v1h-1c0 1 0 0 0 0a9 9 0 0 1 0-1zm2 2h2a1 1 0 0 1-1 0h-1l1-2v1h1v-1h-1v-1h1v1-1l-2-1v4zm3-3v1l-1 1v2h1v-2 1l1 1v-2l1-1a1 1 0 0 0-1-1h-1zm0 1a1 1 0 0 1 1 0v1h-1v-1zm2 1h1v1l-1 1v1h1v-2a31 31 0 0 1 1-1v1-1l-1-1h-1v1zm3 0v1l-1 2a1 1 0 0 1-1 0h1v1-1h1v1s1 0 0 0l1-1v-2l-1-1zm0 1v2l-1-1h1v-1zm2 1v1l-1 1v1l1 1h1v-1a3 3 0 0 0 1 0v-1l-1-2h-1zm1 0v3h-2l1-1v-1h1v-1z"/>
  <path fill="#006300" d="m309 279 2 1 2 4h1l-4 2v2l2-1 6-3 2-1 8 4 2 1 1-1-1-1-4-2h1v-1l2-3 2-1c0-2-18-3-22 0z"/>
  <path fill="#ff0" d="M310 286c-1 1 0 2 1 1l-1-1zm19 1h1c1 0 0 0 0 0v-1l-1 1z"/>
  <path fill="#006300" stroke="olive" stroke-width=".2" d="m346 216 2 6-1-1a30 30 0 0 1-2-3l1 2 3 6h-1l-1-2a20 20 0 0 1-2-3 52 52 0 0 0-1-2v1l1 3-1-1h-1l-1-1 2 3 1 2a14 14 0 0 0 3 3v1l-1-1-4-3 1 1 2 2 3 3 1 3a14 14 0 0 0-1-2l-2-2-3-3a26 26 0 0 0-2-1s2 3 4 3l1 1 1 2a36 36 0 0 1 2 3l1 1-5-4-2-2 3 4h1l1 1 2 3v2a20 20 0 0 0-1-2 8 8 0 0 0-1-1l-3-3-2-1h1l1 1a22 22 0 0 1 3 4l1 2a3 3 0 0 1-1-1v-1l-2-1-3-2 1 1 3 2v1l2 2 1 1 1 2 1 5-2-5c0-1-1-4-2-3l-1 1-2 2a18 18 0 0 0-2 4v1l1-1 2-4-1 5v-1l2-3 2 9a21 21 0 0 0-1-3l-2-3-1 2-1-1-1 2a8 8 0 0 0 0 2v2l1-5c0 1 2 3 1 4 0 4-1 6-3 9l-1 2-1 1 2-5a24 24 0 0 0 1-5l-5 11v-3 1a18 18 0 0 1-2 4l1-1a26 26 0 0 0 0-4v-1 2l-2 3 1-3-1 1v1l-3 5a209 209 0 0 0 6 1h10l-3-1-2-1h7-1l-5-1 6-1h2l-4-1h8l-6-1 3-2a41 41 0 0 1 5-1l1-1-5 1 1-1 4-2h-1l4-1 3-1h1l-6 1h-2l5-2 2-1h-2l-4 2h-2l9-2 1-1h-6l2-1 1-1h2l-1-1 1-1v-1l-2 2h-4a25 25 0 0 1 3-2l1-1h2-3a19 19 0 0 0-4 2 46 46 0 0 1 6-5l1-1-4 2a36 36 0 0 0-4 3 28 28 0 0 1 3-3l1-1 3-2 1-1 1-1a55 55 0 0 0-5 3l-2 1-2 2 3-4a46 46 0 0 1 5-5l1-1-2 1a39 39 0 0 0-5 4v1l-2 2a62 62 0 0 0-3 4l3-5 3-3 1-1 3-6-2 2v1l-6 6 2-3a63 63 0 0 1 6-8l1-1 1-1-3 1-6 6a26 26 0 0 1 2-5l2-3 2-2h-1l-1 1-5 7 2-4 3-5-2 2-2 3a31 31 0 0 0-3 5v1l3-8 1-2 1-1 1-1 1-1c-1-1-3 2-4 3l-1 2 2-4 2-3 1-1-5 5-1 1-1 1v1a37 37 0 0 1 1-5l2-5-2 2-1 2 2-6v1l-3 4 2-4-3 5-1 2v1l1-9-1 1v2l-1 3-4-8-2-2zm1 34 2 6a1 1 0 0 0 0 1l-1 1v-6l-1 2v-4z"/>
  <g fill="#008f4c">
    <path d="M354 245c1-4 5-13 7-13l-3 5a57 57 0 0 0-3 7l-1 3v-2zm11-2-2 2c-4 3-8 9-10 13l-1 2c2-6 6-12 10-15 1-2 3-3 3-2zm-12-9 2-9 2-3v1l-4 12a6 6 0 0 1 0 2v-3zm-6 20a20 20 0 0 1-1 8l-4 7v-1a22 22 0 0 0 5-14c0-2 0-3 0 0z"/>
    <path d="M356 250v6a11 11 0 0 1-7 7 6 6 0 0 1-2 1 5 5 0 0 1 2-1 12 12 0 0 0 7-11v-2s-1 0 0 0c0-1 0-1 0 0z"/>
    <path d="M366 258a109 109 0 0 1-11 2h-3a169 169 0 0 1 14-2zm-19-40 3 6v2a34 34 0 0 0-3-8 4 4 0 0 1-1-1 5 5 0 0 1 1 1z"/>
    <path d="M346 220c0 3 1 3 3 6l2 1h-1a34 34 0 0 1-4-7 4 4 0 0 0-1-1l1 1zm13 7-6 11 2-4a48 48 0 0 1 4-6l1-2-1 1zm1 2c-3 3-7 10-6 12l2-4a54 54 0 0 1 4-7 16 16 0 0 0 1-2l-1 1zm-15-7 2 6 2 2v-1a34 34 0 0 1-4-7 4 4 0 0 0 0-2v2z"/>
    <path d="M348 227h3-1l-6-3-1-2 5 5zm17 8c-4 2-10 11-10 13l4-5a66 66 0 0 1 5-7 19 19 0 0 0 3-2l-2 1zm-1 5c-2 4-8 10-9 9l3-3a52 52 0 0 0 5-5 16 16 0 0 1 2-2l-1 1zm-21 22-6 10 2-3a47 47 0 0 0 3-6l1-2v1zm10-19-5-6-1-1a29 29 0 0 1 6 9v-2zm2 26h-11 4a47 47 0 0 1 8 0h-1zm-4 1c-2-1-9 0-10 1h4a47 47 0 0 1 8 0l-2-1zm-3 2h-10 4a48 48 0 0 1 8 0h-2z"/>
    <path d="M346 273h-9 4a36 36 0 0 1 5 1h2a9 9 0 0 0-2-1zm12-8c-6 1-13 2-14 4 0 0 3 0 5-2a56 56 0 0 1 8-2l3-1-2 1zm7-4-5 1a213 213 0 0 0-11 2 1 1 0 0 1 0-1 198 198 0 0 1 16-2z"/>
    <path d="m363 259-4 2a175 175 0 0 0-9 2 169 169 0 0 1 13-4zM362 252c-4 2-12 9-12 11l4-4a64 64 0 0 1 7-5 19 19 0 0 0 3-2h-2z"/>
    <path d="m365 254-14 6c0 1 3 0 5-2a56 56 0 0 1 8-3l3-1h-2z"/>
    <path d="M365 255c-11 9-16 13-18 12l7-5a78 78 0 0 0 9-7l3-3a18 18 0 0 1-1 3zm-11 3c2-4 3-5 7-8l4-2-1 1a56 56 0 0 0-11 11l1-2zm1-10c0-4 7-17 8-17l-3 5a57 57 0 0 0-3 7 74 74 0 0 1-2 7v-2zm-3-15v-7l1-3v1a29 29 0 0 0 0 11l-1-2zm2 14c0-2-2-4-4-6s-3-2-1 0a26 26 0 0 1 5 6v2-2zm-10 3c2-7 4-6 4-6 4 4 2 19 2 19 0-30-6-13-6-13z"/>
    <path d="m346 249 2-7c4 1 4 17 4 17-2-27-6-10-6-10zm-2 6c0-5 1-4 1-4 3 2 4 13 4 13-5-21-5-9-5-9zm9-15-7-10-1-1 7 11 1 2v-2zM353 237l-5-7-2-2a60 60 0 0 1 7 11v-2zm-15 29-3 6 1-2a24 24 0 0 0 2-4zm-2 1-2 6 1-2a24 24 0 0 0 1-4zm3 0-3 6 1-2a24 24 0 0 0 2-4v1z"/>
  </g>
  <path fill="#00873f" d="m284 227 1 2v-2h-1z"/>
  <g fill="none" stroke="#006300" stroke-width=".6" transform="translate(-106 -20) scale(.85227)">
    <path d="m455 304-1-1m2-4-1-1m-1 13-2-3m11 30c-5-6-7-16-7-16 2-5 4-6 4-6m-4 6-1-15a71 71 0 0 1 3-17m-3 20c1-7 7-6 7-6"/>
    <path d="M455 311c5-2 4-6 5-8l2-3m-2 32c-2-4 0-5 0-5m-1 4c-2-3-5-3-5-3m4-10v-5m1 17-4-5m2-31c1-2-1-2-1-2"/>
    <g transform="translate(442 224) scale(.1567)">
      <path id="a" fill="red" stroke-width="2" d="M91 426a6 6 0 1 1-12 0 6 6 0 0 1 12 0z"/>
    </g>
    <use xlink:href="#a" width="100%" height="100%" transform="matrix(.1567 0 0 .18128 445 235)"/>
    <use xlink:href="#a" width="100%" height="100%" transform="translate(444 248) scale(.1567)"/>
    <use xlink:href="#a" width="100%" height="100%" transform="translate(440 252) scale(.16899)"/>
    <use xlink:href="#a" width="100%" height="100%" transform="translate(439 256) scale(.16899)"/>
    <use xlink:href="#a" width="100%" height="100%" transform="translate(440 258) scale(.16899)"/>
    <use xlink:href="#a" width="100%" height="100%" transform="translate(463 286) scale(.12289)"/>
    <use xlink:href="#a" width="100%" height="100%" transform="translate(464 287) scale(.12289)"/>
    <path d="M459 317a2 2 0 0 0-1-2m14 25h2"/>
  </g>
  <g fill="#006300">
    <path d="M298 272v-4m-7-2v-1c1-1 3 0 4-4h-2v-4l-4 3-2-2v5l2 2 1 2h1v-1zm-2 4h-1c-4 1-6-4-6-4h4l3 1 1 3h-1zm-4-8c-3-2-6 0-6 0h1l2 2 4 2h2l-3-4zm-6-14h-1c-1-2-5-2-5-2a1 1 0 0 1 0-1v2l2 3h-3c2 3 4 3 4 3h3l1 1 3 2-1-6-3-2z"/>
    <path d="m297 273-1 1c-1 2-6 0-6 0l-1-1a6 6 0 0 0 2-1 9 9 0 0 1-3-5h5l-2-1 1-1a8 8 0 0 1 5 3l1 3-1 2zm-15-15h-3l-2-1-3-3h2l3 1 2 1 1 1v1zm4 1 3-1c2 1 3-2 3-2l1-2h-1l-2 1v-4h-1l-3 3-1-2h-1v5l1 2z"/>
    <path d="m304 267-2 2c-1-3-3-3-3-3v5l-3-1 2 4 4-1h2v-6zm-20-16 2 2 4 1 3-1-2-2-4-1h-2l-1 1zm-4-6 2-6 2 5a25 25 0 0 1-2 5l-2-4z"/>
    <path d="M279 247c-3 0-5-3-5-3l5-1a23 23 0 0 1 3 3l-3 1zM277 243c-2 0-3-2-3-2l-2-3h1l2 1c-4-3-1-8-1-8v1a5 5 0 0 0 2 2l1 2 1-2 2 4v5h-3zm8 6v-4c0-2 3-4 3-4 2 2 1 3 1 3l4-1-2 4 3-1c-1 5-5 4-5 4a9 9 0 0 0-4-1z"/>
    <path d="m278 235 1-3 1 2c2 0 2 2 2 2 0 3-1 2-1 2-2 0-3-3-3-3zm9 0v-3l-2 1c-2 0-3 3-3 3v2c3 1 4-1 5-3z"/>
    <path d="m278 230 1-4 1 2c2 1 2 3 2 3v3c-3 0-4-3-4-4zm10 0v-3l-1 1a4 4 0 0 0-4 2v3c3 1 4-2 5-3zm4 9 2-2h-6l-2 2c2 2 5 1 6 0z"/>
    <path d="m292 241 2-2h-5l-2 1c1 2 4 2 5 1zm-9-15c-1-3 2-7 2-7a41 41 0 0 1 1 3l4-3v2a7 7 0 0 0 3 0l-4 4-2 1-3 2-1-2zm4 10c2-2 4-1 4-1 2 0 3-2 3-2a6 6 0 0 1 2-2h-2v-3l-3 1v-2l-1 1-2 3-1 5z"/>
  </g>
  <g fill="#00863d">
    <path d="m287 248 1-1 1-1v-1 1l1-1-1 1a23 23 0 0 1-1 1l-1 1h2c2 0 3-3 3-4a10 10 0 0 0-3 1c-2 1-1 1-2 3zm-5 6-1-1-1-2v-1l1 1v-1 3l2 2-1-1c0-2 1-3-3-5v-1l1 6h2zm-1-21v-1l-1-1h1a3 3 0 0 0-1-1v-1l1 2 1 3v-4l-2-2-1-1a8 8 0 0 0 0 2l1 3 1 1zm5-9 1-1v-1 1l1-2v1l-1 1-2 2h1l3-1 1-4-4 2v2zm-10 15-2-3v-2 1l1 1v1-1l1 1v1-3l-1-1-1-2c-1 2-1 5 1 6h1v1zm7-6 2-2 1-1 1-1-2 2h1-1l-2 2 1-1c1 0 2 1 3-1l1-3-3 1-2 3v1zm-5 9a5 5 0 0 0-1-1h-1l-2-1h1l1 1v-1 1h2-1v-1h-1c0-2-1-1-2-1l-1-1a6 6 0 0 0 2 3l1 1h2zm-1 8a8 8 0 0 0-1-1l-1-1h1l-1-1 2 2 1 1-1-3-4-1 1 3 2 1h1zm2-9-1-4v1l1 1v-1 3-3l-2-3v2l1 3 1 1zm3 6v-4 1c1 0 1 0 0 0v3l1-1v-2l-1-4-1 2a7 7 0 0 0 0 2v2l1 1zm2-20v-4 1-2 5-1l1-2-1-5v2l-1 4 1 2zm-11 24 1 1 3 1 2-1v-1l-1 1a7 7 0 0 1-2 0 15 15 0 0 1-1-1h4l-1-1h-5zm2 4 2 2h4a16 16 0 0 0-2 0h-2l1-1h-1l4 1a5 5 0 0 1-1-1c-1-2-3-1-5-1zm13-21 1-2v-1 1l1-2-1 3-1 1 3-2v-4l-2 2-1 4zm-2 24 1-1 2-1v1l1-1v1h-2l-1 1h2c2 0 2-2 3-3v-1a10 10 0 0 0-4 3h-1l-1 1z"/>
    <path d="m286 248 1-4h1v1l-1 1v-1l2-1-1-2-1 1a6 6 0 0 0-1 1v4zm0 9 2-2v-1l1-1-1 2-2 2 2-1h1v-4l-2 2-1 3zm4-9h2l-1 1h-4 1l1 1h2l2-3h-2l-1 1zm-15-4 4 2 1-1h-3 1-1l-1-1 4 1-2-1-3-1zm10 13-1-3 1 1v3l1-3-2-3a9 9 0 0 0 0 3l1 2zm4-34h1l-1 1-2 2c3 0 4-3 5-5l-2 2h-1zm1 11 1-1 1-1h-1l2-1-3 2v1l1-3 3-2-1 3-3 2zm-9 4-1-1-1-3 1 1v1-1 2l1 1v-3l-2-2v3l1 2h1zm2 0 1-1 2-2h-1l-1 1v-1 2l-1 1 1-3 3-2-2 4-2 1zm4 0h3l1-1v1h1-3l-3 1h4c2 0 2-1 3-2h-5l-1 1z"/>
    <path d="M290 240h1-3l3 1 2-1-2-1zm0 11a3 3 0 0 0-1 0h-3l-1-1 2 1h3zm0 1v2h2l-2-3v1zm-3 1 1-1h-1l-2-1 1 1 1 1zm7-21-2 2h-3 4l2-3a3 3 0 0 0-1 0v1c-1 0 0 0 0 0zm-6 35 2 3 1 2 1-1h1l-1-1h-1 1l-1-1h1v-1l1 2 2 1h1l-1-2a3 3 0 0 0-1-1l-6-1zm2-2v-5 1h1v-1 5-1l1-1v-4l1-1a10 10 0 0 0-2 1l-2 4 1 1v1z"/>
    <path d="m290 273 1 1 4-1 2-1h-3l-1 1v1l1-2h-2 5a1 1 0 0 0 0-1c-3 0-3-1-6 1zm11-1v-2l-1-1 1 1-1-2 1 1v3l1 1v-4l-3-3v3l1 2 1 1zm-12-3-1-1h-2l-1-1 2 1-1-1 1 1h1v-1a3 3 0 0 0-2-1l-1 1-2-1 1 2 4 2 1-1zm-9-7h1a3 3 0 0 1 1 1l1 1 3 1a7 7 0 0 0 0-1l-2-1h-1 1a3 3 0 0 0-1 0v-1l2 1 2 2-1-2-5-2a4 4 0 0 0-1 1zm10 4-2-4v-2l1 3v-3l-2-2v5l3 3zm8 8 2-1a6 6 0 0 1-1-1v-1 1l1 1v-1 1h1c0-2-2-2-4-3l1 2v2zm-2-4v-1l-1-2h-1v-1l1 1 2 4v-1l-1-3-4-2 1 2 2 1 1 2zM303 270v-1 1l-1 3 2-1v-5l-1 2v1zm-11-7 1-1v1l-1 1 2-3-1 1-1 1z"/>
  </g>
  <g fill="#ce1126" stroke="#000" stroke-width=".2">
    <path d="m308 282 1 1-1 2 5-1v-2l-1-2-2 1a19 19 0 0 1-2 1zm24-1-1 1 1 3-5-2v-1l1-2 2 1h2z"/>
    <path d="M314 285a12 12 0 0 0 4-2h3a9 9 0 0 0 1 0 10 10 0 0 0 3 2c2 0 2-2 2-2v-4h-3l-2 1h-4l-2-1h-3v3c-1 3 1 3 1 3z"/>
    <path d="m322 282 4 2h-2c-3-1-2-2-2-2zm-3 0-5 2h2c4-1 3-2 3-2z"/>
    <path fill="#aa241e" d="M319 279c-2 1 0 2 0 3v2h2l1-1v-2l-1-2a13 13 0 0 0-2 0z"/>
    <path fill="none" d="M322 280h5m-5 2c5 1 4 2 4 2M318 282l-4 2m4-4h-5"/>
  </g>
  <path d="m298 274-7 3-3-5a7 7 0 0 0-2-2l-3 1-1-2-4-5-1-1-1-1 1 6-2-1a9 9 0 0 0-3-1l1 1a12 12 0 0 1 3 5 17 17 0 0 0 4 7 8 8 0 0 0 2 1h3a31 31 0 0 0 4 6c2 2 5 2 8 2l3-1c3-2 2-4 1-6l7-2h23l8 2a5 5 0 0 0-1 3l2 3a10 10 0 0 0 7 1l5-3 3-5 1 1 2-1 2-1a15 15 0 0 0 4-7l4-6c-3 0-4 1-5 2v-3l1-3-4 4-1 2-2 3c-4-3-5 3-8 6-5-3-9-4-15-5h-4a89 89 0 0 0-22 0l-10 2z"/>
  <g fill="#ce1126">
    <path d="M293 286c0-2 1-2 2-3l10-3a53 53 0 0 1 7-1 67 67 0 0 1 12-1l4 1a55 55 0 0 1 17 4l2 2 3-3 1-2-1-2-9-4c-12-3-30-3-42 0a25 25 0 0 0-9 5v3l2 2 1 1z"/>
    <path d="m281 274 2 2 6 9 3 2a8 8 0 0 0 4 0 9 9 0 0 0 3-1l2-1v-1c-1-1-3 1-4 2-2 2-3 1-4 0l-3-4-1-3 2-2-2-3-3-3h-3l-2 2v1z"/>
    <path d="m278 269-2-2h-3l2 1 3 7a16 16 0 0 0 4 5h2c1-1-1-1-1-2l-2-1c-2-2-1-4 0-5l1-1-2-3-3-4 1 2v3zm23 14v-1l-6 2c-1 0-2 1-1 2 1 2 4-1 5-2a3 3 0 0 1 2-1z"/>
    <path d="m285 280-1-2-3-1-1-2h1c2 0 4 4 4 5zm75-6-3 2c-2 3-2 5-6 9-1 1-1 2-3 2a7 7 0 0 1-4 1 9 9 0 0 1-3-2l-2-1a4 4 0 0 1 0-1c1-1 3 1 4 2 2 2 3 1 5 0l2-4 1-3-2-2 2-3 3-3h3l2 2 1 1z"/>
    <path d="m362 269 2-1 3-1-2 1-3 7a17 17 0 0 1-4 5h-2l1-2 3-1c1-2 0-4-1-5l-1-1 2-3 3-4v2l-1 3zm-23 14v-1l6 2c1 0 2 1 1 2-1 2-4-1-5-2l-2-1z"/>
    <path d="m355 280 1-2 3-1 1-2h-1c-2 0-4 5-4 5z"/>
  </g>
  <path fill="#eac102" d="M297 277h-1v2l1 1v1-1c1 0 1 0 0 0v-1l1 1h1l-1-1v-1a1 1 0 0 0 0-1 1 1 0 0 0-1 0zm0 0 1 1a1 1 0 0 1-1 1v-2zm2-1v4l2-1v-1 1h-1v-1h1v-1h-1a1 1 0 0 1 0 1v-2a1 1 0 0 1 1 1v-1h-2zm4-1h-1l-1 1v1h1v2h1l-1-1v-1h1a1 1 0 0 0 1-1 1 1 0 0 0-1 0 1 1 0 0 0 0-1zm0 0zm-1 1a1 1 0 0 1 1 0v1h-1v-1zm4-1v2a1 1 0 0 1 0 1h-1a1 1 0 0 1 0-1v-2h-1v2l1 1h1l1-1h-1v-2zm2-1h-1v4h1a4 4 0 0 0 1-1 1 1 0 0 0 1 0l-1-1a1 1 0 0 0 0-1v-1a2 2 0 0 0-1 0zm0 1c0-1 0 0 0 0h1l-1 1v-1zm0 1h1v1h-1v-1zm2-2v3h2v-1 1h-1v-3h-1zm2 0 1 1v2a4 4 0 0 0 1 0h-1v-3a6 6 0 0 0-1 0zm4 2h-1v-1a3 3 0 0 1 0-1c0-1 0 0 0 0h1a1 1 0 0 0 0-1 1 1 0 0 0-2 1v3h1a1 1 0 0 0 1 0v-1zm2-3h-1v3h-1v1h1v-1h1v1h1v-1l-1-1v-2zm-1 1 1 1h-1v-1zm5-1h-1v4h1a1 1 0 0 0 0-1h1v-1a3 3 0 0 0 0-1v-1a2 2 0 0 0-1 0zm0 0v2a1 1 0 0 1 0 1h-1v-2l1-1zm3 0a1 1 0 0 0-1 0v1l-1 1 1 1a1 1 0 0 0 1 1v-1h1v-1a2 2 0 0 0 0-1l-1-1zm0 0v3a1 1 0 0 1 0 1h-1v-3l1-1zm1 4h1l-1-1a2 2 0 0 1 1 0v-2 3h1v-3 3h1v-3h-1a9 9 0 0 1 0 1v1-1h-1v-2 1l-1 1v2zm3 0h1v-1a22 22 0 0 1 0-1 1 1 0 0 1 0-1c-1 0 0 0 0 0v2h-1a3 3 0 0 1 0 1zm1 0 1 1v-3l1 2v1h1v-4 2l-1 1v-3a3 3 0 0 1-1 0v1a4 4 0 0 1 0 1v1h-1zm3-2h1a3 3 0 0 1-1 1v2h1v-3h-1zm2 2a2 2 0 0 0 0 1v1h1v-1h1-1a1 1 0 0 1-1 0v-1a7 7 0 0 1 0-1l1-1a1 1 0 0 1 0 1h1v-1h-2v1a3 3 0 0 0 0 1zm3-1-1 1v2c-1 0-1 0 0 0v-1h1v1h1v-3h-1zm0 0v2h-1l1-1v-1zm2 4-1-1 1-1v-1 2l1 1v-2l1-1h-1v2-1a6 6 0 0 1-1-1 2 2 0 0 1 0-1s-1 0 0 0v1l-1 1v2a1 1 0 0 0 1 0zm3-3v1l-1 1-1 1 1 1v-1h1v1-4c0 1 0 0 0 0zm0 1v2h-1v-1h1v-1z"/>
  <g transform="matrix(.89273 0 0 .89274 -126 -33)">
    <path fill="#fff" d="M475 281v41l1 8a11 11 0 0 0 6 4h10c5 0 5 1 7 3 2-3 4-3 8-3h9a9 9 0 0 0 5-4c2-2 2-6 2-9v-38l1-3 6-6h-62l7 7z"/>
    <path fill="#002d62" d="M494 299v-25h-26l7 7v18z"/>
    <path fill="#ce1126" d="M504 299v-25h26l-7 7v18zm-10 10h-20v16c1 7 6 9 11 9h9z"/>
    <path fill="#002d62" d="M504 309h19v16c0 7-6 9-10 9h-9z"/>
    <path fill="none" stroke="#000" stroke-width=".5" d="M475 281v41l1 8a9 9 0 0 0 6 4h10c3 0 4 0 6 2l1 1 3-3h14a11 11 0 0 0 5-4c3-2 2-6 2-9v-38l1-3 6-6h-62l7 7z"/>
    <path fill="#eac102" stroke="#000" stroke-width=".3" d="M498 280v3h-3v3h3v9h2v-9h3v-3h-3v-3z"/>
    <g id="b">
      <path fill="#fff" d="M482 284v5l-2-2v32c0 4 4 8 8 8s8-4 8-8l-1-17-2-2v-2z"/>
      <path fill="#002d62" d="M482 284v5l-2-2v18l8 8v-21z"/>
      <path fill="#ce1126" d="m491 296 2 3v1l-2-3zm4 6 1 12c-2 2-4 1-4 1v-16z"/>
      <path fill="#002d62" d="M496 320c-4 2-4-1-4-1a4 4 0 0 0 4-3z"/>
      <path fill="#ce1126" d="m480 310 8 7c1 8 6 5 7 4-1 4-4 6-7 6-4 0-8-3-8-8z"/>
      <path fill="none" stroke="#000" stroke-width=".3" d="M493 300v-2l-11-14v4z"/>
      <path fill="none" stroke="#000" stroke-width=".3" d="M480 287v32c0 4 4 8 8 8s8-4 8-8l-1-17z"/>
      <g fill="#eac102" stroke="#000" stroke-width=".1">
        <path d="M486 281v-2l-3-3 1 4 2 1zm-3-5 3 5"/>
        <path d="M498 301h-1l-12-20 1-1z"/>
        <path d="M485 281v-1h1v1h-1zm-4 1v-2l-4-3 2 4 2 1zm-4-5 4 5"/>
        <path d="m495 300-15-18 1-1z"/>
        <path d="M480 282v-1h1v1h-1zm0 4-1-2-3-2 2 3 2 1zm-4-4 4 4"/>
        <path d="m496 303-17-17 1-1 16 17z"/>
        <path d="M479 286v-1h1v1h-1z"/>
      </g>
    </g>
    <use xlink:href="#b" width="100%" height="100%" transform="matrix(-1 0 0 1 998 0)"/>
    <g stroke="#000" stroke-width=".2">
      <path fill="#ce1126" d="m497 315-1 10-2-1 1-10 2 1z"/>
      <path fill="#002d62" d="M496 314v3l2 1v-5a17 17 0 0 1-2 1z"/>
      <path fill="#002d62" d="M496 327c2-2 5 0 5 0 3 0 2-4 2-4l-1-13-5 4z"/>
      <path fill="#002d62" d="M496 327c0 2 2 2 2 2 3 0 2-3 2-3-3-1-4 1-4 1z"/>
      <path fill="#ce1126" d="M498 313v9c0 2 2 1 2 1h1v-3c4 0 3-3 3-3l-1-7z"/>
      <path fill="none" d="m501 320-3 1"/>
      <path fill="#fff" d="m501 326-1-15 2-1 1 14c0 3-2 2-2 2z"/>
    </g>
    <g fill="#fff" stroke="#000">
      <path fill="#000" stroke="none" d="m488 302 7 13 15-10-8-11z"/>
      <path stroke-width=".3" d="m488 302 14-8 8 11-15 9z"/>
      <path fill="#000" stroke="none" d="m495 314 14-9-1-2-7-9-5 4-6 3h-1v1z"/>
      <path stroke-width=".1" d="M496 298c-2-1-4 2-5 2l-2 1 6 11c2 0 3-2 4-3l3-1zM496 298c0-3 3-3 4-4l1-2 7 11c0 2-3 2-3 3l-2 2z"/>
      <path stroke-width=".1" d="M495 312a596 596 0 0 0-6-11v1l6 11v-1z"/>
      <g fill="#000" stroke="none">
        <path d="M491 302v1-1 1-1zm0 0h1-1zm1 0zm0 0zm0 0zm0-1h1v1-1h-1l1 1h-1 1-1v-1zm1 0zm0 0zm0 0zm-2 2h1l-1 1v-1h1-1zm1 0zm0 0h1-1zm0 0zm1-1v1-1 1-1 1h-1l1-1zm0 0v1-1 1-1zm0 0zm0 1zm0-1h1-1zm0 0zm0 0h1-1zm1 0zm0 0zm0 0zm0 0zm-2 2zm1 0h-1 1-1 1zm-1 0zm1 0zm0 0zm0 0zm0-1v1c0-1 0 0 0 0v-1 1-1zm0 0h1-1 1l-1 1v-1zm1 0zm0 0h1-1zm0 0zm1-1v1-1 1-1h-1 1zm0 0zm1 0h-1 1zm0 0zm0 0zm0-1 1 1h-1v-1 1-1zm-2 5h-1v1h1v-1 1h-1v-1h1zm0 0v1-1zm0 0zm0 0h1-1s1 0 0 0zm0 0zm1 0h-1l1-1v1zm0-1v1-1zm0 0h1-1 1-1zm1 0zm0-1h1v1h-1v-1zm0 0v1h1l-1-1zm1 0zm1 0h-1 1zm0 0h-1 1zm0 0v-1 1zm-4 4h1-1c1 0 1 0 0 0zm0 0h1-1zm1-1v1h1-1v-1zm1 0zm0 0zm0 0zm0 0zm1 0h-1 1-1 1zm0-1zm0 0v1c0-1 0-1 0 0v-1zm0 1v-1 1zm0-1v1-1zm0 0h1-1 1-1zm1 0zm0 0zm0 0zm0-1 1 1h-1v-1 1-1zm1 0c-1 0 0 0 0 0v1c0-1 0 0 0 0v-1h-1 1zm0 0zm0 0zm-4 4zm0 0zm0 0zm0-1v1-1 1h1-1 1-1v-1zm1 0zm0 0v1-1zm0 0zm1 0h-1 1zm0 0h-1 1zm-1 0h1-1zm1 0zm0 0v-1 1zm0 0zm0-1v1-1zm1 0zm0 0zm0 0zm0 0h1-1zm0 0zm1-1v1-1zm0 0v1-1zm0 0zm-4 4h1-1 1-1zm1 0v-1 1-1 1zm0 0zm0-1v1-1zm0 0v1-1zm0 0zm0 0h1-1zm1 0c-1 0 0 0 0 0h-1 1zm0 0zm0 0zm1 0h-1v-1c1 0 1 0 0 0v1h1zm0-1v1-1s-1 0 0 0zm0 0zm0 0zm0 0zm0 0zm1 0h-1 1zm0 0h-1 1zm0 0zm0 0zm-1-10v1-1zm0 0zm0 0v1-1zm0 0zm1 0h-1 1zm0 0zm0 0zm0 0zm0 0zm0-1v1c1 0 0 0 0 0v-1zm0 0h1v1l-1-1zm1 0zm0 0zm0 0zm-2 2v1-1zm0 0c0 1 0 1 0 0zm0 0h1-1 1zm0 0zm1 0s-1 0 0 0zm0 0zm0 0c0-1 0-1 0 0v-1 1h1-1zm0 0zm1-1v1-1 1l-1-1zm0 0zm0 0zm0 0zm0 0h1-1zm0 0zm1 0h-1 1zm0 0v-1 1zm0 0zm0-1zm0 0v1-1zm0 0v1-1 1-1zm-2 3h-1 1zm0 0zm0 0zm0 0v-1 1-1h1v1l-1-1v1h1a51 51 0 0 1-1 0zm1-1s-1 0 0 0zm0 0v1-1zm0 0v1-1zm0 0zm0 0h1-1zm0 0zm0 0h1-1zm1 0zm0 0zm0 0v-1 1-1 1zm0 0v-1 1zm0-1v1-1zm1 0h-1 1-1 1zm0 0h-1 1zm-3 3zm0 0zm0 0zm0-1h1-1v1h1a67 67 0 0 0-1 0h1-1c0-1 0-1 0 0v-1zm1 0v1-1 1-1zm0 0zm0 0zm0 0zm0 0zm0 0h1-1 1-1zm1 0zm0 0zm0-1v1-1 1-1zm0 0v1-1 1zm0 0v1-1zm1 0h-1 1-1 1zm0 0zm0 0zm0 0zm0 0zm0 0zm0 0zm1 0h-1 1-1c0-1 0 0 0 0v-1l1 1zm0 0zm0-1c0 1 0 0 0 0v1-1 1-1zm0 0zm0 0zm0 0h1-1 1-1c1 0 0 0 0 0zm1 0zm0 0zm0 0zm-5 4v-1h1c0 1 0 0 0 0v1-1 1-1h-1v1h1-1v-1zm1-1zm0 0zm0 0zm1 0h-1 1zm0 0h-1 1zm0 0c0-1 0 0 0 0zm0 0zm0-1v1-1zm0 0v1-1 1-1zm0 0zm0 0h1l-1 1v-1zm0 0h1v1-1h-1zm0 0h1-1zm1 0zm0 0zm0 0zm0 0zm0 0zm0 0h1-1 1-1zm-1 4zm0 0v-1 1-1 1zm0 0h1-1zm1-1h-1 1zm0 0zm1 0h-1 1zm0 0h-1 1zm0 0v-1 1c0-1 0-1 0 0zm0-1v1-1zm0 0v1-1zm1 0h-1 1-1 1zm0 0zm0 0zm0 0zm0 0zm0 0zm0-1zm0 1h1-1zm1-1h-1l1 1h-1v-1h1zm0 0zm0 0zm0 0zm-4 4v-1 1-1 1zm1-1v1-1 1l-1-1h1zm0 0zm0 0zm0 0zm0 0zm0 0h1-1zm0 0zm1 0v-1 1zm0 0zm0 0zm0-1v1-1zm0 0h1-1zm1 0zm0 0zm0 0zm0 0h1c1 0 0 0 0 0h-1v-1h1v1zm0 0h1-1zm1-1v1-1zm0 0zm0 0zm0 0zm0 0zm1 0h-1 1zm0 0h-1 1zm0 0zm0 0zm0-1v1-1zm-4 4v1-1zm0 0zm0 0zM502 305zm1 0h-1 1-1 1zm0 0h-1 1zm0-1v1-1zm0 0zm0 0v1-1zm0 0v1-1zm0 0v1-1zm0 0h1-1 1a67 67 0 0 0-1 0h1-1zm1 0zm0 0zm0 0zm0 0z"/>
      </g>
    </g>
  </g>
</svg>
