<svg xmlns="http://www.w3.org/2000/svg" xmlns:xlink="http://www.w3.org/1999/xlink" width="900" height="600">
  <path fill="#fff" d="M0 0h900v600H0z"/>
  <path fill="#002d62" d="M0 0h390v240H0z"/>
  <path fill="#ce1126" d="M0 360h390v240H0z"/>
  <path fill="#002d62" d="M510 360h390v240H510z"/>
  <path fill="#ce1126" d="M510 0h390v240H510z"/>
  <path fill="#201b18" d="M434 246c-8 0-17 2-24 6-3 2-4 3-2 6l-4 1-7 4-4 2h7l-1 1-3 5 6-4c5-2 13-2 17-6v-4l6-2c8-2 13 0 17-1l2-2v-4h12c0 2-2 5 2 6 3 1 11-1 17 1l6 2v3l3 3 7 2c7 2 7 2 13 6l-4-6h6c-1-2-4-3-6-4l-8-3v-4c-1-2-8-5-9-5a85 85 0 00-9-2l-8-1c-1-1 0-3-2-4l-4-2h-20l-5 2-1 4z"/>
  <g fill="#002d62">
    <path d="M436 250l2-1 12-1h8c3 0 4 0 6 2l1-6c0-2-1-2-3-3h-25l-2 4 1 5z"/>
    <path d="M412 261l2-3 12-4h15l2-1 1-2c-1 0-4 3-7 2l-2-3-1-4c-5 0-14 2-19 4l-7 4c-1 1 0 3 1 4l3 3zm44-10c0 2 1 3 3 3h15a44 44 0 0113 5l1 2 3-3c1-1 2-3 1-4l-8-4-9-3-10-1s0 6-2 7c-3 1-4-2-7-2z"/>
    <path d="M481 259l1 2c4 3 11 3 15 5l5 3-3-5h6l-14-6-3 4h-1l-3-2-3-1zm-25-8l4 1h2l2-1-3-2-4-1zm-12 0l-1-3c-1 0-7 1-7 3l2 1 6-1zm-32 10c1 2 3-1 5-2l2-1-1-1-3 2-3 2z"/>
    <path d="M481 258h1c2 2 5 5 6 4l-3-3-3-2a2 2 0 00-1 1zm-62 1l-1 2c-4 3-11 3-15 5l-5 3 3-5h-6l14-6 1 1 2 3h1l3-2 3-1z"/>
  </g>
  <path fill="#eac102" d="M420 250h-2v1l1 1v3l1-1 1-1h1a1 1 0 000-1l-1-1v-1h-1zm-1 0l1 1 1 1v1l-1 1v-1l-1-2a6 6 0 010-1zm3-1v3h1v1h1v-1h-1v-2a63 63 0 010-1h-1zm3-1h-1v3l1 1h2v-2a3 3 0 000-1l-1-1a1 1 0 00-1 0zm0 0l1 1v3l-1-1v-3zm3 0v1a1 1 0 000 1h1l1 1v1a1 1 0 01-1-1 1 1 0 01-1 0c0-1 0 0 0 0l1 1h1l1-1v-1a1 1 0 00-1-1 5 5 0 00-1 0l-1-1h2c0 1 0 1 0 0l-1-1a1 1 0 00-1 1zm14-6h-1l-1 1a1 1 0 011 0v4h1v-2h1l1-1-1-2a2 2 0 00-1 0zm0 1h1v1h-1c0 1 0 1 0 0v-1s-1 0 0 0c0-1 0 0 0 0zm3-1v1a12 12 0 010 1l-1 2h1v-1h1v1h1v-1l-1-1v-1a12 12 0 010-1h-1zm0 1l1 2h-1v-1a9 9 0 000-1zm4-1h-2v1l1-1v4h1c1 0 0 0 0 0v-4h1v1s1 0 0 0v-1h-1zm3 0h-1v4h1v-2l1 1v1h1v-1a2 2 0 01-1-1h1v-2h-2zm1 0v2h-1v-2h1zm2 0v4h1v-4c1 0 1 0 0 0h-1s1 0 0 0zm4 0l-1 1v2l-1 1v1h1v-2l1 1v1h1v-3l-1-1v-1zm0 1v2h-1v-1l1-1zm8 5v4h2v-1l-1 1v-1a40 40 0 010-3zm3 4h1v-4h-1v4zm2-4v2a33 33 0 01-1 1v1h3v-2a16 16 0 00-1 0 1 1 0 001-1v-1h-2zm1 0v2h-1v-2h1zm-1 2h1v2h-1a11 11 0 010-2zm2 2l1 1h2v-1h-1s-1 0 0 0v-2 1h1v-1h-1v-1h1v1-2h-2v4a1 1 0 01-1 0zm4-3v4s-1 0 0 0v1-1l1-1v2h1v-2h1v-2a2 2 0 00-1-1h-2zm1 0a1 1 0 011 1v1h-1v-1a1 1 0 010-1zm2 2h1s0-1 0 0v3h-1l1 1 1-2a39 39 0 010-2h1v1-1h-1l-1-1-1 1zm4 1v1l-1 2h-1l1 1v-1s0-1 0 0h1v1s-1 0 0 0v1h1v-5h-1zm0 1v2l-1-1 1-1zm3 0v1l-1 1v1l-1 1v1h3a4 4 0 000-1l1-1-1-2-1-1zm1 1v1l-1 2v1h-1v-1l1-2v-1h1z"/>
  <path fill="#006300" d="M436 349l3 1 2 5h2l-5 2c-2 1-1 2-1 3l4-1 7-4s2-2 3-1l9 5 3 1v-3l-6-2h1l1-1 2-4 3-1c0-3-22-4-28 0z"/>
  <path fill="#ff0" d="M438 358c-1 0-1 2 1 1l-1-1zm23 0v1h2l-1-1h-1z"/>
  <path fill="#006300" d="M482 270c2 4 2 2 3 8l-1-2a38 38 0 01-3-4l1 3 4 8-1-1-2-2-1-4-1-3h-1v2l1 4-1-1-1-1-1-1 1 3 3 3 3 5 1 1-3-2-4-4 1 1 3 3 3 4 2 3-1-1-3-4-4-3-2-2 4 5 2 1 1 2 2 4 1 2-5-6-3-2 4 4v1l2 1 3 4v2a27 27 0 00-3-4l-3-4-3-1 1 1 1 1 4 4 2 3-1-1-1-1-2-2-5-2 2 2 4 2v1l2 2 2 2 1 2 1 6-2-6c0-1-1-4-3-4l-2 2-2 2-2 6 1-1 3-4-2 6 1-2 2-4c2 1 2 9 3 11l-2-3-2-4-1 3-2-1-1 1v5h1v-5l2 5c-1 5-1 7-4 11a22 22 0 01-2 3l-1 1 3-6a30 30 0 001-7c-2 8-3 8-6 14v-4 1l-2 5v-1l1-5v-1l-1 2-1 4v-4s0 1 0 0l-1 1v1l-3 7c-1 0-1 0 0 0l7 1h12l-3-1-3-1h9-1l-7-1 8-1c1 0 4 1 3-1h-6l5-1h5l-7-2 3-1 7-2c2-1 4-2 1-1l-6 1 1-1 5-2h-1l5-2 4-1h1l-8 1h-3l7-2 2-1h-1l-6 1-3 1c7-3 5-2 11-3l2-1h-4l-4 1 3-3 2-1h2l-2-1 1-1 1-1v-1 1l-3 2h-1l-4 1 4-3 2-1 2-1-5 1-3 2 7-6 1-1-5 2-5 4a35 35 0 013-3l1-1 1-1 3-3 1-1 2-1-6 3-3 2-2 2 3-5 6-5 2-2-2 1-6 5-1 1-3 3-3 5 4-7 4-3v-1c2-2 4-4 4-7l-2 2-1 1-6 8 2-5a76 76 0 017-9l1-1 2-2-4 2-7 7 3-7 2-3 2-3-2 1v1c-3 2-4 5-6 9l2-6 4-5c-1-1-3 2-3 2a30 30 0 00-6 10v1c0-3 3-8 4-10l1-2 1-1 2-2 1-2-5 4-2 3 3-5 2-4 1-1-6 6-1 1-1 2v1l1-7 3-5c-1-1-2 1-2 2l-2 3 3-8-1 1-3 5 2-5-4 7-1 2v1l1-11v1l-1 1v1l-1 5-5-11-3-2zm2 42l2 8v2l-1-3-1-4v2-1l-1-3 1-1z"/>
  <g fill="#008f4c">
    <path d="M493 306c1-4 6-16 8-16l-3 6a71 71 0 00-5 13v-3zm13-3l-3 3c-4 4-9 11-12 17-2 6-1 5-1 2 2-7 7-15 12-19l4-3zm-15-10c0-5 0-6 3-11l2-4v1a63 63 0 00-5 17v-3zm-7 24a25 25 0 01-7 19l1-1c3-5 6-11 6-17v-1z"/>
    <path d="M495 313v7a14 14 0 01-11 10l2-1c5-3 9-8 9-14v-2l-1-1 1 1zm12 9l-5 1a223 223 0 005-1zm-23-49c2 2 2 3 3 7l1 3-1-1a43 43 0 00-4-11l1 2z"/>
    <path d="M482 275c1 3 1 4 4 7l2 2v-1a42 42 0 01-7-9l1 1zm17 9c-3 3-8 12-7 13l2-4a61 61 0 016-10l-1 1zm1 2c-3 4-9 13-8 15l3-5a68 68 0 017-11l-2 1zm-19-8l3 7 2 2v-1a43 43 0 01-5-10v2z"/>
    <path d="M486 283l3 1h-1l-8-5-1-1s5 5 7 5zm20 11c-5 3-13 14-12 16l4-6a82 82 0 0110-12l-2 2zm-1 6c-2 4-9 12-11 12l4-5a65 65 0 008-9l-1 2zm-27 28c0 4-5 12-7 12l3-4a59 59 0 005-10l-1 2zm13-24l-6-8c-3-3-4-3-2-1a36 36 0 018 11v-2zm2 32h-13 5a59 59 0 0110 1l-2-1zm-4 2h-13 15-2zm-4 2c-3-1-12 0-13 1l5-1a60 60 0 0110 0h-2zm-2 2h-11 4a45 45 0 019 0h-2zm14-11c-7 2-16 3-17 5l7-2a70 70 0 0112-4l-2 1zm10-5l-7 1a261 261 0 007-1zm-3-2l-5 2a222 222 0 005-2zm-2-8c-5 2-15 11-15 13l6-5a81 81 0 0112-9l-3 1z"/>
    <path d="M506 318c-5 0-16 5-17 8l6-3a70 70 0 0114-5h-3z"/>
    <path d="M506 319c-13 10-20 16-23 15l9-6a98 98 0 0016-13l-2 4zm-14 3c3-4 4-6 10-9l5-3-2 2a70 70 0 00-14 13l1-3zm2-12c0-5 8-21 10-21l-4 6-3 9-4 9 1-3zm-4-19v-9l1-3v1a36 36 0 000 14l-1-3zm3 18l-6-8c-3-2-3-3-1 0a32 32 0 017 10v-2zm-13 3c3-9 5-7 5-7 5 5 3 23 3 23 0-37-8-16-8-16z"/>
    <path d="M482 312l4-9c4 1 4 21 4 21-2-35-8-12-8-12zm-2 7c0-7 1-6 1-6 4 4 5 17 5 17-6-26-6-11-6-11zm11-19c-1-4-4-8-8-12s-6-5-2-1c3 1 8 9 9 13l2 3-1-3z"/>
    <path d="M491 296c-1-2-3-6-7-9l-2-2a75 75 0 019 14v-3zm-19 37l-3 7 1-3a30 30 0 002-5v1zm-2 1l-3 7 1-3a30 30 0 002-5v1zm3 0l-3 7 1-2a30 30 0 002-6v1z"/>
  </g>
  <path fill="#00873f" d="M405 284l1 2v-2h-1z"/>
  <g fill="none" stroke="#006300" transform="translate(-83 -26) scale(1.06534)">
    <path d="M455 304l-1-1m2-4l-1-1m-1 13l-2-3m11 30c-5-6-7-16-7-16 2-5 4-6 4-6m-4 6l-1-15 3-17m-3 20c1-7 7-6 7-6"/>
    <path d="M455 311c5-2 4-6 5-8l2-3m-2 32c-2-4 0-5 0-5m-1 4c-2-3-5-3-5-3m4-10v-5m1 17l-4-5m2-31c1-2-1-2-1-2"/>
    <g transform="translate(442 224) scale(.1567)">
      <path id="a" fill="red" stroke-width="2" d="M91 426a6 6 0 11-12 0 6 6 0 0112 0z"/>
    </g>
    <use xlink:href="#a" width="100%" height="100%" transform="matrix(.1567 0 0 .18128 445 235)"/>
    <use xlink:href="#a" width="100%" height="100%" transform="translate(444 248) scale(.1567)"/>
    <use xlink:href="#a" width="100%" height="100%" transform="translate(440 252) scale(.16899)"/>
    <use xlink:href="#a" width="100%" height="100%" transform="translate(439 256) scale(.16899)"/>
    <use xlink:href="#a" width="100%" height="100%" transform="translate(440 258) scale(.16899)"/>
    <use xlink:href="#a" width="100%" height="100%" transform="translate(463 286) scale(.12289)"/>
    <use xlink:href="#a" width="100%" height="100%" transform="translate(464 287) scale(.12289)"/>
    <path d="M459 317l-1-2m14 25h2"/>
  </g>
  <g fill="#006300">
    <path d="M423 340l-1-5m-8-2v-2c1-1 3 1 5-5l-3 1v-4l1-2s-2 0-5 4l-3-3-1 6 3 4 1 2h2v-1zm-3 4l-1 1c-5 1-7-5-7-5h4l4 1 1 3h-1zm-5-10c-4-2-7 1-7 1h1c2 0 1 0 3 2s5 2 5 2l1 1-3-6zm-7-17h-1c-2-3-7-3-7-3v1c1 4 3 5 3 5-2 1-4-2-4 0l4 3h5l1 2c3 0 4 2 4 2l-1-7-4-3z"/>
    <path d="M421 341l-1 2c-2 2-7 0-7 0l-2-1 2-2-3-6h6c0-2-2-2-2-2h1c4 0 6 3 6 3l1 4-1 2zm-18-18h-4l-3-1-3-4h6l2 2 2 2v1zm4 1c2-2 4-1 4-1 3 0 4-3 4-3l1-2h-1l-3 1 1-5h-1l-5 4-1-3h-1l-1 4 1 3 1 1z"/>
    <path d="M430 334l-2 2c-2-3-5-4-5-4v7l-3-2 2 6 6-1 2-1v-7zm-25-21c2 1 2 3 2 3l5 2 4-1-3-3c-1-2-4-2-4-2h-3l-1 1zm-5-6c0-4 3-8 3-8l2 6-2 6-3-4z"/>
    <path d="M399 308c-3 0-7-3-7-3 5-2 6-1 6-1l5 3-4 1z"/>
    <path d="M396 304l-4-2c-2-4-1-5-1-5l3 1c-5-3-2-9-2-9l1 1c0 2 2 3 2 3l1 2 1-2 3 4v3l-1 4h-3zm11 7v-4c-1-3 4-6 4-6l1 4 4-1-2 4h4c-2 6-7 5-7 5l-4-2z"/>
    <path d="M398 294l1-4 1 2c2 1 2 3 2 3v3c-3 0-4-4-4-4zm10 0l1-4-2 2c-3 0-4 2-4 2l-1 4c4 1 6-2 6-4z"/>
    <path d="M398 287l1-4 1 2c3 1 3 4 3 4l-1 3c-3 0-4-4-4-5zm12 1v-5l-2 2c-3 0-4 3-4 3v3c3 1 5-2 6-3zm5 11l3-3h-3c-2-2-5 0-5 0l-2 2c2 3 5 2 7 1z"/>
    <path d="M414 301c4-1 3-2 3-2h-2c-1-2-4-1-4-1l-2 2c1 2 4 2 5 1zm-11-19c-1-4 3-9 3-9a51 51 0 011 5l6-4v2h3c-1 3-5 6-5 6h-3l-3 3c0-2-1 0-2-3zm6 13c2-3 4-2 4-2 3 1 5-2 5-2l2-2-1-1-1 1v-5l-1 1c0 2-3 2-3 2l-1-3-1 1-2 4-1 6z"/>
  </g>
  <g fill="#00863d">
    <path d="M409 310l1-2 1-1h1l-1 1 2-1-1 1a28 28 0 01-2 1l-2 2 3-1c2 0 3-3 4-5l-4 1c-2 1-2 2-2 4zm-6 8l-1-1-2-3v-1l1 1v-1l1 3 1 3v-2c-1-1 1-3-4-6l-1-1c0 2 0 6 2 7h2l1 1zm-1-27l-1-1v-1l-1-1 1 1a4 4 0 00-1-1l-1-1 2 2 2 3-1-1v-4l-2-2-1-2-1 3 2 4 2 1zm5-10l1-1 1-1v-1l2-1-1 1-1 1-2 3 1-1 3-1 1-5c-2 1-4 1-5 3v3zm-12 17l-2-3v-2 1l1 2v-1 1l1 2v-5l-2-1-1-2c-1 2-1 6 1 7l1 1h1zm9-7l2-2 1-1 1-2-1 2 1 1h-2l-2 2h1c1-1 2 0 3-2l2-4-4 2-2 3v1zm-6 11h-1l-2-1-2-1h1l1 1v-1 1l2 1v-1l-1-1v-1l-3-1h-2a7 7 0 002 4l2 1 3-1zm-1 10l-1-1h-1l-1-1h1-1l-1-1h1l3 2 1 1-2-3-5-2 2 4c1 2 1 1 2 1h2zm2-10l-2-6 1 1v1l1-1-1 2v1l1 2v-5l-2-3-1 2 1 4 2 2zm3 7v-6l1 1v2-1 4-1l1-3-1-5-1 2a9 9 0 00-1 3l1 3v1zm3-25v-4l-1-1h1v1-2a4 4 0 010 1v5-1l2-4-1-5-1 2c-1 2-2 4-1 5l1 2v1zm-14 29l1 1 4 2 3-1-1-1-1 1a8 8 0 01-1-1 18 18 0 01-2 0h-1 3l-1-1 1 1h2v-1h-7zm3 6l3 3h4l-2-1h-2l1-1h-2v-1l1 1 4 1-1-1c-2-2-4-2-6-1zm16-27l1-1v-2 1l1-2-1 4-1 1 3-3v-5l-2 2-1 5zm-2 30l1-1c2 0 1 1 3-1l-1 1 2-1-1 1-2 1h-2 3c2 1 3-2 4-3v-1a12 12 0 00-5 3h-1l-1 1z"/>
    <path d="M408 309l1-3 1-1-1 1v1l2-2v-3l-2 1a7 7 0 00-1 2v4zm0 13l1-3v-2l1 1 1-1-1 2-2 3 1-1 1-1 1-1 1-4-4 2v5zm4-11l2-1-1 1h-4 1l1 1h3l3-3h-3l-2 1v1zm-18-7c0 2 3 4 4 3h2v-1h-4l-1-1 5 1-3-1-3-1zm12 17v-4 1l1 4v-4l-2-3v4l1 2zm6-42l1-1-1 1-1 1-2 2c3 0 5-3 6-5l-3 1v1zm1 13l1-1 1-1h-1l2-2-3 4-1 1 1-4 5-3-1 3-4 3zm-12 6l-1-2-1-3 1 1v1-1l1 2v1-3l-2-3v4c0 2 1 2 2 2v1zm2-1l2-1 2-3-1 1-1 1v-1 2l-2 1 2-4 3-2-1 5-3 1h-1zm6 1l4-1h1-1 2l-1 1h-6c2 1 3 2 5 1 2 0 2-1 4-3-3 1-4-2-7 0l-1 2z"/>
    <path d="M413 300h1-4l3 1 4-1-3-1zm-1 14l-1-1h-5l3 1h3zm0 2h1-1v1h3l-3-3v2zm-3 0l1-1h-2l-1-1 1 1 1 1zm8-25l-2 1-3 1 4-1 3-3h-2v2zm-6 43l1 3 2 3 1-1 2-1-2-1h-2 2l-2-1 2 1v-2l1 2 1 1h1l2 1-1-2-2-2-6-1zm2-2v-7 2l1-2-1 2v4l1-1 1-1v-5l1-2-3 1c-1 2-2 4-1 6v1l1 2z"/>
    <path d="M412 341l2 1c2 1 4 1 5-1l2-1h-3l-1 2h-1l1-1h-2l2-1 4-1c-3 0-4-2-7 1zm14-2v-1l-1-2 1 1-1-2 1 1v4l1 1c1-1 2-2 0-5l-3-3v4l1 1 1 1zm-15-3l-1-1h-3l-1-1 2 1v-1l1 1h1v-1h-1l-1-1h-4l1 2c1 1 3 3 5 2l1-1zm-11-9h1l1 1 2 2 4 1-1-1-2-1h-1l1-1a4 4 0 00-1 0h-1c1-1 2 0 3 1l2 2-1-2c-1-2-3-3-5-2h-2zm12 5l-2-5v-1l1 3v-4l-2-2v6l3 3zm11 10h1l-1-1v-2 1l1 1 1 1v-2 2l2-1c-1-2-3-2-5-3v2l1 2zm-2-4l-1-1-2-3-1-1 2 1 2 4v-1l-1-3-5-2 2 1 1 2c1 1 1 3 3 3z"/>
    <path d="M429 338v-1 1l-1 3 1-1 1-2v-4l-1 2v2zm-14-9l2-2-1 2-1 1c2 0 2-2 3-4l-2 1v1l-1 1z"/>
  </g>
  <g fill="#ce1126" stroke="none">
    <path d="M435 352l2 1-1 3 6-2-1-2v-2l-3 1a24 24 0 01-3 1zm31 0l-2 1 1 3-6-2 1-2v-2l3 1 3 1z"/>
    <path d="M443 356l6-2h3l5 2c3 0 3-2 3-2l-1-2c2-2 0-3 0-3h-4l-3 1h-4l-3-1h-3l-1 2v1c0 4 2 4 2 4z"/>
    <path d="M452 353l6 2h-2l-4-2zm-3 0l-6 2h2l4-2z"/>
    <path fill="#aa241e" d="M449 349c-2 0 0 2 0 3v2h2l2-1-1-2v-2h-3z"/>
    <path fill="none" d="M453 350l6-1m-6 3c6 1 5 2 5 2m-9-2c-7 2-6 3-6 3m5-5h-6"/>
  </g>
  <path d="M423 343l-9 3-4-6-3-2h-4l-1-1-5-7-1-2h-1l2 7-3-2h-4l1 1c2 1 4 4 4 6 1 3 3 7 6 9l2 2 3-1 6 7c2 3 6 3 9 3l4-2c4-2 2-4 1-6l9-3h29l10 3-1 3c0 2 1 3 2 3a12 12 0 008 2c4-1 5-2 7-4l4-6 1 1h2l2-2 6-9c1-3 2-5 5-7-4 0-5 1-7 2l1-4 1-3-5 5-2 2-1 3c-5-3-7 4-11 8-6-3-11-4-19-6h-33l-11 3z"/>
  <g fill="#ce1126">
    <path d="M416 357l3-3 12-4a66 66 0 019-2h5a84 84 0 0124 2l12 4 3 3 3-4 1-3c1-1 0-2-1-2l-10-5c-16-4-38-5-54 0a31 31 0 00-11 6c-1 1 1 3 1 4l1 2 2 2z"/>
    <path d="M401 343l3 2 7 11 4 3h5l4-1 2-2 1-2c-2 0-4 3-5 4-3 1-4 1-6-1l-4-5-1-3 2-2-2-4-3-4c-1-1-3-2-4-1l-2 3-1 2z"/>
    <path d="M398 336l-3-2-3-1 1 2c3 3 3 5 4 8a21 21 0 005 7h3c1-1-1-2-2-2l-2-2c-2-2-1-4 1-6l1-1-3-4-4-5 1 3 1 3zm29 18l-1-2-8 3-1 2c2 3 5-1 7-2l3-1z"/>
    <path d="M406 350l-1-2-4-2-1-2 1-1c2 0 5 6 5 7zm93-7l-3 2-7 11-3 3h-6l-4-1-2-2-1-1c2-1 4 2 6 3 2 2 3 1 5-1l4-5 1-3-2-2 2-4 3-4 4-1 2 3 1 2z"/>
    <path d="M502 336l3-2 3-1-1 2-4 8a21 21 0 01-5 7h-3c-1-1 1-2 2-2l2-2c2-2 1-4-1-6l-1-1 3-4 4-5-1 3-1 3zm-29 18l1-2 8 3c0 1 2 2 1 3-2 2-5-2-7-3l-3-1z"/>
    <path d="M494 350l1-2 4-2 1-2-1-1c-2 0-5 6-5 7z"/>
  </g>
  <path fill="#eac102" d="M422 346h-1l-1 1v2l1 1v1h1v-1l-1-1h1v1h1a1 1 0 001 0l-1-1-1-1 1-1-1-1zm-1 1h1v1h-1v-1zm2-1h1v4l2-1h1v-1h-1l-1 1v-2h1v-1l-1 1-1-1h1a1 1 0 011 0v-1h-1l-2 1zm5-2h-1l-1 1h1v4h1v-2l1-1 1-1a1 1 0 00-1 0 1 1 0 000-1h-1zm1 0zm-1 1a1 1 0 011 0v1h-1s0 1 0 0l-1-1h1zm4-2v1h1v3h-1l-1-1v-2h-1v2l1 1 1 1 1-1v-4h-1zm3 0h-2l1 1v3h1a5 5 0 001 0l1-1v-1h-1l1-1a1 1 0 00-1-1 2 2 0 00-1 0zm0 0h1v1l-1 1v-1a5 5 0 010-1zm0 2h1v1l-1 1v-2zm2-3v1h1v4c-1 0 0 0 0 0l1-1h1v-1 1a1 1 0 01-1 0l-1-1v-3h-1zm3 0h1v4h1v-2l-1-1v-1h1a7 7 0 00-2 0zm5 3h-1a2 2 0 01-1-1 4 4 0 010-1l1-1 1 1v-1h-2l-1 1v1l1 1v1h2v-1zm2-4l-1 1v4c-1 0-1 0 0 0v-1h1v1h1v-3l-1-1v-1zm0 1v2h-1l1-1v-1zm5-1h-1v5h2v-1h1v-1a3 3 0 000-1v-1h-1a2 2 0 000-1h-1zm0 1h1v2a2 2 0 010 1h-1v-3zm4-1a1 1 0 00-1 1l-1 1v1l1 1a1 1 0 001 1l1-1v-3h-1a1 1 0 000-1zm0 1v4h-1v-4a1 1 0 011 0zm1 4h1v-3h1v3h1v-3 3h1c0 1 0 0 0 0v-4h-1v1a11 11 0 010 1l-1 1v-3h-1v4h-1zm5 1h1v-2a27 27 0 010-2v-1h-1v3a3 3 0 010 1v1zm1 0h1a1 1 0 010-1v-1a2 2 0 010-1l1 3h1v-4s1 0 0 0v3l-1-1v-1l-1-1a4 4 0 010-1v2a5 5 0 010 1h-1v2zm4-4v1a4 4 0 010 1v2h-1l1 1v-2h1v-3a2 2 0 00-1 0zm1 3v1l1 1h1l1-1h-1l-1 1v-4a1 1 0 011 0 1 1 0 011 1c-1 0 0 0 0 0v-1h-2l-1 1v1zm5-1l-1 1v1l-1 1v1-1h2v1c-1 0-1 0 0 0v-4zm-1 0v2-2zm2 5v-2l1-1v-1 3l1 1v-1h1v-3h-1 1v1a6 6 0 00-1 1v1-2a7 7 0 010-1 3 3 0 01-1-1c-1 0-1 0 0 0l-1 2v2c-1 0 0 0 0 0a1 1 0 000 1zm5-3l-1 1v1l-1 1s-1 0 0 0v1-1h1s1 0 0 0v1h1v-4zm0 1v2l-1-1v-1h1z"/>
  <g transform="matrix(1.11591 0 0 1.11592 -107 -42)">
    <path fill="#fff" d="M475 281v41l1 8 6 4h10c5 0 5 1 7 3 2-3 4-3 8-3h9l5-4c2-2 2-6 2-9v-38l1-3 6-6h-62l6 7z"/>
    <path fill="#002d62" d="M494 299v-25h-26l7 7v18z"/>
    <path fill="#ce1126" d="M504 299v-25h26l-7 7v18zm-10 10h-20v16c1 7 6 9 11 9h9z"/>
    <path fill="#002d62" d="M504 309h19v16c0 7-6 9-10 9h-9z"/>
    <path fill="none" stroke="#000" d="M475 281v41l1 8 6 4h10c3 0 4 0 6 2l1 1 3-3h14l5-4c3-2 2-6 2-9v-38l1-3 6-6h-62l7 7z"/>
    <path fill="#eac102" d="M498 280v3h-3v3h3v9h2v-9h3v-3h-3v-3z"/>
    <g id="b">
      <path fill="#fff" d="M482 284v5l-2-2v32c0 4 4 8 8 8s8-4 8-8l-1-17-2-2v-2z"/>
      <path fill="#002d62" d="M482 284v5l-2-2v18l8 8v-21z"/>
      <path fill="#ce1126" d="M491 296l2 3v1l-2-3zm4 6l1 12c-2 2-4 1-4 1v-16z"/>
      <path fill="#002d62" d="M496 320c-4 2-4-1-4-1l4-3z"/>
      <path fill="#ce1126" d="M480 310l8 7c1 8 6 5 7 4-1 4-4 6-7 6-4 0-8-3-8-8z"/>
      <path fill="none" stroke="#000" stroke-width="0" d="M493 300v-2l-11-14v4z"/>
      <path fill="none" stroke="#000" stroke-width="0" d="M480 287v32c0 4 4 8 8 8s8-4 8-8l-1-17z"/>
      <g fill="#eac102" stroke="#000" stroke-width="0">
        <path d="M486 281v-2l-3-3 1 4 2 1zm-3-5l3 5"/>
        <path d="M498 301h-1l-12-20 1-1z"/>
        <path d="M485 281v-1h1v1h-1zm-4 1v-2l-4-3 2 4 2 1zm-4-5l4 5"/>
        <path d="M495 300l-15-18 1-1z"/>
        <path d="M480 282v-1h1v1h-1zm0 4l-1-2-3-2 2 3 2 1zm-4-4l4 4"/>
        <path d="M496 303l-17-17 1-1 16 17z"/>
        <path d="M479 286v-1h1v1h-1z"/>
      </g>
    </g>
    <use xlink:href="#b" width="100%" height="100%" transform="matrix(-1 0 0 1 998 0)"/>
    <g stroke="none" stroke-width="0">
      <path fill="#ce1126" d="M497 315l-1 10-2-1 1-10 2 1z"/>
      <path fill="#002d62" d="M496 314v3l2 1v-5l-2 1z"/>
      <path fill="#002d62" d="M496 327c2-2 5 0 5 0 3 0 2-4 2-4l-1-13-5 4z"/>
      <path fill="#002d62" d="M496 327c0 2 2 2 2 2 3 0 2-3 2-3-3-1-4 1-4 1z"/>
      <path fill="#ce1126" d="M498 313v9c0 2 2 1 2 1h1v-3c4 0 3-3 3-3l-1-7z"/>
      <path fill="none" d="M501 320l-3 1"/>
      <path fill="#fff" d="M501 326l-1-15 2-1 1 14c0 3-2 2-2 2z"/>
    </g>
    <g fill="#fff" stroke="none">
      <path fill="#000" d="M488 302l7 13 15-10-8-11z"/>
      <path d="M488 302l14-8 8 11-15 9z"/>
      <path fill="#000" d="M495 314l14-9-1-2-7-9-5 4-6 3h-1v1z"/>
      <path d="M496 298c-2-1-4 2-5 2l-2 1 6 11c2 0 3-2 4-3l3-1zm0 0c0-2 3-3 4-4l1-2 7 11c0 2-3 2-3 3l-2 2z"/>
      <path d="M495 312l-6-11v1l6 11v-1z"/>
      <path d="M491 302v1-1 1-1zm0 0h1-1zm1 0zm0 0zm0 0zm0-1h1v1-1h-1l1 1h-1 1-1v-1zm1 0zm0 0zm0 0zm-2 2h1l-1 1h1v-1h-1 1-1zm1 0zm0 0h1-1zm0 0zm1-1v1-1 1-1 1h-1l1-1zm0 0v1-1 1-1zm0 0zm0 1zm0-1h1-1zm0 0zm0 0h1-1zm1 0zm0 0zm0 0zm0 0zm-2 2zm1 0h-1 1-1 1zm-1 0zm1 0zm0 0zm0 0zm0-1v1-1 1-1zm0 0h1-1 1l-1 1v-1zm1 0zm0 0h1-1zm0 0zm1-1v1-1 1-1h-1 1zm0 0zm1 0h-1 1zm0 0zm0 0zm0-1l1 1h-1v-1 1-1zm-2 5h-1v1h1v-1 1h-1v-1h1zm0 0v1-1zm0 0zm0 0h1-1c1 0 1 0 0 0zm0 0zm1 0h-1l1-1v1zm0-1v1-1zm0 0h1-1 1-1zm1 0zm0-1h1v1h-1v-1zm0 0v1h1l-1-1zm1 0zm1 0h-1 1zm0 0h-1 1zm0 0v-1 1zm-4 4h1-1c1 0 1 0 0 0zm0 0h1-1zm1-1v1h1-1v-1zm1 0zm0 0zm0 0zm0 0zm1 0h-1 1-1 1zm0-1zm0 0v1c0-1 0-1 0 0v-1zm0 1v-1 1zm0-1v1-1zm0 0h1-1 1-1zm1 0zm0 0zm0 0zm0-1l1 1h-1v-1 1-1zm1 0c-1 0 0 0 0 0v1c0-1 0 0 0 0v-1h-1 1zm0 0zm0 0zm-4 4zm0 0zm0 0zm0-1v1-1 1h1-1 1-1v-1zm1 0zm0 0v1-1zm0 0zm1 0h-1 1zm0 0h-1 1zm-1 0h1-1zm1 0zm0-1v1-1zm0 1zm0-1v1-1s0 1 0 0zm1 0zm0 0zm0 0zm0 0h1-1zm0 0zm1-1v1-1zm0 0v1-1zm0 0zm-4 4h1-1 1-1zm1 0v-1 1-1 1zm0 0zm0-1v1-1zm0 0v1-1zm0 0zm0 0h1-1zm1 0c-1 0 0 0 0 0h-1s1 0 0 0h1zm0 0zm0 0zm1 0h-1v-1 1h1zm0-1v1-1s-1 0 0 0zm0 0zm0 0zm0 0zm0 0zm1 0h-1 1zm0 0h-1 1zm0 0zm0 0zm-1-10v1s0-1 0 0v-1zm0 0zm0 0v1-1zm0 0zm1 0h-1 1zm0 0c-1 0 0 0 0 0zm0 0zm0 0zm0 0zm0-1v1c1 0 0 0 0 0v-1 1-1zm0 0h1v1l-1-1zm1 0zm0 0zm0 0zm-2 2v1-1zm0 0c0 1 0 0 0 0zm0 0h1-1 1zm0 0zm1 0h-1 1zm0 0zm0 0c0-1 0-1 0 0v-1 1h1-1zm0 0zm0-1h1v1-1 1l-1-1zm1 0zm0 0zm0 0zm0 0h1-1zm0 0zm1 0h-1 1zm0 0v-1 1zm0 0zm0-1zm0 0v1-1zm0 0v1-1c0 1 0 1 0 0zm-2 3h-1 1zm0 0h-1zm0 0zm0 0v-1 1-1h1v1l-1-1v1h1a51 51 0 01-1 0zm1-1s-1 0 0 0zm0 0v1-1zm0 0v1-1zm0 0zm0 0h1-1zm0 0zm0 0h1-1zm1 0zm0 0zm0 0v-1 1-1 1zm0 0v-1 1zm0-1v1-1zm1 0h-1 1-1 1zm0 0h-1 1zm-3 3zm0 0zm0 0zm0-1h1-1v1h1a67 67 0 00-1 0c1 0 0 0 0 0 0-1 0-1 0 0v-1zm1 0c0 1 0 0 0 0v1-1zm0 0zm0 0zm0 0zm0 0zm0 0h1-1 1-1zm1 0zm0 0zm0-1v1-1zm0 0v1-1 1zm0 0v1-1zm1 0h-1 1-1 1zm0 0c-1 0 0 0 0 0zm0 0zm0 0zm0 0zm0 0zm0 0zm1 0h-1 1l-1-1v1-1h1v1zm0 0c-1 0 0 0 0 0zm0-1c0 1 0 0 0 0v1-1 1-1zm0 0zm0 0zm0 0h1-1 1-1c1 0 0 0 0 0zm1 0zm0 0zm0 0zm-5 4v-1h1c0 1 0 0 0 0v1-1 1-1h-1v1h1-1v-1zm1-1zm0 0zm0 0zm1 0h-1 1zm0 0h-1 1zm0 0c0-1 0 0 0 0zm0 0zm0-1v1-1zm0 0v1-1 1-1zm0 0zm0 0c1 0 1 0 0 0v1-1zm0 0h1v1-1 1-1h-1zm0 0h1-1zm1 0zm0 0zm0 0zm0 0zm0 0zm0-1v1h1-1 1-1v-1zm-1 5zm0 0v-1 1-1 1zm0 0h1-1zm1-1h-1 1zm0 0zm1 0h-1 1zm0 0h-1 1zm0 0v-1 1-1 1-1zm0-1v1-1zm0 0v1-1zm1 0h-1c1 0 0 0 0 0h1zm0 0zm0 0zm0 0zm0 0zm0 0zm0-1zm0 1c1 0 1 0 0 0zm1-1h-1l1 1h-1 1-1v-1h1zm0 0zm0 0zm0 0zm-4 4v-1 1-1 1zm1-1v1-1 1l-1-1h1zm0 0zm0 0zm0 0zm0 0zm0 0h1-1zm0 0zm1 0c-1 0-1 0 0 0v-1 1zm0 0zm0 0zm0-1v1-1zm0 0h1-1zm1 0zm0 0zm0 0zm0 0h1-1v-1h1zm0 0h1-1zm1-1v1-1zm0 0zm0 0zm0 0zm0 0zm1 0h-1 1zm0 0h-1 1zm0 0zm0 0zm0-1v1-1zm-4 4v1-1c-1 0 0 0 0 0zm0 0zm0 0zm0 0zm1 0h-1 1-1 1zm0 0h-1 1zm0-1v1-1zm0 0zm0 0v1-1zm0 0v1-1zm0 0v1-1zm0 0h1-1 1a67 67 0 00-1 0h1-1zm1 0zm0 0zm0 0zm0 0z" fill="#000"/>
    </g>
  </g>
</svg>
