<svg xmlns="http://www.w3.org/2000/svg" id="flag-icons-ec" viewBox="0 0 640 480">
  <g fill-rule="evenodd">
    <path fill="#ffe800" d="M0 0h640v480H0z"/>
    <path fill="#00148e" d="M0 240h640v240H0z"/>
    <path fill="#da0010" d="M0 360h640v120H0z"/>
  </g>
  <g fill-rule="evenodd">
    <path d="M270 291l-73 76-1-1 72-77 1 2zm50 12l-95 100-1-1 94-100 2 1z"/>
    <path fill="gray" stroke="#000" stroke-width="4" d="M478 60v89l18 88 18-88V60h-36z" transform="matrix(-.07 -.07 -.1 .1 265 430)"/>
    <path fill="gray" stroke="#000" stroke-width="4" d="M478 60v89l18 88 18-88V60h-36z" transform="matrix(-.07 -.07 -.1 .1 241 391)"/>
  </g>
  <path fill="#ffdf00" fill-rule="evenodd" stroke="#000" d="M301 273s-18 336 53 336 107-35 107-35l-1-185-159-116z" transform="matrix(.45 0 0 .64 72 -60)"/>
  <path fill="#0000c4" fill-rule="evenodd" stroke="#000" d="M345 304c0 18-8 270 27 270s89-18 89-18l-1-167-115-85z" transform="matrix(.45 0 0 .64 72 -60)"/>
  <path fill="#e10000" fill-rule="evenodd" stroke="#000" d="M368 321c0 18 4 218 40 218h53l-1-150-92-68z" transform="matrix(.45 0 0 .64 72 -60)"/>
  <path fill-rule="evenodd" d="M206 116l73 77 1-2-72-77-2 2z"/>
  <path fill="#ffdf00" fill-rule="evenodd" stroke="#000" d="M301 273s-35 336 71 336c89 0 89-53 106-53l-18-124-159-159z" transform="matrix(.58 0 0 .62 10 -10)"/>
  <g stroke="#000">
    <path fill="none" stroke-width="2" d="M270 155c1 0 28-94 119-147" transform="matrix(.4 -.03 -.05 .35 135 147)"/>
    <path fill="#005b00" fill-rule="evenodd" d="M421-20c0 18-4 31-11 45-6-18-9-27-9-45s7-35 12-49c3 12 8 31 8 49z" transform="matrix(.14 -.22 .3 .14 176 257)"/>
    <path fill="red" fill-rule="evenodd" d="M454-169c0 4-4 7-8 7s-9-3-9-7 4-8 9-8 8 4 8 8z" transform="matrix(.18 -.1 .1 .17 178 257)"/>
    <path fill="#005b00" fill-rule="evenodd" d="M421-20c0 18-4 31-11 45-6-18-9-27-9-45s7-35 12-49c3 12 8 31 8 49z" transform="matrix(.18 .12 -.13 .33 181 96)"/>
    <path fill="#005b00" fill-rule="evenodd" d="M421-20c0 18-4 31-11 45-6-18-9-27-9-45s7-35 12-49c3 12 8 31 8 49z" transform="matrix(.17 -.03 -.03 .33 179 159)"/>
    <path fill="#005b00" fill-rule="evenodd" d="M421-20c0 18-4 31-11 45-6-18-9-27-9-45s7-35 12-49c3 12 8 31 8 49z" transform="matrix(.06 .25 -.17 .2 228 46)"/>
    <path fill="#005b00" fill-rule="evenodd" d="M421-20c0 18-4 31-11 45-6-18-9-27-9-45s7-35 12-49c3 12 8 31 8 49z" transform="matrix(.2 -.2 .2 .24 150 241)"/>
    <path fill="#005b00" fill-rule="evenodd" d="M421-20c0 18-4 31-11 45-6-18-9-27-9-45s7-35 12-49c3 12 8 31 8 49z" transform="matrix(.22 -.22 .25 .2 136 282)"/>
    <path fill="#005b00" fill-rule="evenodd" d="M421-20c0 18-4 31-11 45-6-18-9-27-9-45s7-35 12-49c3 12 8 31 8 49z" transform="matrix(.26 .1 -.2 .32 131 148)"/>
    <path fill="#005b00" fill-rule="evenodd" d="M421-20c0 18-4 31-11 45-6-18-9-27-9-45s7-35 12-49c3 12 8 31 8 49z" transform="matrix(.15 .2 -.32 .22 179 103)"/>
    <path fill="#005b00" fill-rule="evenodd" d="M421-20c0 18-4 31-11 45-6-18-9-27-9-45s7-35 12-49c3 12 8 31 8 49z" transform="matrix(.08 .1 -.14 .16 251 103)"/>
    <path fill="#005b00" fill-rule="evenodd" d="M421-20c0 18-4 31-11 45-6-18-9-27-9-45s7-35 12-49c3 12 8 31 8 49z" transform="matrix(.1 0 -.08 .17 238 136)"/>
    <path fill="#005b00" fill-rule="evenodd" d="M421-20c0 18-4 31-11 45-6-18-9-27-9-45s7-35 12-49c3 12 8 31 8 49z" transform="matrix(0 .14 -.14 .08 287 81)"/>
    <path fill="#005b00" fill-rule="evenodd" d="M421-20c0 18-4 31-11 45-6-18-9-27-9-45s7-35 12-49c3 12 8 31 8 49z" transform="matrix(.07 .1 -.25 .15 221 116)"/>
    <path fill="#005b00" fill-rule="evenodd" d="M421-20c0 18-4 31-11 45-6-18-9-27-9-45s7-35 12-49c3 12 8 31 8 49z" transform="matrix(.13 .22 -.33 .2 207 70)"/>
    <path fill="none" stroke-width="2" d="M270 155c1 0 28-94 119-147" transform="matrix(.35 -.2 .14 .28 112 228)"/>
    <path fill="red" fill-rule="evenodd" d="M454-169c0 4-4 7-8 7s-9-3-9-7 4-8 9-8 8 4 8 8z" transform="matrix(.18 -.1 .1 .17 200 225)"/>
    <path fill="red" fill-rule="evenodd" d="M454-169c0 4-4 7-8 7s-9-3-9-7 4-8 9-8 8 4 8 8z" transform="matrix(.18 -.1 .1 .17 211 218)"/>
    <path fill="red" fill-rule="evenodd" d="M454-169c0 4-4 7-8 7s-9-3-9-7 4-8 9-8 8 4 8 8z" transform="matrix(.2 -.1 .07 .13 167 233)"/>
    <path fill="red" fill-rule="evenodd" d="M454-169c0 4-4 7-8 7s-9-3-9-7 4-8 9-8 8 4 8 8z" transform="matrix(.2 -.1 .07 .13 170 231)"/>
    <path fill="red" fill-rule="evenodd" d="M454-169c0 4-4 7-8 7s-9-3-9-7 4-8 9-8 8 4 8 8z" transform="matrix(.2 -.1 .07 .13 168 234)"/>
    <path fill="red" fill-rule="evenodd" d="M253 167l-1 3c-1 1-2 0-3-1s0-2 1-2h3zM255 165l-1 2h-2l1-3c1-1 2 0 2 1z" stroke="none"/>
    <path fill="red" fill-rule="evenodd" d="M256 166l-1 2h-3c-1-1 0-2 1-3s2 0 2 1z" stroke="none"/>
  </g>
  <path fill="#0000c4" fill-rule="evenodd" stroke="#000" d="M337 308c0 18-36 213 53 266 35 18 88-18 88 0l-17-142-124-124z" transform="matrix(.58 0 0 .62 10 -10)"/>
  <path fill="#e10000" fill-rule="evenodd" stroke="#000" d="M372 344c0 17-18 159 36 195 35 35 124 25 124 25l-71-132-89-88z" transform="matrix(.58 0 0 .62 10 -10)"/>
  <path fill-rule="evenodd" d="M184 158l95 100 1-2-94-100-2 2z"/>
  <path fill="#cececc" fill-rule="evenodd" stroke="#000" d="M461 184l17 36v17c0-1 0 18-17 18s-18-35-18-35-18 35-18 71 18 53 18 53-3-37 18-36c20 2 17 18 17 18v35h18V220l18-36-27-53-26 53z" transform="matrix(.14 -.14 .1 .1 86 192)"/>
  <path fill="#cececc" fill-rule="evenodd" stroke="#000" d="M558 96l-27 71 18 53-35-18 35 53v36h18v-36l36-53-36 18 18-54-27-70z" transform="matrix(.1 -.16 .14 .1 114 184)"/>
  <path fill="#e10000" fill-rule="evenodd" stroke="#000" d="M423 137c0 2-2 4-5 4s-4-2-4-4 2-4 4-4 4 2 4 4zm-7 8c0 36 21 188 23 191 0 5-5 7-7 1-7-17-21-160-21-193-1-14 3-15 8-15 4 1 8 4 8 8 0 5-6 9-11 8z" transform="matrix(.4 0 0 .3 44 70)"/>
  <path fill="#0000c4" fill-rule="evenodd" stroke="#000" d="M423 137c0 2-2 4-5 4s-4-2-4-4 2-4 4-4 4 2 4 4zm-7 8c32 61 49 167 51 170 0 5-5 7-7 1-3-3-13-100-50-172 0-14 4-15 9-14 3 0 8 3 8 7 0 5-6 9-11 8z" transform="matrix(.38 .1 -.15 .3 76 38)"/>
  <path fill="#e10000" fill-rule="evenodd" stroke="#000" d="M187 152c0 1-1 2-3 2l-2-2c0-1 1-2 3-2l2 1zm-4 4c1 17 11 93 12 95 0 3-2 4-4 1-3-9-10-80-10-97 0-7 2-7 4-7s4 2 4 4-3 4-5 4z"/>
  <path fill="#0000c4" fill-rule="evenodd" stroke="#000" d="M423 137c0 2-2 4-5 4s-4-2-4-4 2-4 4-4 4 2 4 4zm-7 8c32 61 49 167 51 170 0 5-5 7-7 1-3-3-13-100-50-172 0-14 4-15 9-14 3 0 8 3 8 7 0 5-6 9-11 8z" transform="matrix(.48 .15 -.2 .48 17 32)"/>
  <g fill-rule="evenodd">
    <path d="M370 291l73 76 1-1-72-77-2 2zm-50 12l95 100 1-1-94-100-2 1z"/>
    <path fill="gray" stroke="#000" stroke-width="4" d="M478 60v89l18 88 18-88V60h-36z" transform="matrix(.07 -.07 .1 .1 375 430)"/>
    <path fill="gray" stroke="#000" stroke-width="4" d="M478 60v89l18 88 18-88V60h-36z" transform="matrix(.07 -.07 .1 .1 399 391)"/>
  </g>
  <g fill-rule="evenodd">
    <path fill="#ffdf00" stroke="#000" d="M301 273s-18 336 53 336 107-35 107-35l-1-185-159-116z" transform="matrix(-.45 0 0 .64 568 -60)"/>
    <path fill="#0000c4" stroke="#000" d="M345 304c0 18-8 270 27 270s89-18 89-18l-1-167-115-85z" transform="matrix(-.45 0 0 .64 568 -60)"/>
    <path fill="#e10000" stroke="#000" d="M368 321c0 18 4 218 40 218h53l-1-150-92-68z" transform="matrix(-.45 0 0 .64 568 -60)"/>
    <path d="M434 116l-73 77-1-2 72-77 2 2z"/>
    <g fill="#005b00" stroke="#000">
      <path d="M428-17s82 91 111 154c30 64 55 156 55 156s2-86-37-163C505 33 426-12 428-17z" transform="matrix(.16 -.07 .08 .35 310 211)"/>
      <path d="M428-17s82 91 111 154c30 64 55 156 55 156s2-86-37-163C505 33 426-12 428-17z" transform="matrix(.2 -.05 .07 .4 292 183)"/>
      <path d="M428-17s82 91 111 154c30 64 55 156 55 156s2-86-37-163C505 33 426-12 428-17z" transform="matrix(.23 .14 -.03 .4 297 69)"/>
      <path d="M428-17s82 91 111 154c30 64 55 156 55 156s2-86-37-163C505 33 426-12 428-17z" transform="matrix(.25 .03 .02 .44 274 115)"/>
      <path d="M428-17s82 91 111 154c30 64 55 156 55 156s2-86-37-163C505 33 426-12 428-17z" transform="matrix(.18 .17 -.04 .35 330 67)"/>
      <path d="M428-17s82 91 111 154c30 64 55 156 55 156s2-86-37-163C505 33 426-12 428-17z" transform="matrix(.23 0 .03 .4 281 142)"/>
      <path d="M428-17s82 91 111 154c30 64 55 156 55 156s2-86-37-163C505 33 426-12 428-17z" transform="matrix(.2 -.07 .07 .38 290 197)"/>
      <path d="M428-17s82 91 111 154c30 64 55 156 55 156s2-86-37-163C505 33 426-12 428-17z" transform="matrix(.2 -.03 .05 .4 293 167)"/>
      <path d="M428-17s82 91 111 154c30 64 55 156 55 156s2-86-37-163C505 33 426-12 428-17z" transform="matrix(.22 .15 -.05 .38 305 66)"/>
      <path d="M428-17s82 91 111 154c30 64 55 156 55 156s2-86-37-163C505 33 426-12 428-17z" transform="matrix(.24 .05 0 .44 279 98)"/>
      <path d="M428-17s82 91 111 154c30 64 55 156 55 156s2-86-37-163C505 33 426-12 428-17z" transform="matrix(.17 .17 -.06 .33 339 70)"/>
      <path d="M428-17s82 91 111 154c30 64 55 156 55 156s2-86-37-163C505 33 426-12 428-17z" transform="matrix(.24 .02 0 .4 276 128)"/>
    </g>
    <path fill="#ffdf00" stroke="#000" d="M301 273s-35 336 71 336c89 0 89-53 106-53l-18-124-159-159z" transform="matrix(-.58 0 0 .62 630 -10)"/>
    <path fill="#0000c4" stroke="#000" d="M337 308c0 18-36 213 53 266 35 18 88-18 88 0l-17-142-124-124z" transform="matrix(-.58 0 0 .62 630 -10)"/>
    <path fill="#e10000" stroke="#000" d="M372 344c0 17-18 159 36 195 35 35 124 25 124 25l-71-132-89-88z" transform="matrix(-.58 0 0 .62 630 -10)"/>
    <path d="M456 158l-95 100-1-2 94-100 2 2z"/>
    <path fill="#cececc" stroke="#000" d="M461 184l17 36v17c0-1 0 18-17 18s-18-35-18-35-18 35-18 71 18 53 18 53-3-37 18-36c20 2 17 18 17 18v35h18V220l18-36-27-53-26 53z" transform="matrix(-.14 -.14 -.1 .1 554 192)"/>
    <path fill="#cececc" stroke="#000" d="M558 96l-27 71 18 53-35-18 35 53v36h18v-36l36-53-36 18 18-54-27-70z" transform="matrix(-.1 -.16 -.14 .1 526 184)"/>
    <path fill="#e10000" stroke="#000" d="M423 137c0 2-2 4-5 4s-4-2-4-4 2-4 4-4 4 2 4 4zm-7 8c0 36 21 188 23 191 0 5-5 7-7 1-7-17-21-160-21-193-1-14 3-15 8-15 4 1 8 4 8 8 0 5-6 9-11 8z" transform="matrix(-.4 0 0 .3 596 70)"/>
    <path fill="#0000c4" stroke="#000" d="M423 137c0 2-2 4-5 4s-4-2-4-4 2-4 4-4 4 2 4 4zm-7 8c32 61 49 167 51 170 0 5-5 7-7 1-3-3-13-100-50-172 0-14 4-15 9-14 3 0 8 3 8 7 0 5-6 9-11 8z" transform="matrix(-.38 .1 .15 .3 564 38)"/>
    <path fill="#e10000" stroke="#000" d="M453 152l2 2c2 0 3-1 3-2l-3-2-2 1zm3 4a1152 1152 0 01-11 95c0 3 2 4 4 1 3-9 10-80 10-97 0-7-2-7-4-7s-4 2-4 4 3 4 5 4z"/>
    <path fill="#0000c4" stroke="#000" d="M423 137c0 2-2 4-5 4s-4-2-4-4 2-4 4-4 4 2 4 4zm-7 8c32 61 49 167 51 170 0 5-5 7-7 1-3-3-13-100-50-172 0-14 4-15 9-14 3 0 8 3 8 7 0 5-6 9-11 8z" transform="matrix(-.48 .15 .2 .48 623 32)"/>
  </g>
  <g fill-rule="evenodd" stroke="#000">
    <path fill="#e10000" d="M478 698a53 53 0 0053 0V556h-35c18 53 18 107-18 142z" transform="matrix(.58 0 0 .62 10 -10)"/>
    <path fill="#0000c4" d="M514 610c0 88-43 108-43 126 18 0 30-9 43-20 17-18 19-108 17-107h-17z" transform="matrix(.35 0 0 .7 124 -90)"/>
    <path fill="#0000c4" d="M478 610c-1 51-44 99-36 110 9 9 36-22 72-4 17-18 19-108 17-107h-53z" transform="matrix(.35 0 0 .7 124 -90)"/>
    <path fill="#ffdf00" d="M514 610c0 88-41 94-41 118 18 0 41-13 41-12 17-18 19-108 17-107h-17z" transform="matrix(.35 0 0 .46 113 51)"/>
    <path fill="#ffdf00" d="M478 610c-1 51-43 95-35 106 9 9 35-18 71 0 17-18 19-108 17-107h-53z" transform="matrix(.35 0 0 .46 113 51)"/>
    <path fill="#e10000" d="M478 698a53 53 0 0053 0V556h-35c18 53 18 107-18 142z" transform="matrix(-.58 0 0 .62 630 -10)"/>
    <path fill="#0000c4" d="M514 610c0 88-43 108-43 126 18 0 30-9 43-20 17-18 19-108 17-107h-17z" transform="matrix(-.35 0 0 .7 517 -90)"/>
    <path fill="#0000c4" d="M478 610c-1 51-44 99-36 110 9 9 36-22 72-4 17-18 19-108 17-107h-53z" transform="matrix(-.35 0 0 .7 517 -90)"/>
    <path fill="#ffdf00" d="M514 610c0 88-41 94-41 118 18 0 41-13 41-12 17-18 19-108 17-107h-17z" transform="matrix(-.35 0 0 .46 528 51)"/>
    <path fill="#ffdf00" d="M478 610c-1 51-43 95-35 106 9 9 35-18 71 0 17-18 19-108 17-107h-53z" transform="matrix(-.35 0 0 .46 528 51)"/>
  </g>
  <g fill-rule="evenodd" stroke="#000">
    <path fill="#908f8a" stroke-width="5" d="M199 78l-90 35 90 36 44-18 23 18 22 35 23-35 22-18h1202V96H333l-22-18c0-18 4-35 22-35h90c0-18-45-54-135-54-89 0-134 36-134 54h89c18 0 23 17 23 35l-23 18-44-18z" transform="matrix(.12 0 0 .22 218 324)"/>
    <path fill="#b74d00" stroke-width="2" d="M204 96h337v17H204zm0-18h337v18H204zm0-18h337v18H204zm0-17h337v17H204zm0-18h337v18H204zm0-18h337v18H204zm0-18h337V7H204z" transform="matrix(.28 0 0 .27 216 335)"/>
    <path fill="#908f8a" stroke-width="3" d="M423 60l138 124h20L443 60h-20z" transform="matrix(.25 0 0 .27 172 315)"/>
    <path fill="#908f8a" stroke-width="3" d="M423 60l138 124h20L443 60h-20z" transform="matrix(.25 0 0 -.27 172 382)"/>
    <path fill="#908f8a" stroke-width="3" d="M425 60v124h18V60h-18z" transform="matrix(.28 0 0 .27 160 315)"/>
    <path fill="#908f8a" stroke-width="3" d="M423 60l138 124h20L443 60h-20z" transform="matrix(.25 0 0 .27 216 315)"/>
    <path fill="#908f8a" stroke-width="3" d="M423 60l138 124h20L443 60h-20z" transform="matrix(.25 0 0 -.27 216 382)"/>
    <path fill="#908f8a" stroke-width="3" d="M425 60v124h18V60h-18z" transform="matrix(.28 0 0 .27 238 315)"/>
    <path fill="#908f8a" stroke-width="3" d="M425 60v124h18V60h-18z" transform="matrix(.28 0 0 .27 204 315)"/>
    <path fill="#908f8a" stroke-width="3" d="M425 60v124h18V60h-18z" transform="matrix(.28 0 0 .27 194 315)"/>
  </g>
  <g fill="#ffdf00" fill-rule="evenodd" stroke="#000">
    <path d="M656 397c0 88-56 159-124 159s-124-71-124-159 55-160 124-160 124 72 124 160zm-18 0c0 78-48 142-107 142-58 0-106-64-106-142s48-142 106-142c59 0 107 64 107 142z" transform="matrix(.58 0 0 .62 10 -10)"/>
    <path d="M580 250a101 101 0 00-97 0l7 16a83 83 0 0183 0l7-16z" transform="matrix(.58 0 0 .62 10 -10)"/>
    <path d="M580 250a101 101 0 00-97 0l7 16a83 83 0 0183 0l7-16z" transform="matrix(.58 0 0 -.62 10 479)"/>
  </g>
  <path fill="#a7cfff" fill-rule="evenodd" d="M380 236c0 48-28 88-62 88s-62-40-62-88 28-88 62-88 62 39 62 88z"/>
  <path fill="#afff7b" fill-rule="evenodd" stroke="#000" d="M638 397c1 26-5 39-12 67-2 3-11-6-17-11s-7 4-14-3-11 2-16-4-51-7-51-8c4-2 28 0 24-11-4-12-31 0-35-15-2-15-53-16-57-20 2 6 40 9 39 23-1 6-38 8-41 13-3 6 29-2 30 6 0 3-5 0-22 5-8 2 16 10 7 14-9 5-28 7-28 8 3 9 45 20 41 21l-30 15a168 168 0 01-31-100c32-11 25-14 84-14s78 2 129 14z" transform="matrix(.58 0 0 .62 10 -10)"/>
  <path fill="#fff" fill-rule="evenodd" stroke="#000" d="M638 397l-25 3-27-3c-9 0-19 4-28 4-10 0-18-4-27-4s-19 3-28 3-18-3-27-3-18 3-26 3-17-3-25-3c0-20 3-38 9-55 27 2 11-16 27-16a33 33 0 0125 10c2 0 14-12 28-10 13 2 8 27 26 29 9 6 14 11 27 13 18 2 68-2 69 0a188 188 0 012 29z" transform="matrix(.58 0 0 .62 10 -10)"/>
  <path fill-rule="evenodd" stroke="#000" d="M550 474c0-6 13-9 13-19s-12-9-12-17c0-4 10-7 15-8s8 8 8 9-4-4-8-4-13 1-13 2c1 4 15 8 14 19-1 12-12 15-12 18s5 13 5 13-10-7-10-13z" transform="matrix(.2 0 0 .48 217 60)"/>
  <path fill-rule="evenodd" stroke="#000" d="M550 474c0-6 13-9 13-19s-12-9-12-17c-1-4 12-7 16-7s10 8 10 9-5-5-9-5-14 1-14 2c0 4 14 8 13 19-1 12-12 15-12 18s5 13 5 13-10-7-10-13z" transform="matrix(-.2 0 0 .48 446 59)"/>
  <path fill-rule="evenodd" d="M333 265l-1 2-2-2 2-3 1 3zm17 9v19zm4-2h1v20h-1z"/>
  <path fill-rule="evenodd" d="M353 281h4v1z"/>
  <path fill="#b74d00" fill-rule="evenodd" stroke="#000" d="M497 478s26 11 32 18 3 7 3 7l58 2c0-3 10-3 13-11l2-10-18 5 1-10h-16l-2 10-34-1 2-27-7 1-1 26c-1 0-32-8-33-10z" transform="matrix(.58 0 0 .62 7 -9)"/>
  <path fill="#fede00" fill-rule="evenodd" stroke="#fede00" d="M441 316s37-11 92-10 92 13 91 13l-11-19c1 0-38-10-81-11s-81 8-80 9l-12 18z" transform="matrix(.58 0 0 .62 10 -10)"/>
  <path fill="#38a9f9" fill-rule="evenodd" d="M306 170h14v8h-14zm-31 4l-5 8 16-2-1-8-10 2zm14-3l13-1 1 8-14 1zm48-1l-13-1-1 8 14 1zm30 5l4 10-14-4 1-7 8 1zm-12-3l-14-1-1 8 14 1z"/>
  <path fill="#ffdf00" fill-rule="evenodd" stroke="#000" d="M533 324l-3-14-7 12 2-14-11 8 8-12-14 3 12-7-14-3 14-3-12-7 14 3-8-12 11 8-3-13 8 11 3-13 2 13 8-11-3 13 11-8-7 12 13-3-11 7 13 3-13 3 11 7-13-3 7 12-11-8 3 14-8-12z" transform="matrix(.58 0 0 .62 10 -10)"/>
  <path fill="#ffdf00" fill-rule="evenodd" stroke="#000" d="M547 294c0 9-7 17-15 17s-15-8-15-17 7-17 15-17 15 8 15 17z" transform="matrix(.57 0 0 .5 18 22)"/>
  <path fill-rule="evenodd" d="M321 171l-3 1-3-1 3-1 3 1zm6 0l-2 1-3-1 3-1 2 1z"/>
  <path fill="none" stroke="#000" d="M529 298l1 1 2 3 5-3" transform="matrix(.56 -.18 .17 .6 -27 91)"/>
  <path fill="none" stroke="#000" d="M528 304l1 1 3 2c4 0 8-1 10-4" transform="matrix(.58 0 0 .62 9 -10)"/>
  <path fill="#b7e1ff" fill-rule="evenodd" d="M281 195s1 8-5 18-5 6-5 6l2 6-4-5-5 5 4-8-2-3 4-2 6-10-17 12 22-19zm4 3s2 8 5 12c2 4 2 9 2 9l8 4-10-16 6 3-11-12zm0 21l6 8 1 6-3-5-3 5 2-8-4 3 2-5-1-4zm-28 14l6-3-3 4-3-1zm64-22l12 8-8-4-4-4zm-22-16l18 15-8-4v4l-4-8v3l-5-10zm5 23l4 9 5-1-9-8zm14-6l1 9 2 2-3-11z"/>
  <path fill="#984000" fill-rule="evenodd" d="M183 90s21-12 44-21a304 304 0 0155-14c7 0 19 18 21 18s10-5 20-5 16 8 18 8h19c2 0-7-20 0-19 3 0 28 4 52 12s58 22 58 22-55 7-70 5c-2 1 0 13-3 8l-25-4-16 5-19 5 14 21-17 8s-10-24-14-24-6 17-11 16-7-16-11-20-26-5-34-7l-28-6c-7-2-14 5-17 5s4-6 1-7-5 3-7 3l-25-5c-2-1 5-4 3-4h-8z"/>
  <path fill="gray" fill-rule="evenodd" stroke="#772600" stroke-width="4" d="M463-65c0 21-21 38-46 38s-46-17-46-38 21-38 46-38 46 17 46 38z" transform="matrix(.22 0 0 .26 232 97)"/>
  <path fill="#984000" fill-rule="evenodd" stroke="#772600" stroke-width="5" d="M285-60c6-7 15-17 36-17 5-1 5-11 17-11s8 10 17 13c8 3 76-3 76-3s7 5 7 11-5 12-7 12-68-5-73-3c-5 1-8 3-20 3s-15-12-23-12-17-1-30 7z" transform="matrix(.27 0 0 .32 205 101)"/>
  <path fill="none" stroke="#772600" stroke-width="4" d="M488-77h26l22 4h24l21-4c15 0 10-1 7-10-3-6-3-9-7-13-1-8-4-11-5-20-1-7-4-12-1-20 3 6 5 8 15 9 10 0 13-1 20 3 4 5 10 3 20 3 7 2 8 5 14 8 7 4 12 5 22 5l20 5c4 6 11 7 20 7 5 0 9 0 13-2h25c6 8 8 10 19 10 7 6 13 6 20 9h25c9 0 11 4 20 6a201 201 0 0021 9 108 108 0 0022 1c6 4 13 4 18 7l22 5c9 1 12 4 20 5 6 2-2 4-7 5-10 0-10-4-20-5-5-3-13-2-20-5h-2c7 4 13 7 10 13l-23-1c-8-2-12-4-21-4 9-2 11 1 18 4 2 8-3 5-12 5-7-3-12-6-21-7h-20c9 0 12 4 18 8 0 3 0 3-5 4-5-5-12-6-20-9-8 0-16-1-23-3-5 0-5-6 6 3 7 4 9 7 9 10-9-2-13-5-19-8a61 61 0 00-23-3c-9-3 1-4 7 5 12 9-2 5-7 3l-22-7-15-3c9 1 12 4 15 10 9 6 0 3-8 2-5-5-12-7-15-12-8-4-9-9-3 2l1 11c-6-6-5-8-11-8-5-3-12-6-15-10-7-1-7-3-14-5l17 18c8 5 10 8 15 12 2 4 8 7 2 2-7-7-13-9-24-14l-15-11c-9-3-5-5 0 5l17 16a68 68 0 0015 14c2 2 6 2 0 3-5-5-12-7-18-12-9-2-12-6-19-11-4-6-10-11-15-15-9-4 2 3 5 8l7 17c3 5-8-2-12-4a57 57 0 00-21-8 298 298 0 00-20-3c-8-2 4 5 8 11 9 8-8 2-13 0a125 125 0 00-25-1c-11 0-3 2 0 6 3 3 5 8 5 10-7-1-13-3-22-3-7 2-15 2-23 2 0 4 1 0 5 5 6 2 9 5 8 8h-48c-5 1 1 1 5 7-2 5-5 3-12 3l-18-5c-5 0-4-1-8-2 14 10 7 8 15 15 1 1 4 2 1 2M371 73l-6-10c-3-6-6-2-9-11V32c-6-5-9-7-15-15-8-7 2-19 3-28-7-2-11 11-22 16-8 5-1-11-5-21-3-14-11 7-14 13-5 3-7 8-15 1 0-5 5-19 3-22-8 4-18 15-26 17-8-1 1-15 1-24-3-1-14 26-19 26s-3-26-5-26c-4 5-11 16-16 19-9-1 2-17 3-23 2-7-9 14-14 15-4 4-12 6-15 7 3-7 19-19 18-23-10 1-24 13-32 14l-13 2c1-8 20-15 23-20-10 2-28 10-33 17-6 1-14 3-20 0 1-8 15-22 18-27-8 4-13 6-22 8-1 2-6 5-5 2 3-7 7-10 10-15-7 1-10 6-18 10-5 0-20 15-24 15a69 69 0 01-29 13c-7 2-11 3-15 7 4-7 10-13 15-17a30 30 0 0115-13c2-2 7-3 2-3L73-32c-5 4-11 7-13 5 3-7 7-9 12-15 8-5 0-2-7 0-4 4-12 7-18 10-7 2-12 6-20 9l3-7c7-7 9-10 17-12 2-3 4-1-2-1L28-33 7-32c-11 2-10 2 0-3 5-5 9-4 10-10-7 5-14 8-22 12l-15 1c3-3 5-7 10-10 7-7-4-1-7 0h-25c-4 6 0 0 4-3 4-2 8-5 8-7-5 5-11 7-15 10-5 2-10 2-10 4 4-6 10-9 13-14 6-1 11-3 12-5h-23 16l24-1c13-3-2-4-9-4-1-2 4-4 10-5l17-6a45 45 0 0013-7L8-78l22-2a239 239 0 0022-8c3-4 4-4-4-4l22-5a94 94 0 0020-6l13-10c7 4 7 5 19 5 9 0 15-3 20-7 7-2 8-5 16-6a134 134 0 0023 1c9-2 16-6 22-10l17-8 18 7c8-2 12-5 18-7a28 28 0 0115-8c10-5 9 1 14 6s11 3 18 5c4 6 7 10 12 13 4 5 8 6 16 7 3 4 1 7 7 8 2 3 7 4 10 5" transform="matrix(.27 0 0 .32 205 105)"/>
  <path fill="none" stroke="#782600" stroke-width="3" d="M469 31v1l1 3c1 4 0 3-2 6l-1 11-4 10c-2 3-9 4-8 9-4 1-5-2-5-6l-5-10-5-10-6-9c-1-2-1-5-3-6-2-4-4-4-9-4l-8 3-11 2c-1 1 2 2 2 5l-4 7-4 8c1 2 0 5-2 7 0 4-2 6-3 9l-6 7c-2 3-3 3-8 3-4-1-4-3-8-5l-1-1" transform="matrix(.27 0 0 .32 205 105)"/>
  <path fill="#812e00" fill-rule="evenodd" d="M308 126s-1 5-4 8l-10 7s9-4 10-3-6 8-6 8l10-8 5 8c1-1-2-10-2-11v-10l-3 1zm20-1s0 5-3 9-10 7-10 7 9-4 9-3c2 1-5 9-5 9l10-9 4 8c1 0-2-10-1-11v-10h-4zm-29-48l-2 2-2-2 2-2 2 2z"/>
</svg>
