<svg xmlns="http://www.w3.org/2000/svg" id="flag-icons-es" viewBox="0 0 640 480">
  <path fill="#AA151B" d="M0 0h640v480H0z"/>
  <path fill="#F1BF00" d="M0 120h640v240H0z"/>
  <path fill="#ad1519" d="M127 213h-1v-1h-1l-1-1v-2l1-1a12 12 0 012-1h1l1-1h10a35 35 0 002 1h3l1 1v3l-1 1-1 1h-1l-7-1-8 1"/>
  <path fill="none" d="M127 213h-1v-1h-1l-1-1v-2l1-1a12 12 0 012-1h1l1-1h10a35 35 0 002 1h3l1 1v3l-1 1-1 1h-1l-7-1-8 1z"/>
  <path fill="#c8b100" d="M133 207l2-2 1 2-1 2-2-2"/>
  <path fill="none" d="M133 207l2-2 1 2-1 2-2-2z"/>
  <path fill="#c8b100" d="M134 207l1-2v4l-1-2"/>
  <path fill="none" d="M134 207l1-2v4l-1-2z"/>
  <path fill="#c8b100" d="M134 205l1-1h1l-1 1h-1"/>
  <path fill="#c8b100" d="M135 204v1h-1v-3h2v1h-1v1"/>
  <path fill="none" d="M135 204v1h-1v-3h2v1h-1v1"/>
  <path fill="#c8b100" d="M136 204v1h-3v-1h1v-2h2v1h-1v1h1"/>
  <path fill="none" d="M136 204v1h-3v-1h1v-2h2v1h-1v1h1"/>
  <path fill="none" d="M135 204h1l-1 1h-1v-1"/>
  <path fill="#c8b100" d="M135 213h-5v-2l-1-2-2-2v-1c1 0 4 1 5 4l1 1h4v-1c2-3 4-4 5-4l1 1-3 2v2l-1 1v1h-4"/>
  <path fill="none" d="M135 213h-5v-2l-1-2-2-2v-1c1 0 4 1 5 4l1 1h4v-1c2-3 4-4 5-4l1 1-3 2v2l-1 1v1h-4z"/>
  <path fill="none" d="M127 207c1-1 3 1 4 3m11-3l-4 3"/>
  <path fill="#c8b100" d="M128 215l-1-1a27 27 0 0115 0v1a6 6 0 00-1 1 23 23 0 00-6-1l-7 1v-1"/>
  <path fill="none" d="M128 215l-1-1a27 27 0 0115 0v1a6 6 0 00-1 1 23 23 0 00-6-1l-7 1v-1"/>
  <path fill="#c8b100" d="M135 218l5-1 2-1h-1l-6-1-7 1 1 1 6 1"/>
  <path fill="none" d="M135 218l5-1 2-1h-1l-6-1-7 1 1 1 6 1z"/>
  <path fill="#c8b100" d="M142 213h-2l-1-1-1 1-1-1h-2-2-1l-1 1c-1 1-1-1-1-1l-1 1h-2v1a27 27 0 018-1l7 1v-1"/>
  <path fill="none" d="M142 213h-2l-1-1-1 1-1-1h-2-2-1l-1 1c-1 1-1-1-1-1l-1 1h-2v1a27 27 0 018-1l7 1v-1z"/>
  <path fill="#c8b100" d="M135 211l1 1a1 1 0 001-1l1 1 1-1h1a1 1 0 000 1 1 1 0 001 1l1-1v1h1l1-1-1 1-1 1-1-1-2-1-1 1a2 2 0 01-1-1 2 2 0 01-1 1 2 2 0 01-1-1 2 2 0 01-3 0 2 2 0 01-1 1 2 2 0 01-1-1l-1 1h-1l-1 1-1-1-1-1 1 1h1v-1h1l1 1a1 1 0 001-1 1 1 0 000-1l1 1 1-1 1 1 1-1h1"/>
  <path fill="none" d="M135 211l1 1a1 1 0 001-1l1 1 1-1h1a1 1 0 000 1 1 1 0 001 1l1-1v1h1l1-1-1 1-1 1-1-1-2-1-1 1a2 2 0 01-1-1 2 2 0 01-1 1 2 2 0 01-1-1 2 2 0 01-3 0 2 2 0 01-1 1 2 2 0 01-1-1l-1 1h-1l-1 1-1-1-1-1 1 1h1v-1h1l1 1a1 1 0 001-1 1 1 0 000-1l1 1 1-1 1 1 1-1h1z"/>
  <path fill="#c8b100" d="M135 213l-8 1a27 27 0 018-1l7 1a27 27 0 00-7-1"/>
  <path fill="none" d="M135 213l-8 1a27 27 0 018-1l7 1a27 27 0 00-7-1z"/>
  <path fill="#fff" d="M132 214h1l-1 1v-1"/>
  <path fill="none" d="M132 214h1l-1 1v-1z"/>
  <path fill="#ad1519" d="M135 215h-1l-1-1h3-1"/>
  <path fill="none" d="M135 215h-1l-1-1h3-1"/>
  <path fill="#058e6e" d="M130 215h-1v-1h2v1h-1"/>
  <path fill="none" d="M130 215h-1v-1h2v1h-1"/>
  <path fill="#ad1519" d="M127 215h1v1l-1-1"/>
  <path fill="none" d="M127 215h1v1l-1-1"/>
  <path fill="#fff" d="M137 214h1l-1 1v-1"/>
  <path fill="none" d="M137 214h1l-1 1v-1z"/>
  <path fill="#058e6e" d="M139 215h1v-1h-1-1l1 1"/>
  <path fill="none" d="M139 215h1v-1h-1-1l1 1"/>
  <path fill="#ad1519" d="M142 215h-1v1l1-1"/>
  <path fill="none" d="M142 215h-1v1l1-1"/>
  <path fill="#ad1519" d="M135 217a25 25 0 01-6-1 26 26 0 0112 1h-6"/>
  <path fill="none" d="M135 217a25 25 0 01-6-1 26 26 0 0112 1h-6z"/>
  <path fill="#c8b100" d="M142 212"/>
  <path fill="none" d="M142 212z"/>
  <path fill="#c8b100" d="M137 211"/>
  <path fill="none" d="M137 211z"/>
  <path fill="#c8b100" d="M132 211"/>
  <path fill="none" d="M132 211z"/>
  <path fill="#c8b100" d="M127 212h0"/>
  <path fill="none" d="M127 212h0z"/>
  <path fill="#c8b100" d="M135 209h-1v1h1v-1"/>
  <path fill="none" d="M135 209h-1v1h1v-1"/>
  <path fill="#c8b100" d="M133 211h2v-1h-2v1"/>
  <path fill="none" d="M133 211h2v-1h-2v1"/>
  <path fill="#c8b100" d="M136 211h-1v-1h1v1"/>
  <path fill="none" d="M136 211h-1v-1h1v1"/>
  <path fill="#c8b100" d="M129 209v1l1 1v-2h-1"/>
  <path fill="none" d="M129 209v1l1 1v-2h-1"/>
  <path fill="#c8b100" d="M128 211v1l2-1h-2"/>
  <path fill="none" d="M128 211v1l2-1h-2"/>
  <path fill="#c8b100" d="M132 211h-2l1-1 1 1"/>
  <path fill="none" d="M132 211h-2l1-1 1 1"/>
  <path fill="#c8b100" d="M127 211v1h-2l1-1h1"/>
  <path fill="none" d="M127 211v1h-2l1-1h1"/>
  <path fill="#c8b100" d="M129 211l1-1v1a1 1 0 01-1 0"/>
  <path fill="none" d="M129 211l1-1v1a1 1 0 01-1 0z"/>
  <path fill="#c8b100" d="M140 209l1 1-1 1h-1v-2h1"/>
  <path fill="none" d="M140 209l1 1-1 1h-1v-2h1"/>
  <path fill="#c8b100" d="M141 211v1l-1-1h1"/>
  <path fill="none" d="M141 211v1l-1-1h1"/>
  <path fill="#c8b100" d="M138 211h2l-2-1v1"/>
  <path fill="none" d="M138 211h2l-2-1v1"/>
  <path fill="#c8b100" d="M143 211v1h1l-1-1h-1"/>
  <path fill="none" d="M143 211v1h1l-1-1h-1"/>
  <path fill="#c8b100" d="M134 210a1 1 0 011 0 1 1 0 010 1 1 1 0 01-1-1"/>
  <path fill="none" d="M134 210a1 1 0 011 0 1 1 0 010 1 1 1 0 01-1-1z"/>
  <path fill="#c8b100" d="M139 211l1-1a1 1 0 010 1 1 1 0 01-1 0"/>
  <path fill="none" d="M139 211l1-1a1 1 0 010 1 1 1 0 01-1 0z"/>
  <path fill="#c8b100" d="M125 212l-1-1h1v1"/>
  <path fill="none" d="M125 212l-1-1h1v1z"/>
  <path fill="#c8b100" d="M125 212v1-1"/>
  <path fill="none" d="M125 212v1-1z"/>
  <path fill="#c8b100" d="M144 212l1-1h0-1v1"/>
  <path fill="none" d="M144 212l1-1h0-1v1z"/>
  <path fill="#c8b100" d="M144 212v1-1"/>
  <path fill="none" d="M144 212v1-1z"/>
  <path fill="#c8b100" d="M124 223h21v-5h-21v5z"/>
  <path fill="none" d="M124 223h21v-5h-21v5z"/>
  <path fill="#c8b100" d="M126 227a1 1 0 011 0h16a1 1 0 01-1-1l1-2h-16a1 1 0 01-1 0l1 2a1 1 0 01-1 1"/>
  <path fill="none" d="M126 227a1 1 0 011 0h16a1 1 0 01-1-1l1-2h-16a1 1 0 01-1 0l1 2a1 1 0 01-1 1z"/>
  <path fill="#c8b100" d="M127 227h16l1 1h-18l1-1"/>
  <path fill="none" d="M127 227h16l1 1h-18l1-1z"/>
  <path fill="#c8b100" d="M127 223h16l1 1h-18l1-1"/>
  <path fill="none" d="M127 223h16l1 1h-18l1-1z"/>
  <path fill="#005bbf" d="M150 317h-4a8 8 0 00-4-1l-4 1a8 8 0 01-3 0h-4a8 8 0 00-4-1 8 8 0 00-3 1 8 8 0 01-4 0v3l4-1a8 8 0 013-1l4 1 4 1a8 8 0 003-1l4-1 4 1 4 1v-3"/>
  <path fill="none" d="M150 317h-4a8 8 0 00-4-1l-4 1a8 8 0 01-3 0h-4a8 8 0 00-4-1 8 8 0 00-3 1 8 8 0 01-4 0v3l4-1a8 8 0 013-1l4 1 4 1a8 8 0 003-1l4-1 4 1 4 1v-3z"/>
  <path fill="#ccc" d="M150 320a8 8 0 01-4-1 8 8 0 00-4-1l-4 1-3 1-4-1a8 8 0 00-4-1 8 8 0 00-3 1l-4 1v2l4-1a8 8 0 013 0h4a8 8 0 007 0 9 9 0 018 0 8 8 0 004 1v-2"/>
  <path fill="none" d="M150 320a8 8 0 01-4-1 8 8 0 00-4-1l-4 1-3 1-4-1a8 8 0 00-4-1 8 8 0 00-3 1l-4 1v2l4-1a8 8 0 013 0h4a8 8 0 007 0 9 9 0 018 0 8 8 0 004 1v-2"/>
  <path fill="#005bbf" d="M150 322a7 7 0 01-4-1 8 8 0 00-4-1l-4 1-3 1-4-1a8 8 0 00-4-1 8 8 0 00-3 1l-4 1v2l4-1a10 10 0 017 1 7 7 0 004 0 8 8 0 003 0l4-1 4 1h4v-2"/>
  <path fill="none" d="M150 322a7 7 0 01-4-1 8 8 0 00-4-1l-4 1-3 1-4-1a8 8 0 00-4-1 8 8 0 00-3 1l-4 1v2l4-1a10 10 0 017 1 7 7 0 004 0 8 8 0 003 0l4-1 4 1h4v-2"/>
  <path fill="#ccc" d="M150 327a8 8 0 01-4-1l-4-1a8 8 0 00-4 1l-3 1a7 7 0 01-4-1 8 8 0 00-4-1l-3 1-4 1v-3a8 8 0 004 0 10 10 0 017 0 8 8 0 004 0 8 8 0 003 0l4-1 4 1h4v3"/>
  <path fill="none" d="M150 327a8 8 0 01-4-1l-4-1a8 8 0 00-4 1l-3 1a7 7 0 01-4-1 8 8 0 00-4-1l-3 1-4 1v-3a8 8 0 004 0 10 10 0 017 0 8 8 0 004 0 8 8 0 003 0l4-1 4 1h4v3"/>
  <path fill="#005bbf" d="M150 329a8 8 0 01-4-1l-4-1a8 8 0 00-4 1l-3 1a7 7 0 01-4-1 8 8 0 00-4-1l-3 1-4 1v-2a8 8 0 004-1l3-1 4 1a8 8 0 007 0l4-1 4 1 4 1v2"/>
  <path fill="none" d="M150 329a8 8 0 01-4-1l-4-1a8 8 0 00-4 1l-3 1a7 7 0 01-4-1 8 8 0 00-4-1l-3 1-4 1v-2a8 8 0 004-1l3-1 4 1a8 8 0 007 0l4-1 4 1 4 1v2z"/>
  <path fill="#c8b100" d="M126 308v1l-2 2h22a3 3 0 01-3-2v-1h-16a1 1 0 01-1 0"/>
  <path fill="none" d="M126 308v1l-2 2h22a3 3 0 01-3-2v-1h-16a1 1 0 01-1 0z"/>
  <path fill="#c8b100" d="M127 307h17l-1 1h-16l-1-1 1-1"/>
  <path fill="none" d="M127 307h17l-1 1h-16l-1-1 1-1z"/>
  <path fill="#c8b100" d="M124 317h22v-6h-22v6z"/>
  <path fill="none" d="M124 317h22v-6h-22v6z"/>
  <path fill="#ad1519" d="M122 287c-2 1-4 2-3 3l1 1c2 2 3 4 2 5a6 6 0 000-9"/>
  <path fill="none" d="M122 287c-2 1-4 2-3 3l1 1c2 2 3 4 2 5a6 6 0 000-9z"/>
  <path fill="#ccc" d="M127 306h15v-77h-15v77z"/>
  <path fill="none" d="M138 229v76m2-76v76m-13 1h15v-77h-15v77z"/>
  <path fill="#ad1519" d="M158 258a50 50 0 00-23-2c-9 1-16 5-16 8l-3-8c-1-3 7-7 17-9a43 43 0 019-1l16 2v10"/>
  <path fill="none" d="M158 258a50 50 0 00-23-2c-9 1-16 5-16 8l-3-8c-1-3 7-7 17-9a43 43 0 019-1l16 2v10"/>
  <path fill="#ad1519" d="M127 267c-5 0-8-1-8-3 0-1 1-3 4-4h4v7"/>
  <path fill="none" d="M127 267c-5 0-8-1-8-3 0-1 1-3 4-4h4v7"/>
  <path fill="#ad1519" d="M143 262l5 1v1c1 1-2 3-6 5v-8"/>
  <path fill="none" d="M143 262l5 1v1c1 1-2 3-6 5v-8"/>
  <path fill="#ad1519" d="M117 282c0-1 4-4 10-6l8-3c8-4 14-8 13-9v-1l1 8c1 2-5 6-12 10l-10 4c-5 1-9 4-8 5l-2-8"/>
  <path fill="none" d="M117 282c0-1 4-4 10-6l8-3c8-4 14-8 13-9v-1l1 8c1 2-5 6-12 10l-10 4c-5 1-9 4-8 5l-2-8z"/>
  <path fill="#c8b100" d="M126 254c2-1 3-1 2-3l-2-1-3 1 2 6h2l-1-3zm-1-3l2 1-1 1a4 4 0 010 1l-1-3m7-2h-2l1 6 5-1h-3l-1-5m8 5l3-6a5 5 0 01-1 0 55 55 0 01-2 4l-2-4h-2a131 131 0 013 6h1m9-5l1-1a3 3 0 00-2 0c-2 0-3 0-3 2s3 2 3 3l-1 1-2-1a7 7 0 010 1 4 4 0 001 0l4-1c0-2-4-3-4-4l2-1 1 1"/>
  <path fill="#ad1519" d="M278 212h-3l-1 1-1-1-1 1h-1-2v-1h-1v-2l2-1a4 4 0 012 0l3-1 3 1a6 6 0 013-1l3 1h2l2 1v2h-1l-1 1h-2l-1-1-2 1-1-1h-1-1"/>
  <path fill="none" d="M278 212h-3l-1 1-1-1-1 1h-1-2v-1h-1v-2l2-1a4 4 0 012 0l3-1 3 1a6 6 0 013-1l3 1h2l2 1v2h-1l-1 1h-2l-1-1-2 1-1-1h-1-1z"/>
  <path fill="#c8b100" d="M277 208l1-2 1 2-1 1-1-1"/>
  <path fill="none" d="M277 208l1-2 1 2-1 1-1-1z"/>
  <path fill="#c8b100" d="M277 208l1-2 1 2-1 1-1-2"/>
  <path fill="none" d="M277 208l1-2 1 2-1 1-1-2z"/>
  <path fill="#c8b100" d="M271 215a5 5 0 000-1 27 27 0 0114 0v1a5 5 0 00-1 1 23 23 0 00-6-1l-7 1v-1"/>
  <path fill="none" d="M271 215a5 5 0 000-1 27 27 0 0114 0v1a5 5 0 00-1 1 23 23 0 00-6-1l-7 1v-1"/>
  <path fill="#c8b100" d="M278 218l6-1 1-1h-1a24 24 0 00-6-1l-7 1 1 1 6 1"/>
  <path fill="none" d="M278 218l6-1 1-1h-1a24 24 0 00-6-1l-7 1 1 1 6 1z"/>
  <path fill="#fff" d="M284 208v1l-1-1"/>
  <path fill="none" d="M284 208v1l-1-1zm-1-1h0zm-1-1h1c1 0 0 0 0 0h-1zm-1 0v-1l1 1h-1zm-2 0l1-1v1h-1zM288 211v-1a3 3 0 00-3-3l-1 1M283 209v-1l-2-2-2 1"/>
  <path fill="none" d="M288 210h1c1 0 0 0 0 0h-1zm0-2h1l-1 1v-1zm-1-1h1l-1 1v-1zm-1 0v-1l1 1h-1zm-2 0l1-1v1h-1z"/>
  <path fill="#c8b100" d="M285 213h-1l-1-1-2 1-1-1h-2-2l-1 1-2-1-1 1h-1v1a27 27 0 017-1l7 1v-1"/>
  <path fill="none" d="M285 213h-1l-1-1-2 1-1-1h-2-2l-1 1-2-1-1 1h-1v1a27 27 0 017-1l7 1v-1z"/>
  <path fill="#fff" d="M271 208h1v1l-1-1"/>
  <path fill="none" d="M271 208h1v1l-1-1zm1-1h-1zm1-1h0zm1 0v-1l1 1h-1c-1 0 0 0 0 0zm1 0l1-1v1h-1z"/>
  <path fill="none" d="M268 211a3 3 0 010-1 3 3 0 012-3l2 1M273 209a2 2 0 01-1-1l3-2a3 3 0 012 1M267 210zm0-2h1l-1 1v-1zm1-1h1l-1 1v-1zm1 0l1-1v1h-1zm1 0l1-1v1h-1z"/>
  <path fill="#c8b100" d="M278 211l1 1a1 1 0 001-1l1 1 1-1h1a1 1 0 000 1 1 1 0 001 1l1-1v1h1l1-1-1 1-1 1v-1a2 2 0 01-1 0l-2-1a2 2 0 01-1 1l-1-1a2 2 0 01-1 1l-1-1-1 1-1-1a2 2 0 01-2 1l-1-1-1 1h-1l-1 1-1-1a4 4 0 01-1-1h1v1h1l1-1 1 1a1 1 0 001-1 1 1 0 000-1l1 1 1-1 1 1 2-1"/>
  <path fill="none" d="M278 211l1 1a1 1 0 001-1l1 1 1-1h1a1 1 0 000 1 1 1 0 001 1l1-1v1h1l1-1-1 1-1 1v-1a2 2 0 01-1 0l-2-1a2 2 0 01-1 1l-1-1a2 2 0 01-1 1l-1-1-1 1-1-1a2 2 0 01-2 1l-1-1-1 1h-1l-1 1-1-1a4 4 0 01-1-1h1v1h1l1-1 1 1a1 1 0 001-1 1 1 0 000-1l1 1 1-1 1 1 2-1z"/>
  <path fill="#c8b100" d="M278 213l-7 1h-1l8-1 7 1h1-1a27 27 0 00-7-1"/>
  <path fill="none" d="M278 213l-7 1h-1l8-1 7 1h1-1a27 27 0 00-7-1z"/>
  <path fill="#fff" d="M275 214h1l-1 1v-1"/>
  <path fill="none" d="M275 214h1l-1 1v-1z"/>
  <path fill="#ad1519" d="M278 215h-1v-1h2-1"/>
  <path fill="none" d="M278 215h-1v-1h2-1"/>
  <path fill="#058e6e" d="M273 215h-1v-1h2v1h-1"/>
  <path fill="none" d="M273 215h-1v-1h2v1h-1"/>
  <path fill="#ad1519" d="M271 215h1l-1 1v-1"/>
  <path fill="none" d="M271 215h1l-1 1v-1"/>
  <path fill="#fff" d="M280 214h1l-1 1v-1"/>
  <path fill="none" d="M280 214h1l-1 1v-1z"/>
  <path fill="#058e6e" d="M283 215v-1h-1v1h1"/>
  <path fill="none" d="M283 215v-1h-1v1h1"/>
  <path fill="#ad1519" d="M285 215h-1l1 1v-1"/>
  <path fill="none" d="M285 215h-1l1 1v-1"/>
  <path fill="#ad1519" d="M278 217a25 25 0 01-6-1 25 25 0 016 0l6 1h-6"/>
  <path fill="none" d="M278 217a25 25 0 01-6-1 25 25 0 016 0l6 1h-6z"/>
  <path fill="#c8b100" d="M285 212"/>
  <path fill="none" d="M285 212z"/>
  <path fill="#c8b100" d="M281 211h-1 1"/>
  <path fill="none" d="M281 211h-1 1z"/>
  <path fill="#c8b100" d="M275 211h1-1c0 1 0 0 0 0"/>
  <path fill="none" d="M275 211h1-1c0 1 0 0 0 0z"/>
  <path fill="#c8b100" d="M271 212h-1"/>
  <path fill="none" d="M271 212h-1z"/>
  <path fill="#c8b100" d="M278 209h-1l1 1 1-1h-1"/>
  <path fill="none" d="M278 209h-1l1 1 1-1h-1"/>
  <path fill="#c8b100" d="M276 211h2v-1h-2v1"/>
  <path fill="none" d="M276 211h2v-1h-2v1"/>
  <path fill="#c8b100" d="M280 211h-2v-1h1l1 1"/>
  <path fill="none" d="M280 211h-2v-1h1l1 1"/>
  <path fill="#c8b100" d="M273 209l-1 1 1 1v-2h-1"/>
  <path fill="none" d="M273 209l-1 1 1 1v-2h-1"/>
  <path fill="#c8b100" d="M271 211l1 1 1-1h-2"/>
  <path fill="none" d="M271 211l1 1 1-1h-2"/>
  <path fill="#c8b100" d="M275 211h-2l1-1 1 1"/>
  <path fill="none" d="M275 211h-2l1-1 1 1"/>
  <path fill="#c8b100" d="M270 211v1h-2l1-1h1"/>
  <path fill="none" d="M270 211v1h-2l1-1h1"/>
  <path fill="#c8b100" d="M272 211l1-1a1 1 0 010 1 1 1 0 01-1 0"/>
  <path fill="none" d="M272 211l1-1a1 1 0 010 1 1 1 0 01-1 0z"/>
  <path fill="#c8b100" d="M283 209l1 1-1 1-1-2h1"/>
  <path fill="none" d="M283 209l1 1-1 1-1-2h1"/>
  <path fill="#c8b100" d="M285 211l-1 1-1-1h2"/>
  <path fill="none" d="M285 211l-1 1-1-1h2"/>
  <path fill="#c8b100" d="M281 211h2l-2-1v1"/>
  <path fill="none" d="M281 211h2l-2-1v1"/>
  <path fill="#c8b100" d="M286 211v1h1l-1-1"/>
  <path fill="none" d="M286 211v1h1l-1-1"/>
  <path fill="#c8b100" d="M277 210h1v1a1 1 0 01-1-1"/>
  <path fill="none" d="M277 210h1v1a1 1 0 01-1-1z"/>
  <path fill="#c8b100" d="M282 211l1-1v1a1 1 0 01-1 0"/>
  <path fill="none" d="M282 211l1-1v1a1 1 0 01-1 0z"/>
  <path fill="#c8b100" d="M277 205h2l-1 1a1 1 0 01-1-1"/>
  <path fill="#c8b100" d="M279 205v1h-2v-3h2v1h-1v1"/>
  <path fill="none" d="M279 205v1h-2v-3h2v1h-1v1z"/>
  <path fill="#c8b100" d="M279 205v1h-2v-1h1v-1h-1v-1h2v1h-1v1h1"/>
  <path fill="none" d="M278 205h1l-1 1a1 1 0 01-1-1h1"/>
  <path fill="#c8b100" d="M268 212l-1-1h1v1"/>
  <path fill="none" d="M268 212l-1-1h1v1z"/>
  <path fill="#c8b100" d="M268 212h1v1l-1-1"/>
  <path fill="none" d="M268 212h1v1l-1-1z"/>
  <path fill="#c8b100" d="M288 212v-1h-1v1h1"/>
  <path fill="none" d="M288 212v-1h-1v1h1z"/>
  <path fill="#c8b100" d="M288 212h-1v1-1c1 0 1 0 0 0"/>
  <path fill="none" d="M288 212h-1v1-1c1 0 1 0 0 0z"/>
  <path fill="#c8b100" d="M267 223h22v-5h-22v5z"/>
  <path fill="none" d="M267 223h22v-5h-22v5z"/>
  <path fill="#c8b100" d="M286 227h-17l1-1-1-2h17l-1 2 1 1"/>
  <path fill="none" d="M286 227h-17l1-1-1-2h17l-1 2 1 1z"/>
  <path fill="#c8b100" d="M270 227h16l1 1h-18l1-1"/>
  <path fill="none" d="M270 227h16l1 1h-18l1-1z"/>
  <path fill="#c8b100" d="M270 223h16l1 1h-18l1-1"/>
  <path fill="none" d="M270 223h16l1 1h-18l1-1z"/>
  <path fill="#005bbf" d="M263 317h4a8 8 0 013-1l4 1h8a8 8 0 013-1 8 8 0 014 1h4v3a8 8 0 01-4-1 8 8 0 00-4-1l-3 1-4 1a8 8 0 01-4-1 8 8 0 00-4-1 8 8 0 00-3 1l-4 1v-3"/>
  <path fill="none" d="M263 317h4a8 8 0 013-1l4 1h8a8 8 0 013-1 8 8 0 014 1h4v3a8 8 0 01-4-1 8 8 0 00-4-1l-3 1-4 1a8 8 0 01-4-1 8 8 0 00-4-1 8 8 0 00-3 1l-4 1v-3z"/>
  <path fill="#ccc" d="M263 320l4-1 3-1 4 1 4 1a8 8 0 004-1 8 8 0 013-1l4 1 4 1v2a8 8 0 01-4-1 8 8 0 00-4 0h-3l-4 1a7 7 0 01-4-1h-4a8 8 0 00-3 0 8 8 0 01-4 1v-2"/>
  <path fill="none" d="M263 320l4-1 3-1 4 1 4 1a8 8 0 004-1 8 8 0 013-1l4 1 4 1v2a8 8 0 01-4-1 8 8 0 00-4 0h-3l-4 1a7 7 0 01-4-1h-4a8 8 0 00-3 0 8 8 0 01-4 1v-2"/>
  <path fill="#005bbf" d="M263 322l4-1 3-1 4 1 4 1a8 8 0 004-1 8 8 0 013-1 8 8 0 014 1l4 1v2a8 8 0 01-4-1 8 8 0 00-4 0l-3 1h-8a8 8 0 00-4-1 8 8 0 00-3 1h-4v-2"/>
  <path fill="none" d="M263 322l4-1 3-1 4 1 4 1a8 8 0 004-1 8 8 0 013-1 8 8 0 014 1l4 1v2a8 8 0 01-4-1 8 8 0 00-4 0l-3 1h-8a8 8 0 00-4-1 8 8 0 00-3 1h-4v-2"/>
  <path fill="#ccc" d="M263 327a8 8 0 004-1l3-1 4 1 4 1 4-1a8 8 0 013-1l4 1a8 8 0 004 1v-3a8 8 0 01-4 0 8 8 0 00-4-1l-3 1h-8a8 8 0 00-4-1 8 8 0 00-3 1h-4v3"/>
  <path fill="none" d="M263 327a8 8 0 004-1l3-1 4 1 4 1 4-1a8 8 0 013-1l4 1a8 8 0 004 1v-3a8 8 0 01-4 0 8 8 0 00-4-1l-3 1h-8a8 8 0 00-4-1 8 8 0 00-3 1h-4v3"/>
  <path fill="#005bbf" d="M263 329a8 8 0 004-1l3-1 4 1 4 1a8 8 0 004-1 8 8 0 013-1l4 1 4 1v-2a8 8 0 01-4-1 8 8 0 00-4-1 8 8 0 00-3 1 8 8 0 01-4 1l-4-1-4-1-3 1-4 1v2"/>
  <path fill="none" d="M263 329a8 8 0 004-1l3-1 4 1 4 1a8 8 0 004-1 8 8 0 013-1l4 1 4 1v-2a8 8 0 01-4-1 8 8 0 00-4-1 8 8 0 00-3 1 8 8 0 01-4 1l-4-1-4-1-3 1-4 1v2z"/>
  <path fill="#c8b100" d="M286 308v1c0 1 1 2 3 2h-22l3-2-1-1h17"/>
  <path fill="none" d="M286 308v1c0 1 1 2 3 2h-22l3-2-1-1h17z"/>
  <path fill="#c8b100" d="M270 307h17l-1 1h-16l-1-1 1-1"/>
  <path fill="none" d="M270 307h17l-1 1h-16l-1-1 1-1z"/>
  <path fill="#c8b100" d="M267 317h22v-6h-22v6z"/>
  <path fill="none" d="M267 317h22v-6h-22v6z"/>
  <path fill="#ad1519" d="M291 287l3 3-2 1-2 5a6 6 0 011-9"/>
  <path fill="none" d="M291 287l3 3-2 1-2 5a6 6 0 011-9z"/>
  <path fill="#ccc" d="M270 306h16v-77h-16v77z"/>
  <path fill="none" d="M281 229v76m2-76v76m-13 1h16v-77h-16v77z"/>
  <path fill="#ad1519" d="M254 258a50 50 0 0123-2c10 1 17 5 16 8l4-8c0-3-7-7-18-9a54 54 0 00-9-1l-16 2v10"/>
  <path fill="none" d="M254 258a50 50 0 0123-2c10 1 17 5 16 8l4-8c0-3-7-7-18-9a54 54 0 00-9-1l-16 2v10"/>
  <path fill="#ad1519" d="M286 267c4 0 7-1 7-3 1-1-1-3-3-4h-4v7"/>
  <path fill="none" d="M286 267c4 0 7-1 7-3 1-1-1-3-3-4h-4v7"/>
  <path fill="#ad1519" d="M270 262a13 13 0 00-6 1v1c0 1 2 3 6 5v-8"/>
  <path fill="none" d="M270 262a13 13 0 00-6 1v1c0 1 2 3 6 5v-8"/>
  <path fill="#ad1519" d="M295 282c1-1-3-4-9-6l-8-3c-8-4-15-8-14-9v-1l-1 8c-1 2 5 6 13 10l10 4c4 1 8 4 8 5l1-8"/>
  <path fill="none" d="M295 282c1-1-3-4-9-6l-8-3c-8-4-15-8-14-9v-1l-1 8c-1 2 5 6 13 10l10 4c4 1 8 4 8 5l1-8z"/>
  <path fill="#c8b100" d="M264 254l2-6a5 5 0 01-1 0 53 53 0 01-1 5l-3-4h-2a131 131 0 014 6l1-1m6-6h-1a8 8 0 01-1 0v6h4v-1h-2v-5m7 1h2v-1h-6v1a19 19 0 012 0l-1 5h2l1-5m2 6h2v-3l1 2 1 2h2l-1-1-1-2 2-2-1-1-1-1h-3l-1 6m3-5l1 1-2 1 1-2m8 7v2h1v1l1-7a3 3 0 01-1-1l-6 4 1 1 2-1 2 1zm-2-2l2-1v2l-2-1"/>
  <path fill="none" d="M182 192l2-2 2 2c0 2-1 2-2 2a2 2 0 01-2-2z"/>
  <path fill="#ad1519" d="M206 175c6 0 12 1 15 3a32 32 0 0015 2l10 3a27 27 0 018 4l-2 2v3l-4 5-2 2-5 4h-3l-1 2-31-4-32 4-1-2h-2l-5-4-2-2-4-5-1-3-1-2a28 28 0 017-4 26 26 0 0111-3h6a30 30 0 008-2c4-2 9-3 16-3z"/>
  <path fill="#c8b100" d="M206 217c-12 0-22-1-30-4a1 1 0 01-1-1l1-1a109 109 0 0130-3c12 0 22 1 30 3a1 1 0 010 3c-7 2-18 3-30 3"/>
  <path fill="#ad1519" d="M206 216c-11 0-20-2-27-4l27-3a115 115 0 0128 3c-8 2-17 4-28 4"/>
  <path fill="none" d="M207 216v-7m-2 7v-7M204 216v-7m-2 7v-7M201 216v-7m-3 6v-5m1 5v-6m-4 6v-5m2 5v-5M192 215v-5m1 5v-5m1 5v-5m-3 5v-5"/>
  <path fill="none" stroke="#000" d="M190 215v-5m-2 4v-4M186 214v-3m1 3v-3m-2 3v-3M184 214v-3m-2 2v-2m-1 2v-1M180 213v-1"/>
  <path fill="none" d="M214 215v-5m-3 6v-7m-2 7v-7"/>
  <path fill="#c8b100" d="M206 207a108 108 0 00-30 4v-3c-1-2-3-2-3-2 9-3 20-4 33-4a123 123 0 0133 4s-1 0-2 2l-1 3c-7-2-18-3-30-3"/>
  <path fill="#c8b100" d="M206 202c-13 0-24 1-33 4a1 1 0 01-1-1 1 1 0 011-1 121 121 0 0133-4c13 0 25 2 34 4v1l-1 1c-8-3-20-4-33-4"/>
  <path fill="none" d="M206 216c-11 0-20-2-27-4l27-3a115 115 0 0128 3c-8 2-17 4-28 4z"/>
  <path fill="#fff" d="M197 205l1-1 1 1-1 1a1 1 0 01-1-1"/>
  <path fill="#ad1519" d="M206 206h-3a1 1 0 010-2h6l1 1-1 1h-3"/>
  <path fill="#058e6e" d="M190 207h-2l-1-1a1 1 0 011-1l2-1h2l2 1-1 1h-3"/>
  <path fill="#fff" d="M181 207l1-1 1 1-1 1a1 1 0 01-1-1"/>
  <path fill="#ad1519" d="M174 209l1-2h3l-2 2h-2"/>
  <path fill="#058e6e" d="M222 207h2l1-1a1 1 0 000-1l-3-1h-2a1 1 0 00-1 1l1 1h2"/>
  <path fill="#fff" d="M213 205l1-1 1 1-1 1a1 1 0 01-1-1m16 2l1-1 1 1-1 1a1 1 0 01-1-1"/>
  <path fill="#ad1519" d="M238 209l-1-2h-3l2 2h2"/>
  <path fill="none" d="M177 213a111 111 0 0158 0"/>
  <path fill="#c8b100" d="M182 184l2 1 2-3a7 7 0 01-4-8c0-4 5-7 12-7l8 2 1-2a17 17 0 00-9-2c-8 0-13 4-14 9a9 9 0 003 8l-1 2"/>
  <path fill="none" d="M182 184l2 1 2-3a7 7 0 01-4-8c0-4 5-7 12-7l8 2 1-2a17 17 0 00-9-2c-8 0-13 4-14 9a9 9 0 003 8l-1 2"/>
  <path fill="#c8b100" d="M182 184a9 9 0 01-4-7c0-4 2-7 6-8a9 9 0 00-4 6 9 9 0 003 7l-1 2"/>
  <path fill="none" d="M182 184a9 9 0 01-4-7c0-4 2-7 6-8a9 9 0 00-4 6 9 9 0 003 7l-1 2"/>
  <path fill="#c8b100" d="M160 187a9 9 0 01-2-6l1-4c2-4 8-7 16-7l6 1-1 1a26 26 0 00-5 0c-7 0-13 2-15 6a7 7 0 000 3 7 7 0 002 6l-2 4-2-1 2-3"/>
  <path fill="none" d="M160 187a9 9 0 01-2-6l1-4c2-4 8-7 16-7l6 1-1 1a26 26 0 00-5 0c-7 0-13 2-15 6a7 7 0 000 3 7 7 0 002 6l-2 4-2-1 2-3z"/>
  <path fill="#c8b100" d="M163 173a11 11 0 00-4 4 9 9 0 00-1 4l2 6-1 3a10 10 0 01-3-7c0-4 3-7 7-10"/>
  <path fill="none" d="M163 173a11 11 0 00-4 4 9 9 0 00-1 4l2 6-1 3a10 10 0 01-3-7c0-4 3-7 7-10z"/>
  <path fill="#c8b100" d="M206 164c2 0 3 2 4 3v6l1 8-5 5-5-5 1-8v-2l1-4c0-1 1-3 3-3"/>
  <path fill="none" d="M206 164c2 0 3 2 4 3v6l1 8-5 5-5-5 1-8v-2l1-4c0-1 1-3 3-3z"/>
  <path fill="#c8b100" d="M206 166l2 1v6l1 7-3 3-3-3 1-7v-1a28 28 0 010-5 2 2 0 012-1"/>
  <path fill="none" d="M206 166l2 1v6l1 7-3 3-3-3 1-7v-1a28 28 0 010-5 2 2 0 012-1z"/>
  <path fill="#c8b100" d="M230 184l-2 1-2-3a7 7 0 004-7 7 7 0 000-1c0-4-5-7-12-7a15 15 0 00-8 2 23 23 0 000-2 17 17 0 018-2c8 0 13 4 14 9a9 9 0 01-3 8l1 2"/>
  <path fill="none" d="M230 184l-2 1-2-3a7 7 0 004-7 7 7 0 000-1c0-4-5-7-12-7a15 15 0 00-8 2 23 23 0 000-2 17 17 0 018-2c8 0 13 4 14 9a9 9 0 01-3 8l1 2"/>
  <path fill="#c8b100" d="M230 184a9 9 0 004-7c0-4-2-7-6-8a9 9 0 014 6 9 9 0 01-3 7l1 2"/>
  <path fill="none" d="M230 184a9 9 0 004-7c0-4-2-7-6-8a9 9 0 014 6 9 9 0 01-3 7l1 2"/>
  <path fill="#c8b100" d="M252 187a9 9 0 002-6 9 9 0 00-1-4c-2-4-8-7-16-7a29 29 0 00-6 1l1 1a25 25 0 015 0c7 0 13 2 15 6v3a7 7 0 01-2 6l2 4 2-1-2-3"/>
  <path fill="none" d="M252 187a9 9 0 002-6 9 9 0 00-1-4c-2-4-8-7-16-7a29 29 0 00-6 1l1 1a25 25 0 015 0c7 0 13 2 15 6v3a7 7 0 01-2 6l2 4 2-1-2-3z"/>
  <path fill="#c8b100" d="M249 173a11 11 0 014 4 9 9 0 011 4 9 9 0 01-2 6l2 3a10 10 0 002-7c0-4-3-7-7-10"/>
  <path fill="none" d="M249 173a11 11 0 014 4 9 9 0 011 4 9 9 0 01-2 6l2 3a10 10 0 002-7c0-4-3-7-7-10z"/>
  <path fill="#fff" d="M204 181l2-1 2 1-2 2a2 2 0 01-2-2"/>
  <path fill="none" d="M204 181l2-1 2 1-2 2a2 2 0 01-2-2z"/>
  <path fill="#fff" d="M204 178l2-2 2 2-2 2a2 2 0 01-2-2m1-4l1-1 2 1-2 2-1-2m0-3l1-1 1 1-1 1a1 1 0 01-1-1m0-3l1-1 1 1-1 1a1 1 0 01-1-1"/>
  <path fill="#c8b100" d="M206 192h1a5 5 0 005 6 5 5 0 004-3l1-2v2c0 2 3 4 5 4a5 5 0 005-5l1-2 1 2a4 4 0 00-1 2 4 4 0 005 4l4-1 1-2v2c0 1 0 3 2 3l4-2 3-3v2l-4 4-4 1-3-3a7 7 0 01-3 1 7 7 0 01-6-3 7 7 0 01-11-1 7 7 0 01-4 2 7 7 0 01-6-3 7 7 0 01-6 3 7 7 0 01-4-2 7 7 0 01-11 1 7 7 0 01-6 3 7 7 0 01-3-1l-3 3-4-1-4-4v-2l4 3 4 2 2-3v-2l1 2a5 5 0 003 2c3 0 5-2 5-5a4 4 0 00-1-2l1-2 2 2c0 3 2 5 4 5 3 0 5-2 5-4v-2l1 2a5 5 0 004 3 5 5 0 005-6h1"/>
  <path fill="#fff" d="M239 198l-1-2-1 1v2l2-1m-21-4l-1-2-1 1 1 2 1-1m-24 0l1-2 1 1v2l-2-1m-20 4v-2l2 1-1 2-1-1"/>
  <path fill="#c8b100" d="M183 184a5 5 0 012 3v-1h1v4a7 7 0 01-1 1 2 2 0 00-1 0 2 2 0 00-1 1l-2-2-1-2v-1h2a5 5 0 011-3m0 10a2 2 0 01-1-1l1-1-2-1h-3v1a5 5 0 00-3 2 5 5 0 004 1v1h1l2-1 1-1m3-1a2 2 0 000-1 2 2 0 00-1-1l2-1a10 10 0 012-1h1a6 6 0 010 1 5 5 0 013 1 5 5 0 01-3 2 6 6 0 001 1h-1-2a11 11 0 01-2-1"/>
  <path fill="#ad1519" d="M182 192l2-2 2 2c0 2-1 2-2 2a2 2 0 01-2-2"/>
  <path fill="#c8b100" d="M206 181a6 6 0 012 4l1-1h1v1l-1 3a8 8 0 01-1 1 2 2 0 00-2 0h-2v-1l-1-3-1-1h1l1 1 2-4"/>
  <path fill="#c8b100" d="M205 192a2 2 0 01-1-1v-2l-1-1h-3l-1-1v1l1 1a6 6 0 00-4 2l4 1-1 1v1h1l3-1 2-1m3 0a2 2 0 000-3l1-1a8 8 0 013 0l1-1v2l3 2a6 6 0 01-3 1 7 7 0 000 2h-1l-2-1-2-1m22-8a5 5 0 00-3 3v-1h-1v4l1 1a2 2 0 011 0l2 1 1-2 1-2 1-1h-2a5 5 0 00-1-3m-1 10l1-1a2 2 0 000-1l1-1h4-1a6 6 0 010 1 5 5 0 013 2 5 5 0 01-4 1l1 1h-1l-2-1-2-1m-3-1a2 2 0 010-1l1-1-2-1-2-1a171 171 0 01-1 0l1 1a5 5 0 00-4 1l3 2v1h-1 4a11 11 0 001-1"/>
  <path fill="#ad1519" d="M226 192l2-2 2 2a2 2 0 01-2 2 2 2 0 01-2-2m23 5h-2v2h2v-2"/>
  <path fill="#c8b100" d="M246 198l1-1h2l3-3h3a3 3 0 00-3-3 3 3 0 00-2 1v-1l-2 2v4l-1-2a8 8 0 00-2-2h-2a5 5 0 000 1 8 8 0 00-3 1 5 5 0 002 2h-1a4 4 0 000 1h4a15 15 0 001 0m-80 0l-1-1h-2l-2-3h-4a3 3 0 013-3l3 1v-1l2 2v2a8 8 0 013-2h1v1a8 8 0 014 1 5 5 0 01-3 2h1l1 1h-4a15 15 0 01-2 0"/>
  <path fill="#ad1519" d="M163 197h2l1 2h-2l-1-2m41-6l2-2 2 2-2 2a2 2 0 01-2-2"/>
  <path fill="#005bbf" d="M202 161c0-3 2-4 4-4s4 1 4 4-2 4-4 4a4 4 0 01-4-4"/>
  <path fill="#c8b100" d="M205 149v3h-2v2h2v6h-3v2h8v-2h-3v-6h3v-3h-3v-2h-2z"/>
  <path fill="#ccc" d="M207 331a82 82 0 01-36-9 23 23 0 01-13-20v-32h97v32a23 23 0 01-13 20 81 81 0 01-36 9"/>
  <path fill="none" stroke="#000" d="M207 331a82 82 0 01-36-9 23 23 0 01-13-20v-32h97v32a23 23 0 01-13 20 81 81 0 01-36 9z"/>
  <path fill="#ccc" d="M206 270h49v-53h-49v53z"/>
  <path fill="none" stroke="#000" d="M206 270h49v-53h-49v53z"/>
  <path fill="#ad1519" d="M206 302c0 13-10 23-24 23s-24-10-24-23v-32h48v32"/>
  <path fill="#c8b100" stroke="#000" d="M169 321l5 2v-54h-5v52z"/>
  <path fill="#c8b100" stroke="#000" stroke-linejoin="round" d="M158 302a24 24 0 006 15v-48h-6v33z"/>
  <path fill="#c7b500" stroke="#000" d="M179 325a27 27 0 006 0v-56h-6v56z"/>
  <path fill="#c8b100" stroke="#000" d="M190 324a19 19 0 006-3v-52h-6v55z"/>
  <path fill="#ad1519" d="M158 270h48v-53h-48v53z"/>
  <path fill="none" stroke="#000" d="M158 270h48v-53h-48v53z"/>
  <path fill="#c8b100" stroke="#000" d="M201 316c2-2 5-7 5-12l1-35h-6v47z"/>
  <path fill="none" stroke="#000" d="M206 302c0 13-10 23-24 23s-24-10-24-23v-32h48v32"/>
  <path fill="#ad1519" d="M255 270v32c0 13-11 23-25 23s-24-10-24-23v-32h49"/>
  <path fill="none" stroke="#000" d="M255 270v32c0 13-11 23-25 23s-24-10-24-23v-32h49"/>
  <path fill="#c8b100" d="M215 294v1l-1 1a1 1 0 01-1-1v-1h-1a3 3 0 001 3v4h2v-4a3 3 0 002-2h4v-1h-6m22 0v1h-4a3 3 0 010 1l4 5-1 1-5-5v9h-1v-9h-1l-4 5-2-1 5-5a2 2 0 010-1h-4v-1h13zm2 0v1h5l2 2v4h1v-4a3 3 0 002-2 2 2 0 000-1h-2v1l-1 1-1-1a1 1 0 010-1h-6m-6 22a16 16 0 003-1l1 2a18 18 0 01-4 1 3 3 0 01-3 2 3 3 0 01-2-2 18 18 0 01-5-1l1-2 4 1a3 3 0 012-1v-7h1v7l2 1zm-11-2l-1 1a17 17 0 01-4-3h-2a2 2 0 010-4 15 15 0 01-2-5h2a13 13 0 001 4l1 1 4-5 2 1-4 5v2a15 15 0 003 3zm-6-5h1v2a1 1 0 01-1 0 1 1 0 010-2zm-2-4l-2-1v-4h1v2l1 3zm1-6l2 1v4l-2 1a14 14 0 010-3v-3zm6 14a16 16 0 004 3l1-2a14 14 0 01-4-2l-1 1m-1 2a17 17 0 005 2l-2 1a19 19 0 01-4-2l1-1m2-10l2 1 3-3-1-2-4 4m-1-1l-1-1 3-4 1 1-3 4m18 10l1 1a17 17 0 003-3h3a2 2 0 000-4 15 15 0 001-5h-2a13 13 0 01-1 4 3 3 0 00-1 1l-4-5-1 1 4 5a2 2 0 000 2 15 15 0 01-3 3zm6-5a1 1 0 00-2 0 1 1 0 000 2 1 1 0 002 0 1 1 0 000-2zm2-4l2-1v-4h-2v5zm-1-6l-2 1v4l1 1 1-3v-3m-6 14a16 16 0 01-5 3v-2a14 14 0 004-2l1 1m1 2a17 17 0 01-5 2l1 1a19 19 0 004-2v-1m-3-10l-1 1-3-3 1-2 4 4m1-1l1-1-3-4-2 1 4 4m-20-9v2h5v-2h-5m21 0l-1 2h-4l-1-2h6m-12 22l1-1a1 1 0 011 1l-1 1a1 1 0 01-1-1zm2-7l2-1v-4l-2-1v6m-1 0l-2-1v-4l2-1v6M212 294l1-2v-5h2v5l2 2h4-6a1 1 0 00-1 0h-2m12 0h4l-5-6 1-1 5 6v-8h2v7l5-5 1 1-5 5 1 1h4-13zm21 0a1 1 0 011 0h3l-2-2v-5h-2v5l-1 2h-5 6m-30-15l6 7 1-1-6-7h5v-2h-4a3 3 0 00-3-2 3 3 0 00-2 3 3 3 0 001 2v5h2v-5zm32 0v6h-2v-6l-6 7-1-1 6-7h-5v-2h5a3 3 0 012-2 3 3 0 013 3 3 3 0 01-2 2zm-16 0v4h-2v-4a3 3 0 01-1-1h-4v-2h4a3 3 0 012-2l3 2h4v2h-4a3 3 0 01-2 1zm-18 4l-1 1v4h1v-5m2 0l2 1v4h-2v-5m30 0l-1 1v4h1v-5m2 0l2 1v4h-2v-5m-25 1l1-1 3 4-1 1-3-4m-2 1l-1 1 3 4 2-1-4-4m19-1l-2-1-3 4 1 1 4-4m1 1l1 1-3 4-2-1 4-4m-20 9v-2h5v2h-5m-7-17l1-1a1 1 0 011 1l-1 1a1 1 0 01-1-1zm12 1v1h-5v-1h5m0-2v-1h-5v1h5m16 18l-1-2h-4l-1 2h6m4-17l1-1a1 1 0 011 1l-1 1a1 1 0 01-1-1zm-16 0l1-1a1 1 0 011 1l-1 1a1 1 0 01-1-1zm6 1l1 1h4l1-1h-6m0-2l1-1h4l1 1h-6m-6 5l-1 1v4h1v-5m2 0l2 1v4h-2v-5"/>
  <path fill="none" d="M233 316a16 16 0 003-1l1 2a18 18 0 01-4 1 3 3 0 01-3 2 3 3 0 01-2-2 18 18 0 01-5-1l1-2 4 1a3 3 0 012-1v-7h1v7l2 1zm-5-20a2 2 0 010-1h-4v-1h4l-5-6 1-1 5 6v-8h2v7l5-5 1 1-5 5 1 1h4v1h-4l-1 1 5 5-1 1-5-5v9h-2v-9l-5 5-1-1 5-5m-13-17l6 7 1-1-6-7h5v-2h-4a3 3 0 00-3-2 3 3 0 00-2 3 3 3 0 001 2v5h2v-5zm7 35l-1 1a17 17 0 01-4-3h-2a2 2 0 01-1-4h1a15 15 0 01-2-5h2a13 13 0 001 4l1 1 4-5 2 1-4 5v2a15 15 0 003 3zm-9-13v-4a3 3 0 01-2-2l2-3v-5h2v5l2 2h4v1h-4a3 3 0 01-2 2v4h-2m3 8h1v2a1 1 0 01-1 0 1 1 0 010-2zm-2-4l-2-1v-4h1v2l1 3zm1-6l2 1v4l-2 1v-6zm5 14a16 16 0 005 3l1-2a14 14 0 01-4-2l-2 1m0 2a17 17 0 004 2l-1 1a19 19 0 01-4-2l1-1"/>
  <path fill="none" d="M222 305l2 1 3-3-1-2-4 4m-1-1l-1-1 3-4 1 1-3 4m-8-9l1-1 1 1-1 1a1 1 0 01-1-1zm26 19v1a17 17 0 004-3h3a2 2 0 000-4 15 15 0 001-5h-2a13 13 0 01-1 4 3 3 0 00-1 1l-4-5-1 1 4 5a2 2 0 000 2 15 15 0 01-3 3zm8-13v-4a3 3 0 002-2l-2-3v-5h-2v5l-1 2h-5v1h5l2 2v4h1zm-2 8a1 1 0 00-2 0 1 1 0 000 2 1 1 0 002 0 1 1 0 000-2zm2-4l1-1 1-4-2-1v6zm-2-6l-1 1v2l-1 2 2 1v-6m2-20v5h-2v-5l-6 7-1-1 6-7h-5v-2h5a3 3 0 012-2 3 3 0 013 3 3 3 0 01-2 2zm-16 0v3h-2v-3a3 3 0 01-1-1h-4v-2h4l2-2 3 2h4v2h-4a3 3 0 01-2 1zm9 34a16 16 0 01-5 3v-2a14 14 0 004-2l1 1m1 1a17 17 0 01-5 3l1 1a19 19 0 004-2v-2m-28-31l-1 1v4h1v-5m2 0l2 1v4h-2v-5m30 0l-1 1v4h1v-5"/>
  <path fill="none" d="M247 283l2 1v4h-2v-5m-9 22l-1 1-3-4 1-1 4 4m1-1l1-1-3-4-2 1 4 4m-18-20l1-1 3 4-1 1-3-4m-2 1l-1 1 3 4 2-1-4-4m19-1l-2-1-3 3 1 2 4-4m1 1l1 1-3 3h-1l3-4m-20 9v-2h5v2h-5m0 1v2h5v-2h-5m-7-18l1-1 1 1-1 1a1 1 0 01-1-1zm12 1v1h-5v-1h5m0-2v-1h-5v1h5m20 19l1-1 1 1-1 1a1 1 0 01-1-1zm-4-1l-1-2h-4l-1 2h6m0 2l-1 1h-4l-1-1h6m-12 21l1-1 1 1-1 1a1 1 0 01-1-1zm2-7l2-1v-4l-2-1v6m-2 0l-1-1v-4l2-1v6m15-33l1-1a1 1 0 011 1l-1 1a1 1 0 01-1-1zm-16 0l1-1a1 1 0 011 1l-1 1a1 1 0 01-1-1zm6 1l1 1h4l1-1h-6m0-2l1-1h4l1 1h-6m-6 5l-1 1v4h1v-5m2 0l2 1v4h-2v-5"/>
  <path fill="#058e6e" d="M228 295a3 3 0 012-3 3 3 0 013 3 3 3 0 01-3 2l-2-2"/>
  <path fill="#db4446" d="M231 230v-1h-2a6 6 0 01-3-2l-1-1-3 1 2 1 2 1 3 1h2"/>
  <path fill="none" d="M231 230v-1h-2a6 6 0 01-3-2l-1-1-3 1 2 1 2 1 3 1h2z"/>
  <path fill="#ed72aa" d="M238 228v3l1 1h-1l-1-1v1l1 1 1 2v1l-1-1h-1l1 1-1 2v-1l-1-1v4l-1-1-1-1 1 1 1 5c1 1 3 4 6 3s2-5 1-7a17 17 0 01-1-4l1-4a8 8 0 010-3l1-2v-3l1 2v1l1-2 2-1v2l-2 2h2l-1 1-1 3-2 1v5l2 5c0 1 0 3-2 5l-3 1c-1 0-2 1-2 3l2 2 1 1 1 1-2 2v5h-2v-1h-1v1l-1-1h-1l1-1s1 0 0 0l-1-1v-1h2l1-1-1-1-1-1v-1 2h-1v-2 2h-1a4 4 0 01-1-1v-2a4 4 0 010-1v-1h-3v3l1 2a3 3 0 01-1 1h-1a3 3 0 00-1-1h-2l-1 1h-2v-1h-1l-1-1v-1h2v-1l-1-1h1l1-1v2h4l-1-1v-1 1-2a8 8 0 00-1 0v2l-1-2 1-2 2-2h4l-3-2a10 10 0 01-2-2l-1-1h-1a5 5 0 00-1 1l-1 1v-2l-1 2-1 1v-2l-1 1h-2v2h-2v-1-1 1l-1-1v-1h1l-1-1v-1l1-1 1 1a4 4 0 002 0l2-1 1-1-1-1-1-1a8 8 0 00-2 0 9 9 0 01-1-1l1-1h1-2-2l1-1h1l-1-1-1-1h-1l-1-1v-1h2l-1-1h-1l1-1 1-1 1 2v-1-1h2v1l-1 2 2 1 1 1 2 1 1 1h1l3-1 1-1-1-1h1l2-1-1-2-2-1v-1l1-1h2l1-1h1l3 1a15 15 0 012 3"/>
  <path d="M228 227v-1h1l-1 1"/>
  <path fill="none" d="M228 227v-1h1l-1 1z"/>
  <path d="M232 225h1l1 1h-2"/>
  <path fill="none" d="M232 225h1l1 1h-2zM237 231a8 8 0 010-1"/>
  <path fill="#db4446" d="M217 227h2v-1l-1-1v1a2 2 0 01-1 1"/>
  <path fill="none" d="M217 227h2v-1l-1-1v1a2 2 0 01-1 1z"/>
  <path fill="#db4446" d="M215 228l-1-1-2 1h2v1l1-1"/>
  <path fill="none" d="M215 228l-1-1-2 1h2v1l1-1z"/>
  <path fill="#db4446" d="M214 231h-1v1h2l-1-1"/>
  <path fill="none" d="M214 231h-1v1h2l-1-1z"/>
  <path d="M228 231v-1l1 1h-1"/>
  <path fill="none" d="M228 231v-1l1 1h-1"/>
  <path d="M229 231v-1l1 1h-1"/>
  <path fill="none" d="M229 231v-1l1 1h-1"/>
  <path d="M229 227v1-1"/>
  <path fill="none" d="M229 227v1-1"/>
  <path d="M230 228h-1"/>
  <path fill="none" d="M230 228h-1M224 234h-1v1h4l-1 1v3h1a5 5 0 001-1l1-1v1l1 2v-1h1l1-1v1l1 1v-1l1-1a4 4 0 000-1v1m-11 1l1-1 1-1h1m1 5l1-1a4 4 0 002-1"/>
  <path fill="#db4446" d="M217 240h-2l-1 1h2l1-1"/>
  <path fill="none" d="M217 240h-2l-1 1h2l1-1z"/>
  <path fill="#db4446" d="M216 243h-1l-1 2 1-1 1 1v-1-1"/>
  <path fill="none" d="M216 243h-1l-1 2 1-1 1 1v-1-1z"/>
  <path fill="#db4446" d="M217 246v1l2 1-1-1 1-1h-2"/>
  <path fill="none" d="M217 246v1l2 1-1-1 1-1h-2zm16 1l2 2-1 3"/>
  <path fill="#db4446" d="M224 253l-1-1-1 1h2"/>
  <path fill="none" d="M224 253l-1-1-1 1h2z"/>
  <path fill="#db4446" d="M222 255l-1 1-1 1 1-1 1 1v-2"/>
  <path fill="none" d="M222 255l-1 1-1 1 1-1 1 1v-2z"/>
  <path fill="#db4446" d="M224 258v1l1 1v-1l1-1h-2"/>
  <path fill="none" d="M224 258v1l1 1v-1l1-1h-2z"/>
  <path fill="#db4446" d="M236 259h-1l-1 2 1-1h1v-1"/>
  <path fill="none" d="M236 259h-1l-1 2 1-1h1v-1z"/>
  <path fill="#db4446" d="M236 262v1l1 1v-1h1-1a16 16 0 01-1-1"/>
  <path fill="none" d="M236 262v1l1 1v-1h1-1a16 16 0 01-1-1z"/>
  <path fill="#db4446" d="M239 263l1 1 1 1-1-1 1-1h-2"/>
  <path fill="none" d="M239 263l1 1 1 1-1-1 1-1h-2z"/>
  <path fill="#ffd691" stroke="#000" d="M209 316c2 1 3 2 3 4s-2 4-5 4-5-2-5-4 1-3 3-4h-1v-1h1l1 1v-1h1l1 1v-1h1v1h0"/>
  <path fill="#058e6e" stroke="#000" d="M206 327l-5-3h-6l2 1 3 2h6m1 0l5-3 7 1h-2l-4 2h-6"/>
  <path fill="#ad1519" stroke="#000" d="M207 324a5 5 0 010-7 5 5 0 011 3 5 5 0 01-1 4"/>
  <path fill="#058e6e" stroke="#000" d="M206 329v-5h1v5h0-1"/>
  <path fill="#fff" d="M254 191l1-1 1 1-1 1a1 1 0 01-1-1"/>
  <path fill="none" d="M254 191l1-1 1 1-1 1a1 1 0 01-1-1z"/>
  <path fill="#fff" d="M255 188l2-1 1 1-1 1a1 1 0 01-1-1"/>
  <path fill="none" d="M255 188l2-1 1 1-1 1a1 1 0 01-1-1z"/>
  <path fill="#fff" d="M256 185l1-1 1 1v1a1 1 0 01-2-1"/>
  <path fill="none" d="M256 185l1-1 1 1v1a1 1 0 01-2-1z"/>
  <path fill="#fff" d="M257 182l1-1 1 1-1 1a1 1 0 01-1-1"/>
  <path fill="none" d="M257 182l1-1 1 1-1 1a1 1 0 01-1-1z"/>
  <path fill="#fff" d="M256 179l1-1 1 1-1 1a1 1 0 01-1-1"/>
  <path fill="none" d="M256 179l1-1 1 1-1 1a1 1 0 01-1-1z"/>
  <path fill="#fff" d="M254 176l1-1 1 1-1 1a1 1 0 01-1-1"/>
  <path fill="none" d="M254 176l1-1 1 1-1 1a1 1 0 01-1-1z"/>
  <path fill="#fff" d="M252 174l1-1 1 1-1 1a1 1 0 01-1-1"/>
  <path fill="none" d="M252 174l1-1 1 1-1 1a1 1 0 01-1-1z"/>
  <path fill="#fff" d="M249 172l2-1a1 1 0 010 2l-1-1"/>
  <path fill="none" d="M249 172l2-1a1 1 0 010 2l-1-1z"/>
  <path fill="#fff" d="M247 170l1-1 1 1-1 1a1 1 0 01-1-1"/>
  <path fill="none" d="M247 170l1-1 1 1-1 1a1 1 0 01-1-1z"/>
  <path fill="#fff" d="M243 169l1-1a1 1 0 010 2 1 1 0 01-1-1"/>
  <path fill="none" d="M243 169l1-1a1 1 0 010 2 1 1 0 01-1-1z"/>
  <path fill="#fff" d="M240 169l1-1 1 1-1 1a1 1 0 01-1-1"/>
  <path fill="none" d="M240 169l1-1 1 1-1 1a1 1 0 01-1-1z"/>
  <path fill="#fff" d="M237 168l1-1 1 1-1 1a1 1 0 01-1-1"/>
  <path fill="none" d="M237 168l1-1 1 1-1 1a1 1 0 01-1-1z"/>
  <path fill="#fff" d="M233 169l1-1 1 1-1 1a1 1 0 01-1-1"/>
  <path fill="none" d="M233 169l1-1 1 1-1 1a1 1 0 01-1-1z"/>
  <path fill="#fff" d="M230 169l1-1 1 1-1 1a1 1 0 01-1-1"/>
  <path fill="none" d="M230 169l1-1 1 1-1 1a1 1 0 01-1-1z"/>
  <path fill="#fff" d="M232 171l1-1 1 1-1 1a1 1 0 01-1-1m0 3l1-1 1 1-1 1a1 1 0 01-1-1m0 3l1-1a1 1 0 010 2 1 1 0 01-1-1m-1 3l1-1 2 1-1 1a1 1 0 01-1-1m-2 3l1-1 1 1-1 1-1-1M228 167l1-1a1 1 0 010 2 1 1 0 01-1-1"/>
  <path fill="none" d="M228 167l1-1a1 1 0 010 2 1 1 0 01-1-1z"/>
  <path fill="#fff" d="M225 165l1-1 1 1-1 1a1 1 0 01-1-1"/>
  <path fill="none" d="M225 165l1-1 1 1-1 1a1 1 0 01-1-1z"/>
  <path fill="#fff" d="M222 164l1-1 1 1-1 1-1-1"/>
  <path fill="none" d="M222 164l1-1 1 1-1 1-1-1z"/>
  <path fill="#fff" d="M218 163l1-1 1 1-1 1a1 1 0 01-1-1"/>
  <path fill="none" d="M218 163l1-1 1 1-1 1a1 1 0 01-1-1z"/>
  <path fill="#fff" d="M215 164l1-1 1 1-1 1a1 1 0 01-1-1"/>
  <path fill="none" d="M215 164l1-1 1 1-1 1a1 1 0 01-1-1z"/>
  <path fill="#fff" d="M212 164l1-1 1 1-1 1a1 1 0 01-1-1"/>
  <path fill="none" d="M212 164l1-1 1 1-1 1a1 1 0 01-1-1z"/>
  <path fill="#fff" d="M209 165l1-1 1 1-1 1a1 1 0 01-1-1"/>
  <path fill="none" d="M209 165l1-1 1 1-1 1a1 1 0 01-1-1z"/>
  <path fill="#fff" d="M156 191l1-1 1 1-1 1a1 1 0 01-1-1"/>
  <path fill="none" d="M156 191l1-1 1 1-1 1a1 1 0 01-1-1z"/>
  <path fill="#fff" d="M155 188l1-1 1 1-1 1a1 1 0 01-1-1"/>
  <path fill="none" d="M155 188l1-1 1 1-1 1a1 1 0 01-1-1z"/>
  <path fill="#fff" d="M154 185l1-1 1 1-1 1a1 1 0 01-1-1"/>
  <path fill="none" d="M154 185l1-1 1 1-1 1a1 1 0 01-1-1z"/>
  <path fill="#fff" d="M153 182l1-1 2 1-1 1a1 1 0 01-1-1"/>
  <path fill="none" d="M153 182l1-1 2 1-1 1a1 1 0 01-1-1z"/>
  <path fill="#fff" d="M154 179l1-1 1 1-1 1a1 1 0 01-1-1"/>
  <path fill="none" d="M154 179l1-1 1 1-1 1a1 1 0 01-1-1z"/>
  <path fill="#fff" d="M156 176l1-1 1 1-1 1a1 1 0 01-1-1"/>
  <path fill="none" d="M156 176l1-1 1 1-1 1a1 1 0 01-1-1z"/>
  <path fill="#fff" d="M158 174l1-1 1 1-1 1a1 1 0 01-1-1"/>
  <path fill="none" d="M158 174l1-1 1 1-1 1a1 1 0 01-1-1z"/>
  <path fill="#fff" d="M161 172l1-1 1 1-1 1a1 1 0 01-1-1"/>
  <path fill="none" d="M161 172l1-1 1 1-1 1a1 1 0 01-1-1z"/>
  <path fill="#fff" d="M164 170l1-1 1 1-1 1a1 1 0 01-1-1"/>
  <path fill="none" d="M164 170l1-1 1 1-1 1a1 1 0 01-1-1z"/>
  <path fill="#fff" d="M167 169l1-1a1 1 0 010 2 1 1 0 01-1-1"/>
  <path fill="none" d="M167 169l1-1a1 1 0 010 2 1 1 0 01-1-1z"/>
  <path fill="#fff" d="M170 169l1-1a1 1 0 010 2l-1-1"/>
  <path fill="none" d="M170 169l1-1a1 1 0 010 2l-1-1z"/>
  <path fill="#fff" d="M173 168l1-1 1 1-1 1a1 1 0 01-1-1"/>
  <path fill="none" d="M173 168l1-1 1 1-1 1a1 1 0 01-1-1z"/>
  <path fill="#fff" d="M177 169l1-1 1 1-1 1a1 1 0 01-1-1"/>
  <path fill="none" d="M177 169l1-1 1 1-1 1a1 1 0 01-1-1z"/>
  <path fill="#fff" d="M180 169l1-1 1 1-1 1a1 1 0 01-1-1"/>
  <path fill="none" d="M180 169l1-1 1 1-1 1a1 1 0 01-1-1z"/>
  <path fill="#fff" d="M178 171l1-1 1 1-1 1a1 1 0 01-1-1m0 3l1-1 1 1-1 1a1 1 0 01-1-1m-1 3l1-1 2 1-1 1a1 1 0 01-1-1m0 3l1-1 2 1-1 1a1 1 0 01-2-1m2 3l1-1a1 1 0 010 2 1 1 0 01-1-1M182 167l1-1a1 1 0 010 2 1 1 0 01-1-1"/>
  <path fill="none" d="M182 167l1-1a1 1 0 010 2 1 1 0 01-1-1z"/>
  <path fill="#fff" d="M185 165l1-1 1 1-1 1a1 1 0 01-1-1"/>
  <path fill="none" d="M185 165l1-1 1 1-1 1a1 1 0 01-1-1z"/>
  <path fill="#fff" d="M188 164l1-1 1 1-1 1-1-1"/>
  <path fill="none" d="M188 164l1-1 1 1-1 1-1-1z"/>
  <path fill="#fff" d="M192 163l1-1 1 1-1 1a1 1 0 01-1-1"/>
  <path fill="none" d="M192 163l1-1 1 1-1 1a1 1 0 01-1-1z"/>
  <path fill="#fff" d="M195 164l1-1 1 1-1 1a1 1 0 01-1-1"/>
  <path fill="none" d="M195 164l1-1 1 1-1 1a1 1 0 01-1-1z"/>
  <path fill="#fff" d="M198 164l1-1 1 1-1 1a1 1 0 01-1-1"/>
  <path fill="none" d="M198 164l1-1 1 1-1 1a1 1 0 01-1-1z"/>
  <path fill="#fff" d="M201 165l1-1 1 1-1 1a1 1 0 01-1-1"/>
  <path fill="none" d="M201 165l1-1 1 1-1 1a1 1 0 01-1-1z"/>
  <path fill="#c8b100" d="M175 229h-1v-1h-2v4h2v2h-4v7h2v14h-3v8h27v-8h-4v-14h2v-7h-3v-2h1v-4h-1v1h-1v-1h-2v1h-1v-1h-1v4h1v2h-3v-8h2v-3h-2v1h-1v-1h-1v1h-1v-1h-2v3h2v8h-4v-2h2v-4h-2v1h-1v-1h-1v1zm-6 34h27m-27-2h27m-27-2h27m-27-2h27m-27-2h27m-24-1h20m-20-2h20m-20-2h20m-20-2h20m-20-2h20m-20-1h20m-20-2h20m-22-2h24m-24-2h24m-24-2h24m-24-1h24m-20-2h17m-10-2h3m-3-2h3m-3-1h3m-3-2h3m-5-2h7m-12 7h3m-5-2h7m-7 33v-2m0-2v-2m-2 2v2m4 0v-2m2 4v-2m0-2v-2m0-2v-1m0-2v-2m-2 7v-2m-4 2v-2m7 0v2m2-2v-1m-5-2v2m3-2v2m4-2v2m-2-2v-2m2-2v2m0-5v1m-2-3v2m2-4v2m-4-2v2m-3-2v2m-2-4v2m4-2v2m3-2v2m2-3v1m-4-1v1m-3-1v1m-2-3v2m7-2v2m-3-6v2m15-2h-4m5-2h-6m6 33v-2m0-2v-2m2 2v2m-3 0v-2m-2 4v-2m0-2v-2m0-2v-1m0-2v-2m2 7v-2m3 2v-2m-7 0v2m-1-2v-1m5-2v2m-4-2v2m-3-2v2m2-2v-2m-2-2v2m0-5v1m2-3v2m-2-4v2m3-2v2m4-2v2m1-4v2m-3-2v2m-3-2v2m-2-3v1m3-1v1m4-1v1m1-3v2m-6-2v2m3-6v2m-7 18v-2m0-5v-2m0 5v-2m0-5v-2m0-1v-2m0-4v-2m0-1v-2m-8 5h3m4-6h3m3 5h4"/>
  <path fill="#c8b100" d="M187 263v-5c0-1-1-4-5-4s-4 3-4 4v5h9z"/>
  <path fill="#c8b100" d="M179 258h-2l1-3 2 2-1 1zm6 0h3l-1-3-2 2v1zm-2-2l1-2a5 5 0 00-2-1l-2 1 2 2h1zm-4-6v-5c0-1-1-2-3-2s-2 1-2 2v5h5zm7 0v-5l2-2 3 2v5h-5zm-2-12v-4h-4v4h4zm3 0v-4h4v4h-4zm-10 0l1-4h-5l1 4h3z"/>
  <path fill="#0039f0" d="M185 263v-4c0-1 0-3-3-3-2 0-3 2-3 3v4h6zm-7-13v-4c0-1 0-2-2-2s-2 1-2 2v4h4zm8 0v-4l2-2 2 2v4h-4z"/>
  <path fill="#ad1519" d="M191 270c0-10 7-18 15-18s16 8 16 18-7 17-16 17-15-7-15-17"/>
  <path fill="none" stroke="#000" d="M191 270c0-10 7-18 15-18s16 8 16 18-7 17-16 17-15-7-15-17z"/>
  <path fill="#005bbf" d="M195 270c0-7 5-13 11-13s11 6 11 13-5 13-11 13-11-6-11-13"/>
  <path fill="none" stroke="#000" d="M195 270c0-7 5-13 11-13s11 6 11 13-5 13-11 13-11-6-11-13z"/>
  <path fill="#c8b100" d="M201 261l-1 3a6 6 0 000 2l-1-1-1 1v2h1l1 1h-1v1h1l-1 1h1l1 1 1-1h1l-1-1h1v-1h-1a1 1 0 011-1h1l1-1v-1a1 1 0 00-2-1l-1 1 1-2-2-3"/>
  <path fill="none" d="M201 261l-1 3a6 6 0 000 2l-1-1-1 1v2h1l1 1h-1v1h1l-1 1h1l1 1 1-1h1l-1-1h1v-1h-1a1 1 0 011-1h1l1-1v-1a1 1 0 00-2-1l-1 1 1-2-2-3z"/>
  <path fill="#c8b100" d="M199 270h4v-1h-4v1z"/>
  <path fill="none" d="M199 270h4v-1h-4v1z"/>
  <path fill="#c8b100" d="M211 261l-1 3 1 2-2-1-1 1v1l1 1h1a1 1 0 011 1h-2v1h1v1h1v1l1-1h1l-1-1h2v-1h-2a1 1 0 011-1h1l1-1v-1a1 1 0 00-1-1l-2 1 1-2-2-3"/>
  <path fill="none" d="M211 261l-1 3 1 2-2-1-1 1v1l1 1h1a1 1 0 011 1h-2v1h1v1h1v1l1-1h1l-1-1h2v-1h-2a1 1 0 011-1h1l1-1v-1a1 1 0 00-1-1l-2 1 1-2-2-3z"/>
  <path fill="#c8b100" d="M209 270h5v-1h-5v1z"/>
  <path fill="none" d="M209 270h5v-1h-5v1z"/>
  <path fill="#c8b100" d="M206 270l-1 2 1 3-2-1-1 1v2l1-1a1 1 0 011 1 1 1 0 010 1h-1v1h1l-1 1h1l1 1 1-1h1l-1-1h1v-1h-1a1 1 0 010-1 1 1 0 011-1l1 1 1-1v-1a1 1 0 00-1-1l-2 1 1-3c0-2-2-2-2-2"/>
  <path fill="none" d="M206 270l-1 2 1 3-2-1-1 1v2l1-1a1 1 0 011 1 1 1 0 010 1h-1v1h1l-1 1h1l1 1 1-1h1l-1-1h1v-1h-1a1 1 0 010-1 1 1 0 011-1l1 1 1-1v-1a1 1 0 00-1-1l-2 1 1-3c0-2-2-2-2-2z"/>
  <path fill="#c8b100" d="M204 279h4v-1h-4v1z"/>
  <path fill="none" d="M204 279h4v-1h-4v1z"/>
  <path fill="#c8b100" d="M238 223h-1a2 2 0 010 1h-1a1 1 0 010-1h-1v-1l-1 1a1 1 0 010-1l-1-1v3a9 9 0 013 1 9 9 0 012 3l1-1h2l-2-1v-1h-1a1 1 0 01-1 0v-1h1v-1"/>
  <path fill="none" d="M238 223h-1a2 2 0 010 1h-1a1 1 0 010-1h-1v-1l-1 1a1 1 0 010-1l-1-1v3a9 9 0 013 1 9 9 0 012 3l1-1h2l-2-1v-1h-1a1 1 0 01-1 0v-1h1v-1z"/>
  <path d="M235 224h1-1 1"/>
  <path fill="none" d="M235 224h1-1 1z"/>
  <path d="M236 225v-1 1h1-1"/>
  <path fill="none" d="M236 225v-1 1h1-1"/>
  <path d="M235 224l-1-1 1 1"/>
  <path fill="none" d="M235 224l-1-1 1 1"/>
  <path d="M234 223"/>
  <path fill="none" d="M234 223z"/>
  <path d="M237 226v-1 1"/>
  <path fill="none" d="M237 226v-1 1z"/>
  <path d="M238 226"/>
  <path fill="none" d="M238 226"/>
  <path d="M239 227"/>
  <path fill="none" d="M239 227z"/>
  <path fill="#c8b100" d="M236 221l-1 1h1v-1"/>
  <path fill="none" d="M236 221l-1 1h1v-1"/>
  <path fill="#c8b100" d="M235 222h1l-1-1v1"/>
  <path fill="none" d="M235 222h1l-1-1v1"/>
  <path fill="#c8b100" d="M236 223l-1-1h2v1"/>
  <path fill="none" d="M236 223l-1-1h2v1"/>
  <path fill="#c8b100" d="M235 222h0"/>
  <path fill="none" d="M235 222h0z"/>
  <path fill="#c8b100" d="M233 221v-1 1"/>
  <path fill="none" d="M233 221v-1 1z"/>
  <path fill="#c8b100" d="M234 221v1l-1-1h1"/>
  <path fill="none" d="M234 221v1l-1-1h1"/>
  <path fill="#c8b100" d="M233 221"/>
  <path fill="none" d="M233 221z"/>
  <path fill="#c8b100" d="M238 223v-1"/>
  <path fill="none" d="M238 223v-1"/>
  <path fill="#c8b100" d="M237 223v1h1v-1h-1"/>
  <path fill="none" d="M237 223v1h1v-1h-1"/>
  <path fill="#c8b100" d="M238 224v-1 1"/>
  <path fill="none" d="M238 224v-1 1"/>
  <path fill="#c8b100" d="M237 223h1v1h-1v-1"/>
  <path fill="none" d="M237 223h1v1h-1v-1z"/>
  <path fill="#c8b100" d="M240 224v1h-1l1-1"/>
  <path fill="none" d="M240 224v1h-1l1-1"/>
  <path fill="#c8b100" d="M240 226l-1-1h1v1"/>
  <path fill="none" d="M240 226l-1-1h1v1"/>
  <path fill="#c8b100" d="M239 224l-1 1h1v-1"/>
  <path fill="none" d="M239 224l-1 1h1v-1"/>
  <path fill="#c8b100" d="M240 225h-1"/>
  <path fill="none" d="M240 225h-1z"/>
  <path fill="#c8b100" d="M241 227h0"/>
  <path fill="none" d="M241 227h0z"/>
  <path fill="#c8b100" d="M240 226v1h1v-1h-1"/>
  <path fill="none" d="M240 226v1h1v-1h-1"/>
  <path fill="#c8b100" d="M241 227c-1 0-1 0 0 0"/>
  <path fill="none" d="M241 227c-1 0-1 0 0 0zm38-22v1h-2v-1h1v-1h-1v-1h2v1h-1v1h1M134 217v-1m0 1v-1m0 1v-1m0 1v-1M133 217v-1m0 1v-1m0 1v-1m-1 1v-1m0 1v-1m-1 1v-1m1 1v-1m0 1v-1m-1 1v-1m0 1v-1m0 1v-1m-1 1v-1m1 1v-1m-1 1v-1m0 1v-1m0 1v-1m-1 1v-1M129 217v-1M136 217v-1m-1 1v-1m0 1v-1m143 1v-1m-1 1v-1m0 1v-1m0 1v-1M277 217v-1m-1 1v-1m0 1v-1m0 1v-1m0 1v-1m-1 1v-1m0 1v-1m0 1v-1m0 1v-1m-1 1v-1m0 1v-1m0 1v-1m0 1v-1m0 1v-1m-1 1v-1m0 1v-1m0 1v-1M273 217v-1M279 217v-1m0 1v-1m-1 1v-1"/>
</svg>
