<svg xmlns="http://www.w3.org/2000/svg" id="flag-icons-fj" viewBox="0 0 640 480">
  <path fill="#68bfe5" d="M0 0v480h640V0H0z"/>
  <g stroke-miterlimit="5">
    <path fill="#fff" d="M421 193v137c0 44 80 71 80 71s81-27 81-71V193z"/>
    <path fill="#d21034" d="M490 241v62h-69v22h69v71l11 5 12-5v-71h69v-22h-69v-62z"/>
    <path fill="#d21034" d="M421 193h161v53H421z"/>
    <g stroke-miterlimit="3">
      <g fill="#fff" stroke="#000" transform="translate(-97 98) scale(.66486)">
        <ellipse cx="798" cy="192" rx="14" ry="11"/>
        <ellipse cx="798" cy="187" rx="12" ry="6"/>
        <ellipse cx="798" cy="199" rx="12" ry="6"/>
        <ellipse cx="798" cy="192" rx="12" ry="6"/>
      </g>
      <path fill="#ffd100" stroke="#000" d="M578 235l-1-3s-4-2-4-4c-1-5-3-7-5-7a6 6 0 00-5 0l-7 1-3-1-2-1-3-3c3 0 6-2 9-5 4-4 6-3 6-3-2 4 1 4 1 4 5-3 0-9-1-9h-2l-1 1c1-7-3-9-3-9l-1 2c-2 4-6 4-10 2s-16 2-20 3c-3 2-10 4-16 1-6-4-8-3-10-2h-8a9 9 0 00-3 0l-1-2c-1-2 1-4 1-4s-4 1-2 7v1l2 2v1l1 1 2-1s-1 5 6 6l-1-1-1-2v-2c1 0 2-2 5 0s5 1 5 1l-1-3c1 0 6 5 8 5s6-3 8-2l9-2c8-2 18-6 21-2l2 3s0 6-10 3l-3-1s-1-2-20 3l-2 1-5 1c-4 1-18 6-27 4h-3 1l-1-1c-7-1-6-4-6-4v-4h0a4 4 0 000 0v-1c4-3 8-3 8-3-3-3-8-2-8-2l-1-8a12 12 0 00-8 5c0-4-5-6-5-6 2 2 1 8 1 8h0v1h-1s-1 0-3 5l-1 2v-1s-3 3-8 0l-9-4-4 2s-6 0-8 3c0 0-4 2 0 5l1 3s0-4 1-3v1l1 2h1v-2h1l1 1h2l1-1c2 0 2-2 2-2a4 4 0 003-1l5 5h0c2 2 6 1 6 1-2 1-2 4-2 4l-1 1h6v2c-2 2-2 5-2 5h0v0s-6 2-8 5l-1-1-4-2h-3l-1-4v-2l-3 1h-1 0l-1 1h0v0h-2v1h-2v2c-2 1-1 3-1 3 1 6 11 4 12 4l4 1 3 3c1 0 0-2 6-3l8-4 3-4v1l-1 4 5-2c2-1 2-3 2-3 2 6 6 7 6 7v-3h2c0-2-1-3-2-3l3 2 1-1 1 2v-1c1 2 4 1 4 1a7 7 0 00-1-1c5 3 13-1 13-1h2c2 0 3-2 3-2 5 0 9-4 9-4 3 0 3-2 3-2s2 0 5-3c6-8 15-4 15-4l-5 1c-14-1-8 9-8 9h0c2 0 6 3 4 6v0c-2 4-7 0-9-3-1-3-4-3-4-3s-8 2-5 8c0 1 1 3 4 5 2 2 7 2 10 1l11-4c1-2 3-1 5-4s-3-4-4-6v-1c5 2 5-5 5-5a7 7 0 004 5c3-2 1-7 1-7 6 10 9 9 9 9-3-2-1-5-1-5 2 11 14 2 14 2-1 1 0 2 1 3s2 2 1 3c0 2-6 2-6 2s-5 0-4 4l5 1h8c3-1 2-2 2-2 5 0 5-3 5-3z"/>
      <path d="M430 217v-1l2 1-1-3 2-1v-1l-2 2v2a1 1 0 00-1 0zm141 24l-8-1 2-2-3 3h9zm-59 1l1-4c-2 2-2 3-1 5z"/>
      <path d="M508 238c0 2 2 3 4 5v-1l-3-4c-1-3 2-5 2-5s-3 2-3 5zm52 1v2l1-2a3 3 0 012-1v-1l-3 2zm-119-24l-1 2a1 1 0 01-1 0h-1l-1-1a2 2 0 010-1l1-2-2 2 1 2h1l1 1h1l1-3c3 1 6-3 6-3s-3 4-6 3z"/>
      <path d="M433 215a3 3 0 001 2h2v-1l1 1v-1h-1v1h-1l-1-1a2 2 0 01-1-1l2-3-2 2zm-4 20l1-1h2l1 3v1c1-2-1-4-1-4h-1l-1-1-2 2zm10-5l-3 1v2l2 4v-1l-2-3v-1a1 1 0 010-1l3-1 1 3-1-3z"/>
      <path d="M434 231v1s0 4 2 5c-2-1-2-5-2-5h2v-1h-2zM432 232v2l1-2h1-2zM476 210l1 4v2l6 3a1 1 0 00-1 0h2v1h3-1l1 1 8 4c-1 0-4 2-9 1v1l4 6c-1 0-5 0-7-2v1l2 5-3-1v1l-1-1v-1l-1 1-3-2v1l1 2h-1l-1 3c0-1-3-2-5-6l-2 2-4 1a3 3 0 000-2 13 13 0 010-2l1-2s-7 2-10 1l2-5v-2h-5l1-1 1-3v-1l-6-1a7 7 0 013-1h1a4 4 0 00-1-2l2 1v-3 2h-2l-1-1 1 1a3 3 0 010 2 8 8 0 00-3 1h-1l1 1 5 1a6 6 0 00-1 3 2 2 0 00-1 1v1a7 7 0 006 0v1c-2 2-2 5-2 5 2 2 7 0 9-1l-1 2a15 15 0 001 2l-1 2v1l5-2 2-1c2 5 5 5 5 5h1a9 9 0 000-3 292 292 0 002 0v-1h2l1 2v-1l4 1v-1l-2-5 7 1a20 20 0 00-4-6c5 1 8-2 9-2h-1a36 36 0 00-7-5 9 9 0 00-4-1l-1-1c-4 0-5-1-6-2v-1l1-1-1-4h-1z"/>
      <path d="M459 209l-2 3h-5a3 3 0 001 2l4 1-2 5v1l4-1 1 4 1 1v2c0-1 3-2 4-5l1-1v1c0 1 0 2 3 3l1-3a2 2 0 000-2l3 1c1 2 3 1 4 1l-1-1h-1a1 1 0 01-1-1v-1l-1-2 2 1 2 1h1-1l-1-2v-1l1-7-1 1 1 1-1 5a2 2 0 000 1v2l-1-1-2-1 1 2v2l1 1-2-1-3-1v2l-1 3-3-3v-1a2 2 0 00-2 1 10 10 0 01-3 4 5 5 0 000-1v-2l-1-3v-1h-1c-1 2-4 1-4 1 0-2 3-5 3-5l-5-1a3 3 0 01-1-2h5a5 5 0 003-3l3-5s-2 0-4 5z"/>
      <path d="M464 203l-2 2h1a21 21 0 0113 6l1-2c-4-7-13-6-13-6zm0 0c1 0 9 0 13 6l-1 1a22 22 0 00-13-6 420 420 0 011-1z"/>
      <path d="M463 207a7 7 0 00-2 3v1a5 5 0 00-1 3v3h1c0 2 1 4 5 3l4-3 2-1 2-2h1l1-4a7 7 0 01-2 3v1a2 2 0 01-2 2 3 3 0 00-2 1l-4 3c-4 1-4-1-5-3-1-3-1-5 1-6v-1l1-3 3-2h-1l-2 2z"/>
      <path d="M461 216h3v2h4-4a2 2 0 010-2h-3l-1-2 1 2z"/>
      <path d="M463 214l-1 1 2 1h2v-1a2 2 0 00-3-1zm1 2l-1-1v-1a2 2 0 013 1v1h-2zm-1-2zm1 4v2l1-2h-1zm0 0h1l-1 1v-1zm-2-1l-1 1 2-2h-2v1zm0 0z"/>
      <path d="M461 216l1 3 1 1h2l1-1v-1 1h-1l-2 1-1-1-1-3zm1-6a3 3 0 00-2 2h1l1-1a2 2 0 012 0v-1h-2zm7 4s2 1 1 3c2-2-1-4-1-4v1zm-6 0l1 2-1-1v-1zm5 1v0zm0 1zM467 217zm-4-5h-1 1zM462 213v0zm3-6s3 1 0 4l2-2c0-1-1-3-2-2zm9 4l-2-1h-3l-1 2 2-2c1-1 1 0 2 1h2z"/>
      <path d="M474 211a1 1 0 01-1 0l-2-1-2 2 2-1h3z"/>
      <path d="M472 212l-2 1-1-2 1 1h2c1 0 0 0 0 0z"/>
      <path d="M471 212a1 1 0 01-1-1l1 1z"/>
      <path d="M471 211v1l-1-1h1zm-5-2l-1 1v-1c0-1 0 0 0 0h1z"/>
      <path d="M464 208s3 0 2 3v-3l-2-1v1z"/>
      <path d="M464 209l1 2h1l-1-2v-1l-1 1z"/>
      <path d="M465 209l1 1-1-1v-1 1zm3 2v2l-1 1 1-2v-1zm10 11c2 0 8 5 8 5l1-1-9-5v1zm2 6c0 2 3 4 3 4v-1s-2-1-2-3h-1zm-6 1l2 5h1l-3-5zm-8 0v2h1l-1-2z"/>
      <g fill="#fff" stroke="none" stroke-width="0">
        <path d="M430 216l1 3v-3h-1zm2 1l1 3h1l1-3h-3zM435 217l1 2 1-1-1-2-1 1zm4 1l-1 1-1-1v-1s1-1 2 1zm-9 16v-3h1l1 3h-2zm6-3v-2l2-1 1 2-3 1zM434 232l1-3h1v3s0-1-2 0zm-2 0v-2h2v2s-2-1-2 1v-1z"/>
      </g>
    </g>
    <g fill="#00a651" stroke="#000">
      <path d="M462 270s5 5 4 10c0 0 3-8-1-10-3-2-3 0-3 0z"/>
      <path fill="#964b36" d="M455 275s-1 2 0 3c0 0-2 3 0 5l-1 4s-1 4 1 5h3s2-2 1-5c0 0 1-2-1-5v-4-2l-3-1z"/>
      <path d="M457 269s-7-12-11-12c-5-1-5-5-5-5s1 2 4 2 10 5 11 8l2 4-2 3z"/>
      <path d="M457 268s2-15 12-15 6 1 9-1l-11 4c-4 0-8 8-7 10 0 1-3 4-4 3s1-1 1-1z"/>
      <path d="M459 274s2-6 6-4c0 0-3-6-8-1l2 5zm-8-6s4 13-1 17c0 0 0-7-3-11s3-8 4-6z"/>
      <path d="M452 270l6 8c0 2 2-6-1-8l-6-3 1 3z"/>
      <path fill="#964b36" d="M441 285l2 3 1 2s-1 2 1 2v4l4-1s1-2-1-4l-1-3s0-2-2-3l-1-3-3 3z"/>
      <path d="M444 282s-8-3-12 1l7 2c1 2 5-2 5-3z"/>
      <path d="M441 287l-1-1c-1-1-7-2-8 4 0 0-3-6 1-7 3-1 6 1 8 4m-5-13l4 5h1s-3-5-5-5zm-1-8s-2-6-5-5c-2 2-2 7-2 7s-4-5-2-9c3-4 9 0 9 7z"/>
      <path fill="#964b36" d="M440 280l1 1 2 1-2-4-1 2z"/>
      <path d="M438 272s0-6 4-8l1-1s-3 7-2 11v1"/>
      <path d="M439 265s7-14 15-9c0 0-8 2-12 8l-3 4v-3z"/>
      <path d="M436 270l-4-10c-1-2-3-3-6-1 0 0 5-4 9-1 5 4 4 9 4 9v6l-4-3"/>
      <path d="M443 281s-8-15-14-4v4s-3-2-1-8 10-3 13 2l3 7-1-1zm23 5s6-13 10-7c0 0 1 3-1 4 0 0-2-3-4 1l-2 3-3-1z"/>
      <path d="M475 283s3 2 2 5c0 0 5-8-1-9 0 0 1 3-1 4zm1-9s7 3 8 6c0 0 1-7-3-9 0 0-6 1-5 3z"/>
      <path d="M479 264c3-7 8 2 8 2s1-7-3-8-7 15-7 15l-5 1s1-14 9-15h1"/>
      <path d="M473 268s-5-10-8-11 2-2 4 0 5 4 5 9l-1 2zm-5 13s1-6 5-8l7-2c1 0-4 1-5 4l-2 2-5 4z"/>
      <path fill="#964b36" d="M466 286l-2 4s-2 4-1 5c0 0 2 2 3 1 0 0 3-3 2-5 0 0 2-3 1-4l-3-1z"/>
      <path fill="#000" d="M455 279h3l-1-1h-2v1zm0 4h4l-1-1-3 1zm-1 4s3 2 5 0h-1c-1 2-4 0-4 0zm-11 1l3-3h-1c0 2-2 3-2 3zm1 2s3 0 3-2c-1 2-3 2-3 2zm1 2v1s2 0 3-2l-3 1zm19-1l3 1a2 2 0 001-1h-1l-2-1-1 1z" stroke="none"/>
    </g>
    <g fill="#964b36" stroke="none" stroke-width="0">
      <path d="M542 300zm9-2v-1h-1v-2a8 8 0 000-1h-1v-2a2 2 0 010-1v-1-10 2-4l-4-2v19l-3 3v1h1l-1 1a1 1 0 011 0h3l1-1h2v-1h2z"/>
      <path d="M545 300h4l1-1h2v1l1-1v-1a1 1 0 00-1 0v-1l-1 1v-1h-1l-1-1v1l-1 1h-2a9 9 0 000-1v1h-1v1h-1v-1 1l-1 1h2m-3-3l-1 1h-1v2h2l1-1v-1-1"/>
    </g>
    <g stroke="#000">
      <path d="M551 278l-2 1-1-1 1-2 2 2zm-5-2l-1 1c-1 1-2 0-2-1l2-2 1 2z"/>
      <path d="M549 277l-2 1-1-1 1-2 2 1zM546 278l-1 2-1-2 1-2 1 2zM549 279l-2 2-1-2 1-1 2 1z"/>
    </g>
    <path fill="#00a651" stroke="#000" d="M549 262s14-20 29 0l-1 4-1-1h-1v-1h-1v-2l-2 1 1-1-2 2v-5l-2 4v-3l-1 2v-2l-1 2-1-1v1l-2-2v2l-1-2v2l-1-2v2l-3-1v1l-1-1v1h-2l1 1h-2v1l-3-1 1 1v1s15-5 16 14l-3 1 1-1-1-1-2-2 1-2h-1v-1h-1l-1-1h0v-1l-1 1v-3l-1 2-1-1h0l-1-1-1 1v-1 1l-2-1v1l-1-1v1l-2-2v1l-2-1v1s14 8 10 21l-1 1v-4l-2 2 1-4-1 1v-2l-1 2v-3l-1 1-1-3v1l-1-4-1 2-1-3v2l-2-3v1l-1-2v1l-3-1c-1-1-3 4-3 4v-3l-1 2v-2l-2 5v-4l-1 4v-1 1h-1v1l-1-1v2l-1-1-1 3v-1 2l-1-1v3l-1-1v3h-1l1 2s-4-7 0-14c5-7 11-9 11-9h0v-1l-4 2v-1l-1 1v-2l-1 2v-1l-1 1-1-2v3l-1-2-1 4v-3l-1 3v-3l-1 3v-3l-1 3-1-3-1 3v-2l-1 3-1-3-1 5-1-2v3l-1-2 1 4-1-1 1 2-2-2v3l-1-1v1s-1-13 8-15c9-3 15 0 15 0l-3-2v-1h-1v-1h-2v-1h-2v-1l-1 1 1-1-2 1v-1l-1 1-1-1-4 4 1-4h0v-1l-2 2v-1 2l-1-2-1 2-1-2v2-1l-1 2-1-1v1l-2-1v1l-1-1-1 2-1-1v2l-1-2v2s7-20 27-7l3 4c1 2 0 0 0 0v-14 6l1-2v3l2-4s-3 7-2 9c0 0 1-8 4-9l-3 6h1v1h0l-1 2v2l1-1z"/>
    <path d="M547 270h1s1-1 3 0c-2-2-4 0-4 0zm0-7v1h1l-2 2h1l3-3h-2l1-1h-2v-1l-1 2z"/>
    <path d="M544 263v1l2 5h1l-1 1h1l1-3h-1v1l-2-3h1l-1-1h1v-2h-1v1l-1-1v1zm-2 6v1h2l1 1v-1l-1-1h-2zm2 6v-3l1 3zm4-1l-1-2h1l1 2zm1 2v-2l1 2z"/>
    <path fill="#00a651" stroke="#000" d="M443 340h-4l-2 2h5l1-2m0 1l-1 3c1 2 2 2 1 3 0 0 2-4 1-5l-1-1m-3-6l-2 2-1 3 4-3v-1m1 0v-3l-2-2v4l2 1m-3-1l-1-3-2-1 2 4 1 1m5 4s2-1 3 2c0 3-1 2-1 2l-3-4h1z"/>
    <path d="M443 341v3h1l-1-3 1-5-1 5z"/>
    <path d="M441 341h-1l3-1-2 1zm3-3l-6-3v-1l6 3z"/>
    <path d="M440 337h-1l1-2 1 1zm2-1l-2-2 1-1 1 3zm1 4l2 1h1l-3-1z"/>
    <path fill="#fff" stroke="#000" d="M471 341c2-1 3-5 3-5l-5 3c3-2 6-10 6-10 0 3-8 6-12 8-5 3-2 10-2 10-2-1-4-5-5-8 0-4-2-5-5-5-3-1-5 3-5 3l-4 2h4s4 1 4 4-3 13 2 19c3 4 16 7 16 7"/>
    <path fill="#fff" stroke="#000" d="M462 349s1-4 4-4 4-4 6-4c2-1 11-4 12-8 0 0-1 7-9 11 0 0 7-2 8-4 0 0-4 7-11 8 0 0 7 0 8-2 0 0-3 4-8 4 0 0 5 2 6 1 0 0-3 3-6 3h1s-4 4-7 2-4 0-4 0M469 357s4 6 5 10c0 0 7 8 10 9l-4-2 3 3-2-1a6 6 0 001 1h0-2v1l-2-1v1h-1-1-1-1l-2 2-5-12"/>
    <path d="M474 379l-7-13h1l7 12zm5-1l-10-12v-1l11 12zm3-1l-12-12 13 11zM451 337h-3 3zm-5 0l1 1-1 1 1-1-1-1zM450 337l-1 1h-1 1l1-1zM450 337h-1 1zM450 337h-2 2zM450 360v2l2 2 1 1 1-1s-3-1-4-4z"/>
    <g fill="#964b36" stroke="#000">
      <path d="M549 335s6-8 11-6l8 3s0 5-2 5-6-5-8-3a13 13 0 00-4 4c-1 1-7 1-5-3z" stroke="none"/>
      <path d="M528 370l-1 2h2l-1-2z"/>
      <path d="M527 372s-3-2-5 2c-3 4-4 10-6 11-1 1 13-6 13-9v-4h-2z"/>
      <path d="M527 372s-3 1-3 5c-1 4-5 7-5 7m49-52s-4 2-4 5" stroke="none"/>
    </g>
    <path fill="#fff200" d="M534 341s0-10 9-10v2s2-1 3 1c0 0 3-1 3 2 0 0 3-1 3 2 0 0 2-1 2 1 0 0 2-1 2 1 0 0 2-1 2 2 0 0 3-2 4 1s-3 10-7 11"/>
    <path d="M558 342s1 8-4 11v1c5-3 4-12 4-12zm-6 9c3-3 4-10 4-11s-1 8-4 11zm-3-2h1a26 26 0 014-10s-4 5-5 10zm-2-1h1c0-6 4-10 4-10v-1s-4 5-5 11zm-3-2h1c0-7 4-10 4-10v-1s-4 4-5 11zm-3-2h1c0-6 4-10 4-10s-5 4-5 10zm-5-2h1a10 10 0 017-9 11 11 0 00-8 9z"/>
    <path fill="#00a651" d="M529 354s-2-10 4-13l2 1s3-1 3 2c0 0 2-2 2 0 0 0 3-1 3 2 0 0 2-1 2 2 0 0 3-1 3 1 0 0 3-1 2 1 0 0 3 0 2 3 0 0 3-1 2 1 0 0 4 1 2 3a24 24 0 01-9 7"/>
    <path fill="#00a651" d="M525 364s-2-8 3-10h2s3-1 3 1c0 0 2-1 3 1 0 0 1-1 1 1 0 0 2-1 2 1 0 0 2-1 2 1 0 0 3 0 2 2 0 0 2 0 1 1 0 0 3 0 2 2 0 0 2-1 1 2-2 2-6 5-8 5"/>
    <path fill="#00a651" d="M528 371s-5-5-2-7l1 2s1-2 2 0h2l1 1s2 0 2 1c0 0 2 0 1 1l2 1s3 1 1 2h-8l-2-1z"/>
    <path d="M546 362v1a36 36 0 008-9s-5 7-8 8zm-2-1c3-1 8-8 8-8v-1s-5 8-8 9zm-1-1v1a48 48 0 007-11s-5 8-7 10zm-2-1h1c0-4 6-10 6-10h-1s-5 6-6 10zm-11-5h1c-1-6 4-12 4-12s-5 6-5 12zm3 0h1c-1-4 4-10 4-10s-6 6-5 10zm5 2c0-5 5-10 5-10s-5 5-5 10zm-11 9h1c-2-5 1-11 1-11h-1s-3 6-1 11zm2 0h1c-2-4 1-11 1-11h-1s-2 7-1 11zm9 5c5-1 8-6 8-6h-1s-3 4-7 6zm-1-1c4-1 7-6 7-6v-1s-4 5-7 7zm-1 0l7-8-7 8zm-5-3a21 21 0 012-11s-3 6-2 11zm2 1c3-3 4-10 4-11s-1 8-4 11zm2 1a17 17 0 006-9s-2 6-6 9zm0-13l-3 11v1l4-11c-1-6 4-12 4-12s-5 5-5 11z"/>
    <path d="M539 357c0 1-1 8-5 11 4-3 5-10 5-11l6-9-6 9zm-12 9l1 5h1l-2-6v1zm2 0v5-5zM529 371l2-5-2 5zm0 0a7 7 0 004-4h-1s0 3-3 4zm1 0v1l4-4s-2 3-4 3zM530 372c4 0 6-3 6-3h-1s-1 2-5 3z"/>
    <path d="M530 372s5 1 7-2c-2 3-7 2-7 2z"/>
    <path fill="none" stroke="#000" stroke-width="3" d="M421 193v137c0 44 80 71 80 71s81-27 81-71V193z"/>
  </g>
  <path fill="#012169" d="M0 0h320v240H0z"/>
  <path fill="#FFF" d="M38 0l122 91L281 0h39v31l-120 90 120 89v30h-40l-120-89-119 89H0v-30l120-89L0 32V0z"/>
  <path fill="#C8102E" d="M212 141l108 79v20l-135-99zm-92 10l3 17-96 72H0zM320 0v2L196 96l1-22 98-74zM0 0l120 88H90L0 21z"/>
  <path fill="#FFF" d="M121 0v240h80V0zM0 80v80h320V80z"/>
  <path fill="#C8102E" d="M0 97v48h320V97zM137 0v240h48V0z"/>
</svg>
