<svg xmlns="http://www.w3.org/2000/svg" xmlns:xlink="http://www.w3.org/1999/xlink" id="flag-icons-fk" viewBox="0 0 640 480">
  <defs>
    <linearGradient xlink:href="#a" id="c" x1="444" x2="471" y1="592" y2="577" gradientTransform="matrix(-1.08448 0 0 1.26674 910 -415)" gradientUnits="userSpaceOnUse"/>
    <linearGradient xlink:href="#a" id="g" x1="852" x2="646" y1="370" y2="370" gradientTransform="matrix(.85733 0 0 .9624 -161 0)" gradientUnits="userSpaceOnUse"/>
    <linearGradient xlink:href="#a" id="d" x1="458" x2="521" y1="563" y2="553" gradientTransform="matrix(-1.01941 0 0 1.3554 910 -415)" gradientUnits="userSpaceOnUse"/>
    <linearGradient xlink:href="#a" id="e" x1="472" x2="445" y1="579" y2="580" gradientTransform="matrix(1.08448 0 0 1.26674 50 -415)" gradientUnits="userSpaceOnUse"/>
    <linearGradient xlink:href="#a" id="f" x1="518" x2="456" y1="554" y2="558" gradientTransform="matrix(1.01941 0 0 1.3554 50 -415)" gradientUnits="userSpaceOnUse"/>
    <linearGradient id="a">
      <stop offset="0" stop-color="#a43907"/>
      <stop offset="1" stop-color="#fff"/>
    </linearGradient>
    <linearGradient xlink:href="#a" id="h" x1="389" x2="677" y1="507" y2="509" gradientTransform="matrix(.88927 0 0 1.54542 50 -414)" gradientUnits="userSpaceOnUse"/>
    <linearGradient xlink:href="#a" id="i" x1="580" x2="557" y1="505" y2="506" gradientTransform="matrix(.91096 0 0 1.52008 50 -415)" gradientUnits="userSpaceOnUse"/>
    <linearGradient xlink:href="#a" id="j" x1="581" x2="559" y1="512" y2="514" gradientTransform="matrix(-.88927 0 0 1.54542 909 -414)" gradientUnits="userSpaceOnUse"/>
    <linearGradient xlink:href="#a" id="k" x1="552" x2="590" y1="518" y2="504" gradientTransform="matrix(-.91096 0 0 1.52008 910 -415)" gradientUnits="userSpaceOnUse"/>
    <linearGradient xlink:href="#a" id="b" x1="444" x2="471" y1="592" y2="577" gradientTransform="matrix(.85733 0 0 .9624 -162 -1)" gradientUnits="userSpaceOnUse"/>
  </defs>
  <path fill="#012169" d="M0 0h640v480H0z"/>
  <path fill="#012169" fill-rule="evenodd" d="M0 0h400v200H0z"/>
  <path fill="url(#b)" fill-rule="evenodd" stroke="#fff" stroke-width="10" d="M413 309a11 13 0 00-2 0c-3 0-7 11-10 17l-8 13-1 4c-6 2-6 8-6 10v4l4 7v0c4 9 9 21 13 22 4 2 16-3 24-12a141 158 0 0054 13c20 0 38-6 53-13 9 9 20 14 25 12 3-1 8-13 12-22l4-7 1-4c0-2-1-8-7-10 1-1 0-3-1-4l-8-13c-2-6-7-17-10-17-4-1-13 1-13 2v1l-17 18c0 1 0 14 4 26a126 142 0 01-43 9c-17 0-32-4-44-9a117 131 0 005-26l-18-18v-1l-11-2zm4 23c3 0 5 2 7 4v2a68 76 0 01-3 10 74 83 0 01-12-10c2-2 5-6 8-6h0zm127 0h0c4 0 7 4 9 6a73 82 0 01-13 10 67 75 0 01-3-10 15 16 0 010-2l7-4zm-143 26l10 7a11 12 0 01-4 2h-4a15 17 0 01-1-6 60 68 0 010-3zm159 0v3a15 17 0 01-1 6 10 12 0 01-8-2l9-7z"/>
  <path fill="url(#c)" fill-rule="evenodd" stroke="#000" d="M426 340s-6-11-11-11c-5 1-10 8-10 9a45 52 0 01-8-10c1 0 8-21 12-22s13 2 13 3z"/>
  <path fill="url(#d)" fill-rule="evenodd" stroke="#000" d="M440 328s-2 30-11 40-23 17-28 15c-5-1-17-31-17-31s12 14 22 12c9-3 14-20 16-29s0-26 0-26l18 19z"/>
  <path fill="url(#e)" fill-rule="evenodd" stroke="#000" d="M533 340s6-11 11-11c5 1 10 8 10 9a45 52 0 008-10c-1 0-8-21-12-22s-13 2-13 3z"/>
  <path fill="url(#f)" fill-rule="evenodd" stroke="#000" d="M519 328s2 30 11 40 23 17 28 15c5-1 17-31 17-31s-12 14-21 12c-9-3-15-20-17-29v-26l-18 19z"/>
  <path fill="url(#g)" fill-rule="evenodd" stroke="#000" stroke-width="2" d="M401 326l-8 13c-1 3 0 8 4 14 4 7 39 34 84 34s79-27 84-34c4-6 5-11 3-14l-8-13c0 8-29 39-79 39s-80-31-80-39z"/>
  <path fill="url(#h)" fill-rule="evenodd" stroke="#000" d="M558 379l8-15-4-4c-1 4-6 6-7 11 0 4 3 9 3 8z"/>
  <path fill="url(#i)" fill-rule="evenodd" stroke="#000" d="M565 375s1-7-3-8c-5-1-7 4-6 2 0-2 3-4 3-11v-10s2-9 9-8c7 2 7 8 7 10a9 9 0 010 4z"/>
  <path d="M539 352l2 2h1l-1-2 2-2 4 9v1h-1l1 1 4-3v-1l-1 1h-1l-4-9 1-1h1l1 1h1l-2-3-8 6zm-10 6v1h1l4 9-1 1 1 1 4-3-1-1-1 1-2-5 5-2 1 4v1h-1l1 1 4-2v-1h-2l-3-9v-2l-4 3v1l1-1h1l1 4-4 2-2-3v-1h1v-1zm-3 8l1 1h1l1 3-1 1c-2 0-4-1-5-4s0-6 2-6a4 4 0 012 0l1 1h1l-1-3-3 1c-4 1-5 4-4 8s4 5 7 4a11 13 0 003-2l-1-4 1-1v-1zm-9 10l4-1v-1h-1l-3-10 1-1-5 1 1 1h1l3 9-1 1h-1l1 1zm-26 5l8-1v-3h-1v2l-4 1v-5l2-1v2h1v-4h-1v1l-2 1-1-5h4v2h1v-3h-8v1h1v1l1 10h-1v1zm-12-12v1h1v10h-1v1h4v-1h-1v-5h5v5h-2v1h5v-1h-1v-11h1v-1h-5v1h1v5h-4v-4h1v-1zm-10-1v4h1l1-2v-1h2v11h-2v1h5v-1h-1v-10h2v2h1v-4zm-14 11h8v-3h-1v2h-4v-5h2l1 2 1-4h-1v1h-3l1-5 3 1v2h1v-3l-7-1v1h1v1l-1 10h-1v1zm-19-6l5 2v-1h-1v-1l2-9h2v-1l-4-1h-1l1 1h1l-3 10h-1zm-7-3a8 9 0 002 2c3 1 5 0 5-2a3 4 0 000-4l-2-2-1-2 2-1 1 1v2h1l1-3a8 9 0 00-2-1c-2-1-4 0-5 2a3 4 0 001 3l1 2 1 3-2 1a4 5 0 01-2-1l1-3h-1zm-10-4l7 4 2-3-1-1-1 2h-1l-3-2 2-4 2 1v2l2-4-1-1-1 2-2-1 2-4 3 1v1l-1 1 2 1 1-3-7-4-1 1 1 1-3 9h-2zm-1-15l-4-3v2l-4 8h-1v-1l-1 1 4 3c1 1 2 2 3 1 2 0 4-1 5-3 1-3 1-6-2-8zm-2 0h1c2 2 2 4 1 7-2 3-4 3-6 2l-1-1 5-8zm30 13h-1l1 1-1 10h-2v1l5 1v-1h-1v-5h1l1 3 1 3 2 1a10 11 0 001 0v-1l-1-1-1-3a3 3 0 00-1-2c2 0 3-1 3-2 0-2-1-4-3-4l-4-1zm3 1c2 1 2 2 2 3 0 2-1 3-3 2v-5zm54 1v1h1l2 10-1 1h-1l1 1 4-1v-1h-1l-1-4c2-1 3 0 3 2l2 2h2a12 14 0 001 0v-1l-2-1-2-3h-1l2-4c0-2-2-3-4-3zm3 1h1c2-1 2 0 3 2l-2 3h-1l-1-5z"/>
  <path fill="url(#j)" fill-rule="evenodd" stroke="#000" d="M402 379l-8-15 4-4c1 4 5 6 6 11 1 4-3 9-3 8z"/>
  <path fill="url(#k)" fill-rule="evenodd" stroke="#000" d="M394 375s-1-7 3-8c5-1 7 4 7 2-1-2-4-4-4-11v-10s-2-9-9-8c-7 2-7 8-7 10l1 4z"/>
  <path fill="#0072c4" fill-rule="evenodd" stroke="#fff" stroke-width="4" d="M481 356s-82-27-82-129l1-136h161l1 135c0 102-82 130-82 130z"/>
  <g fill-rule="evenodd">
    <path fill="#bcbcbc" d="M410 124l2-2 4-3 4-1a9 10 0 003-3v-5a12 12 0 014-2l4-2h4l4 1 4 3a8 8 0 003 3l3 2 4 3 2 3a27 30 0 004 2l5 2h4l5 1h9l5 1h14a37 42 0 005 0l5-1h6l4 2 4 1a11 11 0 013 3 18 20 0 013 5l2 5v5l1 6-1 6-1 5-1 4v11a52 58 0 00-3 6 11 12 0 00-2 3l-1 2 1 3v6l1 4c1 1 1 0 0 0-1 1-2 1-3-1a9 10 0 01-1-4l-1-5c0-2-1-2-3-2l-4-2c-2 0-2 0-2 2v6l-1 4-3 4c-1 1-1 2-3 2l-2-3 2-4 2-4-2-3a19 22 0 01-2-5l-3-1-4 2h-5l-5 1h-8l-5-1-4-1-4 1-4 4-1 5-2 4a14 15 0 00-1 5c0 2 0 2-2 1l-2-3 1-6h-2l-1 5a4 5 0 01-2 3 5 5 0 01-3 3v-2-5l1-6-1-5-3-3-4-2a7 8 0 00-3-3l-3-2-2-3-2-5a16 18 0 00-1-5 18 20 0 00-1-5l-1-5v-11l-1-5-1-5c0-2 0-2-2-3 0 2-2 2-4 2l-4-1-3-1a32 36 0 00-2-3l-1-6 1-2z"/>
    <path fill="#fefefe" d="M430 138h1l1-1 2-2 2-1 3-2 2-2 3-1h3l3-3v-2c0 2-1 3-2 3l-2 4-2 2-2 3 1 1h2a10 12 0 002-3l2-3 2-2 2-2 2-2a4 5 0 01-1 4l1 3 1 2v-4 3l1 4 1 1 1-4v4l1 3 1 1 1-6v-3 0-1a29 32 0 011 5v3l2-2a13 15 0 012-3l-2 3a13 15 0 012-3 30 33 0 00-1 3l1 4v3l1 2c1 1 1 0 1-2v-4c0-2 0 0 1 1a10 11 0 010 4l1 2 2-3 1-3 1-2 1-4a30 34 0 000-4l2 1v4a14 14 0 001 3 11 12 0 002 3v4l1-5v-4l-1-3v-2h3l1 2 1 4 1 3h1l1-3 1-2v3l2 4 1 1v-8l1-3 1 3 1-2h1v5l2 2a12 14 0 001 3l2 1v-5l-1-4v-3a8 9 0 012 4l1 3a15 17 0 012 3l2 3h2l-1-4a7 7 0 000-4l-3-3v-1a19 22 0 013 4 5 6 0 002 2l3 2a4 5 0 002 1l-2-1a4 5 0 002 1v1a10 11 0 00-1-5 6 7 0 00-2-3 7 8 0 00-3-2l-2-3c1-1 2 0 4 1l2 3a13 15 0 002 4l3 2v-1c0-2 0-2 1-1l3 2 1 1 1-1-3-4-2-2-1-3 1 3-1-3 3 2a5 6 0 012 2l1 2 3 2 1 3 1 4c-1 1-1 0-1-1l-2-1 1 4a6 7 0 01-1 2l-1-1-1-3v1l1 4a9 10 0 010 4v15a17 19 0 000 4v-4 4l-2-4a8 9 0 01-1-3l-1-3-1-2v6l1 3v4l-1 2-1 2-1-4-2-4-2-3-1-3-2-3-1-1v4l1 5v3l-2-5-2-3-1-3-1-1 1 3 1 4-2-6a26 26 0 01-2-4l-2-2a4 5 0 01-2-1l1 4 1 3c0 2-1 0-1-1l-1-3-2-2c-1-1-1 0-1 1l1 4v9l-1-3-2-4h-2l1 4c-1 1-1 1-2-1l-2-2-1-2v-3l-3 1v8l-1 2-1 3h-1v-9-4l-2-1a6 6 0 000 2l1 4v4l-1 3-1 1a11 12 0 01-3-2h-3l-2-2a23 26 0 01-1-5l-1-3a5 5 0 00-1-2l-1 4-1 3-1-3c0-2 0-3-2-3s-2 0-2 2l2 4v4l-1 2-2-5-1-1-2 1v2h-1v3a10 10 0 01-1 3c0-1-1 0 0 0l-5-2-1 2h-4l-3 1h-3l-2-1 1-2a15 17 0 002-2l2-2 2-3 3 1h3l3-2 3-1 2-3 1-3-3 1-3 2-2 1h-3l-4 1 4-2 2-2c1 0 2 0 2-2h-2l-3 1a11 12 0 01-3 1v-2l2-2-3 1a18 18 0 01-4 0h-6l-1-2 3-1 2-2c1 0 2 0 1-1h-3l1-1h3l3-1 2-2 2-3 2-2 1-2-3 2a7 8 0 01-2 2 6 7 0 01-3 1h-3c-2 0-1-1 0-1v-2l-3-1h-3l-3-1h1a13 15 0 003-1l2-2h-4zm-20-6l-1-6 1-2 2-2 4-3 4-1a9 10 0 003-3v-5l4-2 4-2h4l4 1 4 3 3 3 3 2v1c0 2-1 2-2 2a6 7 0 01-2-3v2l-2 1-1-4c0-2 0-1-1 0l1 3h-6c-2 1-1 1-1 2l3 2 4-1h3l2 1-1 2-1 2a12 13 0 01-3 1l-4 1-1 3a8 9 0 01-4 1l-1-1a9 11 0 002-3v-2c-2 0-2 0-2 2s-1 2-2 2l1-3a18 21 0 01-3 0l-1 2h-3l-1-1c-1-1-1-2-3-2l-2 2-2-1c-2 0-1 1-1 2l1 1h6l1 2h-4a12 14 0 01-2 0h-3c-1 0-2 0 0 0l3 2-1 2a2 2 0 00-1 0h-3l-2-4z"/>
    <path fill="#bcbcbc" d="M417 122l-1 1-3 3h-1l2-1 3-1v-2zm11-13l1 1 1 3 1-3-2-2c0 1 1 1-1 1z"/>
    <path fill="#c4c4c2" stroke="#000" d="M349 418l2-1 1-2 2 1 3 1v1h-3a7 7 0 00-3 1l-2-1z" transform="matrix(1.08448 0 0 1.26674 43 -410)"/>
    <path fill="#bcbcbc" d="M433 109v2a7 7 0 010 3 5 6 0 002-2c0-3-1-3-3-3zm8 33h1l1-1 2-2a10 11 0 013-2l2-1c0 2 0 3-2 3l-2 2-2 1c-1 1-1 1-3-1zm5 8l3-3a11 12 0 012-3l2-3 2-3v4a5 6 0 01-1 3l-2 2-2 2a19 21 0 01-3 1h-1zm-8 6h1l1-1 3-2a8 9 0 003-1h1v2a7 8 0 01-3 2l-3 1-1-1 2 1-4-1zm11 0v-1c1-2 1-3 3-3l2-1v2l-1 3-3 1-1-1z"/>
    <path d="M425 120l-1 1-1-1 1-2 1 2z"/>
  </g>
  <g fill="#005120" fill-rule="evenodd" stroke="#002b0d">
    <path d="M352 480h1c-3 0-1-1 3 3 2-1 2-2 4 1 1 2 1 0 2-2 1 4 1 7 4 4l7 1c2 3 1-1 3 1 4 0 4-4 8-5 2 3 4 1 7-1 2 1 5 5 5 1 2-3 2-3 4 0 2 2 2-1 4-2 3 2 6 2 11 1 0 3 2 2 4 1 4 2 5 2 10 0 2-3 1 0 2 2l7-1c3 0 4 0 5-3 2 2 2 4 5 1 4 0 3 1 5-1 2 4 3 1 5 3a15 15 0 01-6 7c-2 3-3 6-6 7l-8 6-13 1h-37c-3 2-7 2-11 3l-11-1-7-6c-2-2-2-5-4-6l-3-9z" transform="matrix(1.08448 0 0 1.26674 47 -411)"/>
    <path d="M438 488v0l-2 4-3 2m-3-3h0l-6 8 6-8-6 8m-7-12l-1 4m-2 2v1zm-7-5h0-1c1 0 1 0 0 0zm-50 0l4 4v8m3-7c1 0 2 3 5 4l-5-4c1 0 2 3 5 4v-6c1 2 3 4 3 2 5 0 7-2 11-3 0 1-1 1 1 2m60-4h1l-5 7m-33-9h7" transform="matrix(1.08448 0 0 1.26674 47 -411)"/>
  </g>
  <path fill="#fff" fill-rule="evenodd" d="M426 214c-12 0-16 14-27 14h-1v1l2 26c11-1 15-14 26-14s15 14 27 14c11 0 15-14 27-14 11 0 15 14 26 14 12 0 16-14 27-14s15 13 26 14a139 156 0 002-27h-1c-11 0-15-14-27-14s-15 14-27 14c-11 0-15-14-27-14-11 0-15 14-26 14-12 0-16-14-27-14zm0 53c-9 0-13 8-20 12a111 125 0 008 20c4-2 7-5 12-5 11 0 15 14 27 14 11 0 15-14 27-14 11 0 15 14 26 14s16-14 27-14a18 21 0 0112 5 112 126 0 008-20c-6-4-11-12-20-12-11 0-15 14-27 14s-15-14-26-14-16 14-27 14c-12 0-16-14-27-14zm54 53c-12 0-16 13-27 13s-15-12-25-13a132 132 0 0039 33c4-3 7 3 13 3 5 0 9-6 12-3a129 145 0 0039-33c-10 2-14 13-25 13s-15-13-26-13z"/>
  <g transform="matrix(.86465 0 0 .97062 -175 3)">
    <path fill="none" stroke="#512007" d="M333 541a110 110 0 0110-3l16 16-13 3z" transform="matrix(1.25 0 0 1.3 259 -430)"/>
    <path fill="none" stroke="#512007" d="M414 471c0-5 8-31 8-31m-5 31l6-31m-4 31l5-31m-10 27l6-2m-4-2l4-2m-3-2a24 24 0 014-1m-4-3l5-1m-2-3h3m-3-4l4 1" transform="matrix(1.06 0 0 1.03 277 -178)"/>
    <path fill="none" d="M773 327c0-8-11-55-11-55m8 53l-9-52m5 48l-6-48m13 47l-7-3m4-5l-5-2m4-4a30 42 0 00-5-2m5-6l-6-1m3-5h-4m3-6h-4"/>
    <path fill="none" stroke="#512007" d="M414 471c0-5 8-31 8-31m-5 30l6-30m-3 28l4-28m-10 27l6-2m-4-2l4-2m-3-2a24 24 0 014-1m-4-3l5-1m-2-3h3m-3-4l4 1" transform="matrix(-1.25 0 0 1.3 1321 -302)"/>
    <path fill="#dd8b59" fill-rule="evenodd" stroke="#512007" d="M395 572l1-73h3l-1 73h-3zm29-70l-1 62-2 2 1-64z" transform="matrix(1.25 0 0 1.3 259 -430)"/>
    <path fill="#dd8b59" fill-rule="evenodd" stroke="#512007" d="M363 560s3 30 36 29c34-1 43-30 43-30h-14c-1 0-12 14-27 13-14 0-19-4-22-6l-6-8-17-6 1 6zm90-3l-1-4v-3l2-4-25 4v7h24z" transform="matrix(1.25 0 0 1.3 259 -430)"/>
    <path fill="none" stroke="#512007" d="M449 550l-1 6h4v-6zm-5 0v6h2l1-6zm-4 6v-5h2l1 5zm-5 0v-4h3l1 5zm-6 0l1-4h3v5zm-67 4l7 1 8 10" transform="matrix(1.25 0 0 1.3 259 -430)"/>
    <path fill="none" stroke="#512007" d="M367 561s6 20 34 20 34-22 34-22" transform="matrix(1.25 0 0 1.3 259 -430)"/>
    <path fill="none" stroke="#512007" d="M440 559s-14 29-39 27c-26-2-30-11-32-16l-3-9" transform="matrix(1.25 0 0 1.3 259 -430)"/>
    <path fill="#dd8b59" fill-rule="evenodd" stroke="#512007" d="M373 558v-54h-1v53l1 1zm-41-17l22 11-1 1-21-10v-2z" transform="matrix(1.25 0 0 1.3 259 -430)"/>
    <path fill="#dd8b59" fill-rule="evenodd" stroke="#512007" d="M342 538l3 18 2 1-3-19zm20 0l21-3v3l-20 2z" transform="matrix(1.25 0 0 1.3 259 -430)"/>
    <path fill="#fecf3e" fill-rule="evenodd" stroke="#512007" d="M365 514l10 3c2-1 1-3 1-3h4l1-4-16 4z" transform="matrix(1.25 0 0 1.3 259 -430)"/>
    <path fill="#dd8b59" fill-rule="evenodd" stroke="#512007" d="M363 522l23-6v2l-23 6z" transform="matrix(1.25 0 0 1.3 259 -430)"/>
    <path fill="#fecf3e" fill-rule="evenodd" stroke="#512007" d="M415 513s2 3 3 3l3-2s1 3 3 2c2 0 3-4 3-4l3 1 2-5-17 5zm-2 28l3 2 3-2c0 1 0 4 4 3 3-1 3-4 3-4s-1 1 2 1c3 1 5-3 5-3l-20 3z" transform="matrix(1.25 0 0 1.3 259 -430)"/>
    <path fill="#dd8b59" fill-rule="evenodd" stroke="#512007" d="M363 513a5 5 0 001 3l19-7v-1l-20 5zm25-4l20-6v3l-18 5-2-2z" transform="matrix(1.25 0 0 1.3 259 -430)"/>
    <path fill="#fecf3e" fill-rule="evenodd" stroke="#512007" d="M413 522s-3 3-2 7l3 9s3-6 7-6c3-1 10 3 10 3l-1-10c0-4 5-9 5-9l-22 6z" transform="matrix(1.25 0 0 1.3 259 -430)"/>
    <path fill="#dd8b59" fill-rule="evenodd" stroke="#512007" d="M387 517v2l24-6v-2l-24 6z" transform="matrix(1.25 0 0 1.3 259 -430)"/>
    <path fill="#b6b6b4" fill-rule="evenodd" stroke="#512007" d="M356 552s-6-1-6 0c0 2 3 3 3 4s-1 4 1 4 3-2 3-2v-5z" transform="matrix(1.25 0 0 1.3 259 -430)"/>
    <path fill="#dd8b59" fill-rule="evenodd" stroke="#512007" d="M388 537v2l21-3-1-1z" transform="matrix(1.25 0 0 1.3 259 -430)"/>
    <path fill="#fecf3e" fill-rule="evenodd" stroke="#512007" d="M363 541s0 2 2 2l3-2s1 3 4 3c3-1 5-4 5-4s0 2 2 2l3-3-18 2h-1zm0-17s-3 0-2 6c1 5 3 8 4 8 0 0 2-5 6-6 3-1 9 3 9 3l1-9a18 18 0 013-8l-21 6z" transform="matrix(1.25 0 0 1.3 259 -430)"/>
    <path fill="#dd8b59" fill-rule="evenodd" stroke="#512007" d="M412 539v2l21-3v-2l-21 3zm0-19v2l25-6v-2l-25 6z" transform="matrix(1.25 0 0 1.3 259 -430)"/>
    <path fill="none" stroke="#512007" d="M414 511v2l18-5 1-2c-2 1-18 6-19 5zm39 34l-18-29m-3 20l2-18" transform="matrix(1.25 0 0 1.3 259 -430)"/>
    <path fill="#fecf3e" fill-rule="evenodd" stroke="#512007" d="M389 510l4 3 3-3s0 4 2 3c3 0 3-3 3-3h3l2-5-17 5zm-1 8c0 1-3 6-2 10l3 8s5-4 9-5c3-1 9 3 9 3l-2-8c0-3 5-13 5-13zm0 21c0 1 1 3 3 3s3-2 3-2-1 3 2 3c4 0 5-4 5-4s0 2 3 1l6-4c-1 0-21 4-22 3z" transform="matrix(1.25 0 0 1.3 259 -430)"/>
    <use xlink:href="#l" width="992" height="496" transform="translate(-7 7)"/>
    <use xlink:href="#l" width="992" height="496" transform="translate(7 4)"/>
    <use xlink:href="#l" width="992" height="496" transform="translate(0 11)"/>
    <path id="l" fill="#be0f17" fill-rule="evenodd" stroke="#512007" stroke-width="1" d="M409 477a2 2 0 11-4 0 2 2 0 014 0z" transform="matrix(.04 -1.07 1.02 .04 252 668)"/>
    <path fill="none" stroke="#512007" d="M398 500l9 4 32 43m-15-43l8 4 2 6m-61-10l9 7 1 5m-42 30l33-26m-40 21l31-26m22 4l30 49m-4-29s3 12 7 14a86 86 0 018 4" transform="matrix(1.25 0 0 1.3 259 -430)"/>
    <path fill="none" stroke="#512007" d="M413 540s2 13 6 16l7 5" transform="matrix(1.25 0 0 1.3 259 -430)"/>
    <path fill="none" stroke="#512007" d="M391 439s3 19 10 24a950 950 0 0113 8" transform="matrix(1.25 0 0 1.3 256 -299)"/>
    <path fill="none" stroke="#512007" d="M391 439s7 15 14 19l15 10m-54-28c2 4 2 10 4 13a66 66 0 016 7m-9-20l6 13 16 17" transform="matrix(1.25 0 0 1.3 256 -299)"/>
    <path fill-rule="evenodd" stroke="#512007" d="M385 471a2 2 0 11-5 0 2 2 0 015 0zm10 5a2 2 0 11-3 0 2 2 0 013 0zm14 1a2 2 0 11-4 0 2 2 0 014 0zm12-4l-2 1-1-2 1-1 2 1zm9-6c1 1 0 1-1 1l-2-1 2-2 2 2z" transform="matrix(1.25 0 0 1.3 256 -299)"/>
    <path fill="red" fill-rule="evenodd" stroke="#512007" d="M374 404l-13 4 13 2v-6zm25-4l-9 3 9 2v-5zm25 3l-9 3 9 2v-5z" transform="matrix(1.25 0 0 1.3 256 -299)"/>
    <path fill="none" stroke="#512007" d="M414 471c0-5 8-31 8-31m-5 30l6-30m-3 28l4-28m-10 27l6-2m-4-2l4-2m-3-2a24 24 0 014-1m-4-3l5-1m-2-3h3m-3-4l4 1" transform="matrix(1.25 0 0 1.3 256 -299)"/>
    <path fill="none" stroke="#512007" d="M414 471c0-5 8-31 8-31m-5 31l6-31m-4 31l5-31m-10 27l6-2m-4-2l4-2m-3-2a24 24 0 014-1m-4-3l5-1m-2-3h3m-3-4l4 1" transform="matrix(1.25 0 0 1.36 225 -323)"/>
    <path fill="none" stroke="#512007" d="M414 471c0-5 8-31 8-31m-5 30l6-30m-3 28l4-28m-10 27l6-2m-4-2l4-2m-3-2a24 24 0 014-1m-4-3l5-1m-2-3h3m-3-4l4 1" transform="matrix(-1.25 0 0 1.32 1259 -307)"/>
    <path fill="#dd8b59" fill-rule="evenodd" stroke="#512007" d="M426 559h28v-2h-28zm2-8l27-4v-3l-27 5z" transform="matrix(1.25 0 0 1.3 259 -430)"/>
    <use xlink:href="#l" width="992" height="496" transform="translate(0 6)"/>
  </g>
  <path fill="#012169" d="M0 0h320v240H0z"/>
  <path fill="#FFF" d="M38 0l122 91L281 0h39v31l-120 90 120 89v30h-40l-120-89-119 89H0v-30l120-89L0 32V0z"/>
  <path fill="#C8102E" d="M212 141l108 79v20l-135-99zm-92 10l3 17-96 72H0zM320 0v2L196 96l1-22 98-74zM0 0l120 88H90L0 21z"/>
  <path fill="#FFF" d="M121 0v240h80V0zM0 80v80h320V80z"/>
  <path fill="#C8102E" d="M0 97v48h320V97zM137 0v240h48V0z"/>
</svg>
