<svg xmlns="http://www.w3.org/2000/svg" xmlns:xlink="http://www.w3.org/1999/xlink" id="flag-icons-gb-nir" viewBox="0 0 640 480">
  <path fill="#fff" d="M0 0h640v480H0z"/>
  <rect fill="#fff" fill-rule="evenodd" rx="0" ry="0"/>
  <rect id="a" width="640" height="96" y="192" fill="#c00" fill-rule="evenodd" rx="0" ry="0"/>
  <use xlink:href="#a" width="600" height="300" transform="matrix(0 .75 -1 0 560 0)"/>
  <path fill="#ebeae3" fill-rule="evenodd" stroke="#000" d="M355 147c3-5 1-8-3-9 0 0-15 4-31 5s-35-4-35-4c-4 2-3 7-1 10 0 0 17 6 36 5a111 111 0 0030-5l4-2z"/>
  <path fill="#fff" stroke="#161111" stroke-width="2" d="M320 358l-31-65-71 6 40-59-40-59 71 6 31-64 31 64 71-6-40 59 40 59-71-6z"/>
  <path fill="#b02320" fill-rule="evenodd" stroke="#000" d="M320 122c38 7 37 8 37 8l10-30s1-6-2-9-10-2-10-2-1-5-5-6c-3-1-16 5-20 6l-11 2c-6 0-16-5-17-6-2-1-5-2-7-1-3 0-5 0-7 2l-1 4-5-1c-3 0-5 0-7 2l-3 6 4 8v12l7 12 37-7z"/>
  <path fill="#ebeae3" fill-rule="evenodd" stroke="#000" d="M356 139l2 4-1 1v2l-1 1-1 1-4 1s-15-5-31-5-35 6-35 6l-2-2v-2l-1-1v-3-1l2-2s17-6 36-6 36 6 36 6z"/>
  <path fill="none" stroke="#000" d="M276 102s0-3 1-5a4 4 0 015-1l1 2 2-1"/>
  <path fill="#fc0" fill-rule="evenodd" stroke="#000" d="M370 107l-6 12h-8l-3 1 5-12 1 4 4 3-1-5a56 56 0 00-3-7l11 4z"/>
  <path fill="#121116" stroke="#121116" stroke-linejoin="round" d="M317 69h6v28h-6z"/>
  <path fill="#f6ca1f" fill-rule="evenodd" stroke="#000" d="M277 120l4 9s18-7 39-7c31 1 40 7 40 7l5-11-4 2-3 2-4 2-5-1-5-3-2-5-4 4-6 1-7-1-5-8s-4 8-10 9c-8 1-12-4-12-4s-3 7-8 8c-7 2-13-4-13-4z"/>
  <g stroke-width="2">
    <path fill="#eee" stroke="#1e1e1e" stroke-linejoin="round" stroke-width="1" d="M348 66c0 2-1 3-3 3a3 3 0 01-3-3 3 3 0 013-4 3 3 0 013 4"/>
    <path fill="#a3afb8" fill-rule="evenodd" d="M344 67l3-1-1-2s2 1 1 2l-1 2a3 3 0 01-2-1z"/>
    <path fill="#eee" stroke="#1e1e1e" stroke-linejoin="round" stroke-width="1" d="M340 70c0 1-1 3-3 3a3 3 0 01-3-3 3 3 0 013-4 3 3 0 013 3"/>
    <path fill="#a3afb8" fill-rule="evenodd" d="M335 71l3-1v-2l1 2-2 2a3 3 0 01-2-1z"/>
    <path fill="#eee" stroke="#1e1e1e" stroke-linejoin="round" stroke-width="1" d="M358 63c0 2-2 4-3 4a3 3 0 01-4-4 3 3 0 014-3 3 3 0 013 3"/>
    <path fill="#a3afb8" fill-rule="evenodd" d="M353 65s3 0 3-1v-2l1 2-2 2a3 3 0 01-2-1z"/>
    <path fill="#eee" stroke="#1e1e1e" stroke-linejoin="round" stroke-width="1" d="M369 66c0 1-2 3-4 3a3 3 0 01-3-3 3 3 0 013-4 3 3 0 014 3"/>
    <path fill="#a3afb8" fill-rule="evenodd" d="M364 67l3-1-1-2 2 2-2 2a3 3 0 01-2-1z"/>
    <path fill="#eee" stroke="#1e1e1e" stroke-linejoin="round" stroke-width="1" d="M377 72c0 2-2 4-4 4a3 3 0 01-3-4 3 3 0 013-3 3 3 0 014 3"/>
    <path fill="#a3afb8" fill-rule="evenodd" d="M372 74l3-1v-3l1 3-2 2-2-1z"/>
    <path fill="#eee" stroke="#1e1e1e" stroke-linejoin="round" stroke-width="1" d="M380 83c0 2-1 4-3 4a3 3 0 01-3-4 3 3 0 013-3 3 3 0 013 3"/>
    <path fill="#a3afb8" fill-rule="evenodd" d="M375 85l3-1v-3l1 3-2 2a3 3 0 01-2-1z"/>
    <path fill="#eee" stroke="#1e1e1e" stroke-linejoin="round" stroke-width="1" d="M379 94c0 2-1 4-3 4a3 3 0 01-4-3 3 3 0 014-4 3 3 0 013 3"/>
    <path fill="#a3afb8" fill-rule="evenodd" d="M374 96s3 0 3-1v-2l1 2-2 2a3 3 0 01-2-1z"/>
    <path fill="#eee" stroke="#1e1e1e" stroke-linejoin="round" stroke-width="1" d="M374 104c0 2-1 4-3 4a3 3 0 01-4-4 3 3 0 014-3 3 3 0 013 3"/>
    <path fill="#a3afb8" fill-rule="evenodd" d="M369 106s3 0 3-1v-3l1 3-2 1a3 3 0 01-2 0z"/>
    <path fill="#eee" stroke="#1e1e1e" stroke-linejoin="round" stroke-width="1" d="M332 72c0 2-1 4-3 4a3 3 0 01-3-4 3 3 0 013-3 3 3 0 013 3"/>
    <path fill="#a3afb8" fill-rule="evenodd" d="M327 74s3 0 3-1v-2l1 2-2 2-2-1z"/>
    <g stroke-width="3">
      <path fill="#eee" stroke="#1e1e1e" stroke-linejoin="round" stroke-width="1" d="M322 72a3 3 0 01-3 2 3 3 0 01-2-2 3 3 0 012-3 3 3 0 013 3"/>
      <path fill="#a3afb8" fill-rule="evenodd" d="M318 73l3-1-1-2 1 2-1 1a3 3 0 01-2 0z"/>
    </g>
    <g stroke-width="3">
      <path fill="#eee" stroke="#1e1e1e" stroke-linejoin="round" stroke-width="1" d="M322 75a3 3 0 01-3 3 3 3 0 01-2-3 3 3 0 012-3 3 3 0 013 3"/>
      <path fill="#a3afb8" fill-rule="evenodd" d="M318 77l3-1-1-2 1 2-1 1a3 3 0 01-2 0z"/>
    </g>
    <g stroke-width="3">
      <path fill="#eee" stroke="#1e1e1e" stroke-linejoin="round" stroke-width="1" d="M322 80a3 3 0 01-2 3 3 3 0 01-3-3 3 3 0 013-3 3 3 0 012 3"/>
      <path fill="#a3afb8" fill-rule="evenodd" d="M318 82l3-1v-2 2l-1 1a3 3 0 01-2 0z"/>
    </g>
    <g stroke-width="3">
      <path fill="#eee" stroke="#1e1e1e" stroke-linejoin="round" stroke-width="1" d="M323 86a3 3 0 01-3 3 3 3 0 01-3-3 3 3 0 013-3 3 3 0 013 3"/>
      <path fill="#a3afb8" fill-rule="evenodd" d="M318 87l3-1v-2l1 2-2 2a3 3 0 01-2-1z"/>
    </g>
    <path fill="#eee" stroke="#1e1e1e" stroke-linejoin="round" stroke-width="1" d="M323 93c0 2-1 4-3 4a3 3 0 01-4-4 3 3 0 014-3 3 3 0 013 3"/>
    <path fill="#a3afb8" fill-rule="evenodd" d="M318 95l3-1v-3l1 3-2 2a3 3 0 01-2-1z"/>
    <path fill="#eee" stroke="#1e1e1e" stroke-linejoin="round" stroke-width="1" d="M323 109c0 1-2 3-4 3a3 3 0 01-3-3c0-2 2-4 4-4a3 3 0 013 3"/>
    <path fill="#a3afb8" fill-rule="evenodd" d="M318 110l3-1v-2 2l-1 2-2-1z"/>
    <path fill="#eee" stroke="#1e1e1e" stroke-linejoin="round" stroke-width="1" d="M314 72c0 2-2 4-4 4a3 3 0 01-3-4 3 3 0 013-3 3 3 0 014 3"/>
    <path fill="#a3afb8" fill-rule="evenodd" d="M309 74l3-1-1-3s2 2 1 3l-1 2a3 3 0 01-2-1z"/>
    <path fill="#eee" stroke="#1e1e1e" stroke-linejoin="round" stroke-width="1" d="M305 69c0 2-1 3-3 3a3 3 0 01-3-3 3 3 0 013-3 3 3 0 013 3"/>
    <path fill="#a3afb8" fill-rule="evenodd" d="M300 71s3 0 3-1v-3l1 3-2 1h-2z"/>
    <path fill="#eee" stroke="#1e1e1e" stroke-linejoin="round" stroke-width="1" d="M297 65c0 2-1 4-3 4a3 3 0 01-4-4 3 3 0 014-3 3 3 0 013 3"/>
    <path fill="#a3afb8" fill-rule="evenodd" d="M292 67l3-1v-3l1 3-2 2a3 3 0 01-2-1z"/>
    <path fill="#eee" stroke="#1e1e1e" stroke-linejoin="round" stroke-width="1" d="M288 63c0 2-1 4-3 4a3 3 0 01-4-4 3 3 0 014-3 3 3 0 013 3"/>
    <path fill="#a3afb8" fill-rule="evenodd" d="M283 65l3-1v-3l1 3-2 1a3 3 0 01-2 0z"/>
    <path fill="#eee" stroke="#1e1e1e" stroke-linejoin="round" stroke-width="1" d="M277 66c0 2-1 3-3 3a3 3 0 01-4-3 3 3 0 014-4 3 3 0 013 4"/>
    <path fill="#a3afb8" fill-rule="evenodd" d="M272 68l3-2v-2l1 2c0 2-1 2-2 2a3 3 0 01-2 0z"/>
    <path fill="#eee" stroke="#1e1e1e" stroke-linejoin="round" stroke-width="1" d="M270 74c0 1-2 3-4 3a3 3 0 01-3-3 3 3 0 013-4 3 3 0 014 3"/>
    <path fill="#a3afb8" fill-rule="evenodd" d="M265 75l3-1-1-2c1 0 2 1 1 2l-1 2a3 3 0 01-2-1z"/>
    <path fill="#eee" stroke="#1e1e1e" stroke-linejoin="round" stroke-width="1" d="M266 84c0 2-1 4-3 4a3 3 0 01-3-4 3 3 0 013-3 3 3 0 013 3"/>
    <path fill="#a3afb8" fill-rule="evenodd" d="M262 86l3-1-1-3s2 2 1 3l-1 1a3 3 0 01-2 0z"/>
    <path fill="#eee" stroke="#1e1e1e" stroke-linejoin="round" stroke-width="1" d="M268 95c0 2-2 4-3 4a3 3 0 01-4-4 3 3 0 013-3 3 3 0 014 3"/>
    <path fill="#a3afb8" fill-rule="evenodd" d="M263 97s3 0 3-1v-3l1 3-2 2a3 3 0 01-2-1z"/>
    <path fill="#eee" stroke="#1e1e1e" stroke-linejoin="round" stroke-width="1" d="M273 106c0 1-1 3-3 3a3 3 0 01-4-3 3 3 0 014-4 3 3 0 013 3"/>
    <path fill="#a3afb8" fill-rule="evenodd" d="M268 107l3-1v-2l1 2-2 2a3 3 0 01-2-1z"/>
    <g stroke-width="3">
      <path fill="#eee" stroke="#1e1e1e" stroke-linejoin="round" d="M431 247a7 7 0 01-7 7 7 7 0 01-6-7 7 7 0 016-6 7 7 0 017 6" transform="matrix(.31597 -.08466 .13499 .50378 109 30)"/>
      <path fill="#a3afb8" fill-rule="evenodd" d="M276 121l2-2-1-2 1 2v2h-2z"/>
    </g>
    <g stroke-width="3">
      <path fill="#eee" stroke="#1e1e1e" stroke-linejoin="round" d="M431 247a7 7 0 01-7 7 7 7 0 01-6-7 7 7 0 016-6 7 7 0 017 6" transform="matrix(.31758 .0784 -.125 .50636 260 -40)"/>
      <path fill="#a3afb8" fill-rule="evenodd" d="M362 120l2-1 1-2v2l-1 1h-2z"/>
    </g>
  </g>
  <path fill="#b3a192" fill-rule="evenodd" stroke="#000" d="M317 54v5l-7 2c-1 3 2 7 2 7s2-2 8-2l8 1 1-4v-3h-7v-6h-5z"/>
  <path fill="#f0ddcb" stroke="#121116" stroke-linejoin="round" d="M326 63l-1 1-1-1 1-1 1 1m3 0l-1 2-1-2 1-1 1 1m-5 0l-2 1-1-1 1-2 2 2m-6 0l-1 1-2-1 2-2 1 2m-3 0l-1 1-2-1 2-1 1 1m6-4l-1 1a1 1 0 01-2-1l1-1 2 1m0-4l-1 1a1 1 0 01-1-1l1-1 1 1m0 2l-1 1-1-1 1-1 1 1m-9 7l-2 1-1-1 2-1 1 1"/>
  <path fill="#916c68" stroke="#4d3126" stroke-linejoin="round" d="M321 62l-2 2a1 1 0 01-1-2l1-1 2 1"/>
  <g stroke-width="3">
    <path fill="#eee" stroke="#1e1e1e" stroke-linejoin="round" stroke-width="1" d="M322 46a3 3 0 01-2 2 3 3 0 01-3-2 3 3 0 013-3 3 3 0 012 2"/>
    <path fill="#a3afb8" fill-rule="evenodd" d="M318 47l3-1-1-2 1 2-1 1a2 2 0 01-2 0z"/>
  </g>
  <path fill="#fc0" fill-rule="evenodd" stroke="#000" d="M280 130l3 4 1 7s24-7 35-6l38 6 1-5 2-7s-25-8-41-7a116 116 0 00-27 4 259 259 0 00-12 4zM315 36h10l-3 3-1 4 4-1a79 79 0 014-3v13l-4-3a14 14 0 00-3-1v3l5 6h-15l5-6 1-3h-4l-3 4V40l3 3h3v-4l-2-3z"/>
  <path fill="#fc0" fill-rule="evenodd" stroke="#121116" d="M314 77s-7-1-13-4-13-8-22-6c-1 1-8 4-11 14a26 26 0 002 18 50 50 0 006 8l3-3s-9-8-8-18 6-13 6-13 7-5 15 0a80 80 0 0026 9l-4-5z"/>
  <path fill="#fc0" fill-rule="evenodd" stroke="#000" d="M275 115l-4-7 11-5-3 6-1 6 2-3c2-1 3-7 3-7l5 16-4-3-5 1-3 1-1-5z"/>
  <path fill="#fc0" fill-rule="evenodd" stroke="#121116" d="M327 76s7 0 13-3c6-4 12-8 21-6 2 1 9 4 12 13a26 26 0 01-3 19 117 117 0 01-3 6l-5-2s8-7 7-17-6-13-6-13-6-5-15 0c-8 5-17 7-17 7l-8 2 4-6z"/>
  <path fill="#fc0" stroke="#121116" stroke-linejoin="round" d="M323 69h3v28h-3zm-10 0h4v28h-4z"/>
  <path fill="#fc0" stroke="#121116" stroke-linejoin="round" d="M329 63c0 5-4 9-10 9-5 0-9-4-9-9s4-9 9-9c6 0 10 4 10 9"/>
  <path fill="#fc0" fill-rule="evenodd" stroke="#000" d="M311 97h17l-4 4-2 5c1 0 3 0 5-2a26 26 0 004-3v15l-4-3-4-1h-6l-4 1a29 29 0 00-4 3v-15s1 3 4 4l4 1s0-4-2-5a33 33 0 00-4-4z"/>
  <path fill="#f6ca1f" fill-rule="evenodd" stroke="#000" d="M320 109s3 5 5 8c2 2 7 3 9 2 5-1 9-5 9-5s0 4 3 7c3 2 6 3 8 2l10-6 2 1-9 6c-2 1-9 1-11-1-3-2-4-6-4-6s-1 3-4 4h-11c-3-1-6-5-7-6v-2s-2 6-6 7a19 19 0 01-12 1c-3-1-3-4-3-4s-1 6-8 8c-8 1-15-4-15-4l1-2s5 5 12 5c6-1 9-10 9-10s3 5 11 5 10-10 10-10h1z"/>
  <g fill="#fc0" stroke="#000">
    <path fill-rule="evenodd" d="M301 112v-4h3l1 2v4l2 1c1 0 2-1 1-2h0v-7c0-3-1-4-2-5l-5 1-3 4v8h3v-2zM295 114l-2-3a3 3 0 00-3 0v3l1 3-1 2-2-1 1-1-4-6 1-5c1-1 3-2 4-1 2 0 5 3 5 3l3 7-2 1-1-2z"/>
    <path fill-rule="evenodd" d="M294 92s-3 5-2 9l5 12v1h2l-1-1 1-13a33 33 0 00-5-8zm5 23l3 2 4 1-1-3h-1l-1 1-3-2-1 1zm-2 0l-2 4c-1 2-2 2-3 2l-1-3h3l2-3h1z"/>
    <path stroke-linejoin="round" d="M302 113c1 1-1 2-4 2h-5c0-1 2-2 5-2h4"/>
  </g>
  <g fill="#fc0" stroke="#000">
    <path fill-rule="evenodd" d="M346 113l2-3h2l1 3-2 3c1 1 0 2 2 2l1-1v-1l3-6c1-2 1-4-1-5-1-1-3-2-4-1-2 0-5 3-5 3l-3 7 3 1 1-2z"/>
    <path fill-rule="evenodd" d="M340 113l-1-3c-1-2-2-2-3-1l-1 2v4l-1 1-2-1 1-1-1-7 2-5 5 1 3 4 1 8h-3v-2z"/>
    <path fill-rule="evenodd" d="M347 92s-5 4-5 8v13l-1 1h2v-1l5-12a32 32 0 00-1-9zm-4 23l2 4c2 1 3 2 4 1v-2l-1-1h-1a78 78 0 01-3-2h-1zm-2 0l-3 2c-2 2-3 2-3 1v-3l1 1h1l3-2 1 1z"/>
    <path stroke-linejoin="round" d="M347 115h-5l-4-2h5l4 2"/>
  </g>
  <path fill="#cca715" fill-rule="evenodd" stroke="#000" d="M279 130s1 2 2 1 17-8 40-8 37 7 38 7h2c1-1-1-2-1-2s-15-7-40-7-41 7-41 7v2z"/>
  <path fill-rule="evenodd" d="M308 139l2-2 2 1h-2l-1 1 2-1h2l-3 1c-1 1 2 1 2 1h-5l-2-1-2 1 2-2 2 1h1zm-17 4l2-3h2l-2 1-1 1 2-1a69 69 0 002 0l-3 2h2l-5 1-2-1-2 2 2-2h3zm31-4l2-3 3 1h-3l-1 1h4l-3 1 2 1-5-1-2-1-2 1 2-2 2 1 1 1zm14 1l2-2 3 1h-3l-1 1h4-3c-1 1 2 2 2 2l-5-1c0-1-1-2-2-1h-2l2-1h2l1 1zm14 3l2-2 2 1h-2l-1 1h3-2c-1 1 1 1 1 1l-4-1-1-1-2 1 2-2 1 1 1 1z"/>
  <path fill="#0f6545" stroke="#000" stroke-linejoin="round" d="M305 130l-4 4-6-2c0-2 2-4 4-4 3-1 6 0 6 2z"/>
  <path fill="#cecfc1" d="M299 129l-1 1h-1l1-1h1z"/>
  <path fill="#0f6545" stroke="#000" stroke-linejoin="round" d="M344 132c0 1-3 2-6 1l-4-4c1-2 4-3 6-2 3 1 5 3 4 5z"/>
  <path fill="#cecfc1" d="M339 129h-1l-1-1 1-1 1 1z"/>
  <path fill="#1f2d86" stroke="#000" stroke-linejoin="round" d="M315 126h10v5h-10z"/>
  <path fill="#707c8b" d="M319 127l-1 1-1-1h2z"/>
  <path fill="#9f1209" fill-rule="evenodd" stroke="#000" d="M286 131l2 5-3 2h-3c-2-1-3-3-2-4l6-3z"/>
  <path fill="#8f322f" d="M283 135l-1 1-2-1 2-2 1 2z"/>
  <path fill="#e2a494" d="M282 134a1 1 0 010 1h-1a1 1 0 010-1 1 1 0 010-1h1v1z"/>
  <path fill="#9f1209" fill-rule="evenodd" stroke="#000" d="M354 132l-2 4 4 2h3v-4l-5-2z"/>
  <path fill="#aa675d" d="M359 135l-2 1-1-1 1-1 2 1z"/>
  <path fill="#e2a494" d="M357 135v1a1 1 0 01-1 0 1 1 0 010-1v-1a1 1 0 011 1z"/>
  <path fill="#f5d8bc" d="M329 126a1 1 0 01-1 1 1 1 0 01-1-1 1 1 0 011 0h1zm4 1a1 1 0 01-1 0 1 1 0 01-1 0 1 1 0 011-1l1 1zm-2 1l-1 1-1-1 1-1 1 1zm2 3a1 1 0 01-1 1 1 1 0 01-1-1 1 1 0 011-1l1 1zm-4 0a1 1 0 01-1 0 1 1 0 01-1 0 1 1 0 011-1l1 1zm-21-4a1 1 0 01-1 1 1 1 0 01-1-1 1 1 0 011 0 1 1 0 011 0zm4-1a1 1 0 01-1 1 1 1 0 010-1 1 1 0 011 0zm-2 3v1a1 1 0 01-1-1v-1a1 1 0 011 1zm3 2a1 1 0 01-1 1 1 1 0 010-1 1 1 0 010-1 1 1 0 011 1zm-4 0a1 1 0 01-1 1 1 1 0 01-1 0 1 1 0 011-1 1 1 0 011 0zm-19 0a1 1 0 01-1 1 1 1 0 01-1 0 1 1 0 011-1 1 1 0 011 0zm4-1a1 1 0 01-1 1 1 1 0 01-1-1 1 1 0 011-1 1 1 0 011 1zm-2 2a1 1 0 010 1 1 1 0 01-1 0 1 1 0 010-1 1 1 0 011 0zm3 2a1 1 0 010 1l-1-1c0-1 0 0 0 0a1 1 0 011 0zm-4 1a1 1 0 010 1 1 1 0 01-1 0 1 1 0 010-1 1 1 0 011 0zm56-6l-1 1a1 1 0 010-1l1-1v1zm5 1l-1 1a1 1 0 01-1-1h1l1 1zm-3 2a1 1 0 01-1 0 1 1 0 01-1-1 1 1 0 011 0l1 1zm2 3l-1 1a1 1 0 01-1-1l1-1 1 1zm-5-1h-1a1 1 0 010-1h1v1z"/>
  <path fill="none" stroke="#000" d="M356 89l-4 2a7 7 0 01-5-2v-2M313 93l-5-1-3-2c-2 0-4 2-4 3 1 2 2 2 3 2 2 0 1-3 0-2-2 0-1 1-1 1M287 90s1 2 4 1c3 0 4-1 4-2l-1-2-2-1"/>
  <g stroke="#161111" stroke-width="2">
    <path fill="#c00" d="M339 270c3-2 7-5 9-11l5-20c2-9 7-18 1-17-5 0-7 6-9 10-1 1-4 4-4 6l-2-21v-20l-1-11-4-3c-2 0-4 2-4 4v3l-1 8v20l-2-21v-10-7c-1-3-2-5-4-5s-4 1-5 5v15l-1 25-1-14-1-9v-10c0-1-1-6-4-6-2 0-3 1-4 5v35l-1-7-1-9-1-9c0-2 0-4-2-4-3 0-4 1-4 5l-1 11-2 21-1 9a70 70 0 001 21c2 7 7 10 6 15v17c0 3 4 4 10 2 12-2 18 3 27-1-1-10 1-17 1-20zm-6-24c2-7 5-9 8-11"/>
    <path fill="none" d="M307 239l11-3 13-4 6-1m-36 42h2l2 1a107 107 0 014 0l4-1m10 0l2 1h7c3 0 6-3 7-3"/>
  </g>
</svg>
