<svg xmlns="http://www.w3.org/2000/svg" id="flag-icons-gb-wls" viewBox="0 0 640 480">
  <path fill="#00ab39" d="M0 240h640v240H0z"/>
  <path fill="#fff" d="M0 0h640v240H0z"/>
  <g stroke="#000">
    <path fill="#d21034" d="M419 71h0zm0 0a694 694 0 00-112 75c-17 15-12 27-13 40 1 9-2 17-7 22l-38 8-4-11c2-5 6-8 15-4 1-7-5-10-11-12-2-2-5-3-5-9-1-14 21 1 21 1s-1-14-11-17c-5-2-7-7-5-11 4-9 12 0 19 1-1-6-2-10-7-15-3-1-9-3-9-5 0-4 6-5 14-4-2-6-7-9-15-11l-5-8c-2-4-3-5 2-12l15-10-5-1 2-16c-5 6-11 5-16 8 0 0-16 3-21 9l-39-2c-9 1-16 4-17 12-19 2-39 0-54 18 10 0 19-2 30-1 0 0 9 0 11 10l4 1 3 3 2-4 3 2 1-4 3 2v-5l4 3v-7s16 0 21 10c0 0-44 8-86 5l12-6c-16-4-30-6-44-17 5 19 32 42 37 42l-5-10 46 2c2 6 1 11 5 16 0 0-2 8 3 12l7-17 4 7c3-15 20-17 20-17l3 8c-5 1-12 11-8 17-4 0-10 10-8 15-3 3-10 7-8 19-6 1-9 12-7 23-9 8-7 23 1 29-3 3-5 5-5 9-3-2-6-1-8 1-3-4-9-7-13-3-1-5-7-10-13-9a12 12 0 00-9-13s-2-23-8-30c-1-4 0-7 6-10 5-3 7-6 6-14 2-6 4-12-3-16 0 7-2 10-5 13-3 0-4 4-6 5-3-4 6-10-1-20 0 0-5-12-16-11 5 3 8 8 8 13a41 41 0 00-2 30c-5-7-8-21-12-23-3-1-5-9-18-6 6 1 8 6 9 9-3 2-2 7 1 10 0 8 4 13 11 15l-3 32c-3 0-7 10-9 11-3 1-7 6-2 7-2 6-3 9-12 11 0 0 9 5 17-4 8 0 5-10 9-14 0-1 3-2 6-10 1 7 9 30 26 42 16 16 28 32 28 54a54 54 0 0013-23 89 89 0 0130-4c-1 4-4 8-1 10-7 3-9 8-6 14-8 5-8 8-8 17-15 19-24 18-38 13-5-3-12-7-15-4-6-5-15-5-17 4 5-4 8-3 11 1 0 2-1 4 2 5l-4 4c-7-1-16-1-18 8 4-3 11-3 17 0l4 1v4s-9-1-11 14c8-9 14-7 14-7 3 5 15 4 24-4 12-7 16 3 24-3 6-5 14-2 19 4 6 2 13 4 18 0 0 0 6-4 12 2 0-7-5-11-12-11l-2-2c-6-1-14-1-19-4a58 58 0 0114-27c9-10 16-14 28-30-1 9 6 19 9 27 0 0 7-11 8-20 1 0 9-4 13-8 8 5 20-4 28-11 5 2 9 1 15 0-5 9 3 18 15 22 1 8 9 10 22 10 1 5 8 6 8 6-5 2-7 4-7 9-5 0-9 2-10 7-7 1-14 1-20 4-6-1-14-3-19-8-2-2-3-6-7-7-3-3-6-2-7 1-3-2-14-3-16 7 5-4 10-5 13-1-2 4 4 5 9 7 4 0 10 3 12 9a20 20 0 01-16-3 11 11 0 00-13-1c-5-2-15 3-15 11 4-4 8-6 12-3-2 0-1 0-1 2l10 5c-5 2-10 4-7 13 0 0 4-8 13-5 0 0 1 3 3 1 4-5 13-7 21-8 6 0 13-2 18 2 5-3 11-5 16-1 7 2 12 10 20 7 4-3 9-3 14 2 0-7-5-9-13-11l-5-3c-5-1-10 0-15-3a92 92 0 0057-42l13 4 9 3c0-8-4-18-20-19l-21-8c-4-4-6-14-1-20 6-5 7-5 11-11 4 0 8 4 12 4 2 6 14 11 21 10 5 4 13 6 23 3a18 18 0 0020 3c2 2 7 4 12 2 1 0 3 6 9 8-3 3-1 13 1 17a17 17 0 00-1 13c-5 4-7 6-4 13-8 12-17 13-25 10l-10-6-9-10c-2-2-6-2-6 1 0 0-13-2-14 8 5-5 13 0 13 0s-2 1-1 3a146 146 0 0125 10 341 341 0 00-8-3 33 33 0 00-11-3c-4 0-9-1-11 3-5 2-12 3-12 12 3-5 8-5 13-4v1c6 3 5-1 11-1a44 44 0 0115 2c-4 1-11 1-13 4-1 1-3 1-2 3 0 0-9 0-11 12 9-5 16-5 16-5h3l11-7s10-5 15 1c4 2 8 2 13-1 8-3 16-4 24 1l7 5 3-2s8-3 14 5c-3-13-11-13-11-13l-2-2-13-5c-2-4-6-8-2-13 5-23 10-41 1-64 9 4 15 15 26 11 0-10-35-27-61-42 43-2 95-34 75-74l9-30c5 9 14 16 22 19-7-13-10-52-7-79a627 627 0 01-57 60c10 3 19 1 29 0l-8 17c-27-16-58-4-58 17 0 24 30 27 48 19-4 22-55 14-55 14-18-6-35-5-54-5 4-12 26-23 43-18-23-26 3-59 35-69-35-11-5-38 22-57 0 0-76 31-83 31-21-1-15-27-7-40zm-237 30l6 1 7 2c-1 3-5 6-9 6s-6-3-7-8l3-1zm318 90c5 0 10 2 16 8-3 8-27 12-28 0-1-4 4-8 12-8z"/>
    <path fill="none" stroke-linejoin="round" d="M207 171l4 5m0 1s0 7 1 7m-3 4l4 6m-11 2l5 5m4-4l5 8m-10-3s1 10 2 10m-9 8l4 7m4-14s2 9 4 9m2-14s4 6 5 5m-1 2l4 8m-10-1l3 9m-11-5s3 10 6 9m-7 5s0 5 3 5m2-8l2 4m5-10l2 3m5-10l4 4m-19-51c0 4 7-2 10-6m-13 21s8-5 14-14m-17 27c6-1 16-13 18-20m-19 32c2 1 21-12 21-22m-21 33s17-4 24-23m-25 37s28-16 29-28m185 56s-1 14-16 16m21 9s13-15 10-19m21 5s0 10-8 17m25-14s0 12-5 17m20-10s-6 12-8 13m8 8s8 2 10-3m-8 20s7 1 11-6m-12 19s6 5 10-1m-94-95s-1 25 35 31c40 11 58 5 61 49-2 17-4 36-16 29m-118-86s6 11 13 10c9-3 12 3 12 3m-49-2s15 7 28-5m-26-6c1 18-20 28-29 26m30 41s11-7 9-12m-32 2c0-1 19-2 23-9m-32-19s27 0 29 5m7-21s-26 45 22 45m-50-46s-5 17-13 23m-15-29s10 19 0 29m-25-23s3 27-3 34m-10-33s1 16-4 22 2 19 2 19m-61 8s4 6 9 4m-3-18s8 4 11 2m-2-30s-12 3-8 17c7 6 14 5 14 5m-30 37s2 11 9 3l26-53m8-6s-8-6-8 3c0 5 3 7 3 7 0 4 4 9 6 4s0-7 0-7m4-9c-7 0-11 16 3 6m5-11s-2 2-5-1c-1-2-7 12 3 13 1-4 6-6 6-6m5-13l-6 1c-5 1-4 13 3 12l4-6m-40-23s-17 26 9 33m198-71s-10 8-1 22c-31-1-47 14-49 23-39-2-32 9-45 13-17-14-42-6-40 8-12-16-29-8-31-4-3 4-2-20-2-20s-11 5-19 14v-19c-10 2-19 2-29 1m-26-7s14 8 32-3m-33-26s11 10 32 7m-25-30s2 9 26 9m-18-27s9 11 21 9m-13-25s3 6 16 7m-8-25s7 8 15 7m26-69s3-3 8-1m-10 18s-10-1-9-4c1-5 10-8 10-8s13-8 14-11m-56 44l12 24 6-9 3 6 5-9 8 6-3-11 7-1s-2-5-8-6l8-5s-4-4-9-4l4-7-5-1s12 4 21-1m-23-19s-1 5-3 7m-44 6s8-2 13-1l13 3s9-1 12-4m-57 7l-1 6-6 4m11-18s5 6 5 10c0 3-4 6-4 6m-51 25l-5-8 5-2m90 121c-4-5 3-84 18-104-5 37 12 75 16 75m-79-97s7 2 21-9m19 27h10m300-62s-167 78-169 82c28-9 147-29 150-27-7 2-152 35-159 43 37-1 112 12 124 24-25-6-102-17-126-12 17 4 83 47 83 54-10-10-89-43-92-39 18 10 44 51 44 61-6-9-52-58-54-55 5 7 14 65 9 68 0-7-17-58-19-59-4 1-26 62-22 67-3-20 1-63 6-61-10 2-41 43-38 50 1-10 2-17 20-52-20 1-61 27-68 36 6-16 41-44 56-46m72-61c18-10 72-29 108-44m-142 97s12 0 24-33c12-45 105-94 107-104M128 253s-3 6-6 7m19 2l-4 10m17-7s3 10 1 15m-36-40c-10 5 5 39 50 42m-8-18s-1 6 8 18c-3 13 10 24 15 25m-26-164l1-3 2 4 2-1 2-4 1 4h3l1-4 2 4h2l2-5 3 4 1-1 1-5 3 4 1-1 2-5 2 4h1l2-5 2 4m-39 7l19-1c6 0 16-8 27-5m-85 46s3 6 7 3m-15 1s-6 16 2 20m-10-38s0 4 8-2m-33 87s7 2 6 7m-3-81s4 2 7-4m35 190c6-1 7 2 13 2s13-3 21-5m53 15s-3 6-1 9m-87-8s10-8 15-3l7 1m-17-21s2 6-6 5m-2 9s5 3-1 7m4 6s7 1 3 7m224-49s19 2 20 3c2-2 19-16-2-18a19 19 0 01-18 15zm-7 9c7 6 4 9 27-6m-37 13s11 12 18-2m-38 6l-14 8m-26 10s9-7 13-3 21-4 21-4m-27-25s3 6-3 7m-9 12s3 5-3 7m10 8s9 0 6 7m78-8s-5 4-1 9m73-39s6 2-1 7m-6 10s4 4 1 8m11 9s6 2 5 7m78-11s-5 3-2 8m-86-153c12-1 29 25 38 30m51-67s6 5 1 18m11-38c1 1 8 5 12 13m4-53l-8 23m17-24s-1 20-4 24m-33 37c-3 8-27 12-28 0-1-6 14-15 28 0z"/>
    <path stroke-linejoin="round" d="M182 101l10 2s-7 9-10-2z"/>
  </g>
</svg>
