<svg xmlns="http://www.w3.org/2000/svg" id="flag-icons-gr" viewBox="0 0 640 480">
  <path fill="#0d5eaf" fill-rule="evenodd" d="M0 0h640v53H0z"/>
  <path fill="#fff" fill-rule="evenodd" d="M0 53h640v54H0z"/>
  <path fill="#0d5eaf" fill-rule="evenodd" d="M0 107h640v53H0z"/>
  <path fill="#fff" fill-rule="evenodd" d="M0 160h640v53H0z"/>
  <path fill="#0d5eaf" d="M0 0h267v267H0z"/>
  <path fill="#0d5eaf" fill-rule="evenodd" d="M0 213h640v54H0z"/>
  <path fill="#fff" fill-rule="evenodd" d="M0 267h640v53H0z"/>
  <path fill="#0d5eaf" fill-rule="evenodd" d="M0 320h640v53H0z"/>
  <path fill="#fff" fill-rule="evenodd" d="M0 373h640v54H0z"/>
  <g fill="#fff" fill-rule="evenodd">
    <path d="M107 0h53v267h-53z"/>
    <path d="M0 107h267v53H0z"/>
  </g>
  <path fill="#0d5eaf" d="M0 427h640v53H0z"/>
</svg>
