<svg xmlns="http://www.w3.org/2000/svg" id="flag-icons-hk" viewBox="0 0 640 480">
  <defs>
    <clipPath id="a">
      <path d="M-89 0h683v512H-89z"/>
    </clipPath>
  </defs>
  <g clip-path="url(#a)" transform="translate(84) scale(.94)">
    <path fill="#ba0000" fill-rule="evenodd" d="M618 512h-731V0h731z"/>
    <path fill="#fff" fill-rule="evenodd" d="M242 248s-52-22-44-80c7-28 19-47 42-57l33-6-6 9c-3 7-1 13 2 19 4 7 7 14 8 23a37 37 0 01-15 34c-6 5-14 7-21 13-5 5-8 10-9 18 0 16 4 18 10 27z"/>
    <path fill="#ba0000" fill-rule="evenodd" stroke="#000" stroke-width="2" d="M232 165v-1"/>
    <path fill="none" stroke="#ba0000" stroke-width="2" d="M235 242c-20-18-18-63-3-77"/>
    <path fill="#ba0000" fill-rule="evenodd" d="M245 155l3 5-6-2-5 5 1-7-6-2 7-2v-6l4 5 6-1"/>
    <path fill="#fff" fill-rule="evenodd" d="M246 244s6-56 64-66c28-1 50 6 67 25 6 9 11 19 15 29-4-2-7-3-11-3-7-1-12 3-17 8a53 53 0 01-20 14 37 37 0 01-37-4c-6-5-10-12-18-17a28 28 0 00-20-3c-15 5-16 9-23 17z"/>
    <path fill="#ba0000" fill-rule="evenodd" stroke="#000" stroke-width="2" d="M323 210h0"/>
    <path fill="none" stroke="#ba0000" stroke-width="2" d="M250 236c11-24 54-36 73-26"/>
    <path fill="#ba0000" fill-rule="evenodd" d="M336 219l-4 5 1-6-6-3 6-1 1-7 3 6 6-1-4 4 3 6"/>
    <path fill="#fff" fill-rule="evenodd" d="M250 248s55-12 83 39c10 27 11 50-2 71-7 9-15 17-24 24v-11c-1-7-6-10-12-13a53 53 0 01-20-15 37 37 0 01-8-36c3-8 8-14 10-23a28 28 0 00-3-20c-10-13-15-12-24-16z"/>
    <path fill="#ba0000" fill-rule="evenodd" stroke="#000" stroke-width="2" d="M307 310h0"/>
    <path fill="none" stroke="#ba0000" stroke-width="2" d="M259 249c27 3 51 40 47 61"/>
    <path fill="#ba0000" fill-rule="evenodd" d="M302 326l-6-3 7-1 1-7 3 6 6-2-4 5 3 6-6-3-5 5"/>
    <path fill="#fff" fill-rule="evenodd" d="M249 254s27 49-15 90c-22 17-44 24-68 18-11-4-20-10-30-16 4 0 8-1 11-3 6-3 8-9 9-16a53 53 0 019-23 37 37 0 0132-18c9 0 16 4 25 3 6-1 12-2 18-8 10-13 8-17 9-27z"/>
    <path fill="#ba0000" fill-rule="evenodd" stroke="#000" stroke-width="2" d="M205 325v1"/>
    <path fill="none" stroke="#ba0000" stroke-width="2" d="M250 262c5 27-24 61-45 63"/>
    <path fill="#ba0000" fill-rule="evenodd" d="M189 325l1-6 3 6 7-1-5 4 4 6-7-3-4 5 1-7-6-3"/>
    <path fill="#fff" fill-rule="evenodd" d="M243 253s-38 41-90 16c-24-16-38-34-40-59 0-11 2-22 5-33 2 4 4 7 7 9 5 5 11 5 18 4a52 52 0 0125 0 37 37 0 0127 25c3 8 2 16 5 24 3 6 7 10 14 14 16 5 19 2 29 0z"/>
    <path fill="#ba0000" fill-rule="evenodd" stroke="#000" stroke-width="2" d="M161 235h-1"/>
    <path fill="none" stroke="#ba0000" stroke-width="2" d="M235 257c-23 13-65-3-74-22"/>
    <path fill="#ba0000" fill-rule="evenodd" d="M155 220l7-1-5 5 3 6-5-3-5 5 1-7-6-3 6-1 1-7"/>
  </g>
</svg>
