<svg xmlns="http://www.w3.org/2000/svg" id="flag-icons-hm" viewBox="0 0 640 480">
  <path fill="#00008B" d="M0 0h640v480H0z"/>
  <path fill="#fff" d="M38 0l122 91L281 0h39v31l-120 90 120 89v30h-40l-120-89-119 89H0v-30l120-89L0 32V0z"/>
  <path fill="red" d="M212 141l108 79v20l-135-99zm-92 10l3 17-96 72H0zM320 0v2L196 96l1-22 98-74zM0 0l120 88H90L0 21z"/>
  <path fill="#fff" d="M121 0v240h80V0h-80zM0 80v80h320V80H0z"/>
  <path fill="red" d="M0 97v48h320V97zM137 0v240h48V0z"/>
  <path fill="#fff" d="M527 397l-20 2 2 21-15-15-15 15 2-21-20-2 17-11-11-18 20 7 7-20 7 20 19-7-10 18 17 11zm-4-118l3-12-10-9 13-2 6-12 5 12 14 2-10 9 3 13-12-7-12 6zm-104-59l-20 2 2 20-15-14-15 14 3-21-20-2 17-11-11-18 20 7 7-19 7 19 19-6-11 17 17 12zm204-33l-21 2 2 21-15-14-15 14 2-21-21-2 18-11-11-18 20 6 7-20 7 20 20-7-11 18 18 12zm-96-84l-21 2 2 21-15-15-15 15 3-21-21-3 18-11-11-17 20 6 7-19 7 20 20-7-11 18 17 11zM234 386l-46 5 5 46-33-32-33 32 5-46-46-6 39-25-24-39 44 15 15-44 16 44 44-15-25 40 39 25z"/>
</svg>
