<svg xmlns="http://www.w3.org/2000/svg" xmlns:xlink="http://www.w3.org/1999/xlink" id="flag-icons-hr" viewBox="0 0 640 480">
  <path fill="#171796" d="M0 0h640v480H0z"/>
  <path fill="#fff" d="M0 0h640v320H0z"/>
  <path fill="red" d="M0 0h640v160H0zm320 364c51 0 93-42 93-93V160H227v111c0 51 42 93 93 93z"/>
  <path fill="#fff" d="M320 363a92 92 0 0092-92V162H229v109a92 92 0 0091 92z"/>
  <g fill="red">
    <path d="M267 165h-35v39h35zm0 78h35v-39h-35zm-35 28l1 10h34v-38h-35v28zm106-28h-36v38h36zm0 77h35v-39h-35zm35 21a89 89 0 0020-21h-20v21zm-106-21h35v-39h-35zm-20 0a89 89 0 0020 21v-21h-20zm79 39l12-2v-37h-36v37a87 87 0 0012 2h12zM407 281l1-10v-28h-35v38h34zm-69-38h35v-39h-35zm0-78h-36v39h36zm70 39v-39h-35v39z"/>
  </g>
  <path fill="#fff" d="M410 159l22-50-17-26-27 10-20-22-25 14-23-18-23 18-25-15-20 23-27-11-17 27 22 50a218 218 0 0190-19c32 0 63 6 90 19z"/>
  <path fill="#0093dd" d="M253 95l-27-10-16 24 6 14 15 34a220 220 0 0135-12l-13-50z"/>
  <path fill="#fff" d="M251 119a13 13 0 012 6c0 8-6 14-13 14a13 13 0 01-14-11 13 13 0 0012 7 13 13 0 0013-16z"/>
  <path d="M228 114l1-5-4-3 4-2 1-5h1l3 3 5-1-1 5 4 3-5 2-1 5-4-3-4 1h-1z"/>
  <path fill="#f7db17" d="M234 108l3 3 4-2zm0-1l7 2-3-3zm-9-1l8 1-3-3zm8 1l-8-1 4 3zm0 0l6-6-5 2zm-5 7l5-6-4 1zm5-6l-5 6 4-2zm6-7l-5 6 4-1zm-6 6l-2-7-1 4zm3 8l-3-7v4zm-2-7l2 7 1-4zm-3-8l2 7 1-4z"/>
  <path fill="#171796" d="M298 87l-26-14-19 22 13 50a220 220 0 0136-6l-4-52z"/>
  <path fill="red" d="M263 132a232 232 0 0138-6l-1-13a246 246 0 00-41 7l4 12zm-7-25a258 258 0 0143-7l-2-13a271 271 0 00-44 8l3 12z"/>
  <g transform="translate(-160) scale(.00237)">
    <path fill="#0093dd" d="M212105 36890l-23 13-9517-7794-9497 7778 1788 21560c2543-210 5113-322 7709-322 2608 0 5190 113 7744 325l1795-21560z"/>
    <g id="a">
      <path d="M202545 46585c-18-2-44 10-69 45-186 250-359 469-545 720-195 61-242 180-167 348-261-26-291 193-302 432-250-379-522-482-814-307-11-230-187-338-439-392a829 829 0 01-436-145c-60-42-110-64-170-106-126-88-226-5-172 74l802 1302c-14 80 6 151 88 204l140 397-32 113c-221-105-443-118-664-133-170-8-287-50-361-137-54-63-91-26-92 82-3 534 162 1014 599 1492-231 4-462 11-694 21-79 6-95 39-73 104 126 304 339 579 822 766a654 654 0 00-357 520c-9 224-75 382-212 455-60 32-81 65-24 106 253 185 565 193 895 112a1398 1398 0 00-198 850c208 56 412 15 614-52-29 61-44 175-52 309-7 115-41 229-104 343-32 33-65 84 4 102 336 91 648 52 915-47 0 243 2 487 76 727 18 58 70 102 125 26 155-214 322-396 527-517 31 90 75 168 156 215 96 55 147 170 153 343 0 30-2 60 35 90 149 7 514-380 589-597 206 121 284 246 439 461 55 76 99 29 128-25 62-243 67-481 66-724 267 99 579 138 915 47 69-19 36-70 4-102a947 947 0 01-113-365c-9-133-14-226-43-287 202 68 405 108 614 52 29-297-53-579-211-850 330 80 655 73 908-112 57-41 35-74-24-106-136-73-203-231-212-455a652 652 0 00-357-520c483-187 696-463 822-766 22-66 6-99-73-104-231-10-480-24-711-27 437-478 606-961 604-1495-1-108-38-146-92-82-74 87-179 137-348 146-222 15-435 24-656 128l-32-113c46-132 106-260 153-393 82-53 102-123 88-204 267-434 513-868 781-1302 54-79-46-162-171-74-60 42-110 64-170 106a841 841 0 01-437 145c-251 54-417 167-428 397-293-175-564-73-814 307-11-239-41-457-302-432 75-168 17-291-178-352-186-250-458-470-644-720-31-35-51-47-69-45z"/>
      <g fill="#f7db17">
        <path d="M205075 47978c-51-26-124 17-162 95s-33 170 19 196c40 20 84-6 119-56l22-36 5-9c38-78 49-163-2-188zm-5008 0c52-26 124 17 162 95s39 165-13 191-103-24-141-102-60-158-9-184zm4539 905c-32 0-59 27-59 59a59 59 0 00118 0c0-32-26-59-59-59zm-4032 0a59 59 0 100 118 59 59 0 000-118zm4294-304c-754-91-1506-133-2260-133s-1509 41-2269 115c-26 8-21 90 14 86 756-73 1507-113 2256-113 743 0 1485 40 2228 129 39 4 54-80 32-84z"/>
        <path d="M200319 48495c768-75 1530-117 2289-116 754 0 1507 42 2261 133l111-184c-32 10-62 9-90-5-76-38-92-161-36-274 56-114 164-175 240-138 39 19 62 62 68 114l446-739c-204 130-328 214-581 252-281 41-409 139-368 307 38 156-57 133-201 54-314-171-541 71-652 353-73 186-159 181-168-13-4-70 0-131-7-200-21-223-89-286-216-224-161 78-175 25-137-58 28-60 86-128 66-221-9-67-66-92-151-98-182-244-467-483-649-727-182 244-374 483-556 727-86 5-142 30-152 98-20 93 52 157 80 217 38 82 23 135-137 57-127-61-186-3-207 220-7 69-10 139-13 209-9 194-95 199-168 13-111-282-352-524-667-353-145 79-203 102-182-54 23-172-107-266-388-307-253-37-377-122-581-252l419 682c12-25 29-45 53-57 76-38 184 24 240 138 56 113 40 237-36 274-10 5-21 8-32 10l100 163zm4389 911l-24 11c-46 19-80 66-134 124-57 60-128 125-211 188-12 10-25 19-44-6s-7-35 6-44c80-62 149-124 204-182 30-32 56-63 77-92l-284-30c-79 24-157 55-222 95-59 35-107 77-137 125-8 14-16 27-44 11-27-16-19-30-11-44 35-58 91-107 158-147 33-20 69-38 106-54-107-9-214-18-321-25a414 414 0 00-117 114c-9 13-18 26-44 8s-18-31-8-44c19-29 41-54 64-77l9-9-241-14-8 7a340 340 0 00-93 126c-6 15-12 29-41 18-29-12-23-26-17-41 12-29 27-55 45-81l27-33-344-12c-4 5-9 8-14 11a292 292 0 00-114 114c-8 14-16 28-43 12-28-16-20-29-12-43 16-28 35-54 59-77l21-19c-122-2-244-4-365-4l-360 3 22 20c23 23 42 49 59 77 8 14 16 27-12 43s-35 2-44-12a292 292 0 00-114-114c-6-3-12-7-15-12-115 2-230 6-345 11a357 357 0 0174 116c6 15 12 29-17 41s-35-3-41-18a338 338 0 00-103-136l-243 13 13 12c24 23 45 48 64 77 9 13 18 26-8 44s-35 5-44-8a423 423 0 00-120-116l-5-3c-110 7-220 14-330 23 43 18 85 38 122 61 67 40 124 89 158 147 8 14 16 27-11 44-27 16-35 3-44-11-29-48-78-90-137-125-72-44-159-77-246-102h-2c-90 7-179 15-268 24 22 33 51 68 86 106 55 58 124 120 204 182 13 9 25 19 6 44s-32 15-44 6c-83-64-155-128-211-188-37-38-99-111-135-140-196-90-354-127-575-147-153-14-318-9-458-79 36 85 75 164 126 229 53 68 120 121 209 147 8 2 21 16 22 25 28 157 84 286 169 386 52 60 114 110 188 149a996 996 0 01-172-251 800 800 0 01-77-420c1-16 3-32 34-29 32 3 30 19 29 35-11 123 9 256 72 387 56 118 159 237 291 346 24 19 0 63-29 55a788 788 0 01-383-231 846 846 0 01-180-397c-94-32-165-90-222-164-47-60-85-131-118-205 28 428 182 801 456 1137 61 75 165 182 255 216 92 35 95 100-20 101l-105 1c84 31 164 66 233 105 127 73 217 162 224 273 1 16 2 32-29 34-32 2-33-14-34-29-6-86-82-160-192-223-113-65-259-117-402-160-154 0-312-1-459 3 39 28 80 57 131 84 82 44 188 86 343 122 89 21 166 52 233 91 71 42 130 93 177 150 10 12 20 25-5 45s-34 8-45-5c-42-52-95-98-159-135-61-36-133-64-216-84-161-38-272-81-358-128-75-40-131-82-184-123 180 393 450 573 835 689l61 19 9 2c86 21 175 40 266 55 92 15 166 28 261 37 16 1 32 3 29 34-3 32-19 30-34 29a4316 4316 0 01-437-71c-26 6-64 9-107 12-232 14-420 225-435 494l-1 16c88-80 179-157 273-212 117-68 239-103 364-69 15 4 31 8 22 39-8 31-23 27-39 22-106-28-212 3-316 63-108 63-213 158-315 253a563 563 0 01-205 377c61 34 104 65 163 45 86-39 172-78 261-108 91-31 184-52 282-57 16-1 32-1 33 31s-14 32-31 33c-91 4-179 24-264 53-75 26-149 58-222 91 221 47 460-1 667-79 60-22 105-42 133-41 51-30 112-53 172-79 66-28 132-51 182-57 16-2 32-4 35 28 4 32-12 33-28 35a394 394 0 00-222 79c0 21-66 57-126 96-36 24-70 52-87 67a741 741 0 00-188 287c-29 70-52 145-68 224 55-108 121-211 201-303 94-108 208-201 345-265 14-7 29-13 42 15 13 29-1 35-15 42a956 956 0 00-324 250c-90 103-161 222-219 345-31 64-8 1-42 86 110-122 212-224 323-307 132-100 283-157 418-133 15 3 31 6 26 37s-21 28-37 26c-116-21-250 32-369 121-121 92-244 223-366 361 184 26 366-26 542-85 91-30 183-135 239-152a1327 1327 0 01159-167c12-10 24-20 45 4s8 34-4 45c-33 28-65 60-96 94-32 35-62 73-92 113-6 8-13 17-24 16-60 70-151 162-172 240-57 210-25 370-122 576 71-38 128-81 175-134 53-60 94-135 128-230a720 720 0 01428-442c15-5 30-11 41 19s-4 35-19 41a678 678 0 00-391 404 743 743 0 01-141 250c-44 50-95 91-156 127 52-3 78-10 121-7 79-6 211-66 279-119 66-51 116-120 154-206 6-15 13-29 42-16s23 27 16 42c-42 96-99 174-173 231-56 43-121 75-196 93 161-5 311-42 467-100 65-24 87-168 127-208 32-58 66-112 105-158 47-56 101-101 164-127 15-6 29-12 41 18 12 29-3 35-17 41-52 21-98 60-139 108-36 42-68 93-98 147 10 73-51 228-53 305-7 205-2 409 53 612 53-71 107-134 162-192l1-15c18-106 33-219 40-332 7-112 7-223-6-329-2-16-4-32 27-35 32-4 34 12 35 28 14 111 14 226 7 340-6 90-16 180-30 269 54-51 53-51 77-103a743 743 0 0054-467c-4-15-7-31 24-38s35 8 38 24c19 80 25 165 14 252-8 65-24 132-49 199 56-42 114-82 178-122-4-75-5-153-3-227 2-68 7-134 18-190 4-20 7-40 47-33s37 27 33 48c-9 50-14 111-16 177-2 78 0 162 4 243 5 82 49 185 125 230a425 425 0 01186 274c16-145 17-280 3-400a949 949 0 00-114-368c-8-14-16-27 12-44 27-16 35-2 43 12 63 110 104 241 122 393 17 146 13 310-13 488 102-82 381-258 352-594-7-27-16-52-28-75-7-14-14-28 14-42s35 0 42 14a446 446 0 0150 186c13-7 45-43 51-39l80 54a729 729 0 01-28-430c4-15 7-31 38-24s27 23 24 38c-18 73-22 151-13 230 9 77 31 157 67 237 4 8 8 16 5 25 24 21 47 42 70 65-13-84-22-170-28-255-8-115-7-230 7-341 2-16 4-32 35-28s29 20 27 35c-13 106-13 217-6 329a3204 3204 0 0041 339c54 59 95 120 152 196 55-203 73-407 66-612-2-76-69-227-65-302-30-55-63-107-100-151-41-49-87-87-139-108-15-6-29-12-18-41 12-29 27-24 41-18 62 26 117 71 164 127 38 45 72 98 103 154 57 7 78 179 143 212 154 57 298 94 453 100a519 519 0 01-368-324c-6-15-13-29 16-42s35 2 42 16c38 86 88 156 154 206 85 66 289 124 400 127a661 661 0 01-298-378c-34-95-87-179-153-247a642 642 0 00-238-157c-15-6-29-11-19-41 11-29 26-24 41-19 96 36 186 94 261 172 72 74 130 166 167 270 34 95 75 169 128 230 47 54 105 98 177 135-98-207-66-367-122-577-35-129-232-277-193-320 45-51 133 88 248 127 175 59 357 111 540 85a2690 2690 0 00-366-361c-119-90-237-140-352-120-16 3-31 6-37-26-5-31 10-34 26-37 135-24 269 32 401 132 111 84 201 175 311 298-18-47 0-14-30-77-59-123-130-241-220-345-89-102-196-189-324-250-14-7-28-13-15-42 13-28 28-22 42-15 137 65 251 157 345 265 81 93 147 198 203 307-15-81-39-157-68-227a741 741 0 00-188-287c-62-56-209-140-208-179-29-15-33-11-63-24-61-26-121-46-164-52-16-2-32-4-28-35 4-32 19-30 35-28 50 6 115 28 182 56 33 14 66 43 98 60 53 4 139 47 208 74 206 78 446 126 666 79-73-33-147-65-223-91-85-29-172-49-264-53-16-1-32-1-31-33s17-31 33-31c98 4 191 26 282 57 89 30 175 69 261 108 59 27 101-7 163-45a563 563 0 01-205-376l-2-2c-102-95-207-190-315-253-104-60-210-91-316-63-15 4-31 8-39-22-8-31 7-35 22-39 125-33 247 1 364 69 94 55 186 132 274 213l-1-17c-15-270-203-480-435-494-78-5-189 21-186-32 4-59 97-44 234-86 385-116 655-296 836-690-54 41-110 83-186 124-86 47-198 91-358 128-82 19-154 48-216 84-64 38-117 84-159 135-10 12-20 25-45 5s-14-32-5-45c47-57 106-108 177-150 67-39 145-70 233-91 155-36 261-78 343-122 51-27 92-55 131-84-148-4-305-3-459-3-143 44-289 96-402 160-110 63-186 136-192 223-1 16-2 32-34 29-32-2-31-18-29-34 8-111 97-200 224-273 69-39 149-74 233-105l-104-1c-116-2-112-66-20-101 90-34 190-141 251-216 271-334 412-714 456-1130-33 72-69 140-115 198a479 479 0 01-222 164 846 846 0 01-180 397 750 750 0 01-369 230c-29 8-52-35-29-55 132-109 221-226 278-344 62-131 83-264 72-387-1-16-3-32 29-35 31-3 33 13 34 29 12 134-10 278-78 420-40 85-97 170-172 251 73-39 136-89 187-149a811 811 0 00170-386c1-8 14-22 22-25 89-27 155-79 209-147 51-65 90-143 126-228-140 69-304 64-457 78-213 19-369 68-554 152z"/>
        <path d="M204649 49231c-680-88-1359-113-2041-114-684 0-1369 40-2058 112-20 6-15 33-14 46 2 28 37 35 121 27 643-60 1285-93 1932-93 674 0 1351 21 2038 102 33 9 77-85 22-81z"/>
        <path fill-rule="evenodd" d="M200570 49160c683-71 1362-110 2038-110 675 0 1349 40 2025 127l31-127c-17 9-37 15-58 15a123 123 0 11113-171l60-170c-724-84-1446-122-2171-122-729 0-1459 38-2193 107l58 164c22-32 59-54 101-54a123 123 0 110 246c-12 0-25-2-36-6l33 94-2 7zm3067-416a123 123 0 100 246 123 123 0 100-246zm0 64a59 59 0 000 118c32 0 59-27 59-59s-26-59-59-59zm-1082-91a123 123 0 10123 123c0-68-55-123-123-123zm0 64a59 59 0 100 118 59 59 0 000-118zm-1064-40a123 123 0 100 246 123 123 0 000-246zm0 64c-33 0-59 26-59 59s26 59 59 59a59 59 0 000-118z"/>
      </g>
      <path d="M202601 47974c-14-68-49-129-100-175-51-47-116-78-187-88-33-4-39-58-7-68 60-20 114-67 157-133 45-69 79-157 95-256 5-34 64-35 69-1 15 84 51 153 97 208 55 66 125 112 193 138 31 12 25 63-8 68-59 9-105 42-141 87-50 62-81 145-100 221-8 33-62 31-69-2zm33-118c20-52 47-103 81-146 28-34 60-64 99-84a543 543 0 01-216-236c-19 59-45 112-75 158-31 47-67 86-108 116a400 400 0 01219 192zm799 5115l-515 206c-17 7-35 14-48-21-14-34 4-41 21-48l515-206c17-7 35-14 48 21 14 34-4 41-21 48zm59-326l-604 328c-16 9-33 18-51-15s-1-42 15-51l604-328c16-9 33-18 51 15s1 42-15 51zm-1826-65l604 328c16 9 33 18 15 51s-34 24-51 15l-604-328c-16-9-33-18-15-51s34-24 51-15zm51 322l515 206c18 7 35 14 21 48-14 35-31 28-49 21l-515-206c-17-7-34-14-21-48 14-35 31-28 48-21zm224 434c137 33 261 48 358 31 88-16 155-60 191-146v-493c-107-1-212-15-303-41a287 287 0 01-201-178 577 577 0 01-4-329c5-18 9-36 45-27s32 27 27 45c-20 82-33 194 1 284 23 60 69 110 152 133 91 25 198 38 307 38 107 0 214-13 304-40 82-24 148-69 192-123s65-117 57-176c-5-36-24-62-49-80-34-24-82-35-128-37-47-2-94 7-142 16l-77 13c-19 2-37 5-42-32s14-40 32-42l73-12c52-10 105-20 159-18 60 2 121 18 168 51 42 29 72 72 80 131 11 80-16 163-73 233a455 455 0 01-229 147c-83 24-178 38-274 42v483c3 5 3 11 2 16 37 82 102 125 188 141 97 18 221 2 358-31 18-5 36-9 45 27 8 37-9 41-28 45a998 998 0 01-388 32c-92-17-165-58-215-132a314 314 0 01-215 132c-109 20-242 4-388-32-18-4-37-8-28-45 8-36 27-32 45-27zm356 210l402-9c19 0 38-1 38 37 1 38-18 38-37 38l-402 9c-19 0-37 1-38-37s18-38 37-38zm593-3082c151-125 293-227 423-297a714 714 0 01359-106c19 1 37 1 36 39-1 37-20 37-39 36-92-4-200 32-322 97-125 67-263 166-410 289-14 12-29 24-53-5s-9-41 5-53zm-605 56a2015 2015 0 00-445-314c-139-71-268-108-363-100-19 2-37 4-40-34-4-37 15-39 34-40 110-10 252 31 404 107 152 77 315 191 461 325 14 13 28 25 2 53-25 27-39 15-53 2zm-213 1004c37-83 83-155 136-219 53-63 112-119 174-170 14-12 29-24 52 5 24 29 9 41-5 53-59 48-114 101-164 160-49 59-91 125-125 201-8 17-15 34-49 19s-27-32-19-49zm371-1734c49 66 88 139 114 223 26 82 40 175 39 279 5 80 6 165-7 249-13 86-42 170-97 246a286 286 0 01-329 106c29 100 51 208 6 308-8 18-33 27-51 18-43-22-86-43-128-62s-84-36-127-51l-1-1c-95-37-173-73-236-112-65-39-115-80-150-124l1 2c-44-49-72-106-88-170-14-55-20-114-22-174-72-39-138-78-194-116-64-43-118-87-161-131-13-14-26-27 1-53s40-12 53 1c39 40 89 80 150 121 60 40 128 81 204 121 124 13 247 51 370 109 106 50 211 115 317 192 13 7 19 16 27 20l25 19c51 22 104 28 152 16 47-11 90-39 122-84 48-66 72-139 84-214 12-77 11-157 6-234v-2c1-97-12-183-35-258-24-76-58-142-102-201-11-15-22-30 7-52s41-7 52 7zm-375 1047c-104-77-207-141-311-190-105-49-210-83-314-98 2 48 8 93 18 135 13 52 35 99 71 138l1 1c30 37 73 72 130 107 60 36 134 71 225 106l-1-1a1683 1683 0 01226 98c19-83-10-179-37-267l-9-29zm776-1003c-44 59-79 125-102 201-24 76-36 161-35 258v2c-5 77-6 158 6 234 12 75 37 148 84 214 32 45 75 72 122 84 48 12 101 6 152-16l25-19c6-4 13-12 27-20 105-77 211-143 317-192 123-58 246-95 370-109 75-40 144-80 204-121s111-81 149-121c13-13 26-27 53-1s14 39 0 53c-43 44-97 88-161 131-57 38-122 77-194 116-2 61-8 119-22 174-16 63-44 121-88 170l1-2c-35 44-85 85-150 124-63 38-141 75-237 112l-1 1a2498 2498 0 00-255 113c-18 9-43 0-51-18-45-100-23-208 6-308-55 18-111 20-164 7-64-15-122-53-165-113-55-76-84-160-97-246-13-85-12-169-7-249-1-104 13-196 39-279 26-84 65-158 114-223 11-15 22-30 52-7 30 22 19 37 7 52zm940 715c-105 15-209 49-314 98-104 49-207 113-311 190l-8 29c-27 88-56 184-37 267l93-44c44-20 87-38 133-54l-1 1c91-35 165-70 225-106 58-34 100-70 131-107l1-1c35-39 57-86 71-138 11-42 16-87 19-135z"/>
      <path fill-rule="evenodd" d="M203459 50602a216 216 0 000 433 217 217 0 000-433zm0 69a147 147 0 100 294 147 147 0 000-294zm0 60a87 87 0 100 174 87 87 0 000-174zm-1697-124c119 0 217 97 217 216s-97 217-217 217a217 217 0 010-433zm0 69a147 147 0 110 294 147 147 0 010-294zm0 60a87 87 0 110 174 87 87 0 010-174z"/>
    </g>
    <use xlink:href="#a" width="100%" height="100%" transform="rotate(-2 -55533 156276)"/>
    <use xlink:href="#a" width="100%" height="100%" transform="rotate(2 459866 156276)"/>
  </g>
  <path fill="#171796" d="M387 95l-19-22-25 14-5 52a220 220 0 0137 6l12-50z"/>
  <path d="M348 98h2l1 1 1-1a4 4 0 012-1l3-1h3l2 1 2 1 2 1a9 9 0 005 0v1c-3 2-6 0-8-1a16 16 0 012 2l3 2a8 8 0 005 1h1v1a5 5 0 01-3 0 10 10 0 01-5-1l-4-2a8 8 0 00-3-2 6 6 0 00-2 0l2 1v1a2 2 0 01-2 1l-2-1v2l1 1v1h1l1 2h1v1h3l2 1h1a4 4 0 011 0h3l1 1h2a3 3 0 012 0 2 2 0 011 0l1-1 1 1-2 1v1l-1 1-1 1a1 1 0 01-1 0l1 1-1 1v4l-1 1v2h-1a10 10 0 00-1 1 10 10 0 01-2 2l-1 1v2a3 3 0 01-1 0h-2c-1 0-1 0 0 0l-1-1 1-1h1l1-1 1-2 1-1a1 1 0 010-1 2 2 0 01-1 0l-1-1h-1a7 7 0 01-1 1v1l-2 1-1 1v1h-1v1h-1a4 4 0 01-1 0h-1v-1h1a5 5 0 012-2l1-2v-1-1h-4l-1 1v1a9 9 0 01-1 2v1a2 2 0 01-1 1v1l-1 1h-1v-1a1 1 0 01-1 0v-1h1v-1h1v-2h1v-1a1 1 0 010-1v-3h-1v1l-1 2v1l-1 1v1l-2 1-1-1v-1l2-2 1-1v-1-2-1-1c-1 0-1 0 0 0v-1h-1v-2l-1-1a3 3 0 011 0v-1l1-1a1 1 0 010-1v-4a2 2 0 00-1 0h-1a1 1 0 010-1l-1-1 1-1 1-1v-1a1 1 0 00-1-1v-1z"/>
  <g fill="#f7db17">
    <path d="M365 122a1 1 0 01-1 0 8 8 0 010 1h-1a4 4 0 00-1 0 3 3 0 000 1l-2 1v2h-2 1v1h-2v-1a3 3 0 01-1 0h1a5 5 0 012-2h1l1-2v-1-1a2 2 0 010-1 6 6 0 011 0v1a1 1 0 00-1 0h1v-1h1v1h-1 1a3 3 0 011-1v1a2 2 0 001 1z"/>
    <path d="M349 113l1-1a6 6 0 00-1 1l1 1v-1a2 2 0 001-1v1a2 2 0 01-1 0 1 1 0 000 1v2a4 4 0 011-1v-1a1 1 0 010 1 4 4 0 00-1 1v1h1v-1 2c-1 0-1 0 0 0v2-1l-1 2-1 2a4 4 0 01-2 1v1c1-1 1-1 0 0h3v-1l1-1v-2l1-1c0-1 0-1 0 0v-1h1a3 3 0 010-1 3 3 0 010-1v-1l1-1-1 1v1a3 3 0 000 1v4a1 1 0 000 1v1l-1 2h-1v1a3 3 0 01-1 0v1l1-1a2 2 0 000 1h2v-1a2 2 0 01-1 0 3 3 0 001 0 3 3 0 000-1l1-1v-1a10 10 0 001-1v-2a4 4 0 001 0v-1a1 1 0 000-1 1 1 0 010 1h1v-1a2 2 0 010 1h1v-2 2s0 1 0 0h1a18 18 0 012-2v1a7 7 0 00-1 0l-1 1 1 1v-1a8 8 0 011 0h1a3 3 0 010-1v-1a2 2 0 001-1h1-1a3 3 0 01-1 1v1a3 3 0 000 1l1-1a1 1 0 011 0 1 1 0 00-1 0v1h1v1l1 1a3 3 0 010-1h1v-1 1h-1v1h1v-1a2 2 0 000 1l1 1v-1 1h0a4 4 0 000 1l-2 3-1 1a1 1 0 00-1 1h-1 1v1h2l1-1v-1l1-1 1-2 1-1v-1 1l1-1h1v-1-1-1h1v-1a10 10 0 01-1 0 10 10 0 001 0v-1l-1-1 1 1v-2a1 1 0 01-1 0 1 1 0 010-1v1h2l-1-1v-1 1a1 1 0 001 0v-1a10 10 0 00-1-1h1a4 4 0 010 1h1a2 2 0 000-1 3 3 0 00-1 0h1v0c0-1 0 0 0 0h1v-1l1-1v-1l-1 1h-1v1a1 1 0 000-1 2 2 0 00-1 0 3 3 0 00-1 0h1a7 7 0 01-1 0h-1v1h1a2 2 0 00-1 0 2 2 0 000-1 2 2 0 01-1 0l1 1-1-1a8 8 0 010 1 5 5 0 000-1 2 2 0 01-1 0 2 2 0 000-1 1 1 0 010 1 1 1 0 000-1 3 3 0 00-1 0 5 5 0 010 1h1v1a2 2 0 00-1-1 6 6 0 000-1h-2a5 5 0 011 2 5 5 0 000-1 5 5 0 00-1-1c0 1 0 1 0 0a2 2 0 00-1 0 5 5 0 011 1 4 4 0 00-1 0 5 5 0 000-1h-1a5 5 0 011 2 4 4 0 00-1-1 6 6 0 000-1 9 9 0 010 2 9 9 0 000-1 9 9 0 00-1-1 4 4 0 00-1-1 2 2 0 011 1 2 2 0 00-1 0 2 2 0 000-1 16 16 0 00-1 0v1l-1-1v1h1v1a1 1 0 01-1 0 2 2 0 010-1 1 1 0 000-1h-1v2a7 7 0 000-1 5 5 0 000-1 1 1 0 00-1 0v-1l-1 1v-1-2 1h-1a2 2 0 000-1 2 2 0 010 1h-1a3 3 0 001 0 2 2 0 000-1 1 1 0 010-1v1-1a1 1 0 00-1 0 1 1 0 010-1 1 1 0 010 1 1 1 0 000-1v-1a3 3 0 00-1 1 3 3 0 010-1 1 1 0 011 0h-1a2 2 0 01-1 0h2v-1h3a7 7 0 01-1 0v-1 1h1l1-1a5 5 0 01-2 0 1 1 0 00-1-1l-1 1v-1h-1 1a5 5 0 012 0 6 6 0 011 0v-1h1l-1-1h-2l1 1h-1a2 2 0 000-1h-2l-1 1h2v1a1 1 0 00-1-1h-2a4 4 0 000 1v-1h1a2 2 0 011-1h1a1 1 0 000-1 1 1 0 00-1 0l-1 1a1 1 0 00-1 0l-1 1-1 1-1 1-1 1a1 1 0 010 1v-1a1 1 0 000 1h-1v1h1v1h1v-1a1 1 0 011 0 1 1 0 00-1 0v1a2 2 0 011 0h1l-1 1v2a6 6 0 001-1 4 4 0 000-1 9 9 0 011-1h1a1 1 0 01-1 0 12 12 0 000 1 6 6 0 01-2 2h1l1-1v-1a6 6 0 010 1v1-1a12 12 0 01-1 1l-1 1h1v-1 1h-1a1 1 0 001 0c1 0 0 0 0 0-1 1-2 1-1 2v-1h1a3 3 0 01-1 1l-1 1v1z"/>
    <path d="M349 100a1 1 0 00-1-1 1 1 0 011 0 1 1 0 00-1 0v-1 1a1 1 0 000-1 3 3 0 012 0l1 1h-1v1z"/>
  </g>
  <path d="M365 122v-1 1zm2 4a4 4 0 01-1 1l1-1zm1-2v1-1zm0 0a1 1 0 01-1 1 1 1 0 000-1h1zm1-1h-1a1 1 0 011 0zm1 0v1c-1 0 0 0 0 0v-1zm-1-6l1 1a1 1 0 000-1 2 2 0 010 1v1l-1-2zm0 1zm-1 1a6 6 0 011 2v-1a1 1 0 000 1 5 5 0 000-1 6 6 0 00-1-1zm1 1a4 4 0 011 1v-1a4 4 0 00-1 0zm1 0a2 2 0 010 1l1 1a3 3 0 01-1-1 1 1 0 000-1zm1-2v1-1zm-1-3v1c1 0 1 0 0 0v-1zm1-2v1a1 1 0 00-1 1 1 1 0 011-1v-1zm-2 0l1 1h-1v2l-1 1a4 4 0 000-2 4 4 0 010 2 2 2 0 001-1 4 4 0 000-2h1l-1-1zm5-1zm-1 0zm-2 0v1a1 1 0 000-1zm-6 1zm1-1v1-1zm2 2zm1-2zm-5 0a1 1 0 000 1v1-1a1 1 0 01-1 0 1 1 0 010-1zm2 2v2l1 1a3 3 0 010-1v-1-1a2 2 0 010 1 2 2 0 000 1v1l-1-1a1 1 0 010-1v-1zm-1 1v1a3 3 0 01-1 0h2a4 4 0 01-1 0 25 25 0 010 1v-1l-1 1 1-1v-1zm-1 0zM363 114v1a2 2 0 010 1 2 2 0 00-1 0 3 3 0 000 1v-1h1a5 5 0 001-1 4 4 0 01-1 1 1 1 0 00-1 0 2 2 0 000 1v-1l1-1v-1zm2 3v1h1v2a2 2 0 00-1-1 3 3 0 00-1-1l1 1h1a1 1 0 000-1h-1v-1zm1 0c0 1 0 0 0 0zm1 1v1-1zm1 4v-1zm-1-2v1-1zm-1 0zm-1 0zm-2 2a1 1 0 010-1zm-4 4a1 1 0 01-1 0h1zm0 0h1zm2-1a1 1 0 01-1 0h1zm1-4v1-1zm1-10a1 1 0 010 1v-1zm-1-1a2 2 0 010 1 2 2 0 000-1zm-1 2a2 2 0 01-1-1l1 1zm1 2zm-2-2l1 1v1-1a2 2 0 001-1v1a4 4 0 000-1 2 2 0 01-1 1v0a2 2 0 00-1-1zm1 5v1-1zm-2 1v1-1zm2-2v1a1 1 0 00-1 0 2 2 0 000 1 2 2 0 010-1 2 2 0 001-1zm0-1v1a2 2 0 01-1 0 2 2 0 000 1h-1l1-1a1 1 0 000-1h1zm-3 1v1l-1 1 1-1v-1zm-3 2zm-1 0a3 3 0 000 1v1h1a1 1 0 000-1 2 2 0 010 1h-1a2 2 0 000-1 3 3 0 010-1zm0 4a3 3 0 010-1 3 3 0 000 1zm0 1zm-1 2zm-1-6zm-2 4zm5-8v2a3 3 0 011 1h-1a6 6 0 010-1l-1-1 1-1zm-1-1a3 3 0 011 1 4 4 0 01-1 0 2 2 0 000 1v1a3 3 0 010-2v-1c1 0 0 0 0 0zm-2 3v1a2 2 0 010-1zm-1 0v1a1 1 0 010-1zm6-9a2 2 0 000 2 3 3 0 010-1 2 2 0 010-1zm-1 1a4 4 0 011 1 4 4 0 00-1-1zm-3 0l-1 1v2a3 3 0 010 1v-1a2 2 0 000-1 2 2 0 010-1l1-1zm3-2v1a1 1 0 00-1 1c0 1 0 0 0 0a1 1 0 011-1 1 1 0 000-1zm-3 1l-1 1a1 1 0 000 1 3 3 0 010-1v-1zm2 0a1 1 0 01-1 0h1zm0-1a1 1 0 00-1 1v2a2 2 0 000-1 2 2 0 00-1 1l1 1a3 3 0 01-1-1l1-2a1 1 0 010-1zm-1-1v1a1 1 0 00-1 1 1 1 0 010-1h1a3 3 0 000-1zm6 7a2 2 0 00-1 0h1zm0 2l-1 1a2 2 0 000-1 2 2 0 000-1zm-2-2a3 3 0 011 2 2 2 0 00-1-2zm0 2a5 5 0 01-1 1 3 3 0 000 1 2 2 0 00-1-1 1 1 0 010-1v-1h1a2 2 0 000-1 3 3 0 010 2 1 1 0 00-1 0l1 1a2 2 0 010 1 3 3 0 010-1 5 5 0 001-1zm-3-1a3 3 0 001 1h-1a3 3 0 010-1zm-2 1zm1-2v1a1 1 0 000-1zm-2 3a3 3 0 010-1l1-1v-1-1 1a2 2 0 00-1 2l1 1h-1zm-1-1l1 1a1 1 0 01-1-1zm5-3v2-1a2 2 0 000-1zm1-1a2 2 0 010 2 2 2 0 000-1 2 2 0 000-1 2 2 0 010 1 2 2 0 000-1zm1-1h1v1a2 2 0 000 1 2 2 0 010-1 4 4 0 000-1 2 2 0 00-1 0zm-2-1a1 1 0 000 1v1a2 2 0 010-1v-1zm-4 3a2 2 0 01-1 1 3 3 0 010 1c-1 0 0 0 0 0v-1l1-1zm0-1a2 2 0 01-1 1v-1h1zm3 0v1h-1v-1zm0-2v4-1a2 2 0 000-1v-1-1zm-4-8a2 2 0 011 0h2-1l-1 1a1 1 0 01-1 0c0-1 0-1 0 0a1 1 0 001 0l1-1a2 2 0 00-1 0 2 2 0 00-1 0z"/>
  <path d="M352 101h-1 1zm1 2a2 2 0 001-1v1c-1 0 0 0 0 0zm4-2a1 1 0 011 0 1 1 0 00-1 0zm-2 0h1a1 1 0 00-1 0zm0 0a1 1 0 011 0 1 1 0 00-1 0v1zm-3 2h-1 1zm1 0zm-1-1h1a1 1 0 01-1 0zm1-2h-1 1zm-1 0a1 1 0 00-1 0h1-1a1 1 0 011 0zm-1 0zm-1 1zm0 1zm-1 0zm2 1v1h-1v-1zm-1 0zm-1-4a1 1 0 011 0 1 1 0 00-1 0zm5 6a2 2 0 010 2 2 2 0 000-2zm-1 2v-1l1-1a2 2 0 010 1 6 6 0 00-1 1zm-2 0a1 1 0 010-1 1 1 0 000 1zm-1-1h1a2 2 0 00-1 1zm2-2h1a1 1 0 01-1 0zm-1 0c1 0 1 0 0 0zm25 7a1 1 0 00-1 0zm-27 13a1 1 0 001 0 1 1 0 01-1 0z"/>
  <g fill="red">
    <path d="M369 100a8 8 0 002 0h-2zm-2-1h2v1h-1 1a6 6 0 01-2 0 1 1 0 001-1zm-10-2l2-1a1 1 0 011 1v1-1a1 1 0 00-1-1h1a5 5 0 012 1v1-1l2 1a1 1 0 01-1 1h1a1 1 0 000-1l1 1v1l1-1a8 8 0 001 0 1 1 0 010 1l-4-1-2-1a9 9 0 00-2 0 6 6 0 00-1 0l-1-1a1 1 0 000-1z"/>
    <path d="M355 97a9 9 0 012 0v1a4 4 0 00-1 0 1 1 0 00-1-1zm7 4a7 7 0 00-3-1v-1a2 2 0 00-1-1h1a8 8 0 012 0v1-1l1 1 1 1v1h-1z"/>
    <path d="M364 102l-2-1h1v-1l2 1v1h-1zM366 104a12 12 0 01-2-2h1a11 11 0 002 1v1a3 3 0 01-1 0z"/>
    <path d="M368 105a12 12 0 01-2-1h1l1-1a11 11 0 001 1v1s-1 0 0 0zM373 104l-4 1v-1h2v1h-1 1a1 1 0 000-1 9 9 0 002 0zm-10 24v1h-1 1v1h2a3 3 0 001-1l-1-1a4 4 0 00-1 0zm-15-5l-1 1s0 1 0 0v1h3v-1h-1l-1-1zm10 4h1v1h-2l-1-1h1a3 3 0 01-1 0h2zm-7-1v1a3 3 0 01-1 0v1l1-1v1h2v-1a2 2 0 01-1 0l-1-1zm3-26h1a5 5 0 012 0 6 6 0 011 0v-1h1l-1-1h-1a4 4 0 00-1 0l1 1h-1v-1h-1a9 9 0 00-1 0l-1 1h2c0 1 0 0 0 0a1 1 0 00-1 0h-2a4 4 0 000 1h2zm-2 0v-1h1a2 2 0 011-1h1a1 1 0 000-1h-1l-1 1a1 1 0 00-1 0l-1 1 1 1z"/>
  </g>
  <path fill="#0093dd" d="M409 157l21-47-15-25-28 10-13 50a219 219 0 0135 11z"/>
  <path fill="#fff" d="M383 113a252 252 0 0139 14l-8 18a232 232 0 00-36-13z"/>
  <path fill="red" d="M415 142l6-12a249 249 0 00-39-14l-3 13a236 236 0 0137 13h-1z"/>
  <path d="M386 126h2v-1c1 0 1 0 0 0l-1-2h-1l-1-1a1 1 0 01-1 0v-1h1a2 2 0 011 0l1-1a1 1 0 011 0l1 1 1 1h-1l1 1h1l5 2a19 19 0 014 2h1c2-1 4 0 6 1l3 1h1a8 8 0 013 1l2 1v1h-2-2l-2-2h-2v2l1 1h1l1 2v1a3 3 0 01-2 1 1 1 0 01-1 0l1-1a2 2 0 010-1 3 3 0 01-1-1l-2-1-2-1h-4l-1 1a1 1 0 01-1 0v-1h-1v-1h3a4 4 0 01-2-1h-5a4 4 0 01-2 0h-1l-1-1c-1 0 0 0 0 0h4v-1h-1a3 3 0 01-2-1h-2a3 3 0 01-1 0h-1a1 1 0 01-1 0 2 2 0 00-1 0v-1h2z"/>
  <path fill="#fff" d="M401 131l-2-1-2-1h4l1 1a3 3 0 011 1 3 3 0 01-1 0 3 3 0 01-1-1z"/>
  <path d="M403 95l1 5-4 3 5 2 1 5 4-3 4 1h1l-1-5 3-3h1-1l-4-2-1-5h-1l-3 3-5-1z"/>
  <path fill="#f7db17" d="M401 103l3-3 5 1zm8-2l4-3 4 2zm8-1l-3 3-5-1zm-8 2l-4 3-4-2zm-5-7l4 2 1 4zm5 7l4 1 1 5zm5 6l-4-2-1-4zm-5-7l-5-1-1-5zm3-7l1 4-4 3zm-3 8l1 4-4 3zm-3 7l-1-4 4-3zm3-8l-1-4 3-3z"/>
</svg>
