<svg xmlns="http://www.w3.org/2000/svg" xmlns:xlink="http://www.w3.org/1999/xlink" id="flag-icons-ht" viewBox="0 0 640 480">
  <path fill="#d21034" d="M0 0h640v480H0z"/>
  <path fill="#00209f" d="M0 0h640v240H0z"/>
  <g fill="#f1b517" stroke="#000" stroke-width="0">
    <path fill="#fff" d="M244 180h152v120H244z" stroke="none"/>
    <path fill="#016a16" d="M351 267l-31 1h-31l-22 7c-7 2-6 4-11 5l-7 1-5 3v16h152v-16l-5-2-8-2c-5-1-4-3-10-5-7-1-23-8-23-8z" stroke="none"/>
    <g transform="translate(-80) scale(1.6)">
      <g id="a">
        <path d="M245 144h1l3 10-1 4-3-14z"/>
        <path fill="#fff" d="M243 136l1 9h1l-2-9z"/>
        <path d="M246 155l-5-12h2l5 14-2-2z"/>
        <path fill="#fff" d="M239 137l2 8h2l-4-8z"/>
        <path d="M242 151l-3-6h1l5 9-3-3z"/>
        <path fill="#fff" d="M236 139l3 7h1l-4-7z"/>
        <path fill="#0a328c" d="M242 151l-11-12c-4 3-3 8-3 8l13 10 1-6z"/>
        <path fill="#d20014" d="M249 158l-9-8c-3 0 0 5 0 6l9 7v-5z"/>
        <path d="M248 157l-17-19-1 1 19 20-1-2zm-18-20l-1-1v-1l-3-2 1 4h3z"/>
        <path d="M228 138a8 8 0 012-2l1 1-2 2-1-1z"/>
        <path fill="#0a328c" stroke="#0a328c" d="M226 141v1l4-3h3l1-1c-2-2-4 0-4 0l-4 3z"/>
        <path fill="#d20014" stroke="#d20014" d="M228 143l2-3c1 0 3 1 4-2h-4l-1 1v0l-3 3 2 1z"/>
        <path fill="#0a328c" d="M237 155l-14-12c-3 3 0 10 0 10l14 8v-6z"/>
        <path fill="#d20014" d="M249 164l-12-10c-4 1-1 7 0 8l12 6v-4z"/>
        <path d="M249 162l-26-19h0l26 21v-2zm-27-20l-1-1h0l-4-2 3 3h1v1l1-1z"/>
        <path d="M220 143a8 8 0 013-2l1 1-2 2-2-1z"/>
        <path fill="#0a328c" stroke="#0a328c" d="M219 147v1l4-4h2l1-1c-2-2-4 0-4 0l-3 4z"/>
        <path fill="#d20014" stroke="#d20014" d="M221 149l1-4c2 0 3 1 4-2h-4v1l-3 4 2 1z"/>
        <path fill="#0a328c" d="M236 162a2783 2783 0 01-18-11c-2 2 0 6 0 6l1 6c0 2 1 4 3 5 1 6 8 7 10 1l4-7z"/>
        <path fill="#d20014" d="M248 169l-12-8c-4 1 0 8 0 9l12 4v-6z"/>
        <path d="M246 166l-28-15h-1l30 17-1-2zm-29-16h-1v-1l-4-1 2 3h2v-1z"/>
        <path d="M215 152l2-3 1 1-1 2h-2z"/>
        <path fill="#0a328c" stroke="#0a328c" d="M214 155l1 1 3-4 2-1 1-1c-2-2-4 1-4 1l-3 4z"/>
        <path fill="#d20014" stroke="#d20014" d="M217 157l1-4c1 0 2 0 3-3l-4 1v1h0l-2 4 2 1z"/>
      </g>
      <use xlink:href="#a" width="100%" height="100%" transform="matrix(-1 0 0 1 500 0)"/>
    </g>
    <g transform="translate(-80) scale(1.6)">
      <path fill="#016a16" d="M249 126l-1 9h3v-9l3-1v-3h-8v3l3 1z" stroke="none"/>
      <g id="b" fill="#016a16">
        <path d="M250 122c-8-8-14-4-15-3h2l-1 1 3-1-1 1 2-1-1 1h1c1 0 0 0 0 0 2 0 5 2 5 3"/>
        <path d="M248 123c-1-2-16-5-19 1l3-1v1l2-2-1 2 1-2v2l2-2v1l2-1v1"/>
        <path d="M247 124c-4-3-9-1-9-1-4 2-6 1-7 5l2-1 1 2v-3 2l1-3 1 2 1-2 1 1v-2l1 1h1l1-1v1l2-1h1v0h3"/>
        <path d="M246 124c-2 0-10 3-12 6a13 13 0 012-1v1-1 1h2v-1 1l1-1v1l1-2v1l1-1v1-2l1 1 1-1v1l4-3"/>
        <path d="M247 125c-4 1-7 6-6 8 1-2 1-2 1 1l1-3v2l1-2h0v-1h1v-1-2l1 1v-1l2-1"/>
        <path d="M247 125l-1 3h1l-2 1h1s-2 1-2 3l2-1-2 2 1-1-1 3 1-1 1 5v-3l2 2-1-3 2 2-1-3 1 1-2-3 2 1-1-3 1 1v-1h1l-2-2h1v-1h1v-1m-1 0c-3 3-1 7-3 10"/>
      </g>
      <use xlink:href="#b" width="100%" height="100%" transform="matrix(-1 0 0 1 500 0)"/>
      <path d="M251 167l1-15-1-10h-3v10l1 15h2zM248 142h4l-1-3h-3v3z" stroke="none"/>
      <path d="M248 140h4l-1-3h-2l-1 3z" stroke="none"/>
      <path d="M248 138h3v-3h-2l-1 3z" stroke="none"/>
      <path d="M251 135h-2l-1 1h3v-1zm0 29h-3m3-2h-3m4-2h-4m4-2h-4m4-2h-4m4-2h-4m4-2h-5m5-2h-5m5-2h-5m5-2h-4m4-2h-4" stroke="none"/>
      <path fill="#0a328c" d="M250 119l-2-2 1-1v-2l4 1-1 3v1a4 4 0 01-2 0z" stroke="none"/>
      <path d="M250 125l-1-1 1-7h1l-1 8z" stroke="none"/>
      <path fill="#d20014" d="M252 119v-2l-3-1-1 1 2 1 2 1z" stroke="none"/>
    </g>
    <g transform="translate(-80) scale(1.6)">
      <use xlink:href="#c" width="100%" height="100%" transform="matrix(1 0 0 -1 0 320)"/>
      <path fill="#016a16" d="M238 162l-1 2-2-2v-1h3v1z" stroke="none"/>
      <ellipse cx="237" cy="160" fill="#fff" rx="2" ry="1" stroke="none"/>
      <path fill="#016a16" d="M236 161v-3h1v3h-1z" stroke="none"/>
      <path id="c" fill="#016a16" stroke="#fff" stroke-linecap="round" d="M239 160l-2 1-2-1a1 1 0 000 0c0 1 0 2 2 2l2-2a1 1 0 000 0z"/>
      <g id="d">
        <path d="M246 173l-7-2-3-6h-11v4l10 2 1 1 10 3v-2z"/>
        <path fill="#503200" d="M239 174l-12-16h0l11 17 1-1z"/>
        <path fill="#fff" d="M229 159l-2-2-1-1v1l1 2h2z"/>
        <path d="M240 164l-22-2-1 3 22 2 1-3z"/>
        <path d="M217 161v5h1v-5h-1zm4 1v4h0l1-4h-1zm15 1v4h1v-3h-1zm3 1v4h1v-2l1 1 1-1-1-1a1 1 0 00-1 0l1-1h-2zm-8 0l-3 4h1l4-3-2-1zm-7 9l3-3v-1l-4 3 1 1zm8-1l-4-3h0l3 4 1-1zm-9-7l4 3h0l-3-4-1 1zm4-2v5h1l1-5h-2zm1 11v-4h-1v4h1zm5-6h-5v1l5 1v-2zm-11 2l5-1v0l-5-1v2z"/>
        <circle cx="228" cy="169" r="1"/>
        <path fill-rule="evenodd" stroke-linecap="round" d="M234 169c0 3-3 6-6 6a7 7 0 01-7-6c0-4 3-7 7-7a7 7 0 016 7zm-1 0a5 5 0 01-5 5 5 5 0 01-6-6 5 5 0 016-5 5 5 0 015 6z"/>
        <path d="M224 165h-1m8 0l1-1m1 9l-1-1m-8 2l1-1m21-11l1 6h-1l-1-6h1z"/>
        <path fill="#fff" d="M246 161c-1 0-2 1-3-1-2 2 0 2 0 4 1 0 1-2 3-2h2v-1h-2z"/>
        <path fill="#fff" d="M246 163v-2h-1v2l1-1z"/>
        <path fill-rule="evenodd" d="M241 167v2l-1 1v5h-1l1 1 1 1 1-1-1-1v-1h1l1-1v-3l-1-1v-2h-1zm1 3v-1l-1 1v1l1 2v-3z"/>
        <path fill="#fff" d="M234 172v2h1v1h-2c0 2 3 2 4 1 1 0 1-2-2-3l-1-1zm1 1v1"/>
        <path d="M215 173l-1-4m2 4l-1-3m4 2l-4-2m5 2l-6-3"/>
        <path fill="#d20014" stroke="#d20014" d="M210 166h-2v1l-5 1 4-1-1-2 2-1 2 2z"/>
        <path fill="#503200" d="M213 168l-5-4h0s0 0 0 0l5 5v-1z"/>
        <path d="M218 172l-4-3v-1h-1l-1 1h1l4 3h1z"/>
        <circle cx="233" cy="177" r="1"/>
        <circle cx="231" cy="176" r="1"/>
        <circle cx="228" cy="177" r="1"/>
        <circle cx="224" cy="177" r="1"/>
        <circle cx="223" cy="178" r="1"/>
        <circle cx="221" cy="178" r="1"/>
        <circle cx="219" cy="178" r="1"/>
        <circle cx="220" cy="176" r="1"/>
        <circle cx="222" cy="176" r="1"/>
        <circle cx="223" cy="176" r="1"/>
        <circle cx="222" cy="175" r="1"/>
        <circle cx="221" cy="175" r="1"/>
        <path fill-rule="evenodd" d="M237 178l-1-1 1 1h7c0-1 0-1 0 0h3l1 1h-1-1a1 1 0 01-1 0h-1l-2-1h0a1 1 0 01-2 0h-3-1 1zm1 0s0 0 0 0h-1 1c1 0 0 0 0 0zm2 0h-1c-1 0 0 0 0 0s0 0 0 0h1zm4 0h-1s0 0 0 0 0 0 0 0h1zm-2 0h-1s0 0 0 0 0 0 0 0h1zm4 0h-1s0 0 0 0h1zm-2 0s0 0 0 0h0s0 0 0 0h0zm3 0v1l-1-1s0 0 0 0h1z"/>
      </g>
      <use xlink:href="#d" width="100%" height="100%" transform="matrix(-1 0 0 1 500 0)"/>
      <path fill="#0a328c" d="M250 166c-3 0-5 1-5 2h1l4 1 4-1-4-2z" stroke="none"/>
      <path d="M254 168v7l-4 2-5-2v-7c0 1 2 2 5 2l4-2z" stroke="none"/>
      <path fill="#d20014" d="M245 168v1l3 7 1-5 2 5 2-5 1 3v-1l-1-4a8 8 0 01-1 0l-1 4-1-4a15 15 0 01-1 1l-1 3-2-4-1-1z" stroke="none"/>
      <path fill="#0a328c" d="M254 174v1l-4 2-5-2v-1l5 1 4-1z" stroke="none"/>
      <path d="M252 175h-1v1h1v-1zm-5 0v1h1v-1a9 9 0 01-1 0zm-2-1v1l1 1v-2h-1zm9 0v1-1z" stroke="none"/>
      <path fill="none" d="M254 168v7l-4 2-5-2v-7" stroke="none"/>
      <path fill="#fff" d="M253 168l-3 1-4-1 4-1 3 1z" stroke="none"/>
      <path d="M249 168v1h1v-1h-1zm4 0h-1v1h1v-1zm-6-2v1-1zm3 0h-1l1 1v-1zm2 0v1h1v-1a5 5 0 00-1 0zm-6 3v-2h-1v1l1 1zm8-1v-1 1zm10-8l2 2-2 1-2 1 1-1v-3h1zM263 163h1c1 0 0 0 0 0h1" stroke="none"/>
      <path fill="#d20014" d="M264 161v-2h-1l-2 1 1 1 1-1 1 1z" stroke="none"/>
      <path fill-rule="evenodd" d="M214 175v1l-8 3 1-2 1 1c0-2 2-3 2-3l-4 2h1l-2 3 4 1-1 1 4-1-3-2v1l-2-1 7-2 1 1v-1a1 1 0 001 0v-1a1 1 0 00-1 0l-1-1zm2 1v1l-1-1h1z" stroke="none"/>
      <path d="M293 178v-2h-1c1-1-1-4-1-4l4 4h-1l1 3-1 1h-1v-1l-8-3-1-1h2l7 3z" stroke="none"/>
      <path d="M286 177l1-2h-1l-1 1c-1 1 0 1 1 1z" stroke="none"/>
    </g>
    <g fill="#fff" stroke="none">
      <path d="M290 289v-3h-3l-1 3h4z"/>
      <path d="M264 293l-4-3c19 2 23-5 28-5 3-1 3 3-2 1l1 4s-14 8-27 4l4-1zm85-4v-3h5v3h-5z"/>
      <path d="M376 292l4-2c-22 0-17-4-28-5-3-1-5 3 2 1l-1 4h3c8 5 18 5 25 4l-5-2z"/>
      <path d="M286 286v5s12 5 34 5 34-5 34-5v-5s-9 5-34 5-35-5-35-5z"/>
    </g>
    <path fill="#000" d="M287 291l1-3h1l-1 3 2 1-3-1zm4-1v-2l1 1-1 1zm5-1l1 1-1 2v1a1 1 0 01-1 0h-1a1 1 0 01-1-1v-1l1-2v2a2 2 0 000 1v1h1l1-1v-3zm1 4v-3h1l2 3v-3h1l-1 4h-1l-1-3-1 3v-1zm4 1v-4h1l-1 4zm1-2l1-1a2 2 0 012 0h1v2a2 2 0 010 1 2 2 0 01-1 0 2 2 0 01-1 1 2 2 0 01-1-1 2 2 0 010-1 2 2 0 01-1-1zm1 0v2h2l1-1a2 2 0 000-1 1 1 0 00-1-1 1 1 0 00-1 0h-1v1zm4 3v-4h1l1 3 1-3v4h-1l-2-3v3zm5 0v-4h3v1h-2v1h2v1l-2-1v2h-1zm3 0l2-4 2 4h-1v-1h-2v1h-1zm1-1h2l-1-1a10 10 0 010-1v1l-1 1zm3 1v-3h1v3h-1zm3 0v-3h-1 3-2v3zm4 0v-4 4h2-2zm2 0l2-4 2 4-1-1h-2v1h-1zm1-2h2l-1-1-1 1zm5 2v-4h2-2v1h2v1h-2l1 2h-1zm3-2a2 2 0 010-2 2 2 0 012-1h1v1l1 1v1a2 2 0 01-1 1 2 2 0 01-1 0 2 2 0 01-1 0 2 2 0 01-1-1 2 2 0 010-1zm1-1v1l1 1 1-1v-1a2 2 0 000-1 1 1 0 00-1 0h-1v1zm4 2l-1-4h3v2l1 1-1-1a7 7 0 00-1 0h-1v2zm0-3h1a2 2 0 001 0 1 1 0 000-1h-2v2zm6 0h1l-1 1a2 2 0 01-1 1 2 2 0 01-1 0 2 2 0 010-1 3 3 0 01-1-1 2 2 0 010-1l1-1h2v1a1 1 0 00-1-1 1 1 0 00-1 1v1a2 2 0 000 1h1a1 1 0 001 0v-1zm2 1l-1-4h3l-3 1 1 1 2-1v1h-2v2l2-1-2 1z" stroke="none"/>
  </g>
</svg>
