<svg xmlns="http://www.w3.org/2000/svg" id="flag-icons-im" viewBox="0 0 640 480">
  <defs>
    <clipPath id="a">
      <path d="M-78 0h683v512H-78z"/>
    </clipPath>
  </defs>
  <g clip-path="url(#a)" transform="translate(73) scale(.94)">
    <path fill="#ba0000" fill-rule="evenodd" d="M629 512h-731V0h731z"/>
    <path fill="#ffef00" fill-rule="evenodd" stroke="#000" stroke-width="2" d="M281 376v-7l-9-11 12 3 5-12 5 13 12 5-8 7 2 13-8-8-9 1-2-4z"/>
    <path fill="#fff" fill-rule="evenodd" stroke="#000" stroke-width="3" d="M219 207c-8 4-37 37-41 43a77 77 0 01-17 23c-7 6-11 13-10 20 0 9 4 15 8 21 3 3 6 5 9 5 7 1 8 3 11 4 14 19 34 32 48 43a68 68 0 0118 12c4 9 4 16 3 20l-11 41c-2 11 8 9 9 6 4-5 10-1 20-34l12-17 5-3c8-9 2-14-2-15l-9-4-12-10a195 195 0 00-46-60l-11-5c-3-1-1-4 1-6 20-11 36-23 55-35l3-2-7-39-32-12-4 4z"/>
    <path fill="#ffec00" fill-rule="evenodd" d="M245 413l20-4-2 8-20 6 2-10z"/>
    <path fill="none" stroke="#000" stroke-width="2" d="M194 339a38 38 0 0121-21M245 413l8-2 5-1 6-1a39 39 0 015-2m-28 19a15 15 0 013-2l6-3a54 54 0 005-1l4-1 5-2M249 341h0l-1 2c0 1-4 3-7 3a53 53 0 01-5 1l-1-1m14 54h5l5 1h9l4 1-4-1 4 1m-33 33a14 14 0 012-2l6-3a47 47 0 005-1l4-1 4-2m6-41v4a12 12 0 006 4l3 1h2m-124-95h0l1-1 3-2m14 24l19-10 3-3 3-2 2-3 2-2 1-4m21 12v4c0 1-2 6-5 8"/>
    <path fill="none" stroke="#000" stroke-width="2" d="M193 308l6 2 17 9 3 3 3 3 3 3a113 113 0 0113 25l2 3 2 3 3 2 4 3 17 10c1 1 5 6 2 9l-3 3-4 2c-7 2-10 1-11 1h-2m-89-115l3 1 3 1c2 1 5 1 7 3l3 3a22 22 0 005 2l5 1h7-4 4"/>
    <path fill="#ffe606" fill-rule="evenodd" stroke="#000" stroke-width="2" d="M159 293l12 1h9c5 0 6-2 7-4l4-6c3-1 6 3 6 3 8 7 1 17 1 17-4 4-5 4-7 1l-5-5c-4-2-12 0-12 0l-5 1c-1 1-3 3-6 3-3 1-5 0-6-2-3-4-2-8 2-9z"/>
    <path fill="#ffef00" fill-rule="evenodd" stroke="#000" stroke-width="2" d="M382 121l-6 3-5 13-4-11-13 1 9-11-1-13 10 4 10-8-2 11 5 7-3 4z"/>
    <path fill="#fff" fill-rule="evenodd" stroke="#000" stroke-width="3" d="M265 258c7 5 51 14 57 15a77 77 0 0129 3c8 3 17 3 22-1 8-4 11-12 14-18a12 12 0 000-10c-2-7-1-8-1-12 9-21 11-45 13-63l2-21a32 32 0 0116-13l41-10c11-4 4-11 2-10-7-1-7-9-40-1l-21-3-5-3c-11-2-13 5-12 10l1 10-4 15c-10 11-26 49-27 57 0 6-3 5-2 12 0 5-1 2 1 12 1 4-3 3-6 2-19-12-37-20-57-30l-3-2-31 25 6 34 5 2z"/>
    <path fill="#ffec00" fill-rule="evenodd" d="M432 134a375 375 0 01-14-16l8-1 15 14-9 3z"/>
    <path fill="none" stroke="#000" stroke-width="2" d="M392 215a38 38 0 01-28-9M432 134l-6-6a67 67 0 00-4-4l-3-4a37 37 0 01-4-4m30 15l-3-1-6-4a54 54 0 00-3-4l-3-3a30 30 0 01-4-3M367 166h2l7 4 2 4 1 1m40-38h-1v-1l-2-4-2-4-2-4-2-5-1-3 1 3-1-3m44 12a12 12 0 01-2-1l-5-4a47 47 0 00-4-3l-3-3a26 26 0 01-3-3m-39 15c3 0 3-1 3-2l1-7-1-3v-2m-22 155v-1h-2l-3-1m13-24c0-1-15-11-17-11l-5-2-2-2h-7l-4 1m0-25l4-1h9"/>
    <path fill="none" stroke="#000" stroke-width="2" d="M366 231l-2-7a100 100 0 010-19l1-4 1-4 2-4c0-4 12-20 12-21a43 43 0 013-3l1-3 2-3 1-4v-4l1-20c0-2 2-8 6-7l4 2 4 2c5 5 6 8 7 10v1m-56 133h0l-1-1-1-5v-7-4-5l-1-4-2-4-2-3 2 3-2-3"/>
    <path fill="#ffe606" fill-rule="evenodd" stroke="#000" stroke-width="2" d="M370 268c-3-4-5-11-5-11l-5-8c-3-4-5-4-7-4l-7-1c-3-1-1-6-1-6 3-11 14-10 15-10 5 2 5 3 4 6l-2 7c1 4 6 11 6 11l3 2c2 2 4 2 6 5s2 4 1 7c-2 3-6 4-9 2z"/>
    <path fill="#ffef00" fill-rule="evenodd" stroke="#000" stroke-width="2" d="M105 169l6 3 14-3s-8 9-7 10l8 9-15-1-10 8-2-11-12-4 11-4 3-8 4 1z"/>
    <path fill="#fff" fill-rule="evenodd" stroke="#000" stroke-width="3" d="M284 191c0-8-16-50-19-56a77 77 0 01-13-25c-1-9-6-16-13-19-8-4-15-2-23-2-3 1-7 3-8 6-4 6-6 5-9 8-23 3-44 15-60 23a68 68 0 01-19 10 32 32 0 01-19-7l-32-28c-9-7-11 3-9 4 3 7-4 11 21 34l9 19v6c5 10 12 8 15 5l8-7 14-5c16 2 56-5 63-9 6-3 6 0 11-4l10-8c3-2 5 1 5 4 1 22 4 42 6 64v4l39 12 24-23-1-6z"/>
    <path fill="#ffec00" fill-rule="evenodd" d="M89 120l-6 19-5-5 4-20 7 6z"/>
    <path fill="none" stroke="#000" stroke-width="2" d="M179 108c7 8 9 22 8 29M89 119l-2 9a67 67 0 00-1 5l-2 5-1 5m-3-33v3l-1 7a54 54 0 00-1 5l-1 5a31 31 0 010 4M151 156h0c-1 1 0 0-1-1v-8a55 55 0 012-5l1-1m-54-12h0l-1 1-2 4-2 3-3 4-2 4-2 4 2-4-2 4m-15-45l1 3-1 7v4l-1 4a26 26 0 01-1 5m34 24c-2-2-3-1-4-1a12 12 0 00-5 3l-3 3-1 1m141-67v2l1 4m-27 1v21l1 5v3l2 3c0 2 1 2 2 3l2 3m-20 13l-3-2c-2-1-5-5-5-8"/>
    <path fill="none" stroke="#000" stroke-width="2" d="M207 122l-5 5a94 94 0 01-16 10l-4 2-4 1a113 113 0 01-29 2 43 43 0 01-3-1l-4 1h-3l-4 2-4 2-17 10c-2 1-7 3-9-2l-1-4v-4c1-7 3-10 4-11l1-2m142-25h0l-1 1-3 3-3 2c0 2-1 2-3 3a20 20 0 00-3 1l-5 3-2 3-3 4-2 4 2-4-2 4m12 73v-1h1v-6l1-6-1-6v-5l-1-5a30 30 0 000-5l-1-4-1-5-1-4-1-5a14 14 0 01-1-3l-2-4-1-3-2-4-1-4-1-1"/>
    <path fill="#ffe606" fill-rule="evenodd" stroke="#000" stroke-width="2" d="M235 99a59 59 0 01-6 9l-4 9c-2 4-1 6 0 7l3 7c0 3-5 4-5 4-10 4-15-6-15-7-2-5-2-6 2-7l6-2c4-3 6-10 6-10l1-5v-7c2-3 2-4 6-4 4-1 7 2 6 6z"/>
    <path fill="#ffef00" fill-rule="evenodd" stroke="#000" stroke-width="2" d="M221 200c-1-2 30 11 34 11 6-2 30-22 30-22 0 2 1 7 3 8l-27 22c1 12-1 25 5 38h-7c-7-6-9-37-9-37l-31-14c2-1 3-4 2-6z"/>
    <path fill="none" stroke="#000" stroke-width="2" d="M251 231l-7 4c-28 15-43 37-44 38l-2 3-2 3a61 61 0 01-4 5s0-1 0 0m78-71a79 79 0 007 5c26 18 52 21 53 22h4l4 1 6 1v-1"/>
  </g>
</svg>
