<svg xmlns="http://www.w3.org/2000/svg" id="flag-icons-io" viewBox="0 0 640 480">
  <rect fill="#fff" width="640" height="480"/>
  <path fill="#000063" fill-rule="evenodd" d="M640 416c-7 7-13 22-32 22-38 0-48-32-77-32-19 0-28 32-47 32-38 0-48-32-76-32-19 0-29 32-48 32-38 0-48-32-76-32-19 0-29 32-48 32-38 0-47-32-76-32-19 0-29 32-48 32-38 0-47-32-76-32-19 0-25 23-36 23v42c11 0 17-23 36-23 29 0 38 32 76 32 19 0 29-33 48-33 29 0 38 33 76 33 19 0 29-33 48-33 28 0 38 33 76 33 19 0 29-33 48-33 28 0 38 33 76 33 19 0 28-33 47-33 29 0 39 33 77 33 19 0 25-9 32-16zm0-81c-7 7-13 22-32 22-38 0-48-32-77-32-19 0-28 32-47 32-38 0-48-32-76-32-19 0-29 32-48 32-38 0-48-32-76-32-19 0-29 32-48 32-38 0-47-32-76-32-19 0-29 32-48 32-38 0-47-32-76-32-19 0-25 23-36 23v41c11 1 17-23 36-23 29 0 38 33 76 33 19 0 29-33 48-33 29 0 38 33 76 33 19 0 29-33 48-33 28 0 38 33 76 33 19 0 29-33 48-33 28 0 38 33 76 33 19 0 28-33 47-33 29 0 39 33 77 33 19 0 25-9 32-16zm0-81c-7 7-13 22-32 22-38 0-48-33-77-33-19 0-28 33-47 33-38 0-48-33-76-33-19 0-29 33-48 33-38 0-48-33-76-33-19 0-29 33-48 33-38 0-47-33-76-33-19 0-29 33-48 33-38 0-47-33-76-33-19 0-25 24-36 24v41c11 0 17-23 36-23 29 0 38 33 76 33 19 0 29-33 48-33 29 0 38 33 76 33 19 0 29-33 48-33 28 0 38 33 76 33 19 0 29-33 48-33 28 0 38 33 76 33 19 0 28-33 47-33 29 0 39 33 77 33 19 0 25-10 32-16zm0-81c-7 6-13 22-32 22-38 0-48-33-77-33-19 0-28 33-47 33-38 0-48-33-76-33-19 0-29 33-48 33-38 0-48-33-76-33-19 0-29 33-48 33-38 0-47-33-76-33-19 0-29 33-48 33-38 0-47-33-76-33-19 0-25 24-36 24v41c11 0 17-23 36-23 29 0 38 33 76 33 19 0 29-33 48-33 29 0 38 33 76 33 19 0 29-33 48-33 28 0 38 33 76 33 19 0 29-33 48-33 28 0 38 33 76 33 19 0 28-33 47-33 29 0 39 33 77 33 19 0 25-10 32-16zm0-81c-7 6-13 22-32 22-38 0-48-33-77-33-19 0-28 33-47 33-38 0-48-33-76-33-19 0-29 33-48 33-38 0-48-33-76-33-19 0-29 33-48 33-38 0-47-33-76-33-19 0-29 33-48 33-38 0-47-33-76-33-19 0-25 23-36 23v42c11 0 17-23 36-23 29 0 38 33 76 33 19 0 29-33 48-33 29 0 38 33 76 33 19 0 29-33 48-33 28 0 38 33 76 33 19 0 29-33 48-33 28 0 38 33 76 33 19 0 28-33 47-33 29 0 39 33 77 33 19 0 25-10 32-16V92zm0-81c-7 6-13 22-32 22-38 0-48-33-77-33-19 0-28 33-47 33-38 0-48-33-76-33-19 0-29 33-48 33-38 0-48-33-76-33-19 0-29 33-48 33-38 0-47-33-76-33-19 0-29 33-48 33C74 33 65 0 36 0 17 0 11 23 0 23v42c11 0 17-23 36-23 29 0 38 32 76 32 19 0 29-32 48-32 29 0 38 32 76 32 19 0 29-32 48-32 28 0 38 32 76 32 19 0 29-32 48-32 28 0 38 32 76 32 19 0 28-32 47-32 29 0 39 32 77 32 19 0 25-9 32-15z"/>
  <path fill="#a24300" fill-rule="evenodd" stroke="#fff" stroke-width="2" d="M475 132l-4 329c0 17 16 17 18 0l-4-329z"/>
  <path fill="#006d00" fill-rule="evenodd" stroke="#fff" stroke-width="2" d="M511 254l-11-12-3 12-5-17-4 8-1-18-4 9-1-19-5 9-2-22-4 9-3-22-4 9-3-22-1-11 2-4 6 2 9 8 18 18-11-5 18 18-11-4 18 17-11-4 16 14-11-5 16 15-11-5 13 16-13-8 3 14z"/>
  <path fill="none" d="M511 254l-49-91m33 28l-26-15-5 24"/>
  <path fill="none" d="M502 204l-26-15-5 24"/>
  <path fill="none" d="M509 217l-26-15-5 24"/>
  <path fill="none" d="M514 227l-24-12-7 21"/>
  <path fill="none" d="M520 237l-25-12-7 21"/>
  <path fill="none" d="M521 247l-23-16-1 23"/>
  <path fill="#006d00" fill-rule="evenodd" stroke="#fff" stroke-width="2" d="M383 98l18 7-5-14 15 16-1-11 12 18-1-11 12 18-1-11 16 21-1-11 16 21-1-11 16 21 8 10 1 6h-7l-14-4-28-9 13-1-28-9 13-1-28-8 14-2-25-6 13-1-24-6 13-1-21-10 17 2-12-13z"/>
  <path fill="none" d="M383 98l104 69m-49-13l34 3-10-27"/>
  <path fill="none" d="M423 144l34 3-10-27"/>
  <path fill="none" d="M408 135l34 2-10-27"/>
  <path fill="none" d="M397 127h31l-7-24"/>
  <path fill="none" d="M386 120h30l-6-24"/>
  <path fill="none" d="M378 109l31 6-13-24"/>
  <path fill="#006d00" fill-rule="evenodd" stroke="#fff" stroke-width="2" d="M590 121l-15 11 16 1-23 6 13 4-25 1 12 4-24 2 12 3-29 4 12 4-29 3 12 4-29 3-14 2-6-2 2-5 11-9 21-18-5 11 22-18-5 10 21-17-4 10 17-16-4 11 17-16-5 10 19-12-9 13 19-4z"/>
  <path fill="none" d="M590 121l-117 50m34-32l-18 25 33 4"/>
  <path fill="none" d="M524 132l-18 25 33 4"/>
  <path fill="none" d="M540 124l-17 26 33 3"/>
  <path fill="none" d="M553 119l-13 24 28 5"/>
  <path fill="none" d="M566 114l-14 23 29 5"/>
  <path fill="none" d="M580 112l-19 21h30"/>
  <path fill="#006d00" fill-rule="evenodd" stroke="#fff" stroke-width="2" d="M587 230l-18-5 7 13-17-14 2 11-14-18 2 11-14-17 2 11-18-20 3 11-19-19 3 11-19-20-9-9-1-6 6-1 15 3 29 7-13 2 29 6-13 2 29 7-14 2 25 4-13 2 25 5-13 2 22 8h-17l13 12z"/>
  <path fill="none" d="M587 230l-110-60m50 9h-34l13 26"/>
  <path fill="none" d="M543 187h-35l14 26"/>
  <path fill="none" d="M558 196h-34l13 26"/>
  <path fill="none" d="M570 202l-30 2 9 24"/>
  <path fill="none" d="M582 209l-30 2 9 24"/>
  <path fill="none" d="M591 218l-31-3 16 23"/>
  <path fill="#006d00" fill-rule="evenodd" stroke="#fff" stroke-width="2" d="M395 237l9-13-14 2 18-10-11-1 20-7h-11l20-7-12-1 23-10h-11l23-10h-11l23-10 12-5 5 1v5l-6 10-13 21 1-10-13 20 1-10-13 20 1-10-10 18 1-11-10 19 1-11-12 15 4-13-15 8z"/>
  <path fill="none" d="M395 237l83-71m-19 36l7-26-28 4"/>
  <path fill="none" d="M447 212l7-26-28 4"/>
  <path fill="none" d="M435 222l8-26-29 4"/>
  <path fill="none" d="M426 230l5-24-25 2"/>
  <path fill="none" d="M418 238l4-24-25 1"/>
  <path fill="none" d="M406 242l10-23-26 7"/>
  <path fill="#006d00" fill-rule="evenodd" stroke="#fff" stroke-width="2" d="M563 66l-18 12-3-13-10 18-2-8-9 18-1-9-7 19-4-9-6 23-4-9-7 22-4-8-6 22-4 12 2 4 7-2 13-10 25-18-15 5 25-19-14 5 25-18-15 4 25-14-17 4 27-14-16 4 19-15-17 8z"/>
  <path fill="none" d="M556 73l-26 22-50 65"/>
  <path fill="none" d="M519 133l-28 13-3-20"/>
  <path fill="none" d="M530 119l-29 14-2-21"/>
  <path fill="none" d="M541 106l-29 13-2-21"/>
  <path fill="none" d="M549 95l-27 10-3-17"/>
  <path fill="none" d="M559 86l-29 9-1-16"/>
  <path fill="none" d="M563 76l-27 14 5-21"/>
  <path fill="#006d00" fill-rule="evenodd" stroke="#fff" stroke-width="2" d="M466 44l8 18 10-10-1 20 7-6-4 19 6-6-6 19 9-6-8 22 9-6-8 22 8-6-8 23-4 11-4 3-5-5-5-14-10-27 10 11-11-27 10 10-10-27 9 11-12-23 12 11-15-24 11 11-7-22 10 14z"/>
  <path fill="none" d="M468 52l9 31 3 78"/>
  <path fill="none" d="M463 120l16 25 15-17"/>
  <path fill="none" d="M462 104l17 24 14-17"/>
  <path fill="none" d="M462 87l16 25 14-17"/>
  <path fill="none" d="M460 75l17 20 13-13"/>
  <path fill="none" d="M458 62l19 21 11-14"/>
  <path fill="none" d="M460 52l15 24 8-20"/>
  <path fill="#006d00" fill-rule="evenodd" stroke="#fff" stroke-width="2" d="M359 178l23-16-11-6 20 3-7-9 20 7-7-9 20 7-7-9 24 8-7-9 23 12-7-9 24 8 12 6 3 5-4 3-13 2-21 8 4-7-26 4 9-7-26 8 10-7-23 9 10-11-23 12 10-10-18 13 10-14z"/>
  <path fill="none" d="M366 174l25-11 12-2h11l19 1 16 1 33 4"/>
  <path fill="none" d="M447 177l19-11-19-15"/>
  <path fill="none" d="M427 175l22-12-19-15"/>
  <path fill="none" d="M412 175l21-13-19-13m-30 29l19-17-15-8"/>
  <path fill="none" d="M376 179l15-16-12-4m18 17l19-15-15-10"/>
  <g fill-rule="evenodd">
    <path fill="#c00" stroke="#000" d="M542 1173l-2-229-61-107c-16-52-8-78 17-80 24-1 49 14 84 16 36 1 29-60 82-58s144 32 222 37 119-27 209-30c90-4 114 42 119 42s30-18 56-22c25-3 34 10 34 10s-2 58-14 92-54 90-56 90l-15 251c0 2-675-7-675-12z" transform="matrix(.12934 0 0 .11906 368 216)"/>
    <g stroke="#000">
      <path fill="#fff100" d="M532 585s-68-52-70-177c-1-72 34-124 123-124 124 0 301 53 301 53v17s-142-53-301-53c-71 0-107 52-107 105 0 89 71 179 71 179v141h-17z" transform="matrix(-.12934 0 0 .11906 597 258)"/>
      <path fill="#fff" d="M478 549a18 18 0 11-35 0 18 18 0 0135 0z" transform="matrix(-.12934 0 0 .11906 595 257)"/>
      <path fill="#fff" d="M478 549a18 18 0 11-35 0 18 18 0 0135 0z" transform="matrix(-.12934 0 0 .11906 597 253)"/>
      <path fill="#fff" d="M478 549a18 18 0 11-35 0 18 18 0 0135 0z" transform="matrix(-.12934 0 0 .11906 598 248)"/>
      <path fill="#fff" d="M478 549a18 18 0 11-35 0 18 18 0 0135 0z" transform="matrix(-.12934 0 0 .11906 599 242)"/>
      <path fill="#fff" d="M478 549a18 18 0 11-35 0 18 18 0 0135 0z" transform="matrix(-.12934 0 0 .11906 599 237)"/>
      <path fill="#fff" d="M478 549a18 18 0 11-35 0 18 18 0 0135 0z" transform="matrix(-.12934 0 0 .11906 591 262)"/>
      <path fill="#fff" d="M478 549a18 18 0 11-35 0 18 18 0 0135 0z" transform="matrix(-.12934 0 0 .11906 597 231)"/>
      <path fill="#fff" d="M478 549a18 18 0 11-35 0 18 18 0 0135 0z" transform="matrix(-.12934 0 0 .11906 593 227)"/>
      <path fill="#fff" d="M478 549a18 18 0 11-35 0 18 18 0 0135 0z" transform="matrix(-.12934 0 0 .11906 587 224)"/>
      <path fill="#fff" d="M478 549a18 18 0 11-35 0 18 18 0 0135 0z" transform="matrix(-.12934 0 0 .11906 581 224)"/>
      <path fill="#fff" d="M478 549a18 18 0 11-35 0 18 18 0 0135 0z" transform="matrix(-.12934 0 0 .11906 575 224)"/>
      <path fill="#fff" d="M478 549a18 18 0 11-35 0 18 18 0 0135 0z" transform="matrix(-.12934 0 0 .11906 569 225)"/>
      <path fill="#fff" d="M478 549a18 18 0 11-35 0 18 18 0 0135 0z" transform="matrix(-.12934 0 0 .11906 563 226)"/>
      <path fill="#fff" d="M478 549a18 18 0 11-35 0 18 18 0 0135 0z" transform="matrix(-.12934 0 0 .11906 556 227)"/>
      <path fill="#fff" d="M478 549a18 18 0 11-35 0 18 18 0 0135 0z" transform="matrix(-.12934 0 0 .11906 550 228)"/>
    </g>
    <path fill="#fff" stroke="#000" d="M478 549a18 18 0 11-35 0 18 18 0 0135 0z" transform="matrix(.12934 0 0 .11906 370 257)"/>
    <path fill="#fff" stroke="#000" d="M478 549a18 18 0 11-35 0 18 18 0 0135 0z" transform="matrix(.12934 0 0 .11906 367 253)"/>
    <path fill="#fff" stroke="#000" d="M478 549a18 18 0 11-35 0 18 18 0 0135 0z" transform="matrix(.12934 0 0 .11906 366 248)"/>
    <path fill="#fff" stroke="#000" d="M478 549a18 18 0 11-35 0 18 18 0 0135 0z" transform="matrix(.12934 0 0 .11906 365 242)"/>
    <path fill="#fff" stroke="#000" d="M478 549a18 18 0 11-35 0 18 18 0 0135 0z" transform="matrix(.12934 0 0 .11906 365 237)"/>
    <path fill="#fff" stroke="#000" d="M478 549a18 18 0 11-35 0 18 18 0 0135 0z" transform="matrix(.12934 0 0 .11906 367 231)"/>
    <path fill="#fff" stroke="#000" d="M478 549a18 18 0 11-35 0 18 18 0 0135 0z" transform="matrix(.12934 0 0 .11906 371 227)"/>
    <path fill="#fff" stroke="#000" d="M478 549a18 18 0 11-35 0 18 18 0 0135 0z" transform="matrix(.12934 0 0 .11906 377 224)"/>
    <path fill="#fff" stroke="#000" d="M478 549a18 18 0 11-35 0 18 18 0 0135 0z" transform="matrix(.12934 0 0 .11906 383 224)"/>
    <path fill="#fff" stroke="#000" d="M478 549a18 18 0 11-35 0 18 18 0 0135 0z" transform="matrix(.12934 0 0 .11906 389 224)"/>
    <path fill="#fff" stroke="#000" d="M478 549a18 18 0 11-35 0 18 18 0 0135 0z" transform="matrix(.12934 0 0 .11906 395 225)"/>
    <path fill="#fff" stroke="#000" d="M478 549a18 18 0 11-35 0 18 18 0 0135 0z" transform="matrix(.12934 0 0 .11906 401 226)"/>
    <path fill="#fff" stroke="#000" d="M478 549a18 18 0 11-35 0 18 18 0 0135 0z" transform="matrix(.12934 0 0 .11906 408 227)"/>
    <path fill="#fff" stroke="#000" d="M478 549a18 18 0 11-35 0 18 18 0 0135 0z" transform="matrix(.12934 0 0 .11906 414 228)"/>
    <path fill="#fff" stroke="#000" d="M478 549a18 18 0 11-35 0 18 18 0 0135 0z" transform="matrix(.12934 0 0 .11906 373 262)"/>
    <path fill="#fff100" stroke="#000" d="M532 585s-68-52-70-177c-1-72 34-124 123-124 124 0 301 53 301 53v17s-142-53-301-53c-71 0-107 52-107 105 0 89 71 179 71 179v141h-17z" transform="matrix(.12934 0 0 .11906 368 258)"/>
    <path fill="#fff100" stroke="#000" stroke-width="3" d="M1240 532s16-36 71-36c38 0 71 36 71 71v71h35v-71c0-36 36-71 71-71 53 0 71 35 71 35s0-106-71-106c-53 0-71 36-71 36s18-54 18-107-35-88-35-88c0 6-36 35-36 88s18 107 18 107-18-36-71-36c-71 0-71 106-71 106z" transform="matrix(.04311 0 0 .04536 399 311)"/>
    <path fill="#fff100" stroke="#000" stroke-width="3" d="M1240 532s16-36 71-36c38 0 71 36 71 71v71h35v-71c0-36 36-71 71-71 53 0 71 35 71 35s0-106-71-106c-53 0-71 36-71 36s18-54 18-107-35-88-35-88c0 6-36 35-36 88s18 107 18 107-18-36-71-36c-71 0-71 106-71 106z" transform="matrix(.04311 0 0 .04536 445 311)"/>
    <path fill="#fff100" stroke="#000" d="M532 833V673s35 53 88 53c44 0 89-70 89-70s41 53 88 53c42 0 89-69 89-69s43 69 88 69c46 0 89-53 89-53s46 70 106 70c53 0 71-53 71-53v160z" transform="matrix(.12934 0 0 .11906 368 258)"/>
    <path fill="#fff100" stroke="#000" d="M709 833V709s106 35 106 124z" transform="matrix(.12934 0 0 .11906 345 258)"/>
    <path fill="#fff100" stroke="#000" d="M709 833V709s106 35 106 124z" transform="matrix(-.12934 0 0 .11906 619 258)"/>
    <path fill="#fff100" stroke="#000" d="M602 833c0-89 107-145 107-145s106 56 106 145z" transform="matrix(.12934 0 0 .11906 368 258)"/>
    <path fill="#fff100" stroke="#000" d="M602 833c0-89 107-145 107-145s106 56 106 145z" transform="matrix(.12934 0 0 .11906 413 258)"/>
    <path fill="#fff100" stroke="#000" d="M585 848c0-89 124-160 124-160s124 71 124 160H585z" transform="matrix(.12934 0 0 .11906 390 256)"/>
    <path fill="#fff" stroke="#000" d="M1276 656c-36-18-166-36-377-36s-350 18-385 36c-36 17-36 53 0 70 35 18 175 36 385 36s341-18 377-36c35-17 35-53 0-71z" transform="matrix(.12788 0 0 .11906 367 279)"/>
    <path fill="gray" d="M528 365c0 4-38 4-46 4s-46 2-46-4c0-4 38-4 46-4s46 1 46 4z"/>
    <path fill="#c00" d="M441 350l-2 3-3-3 2-2c2 0 3 1 3 2zm87 0c0 1-1 3-3 3l-2-3c0-1 1-2 3-2l2 2z"/>
    <path d="M487 349c0 1-2 2-5 2l-5-2c0-1 2-3 5-3s5 1 5 3z"/>
    <path fill="#006300" d="M509 349l-4 2c-2 0-3-1-3-2s1-3 3-3 4 1 4 3zm-48 0c0 1-1 2-3 2s-3-1-3-2 1-3 3-3 3 1 3 3z"/>
    <path fill="#fff100" stroke="#000" stroke-width="2" d="M1258 496s35-53 71-53h35v35c0 54-53 71-53 71h142s-53-18-53-71v-35h35c36 0 71 53 71 53V354s-35 54-71 54h-35v-36c0-53 53-71 53-71h-142s53 18 53 71v36h-35c-36 0-71-54-71-54v142z" transform="matrix(.0739 0 0 .06804 380 301)"/>
    <path fill="#fff100" stroke="#000" stroke-width="3" d="M1382 549h71s-53-17-53-71v-35h35c36 0 71 53 71 53V354s-35 54-71 54h-35v-36c0-53 53-71 53-71h-71z" transform="matrix(.03696 0 0 .05953 385 309)"/>
    <path fill="#fff100" stroke="#000" stroke-width="3" d="M1382 549h71s-53-17-53-71v-35h35c36 0 71 53 71 53V354s-35 54-71 54h-35v-36c0-53 53-71 53-71h-71z" transform="matrix(-.03696 0 0 .05953 579 309)"/>
    <path fill="#fff" stroke="#000" d="M904 602a18 18 0 11-36 0 18 18 0 0136 0z" transform="matrix(.12934 0 0 .11906 368 258)"/>
    <path fill="#fff100" stroke="#000" stroke-width="2" d="M1258 496s35-53 71-53h35v35c0 54-53 71-53 71h142s-53-18-53-71v-35h35c36 0 71 53 71 53V354s-35 54-71 54h-35v-36c0-53 53-71 53-71h-142s53 18 53 71v36h-35c-36 0-71-54-71-54v142z" transform="matrix(.0739 0 0 .06804 380 256)"/>
    <path fill="#fff" stroke="#000" d="M904 602a18 18 0 11-36 0 18 18 0 0136 0z" transform="matrix(.12934 0 0 .11906 368 214)"/>
    <path fill="#fff100" stroke="#000" d="M850 656h71v53h-71z" transform="matrix(.12934 0 0 .11906 368 216)"/>
    <path fill="#fff100" stroke="#000" d="M850 683h71v203h-71z" transform="matrix(.12934 0 0 .11906 368 216)"/>
    <path fill="#fff" stroke="#000" d="M478 549a18 18 0 11-35 0 18 18 0 0135 0z" transform="matrix(.12934 0 0 .11906 422 251)"/>
    <path fill="#fff" stroke="#000" d="M478 549a18 18 0 11-35 0 18 18 0 0135 0z" transform="matrix(.12934 0 0 .11906 422 246)"/>
    <path fill="#fff" stroke="#000" d="M478 549a18 18 0 11-35 0 18 18 0 0135 0z" transform="matrix(.12934 0 0 .11906 422 241)"/>
    <path fill="#fff" stroke="#000" d="M478 549a18 18 0 11-35 0 18 18 0 0135 0z" transform="matrix(.12934 0 0 .11906 422 236)"/>
    <path d="M487 357c0 1-2 2-5 2s-4-1-4-2l4-2 5 2zm42 4h-5c-3 0-5-1-4-2h5l4 2zm-18-3l-5 1-4-2 5-1c2 0 5 1 4 2zm-77 3h5l4-2h-5c-3 0-4 1-4 2zm18-3l5 1c3 0 5-1 5-2l-5-1c-3 0-5 1-5 2z"/>
  </g>
  <path fill="#012169" d="M0 0h320v240H0z"/>
  <path fill="#fff" d="M38 0l122 91L281 0h39v31l-120 90 120 89v30h-40l-120-89-119 89H0v-30l120-89L0 32V0z"/>
  <path fill="#c8102e" d="M212 141l108 79v20l-135-99zm-92 10l3 17-96 72H0zM320 0v2L196 96l1-22 98-74zM0 0l120 88H90L0 21z"/>
  <path fill="#fff" d="M121 0v240h80V0zM0 80v80h320V80z"/>
  <path fill="#c8102e" d="M0 97v48h320V97zM137 0v240h48V0z"/>
</svg>
