<svg xmlns="http://www.w3.org/2000/svg" id="flag-icons-iq" viewBox="0 0 640 480">
  <path fill="#fff" d="M0 160h640v160H0z"/>
  <path fill="#ce1126" d="M0 0h640v160H0z"/>
  <path d="M0 320h640v160H0z"/>
  <g fill="#007a3d" transform="translate(-179 -93) scale(1.75182)">
    <path d="M326 173a5 5 0 01-2-1h1c3 1 4 0 6-1l1-1 1 1h2l2-2h1c1 2 0 4-2 4h-5a5 5 0 01-5 0zm5-5a8 8 0 01-1-4l1-1 1 3c0 2 0 3-1 2zm-67-2l3 5-2 1-21 21h24c0-6 5-6 8-8 2 3 6 3 7 7v17h-67a10 10 0 01-12 8c2-2 5-3 6-6 1-6-2-10-4-14a24 24 0 007-3c-2 7 6 6 13 6 0-3 0-6-2-6l7-4v9h46c0-3 0-8-2-8s0 6-2 6h-35v-6l11-11 15-14zm89 0l7 4-1 3v27c3 0 4-2 5-3 1 5 4 9 3 12h-14v-43zm-20 14l6-5v24h4l-1-26 6-6v42h-34c0-8 0-17 10-16v-3l-1-1 6-5 1 15h3v-19zm-12 19c1 1 3 1 3-1s-4-1-3 1z"/>
    <circle cx="224" cy="214" r="2"/>
    <path d="M287 166l8 4-2 3v27c3 1 4-1 6-2l3 12h-15v-44z"/>
  </g>
</svg>
