<svg xmlns="http://www.w3.org/2000/svg" id="flag-icons-ir" viewBox="0 0 640 480">
  <defs>
    <clipPath id="a">
      <path d="M-85 0h682v512H-85z"/>
    </clipPath>
  </defs>
  <g fill-rule="evenodd" clip-path="url(#a)" transform="translate(80) scale(.9375)">
    <path fill="#fff" d="M-192 0h896v512h-896z"/>
    <path fill="#da0000" d="M-192 344h896v168h-896z"/>
    <g fill="#fff">
      <path d="M-22 351h49v3h-49zm8 17h3v3h-3zm42 0v3H18v-3zm5-17h3v20h-3z"/>
      <path d="M52 368v3H34v-3zm-34-8h3v11h-3z"/>
      <path d="M50 351h3v20h-3zm-9 0h4v20h-4zm-45 8v3h-18v-3zm40 0v3H18v-3z"/>
      <path d="M18 360h3v11h-3z"/>
      <path d="M18 360h3v11h-3z"/>
      <path d="M18 360h3v11h-3zm-39 0h3v11h-3zm28 0h4v11H7zm-14 0h3v11h-3z"/>
      <path d="M10 368v3H-5v-3zm1-9v3H1v-3z"/>
    </g>
    <g fill="#fff">
      <path d="M-102 351h49v3h-49zm7 17h3v3h-3zm42 0v3h-10v-3zm5-17h4v20h-4z"/>
      <path d="M-28 368v3h-19v-3zm-35-8h4v11h-4z"/>
      <path d="M-31 351h3v20h-3zm-8 0h3v20h-3zm-45 8v3h-18v-3zm39 0v3h-18v-3z"/>
      <path d="M-63 360h4v11h-4z"/>
      <path d="M-63 360h4v11h-4z"/>
      <path d="M-63 360h4v11h-4zm-39 0h3v11h-3zm29 0h3v11h-3zm-15 0h4v11h-4z"/>
      <path d="M-71 368v3h-15v-3zm1-9v3h-10v-3z"/>
    </g>
    <g fill="#fff">
      <path d="M58 351h49v3H58zm8 17h3v3h-3zm41 0v3h-9v-3zm6-17h3v20h-3z"/>
      <path d="M132 368v3h-18v-3zm-34-8h3v11h-3z"/>
      <path d="M130 351h3v20h-3zm-9 0h3v20h-3zm-45 8v3H58v-3zm40 0v3H98v-3z"/>
      <path d="M98 360h3v11h-3z"/>
      <path d="M98 360h3v11h-3z"/>
      <path d="M98 360h3v11h-3zm-40 0h4v11h-4zm29 0h4v11h-4zm-14 0h3v11h-3z"/>
      <path d="M90 368v3H74v-3zm1-9v3H81v-3z"/>
    </g>
    <g fill="#fff">
      <path d="M623 351h49v3h-49zm7 17h3v3h-3zm42 0v3h-10v-3zm5-17h3v20h-3z"/>
      <path d="M697 368v3h-19v-3zm-35-8h4v11h-4z"/>
      <path d="M694 351h3v20h-3zm-8 0h3v20h-4zm-45 8v3h-18v-3zm39 0v3h-18v-3z"/>
      <path d="M662 360h4v11h-4z"/>
      <path d="M662 360h4v11h-4z"/>
      <path d="M662 360h4v11h-4zm-39 0h3v11h-3zm29 0h3v11h-3zm-15 0h4v11h-4z"/>
      <path d="M654 368v3h-15v-3zm1-9v3h-10v-3z"/>
    </g>
    <g fill="#fff">
      <path d="M139 351h49v3h-49zm7 17h3v3h-3zm42 0v3h-10v-3zm5-17h4v20h-4z"/>
      <path d="M213 368v3h-19v-3zm-35-8h4v11h-4z"/>
      <path d="M210 351h3v20h-3zm-8 0h3v20h-3zm-45 8v3h-18v-3zm39 0v3h-18v-3z"/>
      <path d="M178 360h3v11h-3z"/>
      <path d="M178 360h3v11h-3z"/>
      <path d="M178 360h3v11h-3zm-39 0h3v11h-3zm29 0h3v11h-3zm-15 0h4v11h-4z"/>
      <path d="M170 368v3h-15v-3zm1-9v3h-10v-3z"/>
    </g>
    <g fill="#fff">
      <path d="M220 351h49v3h-49zm7 17h3v3h-3zm42 0v3h-10v-3zm5-17h3v20h-3z"/>
      <path d="M294 368v3h-19v-3zm-35-8h3v11h-3z"/>
      <path d="M291 351h3v20h-3zm-9 0h4v20h-4zm-44 8v3h-18v-3zm39 0v3h-18v-3z"/>
      <path d="M259 360h3v11h-3z"/>
      <path d="M259 360h3v11h-3z"/>
      <path d="M259 360h3v11h-3zm-39 0h3v11h-3zm28 0h4v11h-4zm-14 0h3v11h-3z"/>
      <path d="M251 368v3h-15v-3zm1-9v3h-10v-3z"/>
    </g>
    <path fill="#239f40" d="M-192 0h896v168h-896z"/>
    <g fill="#fff">
      <path d="M301 351h49v3h-49zm7 17h3v3h-3zm42 0v3h-10v-3zm5-17h3v20h-3z"/>
      <path d="M375 368v3h-19v-3zm-35-8h3v11h-3z"/>
      <path d="M372 351h3v20h-3zm-8 0h3v20h-4zm-45 8v3h-18v-3zm39 0v3h-18v-3z"/>
      <path d="M340 360h4v11h-4z"/>
      <path d="M340 360h4v11h-4z"/>
      <path d="M340 360h4v11h-4zm-39 0h3v11h-3zm29 0h3v11h-3zm-15 0h4v11h-4z"/>
      <path d="M332 368v3h-15v-3zm1-9v3h-10v-3z"/>
    </g>
    <g fill="#fff">
      <path d="M381 351h49v3h-49zm8 17h3v3h-3zm42 0v3h-10v-3zm5-17h3v20h-3z"/>
      <path d="M455 368v3h-18v-3zm-34-8h3v11h-3z"/>
      <path d="M453 351h3v20h-3zm-9 0h4v20h-4zm-45 8v3h-18v-3zm40 0v3h-18v-3z"/>
      <path d="M421 360h3v11h-3z"/>
      <path d="M421 360h3v11h-3z"/>
      <path d="M421 360h3v11h-3zm-39 0h3v11h-4zm28 0h4v11h-4zm-14 0h3v11h-3z"/>
      <path d="M413 368v3h-15v-3zm1-9v3h-10v-3z"/>
    </g>
    <g fill="#fff">
      <path d="M462 351h49v3h-49zm7 17h4v3h-4zm42 0v3h-9v-3zm6-17h3v20h-3z"/>
      <path d="M536 368v3h-18v-3zm-34-8h3v11h-3z"/>
      <path d="M533 351h4v20h-4zm-8 0h3v20h-3zm-45 8v3h-18v-3zm39 0v3h-17v-3z"/>
      <path d="M502 360h3v11h-3z"/>
      <path d="M502 360h3v11h-3z"/>
      <path d="M502 360h3v11h-3zm-40 0h4v11h-4zm29 0h3v11h-3zm-14 0h3v11h-3z"/>
      <path d="M493 368v3h-15v-3zm1-9v3h-9v-3z"/>
    </g>
    <g fill="#fff">
      <path d="M543 351h49v3h-49zm8 17h3v3h-3zm42 0v3h-10v-3zm5-17h3v20h-3z"/>
      <path d="M617 368v3h-18v-3zm-34-8h3v11h-3z"/>
      <path d="M615 351h3v20h-3zm-9 0h4v20h-4zm-45 8v3h-18v-3zm40 0v3h-18v-3z"/>
      <path d="M583 360h3v11h-3z"/>
      <path d="M583 360h3v11h-3z"/>
      <path d="M583 360h3v11h-3zm-40 0h4v11h-4zm29 0h4v11h-4zm-14 0h3v11h-3z"/>
      <path d="M575 368v3h-15v-3zm1-9v3h-10v-3z"/>
    </g>
    <g fill="#fff">
      <path d="M-184 351h49v3h-49zm7 17h4v3h-3zm43 0v3h-10v-3zm5-17h3v20h-3z"/>
      <path d="M-110 368v3h-18v-3zm-34-8h3v11h-3z"/>
      <path d="M-112 351h3v20h-4zm-9 0h3v20h-3zm-45 8v3h-18v-3zm39 0v3h-17v-3z"/>
      <path d="M-144 360h3v11h-3z"/>
      <path d="M-144 360h3v11h-3z"/>
      <path d="M-144 360h3v11h-3zm-40 0h4v11h-4zm29 0h4v11h-4zm-14 0h3v11h-3z"/>
      <path d="M-152 368v3h-16v-3zm1-9v3h-10v-3z"/>
    </g>
    <g fill="#fff">
      <path d="M-22 143h49v4h-49zm8 17h3v4h-3zm42 0v4H18v-4zm5-17h3v21h-3z"/>
      <path d="M52 160v4H34v-4zm-34-8h3v12h-3z"/>
      <path d="M50 143h3v21h-3zm-9 0h4v21h-4zm-45 8v4h-18v-3zm40 0v4H18v-3z"/>
      <path d="M18 152h3v12h-3z"/>
      <path d="M18 152h3v12h-3z"/>
      <path d="M18 152h3v12h-3zm-39 0h3v12h-3zm28 0h4v12H7zm-14 0h3v12h-3z"/>
      <path d="M10 160v4H-5v-4zm1-9v4H1v-3z"/>
    </g>
    <g fill="#fff">
      <path d="M-102 143h49v4h-49zm7 17h3v4h-3zm42 0v4h-10v-4zm5-17h4v21h-4z"/>
      <path d="M-28 160v4h-19v-4zm-35-8h4v12h-4z"/>
      <path d="M-31 143h3v21h-3zm-8 0h3v21h-3zm-45 8v4h-18v-3zm39 0v4h-18v-3z"/>
      <path d="M-63 152h4v12h-4z"/>
      <path d="M-63 152h4v12h-4z"/>
      <path d="M-63 152h4v12h-4zm-39 0h3v12h-3zm29 0h3v12h-3zm-15 0h4v12h-4z"/>
      <path d="M-71 160v4h-15v-4zm1-9v4h-10v-3z"/>
    </g>
    <g fill="#fff">
      <path d="M58 143h49v4H58zm8 17h3v4h-3zm41 0v4h-9v-4zm6-17h3v21h-3z"/>
      <path d="M132 160v4h-18v-4zm-34-8h3v12h-3z"/>
      <path d="M130 143h3v21h-3zm-9 0h3v21h-3zm-45 8v4H58v-3zm40 0v4H98v-3z"/>
      <path d="M98 152h3v12h-3z"/>
      <path d="M98 152h3v12h-3z"/>
      <path d="M98 152h3v12h-3zm-40 0h4v12h-4zm29 0h4v12h-4zm-14 0h3v12h-3z"/>
      <path d="M90 160v4H74v-4zm1-9v4H81v-3z"/>
    </g>
    <g fill="#fff">
      <path d="M623 143h49v4h-49zm7 17h3v4h-3zm42 0v4h-10v-4zm5-17h3v21h-3z"/>
      <path d="M697 160v4h-19v-4zm-35-8h4v12h-4z"/>
      <path d="M694 143h3v21h-3zm-8 0h3v21h-4zm-45 8v4h-18v-3zm39 0v4h-18v-3z"/>
      <path d="M662 152h4v12h-4z"/>
      <path d="M662 152h4v12h-4z"/>
      <path d="M662 152h4v12h-4zm-39 0h3v12h-3zm29 0h3v12h-3zm-15 0h4v12h-4z"/>
      <path d="M654 160v4h-15v-4zm1-9v4h-10v-3z"/>
    </g>
    <g fill="#fff">
      <path d="M139 143h49v4h-49zm7 17h3v4h-3zm42 0v4h-10v-4zm5-17h4v21h-4z"/>
      <path d="M213 160v4h-19v-4zm-35-8h4v12h-4z"/>
      <path d="M210 143h3v21h-3zm-8 0h3v21h-3zm-45 8v4h-18v-3zm39 0v4h-18v-3z"/>
      <path d="M178 152h3v12h-3z"/>
      <path d="M178 152h3v12h-3z"/>
      <path d="M178 152h3v12h-3zm-39 0h3v12h-3zm29 0h3v12h-3zm-15 0h4v12h-4z"/>
      <path d="M170 160v4h-15v-4zm1-9v4h-10v-3z"/>
    </g>
    <g fill="#fff">
      <path d="M220 143h49v4h-49zm7 17h3v4h-3zm42 0v4h-10v-4zm5-17h3v21h-3z"/>
      <path d="M294 160v4h-19v-4zm-35-8h3v12h-3z"/>
      <path d="M291 143h3v21h-3zm-9 0h4v21h-4zm-44 8v4h-18v-3zm39 0v4h-18v-3z"/>
      <path d="M259 152h3v12h-3z"/>
      <path d="M259 152h3v12h-3z"/>
      <path d="M259 152h3v12h-3zm-39 0h3v12h-3zm28 0h4v12h-4zm-14 0h3v12h-3z"/>
      <path d="M251 160v4h-15v-4zm1-9v4h-10v-3z"/>
    </g>
    <g fill="#fff">
      <path d="M301 143h49v4h-49zm7 17h3v4h-3zm42 0v4h-10v-4zm5-17h3v21h-3z"/>
      <path d="M375 160v4h-19v-4zm-35-8h3v12h-3z"/>
      <path d="M372 143h3v21h-3zm-8 0h3v21h-4zm-45 8v4h-18v-3zm39 0v4h-18v-3z"/>
      <path d="M340 152h4v12h-4z"/>
      <path d="M340 152h4v12h-4z"/>
      <path d="M340 152h4v12h-4zm-39 0h3v12h-3zm29 0h3v12h-3zm-15 0h4v12h-4z"/>
      <path d="M332 160v4h-15v-4zm1-9v4h-10v-3z"/>
    </g>
    <g fill="#fff">
      <path d="M381 143h49v4h-49zm8 17h3v4h-3zm42 0v4h-10v-4zm5-17h3v21h-3z"/>
      <path d="M455 160v4h-18v-4zm-34-8h3v12h-3z"/>
      <path d="M453 143h3v21h-3zm-9 0h4v21h-4zm-45 8v4h-18v-3zm40 0v4h-18v-3z"/>
      <path d="M421 152h3v12h-3z"/>
      <path d="M421 152h3v12h-3z"/>
      <path d="M421 152h3v12h-3zm-39 0h3v12h-4zm28 0h4v12h-4zm-14 0h3v12h-3z"/>
      <path d="M413 160v4h-15v-4zm1-9v4h-10v-3z"/>
    </g>
    <g fill="#fff">
      <path d="M462 143h49v4h-49zm7 17h4v4h-4zm42 0v4h-9v-4zm6-17h3v21h-3z"/>
      <path d="M536 160v4h-18v-4zm-34-8h3v12h-3z"/>
      <path d="M533 143h4v21h-4zm-8 0h3v21h-3zm-45 8v4h-18v-3zm39 0v4h-17v-3z"/>
      <path d="M502 152h3v12h-3z"/>
      <path d="M502 152h3v12h-3z"/>
      <path d="M502 152h3v12h-3zm-40 0h4v12h-4zm29 0h3v12h-3zm-14 0h3v12h-3z"/>
      <path d="M493 160v4h-15v-4zm1-9v4h-9v-3z"/>
    </g>
    <g fill="#fff">
      <path d="M543 143h49v4h-49zm8 17h3v4h-3zm42 0v4h-10v-4zm5-17h3v21h-3z"/>
      <path d="M617 160v4h-18v-4zm-34-8h3v12h-3z"/>
      <path d="M615 143h3v21h-3zm-9 0h4v21h-4zm-45 8v4h-18v-3zm40 0v4h-18v-3z"/>
      <path d="M583 152h3v12h-3z"/>
      <path d="M583 152h3v12h-3z"/>
      <path d="M583 152h3v12h-3zm-40 0h4v12h-4zm29 0h4v12h-4zm-14 0h3v12h-3z"/>
      <path d="M575 160v4h-15v-4zm1-9v4h-10v-3z"/>
    </g>
    <g fill="#fff">
      <path d="M-184 143h49v4h-49zm7 17h4v4h-3zm43 0v4h-10v-4zm5-17h3v21h-3z"/>
      <path d="M-110 160v4h-18v-4zm-34-8h3v12h-3z"/>
      <path d="M-112 143h3v21h-4zm-9 0h3v21h-3zm-45 8v4h-18v-3zm39 0v4h-17v-3z"/>
      <path d="M-144 152h3v12h-3z"/>
      <path d="M-144 152h3v12h-3z"/>
      <path d="M-144 152h3v12h-3zm-40 0h4v12h-4zm29 0h4v12h-4zm-14 0h3v12h-3z"/>
      <path d="M-152 160v4h-16v-4zm1-9v4h-10v-3z"/>
    </g>
    <path fill="#d90000" d="M-69 340h6v10h-6zm161 0h6v10h-6zm-284 0h6v10h-6zm82 0h6v10h-6zm80 0h6v10h-6zm40 0h6v10h-6zm41 0h6v10h-6zm81 0h6v10h-6zm203 0h6v10h-6zm-162 0h6v10h-6zm40 0h6v10h-6zm40 0h6v10h-6zm41 0h6v10h-6zm323 0h6v10h-6zm-243 0h6v10h-6zm41 0h6v10h-6zm41 0h6v10h-6zm39 0h6v10h-6zm41 0h6v10h-6zm41 0h6v10h-6zm119 0h6v10h-6zm-38 0h6v10h-6zm-809 0h6v10h-6z"/>
    <path fill="#239e3f" d="M-69 163h6v10h-6zm161 0h6v10h-6zm-284 0h6v10h-6zm82 0h6v10h-6zm80 0h6v10h-6zm40 0h6v10h-6zm41 0h6v10h-6zm81 0h6v10h-6zm203 0h6v10h-6zm-162 0h6v10h-6zm40 0h6v10h-6zm40 0h6v10h-6zm41 0h6v10h-6zm323 0h6v10h-6zm-243 0h6v10h-6zm41 0h6v10h-6zm41 0h6v10h-6zm39 0h6v10h-6zm41 0h6v10h-6zm41 0h6v10h-6zm119 0h6v10h-6zm-38 0h6v10h-6zm-809 0h6v10h-6z"/>
    <g fill="#da0000">
      <path d="M280 198c8 10 34 67-16 105-24 17-9 18-8 21 38-20 50-47 50-72 0-24-13-46-26-54z"/>
      <path d="M285 195a73 73 0 0116 112c27-6 62-86-16-112zm-58 0a73 73 0 00-15 112c-28-6-62-86 15-112z"/>
      <path d="M232 198c-8 10-34 67 16 105 23 17 9 18 8 21-38-20-50-47-50-72 0-24 13-46 26-54z"/>
      <path d="M304 319c-15 0-33-2-47-9l6 12c13 1 32 2 41-3zm-95 0c15 0 34-2 48-9l-7 12c-13 1-31 2-41-3zm27-139c4 8 11 10 20 5 6 4 16 4 19-4 2 20-18 15-19 11-8 8-22 3-19-12z"/>
      <path d="M256 332l8-9 1-120-9-9-9 8 2 121 7 9z"/>
    </g>
  </g>
</svg>
