<svg xmlns="http://www.w3.org/2000/svg" id="flag-icons-je" viewBox="0 0 640 480">
  <defs>
    <clipPath id="a">
      <path d="M-5-6h40v30H-5z"/>
    </clipPath>
  </defs>
  <g clip-path="url(#a)" transform="matrix(16 0 0 16 85 96)">
    <path fill="#fff" d="M-5-6h40v30H-5z"/>
    <path fill="#df112d" fill-rule="evenodd" d="M-10-6v2L12 9l-22 13v2h3l22-13 22 13h3v-2L18 9 40-4v-2h-4L16 7-7-6h-3z"/>
    <g stroke="none">
      <path fill="#e8112d" d="M17-1c1 2 1 5-2 7-3-2-4-5-3-7h5z"/>
      <path fill="#f9dd16" d="M15-2l2 1a6 6 0 011-3v1h-1v1l-1-1a1 1 0 01-1 0l1-1h-1a1 1 0 000-1 1 1 0 000 1h-1v1a1 1 0 01-1 0h0a1 1 0 010-1l-1 1-1-1a6 6 0 011 3 5 5 0 013-1z"/>
      <g fill="#f9dd16" stroke-width="0">
        <path d="M17 1V0h-1l1-1h-2 1-1 2-1a2 2 0 00-1 1h-1v-1l-1 1c1 0 0 0 0 0h-1 1-1 1v1c0-1 0 0 0 0l1-1v0h3v1c1 1 0 0 0 0zm-4-2zM14-1z"/>
        <path d="M13-1h1v1h-1v-1zM13 0h-1 1v-1h-1l1 1zm2 1h1V0h-1v1z"/>
      </g>
      <path fill="none" d="M14-1h-1m1 0h-1"/>
      <path fill="#ff0016" d="M13 0h1v-1h-1v1z"/>
      <path d="M14-1"/>
      <path fill="#0051ba" d="M12-1zm0 0zm0 0zm0 1zm0 0zm0 0zm3 1zm0 0zm0-1v1-1zm2 1h-1zm0-1l-1 1h1V0zm0 1zm-3-1h-1z"/>
      <g fill="#f9dd16" stroke-width="0">
        <path d="M17 3V2h-1V1h-1 1-1 1v1a2 2 0 00-1 0h-2c1 0 0 0 0 0h-1 1s0 1 0 0v1h1V2h3-1v1h1zm-4-2v1-1zM14 1z"/>
        <path d="M14 1v1c0 1 0 0 0 0h-1l1-1zM13 2h0V1s-1 0 0 0h-1l1 1h-1 1zm2 1h1V2h-1v1s0-1 0 0z"/>
      </g>
      <path fill="none" d="M14 1v1"/>
      <path fill="#ff0016" d="M14 2h-1 1z"/>
      <path d="M14 2"/>
      <path fill="#0051ba" d="M13 1h-1 1zm0 0h-1zm-1 0v1zm0 1h1zm0 0v1-1zm1 0l-1 1h1V2zm2 1zm0 0zm0-1v1zm1 1zm0 0zm0 0zm-2-1h-1z"/>
      <g fill="#f9dd16" stroke-width="0">
        <path d="M17 4v0h-1 1l-1-1h-1 1-1 1v1a1 2 0 00-1 0l-1-1v1h-1 1s0 1 0 0h3-1v1l1-1zm-3-1zM14 3s1 0 0 0zM14 3v0z"/>
        <path d="M14 4h-1 1V3h-1v1h1zm1 0h0c0 1 0 0 0 0s0 1 0 0z"/>
      </g>
      <path fill="none" d="M16 4h-1m-1-1v0"/>
      <path fill="#ff0016" d="M14 4z"/>
      <path d="M14 4"/>
      <path fill="#0051ba" d="M13 3zm0 0zm0 1zm0 0zm0 0zm0 0zm2 0v1-1zm0 1zm0-1zm1 0v1-1zm0 0zm0 1zm-2-1z"/>
    </g>
  </g>
</svg>
