<svg xmlns="http://www.w3.org/2000/svg" xmlns:xlink="http://www.w3.org/1999/xlink" id="flag-icons-ke" viewBox="0 0 640 480">
  <defs>
    <path id="a" stroke-miterlimit="10" d="M-29 48l2 1 47-81c3-1 4-4 6-6 1-2 5-9 6-18a58 58 0 00-12 15c-1 2-3 5-2 8z"/>
  </defs>
  <path fill="#fff" d="M0 0h640v480H0z"/>
  <path d="M0 0h640v144H0z"/>
  <path fill="#060" d="M0 336h640v144H0z"/>
  <g id="b" transform="matrix(3 0 0 3 320 240)">
    <use xlink:href="#a" width="100%" height="100%" stroke="#000"/>
    <use xlink:href="#a" width="100%" height="100%" fill="#fff"/>
  </g>
  <use xlink:href="#b" width="100%" height="100%" transform="matrix(-1 0 0 1 640 0)"/>
  <path fill="#b00" d="M641 168H377c-9-24-39-72-57-72s-48 48-57 72H0v144h263c9 24 39 72 57 72s48-48 57-72h264V168z"/>
  <path id="c" d="M377 312c9-24 15-48 15-72s-6-48-15-72c-9 24-15 48-15 72s6 48 15 72"/>
  <use xlink:href="#c" width="100%" height="100%" transform="matrix(-1 0 0 1 640 0)"/>
  <g fill="#fff" transform="matrix(3 0 0 3 320 240)">
    <ellipse rx="4" ry="6"/>
    <path id="d" d="M1 6s4 8 4 21-4 21-4 21z"/>
    <use xlink:href="#d" width="100%" height="100%" transform="scale(-1)"/>
    <use xlink:href="#d" width="100%" height="100%" transform="scale(-1 1)"/>
    <use xlink:href="#d" width="100%" height="100%" transform="scale(1 -1)"/>
  </g>
</svg>
