<svg xmlns="http://www.w3.org/2000/svg" id="flag-icons-kg" viewBox="0 0 640 480">
  <defs>
    <clipPath id="a">
      <path d="M-85 0h683v512H-85z"/>
    </clipPath>
  </defs>
  <g fill-rule="evenodd" clip-path="url(#a)" transform="translate(80) scale(.9375)">
    <path fill="red" d="M-128 0h769v512h-769z"/>
    <path fill="#ff0" d="M106 261c13-16 41 0 65-12-28 1-43-13-64-11 22-14 41 4 66-3-33-3-32-18-62-20 27-11 40 12 66 7-30-8-34-26-57-30 33-5 31 15 64 18-34-15-25-27-53-38 32-1 29 21 61 26-27-17-24-32-46-45 27 1 29 28 56 36-24-19-18-35-39-52 27 6 23 29 51 44-21-22-13-38-31-57 26 8 16 31 42 52-15-25-6-41-20-62 23 12 12 35 34 58-11-26 0-42-11-64 20 15 8 39 25 62-6-32 7-37 3-65 15 19-2 38 10 65-1-31 15-39 13-64 15 23-9 43 1 67 2-30 22-38 22-61 12 21-14 37-10 65 9-31 30-35 32-56 8 25-21 36-19 63 8-27 34-31 40-51 3 26-23 31-30 59 14-23 37-25 48-44-1 26-30 30-39 54 17-21 38-17 55-35-2 23-32 22-47 46 18-17 45-12 59-26-1 20-37 19-54 37 21-11 48-5 63-15-3 18-41 13-59 28 25-7 44 3 65-4-10 17-45 6-63 17 22-3 45 10 65 6-7 15-45-1-65 8 24 0 40 16 63 15-12 13-46-5-65-2 23 5 42 24 60 25-15 12-43-14-65-11 23 6 42 33 55 33-14 10-42-22-61-21 23 10 34 37 49 41-19 6-38-29-58-30 24 15 25 38 43 48-19 5-33-35-53-39 20 15 23 45 35 55-19 1-26-41-46-47 17 15 13 46 26 59-20-4-18-40-39-53 15 20 8 47 18 63-20-8-12-41-31-59 11 20 0 44 8 64-18-9-6-47-20-63 6 24-6 44-1 65-18-21 3-43-13-65 4 25-13 43-11 64-14-17 8-45-3-66 2 24-20 46-19 62-12-20 13-44 7-67-2 24-25 37-29 58-8-24 20-41 17-64-8 22-30 31-38 53-6-24 26-37 27-61-10 23-36 28-45 46-3-24 34-34 35-57-12 22-41 23-51 40-1-24 38-27 44-51-12 18-44 16-57 31 2-22 44-23 51-43-16 15-45 9-62 21 10-21 49-17 58-32-17 9-48 0-64 9 14-20 45-8 63-22-29 4-46-7-66-2z"/>
    <path fill="#ff0" d="M356 256a99 99 0 11-198 0 99 99 0 01198 0z"/>
    <path fill="red" d="M343 256a86 86 0 11-172 0 86 86 0 01172 0z"/>
    <path fill="#ff0" d="M331 257a74 74 0 11-148 0 74 74 0 01148 0z"/>
    <path fill="red" d="M194 208c21 0 46 1 63 15a97 97 0 0160-14l11 20a101 101 0 00-50 8 85 85 0 0135 72l-10 10c4-28-11-60-33-77 18 26 29 49 26 81l-10 6c4-28-2-61-23-80 12 18 24 49 17 81l-12 5a96 96 0 00-11-79 96 96 0 00-10 78l-11-3c-5-30 2-64 16-82-14 8-27 43-23 78l-10-4c-4-26 8-61 25-80-19 12-35 42-33 74l-8-6c-4-29 13-57 32-74-16-7-30-9-50-8l9-21z"/>
  </g>
</svg>
