<svg xmlns="http://www.w3.org/2000/svg" xmlns:xlink="http://www.w3.org/1999/xlink" id="flag-icons-kr" viewBox="0 0 640 480">
  <defs>
    <clipPath id="a">
      <path d="M-96 0h683v512H-96z"/>
    </clipPath>
  </defs>
  <g fill-rule="evenodd" clip-path="url(#a)" transform="translate(90) scale(.9375)">
    <path fill="#fff" d="M-96 0h683v512H-96z"/>
    <g transform="rotate(-56 362 -101) scale(10.66667)">
      <g id="c">
        <path id="b" d="M-6-26H6v2H-6zm0 3H6v2H-6zm0 3H6v2H-6z"/>
        <use xlink:href="#b" width="100%" height="100%" y="44"/>
      </g>
      <path stroke="#fff" d="M0 17v10"/>
      <path fill="#cd2e3a" d="M0-12a12 12 0 010 24z"/>
      <path fill="#0047a0" d="M0-12a12 12 0 000 24A6 6 0 000 0z"/>
      <circle cy="-6" r="6" fill="#cd2e3a"/>
    </g>
    <g transform="rotate(-124 191 62) scale(10.66667)">
      <use xlink:href="#c" width="100%" height="100%"/>
      <path stroke="#fff" d="M0-23v3m0 37v4m0 3v3"/>
    </g>
  </g>
</svg>
