<svg xmlns="http://www.w3.org/2000/svg" xmlns:xlink="http://www.w3.org/1999/xlink" id="flag-icons-ky" viewBox="0 0 640 480">
  <path fill="#006" d="M0 0h640v480H0z"/>
  <path fill="#012169" d="M0 0h320v240H0z"/>
  <path fill="#fff" d="M38 0l122 91L281 0h39v31l-120 90 120 89v30h-40l-120-89-119 89H0v-30l120-89L0 32V0z"/>
  <path fill="#c8102e" d="M212 141l108 79v20l-135-99zm-92 10l3 17-96 72H0zM320 0v2L196 96l1-22 98-74zM0 0l120 88H90L0 21z"/>
  <path fill="#fff" d="M121 0v240h80V0zM0 80v80h320V80z"/>
  <path fill="#c8102e" d="M0 97v48h320V97zM137 0v240h48V0z"/>
  <g stroke="#fff" stroke-linejoin="round" stroke-width="10" transform="translate(-307 -21) scale(.87136)">
    <use xlink:href="#a" width="100%" height="100%"/>
    <use xlink:href="#b" width="100%" height="100%"/>
    <use xlink:href="#c" width="100%" height="100%"/>
    <use xlink:href="#d" width="100%" height="100%"/>
    <use xlink:href="#e" width="100%" height="100%"/>
    <use xlink:href="#f" width="100%" height="100%"/>
    <use xlink:href="#g" width="100%" height="100%"/>
  </g>
  <g stroke="#000" transform="translate(-307 -21) scale(.87136)">
    <g id="b" fill="#fcea83">
      <path d="M754 450c3 7 24 17 48 4 16-9 27-22 37-45 3-5 4-13-3-17-5-4-14-8-17-12l-6-5 3 4c10 11 0 28-11 38-8 7-21 25-42 8-4-4-14 12-9 25zm292 0c-4 7-24 17-48 4-16-9-27-22-37-45-2-5-4-13 3-17 5-4 14-8 18-12l5-5-3 4c-10 11 0 28 11 38 7 7 22 25 42 8 4-4 14 12 9 25z"/>
      <path d="M900 491c38 0 97-17 129-78 5-10 0-15-6-18a73 73 0 01-19-14c7 7 6 13 1 21-25 41-58 62-105 62s-80-21-104-62c-6-8-7-14 0-21a66 66 0 01-19 14c-6 3-12 8-6 18 31 61 91 78 129 78z"/>
    </g>
    <path d="M811 410c-1-5-7-3-9 3a68 68 0 01-6-11c-6-9-7-14 1-22 4-4 12-9 17-4 11 9 5 24-3 34zm177 0c1-5 8-3 10 3l7-11c5-9 6-14-2-22-4-4-11-9-17-4-11 9-5 24 2 34zm-234 40c-4-8-8-26-9-31-2-4-2-8 3-10s10 5 13 10l10 25c-10-6-19-2-17 6zm292 0c4-8 8-26 9-31 1-4 2-8-3-10s-10 5-12 10l-11 25c11-6 19-2 17 6z" id="c" fill="#c8102e"/>
    <g fill="#00493d" stroke="none">
      <path d="M782 406l-4 2-1 2-2-4h2l8-4 1-1v-1l2 5h-2l-3 2 1 2 4-1v-2h1l2 4h-2l-8 4-1 2-3-4 1-1 2 1 4-2zm8 7l1-2 5 7-3 2c2-2 2-4 1-4l-1-1h-1l-4 3h4l-5 4v-1c2-2 1-3 1-4l-3 3-1 1 1 1c0 1 2 2 4 1v1l-3 1-5-8 2 1zm8 18l-3 3v2h-1l-3-4h2l7-6v-2l3 4h-2l-2 2 2 3 3-3v-2l4 4h-1-2l-6 6v3l-4-4h2l3-4zm7 10l2 1 2-4-4 2v1l-1-1-2 1v3l-2-3h2l9-5h1l-5 10v3l-4-4h3v-2l-1-2zm4 10l1-1h2l6-8-1-1-4 1 2-3 8 6-3 3v-5l-7 9v1z"/>
      <path d="M822 452l-3 4 1 2h-1l-4-3 2-1 6-7-1-2h1l3 3-2 1-2 3 3 2 2-4v-2l4 3v1h-2l-5 8v2l-4-3h1l1-1 2-4zm9 14l1-1h2l3-8v-2l8 4-2 3c1-2 0-4-1-4l-1-1-1 1-2 3c0 1 1 2 3-1h1l-3 6h-1c2-3 0-4-1-4l-2 4 1 2zm14 7v-7c1-3 3-5 5-5v7l-5 5c3 1 5-1 7-4 1-3 1-6-2-8-3-1-6 1-7 4-2 3-1 7 2 8zm15 0l2-5-1-2h3v1l-2 1-2 5c-1 3-2 5-5 4-2-1-3-3-2-5l2-7v-2l4 2-2 1-2 6 1 4c1 1 3 0 4-3zm4-6h3l3 9 1-5v-2h3l-1 1-1 1-3 10-4-11-2 7 1 2v1l-3-1v-1l1-1 3-8zm16 10c-1 4-3 5-3 5h-1v-1l1-9 1-1h1c1 0 2 2 1 6h2c1-4-1-6-4-7l-4-1v1l1 2-2 8-1 2h-1l5 1c3 0 5 0 6-6zm5-4l-2-1v-1l9 1-1 4c0-2-1-3-2-3l-1-1-1 2v3s2 1 3-2l-1 6c0-3-2-3-2-3l-1 5 1 1h1c1 0 2 0 3-3h1l-1 4-9-1 2-2zm16 6c0 4-2 6-3 6l-1-1h-1l1-10v-1h1c1 0 3 2 3 6h1c0-5-2-6-4-6l-5-1v1l1 1v9l-1 2h4c3 0 5-1 5-6h-2zm13 4l2 1-5 1 1-2-1-9-2-1v-1h5l-1 2zm5 1v-1l1-1-2-10c-1 0-2 1-2 3l-1-3 9-2v4c0-2-1-3-3-3l2 10 1 2zm21-10l-2-6-2-1 3-1-1 2 2 6c1 2 1 5-2 6-2 0-4-1-5-4l-2-6-1-1h-1l5-2v3l1 6 3 3c2-1 2-3 2-5zm5-3c2-1 2-3 2-4-1-2-2-3-3-2v1l1 5h1l1 4h2v1l-5 2v-1l1-2-4-8-2-1 5-2c2-1 4 0 5 2l-2 5h-1zM957 472c-1 1-3-1-5-5v-6c2 0 4 2 5 4 2 3 2 6 0 7 3-1 4-4 3-8-2-2-5-4-8-3a6 6 0 00-2 7c1 4 4 6 7 4zm1-13h-1l3-2 8 4-3-5-2-1 3-1v2l5 9-1 1-10-6 3 7 2 1-2 2v-1-2l-4-7-1-1zm21 1v-2l-6-8v4l-2-4 7-4 2 3c-2-2-3-2-4-1h-1l6 8 2 1zM985 449l2 3h2l-4 4v-1-2l-5-7h-2l4-4v3l2 3 3-2-3-4h-2l4-4v3l6 7h2v1l-4 3v-2l-3-4zm4-10h-2v-1l6-6 3 3h-1c-1-2-3-1-4 0l-1 1 1 1 3 3v-4l4 4v1c-3-3-4-1-4-1l3 3 1 1 1-1v-5h1l2 3-7 7v-1-2zm11-14l1 2h4c1 0 2-1 4 1s1 4 1 5l-2 1-1 1-3-3h1c1 1 3 2 4 0v-2h-4l-4-1c-2-1-2-3-1-4l2-2v-1l3 3h-5zm5-4l-2 1h-1l5-8 4 3h-1a3 3 0 00-4 0l-1 1 1 1 3 3c1-1 2-2 0-4l5 4c-3-2-4 0-4 0l3 3h2l1-1c0-1 1-3-1-5l2 3-4 7h-1v-2zm12-8l-1 2-3-3 4 1h3c2 1 1 1 1 2l3-4h-3l-11-2 8 9v2h1l1-2v-1h-2l-1-1 1-3zm-2-11c-1 1-1 2 1 2l3-1c1-1 3-2 5-1 3 2 2 4 2 5l-2 2v1l-4-2c3 0 5 0 5-2 1-1 0-2-1-2l-3 1c-2 1-3 2-5 1s-3-2-2-4l2-2-1-1 4 2h-1c-2-1-3 0-3 1z"/>
    </g>
  </g>
  <g stroke="#000" transform="translate(-307 -21) scale(.87136)">
    <g id="d" fill="#073163">
      <path fill="#fff" d="M863 233c-6 1-10 1-16-4-4-4-3-10 1-13s8-5 13-3c6 1 20 14 16 15l-14 4zm15-23c2-2 4-3 11-3 5-1 10-1 11 4 2 5 4 11 7 14-2 1-14 3-18 0-6-3-8-14-11-15zm41 0l11-1c6 0 8 1 10 5 1 5 0 11 3 16-3 1-13 1-16-3-5-4-5-15-8-17z"/>
      <path d="M948 213c-4-1-7-2-9 0 2 3 0 14 5 18 4 2 12 3 14-2 3-5 3-12-10-16zm-49-5c1-1 4-2 10-2s10 1 12 5c2 5 1 11 5 15-2 2-15 2-19-1-5-4-6-15-8-17zm-41 4c0-2 3-2 12-3s9 0 12 6c1 3 3 9 7 11-10 2-14 4-20 0a29 29 0 01-10-10l-1-4z"/>
    </g>
    <g fill="#f9d050">
      <g id="f">
        <path d="M881 164c-10-8-22-15-33-17a280 280 0 0132 26"/>
        <path d="M887 156c-12-8-26-17-40-18a124 124 0 0133 28m22-23a93 93 0 0124-32c-5 10-10 30-13 39"/>
        <path d="M913 141a48 48 0 0124-26 101 101 0 00-18 35"/>
        <path d="M917 150a85 85 0 0138-32c-12 12-30 34-34 43m3 0c8-5 25-13 38-10-8 2-31 13-41 23"/>
        <path d="M922 157c8-8 23-21 39-27l-40 40m-22-18c-6-18-15-34-28-40a131 131 0 0121 49m-4-10c-10-11-23-22-38-25a90 90 0 0133 39"/>
        <path d="M893 151c-12-22-21-25-26-30 4 8 14 30 21 39"/>
        <path fill="none" d="M869 150a58 58 0 0117 16"/>
        <path d="M869 160l13 9m44-2c5-4 15-10 21-12m-24 8c4-6 14-14 17-17m-4-12a287 287 0 00-18 22m6-27a157 157 0 00-12 21m-26-20l10 26m-15-18l8 15"/>
      </g>
      <g id="g">
        <path d="M898 136c0-4 3-9 6-9s5 6 5 9c0 4-3 7-5 7-3 0-6-3-6-7z"/>
        <path d="M892 140c0-5 3-9 6-8 3 0 5 6 4 9 0 4-4 7-6 7-3 0-5-4-5-8zm12 1c-1-4 1-9 4-9 3-1 6 4 6 8 2 4-1 8-3 8-3 0-6-2-7-7z"/>
        <path d="M897 145c0-5 3-9 6-9s6 5 6 9-3 7-6 7-6-2-6-7z"/>
        <path d="M889 148c0-5 3-9 6-9s6 5 6 9c0 3-4 7-6 7-3 0-6-3-6-7zm17-2c0-5 3-9 6-9s6 5 6 9-3 7-6 7-6-3-6-7z"/>
        <path d="M904 150c0-5 4-10 7-10 3 1 5 6 5 10 0 3-3 7-5 7-3 0-7-3-7-7z"/>
        <path d="M897 154c0-5 3-9 5-9 4 0 6 6 6 9 0 4-3 7-6 7-2 0-5-3-5-7zm-12 0c0-5 2-9 5-9s4 6 4 9c0 4-3 7-4 7-3 0-5-3-5-7zm27-1c0-4 2-9 4-9s5 6 5 9c0 4-3 7-5 7s-4-3-4-7z"/>
        <path d="M915 161c1-5 3-9 5-8 2 0 3 6 2 10s-4 6-6 6c-2-1-2-4-2-8z"/>
        <path d="M905 160c1-5 4-9 6-9 3 1 4 6 4 10s-3 7-5 6c-3 0-5-3-5-7zm-13 1c-1-5-4-8-6-8-2 1-3 7-2 10 1 4 4 6 6 6 2-1 3-4 2-8z"/>
        <path d="M889 160c0-4 2-9 4-9 3 1 5 6 5 9 0 4-2 7-5 7-2 0-4-3-4-7z"/>
        <path d="M896 162c0-5 3-9 5-9 4 0 6 5 6 9s-3 7-6 7c-2 0-5-3-5-7zm2-53c-1 4-4 7-2 13-4-2-8-2-11 2 4-1 8 1 10 4-4-1-6 1-7 3 3-1 7-2 8-1-1 1-4 4-4 6 3-3 6-2 8-4-1 4 2 7 4 10-1-4 2-8 1-10 4 1 5 5 11 5-3-2-4-7-7-7h8c-1-2-4-3-6-3 2-2 5-6 8-7-4 0-9 1-11 4 5-4 4-11 9-12-2-1-7 1-10 5 1-3 1-7 3-8-4 1-8 6-9 8a18 18 0 00-3-8z"/>
        <path d="M901 117l-1 5m7-5c-1 1-3 4-3 7"/>
        <path fill="none" d="M910 122a8 8 0 00-4 5"/>
      </g>
    </g>
    <g id="e" fill="#059334">
      <path d="M859 170c-4 0-6-2-8-4-4-5-13-6-17-3l-4 2c-3 0-6 2-5 7h4l1 1c0 3 5 8 10 7 5 0 7 2 8 3 2 1 1 1 2 3s2 2-1 4a10 10 0 000 15c6 5 22 12 40-2 17-13 44-6 46-1l4 10c0 2 3 4 6 4s7 1 9 3c3 1 6 1 5-4-2-13-10-15-11-21 5 0 8 0 10-2l5-6c2-1 2-2 0-1l-8 1c-22-3-84-20-96-16z"/>
      <path fill="#000" d="M957 186a35 35 0 00-9 10c-5 6-20 12-37 12-18 0-28-3-36-9a61 61 0 00-10-7c-6-2-7-8-5-12-2 3-2 5-5 4-2 1-6 1-5 3l-1-3-1-1c1 1 5-2 7-2s4-2 4-5l-2-6c4-2 55 7 65 8 10 0 39 5 35 8z"/>
      <path d="M866 168c4-5 10-7 16-6h1c3-2 10-3 14-1h2c5-2 16 0 20 4l2 1c13-1 20 5 29 14 1 1 3 3 5 3 3 1 4 2 1 4a38 38 0 00-10 9c-4 5-18 11-35 11s-27-3-35-9l-10-6c-3-1-7-5-5-9 1-4-2-8-4-13 2-1 6-3 8-2z"/>
      <g fill="#00493d">
        <path d="M950 180c-9-9-16-15-29-14l-1 3a66 66 0 0124 18l6-7zm-31-15c-4-4-15-6-20-4l-1 7c3 1 6 5 9 8l9-3a44 44 0 003-8zm-22-4c-4-2-11-1-14 1l-1 8 6 2 8-4 1-7zm-31 7c4-5 10-7 16-6l-2 7c-5 0-12 1-14 3z"/>
        <path d="M942 187a64 64 0 00-22-16l-2 3c3 5 9 14 11 20l13-7zm-37 11a179 179 0 002-20l9-2 10 19-21 3zm-16-23l8-5 7 7-2 21c-4 0-10-1-13-3v-20zm-24 6l1-6c3-2 13-5 20-1v20a96 96 0 00-21-13z"/>
      </g>
      <g fill="none">
        <path fill="#000" stroke="none" d="M841 172c-1 0-2-3-4-3h-2l1 3h5z"/>
        <path d="M841 180c5 0 6-7 9-7m-6 8c4 2 8-8 11-8m-20-5c2 0 3-2 5 1l4 1m-1 5c-2 3-6 5-8 4m-1-15l-3 4m-1 3v2"/>
      </g>
    </g>
  </g>
  <g transform="translate(-307 -21) scale(.87136)">
    <path id="a" fill="#fff" d="M990 233v93c0 81-39 109-90 131-51-22-90-50-90-131v-93h180z"/>
    <path fill="#c8102e" d="M900 312c4 0 11-4 17-10s17-9 28 0 17 6 23 0c6-5 11-7 22-7v-62H810v62c11 0 16 2 22 8 5 5 12 9 23 0 12-9 22-7 28 0 6 5 12 9 17 9z"/>
    <path d="M900 360c6 0 17-6 20-8 11-6 18 0 25 3 6 2 19 6 27 0 7-7 12-6 17-6l1-23v-5c-7-2-10 0-18 6-7 7-15 5-25 1s-20-12-31 0a24 24 0 01-16 8c-7 0-13-4-16-8-11-12-20-4-30 0-11 4-20 6-27-1-6-6-10-8-17-6v5l1 23c6 0 10-1 17 6 8 6 21 2 27 0 7-3 14-9 25-3 3 2 14 8 20 8zm0 21a51 51 0 0024-8c9-5 16-3 26 2s18 4 24 0c2-2 5-5 11-4-3 12-7 23-13 31a33 33 0 01-24-2c-10-5-23-7-30-3a36 36 0 01-18 6c-5 0-12-2-18-6-7-4-19-2-29 3a33 33 0 01-25 2c-6-8-10-19-13-31 6-1 9 2 12 4a24 24 0 0023 0c10-4 17-7 27-2a51 51 0 0023 8zm0 76a192 192 0 0051-29l-9-3c-4-3-14-4-22 1a39 39 0 01-40 0c-8-5-18-4-21-1l-10 3a185 185 0 0051 29z" fill="#0b50a0"/>
    <g stroke="#000">
      <path fill="#f9d050" d="M888 256v5l2 4h3c11 0 23-5 34-5 10 0 16 4 22 4 3 0 6-3 6-5s-4-4-12-4c-11 0-18 3-27 3-15 0-17-5-17-8 0-2 3-6 10-6l6-1c0-1 1-3 4-4 4-2 10 0 14-3 0 2-3 5-6 6 5-1 10-1 11 2h-7l-5 2c2-1 3 3 6 3-3 3-8 3-13 1l-7-2c-5 0-8 1-8 3s3 3 11 3l27-2c-1-1 0-3-2-4 5 0 10 1 12 5 0-4 3-7 2-10 3 1 5 4 5 6 1-1 3-1 3-3a7 7 0 013 8c2-2 3-1 4-4 1 2 1 7-3 9 3-2 7-2 10 2-3-1-4 1-5 1a44 44 0 01-23 5c-8 0-9-2-13-2 3 1 8 6 14 6h7c1-1 4 0 5 1 2 1 5 3 7 2l-3 3 3 5h-3c1 2 1 4 3 5h-3l1 5c2 2-1 4-4 2 1 2-1 3-2 3l-2-3 1-1c-1 2-3 2-4 1l-1-1c-4 1-5-2-4-3 0-2 3-2 4-2h3l1-2c0-2-1-6-8-6-7 1-18-1-24-3l-1-1-2 5c0 2 1 4 4 5-2 3-4 2-5 1l-2 4-2-2c-1 3-5 5-7 4-2 2-5 1-6-1h-4c0 2-1 1-2 3 0 1-2 2-3 1v-3h-4l1-3h1-3l-1-3c1-1 2-2 3-1v1l1-2c1-1 3-1 4 1l5 1 9-5c-8-2-3-7-1-9l-7 1c-10 5-20 11-27 9a6 6 0 001 3l-5-1c-1 1-2 3-1 5l-5-2 1 4c-2-1-4-2-5-1l-5 1a8 8 0 01-3 2l-1-3c0 2-2 4-4 5v-4c0 2-4 3-4 5v-4a7 7 0 01-5 3l1-3c-1 2-4 3-6 3 0 1-2 2-4 1s-3-2-2-3c-2 0-4-2-3-3l1-2c-2-1-2-3-1-4l3-1c0-4 4-4 5-1 1 2 4 4 6 4l3-1a43 43 0 0012-6v-3l-5 3v-1l-5-1 2-3-6-1 1-4h-5l2-3-6-1c2 0 2-3 4-3-4 0-5-2-7-3 2 1 3-1 4-1-1 0-4-3-3-4l-2 2-4-1c-1-2-1-5 1-5a2 2 0 01-1-4c0-1 2-2 3-1l2 2-1-4c1-2 2-2 3-2s2 1 2 3l1 4 1-2c0-2 2-2 4-1 1 0 2 3 0 5v3c4 5 9 10 14 10 0-2 1-4 3-5l1-3c0-3 1-5 3-4l-1-1c-1-2-3-4-2-6s4-1 5 0c0-3 3-6 3-7 1 1 2 3 1 5l6-6c-1 2 2 4 2 6 1-3 5-4 7-4l-1 4 5-2-2 4h4l-2 4c2-1 4-1 5 1 1 1-1 4-2 5l-2 1z"/>
      <g fill="none">
        <path d="M858 262c-3 2-4 5-5 7m5-3c-5 3-7 5-6 10m8 4c3-1 5-2 7-6M866 276c-1 2 0 5-2 6a9 9 0 005-6M867 281l6-7-1 5 4-6v2l2-4m0 1v3l3-6"/>
        <path d="M880 272c3-2 3-5 3-9m0 4c2-1 3-2 3-6m-7-13c-1 0-2 0-2 2l-1 4c0 1-1 2-3 1l-1-2 2-4 2-3c-3 2-6 1-7-2M884 249h-4-2"/>
        <path d="M877 252h5c-2 1-3-2-1-3m-8-2c-2 0-4 1-3 3h4m-5 21l1-2 3-1c2 0 3-1 4-3l2-3 1-2c1 0 3 0 3-2m-19-3l-2 2-1 4-1 3 1 3m5-22c-1 3-1 6 1 6"/>
        <path d="M867 253l-1 7c-1 1-2 5 2 6s7 0 9-7m7 19l-1 1m5-2l-2 2m5-3l-1 3m-28-33l1 2c-1-1-3 1-2 3m-1 3l-2 2m1 2l-1 1m-22-9v-1m-4-1h-1m1 7h1m-3-3a5 5 0 00-3-1m30 19c-4 3-5 5-6 8m9-6a11 11 0 01-4 5m-15 10a11 11 0 01-9-2l-2-1m26-4l-2 5c4-2 7-5 7-9m-33 13h4m79-16l3 2c1-1 2-3 4-3m-41 11c0-2 1-4 3-5m-22 13l1-3m-22 5l-1 3m-6-2l1-1 2-2m62-4h-2m2 2l-1 1m3 2l-1 1m15 0l2-4m-8 3l4-3m9-1l1-2m35 7v-4l3-1"/>
        <path d="M925 276c-8-3-8-8-14-7m48 22v2m4-2l-1 3m-36-48h-4m-36 16c0 1 1 3 5 3h-1m-2-9h-1c-1-1 0-2 2-3h-4c-1 3-4 4-5 2-1 2-3 5-5 4s-3-2-2-4c-3 3-5 1-6 0s0-3 1-6"/>
      </g>
      <path d="M918 275l-4 1c-1 1 1 2 1 2 0 1 0 2 2 2-1 1 2 1 2 3a5 5 0 001-4c-1-2-3-3-2-4z" stroke="none"/>
      <path d="M875 259c-2-1-3-2-2-3l-3 1c-2 4-4 8-7 8s-3 4 0 4c5 1 7-1 12-10zm-48-11c2-2 1-3 0-3-2-1-4 0-6 2h3c1 1 2 2 3 1zm3-9c3 0 4 1 4 2 1 1 0 3-1 3s-3-1-2-2l-1-3zm9 8c3 0 4-1 2-3l-4-2c2 2 0 4 2 5zm-17 8a4 4 0 004 2c2-1 2-2 2-3-1-1-3-2-3 0-1 2-3 2-4 1zm7 29c-1-2-4-2-6 0l3 1 2 1 1-2zm4-3c0-2-4-3-6-2l3 2 2 2 1-2zm-5 9c-3 0-5 3-5 5l4-2 2-1-1-2zm0 8c1 1 2 0 3-2h2v3c-1 1-4 1-5-1zm67-14c-1-1-3-2-5 0 1-1 2 0 2 1l2 1 1-2zm-4 3c-2-1-5 2-5 4a7 7 0 013-2c1 1 2 0 2-1v-1zm2 4c-1 0-3 2-3 4 0-1 1-2 2-1l2-2-1-1zm4 4c-1-1-2 0-2 1l-1 4 3-2v-3zm54-4h-2v5l2-2v-3zm3 1c-2 1-2 5 0 7l1-3c2 0 2-2 2-3l-3-1zm6 2l-2 2 2 4 1-2c1-1 1-3-1-4zm4 0c-1 0-2 1-1 3l4 1-1-2c0-1 0-2-2-2z" fill="#073163" stroke="none"/>
    </g>
    <g id="h">
      <path fill="#f9d050" d="M831 383l24-73 24 73-63-45h78z"/>
      <path fill="#024919" d="M836 377l50-37h-62l50 37-19-59z"/>
    </g>
    <use xlink:href="#h" width="100%" height="100%" x="90"/>
    <use xlink:href="#h" width="100%" height="100%" x="45" y="52"/>
    <path fill="none" stroke="#000" d="M990 233v93c0 81-39 109-90 131-51-22-90-50-90-131v-93h180z"/>
  </g>
</svg>
