<svg xmlns="http://www.w3.org/2000/svg" xmlns:xlink="http://www.w3.org/1999/xlink" id="flag-icons-kz" viewBox="0 0 640 480">
  <path fill="#00abc2" d="M0 0h640v480H0z"/>
  <g fill="#ffec2d">
    <g transform="matrix(.48 0 0 .48 346 202)">
      <circle r="134.6"/>
      <g id="c">
        <g id="b">
          <path id="a" d="M0-153c8 0 11-5 11-11 0-8-11-46-11-46s-11 38-11 46c0 6 3 11 11 11z"/>
          <use xlink:href="#a" width="100%" height="100%" transform="rotate(90)"/>
          <use xlink:href="#a" width="100%" height="100%" transform="scale(-1)"/>
          <use xlink:href="#a" width="100%" height="100%" transform="rotate(-90)"/>
        </g>
        <use xlink:href="#b" width="100%" height="100%" transform="rotate(23)"/>
        <use xlink:href="#b" width="100%" height="100%" transform="rotate(45)"/>
        <use xlink:href="#b" width="100%" height="100%" transform="rotate(68)"/>
      </g>
      <use xlink:href="#c" width="100%" height="100%" transform="rotate(11)"/>
    </g>
    <g transform="translate(-173) scale(.48)">
      <path d="M1076 655c-4 6-6 14-10 19-14-12-33-12-51-12-14-1-29-3-40-13-12-9-21-21-34-29a83 83 0 0 1-33-15c-20-17-32-41-52-58-3-4-8-7-12-10-4 1-2 10-7 5-3-2-10-2-10 1 6 8 12 17 13 27-4 1-12-1-14 1a84 84 0 0 0 21 21c-4 1-12 0-13 2a59 59 0 0 0 27 14c2 3-3 9 1 11 2 1 11 3 5 6-4 2-2 9 3 9 3 1 10 2 11 5-3 2-12 6-5 9a52 52 0 0 0 24 6c-4 4-9 6-14 9a320 320 0 0 0 85 31c-25-1-48-8-71-18l-34-14c5-3 11-4 16-6-11-2-23-3-33-9 1-3 7-3 10-4 6-2 10-3 2-4-9-2-18-1-26-6 1-3 8-2 11-3l12-4c-13-6-30-2-40-13-2-5 7-1 10-2 7 0 14 2 21-1-19-8-39-16-54-31-1-3-6-9-2-10 11 1 19 14 31 12 2-2-7-6-9-9a229 229 0 0 1-47-51c-1-7 10-8 12-3 14 13 26 28 43 37 6 3-4-3-5-6a299 299 0 0 1-41-58c-2-3-5-10 1-12 6-3 11 1 14 6 12 14 20 31 34 43-12-23-25-48-25-75 0-5 0-13 8-13 6-1 5 7 7 11 5 19 8 41 20 58-3-14-7-29-4-44 0-5 6-7 9-4l7 24a237 237 0 0 0 93 127 245 245 0 0 0 123 42l12 1m136 91c-7 4-13-3-19-6-4 3-4 11-8 14-5 6-11-1-11-7-5 5-8 16-18 15-4-4-7-11-11-3-3 4-10 10-14 4-1-6-4-12-7-3-2 6-9 11-15 8-4-3 3-14-2-13-7 5-11 16-20 15-4-4 2-11-2-16-5 6-10 15-18 16-4-3 0-13-3-14-8 5-17 14-28 11 4-16 22-21 36-22 25-4 52 2 76-7 4-2 13-6 10-11s8-3 9-8c-1-6 5-5 10-6 25-1 49 4 73 5 2 12-11 20-22 16-5 1-13-11-11-2-1 5 0 11-5 14m-207-24c5 5 9-1 15-4a197 197 0 0 0 48-27c9-7 17-17 30-20 24-7 50-6 74-13 18-25 50-34 76-49 6-2 8-6 10-12 10-16 23-30 40-39a37 37 0 0 1 25-5 42 42 0 0 1-14 27c6 0 11-4 17-4 2 11-9 16-15 23 3 1 16 2 9 5-9 6-19 10-28 18 8 1 9 3 1 6-4 2-12 3-13 9 6 3-3 7-6 8-6 2-13 4-4 9-4 5-10 6-16 5 2 6 4 12-3 14a108 108 0 0 1-53 23c24 1 50-3 70-16 3-4 18-7 10-10-4-2-12-4-13-6 12-7 26-5 38-9 0-4-9-3-13-4-8 0-8-3 0-3 11-3 23-4 31-10-7-4-16-1-23-4 13-5 28-6 39-14 6-6-6-4-10-4-7 1-10-3-2-5 14-11 31-17 41-32 2-3 5-13-2-10-10 3-18 14-29 11 22-17 42-36 57-59 1-7-10-8-12-3-14 14-27 30-45 38a281 281 0 0 0 44-56c2-6 9-14 6-20-7-5-14-1-18 5-11 15-19 31-33 43 12-24 25-48 25-75 0-6-1-14-8-13-6 1-5 10-7 15-6 18-8 38-19 54 2-15 7-31 3-46-1-6-12-4-11 3a238 238 0 0 1-201 186c-8 2-17 1-24 3-19 15-31 39-54 46-11 6-25 7-32 17a9 9 0 0 0-1 4m52-11-11 2c-5 1-9 3-14 3l-2 1h-3a11 11 0 0 1 0 5 6 6 0 0 1-1 2l-2 2a7 7 0 0 1-3 0h-3l-2-1h-6l-2-1a16 16 0 0 1-3-1c-3 2-7 4-9 7a11 11 0 0 0-2 6l1 7 2-3 7-4c2 0 2 1 1 2v3a65 65 0 0 1 22-5l31-1h30c5 1 10 2 15 1l3-1-7-2h-19c-5 0-11 0-16-2-1-1-2-2-3-1a24 24 0 0 1-6 2l-11-2 8-9-6-2 10-7z"/>
      <circle cx="1020" cy="720.9" r="2.4"/>
      <circle cx="1019.8" cy="720.5" r="1" stroke="#ffec2d" stroke-width=".4"/>
    </g>
    <g transform="scale(.48)">
      <g id="f">
        <g id="e">
          <path d="M120 73s-10-8-13-4c-5 6 16 39 16 50 0 19-12 24-28 27-10 2-27-1-27-1 3-4 5-5 11-6-6-3-12-10-12-20 0-16 6-23 6-41 0-10-8-23-8-23 15 2 22 15 18 26a7 7 0 0 0 6-2c1 3-1 6-3 9h6c0 3-2 7-7 10 14-4 22 5 22 15 0 7-5 12-10 12l-6-1c-1 2 0 4 1 6-4-1-6-3-4-7-3 0-5-1-7-3 2-2 4-3 7-3-2-4 0-7 3-9 0 0-2 9 3 9 3 0 5-1 5-5 0-3-3-7-9-7-6 1-11 5-11 15 0 9 7 13 17 14 9 0 16-5 16-14 0-12-18-40-18-50 0-9 7-13 14-13 10 0 17 9 17 9l-5 7z"/>
          <path id="d" d="M122 292c0 20-18 31-32 31-20 0-30-12-30-27 0-8 2-14 6-22l44-92a27 27 0 0 0 2-12c0-8-8-15-17-15-7 0-16 7-16 16 0 10 6 14 11 14 7 0 9-2 9-7 0-3-1-5-3-5-6 0-4 8-4 8a5 5 0 0 1-4-7 10 10 0 0 1-6-3c2-2 3-3 6-3-2-5 0-7 4-8a8 8 0 0 0-1 5c6-2 16 1 16 11s-7 19-21 17c3 2 5 5 5 8l-5-1c2 3 4 5 4 11-3-1-5-3-8-2 5 10-1 24-17 27 6-7 8-14 8-22 0-23-6-27-6-43a24 24 0 0 1 10-20v1a14 14 0 0 1-9-7 62 62 0 0 1 34 0 25 25 0 0 1 18 12 36 36 0 0 1 0 29l-45 95c-2 5-3 9-3 14 0 12 11 16 17 16 8 0 15-6 15-13 0-4-2-7-6-7-8 0-8 7-6 12-5-3-8-7-7-11a14 14 0 0 1-9-5c2-3 5-5 9-5-2-7 3-10 7-11-1 5-2 11 6 11 7 0 12 1 15 5v-27c1-8-11-8-18-6 3-9 8-14 21-13a10 10 0 0 1-6-10c0-7 6-16 10-18l2 79z"/>
          <use xlink:href="#d" width="100%" height="100%" transform="matrix(1 0 0 -1 0 645)"/>
        </g>
        <use xlink:href="#e" width="100%" height="100%" transform="matrix(-1 0 0 1 240 0)"/>
      </g>
      <use xlink:href="#f" width="100%" height="100%" transform="matrix(1 0 0 -1 0 1000)"/>
    </g>
  </g>
</svg>
