<svg xmlns="http://www.w3.org/2000/svg" id="flag-icons-lb" viewBox="0 0 640 480">
  <defs>
    <clipPath id="a">
      <path d="M-85 0h682v512H-85z"/>
    </clipPath>
  </defs>
  <g clip-path="url(#a)" transform="translate(80) scale(.9375)">
    <g fill-rule="evenodd">
      <path fill="#EE161F" d="M-128 384h768v128h-768zm0-384h768v128h-768z"/>
      <path fill="#fff" d="M-128 128h768v256h-768z"/>
    </g>
    <path fill="#00A850" d="M252 130c-8 16-13 16-26 26-5 5-13 8-3 13-10 5-15 8-20 18l2 3s10-5 11-3-13 10-15 11l-11 7c-13 11-21 8-29 24l26-3c5 18-13 21-26 29l-21 13c5 18 21 8 34 2l3 3v5l-26 13-32 18v6c11 2 26 5 37 0 13-6 15-11 31-11a101 101 0 01-52 21v10c16 0 26 0 39-2l34-11c8 0 16 8 13 16-8 29-39 23-50 47l42-16c10-5 21-10 34-8 15 6 15 16 36 21l-5-13c5 3 10 3 16 5 13 6 15 11 31 8-13-15-16-13-26-23-11-16-16-39 0-42l18 5c18 3 18-2 44 8 16 5 21 13 39 8-7-18-36-31-54-36 21-13 15 5 44-3v-5c-21-16-29-29-57-29l44-5v-5l-45-12c1-2 2-4 5-5 8 6 33 5 35 5-1-6-13-12-23-17 0 0-45-27-45-30 1-7 18 1 37 7-6-11-16-16-26-19l15-2c-10-24-36-21-52-31-10-8-10-13-26-21z"/>
    <path fill="#fff" fill-rule="evenodd" stroke="#fff" stroke-linecap="round" stroke-linejoin="round" stroke-width="3" d="M224 303c2-6 4-12-7-17-12-5 6 21 7 17zm14-12c-3 0-4 8 1 11 5 1 1-11-1-11zm13-1c-2 0-2 12 6 10 9-2 0-11-6-10zm16-31c2-3 0-15-7-10-8 5 5 11 7 10zm-16-10c2-1 3-8-4-6-6 2 2 7 4 6zm-14 3s-5-6-8-5c-5 4 8 5 8 5zm-50 20c2 0 16-3 21-8 5-6-25 2-25 2l4 6zm141-35c1-2-7-7-12-5-2 4 12 6 12 5zm-28-14c2-3-3-12-13-7-11 6 10 10 13 7zm-32-6s3-8 9-6c7 5-8 7-9 6zm-6-6c-1-2-7-1-14 4-8 5 16 1 14-4zm19-22s6-3 8 0c3 4-8 0-8 0zm-6-3c-1-2-8-3-8 1-1 3 9 3 8-1zm-17 0c-1-1-11 0-14 6 5 3 16-2 14-6zm-22 6s-13 9-14 15c0 5 17-10 17-10s1-5-3-4zm-15-7c1-2 7-6 7-5 1 1-5 6-7 5zm5 32c0-3-16-3-10 5 5 6 11-4 10-5zm-15 10c-1-1-2-6-5-6l-12 3c0 2 4 10 6 10 1 1 10-6 11-7zm88 55c1-1 17-7 23-1 7 9-23 5-23 2zm46 11c4-6-11-13-18-6 3 8 15 11 18 6z"/>
  </g>
</svg>
