<svg xmlns="http://www.w3.org/2000/svg" xmlns:xlink="http://www.w3.org/1999/xlink" id="flag-icons-li" viewBox="0 0 640 480">
  <path fill="#002b7f" d="M0 0h640v240H0z"/>
  <path fill="#ce1126" d="M0 240h640v240H0z"/>
  <g fill="#ffd83d" stroke="#000" stroke-linecap="round" stroke-linejoin="round" stroke-width="2" transform="scale(.8)">
    <g id="a">
      <path stroke="none" d="M216 122l-1 63h-64c-8-15-14-28-14-46 0-14 11-26 28-26s37 6 51 9z"/>
      <path d="M145 125v36m5-40v48m5-50v57m5-58v45m5-45v45m5-47v47m5-47v47m5-47v47m5-46v47m5-44v47m5-47v53m5-53v47m5-47v47"/>
      <path fill="#000" d="M176 118c11 2 35 13 32 28-4 21-16 12-33 9l-12 4c-4 5-11 9-15 4h-8v28h82v-69z"/>
      <circle cx="213" cy="113" r="5"/>
      <circle cx="202" cy="110" r="5"/>
      <circle cx="190" cy="108" r="5"/>
      <circle cx="179" cy="106" r="5"/>
      <circle cx="168" cy="105" r="5"/>
      <circle cx="157" cy="105" r="5"/>
      <circle cx="146" cy="109" r="5"/>
      <circle cx="137" cy="115" r="5"/>
      <circle cx="131" cy="124" r="5"/>
      <circle cx="128" cy="135" r="5"/>
      <circle cx="128" cy="146" r="5"/>
      <circle cx="130" cy="157" r="5"/>
      <path d="M215 120v6c-13-2-30-9-46-9-15 0-27 6-27 21s6 29 15 43l-9 4c-8-15-14-28-14-46 0-14 11-29 31-29 17 0 35 6 50 9z"/>
    </g>
    <use xlink:href="#a" width="100%" height="100%" transform="matrix(-1 0 0 1 444 0)"/>
    <path d="M222 53l-5 10 5 9 5-9-5-10zm0 25l-5 9 5 10 5-10-5-10zm-18-3l8 5 8-5-8-5-8 5zm20 0l8 5 8-5-8-5-8 5z"/>
    <circle cx="222" cy="75" r="4"/>
    <circle cx="222" cy="100" r="11"/>
    <path fill="none" d="M219 90v7a63 63 0 00-7 0m20 0a62 62 0 00-7-1v-6m-13 13a61 61 0 0110-1l10 1"/>
    <path d="M212 118c-1 17-3 34-10 47l11-5c4-14 5-32 6-41l-7-1zm20 0l-7 1c2 9 2 27 6 41l11 5c-7-13-9-30-10-47z"/>
    <path d="M222 155c-13 0-22 6-23 21-3-5-16-23-29-20-7 1-14 11-13 23-6-18-24-20-37-10 12 10 17 38 27 50h150c10-12 15-40 27-50-13-10-31-8-37 10 1-12-6-22-13-23-13-3-26 15-29 20-1-15-10-21-23-21z"/>
    <path fill="#000" d="M297 219c0 6-33 12-75 12s-75-6-75-12c0-5 34-8 75-8s75 3 75 8z"/>
    <circle cx="222" cy="114" r="4"/>
    <circle cx="222" cy="122" r="4"/>
    <circle cx="222" cy="130" r="4"/>
    <circle cx="222" cy="139" r="5"/>
    <circle cx="222" cy="149" r="5"/>
    <path fill="#000" d="M220 159l-1 2 1 4h1v-4l-1-2zm4 0l-1 2v4h1l1-4-1-2zm-8 1a1 1 0 00-1 1l1 4h1v-4-1a1 1 0 00-1 0zm11 0v1a20 20 0 000 4h1l1-4-1-1a1 1 0 00-1 0zm-15 1l-1 2 1 4h1a60 60 0 000-4l-1-2zm20 0l-1 2v4h1l1-4-1-2zm-59 1l-1 1 2 4 1-1-1-3-1-1zm98 0l-1 1-1 3c0 1 0 2 1 1l2-4-1-1zm-94 0l-1 1 2 4h1l-1-4-1-1zm90 0l-1 1-1 4h1l2-4-1-1zm-85 1l-1 2 2 3c0 2 1 1 1 0l-1-4-1-1zm80 0l-1 1-1 4c0 1 1 2 1 0l2-3-1-2zm-93 0l-1 2 2 3c1 1 1 0 1-1l-1-3-1-1zm106 0l-1 1-1 3c0 1 0 2 1 1l1-3v-2zm-67 3c-1 0-2 1-1 2l1 3c0 2 1 1 1 0a29 29 0 000-4l-1-1zm28 0l-1 1a29 29 0 000 4c0 1 1 2 1 0l1-3-1-2zm-14 1l-1 2a12 12 0 01-2 6c-1 2-2 1-3 1a22 22 0 01-4-3c-1-1-2 0-1 2 5 7 10 13 10 23l1 2 1-2c0-10 5-16 9-23 2-2 1-3 0-2a21 21 0 01-4 3c-1 0-2 1-3-1a12 12 0 01-2-6l-1-2zm-35-1a1 1 0 00-1 0v1l1 4c1 1 2 0 1-1v-3l-1-1zm70 0l-1 1-1 3c0 1 1 2 2 1l1-4-1-1zm-91 0l-1 2 2 3h1l-1-4a1 1 0 00-1-1zm112 0l-1 1-1 4c-1 1 0 1 0 0l3-3-1-2zm-144 4v2a19 19 0 002 2c1 1 1 0 1-1l-2-3h-1zm176 0l-1 1-2 2c-1 1 0 2 1 1a19 19 0 002-3v-1zm-171 1v1l1 4c1 1 2 1 2-1l-1-3-2-1zm166 0l-2 1-1 3c-1 2 1 2 1 1l2-4v-2zm-176 0v1l3 2h1l-3-3h-1zm186 0h-1l-3 3h1l3-2v-1zm-110 1l-1 1 1 3h2l-1-4-1-1zm34 0l-1 1-1 3c0 2 1 2 2 0l1-3-1-1zm-64-2v1a26 26 0 011 9c0 1-1 2-2 1a19 19 0 01-2-1c-1-1-2 0-1 1 6 5 10 10 12 17 0 2 1 2 1 0-1-8-2-16 0-20 1-2 0-3-1-1s-2 3-3 1a48 48 0 01-4-7l-1-1zm94 0l-1 1-4 7c-1 1-2 1-3-1s-2-1-1 1c2 4 1 12 0 20 0 2 1 2 1 0a32 32 0 0112-17c1-1 0-2-1-1a18 18 0 01-2 1c-1 1-2 1-2-1-1-1 0-4 1-9v-1zm-125 2v1l1 4c1 1 1 0 1-1v-3l-2-1zm156 0l-2 1v3l1 1 1-4-1-1zm-137-2v3l3 3c1 1 1 0 1-1l-3-4-1-1zm118 0l-1 1-3 4c0 1 0 2 1 1l3-3v-3zm-132 4l-1 1 1 3h1v-3a1 1 0 00-1-1zm146 0a1 1 0 00-1 1v3c0 1 1 2 1 0l1-3-1-1zm-133 2l-1 1 3 3h1l-2-4h-1zm120 0h-1l-2 4h1l3-3-1-1zm-141 4v1a17 17 0 013 7l-1 1-4-2c-2 0-2 1-1 2a53 53 0 0115 13l1 1a24 24 0 01-2-12l1-7h-1l-1 3c-1 1-2 1-3-1a48 48 0 00-6-6h-1zm162 0h-1a48 48 0 00-6 6c-1 2-3 2-3 1a12 12 0 01-1-3h-1l1 7c1 3 0 7-2 12l1-1a53 53 0 0115-14c1 0 1-1-1-1l-4 2c-1 0-2 0-1-2l3-6v-1z" stroke="none"/>
    <path d="M150 213l2 6m2-8l2 7m3-7l1 6m2-7l2 6m4-7l1 7m4-7l1 7m5-8v6m5-6v6m4-7l1 7m4-7l1 6m5-6v6m4-6l1 6m5-7v7m6-7v7m79 0l-2 6m-2-8l-2 7m-2-7l-2 6m-2-7l-2 6m-4-7l-1 7m-4-7l-1 7m-4-8l-1 6m-5-6v6m-4-7l-1 7m-4-7l-1 6m-5-6v6m-4-6l-1 6m-5-7v7m-6-7v7m-7-7v7"/>
  </g>
</svg>
