<svg xmlns="http://www.w3.org/2000/svg" xmlns:xlink="http://www.w3.org/1999/xlink" id="flag-icons-lk" viewBox="0 0 640 480">
  <path fill="#ffb700" d="M0 0h640v480H0z"/>
  <path fill="#ff5b00" d="M27 240l88-213h88v426h-88z"/>
  <path fill="#005641" d="M27 27h88v426H27z"/>
  <path fill="#8d2029" d="M229 27h387v426H229z"/>
  <path id="a" fill="#ffb700" stroke="#000" stroke-width="1" d="M579 409s4 7 8 10c6 4 18 4 23 9 6 6 0 15 0 15v5h-6c-3 0-4 2-9 2-12-1-11-12-12-21l-3-12-1-8z"/>
  <use xlink:href="#a" width="100%" height="100%" transform="matrix(-1 0 0 1 845 0)"/>
  <use xlink:href="#a" width="100%" height="100%" transform="matrix(1 0 0 -1 0 480)"/>
  <use xlink:href="#a" width="100%" height="100%" transform="rotate(180 423 240)"/>
  <g transform="translate(0 -76)">
    <use xlink:href="#b" width="100%" height="100%" stroke="#000" stroke-width="6"/>
    <g id="b" fill="#ffb700">
      <path d="M364 416l2-2 1 2c1 2 5 2 7 0l2-2 2 2c2 2 5 2 8 0 2-2 2-2 3-1l4 2c4 0 4 0 5-3 2-2 2-3 2-5a59 59 0 01-1-5c0-3 0-3 4-4a51 51 0 005-2l6-7-4-1c-8-1-9-5-4-13a74 74 0 0014-37c2 3-1 16-6 26l-2 3h2l14-6c18-8 24-10 36-9 10 0 14 2 21 9 4 4 7 7 14 11 14 9 14 10 15 20s0 11-8 12c-6 2-11 5-12 9 0 3 1 3 4 1l3-2 1 2c1 2 4 2 7 0l2-2 2 2c3 2 7 1 8-2l2 1c2 2 8 3 9 1l-1-3c-4-5-5-7-5-10 0-4 1-6 6-9s7-8 3-8c-3 0-5-2-7-6-3-7-2-15 2-29a58 58 0 006-25c0-7 0-8-2-12a45 45 0 00-5-9l-2-3 3-3c11-9 9-24-4-29-4-2-5-2-12-2l-14 1a98 98 0 01-15 1l-10-1c-3-2-3-2-4-6a2 2 0 00-1-1c-1-1-5 3-6 5l-1-1a13 13 0 01-2-3c-1-4 0-6 4-8l3-1-2-1c-3-3-10-1-12 3l-1 2-3-3c-5-4-3-11 3-13 3-1 6 0 7 2 1 3 4-1 3-5 0-3 0-3 2-3 3 0 8 3 10 6s2 8-1 12l-1 2h2l8-5a12 12 0 000-11c-1-2-1-3 1-2 4 2 6 3 7 6 2 3 2 3 1 6a17 17 0 01-2 5v2l6-3 2-4 1-3 1 2c2 3 5 6 9 7 3 2 5 2 3 0-1-1-4-8-3-9a51 51 0 0112 9c5 5 9 7 14 7 7 0 11-6 8-11-2-3-6-4-8-1-1 1-2 2-1 3l-1 2c-2 0-6-2-13-8a102 102 0 00-32-19 70 70 0 00-24-1c-7 1-14 5-19 9-7 7-7 16 0 25l2 2-1 2a9 9 0 000 11l2 2 1-2c0-3 1-4 3-5s3 0 12 3c8 3 23 4 38 1a43 43 0 0120 0c7 3 9 10 3 16-2 3-4 4-11 6a54 54 0 01-20 1l-19 1-22 1h-16l2 1a22 22 0 003 2c1 1 1 1-1 2l-5 1h-3l-1 2a10 10 0 000 4v1l-5-1a27 27 0 01-5-1h-3l-7 5a27 27 0 00-2-7l-2-6h-1l-1 3a16 16 0 01-2 5l-1 2-1-2-3-4-1 1-6 7v-3l-1-3-1 1-4 5-2 1c-1 1-2 1-1-1a9 9 0 00-1-3l-1-4-4 1c-4 1-5 1-3-1l2-4 3-4-1 1a6 6 0 00-1 3l-1 3-1 2 4-2 3-1v1l1 5 1 3 2-1c2-1 4-5 4-8h2l1 4 1 3 1-2 2-4c1-3 2-4 2-2l4 6 2-4c1-4 2-7 3-6l1 1s0 3 2 5a2558 2558 0 012 7c1 1 1 1 3-2l4-3h2a25 25 0 009 3v-4l1-4 2 1h5l3-1-3-2-4-3-3-1c-4 0-11-4-11-6l2 1c3 3 7 4 10 4h2l-1-2a12 12 0 01-2-5c0-3-1-4-4-6a35 35 0 01-5-4l-1-2-1 2-2 3-2-2a7 7 0 00-2-2l-1 3-2 3-1-2a24 24 0 00-3-3l-1-2 3 2 2 3 1-2a6 6 0 001-4c-1-2-1-2 0 0a16 16 0 003 3l2 1 2-2c1-3 1-3 2-1s7 7 13 10l-1-5a13 13 0 01-1-4c0-2-1-2-3-4a11 11 0 01-5-9l-1-4c-1-1-1 0-1 3v6l-1 2-1-2-3-4-3-2 4 2 3 2v-9c-1-2-1-2 1 0l3 6c1 4 1 5 5 8l4 3v-11c1-11 0-13-2-17l-2-2 3-2a16 16 0 004-9l1-2-3 2c-2 2-3 2-5 2l-5-2a20 20 0 00-8-5l-2 1-1 4-1 2-3-3-6-3c-4-1-4-1-4 2 0 5-2 5-6 2-3-2-5-3-10-2h-4v6c-3 3-5 4-9 4l-6 1-6 1-5 1v-2c0-4-2-6-6-6-5 0-7 4-5 10a45 45 0 011 4 23 23 0 005 6l5 6a9 9 0 003 3l3 1-1-2c0-3 1-3 2-1l3 2h2v-3l1-2 1 3 6 7c4 5 6 10 5 11h-11c-3 0-3 0-1-2 1-2 1-3-2-3-4 0-12-1-16-3-3-1-4-1-5 3l-1 5-1 3h3a37 37 0 006-1 6 6 0 012 0l-1 2-1 3 2-1 4-1c2-1 2-1 3 1 2 3 3 3 3 0 1-3 2-3 4 1 1 4 3 6 4 3l2-2c2-2 4-1 4 1 1 2-1 5-7 9a43 43 0 00-22 31c-2 12 4 24 16 33l14 7c-3-8-2-21 0-24v3c-2 8-1 15 4 29 4 13 3 19-3 23l-9 1c-6 0-6 0-8 2a16 16 0 00-5 8c0 2 2 1 4 0z"/>
      <path d="M461 416l2-2 2 1c2 3 5 3 7 0l2-1v1l4 2 4-1 1-2 3 2c6 4 10-1 7-10-2-4-1-7 4-13l4-6-3-1c-3 0-4 0-5-2-2-2-2-5 0-8l2-3-3-2a60 60 0 01-8-7 26 26 0 00-18-9l-4-1v4c0 4 2 9 8 16 6 8 7 10 7 21v9l-2 2c-2 1-2 2-8 2-5 0-6 1-8 2a9 9 0 00-3 5l1 2 3-1zm-143-24a6 6 0 001-3c0-1 1-2 4-2l3-1-2-1c-3-2-3-4-1-4s6-2 6-4v-2h-4c0 2-1 2-3 0s-2-7 0-10v-3c-2-2-3-5-2-6l3 1h3c2-2 0-4-4-4l-2-1-3-1c-3-1-3-1-3 1s-1 2-3 1-4 0-4 2c0 1 2 2 5 2 2 0 3 2 0 4l-1 2 1 2c2 3 2 8 0 10l-2 2-1-2c-2-2-4-2-5 1 0 1 0 2 2 3l4 2c2 0 2 2 0 4l-2 1 3 1 3 1 3 5 1-2zM357 375l8-7-4-4c-4-4-8-10-9-14l-12-13-11-10h-3l-5 1 1 2 2 1 3-1c3-2 3-2 3 0l-1 2-1 3-2 1c-2 1-3 5-1 5 1 0 4-4 4-6v-1 4l-1 2-2 1c-2 2-3 5-1 5s4-4 4-5v-2l1 3a2 2 0 000 2c0 2 0 4-2 5l2 2c2 1 2 1 2 8l1 8h1l3-3 7 6 7 5 2 1 4-1zm-34-26c0-2-3-4-8-4-3-1-3-1-3 1 0 1 0 2 3 3 4 2 8 2 8 0z"/>
      <path d="M327 349l2-4c-2 0-5 3-5 4 0 2 1 2 3 0zm-4-5c1-1 0-2-2-3-4-2-8-3-10-2-2 2 0 4 3 5l4 1c3 1 5 0 5-1zm0-6c1-1 0-2-8-4-5-2-7-1-6 2l4 2 5 1c3 1 5 1 5-1zm4-5l2-3-5 4c0 2 1 2 3-1zm-4 0c1-2-2-3-7-4-4-1-6-1-5 1 0 1 1 2 5 3 5 2 7 2 7 0zm5-7c7-3 8-11 1-13-2-1-4 0-5 2-1 1 0 3 1 3l1 1c0 3-11 4-15 2l-1-3c1 0 2-2 1-3 0-2-2-3-5-2-6 2-6 9 0 12a34 34 0 0022 1z"/>
      <path d="M324 320v-6l2-25c1-37 3-65 7-72 1-3 1-3-3 0a36 36 0 00-11 13c-6 12-9 27-9 61 0 18 1 21 2 23v6c1 2 11 1 12 0zm56-36l-1-3c-1-3-1-3-3-3a65 65 0 01-23-7l-7-2c-2 2 1 5 5 7a64 64 0 0018 4c3 0 3 0 1 2l-1 2h11z"/>
      <path fill="#000" d="M412 301l-6-5h-2l-2 5-1-1-3-5-2-2-1 2-5 4v-2l-1-3h-1l-4 5-1-3v-4l1 2 1 4 2-3a11 11 0 001-3l1-1 1 4 1 3 2-2a29 29 0 002-3h2l3 4 2 2 1-3v-3l7 5 3 2v-4c0-3 0-4-2-5l-2-1c-1 2-3 2-3 0l-4-6-2 3-2 2-6-7 1 1a21 21 0 003 3c2 2 3 2 4-2l1-2 6 7 1 2v-2c1-2 1-2 2 0l5 3 4 3v-3l1-1-1 5-2-1-3-2v8c-1 1-2 2-2 0zm-18-25c-5-4-5-5-5-6v-2 1l3 4 2 2 2-2 1-2c0-1 1-1 4 1 2 3 2 3 3 1v-5l3 3h1l1-4v-2l2 3c2 3 2 3 3 1l1-3v-2c1 1 1 4-1 7l-1 2-1-2c-2-3-2-3-3 0s-2 3-3 1-1-1-1 1l-1 3-3-2-3-2-1 1-2 3h-1zm39-14l-3-3h1a67 67 0 003 3c3 4 2 4-1 0zm-52-5c-2-2-2-3 0-6l4-1c2 0 5 1 7 3a21 21 0 0011 3l-2-3c-2-3-2-4 1-2 2 2 5 3 12 3h4l-2-2c-3-3-2-3 1-1 3 3 3 3-4 4a23 23 0 01-7-1h-3l1 2h1c0 2-7 0-11-1-8-4-9-5-11-4a4 4 0 00-2 2c-2 3 3 6 5 3l-1-2c-1-2-1-2 1-1v4c-1 2-4 1-6 0zM412 249c-1-1 0-2 5-2s9-1 13-3c3-2 4-2 1 0s-7 4-12 4l-5 1h-2z"/>
    </g>
  </g>
</svg>
