<svg xmlns="http://www.w3.org/2000/svg" id="flag-icons-lr" viewBox="0 0 640 480">
  <defs>
    <clipPath id="a">
      <path d="M0 0h683v512H0z"/>
    </clipPath>
  </defs>
  <g fill-rule="evenodd" clip-path="url(#a)" transform="scale(.9375)">
    <path fill="#fff" d="M0 0h768v512H0z"/>
    <path fill="#006" d="M0 0h233v233H0z"/>
    <path fill="#c00" d="M0 465h768v47H0z"/>
    <path fill="#c00" d="M0 465h768v47H0zm0-93h768v47H0zm0-93h766v47H0zM233 0h535v47H233zm0 186h535v47H233zm0-93h535v47H233z"/>
    <path fill="#fff" d="M166 178l-50-31-51 31 19-51-50-31 62-1 19-51 20 51h62l-50 32 19 51z"/>
  </g>
</svg>
