<svg xmlns="http://www.w3.org/2000/svg" id="flag-icons-ls" viewBox="0 0 640 480">
  <path fill="#fff" d="M0 0h640v480H0z"/>
  <path fill="#009543" d="M0 336h640v144H0z"/>
  <path fill="#00209f" d="M0 0h640v144H0z"/>
  <path stroke="#000" stroke-width="2" d="M320 153c-3 0-6 3-6 3l1 32-11 11h9v19l-49 66-8-3-12 27s31 20 76 19c50 0 77-20 77-20l-13-26-6 2-50-65v-19h8l-11-11v-32s-3-3-5-3z"/>
  <path fill="none" stroke="#000" stroke-width="8" d="M337 230h-34s-12-25-10-44c2-18 12-27 26-27 17 0 25 8 28 27 3 18-10 44-10 44z"/>
  <path fill="#fff" d="M261 292l-5 9 7-1-2-8zm4 11l-8 2 9 4-1-6zm3-11l4 11 9-2-3-6-10-3zm6 15l1 5 12 3-5-11-8 3zm13-9l4 10 9-3-3-5-10-2zm6 14l1 3 14 3-6-10-9 4zm13-11l5 9 13-5-1-3-17-1zm8 12l3 5 16-1-6-9-13 5zm17-12l4 8 11-5-3-4-12 1zm17 6l-10 5 2 5 14-3-6-7zm3-8l6 7 8-7-3-3-11 3zm16 3l-8 7 2 4 11-3-5-8zm12-13l2 3-6 9-6-8 10-4zm3 8l4 7-7 2-1-3 4-6z"/>
</svg>
