<svg xmlns="http://www.w3.org/2000/svg" id="flag-icons-md" viewBox="0 0 640 480">
  <g fill-rule="evenodd">
    <path fill="#00319c" d="M0 0h213v480H0z"/>
    <path fill="#ffde00" d="M213 0h214v480H213z"/>
    <path fill="#de2110" d="M427 0h213v480H427z"/>
  </g>
  <path fill="#ff1900" fill-rule="evenodd" stroke="#000" d="M360 320l25 35c1 2 2 4 0 6-2 1-1 6 0 8 3 4 6 4 8 3l19-11c2-2 2-5 0-9-2-2-6-4-8-3s-4-1-5-3l-24-35"/>
  <path fill="#a77b3b" fill-rule="evenodd" stroke="#000" stroke-width="3" d="M177 696c0 25-9 45-21 45s-21-20-21-45 9-44 21-44 21 20 21 44z" transform="matrix(.52728 -.42386 .44358 .50386 -32 20)"/>
  <path fill="#ff1900" fill-rule="evenodd" stroke="#000" d="M262 306l-21 37c-2 2-3 4-5 3s-7 2-8 4c-2 4-1 7 1 8l19 10c2 1 5 0 8-4 1-2 1-7-1-8s-1-3 0-5l22-37"/>
  <path fill="#a77b3b" fill-rule="evenodd" stroke="#000" stroke-width="2" d="M331 281h-19c-1 0-7 35-13 49-7 16-29 30-29 30s13 4 17 7c1 0 22-5 25-30 2 25-15 37-15 37s24 7 24 23c0-16 25-23 25-23s-12-12-15-37c5 25 24 30 25 30 3-3 17-7 17-7s-22-14-30-30c-6-14-11-49-12-49zm-83-117l37 12c12 0 24-12 24-24 1-26-10-35-12-35l5-4-7-7s2-12 26-12c25 0 25 12 25 23s-12 12-12 35c0 12 12 24 24 24l37-12v117H248V164z"/>
  <g fill="none" stroke="#000">
    <path d="M302 292l15 15 15-15 14 15 29-15 15 16 15-16 21 16 23-16 14 15 15-15" transform="matrix(.16672 0 0 .46773 254 32)"/>
    <path d="M314 143l-5 26m7-26v26m5-26v26m5-26l3 26m2-26l3 26" stroke="none"/>
  </g>
  <g stroke="#000" stroke-width="3">
    <path fill="#a77b3b" fill-rule="evenodd" d="M319 361c35 18 35 54 35 71v355s-2-20-17-36l-18-17-18-18c-13-12-17-36-17-53V415s0-18 35-54z" transform="matrix(-.68905 0 0 .65843 443 -144)"/>
    <path fill="none" d="M284 574l17-18 18 18 18-18 17 18" transform="matrix(-.68905 0 0 .65843 443 -237)"/>
    <path fill="none" d="M284 574l17-18 18 18 18-18 17 18" transform="matrix(-.68905 0 0 -.65843 443 530)"/>
    <path fill="none" d="M284 574l17-18 18 18 18-18 17 18" transform="matrix(-.68905 0 0 .65843 443 -191)"/>
    <path fill="none" d="M301 557v159" transform="matrix(-.68905 0 0 1.24911 443 -567)"/>
    <path fill="none" d="M301 539v177" transform="matrix(-.68905 0 0 1.12111 431 -464)"/>
    <path fill="none" d="M301 539v177" transform="matrix(-.68905 0 0 1.2559 419 -548)"/>
  </g>
  <g stroke="#000" stroke-width="3">
    <path fill="#a77b3b" fill-rule="evenodd" d="M319 361c35 18 35 54 35 71v355s-2-20-17-36l-18-17-18-18c-13-12-17-36-17-53V415s0-18 35-54z" transform="matrix(.68905 0 0 .65843 199 -144)"/>
    <path fill="none" d="M284 574l17-18 18 18 18-18 17 18" transform="matrix(.68905 0 0 .65843 199 -237)"/>
    <path fill="none" d="M284 574l17-18 18 18 18-18 17 18" transform="matrix(.68905 0 0 -.65843 199 530)"/>
    <path fill="none" d="M284 574l17-18 18 18 18-18 17 18" transform="matrix(.68905 0 0 .65843 199 -191)"/>
    <path fill="none" d="M301 557v159" transform="matrix(.68905 0 0 1.24911 199 -567)"/>
    <path fill="none" d="M301 539v177" transform="matrix(.68905 0 0 1.12111 211 -464)"/>
    <path fill="none" d="M301 539v177" transform="matrix(.68905 0 0 1.2559 224 -548)"/>
  </g>
  <path fill="#a77b3b" fill-rule="evenodd" stroke="#000" stroke-width="3" d="M177 696c0 25-9 45-21 45s-21-20-21-45 9-44 21-44 21 20 21 44z" transform="matrix(.63605 .25323 -.26502 .60778 361 -165)"/>
  <path fill="red" fill-rule="evenodd" d="M248 176h147v70H248z"/>
  <path fill="#564dff" fill-rule="evenodd" d="M248 246h147v35c0 23-37 23-74 46-36-23-73-23-73-46v-35z"/>
  <path fill="none" stroke="#ff0" stroke-width="2" d="M337 485h212v160c0 35-53 35-106 71-53-36-106-36-106-71V486z" transform="matrix(.68905 0 0 .65843 16 -144)"/>
  <path fill="#ff0" fill-rule="evenodd" stroke="#000" stroke-width="3" d="M386 130s-51 55-51 109c0 53 53 70 53 70s-18 0-18 71c0 36 54 18 54 36v88c0 18-36 0-36 18 0 9 27 53 53 53s53-44 53-53c0-18-35 0-35-18v-88c0-18 53 0 53-36 0-71-18-71-18-71s54-17 54-70-51-109-51-109 28 73 28 109c0 17-13 53-48 53 0 0-9-18-18 0 0 0-10-18-18 0-2 6-7-18-17 0-5 4-8-18-18 0-18 0-53-18-53-53s33-109 33-109z" transform="matrix(.48234 0 0 .30917 109 140)"/>
  <path fill="#ff0" fill-rule="evenodd" stroke="#000" stroke-width="3" d="M383 248c-4 4 4 61 7 64s25 3 28 0 0-57-3-60c-4-4-30-6-32-4z" transform="matrix(.48234 0 0 .30917 110 202)"/>
  <path fill="#ff0" fill-rule="evenodd" stroke="#000" stroke-width="3" d="M383 248c-4 4 4 61 7 64s25 3 28 0 0-57-3-60c-4-4-30-6-32-4z" transform="matrix(-.48234 0 0 .30917 532 202)"/>
  <path fill="#ff0" fill-rule="evenodd" stroke="#000" stroke-width="3" d="M415 229a16 16 0 11-32 0 16 16 0 0132 0z" transform="matrix(.5544 0 0 .38542 83 184)"/>
  <path fill="#ff0" fill-rule="evenodd" stroke="#000" stroke-width="3" d="M415 229a16 16 0 11-32 0 16 16 0 0132 0z" transform="matrix(.55441 0 0 .38543 118 184)"/>
  <path fill-rule="evenodd" d="M337 308l-4 2c-3 0-5-1-5-3s2-2 4-2 5 1 5 3zm-22 0c0 1-2 2-5 2-2 0-4-1-4-3s2-2 4-2c3 0 5 1 5 3z"/>
  <path fill="#ff0" fill-rule="evenodd" stroke="#000" d="M439 550l-7-10-13 1 2-12-11-8 11-8-2-13 13 2 7-10 8 10 13-2-2 13 10 8-10 8 2 12-13-1z" transform="matrix(.67225 0 0 .64237 26 -133)"/>
  <path fill="#ff0" fill-rule="evenodd" stroke="#000" d="M496 592l21 10 22-10-22-11-21 11z" transform="matrix(.68905 0 0 .65843 16 -144)"/>
  <path fill="#ff0" fill-rule="evenodd" stroke="#000" d="M496 592l21 10 22-10-22-11-21 11z" transform="matrix(.68905 0 0 .65843 -89 -144)"/>
  <path fill="#ff0" fill-rule="evenodd" stroke="#000" d="M535 659c-3-7-14-11-21-11s-14 0-22 11c0-14 11-21 22-21a23 23 0 0121 21z" transform="matrix(.59753 -.3279 .34316 .57097 -165 87)"/>
  <path fill="#ff0" fill-rule="evenodd" stroke="#000" d="M386 652a7 7 0 11-14 0 7 7 0 0114 0z" transform="matrix(.68905 0 0 .65843 14 -156)"/>
  <path fill="#ff0" fill-rule="evenodd" stroke="#000" d="M386 652a7 7 0 11-14 0 7 7 0 0114 0z" transform="matrix(.68905 0 0 .65843 9 -139)"/>
  <path fill="#ff0" fill-rule="evenodd" stroke="#000" d="M386 652a7 7 0 11-14 0 7 7 0 0114 0z" transform="matrix(.68905 0 0 .65843 6 -149)"/>
  <path fill="#ff0" fill-rule="evenodd" stroke="#000" d="M386 652a7 7 0 11-14 0 7 7 0 0114 0z" transform="matrix(.68905 0 0 .65843 19 -139)"/>
  <path fill="#ff0" fill-rule="evenodd" stroke="#000" d="M386 652a7 7 0 11-14 0 7 7 0 0114 0z" transform="matrix(.68905 0 0 .65843 21 -149)"/>
  <path fill="#ff0" fill-rule="evenodd" stroke="#000" d="M386 652a7 7 0 11-14 0 7 7 0 0114 0z" transform="matrix(.68905 0 0 .65843 14 -146)"/>
  <g fill-rule="evenodd">
    <path fill="#da4500" d="M298 120c-13 0-14 2-20 4 0-5 14-11 26-11 0 4-3 7-6 7z"/>
    <path fill="#cac9c7" d="M317 108c0 3-3 5-5 5s-5-3-5-5 2-5 5-5 5 2 5 5z"/>
    <path fill="#ff0" stroke="#000" d="M361 358v10h18v54h11v-53h17v-11h-17v-14h-11v14h-18z" transform="matrix(.68905 0 0 .65843 16 -144)"/>
    <path fill="#da4500" d="M304 113a79 79 0 00-29 3c0-7 8-15 23-15 3 0 6 8 6 12z"/>
  </g>
  <g fill-rule="evenodd">
    <path fill="#008500" stroke="#000" d="M67 613c-14-14-16-21 4-10l284 247-4 7L67 613z" transform="matrix(.38821 .29653 -.14073 .23692 237 71)"/>
    <path fill="#008f00" d="M228 330c1-10-18-22-19-21s1 7 5 10c-7-3-14-6-15-4 0 2 11 7 12 9 0 1-8 1-8 3 0 1 24 13 25 3zm-19-30c1-11-19-22-19-22-1 1 1 7 4 10-6-3-14-5-14-4-1 2 11 7 12 9 0 2-9 2-8 3 0 1 24 13 25 4zm-15-28c1-11-18-22-19-22-1 1 1 7 5 10-7-3-15-5-15-4 0 2 11 7 12 9 0 2-8 2-8 3s24 14 25 4zm-14-31c0-10-19-22-20-21s1 7 5 10c-7-4-14-6-14-4-1 2 11 7 11 9 1 1-8 1-8 3 0 1 24 13 26 3z"/>
    <path fill="#008f00" d="M185 240c9-6 7-27 6-28-1 0-5 5-6 10-1-7-3-14-5-14-2 1 1 13 0 15-1 1-6-6-7-5s3 27 12 22zm13 27c11-3 17-24 16-24s-7 3-9 7c2-7 2-15 0-15-2 1-4 13-6 14-1 1-3-7-4-7-2 1-7 26 3 24zm16 27c10-5 10-27 9-27s-5 4-6 9c-1-8-2-15-4-14s-1 13-2 14-5-6-7-5c-1 1 1 27 11 23zm18 35c10-4 13-25 12-26-1 0-6 4-8 9 1-8 0-15-2-14-2 0-2 12-3 14-2 1-5-7-6-6-2 0-3 27 7 23z"/>
  </g>
  <path fill="#ff1900" fill-rule="evenodd" stroke="#000" d="M209 776c0 8-10 14-23 14s-23-6-23-14 10-14 23-14 23 6 23 14z" transform="matrix(.60164 .32097 -.3359 .5749 390 -147)"/>
  <g fill="#ff0" fill-rule="evenodd" stroke="#000">
    <path d="M156 415v-7h7v-8h7v7h7v8h-7v17h-7v-17h-7zm7 60h7v205h-7z" transform="matrix(.49887 .1571 -.1826 .4713 451 -4)"/>
    <path d="M159 677h15v56h-15zm-3-238h21c14 0-3 39-3 39h-14s-18-39-4-39zm18-5c0 3-4 5-7 5s-8-2-8-5 4-5 8-5 7 2 7 5z" transform="matrix(.49887 .1571 -.1826 .4713 451 -4)"/>
  </g>
  <path fill="#ff1900" fill-rule="evenodd" stroke="#000" d="M209 776c0 8-10 14-23 14s-23-6-23-14 10-14 23-14 23 6 23 14z" transform="matrix(.57449 -.36357 .38048 .54895 -2 4)"/>
</svg>
