<svg xmlns="http://www.w3.org/2000/svg" id="flag-icons-me" viewBox="0 0 640 480">
  <path fill="#d3ae3b" d="M0 0h640v480H0z"/>
  <path fill="#c40308" d="M24 24h592v432H24z"/>
  <path fill="#b96b29" d="M425 236a58 58 0 0019-9c7-6 8-10 9-13 0-2 0-4-1-3l-11 8-9 4h-2c2-1 8-3 13-8s9-12 9-16c0-5 0-4-2-3l-9 9a90 90 0 01-10 7c-2 1-5 3-1 0 5-3 13-10 17-20a35 35 0 002-16c0-1 0-2-1-1l-11 18-5 5c-1 1-3 2 0-1a51 51 0 0012-31l-2-10c-1-2-2-3-2-1a191 191 0 01-6 18 75 75 0 01-7 13c0 1-2 4 0-1a77 77 0 007-27 44 44 0 00-3-21l-3-4s1 8-2 19l-5 17s-2 1-1-1a62 62 0 001-35c-2-7-6-11-6-11-1 11-1 24-5 36 0-1-1-2-2 0a63 63 0 01-7 20l-6 10-2-4c-1-1-1-2-2 0s-3 8-9 15-9 10-9 15 3 8 6 10c4 2 4 4 4 6-1 3-4 4-7 4l-7 1-3 3-3 3h-1c0-14 5-20 5-20l-14-17a51 51 0 01-3 1 11 11 0 01-3-8h4v-3l-1-7 1-2 3 2 2-3c0-2 1-5 3-6l5 1 9-3c3-3 2-4 2-4l10 2c4 1 8 0 10-4 2-5 0-9-1-9h-2c0 1 0 4-2 6l-7 1a21 21 0 00-13-1 17 17 0 016-4c3-1 5 0 6 2 1 1 2 3 3 0s0-6-1-8a8 8 0 00-7-3l-4 1s-2-5-6-5a21 21 0 00-14 3l-6-1a21 21 0 01-6-2l2-4h1l1-2-1-2s-1-3 2-4l3-2h3l1-1 2-1v-3l-1-2 1-2 1-1 1-2c0-2-1-2-2-3h-1l-1-2-1-2v-2l-2-2h-1l-4-2h-1l-1-2-2-1h-1l-6-1h-2l-5-2-2-1 2-4a6 6 0 00-3-5l-2-1v-1h3v-4h-2v-3h-6l1 3h-3v4h3v2h-2a5 5 0 00-3 5l2 4-2 1-6 2h-1l-6 2-1-1-2 1-1 2h-1l-4 3h-2l-1 2v1l-2 2a6 6 0 000 2h-1c-1 1-2 1-2 3l1 2v1l1 2v5l2 1 1 1h3l2 2c4 1 3 4 3 4l-1 2v2h2l1 4a21 21 0 01-5 3h-6a21 21 0 00-14-3c-4 0-6 5-6 5l-4-1c-3 0-6 1-7 3s-2 5-1 8 2 1 3 0 3-3 6-2l6 4h-4c-4-1-7 0-9 1-3 0-5 1-7-1s-2-5-2-6h-2c-1 1-3 5-1 9s6 5 10 4l9-2 3 4a13 13 0 009 3l5-1c2 1 3 4 3 6s0 3 2 3l3-2 1 2a26 26 0 01-1 7v3h3c0 3 0 5-2 8a4 4 0 00-1 0 54 54 0 01-2-1l-14 17s5 6 5 20a21 21 0 01-1 0l-3-3-3-3-7-1c-3 0-6-1-7-4-1-2 0-4 4-6 3-2 6-5 6-10s-3-9-9-15c-6-7-9-13-9-15-1-2-2-1-2 0l-2 4-6-10a63 63 0 01-7-20c-1-2-2-1-2 0-4-12-4-25-5-36 0 0-4 4-7 11a60 60 0 002 35c1 2-1 1-1 1s-3-6-5-17c-3-11-2-19-2-19l-3 4a44 44 0 00-3 21 77 77 0 007 27c2 4 0 2-1 1a71 71 0 01-6-13l-6-18c0-2-1-1-2 1l-2 10a51 51 0 0012 31c2 3 1 2 0 1l-5-5a92 92 0 01-11-18c-1-1-1 0-1 1-1 1-1 7 2 16 4 10 12 17 17 20 4 3 1 2-1 0a90 90 0 01-10-7l-9-9c-2-1-2-2-2 3 0 4 4 11 9 16s11 7 13 8h-2a40 40 0 01-9-4 93 93 0 01-11-8c-2-1-1 1-1 3 1 3 2 7 9 13a58 58 0 0019 9c3 1 1 1 1 1l-6-1a71 71 0 01-17-8c-2-1-3-2-3 1a20 20 0 009 13 50 50 0 0018 5c2 0 1 0 0 0a51 51 0 01-19-3v-2l-2-1-2 2-1-1v-3l-1-1-5 2v3a147 147 0 002 2l-4 1v2l2 4 1 1 3-2 1 4-3 1c-1 1-1 2 1 3 1 0 3 1 5 5s3 11 4 22c2 11 9 17 10 17v5a5 5 0 003 4v8l5 10 1 1-2 2a12 12 0 00-3 3v5c0 2 3 4 3 4l-1 1c0 2 1 4 3 5l4 1v3l3 2h4c1-1 2 0 2 1l1 6-1 3h6a9 9 0 004 2v-3l1-4 4-1 1-1-3-2-4-3-1-1 1-2v-2l2-1 2-3 3-4 3-4a30 30 0 0112-7l1 4c1 2 2-1 7-5l9-5 2 4c1 1 3 0 9-9l13-15 1 1v1c0 2-1 3-3 5l-5 7-2 8c0 4 2 4 2 4l-4 6-2 6-1 3c-1 3-3 2-6 5l-8 5c-2 1-1 2-1 3l5 4h5c2 0 0 1 0 2l-2 6c0 2 2 2 5 1a28 28 0 005-1v4l1 4 2-1 5-2 3-1-1 2 1 5a9 9 0 002 4c2 2 2 1 3-1l4-4 1 6c2 5 7 9 7 9s5-4 6-9l2-6 3 4c2 2 2 3 3 1a9 9 0 003-4l1-5-1-2 3 1 5 2 2 1 1-4v-4l5 1c2 1 4 1 5-1a10 10 0 00-2-6c-1-1-2-2 0-2h5l5-4-1-3-8-5-6-5-1-3-2-6-4-6s2 0 2-4c0-3-1-5-3-8l-5-7-2-5-1-1a146 146 0 012-1l14 15c6 9 7 10 8 9l3-4 8 5c5 4 7 6 8 4v-2a104 104 0 0112 4l8 5c4 3 9 3 13 1a304 304 0 0022-7l9-5 1-5-2-2v-2l-1-3v-4c0-5-4-11-9-13v-1l-1-1v-3-1l2 1c1 1 1 0 2-1l1-4-1-1h-2v-1l1-2-1-1a58 58 0 00-5-1c-1-1-1 0-1 1v2l-1 1a13 13 0 01-1-2l-2 1-1 4v2h3v1l-1 2-2 1h-2s-5 0-9 3-5 5-5 6l-2 2-3 3c0 1 1 2-1 3s-3 6-1 9l4 6c1 1 0 1-1 1l-2-1-9-7c-2-2 0-1 0-1l1-1c2 0 2-1 1-2a17 17 0 01-5-2v-2c2-1 4-3 2-3l-7-2-2-1 1-3s1-1 0-1l-8-2a19 19 0 01-11-13c1 2 4 6 8 6 5 1 6-1 4-3l-3-4h1c2 2 4 6 13 6 8-1 8-3 8-3 0-2-2-2-3-3h12c3-1 8-3 9-6 0 0-4 0-6-2l-2-1c3 1 8 2 13 0 3-1 6-3 6-7l-7-2-2-1s7 2 14-1c6-3 7-8 7-9l-1-1-10 1h-6s13-1 19-5c6-3 7-11 7-11l-12 3h-8c-1 0-2 0 0 0a49 49 0 0018-5c5-3 8-10 8-13 1-3 0-2-2-1l-17 8-6 1s-3 0 0-1zm-226 14l-2 2-1-3v-1h2l1 2zm77 46a20 20 0 01-9 7l-7 2c-2 0-1 2-1 2l2 2-3 1-7 2c-2 0 1 2 2 3v2l-4 2v2l5 1-2 2a19 19 0 01-9 3h-17l-1-4a22 22 0 00-3-8l-4-5 1-2-1-3-4-4v-3l-2-11-8-14a39 39 0 01-4-20l1-1a13 13 0 003 3c6 4 19 5 19 5h-6l-10-1-1 1c0 1 1 6 7 9 7 3 14 1 14 1l-2 1-7 2c0 4 3 6 6 7 5 2 10 0 13 0l-2 1-6 2c1 3 6 5 9 6 5 1 9 0 11-1 2 0 1 1 1 1-1 1-3 1-3 3 0 0 0 2 8 3 8 0 11-4 13-6h1l-3 4c-2 2-1 3 4 3 4 0 7-4 8-6h1a52 52 0 01-3 5zm67-179l-2-2 5 4 2 4v8l1 1-3 1h-4v-2s2-1 3-5l-3-9zm-17 11v-8l-1-9 5 4c3 3 4 6 4 7v8l-2 1c-1 1-2 2-4 1l-3-1h-2l3-3zm-16-13a14 14 0 015-4l-1 9v8l3 3h-2l-3 1-4-1a14 14 0 00-2-1v-3l-1-5c0-1 1-4 4-7zm-12 18h-4l-3-1 1-1v-3-5l2-4 5-4-2 2-2 9c1 4 3 5 3 5v2zm43 32c-3 2-4 1-4 3l3 2-6 4-5 3v1a5 5 0 002 3l1 1-6 6a15 15 0 01-4 2v4l2 3v2l-4 5-4-5v-2l2-3v-4a15 15 0 01-4-2 80 80 0 01-6-6l1-1a5 5 0 002-3v-1l-5-3-6-4 3-2c1-2-1-1-5-3l-4-4s4-2 6-5a7 7 0 001-4c6 2 13 3 19 3a63 63 0 0019-3h1a7 7 0 000 4c2 3 6 5 6 5s-1 2-4 4z"/>
  <path fill="#d4af3a" d="M361 238c0-10 5-17 5-17l-13-14c-12 4-23 5-33 0-10 5-21 4-33 0l-13 14s5 7 5 17-2 17-3 22c-2 5-3 14 0 21a26 26 0 0017 17c11 5 17 7 21 11l6 6 6-6c4-4 10-6 21-11a26 26 0 0017-17c2-7 1-16 0-21s-3-12-3-22z"/>
  <path fill="#b96b29" d="M357 242c-1-10 4-18 4-18l-11-13c-8 5-20 4-30-1-10 5-22 6-30 1l-11 13s6 8 4 18-5 25-4 31c1 7 5 14 9 18a58 58 0 0017 8 47 47 0 0115 10l4-3 11-7a59 59 0 0016-8c5-4 10-11 10-18 1-6-2-21-4-31z"/>
  <path fill="#1d5e91" d="M356 243a33 33 0 013-19l-9-11c-9 4-19 3-30-1-11 4-21 6-29 1l-10 11s4 9 3 19-4 22-4 29l1 2h9l1-1 1-1 2-2h2l1-1 2-4 1-3 1-3-1-1c-1 1-1 0-2-1l1-4 1-1-1-1s-5 1-6-4l-2-7h-1l-3-3c-1-2-2-3-1-4l1-1 2 2v-2l-1-3v-3h1l1 1h1v-2l2-1a2 2 0 011 2v1l1-1c0-1 0-2 1-1v5l-1 4 1 4 3 4h2l2-3 4-1 2-1h-2l-3-2v-2l-4-2-1-3c0-1 1-2 2-1l2 2h1l-1-3 1-1 4-1h1l1-1a9 9 0 013-1h3a6 6 0 013-1 4 4 0 012 1v1l1 1 2 1c1 0 2 0 1 1l-1 2v1l1 1c1 1 2 2 1 3l-3 2v1l2 2 1 1v1l-1 1h-3l-1 1 2 2v1l2 1 5-1h6l3 1h7c2-1 2-2 2-3l-3-2-8-1c-3 0-7-1-8-5 0-3 2-5 4-5l5-3h12c1-1 2 0 2 1s-1 3-4 4h-9l-4-1c-2 1-3 2-2 4 2 2 8 2 10 2 2 1 8 0 10 3 2 4 0 7-2 8a29 29 0 01-5 2h-2l1 2v3l4 1c1 0 3 0 3 2v12l-2 4h10v-1c0-8-2-19-4-30z"/>
  <path fill="#6d8c3e" d="M282 279a27 27 0 0011 14c8 5 12 4 20 9l7 6 7-6c7-5 12-4 20-9a27 27 0 0011-14h-76z"/>
  <path fill="#d4af3a" d="M288 237l3 1 2 2 1 6 4 3 1-4v-2l-2-1-2-6a16 16 0 010-6v-2h-1v1l-1-1h-1v2l-1-1-2 1 2 2v3l-2 1a1 1 0 00-1 0v1zm0-2l-1-1a35 35 0 010-1v2h1zm2-7s1 0 0 0l-1-1v-1 2h1zm2-2l1 1v-1a2 2 0 00-1-1v1zm4 1l-1-1v1h1zm5 23c1 2 2-1 4-3s1 0 1 2a8 8 0 001 4h2l1-3h1l1 3c1 1 2 0 2-1l1-4h1l1 2c1 1 1-1 1-2l1-2 2 1c2 0 1-1 1-2a7 7 0 00-2-3l-1-3h5v-1l-1-1-2-2h-3-1l-1 1h-1l1-2 1-2h-3l-1-1h2l1-2h2l1-2 1-2h-3l-1 2h-1v-2-1l-1-1a9 9 0 00-4 1v1h-2l-3 1h-1v1l1 1c0 1 0 0 0 0l-1 1 1 1h2l1 2-2 1-1 1h1l3 1 3 1-1 1-1 1-2 1-4 1-3 4 1-1 4-2c1-1 1 0 1 1l1 1 2-1c1-1 0 0 0 0v3l3-1v1l-2 2-2-1v-2l-2 1-2-1v-1h-1l-2 2-2 2 1 3z"/>
  <path fill="#d4af3a" d="M317 224h1l1-1h1l-2-1-2 1h-1v1h2zm3 4h1l2-1 1-1-2-1-1 1-1 1c-1 1 0 1 1 1zm0 1l-3 2 1 1v2h1l1-1a4 4 0 012 0l2-1c1-1 0-1-1-2a4 4 0 00-3-1zm-14 3l1-1h-1c-3 0-5-1-6-4 0 0-1 2 1 4s4 2 5 1zm-9 41l1 1h4l1-1 1-5 1-6v-2l-1-2-2-1v2l-1 5-4 5-1 1-2 1a2 2 0 00-1 1l1 1 1-1h2v1zm-6 0v1h2a1 1 0 000-1h-2z"/>
  <path fill="#d4af3a" d="M295 273a3 3 0 00-1 1h3l-1-1h-1zm24-1l-1 1-1 1h2v-1-1zm2 1h-1a2 2 0 00-1 1h2v-1z"/>
  <path fill="#d4af3a" d="M332 260l1-1v-1a6 6 0 00-3-1l-4 1-2 4 1 1 1-1 1 3 1 2-3 3h-2l-3 1c-1 1 0 1 1 1h1v2h5l2-2 2-3v-2-2l-1-3 2-2z"/>
  <path fill="#d4af3a" d="M324 247l-1 2a9 9 0 01-2 0h-2a5 5 0 010 3h-2l-1 1-2 2-1 1-1-1-2-2-1 1-1 1-2-2-2-2-2 2h-1l-2 1 1 2c1 1 2 0 3-1h2l1 3 1 2 1-1 2-3 2 2c1 1 1 2 2 1l1-3 1 1v1l8-3h9l1-1-3-1-4 1h-2l2-1a58 58 0 016-1c2 0 1 1 1 2l1 3 1 3 4 3 1-1h1l3 1h1v5l-2 2h-2l-3 2 1 1v1l1-1h3v1h4l2-4a6 6 0 000-3v-6-2c0-1 0-2-2-3-3 0-3-1-4-2l-1-5c-1-2-3-2-5-3a23 23 0 00-7 0h-7v1z"/>
  <path fill="#d4af3a" d="M337 273v1h2a1 1 0 000-1h-2zm5 0a2 2 0 00-1 1h2l-1-1zm-61 2a24 24 0 000 2h78v-2h-78zm52-37l14 2c3 1 3 4 2 5-1 2-6 2-7 2l1 1h2a11 11 0 006-2c2-1 2-4 1-6l-7-2-8-1c-4 0-5-2-5-3l3-3 5-1 7 1 4-3h-2l-6-1-6 2c-2 0-5 1-7 3-1 3 1 4 3 6z"/>
  <ellipse cx="313" cy="226" fill="#b96b29" rx="2" ry="1"/>
  <path fill="#b96b29" d="M344 228l-4 1h8l-4-1z"/>
  <path fill="#1d5e91" d="M326 265l-2-1-1-2 1-4-4 1-4 1h-3-3l-2 1-2 4a20 20 0 00-1 6 16 16 0 01-1 3h13v-1a3 3 0 011-2h2l1-2h5l1-2v-1l-1-1zm19 0v-1h-2c-1-1-1 1-1 1h-3l-4-2a6 6 0 01-1-2l-1 1-1 2 1 4-2 4a9 9 0 00-1 2h6a3 3 0 011-1l1-1v-1l3-1 3-1 1-1v-3z"/>
  <path fill="#d4af3a" d="M296 330l4-2 2-4 2-2-1 4a16 16 0 00-1 7c0 3 2 3 3 3l3-4 1-2 2-3v3l-2 7c0 1 0 5 2 5s3-2 4-5l1-5 1 3a18 18 0 001 8h4l1-8 1-3 1 5c1 4 2 5 4 5s2-4 2-5l-1-7c-1-2 0-2 1 0l1 3 3 3c1 0 3 0 3-3 1-3-1-11-1-11l1 2 2 4 4 2v-6l-6-9a32 32 0 01-4-8 27 27 0 00-8 5l-6 7-6-7a27 27 0 00-8-5l-4 8-4 3a12 12 0 00-2 6v6z"/>
  <path fill="#d4af3a" d="M296 342l2-2s1-1 1 1v6c0 2 0 3 2 2l3-3h2l-1 7c0 3 2 3 4 1a32 32 0 003-6c1-1 2-2 2 0 0 5 1 12 6 13 5-1 6-8 6-13 0-2 2-1 2 0a32 32 0 004 6c1 2 3 2 3-1v-7h1l3 3c2 1 2 0 3-2l-1-6c0-2 1-1 1-1l2 2a6 6 0 003 1s1-5-1-8l-3-4h-2l-2-1v3l4 3v1a51 51 0 01-4-3l-1 3-2 1v1l1 4v-1l-3-4-2-1-1 5v1l1 4c0 1 0 2-1 1l-2-4-3-1-1-3-2 4-2 2v6l-1 1v-1l-1-6-2-2-2-4-1 3-3 1-2 4h-1l2-5-1-1-1-5-2 1-2 4-1 1 2-4-1-1-2-1-1-3-3 3c-2 1-1 0 0-1l3-3v-3l-2 1h-2l-3 4c-2 3-1 8-1 8l3-1zm26 34l-2-3-2 2a43 43 0 01-4 4l1 7 5 5 5-5 1-7-4-4z"/>
  <path fill="#b96b29" d="M319 381l1 3 1-3v-4h-2v4z"/>
  <path fill="#d4af3a" d="M320 151c-6 0-12 0-16-2l-4 1a52 52 0 0020 3c9 0 14-1 20-3l-4-1a51 51 0 01-16 2zm21-4l-4-3v-1l4-2 2-1-7-2h-16-16l-7 2 2 1a19 19 0 014 1v2a45 45 0 00-4 3l1 1 2-1a94 94 0 0136 0l2 1v-1z"/>
  <path fill="#d4af3a" d="M334 149l-14-1-14 1 14 2 14-2zm-15-57v2h3l-1-3 4 1v-3l-4 1 1-3h-4l1 3-3-1v3zm6 7h-4v-4a6 6 0 00-1 0h-1v4h-4a5 5 0 000 2h11v-1a5 5 0 00-1-1z"/>
  <path fill="#1d5e91" d="M320 105a6 6 0 005-3h-10a6 6 0 005 3zm2-9v2h3a5 5 0 00-3-2zm-4 0a5 5 0 00-3 2h3v-2z"/>
  <path fill="#b96b29" d="M323 140l-3-1-3 1-2 1 1 2 4 2 5-2v-2l-2-1z"/>
  <path fill="#d4af3a" d="M320 139l-3 2 3 2 4-2zm0-12l-1 2v2l1 1 1-1v-2l-1-2z"/>
  <circle cx="320" cy="133" r="1" fill="#d4af3a"/>
  <path fill="#d4af3a" d="M318 129l1-2 1-1 1 1 1 2 3-4c1-3 0-6-1-10a208 208 0 010-9 7 7 0 01-4 1 7 7 0 01-4-1v9c-1 4-2 7-1 10 1 4 3 4 3 4z"/>
  <circle cx="320" cy="122" fill="#b96b29" r="3"/>
  <circle cx="320" cy="116" fill="#b96b29" r="3"/>
  <circle cx="320" cy="110" fill="#b96b29" r="3"/>
  <ellipse cx="320" cy="122" fill="#d4af3a" rx="2" ry="1"/>
  <circle cx="320" cy="115" r="1" fill="#d4af3a"/>
  <circle cx="320" cy="109" fill="#d4af3a" r="1"/>
  <path fill="#b96b29" d="M320 336v-5-1l-1 1v4l1 1z"/>
  <path fill="#d4af3a" d="M290 359l6-3a12 12 0 004-4h-1l-2-2 1-4-1-3-3 2h-2l-1-2-2 4-6 6a29 29 0 01-7 4v1l6 3c5 1 7-1 8-2z"/>
  <path fill="#d4af3a" d="M307 357c-2 0-3 0-3-2v-6l-1 1-2 1-1 2a9 9 0 01-3 3 51 51 0 00-5 3 28 28 0 01-4 3 7 7 0 00-4 5c0 2 0 3 2 3l5-1c3 0 7-4 10-6l6-6z"/>
  <path fill="#d4af3a" d="M315 360l-2-3-1-6-1 4c-1 2-3 2-3 2l-2 3a21 21 0 01-5 5l-7 5-1 5c1 1 2 0 3-1l12-4c5-3 7-10 7-10z"/>
  <path fill="#d4af3a" d="M318 373l1-8-1-1-2-3-2 4-4 4-6 6v7c1 2 2 1 3 0l4-3 7-6z"/>
  <path fill="#b96b29" d="M299 325l3-4a15 15 0 001-3l-3 3-2 4c0 2 0 2 1 0zm8 2l1-2v-1l-2 2-1 5 2-4zm6 5l1-1v-2c0-1 0-1 0 0l-1 2-1 3 1-2zm-19 19h-1l-1 1-2 2a8 8 0 01-3 2l-2 1h1l2-1 3-2 3-3zm6 8l2-1h-2l-3 3-2 1-3 2h1l3-1 1-1 4-3zm8 6c1-1 0-1-1-1l-3 3-3 2-1 1h1l1-1h1l3-2 2-2zm4 7l-4 4-1 2 1-1 1-1 3-3a8 8 0 003-3v-1l-3 3z"/>
  <path fill="#c52126" d="M275 170a22 22 0 00-8-3l-10 1-6 1c-2-1-4-3-5-6 0 0-2 3 0 6a7 7 0 005 3c5 1 10-2 14-2s7 2 7 2h2c2-1 2-1 1-2z"/>
  <path fill="#d4af3a" d="M260 318l-1-1h-3-1l-4 3h6c2 0 3-2 3-2z"/>
  <path fill="#d4af3a" d="M277 316v-2l-2 2-3 3c-1 2-3 3-2 1l3-5 2-2h-4l-5-2-3-2-6 2c-2 1-3 1-1 2l3 1a11 11 0 005 1c1 0 4 0 3 1l-3 6a20 20 0 00-1 7v3l6-5 8-5 1-1-1-5z"/>
  <path fill="#d4af3a" d="M296 302a69 69 0 01-1 0 15 15 0 00-5 4c-1 2-2 2-1 0a18 18 0 013-4 24 24 0 011-1 53 53 0 01-7-4l-2 2-3 2 2-3 1-3a32 32 0 01-5-4 18 18 0 01-4 7c-4 4-11 6-11 6s-3 1-1 1c2 1 4 2 8 1l5-1c1 0 2 0 0 1l-9 1c-2 0-4-1-1 1l5 2h9c0 1-2 2-2 5l1 6 1 3c1 1 1 2 1 0l2-6 1-3h1a133 133 0 00-2 6c0 1-1 4 1 2l7-9 2-3 3-3a29 29 0 014-4l-4-2zm-70-129c0 3 4 9 6 12l2 5-2-3-5-7-5-9-1-1c-1 1-3 8-1 12l6 9 3 4-2-2-6-6a52 52 0 01-4-6h-1l-1 5a17 17 0 006 10l4 5-4-3-7-6c-1-1-2-1-2 3s5 9 7 11l4 4-3-1-7-5c-1-1-2 1-1 5 2 4 5 7 7 8l5 4-3-1a39 39 0 00-6-2h-2s0 4 2 7a13 13 0 008 4l3 1h-1l-5 1-3 1c0 1-1 3 3 5l9 3 1 1h-4l-4 2c0 1 0 3 2 4 2 2 5 2 9 2h5l-3 2-5 1c-1 1 0 3 2 4 2 2 7 2 9 1h5l-3 2-3 2c-1 1-1 2 2 3h8l3-1v1l-4 3c-2 0-3 0-3 2-1 1 1 3 4 3l11-2 2-1v1l-5 3-1 2c0 1-1 2 3 3 3 1 7 1 11-2a8 8 0 002-2 28 28 0 010-8l-3-1-4-4h-2-2a8 8 0 01-6-3l-1-5h-3c-1 0-3 0-5-2-2-1-2-3-2-4l-2-2-3-1a7 7 0 01-2-5l-4-2c-3-2-3-5-3-6l2-3-2-1c-1 0-4-2-4-6 0-3 2-4 2-4h-1c-1-1-4-3-4-5l2-4 3-1s-2-1-2-3v-5c2-2 4-2 5-2l3 1v-2a7 7 0 010-3c0-1 0-3 3-4s6 1 7 2v-2l-4-6a73 73 0 01-6-11 66 66 0 01-4-13c0-2-1-1-1-1l-2 4a25 25 0 00-2 11z"/>
  <path fill="#d4af3a" d="M277 241l-6-3c-2-3-4-3-9-3-4 0-6-2-8-5-1-3 1-7 5-9 5-2 7-5 7-9s-5-9-9-14c-5-5-9-13-9-13l-1 4v4c-1 1-1-1-4-2s-5-2-7 0c-1 2 0 6 2 7 2 2 3 3 2 4l-3-2-5-2c-3 0-4 1-4 3-1 3 2 5 4 6 2 0 2 1 2 2l-2-1a8 8 0 00-4 0c-2 1-4 3-2 5l8 3 1 1-4 1c-3 0-3 2-3 4s4 3 7 4h3l-2 2c-1 0-3 0-4 2l1 4c2 2 5 2 6 2l3-1c1 1-1 2-2 3-2 1-2 3 1 4 2 2 5 1 6 1s2-2 3-1-2 1-4 3c-1 1 0 4 2 5s6 1 7 0h2l-1 3c0 1-1 4 3 6s6-2 7-2l2-1v1c-1 1-2 4 1 5a6 6 0 005 1l2-7h-1v1h-1v1h-2l2-1 1-1 1-1v-1a101 101 0 002-13h-2zm-74-53a37 37 0 009 12l-1-4v-2l-4-6-4-10 5 9 4 6 1-3 1 1h1l-2-2-1-3c-2-2-5-6-6-11l-6-18c0-3-1-1-2 1a28 28 0 00-1 11 54 54 0 006 19zm5 21a136 136 0 004 2l-1-2v-2l-3-3a42 42 0 01-6-6c-3-4 0-1 2 1l7 6a3 3 0 011-2l-3-3a75 75 0 01-17-24s-2 9 4 18c5 10 10 13 12 15zm29 56c3-1 2-4 2-4l-4 1-7 2-2-1h4a29 29 0 007-3l-1-1a5 5 0 01-2-1l-4 1a51 51 0 01-22 1l1 4c2 3 9 5 14 5s10-3 13-4zm-14-7c5 0 7-2 7-2l-1-1v-3l-3 1h-8c-3-1-2-1 1-1l7-1c2 0 1-1 0-1l-3-2h-12l-11-2h-1l2 4c2 3 6 5 9 6l13 2zm-1-13l-1-1 1-2-5-1-7-1-4-1h2l10 2h5l2-1h-3a8 8 0 01-3-1l-4-1-11-4-11-5c-2-1-1-1-1 1l3 6c3 3 4 5 11 7 8 3 16 2 16 2zm-22-17a41 41 0 0016 6v-2c0-2 1-2 2-2 2 0 1 0 0 0l-3-1-8-2c-4-1-5-2-5-3l5 2 9 3c2 0 1-1 0-1l-3-3-6-2a49 49 0 01-10-4l-3-2-5-4c-1-1-1 0-1 1l3 6 9 8zm-1-13c6 5 12 7 13 7 1 1 1 0 0 0v-3l-5-2a80 80 0 01-7-5c-2-1-1-1 0-1l6 4 6 4 1-2h2l-1-1-5-3a58 58 0 01-10-7 154 154 0 01-10-9v4c1 3 4 9 10 14zm22-47l3 4a52 52 0 011 2v-1-6-2l-2-7-1-10c0-3 1-1 1 0a62 62 0 003 18v-3l2-4v-2l-2-15-2-18c-3 3-6 11-6 20l1 14c1 4 1 8 3 10zm-7 17c0-2 1-4 3-5l-3-6a46 46 0 01-2-7v-2l4 13 2 4a17 17 0 010-5l1-7-5-13a82 82 0 01-3-22s-3 2-4 13a69 69 0 007 37zm34 89l-2-2c-2-1-1-4-1-4l-2 2a19 19 0 01-3 2l-3 1v-1l3-1 5-4h-2l-4-1-8 4a50 50 0 01-12 4s1 3 4 4 6 2 13 0a44 44 0 0012-4zm8 6c1-3-1-5-1-5l-1 1-5 4c-3 2-4 2-1 0l6-5-1-1-10 5-11 5s3 4 12 3c8 0 11-4 12-7zm17-3l-3 2-5 1v2l-4 4-4 1 3-2 4-3c1-1-1-1-1-1h-5l-3 3-4 6v1l4 1 8-1a23 23 0 005-5c5-5 5-9 5-9zm2 10l-2 2 1-3 1-1-1-5-4 8c-2 3-3 5-2 6 1 0 3 1 6-1 2-1 3-3 3-5a25 25 0 01-1-2 5 5 0 00-1 1z"/>
  <circle cx="274" cy="159" fill="#d4af3a" r="2"/>
  <path fill="#d4af3a" d="M270 156l5-1 8 3a15 15 0 0010 1l3-1c4-3 3-7 3-7a17 17 0 01-11 3l1 1 2 1c-1 1-2-1-4-2a19 19 0 00-6-3h-10l-2 4 1 1zm47 34c-1 0-3 0-4-2a71 71 0 01-7-7l1-2 2-2-4-2a44 44 0 01-6-6v-1l1-1-3-2a71 71 0 01-4-4h-9l-7-2v2h-4c-2-1-2-3-2-3l-4-2c-3-1-6-2-8-1-2 2-4 5-4 8 0 2 2 1 2 1 0-1 1-3 4-3s6 1 9 4l6 5c2 1 0 2-3 3s-6-1-6-1c-1 1 1 3 3 4h11a15 15 0 014 9 4 4 0 003-3c0-1 0-2 1-1l2 8-1 6h1l2-2 1 2 2 8 4 5 1-2 1-8-1-9 7 5c4 1 8 1 9-1 2-2 0-3-1-3z"/>
  <path fill="#d4af3a" d="M293 201l-2 3v1l2 2 3 1-2-5-1-2zm21-1a72 72 0 000-2 15 15 0 01-9-2l4 4 2 2s-2 0-4-2c-3-2-3-5-3-5l-1 9-1 4s5 1 10 0l5-2v-1a28 28 0 01-3-5z"/>
  <path fill="#b96b29" d="M305 187a11 11 0 01-2-2v1a15 15 0 004 4 11 11 0 004 1v-1l-6-3zm-6 12l-1-8v-1h-1l1 11 1 1v-3zm-10-31h-1l4 5v3l-3-2a15 15 0 00-3-2c-1 0-2 0-1 1a25 25 0 004 4l4 3a37 37 0 002 1l-2-9a26 26 0 00-4-4zm-32 99a7 7 0 01-3 1h-1 2a8 8 0 003-1l1-2-2 2zm10 5l-2 2-1 1h-1 1l3-2 1-1h-1zm-42-74l1 1v-1l-1-1-1-1c0-1-1-1 0 0l1 2zm-3 7l2 1 1 1-2-1a8 8 0 00-1-2 10 10 0 00-1-1l1 2zm1 11l2 1v-1a24 24 0 01-3-1l-1-2h-1l2 2 1 1zm3 9h-1a27 27 0 01-2-1h-1l2 1 1 1 1-1zm1 10h-3l1 1h3l1-1h-2zm11 11h-8l3 1h4l1-1zm4 7a6 6 0 01-2 1h-2l-1 1 1-1h5l1-1h-2zm9 6l-2 2-1 1h-1 1l2-2 2-1h-1zm-15-75l2 3c2 2 1 0 0-1l-3-4h-1l2 2zm-3 10l-1-1-3-4v-1l1 3 2 3h1zm4 19l-2-1h-4 1l4 1h1zm-4-10l3 1 1 1-1-1-2-1-1-1v1zm10-7l-1-1h-1l1 1 2 2-1-2zm-6 26h-2v1l3-1c1 0 2 0 1-1l-1 1h-1zm1 9h2l2-1 1-1h-2l-2 2h-1zm12 6l1-1h-1a51 51 0 01-2 1l-1 1-1 1 1-1 3-1zm6 7l2-1v-1l-1 1-4 2-1 1h1l1-1 2-1zm8 7a10 10 0 002-1c1-1 2-1 1-2l-1 1-2 2-1 1c-1 1 0 0 0 0a3 3 0 011-1z"/>
  <path fill="#d4af3a" d="M295 144l3 1 4-2-4-1z"/>
  <circle cx="309" cy="142" fill="#b96b29" r="3"/>
  <circle cx="309" cy="141" r="2" fill="#d4af3a"/>
  <path fill="#d4af3a" d="M302 131l2 1v-3l-2-1-1-1v2l1 2z"/>
  <circle cx="304" cy="133" r="1" fill="#d4af3a"/>
  <path fill="#d4af3a" d="M300 132l-1 1 1 1h2l1-1-2-1h-1zm2 4l-5-2c0 2-1 3-3 3l4 1a7 7 0 002 0l3-1c2-1 1-3 1-3s0 2-2 2zm-8-2l-2-1-2 1 2 1h2v-1zm-6-3l-2-1v2l2 2 2-2a5 5 0 00-2-1z"/>
  <circle cx="289" cy="135" fill="#d4af3a" r="1"/>
  <path fill="#d4af3a" d="M291 127a11 11 0 012-9c2-4 7-5 7-5l1-2 4-3-5 1a2 2 0 01-2 3l-1-1-6 3 1 1a2 2 0 01-3 3l-1-1a10 10 0 000 1 23 23 0 00-2 4l1 2c0 1 0 2-2 2a8 8 0 000 1l2 2 3 3 1-5z"/>
  <path fill="#d4af3a" d="M299 110v-1h-2v1h2zm-9 6v-2h-1l-1 2h2z"/>
  <circle cx="285" cy="123" r="1" fill="#d4af3a"/>
  <path fill="#d4af3a" d="M313 105l-3 2 2 1c0 2-1 3-3 3a2 2 0 01-2-2v-1l-1 1a18 18 0 00-8 8c-2 4-2 8-2 10 1 3 5 3 5 3h-1l1-2v-2h1l1 2 2 2v-3l-1-4 3-8 7-5a2 2 0 001-2v-2l-2-1z"/>
  <path fill="#d4af3a" d="M309 110l2-2-2-1-1 1 1 2zm6 24h3v-2a2 2 0 00-2 0l-2 1 1 1z"/>
  <path fill="#d4af3a" d="M319 135l-2 1-3-1a8 8 0 01-1-2h-2l-1 3h-3l-2-2 1 2 3 1h8l2-1v-2 1z"/>
  <path fill="#d4af3a" d="M306 134l3-1-1-1-2-1 1 3z"/>
  <circle cx="301" cy="122" fill="#b96b29" r="3"/>
  <path fill="#b96b29" d="M305 113h-3v4l4-1-1-3z"/>
  <circle cx="301" cy="122" fill="#d4af3a" r="2"/>
  <path fill="#d4af3a" d="M304 113a2 2 0 00-2 1l1 1c2 1 3-2 1-2zm-41 206l-5 2-1 1-5 3a18 18 0 01-8 3h-15c-4 0-7 1-9 3-1 2-2 4 0 6 3 3 5 2 6 0v-3l2-1a24 24 0 0110 2c2 1 1 1 0 1l-3-2-4-1-1 1 1 2v3l1-2v-2l2 1a7 7 0 012 3l-1 3 1 2v2l1-1 1-3c0-1 1-2 2-1l1 2v1l3-3a17 17 0 013-4l6-5 7-3 1-3 2-5v-2zm-65-74l-1-2h-1l-2 1-1-1-1-3-1-1-2 1v2l1 3v1l-3 1v1l1 2 2-1h2l1 5h3v-1l-2-5v-1l3-1 1-1zm22 97l-1-2a8 8 0 01-1-3v-3h-2l-2 4c0 2 1 4 4 5l2-1zm3-1h-1v2l2 2v-1-1-1l-1-1z"/>
  <path fill="#d4af3a" d="M226 350l2-1a15 15 0 014-1c1 0 3-2 2-3 0-2-1-2-2-3l-2 1-2 1-2 1v1h-3l-1-1h-5v4l4 1 3 1 2-1zm12 1v-3h-4l-2 1-3 1-3 3h-2-1l1 1 3 1h2l2-2 3-1 4-1zm0-4h1c1-1 2-2 1-3l-1-1-1 3v1zm-4-7l-1-3-1 2-1 2h2l1-1zm-7 2l2-1 1-3-2-1h-1l-1 2-1 2c0 1 0 2 2 1zm2-6a2 2 0 000-2l-1-1v3h1zm-17-36l1-6a39 39 0 00-6-15c-3-4-5-10-6-13a37 37 0 01-2-10l1-4v-1l-2 1a8 8 0 00-1 3l-1 1-3-1-3 1 2 2 3 1 3 8 2 12a49 49 0 004 14c1 2 5 9 8 7zm4 11c-2 1-2 6-1 9l4 8h3l2-1v-4c0-2-1-5-4-9-2-3-3-4-4-3zm1-5c0-2-1-3-3-3l-2 1c-2 1-1 5 2 5h2l1-3zm27 53a7 7 0 01-2-1 10 10 0 01-4-3l-1-1-4 1 2 2v7l1-1 3-3h5v-1z"/>
  <path fill="#d4af3a" d="M239 362h-1v2c-1 0 0 0 0 0l1 1v1l1-1v-2l-1-1z"/>
  <path fill="#1d5e91" d="M435 324l-2-1-1 1-2 2s-2 0-2 2c-1 2 0 2 1 2l5-2 2-3-1-1zm4-12a15 15 0 00-8-10l-2 7 1 2 7 2s2 1 1-1zm-21-3l1-2 2-8s-4 0-8 2c-4 1-6 5-6 5l4 1 7 2zm-11 9h-2l3 6c2 2 3 3 7 3 3 0 6-2 6-4l1-2-8-2-7-1z"/>
  <path fill="#d4af3a" d="M406 316l16 3h2l2-1 1-2v-2h2l2 5c0 2 3 2 4 3l2-2 2-4c0-2 0-2-2-2l-9-2-1-2 3-9a19 19 0 00-8-2l-2 10-2 1-12-3v2a16 16 0 00-2 5l2 2z"/>
  <path fill="#d4af3a" d="M440 323c-1-1-2-1-3 1 0 1 0 4-2 5-2 2-4 4-7 4-2-1-3-1-3-4 1-3 4-3 5-5v-4l-4-1a8 8 0 00-3 4l-3 5a12 12 0 01-9 2c-3-1-4-2-5-5l-3-9h-3c-2 1-2 2-2 3s0 3 2 4l3 5c0 2 2 5 0 5s-3 0-5-2l-10-7a29 29 0 00-3-2l-9-3 3 6v2l9 5a168 168 0 0110 6c3 1 5 4 9 3l17-5 14-5 4-4c0-2 0-3-2-4zm-17-31h2c2 0 1 1 1 2l-1 3v1l3 1 1-1v-4l1-1 2 1h1l1-2-1-1h-3v-1l1-2v-1l-3-1h-1v3l-1 1-2-1h-1l-1 3h1zm5 22v2 2l2 1v-2a6 6 0 00-2-2v-1zm10 7l1 1 1-1v-2h-1l-1 2zm-36-7l1 1v-3l1-2-1 1-2 2 1 1z"/>
  <circle cx="409" cy="311" r="2" fill="#b96b29"/>
  <circle cx="416" cy="313" r="2" fill="#b96b29"/>
  <circle cx="435" cy="317" r="2" fill="#b96b29"/>
  <circle cx="422" cy="314" r="2" fill="#b96b29"/>
  <circle cx="424" cy="309" r="2" fill="#b96b29"/>
  <circle cx="426" cy="303" r="2" fill="#b96b29"/>
  <circle cx="409" cy="311" r="1" fill="#d4af3a"/>
  <circle cx="416" cy="313" r="1" fill="#d4af3a"/>
  <circle cx="435" cy="317" r="1" fill="#d4af3a"/>
  <circle cx="422" cy="314" r="1" fill="#d4af3a"/>
  <circle cx="424" cy="308" r="1" fill="#d4af3a"/>
  <circle cx="426" cy="303" r="1" fill="#d4af3a"/>
  <path fill="#d4af3a" d="M350 359l-6-3a12 12 0 01-4-4h1l1-2v-4l1-3 3 2h2l1-2 2 4 6 6 6 4 1 1-6 3c-5 1-7-1-8-2z"/>
  <path fill="#d4af3a" d="M333 357c2 0 3 0 3-2v-6l1 1 2 1 1 2a9 9 0 003 3l5 3a28 28 0 004 3 7 7 0 014 5c0 2 0 3-2 3l-5-1c-3 0-7-4-10-6-4-2-6-6-6-6z"/>
  <path fill="#d4af3a" d="M325 360l2-3 1-6 1 4a5 5 0 003 2l2 3a21 21 0 005 5l7 5 1 5c-1 1-2 0-3-1l-12-4c-5-3-7-10-7-10z"/>
  <path fill="#d4af3a" d="M323 373c-2-3-2-8-2-8l1-1 2-3 2 4 4 4 6 6v7c-1 2-2 1-3 0l-4-3-6-6z"/>
  <path fill="#b96b29" d="M341 325l-2-4a15 15 0 01-2-3l3 3 2 4c0 2 0 2-1 0zm-8 2v-2l-1-1 2 2 1 5-2-4zm-6 5l-1-1v-2c0-1 0-1 0 0l1 2 1 3-1-2zm19 19h1l1 1 2 2a8 8 0 003 2l2 1h-2l-2-1-2-2-3-3zm-7 8l-1-1h2l3 3 2 1 3 2h-2l-2-1-2-1-3-3zm-7 6v-1l4 3 3 2 1 1h-1l-1-1h-1l-3-2-2-2zm-4 7l4 4 1 2-1-1-1-1-3-3a8 8 0 01-3-3v-1l3 3z"/>
  <path fill="#c52126" d="M365 170a22 22 0 018-3l10 1 5 1c3-1 5-3 6-6 0 0 2 3 0 6a7 7 0 01-5 3c-5 1-10-2-14-2s-7 2-7 2h-3v-2z"/>
  <path fill="#d4af3a" d="M380 318l1-1h4l4 3h-6c-2 0-3-2-3-2z"/>
  <path fill="#d4af3a" d="M363 316v-2l2 2 3 3c1 2 3 3 2 1l-3-5-2-2h4l5-2 3-2 6 2c2 1 3 1 1 2l-3 1a12 12 0 01-5 1c-1 0-4 0-3 1a22 22 0 014 13v3l-7-5a71 71 0 00-7-5l-1-1 1-5z"/>
  <path fill="#d4af3a" d="M344 302a69 69 0 001 0l5 4c1 2 3 2 1 0a18 18 0 00-3-4 23 23 0 00-1-1 53 53 0 007-4l2 2 3 2-2-3-1-3a32 32 0 005-4c0 1 1 4 4 7 4 4 11 6 11 6s3 1 1 1c-2 1-4 2-8 1l-5-1c-1 0-2 0 0 1l9 1c1 0 4-1 1 1l-5 2h-9c0 1 2 2 2 5l-1 6-1 3c-1 1-1 2-1 0l-2-6-1-3h-1a133 133 0 012 6c0 1 1 4-1 2l-7-9-2-3-3-3a29 29 0 00-4-4l4-2zm70-129c0 3-4 9-6 12l-2 5 2-3 5-7 5-9 1-1c1 1 3 8 1 12l-6 9-3 4 2-2a47 47 0 0010-12h1l1 5a17 17 0 01-6 10l-4 5 4-3 7-7c1-1 2 0 2 4s-5 9-7 11l-4 4 3-1 7-5c1-1 2 1 0 5-1 4-4 7-6 8l-5 4 3-1 6-2h2s0 4-2 7a13 13 0 01-8 4l-3 1h1l5 1 3 1c0 1 0 3-3 5l-9 3-1 1h4l4 2c0 1 0 3-2 4-2 2-5 2-9 2h-5l3 2 5 1c1 1 0 3-2 4-2 2-7 2-9 1h-5l3 2 4 2c0 1 0 2-3 3a12 12 0 01-8 0l-3-1v1l4 3c2 0 3 0 3 2 1 1-1 3-4 3l-11-2-2-1v1l5 3 1 2c0 1 1 2-3 3-3 1-7 1-11-2a8 8 0 01-2-2 28 28 0 000-8l3-1 4-4h4a8 8 0 006-3l1-5h3s3 0 5-2c2-1 2-3 2-4l2-2 3-1c2-2 2-4 2-5l4-2c3-2 3-5 3-6l-2-3 2-1c1 0 4-2 4-6 0-3-3-4-3-4h2c1-1 4-3 4-5l-2-4-3-1 2-3c1-1 1-3-1-5-1-2-3-2-4-2l-3 1v-2-3c0-1 0-3-3-4s-6 1-7 2v-2l4-6 6-11a66 66 0 004-13c0-2 1-1 1-1l2 4a25 25 0 012 11z"/>
  <path fill="#d4af3a" d="M363 241l6-3c2-3 4-3 9-3 4 0 6-2 8-5 1-3-1-7-5-9-5-2-7-5-7-9s5-9 9-14c5-5 9-13 9-13l1 4v4c1 1 1-1 4-2s5-2 7 0c1 2 0 6-2 7-2 2-3 3-2 4l3-2 5-2c3 0 4 1 4 3 0 3-2 5-4 6-2 0-2 1-2 2l2-1a8 8 0 014 0c1 1 4 3 2 5s-7 3-8 3l-1 1 4 1c2 0 3 2 3 4-1 2-4 3-7 4h-3l2 2c1 0 3 0 4 2 0 2 0 3-2 4-1 2-4 2-5 2l-3-1c-1 1 1 2 2 3 2 1 2 3-1 4-2 2-5 1-6 1s-2-2-3-1 2 1 3 3c2 1 1 4-1 5-3 2-7 1-7 0h-2v3c1 1 2 4-2 6s-7-2-7-2l-2-1v1c1 1 2 4-1 5a6 6 0 01-5 1l-2-7h1v1h1v1h1l-1-1-1-1-1-1a2 2 0 010-1 98 98 0 01-1-7 57 57 0 01-1-6h1zm74-53l-9 12 1-3v-3l4-6 4-10-5 9-4 6-1-3-1 1h-1l2-2 1-3c2-2 5-6 6-11a169 169 0 006-18c1-3 1-1 2 1l1 11a54 54 0 01-6 19zm-5 21a136 136 0 01-3 2v-4l3-3a42 42 0 006-6c3-4 0-1-2 1l-7 7v-1a3 3 0 00-1-2l3-3a74 74 0 0017-24s2 9-4 19c-5 9-10 13-12 14zm-28 56c-3-1-3-4-3-4l4 1a36 36 0 007 2l2-1h-4a29 29 0 01-7-3c-1-1 0-1 1-1a5 5 0 002-1l4 1a51 51 0 0022 1l-1 4c-2 3-9 5-14 5s-10-3-13-4zm13-7c-5 0-7-2-7-2v-1l1-3 3 1h8c3 0 2-1-1-1a29 29 0 01-7-1c-2 0-1-1 0-1l3-2h12l11-2h1l-2 4c-2 3-6 5-9 6a50 50 0 01-13 2zm1-12l1-2-1-2h5l7-2 4-1h-2a94 94 0 01-15 2h-2l3-1a8 8 0 003-1l4-1 11-4 11-5c2-1 2 0 1 1l-3 6c-3 3-4 5-11 7-8 3-16 3-16 3zm22-18a41 41 0 01-16 6v-2c0-2-1-2-2-2h-1l3-1 9-2 5-3-5 2-9 3c-3 0-1-1 0-1l3-3 6-2a49 49 0 0010-4l3-2 5-4c1-1 1 0 1 1l-3 6-9 8zm1-13c-7 5-12 7-13 7h-1l1-3 4-2 8-5v-1l-6 4-6 4-1-2h-2l1-1 5-3 10-7 9-9h1l-1 4c0 3-3 9-9 14zm-22-47l-2 4-2 2v-1-4-2-2l2-7 1-10c0-3-1-1-1 0v8l-3 9v-2l-2-4-1-2 3-15 2-18c3 3 6 11 6 20l-1 14c-1 4-1 8-3 10zm7 17c0-3-1-4-3-5l3-6a45 45 0 002-8c1-5 2-11 0-1l-4 13-2 4v-5l-1-7 5-13a81 81 0 003-23s3 3 4 14a68 68 0 01-7 37zm-34 88l2-1c2-1 1-4 1-4a49 49 0 006 4l3 1v-1l-3-1-6-4h2l4-1 8 4a50 50 0 0012 3s-1 4-4 5h-13a44 44 0 01-11-5zm-8 7l1-5 1 1 5 4c3 2 4 1 1 0a39 39 0 01-6-5l1-1 10 5 12 5s-4 3-12 3c-9 0-12-4-13-7zm-16-3l2 2 5 1v2l4 4 4 1-3-2-4-3c-1-2 1-1 1-1h5l3 3 4 5v2l-4 1-8-1a23 23 0 01-5-5c-5-5-4-9-4-9zm-2 10l1 2-1-3-1-1 1-5 4 8c2 3 4 5 2 5h-6c-2-1-3-3-3-5a25 25 0 001-2l2 1z"/>
  <circle cx="-366" cy="159" fill="#d4af3a" transform="scale(-1 1)" r="2"/>
  <path fill="#d4af3a" d="M370 156l-5-1a26 26 0 00-8 3 15 15 0 01-10 1l-3-1c-4-3-3-7-3-7a17 17 0 0011 3l-1 1-2 1c1 1 2-1 4-2l6-3h10l2 4-1 1zm-47 34c1 0 3 0 4-2a69 69 0 007-7l-1-2-2-2 4-2 6-6v-1l-1-1 3-2a71 71 0 004-4h9l7-2v2h4c2-1 2-3 2-3l4-2c3-1 5-2 8-1 2 2 3 5 3 8 0 2-1 1-1 1 0-1-1-3-4-3s-6 1-9 4l-6 5c-2 1 0 2 3 3s6-1 6-1c1 1-1 3-4 4h-10a15 15 0 00-4 9 4 4 0 01-3-3c0-1 0-2-1-1l-2 8 1 6h-1l-2-2-1 2-2 8-4 5-1-2a33 33 0 01-1-8v-9s-3 4-7 5-7 1-8-1c-2-2 0-3 0-3z"/>
  <path fill="#d4af3a" d="M347 201l2 3 1 1-3 2a36 36 0 01-3 1l2-5 1-2zm-21-1a72 72 0 010-2 15 15 0 008-2l-3 4-2 2s2 0 4-2l3-5 1 9 1 4s-5 1-10 0l-6-2 1-1a28 28 0 003-5z"/>
  <path fill="#b96b29" d="M335 187l2-2v1a16 16 0 01-5 4l-3 1v-1l6-3zm6 12l1-8v-1h1l-1 11-1 1v-3zm10-31h1l-4 5v3l3-2 3-2c1 0 2 0 1 1a25 25 0 01-4 4l-4 3a37 37 0 01-2 1l3-9a26 26 0 013-4zm32 99l3 1h-1a8 8 0 01-3-1l-1-2 2 2zm-10 5l2 2 1 1h0l-3-2-1-1h1zm42-74l-1 1v-1l1-1 1-2v1l-1 2zm3 7l-1 1-2 1 2-1a8 8 0 011-2 10 10 0 011-1l-1 2zm-1 11l-2 1v-1a24 24 0 005-3l-1 2-2 1zm-3 9h1l2-1h1l-2 1h-1-1zm-1 10h3l-1 1h-3l-1-1h2zm-11 11h8l-3 1-4-1h-1zm-4 7a6 6 0 002 1h2-5l-1-1h2zm-9 6l2 2 1 1h0a16 16 0 01-2-2l-2-1h1zm15-75l-2 3c-2 2-1 0 0-1l3-4h1l-2 2zm3 10l1-1 3-4v-1l-1 3-2 3h-1zm-4 19l2-1h3l-3 1h-2zm4-10a15 15 0 01-3 1l-1 1 1-1 2-1 1-1v1zm-10-7l1-1h1l-1 1-2 2 1-2zm7 26h1v1l-3-1c-1 0-2 0-1-1h1l2 1zm-2 9h-2l-2-1-1-1h2l2 2h1zm-12 6l-1-1h1a51 51 0 002 1l1 1 1 1-1-1-3-1zm-6 7l-2-1v-1l1 1 4 2 1 1h-1l-1-1-2-1zm-8 7a9 9 0 01-2-1c-1-1-2-1-1-2l1 1 2 2 1 1c1 0 0 0 0 0a3 3 0 00-1-1z"/>
  <path fill="#d4af3a" d="M338 143l4-1 3 2-3 1z"/>
  <circle cx="-331" cy="142" fill="#b96b29" transform="scale(-1 1)" r="3"/>
  <circle cx="-331" cy="141" r="2" fill="#d4af3a" transform="scale(-1 1)"/>
  <path fill="#d4af3a" d="M338 131l-2 1v-3l2-1 1-1v2l-1 2z"/>
  <circle cx="-336" cy="133" r="1" fill="#d4af3a" transform="scale(-1 1)"/>
  <path fill="#d4af3a" d="M340 132l1 1-1 1h-2a1 1 0 01-1-1l2-1h1zm-2 4l5-2c0 2 1 3 3 3l-4 1a7 7 0 01-2 0 11 11 0 01-3-1c-2-1-1-3-1-3s0 2 2 2zm8-2l2-1 2 1-2 1h-2v-1zm6-3l2-1v2l-2 2-2-2 2-1z"/>
  <circle cx="-351" cy="135" fill="#d4af3a" transform="scale(-1 1)" r="1"/>
  <path fill="#d4af3a" d="M349 127c1-2 1-5-2-9a16 16 0 00-7-5l-1-2-4-3 5 1a2 2 0 002 2h1l6 3a2 2 0 00-1 1 2 2 0 003 3l1-1v1a23 23 0 012 3l-1 3 2 2v1l-2 2-3 3v-5z"/>
  <path fill="#d4af3a" d="M341 110v-1h2v1h-2zm9 6v-2h1l1 2h-2z"/>
  <circle cx="-355" cy="123" r="1" fill="#d4af3a" transform="scale(-1 1)"/>
  <path fill="#d4af3a" d="M327 105l3 2-2 1c0 2 1 3 3 3s2-1 2-2v-1l1 1c5 3 6 4 8 8s2 8 2 10c-1 3-5 3-5 3h1l-1-2 1-2h-2l-1 2-2 2v-3l1-4-3-8a22 22 0 00-7-5 2 2 0 01-1-2v-2l2-1z"/>
  <path fill="#d4af3a" d="M331 110l-2-2 2-1 1 1-1 2zm-6 24h-3v-2a2 2 0 012 0l2 1-1 1z"/>
  <path fill="#d4af3a" d="M321 135l2 1 3-1a8 8 0 001-2h2l1 3h3l2-2-1 2-3 1h-8l-2-1v-2 1z"/>
  <path fill="#d4af3a" d="M334 134l-3-1 1-1 2-1v3z"/>
  <circle cx="-339" cy="122" fill="#b96b29" transform="scale(-1 1)" r="3"/>
  <path fill="#b96b29" d="M335 113h3v4l-4-1c-1-1 0-3 1-3z"/>
  <circle cx="-339" cy="122" fill="#d4af3a" transform="scale(-1 1)" r="2"/>
  <path fill="#d4af3a" d="M336 113l2 1-1 1c-2 1-3-2-1-2z"/>
</svg>
