<svg xmlns="http://www.w3.org/2000/svg" xmlns:xlink="http://www.w3.org/1999/xlink" id="flag-icons-mo" viewBox="0 0 640 480">
  <path fill="#00785e" d="M0 0h640v480H0z"/>
  <path fill="#fbd116" d="M295 109l41 29-16-47-15 47 40-29z"/>
  <g id="a">
    <path fill="#fff" d="M320 332H218a146 146 0 01-4-4h106a2 2 0 011 2l-1 2zm0-32a13 13 0 001-7 12 12 0 00-1-4 82 82 0 01-32 19 81 81 0 01-24 3h-63a144 144 0 006 8h61c20 0 38-7 52-19zm-110-24a32 32 0 01-9 2 81 81 0 0061 27 81 81 0 0058-25 441 441 0 005-59 441 441 0 00-5-67c-7 6-19 18-25 38a81 81 0 00-3 23 81 81 0 0014 45 81 81 0 01-17-49c0-13 2-25 7-35a33 33 0 01-7-13 81 81 0 00-10 40c0 18 5 35 15 48a95 95 0 00-73-29 33 33 0 017 8 95 95 0 0168 30 95 95 0 00-61-22 95 95 0 00-36 7 81 81 0 0082 52l-14 1a81 81 0 01-57-22zm110 88h-53a144 144 0 0053 10 11 11 0 001-4 11 11 0 00-1-6zm0-24h-94a144 144 0 008 6h86a5 5 0 001-3 4 4 0 00-1-3zm0 12h-77a144 144 0 0015 8h62a8 8 0 001-4 8 8 0 00-1-4z"/>
    <path fill="#fbd116" d="M201 175l25 23-7-34-14 32 30-17zm36-32h35l-28-21 11 34 11-33z"/>
  </g>
  <use xlink:href="#a" width="100%" height="100%" transform="matrix(-1 0 0 1 640 0)"/>
</svg>
