<svg xmlns="http://www.w3.org/2000/svg" id="flag-icons-mp" viewBox="0 0 640 480">
  <defs>
    <clipPath id="a">
      <path d="M0 0h640v480H0z"/>
    </clipPath>
  </defs>
  <g clip-path="url(#a)">
    <path fill="#0071bc" fill-rule="evenodd" d="M-160 0h960v480h-960z"/>
    <path fill="#fff" fill-rule="evenodd" stroke="#000" stroke-width="2" d="M370 366s15-16 30-13c4-17 21-19 21-19s-2-18 19-22c1-13 14-24 14-24s-3-20 11-24c-9-16 2-27 2-27 0-1-14-25-1-32-13-11-9-24-9-24s-14-3-9-20c-12-2-14-21-14-21s-18 3-20-12c-12 2-14-10-14-10s-23 6-28-11c-9 4-13-4-13-4s-13 6-21-6c-15 10-24-1-24-1s-20 14-27 3c-12 13-23 7-23 7s-9 16-24 12c-3 15-20 16-20 16s2 13-18 16c-3 16-13 18-13 18s1 16-9 20c4 9-5 19-5 19s9 12-4 25c13 3 4 25 4 25s17 7 6 21c12 4 9 14 9 20 7 3 14 1 11 17 24 3 13 16 13 16s11 0 6 9c21 0 24 15 24 15s18-5 21 3-8 56-8 56-16 0-28-13c-28 0-22-19-22-19-1 0-9 4-14-11-19 3-18-12-18-12 0-1-8-4-5-12-20 2-18-17-18-17-4-2-6-6-5-9-3-1-20-2-11-24-16-10-6-21-6-21s-22-12-5-25c-13-19 1-29 1-29s-18-18 0-31c-3-27 14-34 14-34s-9-22 14-31c2-23 18-24 18-24s1-18 26-16c5-16 23-13 23-13s5-19 29-10c12-24 30-12 30-12s12-7 17-5c8-12 23 0 33 2 4-1 17-11 27 1 13-8 24 7 24 7s18-9 27 12c38-3 33 22 33 22s30-7 23 23c28 2 25 20 25 20s18 13 10 25c15 1 10 16 10 16s12 4 2 23c22 18 4 36 4 36s12 14 1 31c3 27-10 34-10 34s3 18-12 23c0 20-20 23-20 23s6 9-14 18c0 14-20 15-20 15s-2 25-28 18c-6 20-36 14-36 14l-6-43z"/>
    <path fill="#217900" fill-rule="evenodd" stroke="#000" stroke-linejoin="round" stroke-width="2" d="M185 124s6 6 5 14-6 20-5 29v9c1 0-5-8-5-17s6-17 6-23l-1-12zm-3 3s-9 8-10 15l-1 31-1 16c-1 4 6-6 6-14l1-28c1-4 0-7 2-11l3-9z"/>
    <g fill="#ffd200" fill-rule="evenodd" stroke="#ef8a10">
      <path stroke-width="2" d="M366 101s11-5 14-15-9-9-11-6 1 10 0 12c0 2-5 7-3 8z"/>
      <path stroke-width="3" d="M270 104s7-10 5-19c-2-10-13-4-13-1s6 9 7 11c0 2-2 8 1 9zm-19 6s7-10 5-20c-2-9-13-3-13 0s6 8 7 11c0 2-2 8 1 9zm-21 6s7-9 5-19-13-4-13 0c0 3 6 8 7 10 0 2-2 8 1 9zm-15 15s7-10 5-19c-2-10-13-4-13-1 0 4 6 9 7 11 0 2-2 8 1 9zm-16 14s7-9 5-19-13-4-13 0 7 8 7 10-1 9 1 9z"/>
      <path stroke-width="2" d="M235 62s-9 7-10 17 11 7 12 4c1-4-4-10-3-12 0-2 3-8 1-9zm31-10s-9 8-10 17c-1 10 11 7 12 4s-3-10-3-12 3-8 1-9zm-116 85s2 11 10 17c8 5 11-7 9-9s-10-1-12-3c-2-1-5-6-7-5zm-16 40s0 12 7 18c8 7 13-4 11-7s-10-3-12-5c-1-1-4-7-6-6zm36 44s-4-11-13-15c-9-3-10 9-7 11 2 2 10-1 12 0s6 6 8 4zm-7-19s7-10 5-19c-1-10-12-4-13-1 0 4 6 9 7 11 0 2-2 8 1 9zm225-92s11-5 14-14-9-10-11-7 2 11 1 13-5 6-4 8zm33 16s6-10 4-19c-3-10-13-3-13 0 0 4 7 8 7 10 1 2 0 9 2 9zm90 93s-5-11-14-14c-9-4-10 8-7 10s11-1 12 0c2 1 7 6 9 4zm-44 7s0-12 7-18c8-7 13 5 11 7-2 3-10 3-12 5-1 1-4 7-6 6zm-7-126s-11-5-20 0c-9 4 0 13 3 12s6-8 8-9 9-1 9-3zm-26-22s-11-4-20 0c-9 5 0 14 3 13s7-9 8-9c3-1 9-1 9-4zm-38-20s-9 7-10 17 11 7 12 4-4-10-4-12c1-2 4-8 2-9zm-25-6s-4 11 0 20 13 0 12-3c0-3-8-7-9-8 0-2 0-9-3-9zm-70 43s7-9 6-19-12-5-12-1c-1 3 5 9 5 11s-2 8 1 9z"/>
    </g>
    <path fill="#8c8a8c" fill-rule="evenodd" stroke="#000" stroke-width="2" d="M343 114s18 2 19 12-4 17-4 17 2 23-16 30c-19 2-50 1-50 1s-9 2-12-17a305 305 0 01-5-31s2-11 15-11l53-1z"/>
    <path fill="none" stroke="#000" stroke-linecap="round" stroke-width="2" d="M358 143s-10 13-9 18"/>
    <path fill="#8c8a8c" fill-rule="evenodd" stroke="#000" stroke-width="2" d="M344 172c3 2 5 5 6 12l1 16 13 116 11 85 1 13s-3 9-11 10c-5 12-35 15-38 15s-13-4-18-4c-6 1-16 5-21 4-4-1-15-4-16-11-13-4-15-14-15-14l14-98 13-123s1-16 8-19c7-1 42 1 52-2z"/>
    <path fill="none" stroke="#000" stroke-width="2" d="M274 341l-2 86m86-74l8 71"/>
    <path fill="none" stroke="#000" d="M137 296l-1 1m359-4v1"/>
    <path fill="none" stroke="#6b18b5" stroke-linejoin="round" stroke-width="2" d="M127 180s6 8 7 12c1 5 3 14 5 17 3 4 17 24 17 33 1 5-5 15-14 15-6-1-20-4-21-16 0-13 5-13 5-20l1-41z"/>
    <path fill="none" stroke="#6b18b5" stroke-linejoin="round" d="M225 73s-6 0-11 3c-3 2-9 5-14 11-10 8-26 12-31 19-3 4-3 15 5 20 4 3 19 7 25-3 7-10 3-13 7-19a117 117 0 0119-31zm142-15s-4-4-9-5l-18-2c-13-2-27-11-35-10-6 1-13 9-12 18 2 5 8 16 20 14s12-5 19-7c17-10 35-8 35-8zm141 137c1-2-1-6-2-11-1-4-3-10-8-16-5-12-4-29-9-35-4-4-15-7-21 0-4 4-12 16-4 25 9 9 12 6 18 11 13 9 20 25 26 26zm-4 107c1-2 5-7 4-11l2-18c1-13 10-24 7-36-1-5-9-12-18-10-5 1-17 8-14 20s7 11 9 18c8 15 3 32 10 37z"/>
    <path fill="none" stroke="#000" stroke-width="2" d="M406 387s-3 4 6 8m12-18s10-3 16 0m14-26s-2 5 6 11m-1-22s6 4 16 4m-75 9s0 11-6 16m26-34s9 2 17-2m45-15s2 3 13 3m-55-10s13 4 20 1m5-48l4 13m5-51s0 7-6 11m43-40s-9 7-7 10m-35-15s5 8-2 13m-19-44s8 0 11 6m-25-27h6m24-26s1 1-2 4m-51-4s4 7 3 14m20-35l7-3m-33-22s-2 8 2 11m-12 25c0 8 7 6 2 14m-18-21a57 57 0 00-10 9m-17-13s5 4 4 10m-16-14s-2 7-5 9m-18-10l-6 9m-26-9s4 7-1 12m-6-48s0 5-3 10m-29 1c0 1 2 6-7 8m-10 46l9 1m-31 19l11-4m-28 17h9m-14 6s2 1 1 13m-35-43l5 6m-19 26c0-1 4 6 10 7m23 25a49 49 0 008-2m-11 26s0-4 5-7m-12 18s5 6 9 7m-12 5c1-1 6-5 12-5m-14 21s0 5 16 4m-14 15s5-11 14-15m-1 28s1-4 9-7m0 25l7-5m0 19s3 4 12-3m-54 6c1 0 14-3 18 4m-13 7s13-2 15-1m33 3s-2 4 14-2m6 9c-3 5 1 9-3 11m-47-4c1 0 6-2 5-10m0 22c1 0 10-4 12-2m6 14s1-9 4-9m10 21s8 0 11-3m4-25s7 4 22 0m-17 33l2 13"/>
    <g fill="#de2010" fill-rule="evenodd" stroke="#000" stroke-width="2">
      <path d="M233 119l-2-5h-4l-2 5c0 2 0 4 2 5h4l2-5z" transform="matrix(1.60885 -.2011 .2072 1.65762 95 75)"/>
      <path d="M233 119l-2-5h-4l-2 5c0 2 0 4 2 5h4l2-5z" transform="matrix(1.60885 -.2011 .2072 1.65762 93 57)"/>
      <path d="M233 119l-2-5h-4l-2 5c0 2 0 4 2 5h4l2-5z" transform="matrix(1.58497 -.3417 .35206 1.633 78 74)"/>
      <path d="M233 119l-2-5h-4l-2 5c0 2 0 4 2 5h4l2-5z" transform="matrix(1.4455 -.73446 .7567 1.4893 56 163)"/>
      <path d="M233 119l-2-5h-4l-2 5c0 2 0 4 2 5h4l2-5z" transform="matrix(1.4455 -.73446 .7567 1.4893 49 147)"/>
      <path d="M233 119l-2-5h-4l-2 5c0 2 0 4 2 5h4l2-5z" transform="matrix(1.3781 -.85423 .88011 1.41987 40 167)"/>
      <path d="M233 119l-2-5h-4l-2 5c0 2 0 4 2 5h4l2-5z" transform="matrix(1.28907 -.98346 1.01327 1.32812 34 193)"/>
      <path d="M233 119l-2-5h-4l-2 5c0 2 0 4 2 5h4l2-5z" transform="matrix(1.1329 -1.15994 1.19508 1.16722 35 239)"/>
      <path d="M233 119l-2-5h-4l-2 5c0 2 0 4 2 5h4l2-5z" transform="matrix(1.02138 -1.25922 1.29739 1.05234 34 263)"/>
      <path d="M233 119l-2-5h-4l-2 5c0 2 0 4 2 5h4l2-5z" transform="matrix(.79817 -1.41132 1.45408 .82236 52 315)"/>
      <path d="M233 119l-2-5h-4l-2 5c0 2 0 4 2 5h4l2-5z" transform="matrix(.66642 -1.4781 1.52289 .6866 57 337)"/>
      <path d="M233 119l-2-5h-4l-2 5c0 2 0 4 2 5h4l2-5z" transform="matrix(.56582 -1.51945 1.5655 .58296 58 352)"/>
      <path d="M233 119l-2-5h-4l-2 5c0 2 0 4 2 5h4l2-5z" transform="matrix(.4482 -1.5582 1.60543 .46178 63 370)"/>
      <path d="M233 119l-2-5h-4l-2 5c0 2 0 4 2 5h4l2-5z" transform="matrix(.20288 -1.60864 1.65738 .20903 95 409)"/>
      <path d="M233 119l-2-5h-4l-2 5c0 2 0 4 2 5h4l2-5z" transform="matrix(.06506 -1.62008 1.66918 .06703 106 427)"/>
      <path d="M233 119l-2-5h-4l-2 5c0 2 0 4 2 5h4l2-5z" transform="matrix(.06506 -1.62008 1.66918 .06703 89 428)"/>
      <path d="M233 119l-2-5h-4l-2 5c0 2 0 4 2 5h4l2-5z" transform="matrix(-.36132 -1.5806 1.62852 -.37226 173 474)"/>
      <path d="M233 119l-2-5h-4l-2 5c0 2 0 4 2 5h4l2-5z" transform="matrix(-.49045 -1.54542 1.59227 -.50531 188 486)"/>
      <path d="M233 119l-2-5h-4l-2 5c0 2 0 4 2 5h4l2-5z" transform="matrix(-.67103 -1.476 1.52073 -.69138 222 499)"/>
      <path d="M233 119l-2-5h-4l-2 5c0 2 0 4 2 5h4l2-5z" transform="matrix(-.7945 -1.41337 1.4562 -.81858 241 508)"/>
      <path d="M233 119l-2-5h-4l-2 5c0 2 0 4 2 5h4l2-5z" transform="matrix(-.94339 -1.31867 1.35863 -.97197 272 515)"/>
      <path d="M233 119l-2-5h-4l-2 5c0 2 0 4 2 5h4l2-5z" transform="matrix(-1.05159 -1.2341 1.27151 -1.08344 292 520)"/>
      <path d="M233 119l-2-5h-4l-2 5c0 2 0 4 2 5h4l2-5z" transform="matrix(-1.13737 -1.15553 1.19056 -1.17183 309 526)"/>
      <path d="M233 119l-2-5h-4l-2 5c0 2 0 4 2 5h4l2-5z" transform="matrix(-1.2301 -1.05628 1.08829 -1.26738 331 530)"/>
      <path d="M233 119l-2-5h-4l-2 5c0 2 0 4 2 5h4l2-5z" transform="matrix(-1.33573 -.91908 .94693 -1.3762 363 526)"/>
      <path d="M233 119l-2-5h-4l-2 5c0 2 0 4 2 5h4l2-5z" transform="matrix(-1.47374 -.67597 .69645 -1.51841 416 504)"/>
      <path d="M233 119l-2-5h-4l-2 5c0 2 0 4 2 5h4l2-5z" transform="matrix(-1.52895 -.53958 .55593 -1.5753 439 498)"/>
      <path d="M233 119l-2-5h-4l-2 5c0 2 0 4 2 5h4l2-5z" transform="matrix(-1.61445 -.12005 .15429 -1.33344 501 406)"/>
      <path d="M233 119l-2-5h-4l-2 5c0 2 0 4 2 5h4l2-5z" transform="matrix(-1.58082 -.36035 .37125 -1.62873 468 481)"/>
    </g>
    <path fill="#ffe300" fill-rule="evenodd" d="M480 195c2-3 4-3 7-2-1-7-3-9-6-8-2 1-3 4-1 10zm3 18c3-2 5-3 7-2 0-6-2-8-4-7-3 0-4 3-3 9zm-7-35c1-3 3-4 6-4-3-5-5-7-7-6-2 2-3 5 1 10zm-9-17c2-3 4-4 6-3-2-6-5-8-7-6-2 1-2 4 1 9zm-19-30c1-3 2-5 5-5-3-5-6-6-8-5s-1 5 3 10zm-13-13c1-3 2-5 5-5-3-5-6-6-8-5-2 2-1 5 3 9zm-27-23c0-3 1-5 4-6-5-4-8-4-9-2s0 5 5 8zm14 11c1-4 2-5 5-6-5-4-7-5-9-3-1 2 0 5 4 9zm-30-20c0-3 1-5 3-6-5-3-8-3-9-1s1 5 6 7zm-16-7c-1-3 0-5 2-7-6-2-9-2-9 1-1 2 1 5 7 6zm-17-5c-1-3-1-5 1-7-6-2-9-2-9 1 0 2 2 5 8 6zm-18-4c-1-3-1-5 1-7-6-1-9 0-9 2 0 3 2 5 8 5zm-18-1v-7c-6-1-9 0-8 3 0 2 2 4 8 4zm-36 2c-2-2-2-4-1-6-6 0-9 2-8 4 1 3 4 4 9 2zm18-2c-2-2-2-4-1-7-6 0-8 1-8 4 0 2 3 4 9 3zm-35 6c-2-2-3-4-2-6-6 1-8 3-7 6 1 2 4 3 9 0zm-33 15c-3-1-4-3-4-5-5 2-7 5-5 7 1 2 4 2 9-2zm16-8c-2-1-3-3-3-6-6 2-8 4-6 6 1 2 4 3 9 0zm-45 29c-3-1-5-2-5-5-5 4-6 6-4 8 1 2 5 1 9-3zm14-12c-3 0-5-2-5-5-5 3-6 6-5 8 2 2 5 2 10-2zm-27 25c-3-1-5-2-5-5-5 4-6 7-4 8 2 2 5 1 9-4zm-11 14c-4 0-5-1-6-4-4 5-5 7-3 9 2 1 5 0 9-5zm-10 15c-3 0-5-1-6-3-4 5-4 8-1 9s5-1 7-6zm-8 16c-3 1-5 0-7-2-2 5-2 8 0 9 3 1 5-1 7-7zm-7 16c-3 1-5 1-7-1-1 6-1 9 2 9 2 1 5-2 5-8zm-4 19c-3 1-5 1-7-1-2 6-1 9 2 9 2 0 5-3 5-9zm-2 15h-7c-1 5 1 7 3 7s4-3 4-7zm307-73c1-2 3-4 5-4-3-5-5-6-7-5-2 2-2 5 2 9zm25 86c3-3 5-3 7-2 0-6-2-8-5-8-2 1-3 4-2 9z"/>
    <path fill="#217900" fill-rule="evenodd" stroke="#000" stroke-linejoin="round" stroke-width="2" d="M461 132s-7 7-5 15c1 8 6 19 5 27l-2 15s8-9 8-18-6-20-6-27v-12zm13 28s-5 4-5 13c1 9 10 26 10 26s7 14 7 18v-12c-1-8-11-26-11-26s-2-3-2-10l1-9z"/>
    <path fill="#6b18b5" fill-rule="evenodd" d="M313 47c0-1-2-3-5-3s-5 2-5 3 3 4 5 4 5-2 5-4zm2 8c0-1-2-3-5-3s-5 2-5 3 2 4 5 4 5-2 5-4zm6-9s-6 4-3 6c2 1 8-4 8-4l-5-2zm163 95l-1-2a3 3 0 00-3 0l-1 2 1 3a3 3 0 003 0l1-3zm-2-8c0-2-1-3-3-3s-3 2-3 4 1 3 3 3 3-2 3-3zm2 17l-2-2-1 2 2 1c1 1 1 0 1-1zm5-15l-2-2-1 2 1 2 2-2zm-14 2l-1-2-1 2 1 1 1-1zm2 11l-2-3-3 3c0 2 1 3 3 3s2-1 2-3zm-6-5l-2-2c-2 0-3 1-3 2l3 2 2-2zm-1-7a2 2 0 00-1-2 2 2 0 00-2 1 2 2 0 00-1 1 2 2 0 001 2 2 2 0 002 0l1-2zm30 35c-3-4-7-6-10-4s-3 6 0 10c3 3 7 5 10 3s3-6 0-9zm8 66c0-4-2-8-5-8-3-1-6 3-7 7 0 4 2 8 5 9 3 0 6-3 7-8zm1 39c1-4-1-8-4-9s-6 2-7 7c-1 4 1 8 4 9 3 0 6-3 7-7zm8-36c0-2-1-3-3-3s-3 1-3 3 2 3 3 3 3-1 3-3zm-7 7l-5 6s-5 0-5 2 7 7 7 9 4-1 4-1l4-11s0-8-2-8l-3 3zm-357-2a3 3 0 10-5 0 3 3 0 005 0zm2-8c0-2-1-3-2-3s-3 1-3 3 1 2 3 2a3 3 0 002-2zm-21-38l-4-3c-2 1-2 4-1 6s3 3 4 2c2 0 2-3 1-5zm7 24c-2-3-5-5-7-4s-2 4-1 7 4 4 6 3 3-4 1-6zm6 17c1-4-1-7-3-7-2-1-4 2-5 5 0 4 1 7 4 7 2 1 4-2 4-5zm-11 2c2-3 1-7-1-8s-5 1-6 4-1 7 1 8 5 0 6-4z"/>
    <path fill="#6b18b5" fill-rule="evenodd" d="M131 235c0-2-1-3-3-3s-2 1-2 3 1 3 3 3 2-1 2-3zm-2-8c0-1-1-2-3-2a3 3 0 00-2 2c0 2 1 3 2 3s3-1 3-3zm2-14c0-3-1-5-2-5s-3 2-3 5 2 5 3 5 2-2 2-5zm8-1c1-3 0-5-2-5l-3 4c0 3 1 5 2 5s3-2 3-4zm55-110c1-4 0-7-2-8s-5 1-6 5c-1 3 0 7 2 8 3 1 5-1 6-5zm-10 16c3-3 4-6 3-8-2-2-5-1-8 1s-5 6-3 8c1 2 5 1 8-1zm-6-9c3-2 4-5 3-7s-5-1-8 1c-3 3-5 6-3 7s5 1 8-1zm23-15c2-2 3-4 2-5s-3-1-5 1-3 3-2 4h5z"/>
    <path fill="#6b18b5" fill-rule="evenodd" d="M189 109c1-3 2-5 0-6l-5 3c-2 2-1 4 0 5s4 0 5-3zm18-10c2-2 3-4 2-5-2-1-4-1-7 1s-2 4-1 5c1 2 3 1 6-1zm-32 22c2 0 3-1 3-2 0-2-2-2-4-2s-4 1-3 2l4 2zm38-33c2-2 2-5 1-5-2-1-4 0-5 2s-2 5 0 5c1 1 3 0 4-2z"/>
    <path fill="#ffd200" fill-rule="evenodd" stroke="#ef8a10" d="M447 153s6-10 4-19c-3-10-13-3-13 0 0 4 7 8 7 10 1 2-1 9 2 9z"/>
    <path fill="#217900" fill-rule="evenodd" stroke="#000" stroke-linejoin="round" stroke-width="2" d="M325 69s23 1 23 16l-1 12c5-3 8-10 7-14 0-15-20-25-29-14z"/>
    <path fill="#217900" fill-rule="evenodd" stroke="#000" stroke-linejoin="round" stroke-width="2" d="M310 69s19-4 19 11-6 17-6 17 14-3 14-18-18-22-27-10z"/>
    <path fill="#f7df73" fill-rule="evenodd" stroke="#000" stroke-linejoin="round" stroke-width="3" d="M373 390s87-25 113-131c-15 109-110 144-110 144l-3-13z"/>
    <path fill="#8c1800" fill-rule="evenodd" d="M382 397c3 0 9-8 13-9 4 0 5-4 0-4-4-1-8 5-8 5s-4 3-8 3c-4 1-1 6 3 5z"/>
    <path fill="#8c1800" fill-rule="evenodd" stroke="#8c1800" stroke-width="3" d="M432 359s-9 6-8 7c2 1 10-5 10-5s3-4-2-2z"/>
    <path fill="#8c1800" fill-rule="evenodd" d="M401 383s-3-1 4-4c7-2 6-5 9-7 2-1 7-4 8-2s-5 6-7 6c-1 0-8 7-10 7h-4z"/>
    <path fill="none" stroke="#8c1800" stroke-linecap="round" stroke-width="3" d="M446 346l-6 7M455 335l-6 7M463 321l-6 10"/>
    <path fill="none" stroke="#8c1800" stroke-linecap="round" stroke-width="2" d="M471 307l-5 10m8-18l-1 4"/>
    <path fill="none" stroke="#8c1800" stroke-linecap="round" d="M478 289l-1 4"/>
    <path fill="#f7df73" fill-rule="evenodd" stroke="#000" stroke-linejoin="round" stroke-width="2" d="M160 216s52-15 68-78c-9 65-66 86-66 86l-2-8z" transform="matrix(-1.65528 0 0 1.70062 525 20)"/>
    <path fill="#8c1800" fill-rule="evenodd" d="M251 394c-3 0-10-7-13-8-4-1-5-5 0-5 4 0 8 5 8 5s4 3 8 4c4 0 1 5-3 4z"/>
    <path fill="#8c1800" fill-rule="evenodd" stroke="#8c1800" stroke-width="2" d="M196 198s-6 3-5 4l6-4s2-2-1 0z" transform="matrix(-1.65528 0 0 1.70062 525 20)"/>
    <path fill="#8c1800" fill-rule="evenodd" d="M232 381s3-1-4-4-6-6-8-7c-3-2-7-5-8-3s5 6 6 6l10 8h4z"/>
    <path fill="none" stroke="#8c1800" stroke-linecap="round" stroke-width="2" d="M204 190l-4 4M209 183l-3 4M214 175l-4 6" transform="matrix(-1.65528 0 0 1.70062 525 20)"/>
    <path fill="none" stroke="#8c1800" stroke-linecap="round" d="M219 166l-4 6m6-10l-1 2M223 156l-1 2" transform="matrix(-1.65528 0 0 1.70062 525 20)"/>
    <path fill="#217900" fill-rule="evenodd" stroke="#000" stroke-linejoin="round" stroke-width="2" d="M490 239c1 7 7 13 5 25-3 13-15 45-13 50-3-5-3-9-3-15 0-7 9-31 10-40l1-20z"/>
    <path fill="#217900" fill-rule="evenodd" stroke="#000" stroke-linejoin="round" stroke-width="2" d="M490 239s11 14 10 25c0 10-6 23-4 28a22 22 0 01-5-14c0-6 6-14 4-21l-4-18zm-349 3c0 7-5 13-3 25 3 13 15 30 13 49 4-5 5-10 5-17 0-6-13-28-14-36l-1-21z"/>
    <path fill="#217900" fill-rule="evenodd" stroke="#000" stroke-linejoin="round" stroke-width="2" d="M141 243s-10 13-10 23c0 7 13 37 11 43 4-5 5-4 5-12-4-18-11-29-10-36l4-18z"/>
    <path fill="#fff" stroke="#000" stroke-dashoffset="1" stroke-linecap="square" stroke-linejoin="round" stroke-width="2" d="M100 126l22 68h72l-58 42 22 68-58-42-58 42 22-68-58-42h72z" transform="matrix(1.16516 0 0 1.16534 202 -24)"/>
  </g>
</svg>
