<svg xmlns="http://www.w3.org/2000/svg" id="flag-icons-ms" viewBox="0 0 640 480">
  <path fill="#012169" d="M0 0h640v480H0z"/>
  <path fill="#fff" d="M385 111h205v146c2 59-35 96-102 112-48-12-103-36-103-110V111z"/>
  <path fill="#00a2bd" stroke="#000" stroke-width="2" d="M389 115h197v141c1 56-34 91-98 107-46-12-99-35-99-106V115z"/>
  <path fill="#a53d08" d="M584 272c-7 54-48 77-96 90-43-12-88-30-97-90h193z"/>
  <path d="M480 142v-18h14v18h38v13h-38v162h-14V155h-38v-14z"/>
  <path fill="#ff9a08" fill-rule="evenodd" stroke="#000" d="M449 279l35 36c12-13 4-63-12-72-2 6-5 13-9 15-7 5-26 11-20 15 2-2 5-3 7 1 2 7-8 7-8 7s-6-1-7-7 9-12 10-12c1-1 15-4 17-16 3-12 6-10 6-11 18 2 29 34 30 56s-9 37-11 38c-1 1-42-48-42-48l4-2z"/>
  <path fill="#ff9a08" stroke="#000" d="M475 245v66m-4-65v60m-5-51l1 47m-4-44v39m-4-37v33m-4-30v26m-3-24v20"/>
  <g fill="none" stroke="#ffdf00" stroke-linecap="round" stroke-width="1">
    <path d="M449 283l36 41M486 257s17 36 2 65m-44-47s2-3 3-1m-5-8s-7 6-3 10"/>
  </g>
  <path fill="#008021" d="M494 175l5-3h5a31 31 0 0112 0c1 0 3 0 5 2s5 5 4 14l-1 17c-1 8-3 15-6 15l8 20c3 5 5 17 3 29-1 13-4 40 6 59-2 1-6 0-9-4s-5-4-8-2c-9 7-17 15-29 7-3-2-4-4-2-10 5-13 8-33 7-42V175z"/>
  <path d="M502 167a10 10 0 010 7 9 9 0 001 8c2-4 6-3 9-5 2-3 2-5 4-5-2-2-4-4-4-8 1-4 7-8 2-14a8 8 0 00-14 1l-1 3a8 8 0 01-2 2v2h1l-1 2 1 1-1 2c0 1-1 2 1 3l4 1zm-22 23h-12c-2 0-4-1-3-3v-7a32 32 0 013-14 33 33 0 004-12l2-5 2-2 2-1-1 2 4-2 2-1h2l-1 1c1 0 2 1 0 2 1 0 2 1 1 2l-3 2-4 3-2 3c0 18-2 16-2 21l1 2a15 15 0 015-1v10zm1 38c5-3 11-4 14-4a62 62 0 0010-5l6-3a7 7 0 004-4 50 50 0 007-21c0-4-1-9-5-6a30 30 0 00-9 13l-3 10-4 1a27 27 0 00-13 7 136 136 0 01-14 9c-4 2-5 2-6 4l-2 3-1 3v5l1 2 1-2c0 2 2 1 2 0 0 2 2 1 2-1h2l1-3 3-4c1-1 0-2 3-4zm37 95l1 3v2a33 33 0 00-3 9l-1 3v2l3-1h2l2-1 1-1c1 0 2 0 2-2v-1l1-2 1-2 1-4-2-4c-1-1-3-3-5-3l-3 2zm-33 9c2 2 5 2 8-1l-4-2a12 12 0 01-4 3z" fill="#ffe1cf"/>
  <path fill="#870f00" d="M501 149c1-4 4-4 6-3l4-1c3-1 6 1 6 4 1 1 2 2 1 4l2 2c1 0 4 1 2 4 2 1 3 3 2 5s-3 2-5 1l-4-1h-4l-2-2c-1 0-1-2 1-3v-2l-1-2v-4c-2 1-5-1-5-2h-3z"/>
  <g fill="none" stroke="none" stroke-width="0">
    <path d="M502 167c3 0 3-2 5-2m-9-4h1m-1-3l1 1m4-10c-1-1 3-4 6 0h3m-4 2c2 0 5 0 6 2 0 2 2 0 3 3 1 2 3 4 5 3m-7 5a4 4 0 01-1-3v-3m-4 1l2 2m7 4v-4"/>
    <path d="M511 153l1 3 4 2m1-9a11 11 0 00-6-3m-8 36c-2 3-4 6-3 12 1 5 3 12-1 16m19 10c-3-1-7-1-9 1h-8"/>
    <path d="M512 220c-2 0-3 2-3 6l-1 17m0-22c-2 1-3 1-3 5m-5 0c0-2 1-5 3-4m14 5c0-6-2-8-3-7 2 0 4 0 5 9 0 7 2 9 3 14 4 14 2 35 4 42m-12-57a71 71 0 01-1 49l11 29m-24-48c1-3-2-3 0-13l1-9"/>
    <path d="M501 242c-1 5 3 13 1 19m-6 1l1 14 3 9c7 13 11 23 11 35 0 3 1 8-2 9m-12 3l2-2a65 65 0 002-23m2 10c0 2 0 8-2 12M507 309v14m-2 0c0 2 1 8-1 9m10-36c4 7 7 23 11 27m-8-3l-1-5m-45-76l1-4m-3 5l1-6m-3 6l1-6m15-89l-4 4m5-3l-5 4m5-2l-4 3m-3-3l-1 1m42 192v-2m2 2v-3m2 2v-2m1 1v-2"/>
  </g>
  <path d="M501 153l1 1 1 1h-3v-1h1v-1h-1zm0-1a6 6 0 013 1v1l-1-1a5 5 0 00-2-1s-1 0 0 0z"/>
  <path fill="#012169" d="M0 0h320v240H0z"/>
  <path fill="#FFF" d="M38 0l122 91L281 0h39v31l-120 90 120 89v30h-40l-120-89-119 89H0v-30l120-89L0 32V0z"/>
  <path fill="#C8102E" d="M212 141l108 79v20l-135-99zm-92 10l3 17-96 72H0zM320 0v2L196 96l1-22 98-74zM0 0l120 88H90L0 21z"/>
  <path fill="#FFF" d="M121 0v240h80V0zM0 80v80h320V80z"/>
  <path fill="#C8102E" d="M0 97v48h320V97zM137 0v240h48V0z"/>
</svg>
