<svg xmlns="http://www.w3.org/2000/svg" id="flag-icons-mt" viewBox="0 0 640 480">
  <g fill-rule="evenodd">
    <path fill="#ce0000" d="M320 0h320v480H320z"/>
    <path fill="#fff" d="M0 0h320v480H0z"/>
  </g>
  <path fill="#f1eeee" fill-rule="evenodd" d="M155 142c0 1-1 2-3 2s-3-1-3-2 1-2 3-2 3 1 3 2z"/>
  <path fill="#c00" fill-rule="evenodd" d="M53 131v59h59c0 10 10 20 20 20v59h60v-59c10 0 20-10 20-20h59v-59h-60c0-10-10-20-19-20V51h-60v60c-10 0-20 10-20 20H53z"/>
  <path fill="#ffe600" fill-rule="evenodd" d="M55 133v55h59c0 10 10 20 20 20v59h56v-59c9 0 19-10 19-20h60v-55h-60c0-10-9-20-19-20V53h-56v60c-10 0-20 10-20 20H55z"/>
  <path fill="#707070" fill-rule="evenodd" d="M57 135v51h59c0 10 10 20 20 20v59h52v-59c9 0 19-10 19-20h60v-51h-60c0-10-10-20-19-20V55h-52v60c-10 0-20 10-20 19H57z"/>
  <path fill="#a0a0a0" fill-rule="evenodd" d="M59 137v47h59c0 10 10 20 20 20v59h48v-59c9 0 19-10 19-20h60v-48h-60c0-9-10-19-19-19V57h-48v60c-10 0-20 10-20 20H59z"/>
  <g fill-rule="evenodd">
    <path fill="#d0d0d0" d="M139 112c3 3 0 12-7 19s-15 9-19 6c-3-3 0-12 7-19s15-10 19-6z"/>
    <path fill="gray" d="M134 116c4 3 3 10-2 15s-11 5-15 2c-3-4-2-10 2-15s12-5 15-2z"/>
    <path fill="#d0d0d0" d="M117 127l1-2 6 3-3-6 1-1 6 11-11-5zm8-9l2-1 8 8-1 2z"/>
  </g>
  <g fill-rule="evenodd">
    <path fill="#d0d0d0" d="M210 137c-3 4-12 1-19-6s-9-16-6-19c4-4 12-1 19 6s10 16 6 19z"/>
    <path fill="gray" d="M206 133c-3 3-10 2-15-2s-5-11-2-15c4-3 10-2 15 2s6 11 2 15z"/>
    <path fill="#d0d0d0" d="M196 115l1 2-3 5 6-3 1 2-11 6 6-12zm8 9l1 1-8 9-1-2z"/>
  </g>
  <g fill-rule="evenodd">
    <path fill="#d0d0d0" d="M185 209c-3-4-1-12 6-19s16-10 19-6c4 3 1 12-6 19s-15 9-19 6z"/>
    <path fill="gray" d="M189 205c-3-4-2-10 2-15s12-6 15-2c4 3 3 10-2 15s-11 5-15 2z"/>
    <path fill="#d0d0d0" d="M207 194l-2 2-5-3 3 5-2 2-5-11 11 5zm-8 9l-2 1-8-8 1-2z"/>
  </g>
  <g fill-rule="evenodd">
    <path fill="#d0d0d0" d="M113 184c4-4 12-1 19 6s10 15 7 19c-4 3-12 1-20-6s-9-16-6-19z"/>
    <path fill="gray" d="M117 188c4-4 10-3 15 2s6 11 2 15c-3 3-10 2-15-2s-5-12-2-15z"/>
    <path fill="#d0d0d0" d="M128 205l-1-1 2-6-5 3-2-1 12-6-6 11zm-9-8l-1-1 9-9 1 2z"/>
  </g>
  <path fill="none" stroke="#707070" d="M269 415c0 41-34 74-76 74s-76-33-76-74 34-75 76-75 76 34 76 75z" transform="matrix(.54658 0 0 .55956 56 -72)"/>
  <path fill="none" stroke="#707070" d="M269 415c0 41-34 74-76 74s-76-33-76-74 34-75 76-75 76 34 76 75z" transform="matrix(.41644 0 0 .42633 81 -16)"/>
  <path fill="#d0d0d0" fill-rule="evenodd" d="M148 194a2 2 0 11-4 0 2 2 0 014 0zm32 0a2 2 0 11-4 0 2 2 0 014 0zm-20 0v2h-2c-3 0-3 2 0 2h2v2c0 2 3 3 3 0v-2h3c2 0 2-2 0-2h-3v-2c0-2-3-2-3 0zM152 165v1l-5 1h-4v10l-2 1 1-5-2-7 12-1zm16-4l10-1 1 5-1 3c-1-1 0-1 1-3 0-2-2-3-2-3h-7c-4 0-2-1-2-1z"/>
  <path fill="#d0d0d0" fill-rule="evenodd" d="M169 164h6l2 5c0 1-1 3-2 2l1-2-1-4-7 1-4-1s0 2-6 2c-7 0-10-2-10-2l-5 2h-4v10h-1v-5l-2-7h4c1-1-2-4-2-8 1-3 4-2 8-2h15c2-1 1-6 3-8a7 7 0 016-3l3 6-1 1c-2 0-2-1-3-2l1 11-1 4z"/>
  <path fill="#d0d0d0" fill-rule="evenodd" d="M156 158c0 2-5 4-5 5-1 1 1 2 1 3h-2l-1-4 4-3-4-4-1-8-6-3c0-2 6-6 7-6v1l-5 5 5 1 2-1-1-2c0-1 0-2 2-2l2 2-2 2 3 1 6 4 1 1-1 1a2 2 0 010-1l-6-3v9l1 2z"/>
  <path fill="#a7a7a7" fill-rule="evenodd" d="M148 145h8v8h-8z"/>
  <path fill="#d0d0d0" fill-rule="evenodd" stroke="#707070" d="M181 43a7 7 0 11-15 0 7 7 0 0115 0z" transform="matrix(.18485 0 0 .16538 117 131)"/>
  <path fill="gray" fill-rule="evenodd" d="M173 149l-7 1-6-1 6 1 7-1z"/>
  <path fill="#a7a7a7" fill-rule="evenodd" d="M149 153h6v2h-6z"/>
  <path fill="gray" fill-rule="evenodd" d="M170 147l-1 2 1-2 1-2-1 2zm1 3l-1 1a5 5 0 011-1l2-1-1 1z"/>
  <path fill="gray" fill-rule="evenodd" d="M171 149l1 2-2-2v-2l1 2zm-1 5h-9 9zm-15-1l-3 1-3-1h6z"/>
  <path fill="#d0d0d0" fill-rule="evenodd" d="M141 174s1 2 6 2c4 0 6 0 4-2s-6-1-5 0c0 2-1 2-2 1 0-1-2-3 1-3h11c2 1-2 4 1 4l7-1 7 1c2 0 2-3 0-3l-4-2c0-1-2 0-1-1h2-1 1-1v-1h-1v-1h1l2 1 2-1 2 1v2c0 1 4 3 3 5l-3 4c-1 1 7 0 8 1a5 5 0 013 1l-3 1-5-1c-4 0-6-2-7-2h-12c-1-1-6 2-6 3h-4l3-2 4-2v-4l1-2-5-1-5 1v0a11 11 0 014 0l3 1v2a13 13 0 01-5 1 12 12 0 01-5-1l-1-2z"/>
  <path fill-rule="evenodd" d="M170 170h-1 1z"/>
  <path fill="#d0d0d0" d="M195 162l2 1 4-3v2l-2 1-1 1v1l2 2v2l-3-5h-3l1-2zm-5-19l5-2-1-3 4 7h-1l-1-3-5 3-1-2zm-7-9l4-4 1 1v7l4-3v1l-4 4-1-1v-7l-4 3v-1zm-20-8l1-6h1l-1 6h5v1l-6-1zm-10 1l-1-6h1l1 5 5-1v1l-6 1zm-18 9v-1l3-2 1 1a9 9 0 01-1 2 9 9 0 01-1 2 8 8 0 01-3 1h-2a3 3 0 01-1-1 3 3 0 01-1-1l1-2 1-2a8 8 0 012-1h3l-1 1a2 2 0 00-1 0h-1a5 5 0 00-1 1l-1 1a3 3 0 00-1 1l1 2h3a7 7 0 003-3l-1-1-2 2zm0 44l-5 4-4-6h1l3 4 1-1-2-4 3 4 2-2 1 1zm-8-8l2-1v-3a4 4 0 00-2-2h-1a2 2 0 00-2 1v3l1 2h2zm1 2a3 3 0 01-3-1 6 6 0 01-2-3v-3l1-1a3 3 0 011-1 3 3 0 012 0l1 1a7 7 0 012 5 4 4 0 01-1 2l-1 1zm0-13h-6v-6l1-1a1 1 0 011-1l1 1v2a4 4 0 012-2l1-1v1l-1 1-1 1a3 3 0 000 1 3 3 0 000 1l-1 2h3v1zm-3-1v-3a6 6 0 000-2 2 2 0 00-1 0 1 1 0 000-1l-1 1v5h2zm17-27v-8h1l7 3-2 1-1-1-4 2v2l-1 1zm1-4l3-2-2-1a13 13 0 01-1 0v3zm30-2l6-3 2 1-1 7-1-1v-2l-3-2-2 1-1-1zm4 0l2 2v-2a13 13 0 011-2 6 6 0 01-2 1l-1 1zm16 23l6-2 1 4v3a1 1 0 01-1 1h-1a4 4 0 01-1-2 4 4 0 010 1l-1 1-1 2v-2l1-1v-1a3 3 0 001-2 6 6 0 00-1 0v-2l-3 1v-1zm4 0v3l1 1v1h1v-1a3 3 0 000-1v-3h-2z"/>
</svg>
