<svg xmlns="http://www.w3.org/2000/svg" id="flag-icons-mw" viewBox="0 0 640 480">
  <g fill-rule="evenodd">
    <path fill="#f41408" d="M0 0h640v480H0z"/>
    <path fill="#21873b" d="M0 320h640v160H0z"/>
    <path d="M0 0h640v160H0z"/>
    <path fill="#f31509" d="M221 141c22-49 84-73 138-52a98 98 0 0158 52H221zm-26 6a332 332 0 01-53-7c-4-2-4-4-4-6 1-1 3-3 6-3 6 2 29 7 50 16zm124-85c-4-21-5-44-5-48 1-4 3-5 5-5s5 2 5 5c0 5 0 27-5 48zm12 0a249 249 0 01-1-48c1-4 4-5 6-4 2 0 4 2 4 5-1 5-3 26-9 47zm10 1c0-21 3-44 4-48s4-4 6-4c2 1 4 3 4 6-1 5-6 26-14 46zm11 2c2-21 7-43 9-47 1-4 4-4 6-3 2 0 4 2 3 5-2 5-8 26-18 46zm11 4c4-21 12-43 13-47 2-3 5-3 7-3 1 1 3 3 2 6a264 264 0 01-22 44zm10 4c6-21 16-42 18-46 2-3 4-3 6-2 2 0 4 3 2 6-2 4-12 24-26 42zm10 4a263 263 0 0122-44c3-3 5-2 7-1a4 4 0 011 6c-3 4-15 23-30 39zm10 6c9-20 23-39 26-42 2-3 5-3 6-2a4 4 0 011 7c-3 4-17 22-34 37zm8 6c12-19 27-37 30-40s6-2 7-1a4 4 0 011 7c-4 4-19 20-38 34zm9 7a284 284 0 0133-37c4-3 6-2 7-1a4 4 0 010 7c-4 3-21 19-40 31zm7 7a278 278 0 0137-34c4-2 6-1 7 0 2 2 2 5-1 6a306 306 0 01-43 28zm7 8a297 297 0 0140-31c4-2 6-1 7 0 1 2 1 5-2 7-4 3-24 15-45 24zm6 8a307 307 0 0143-28c4-1 6 0 7 2 1 1 0 4-2 6a321 321 0 01-48 20zm5 10a313 313 0 0146-24c4-2 6 0 6 1 1 2 1 5-2 6-5 2-27 12-50 17zm4 9a320 320 0 0148-21c4-1 6 1 7 3 0 1-1 4-4 5-5 2-28 10-51 13zm4 10a325 325 0 0149-17c5-1 6 1 6 3 1 2 0 5-3 5-6 2-29 7-52 9zM308 62a252 252 0 01-10-47c0-4 2-5 4-5s5 1 6 4c0 5 2 27 0 48zm-11 1a251 251 0 01-14-46c-1-4 1-5 3-5 2-1 5 1 6 3a263 263 0 015 48zm-11 2a259 259 0 01-19-45c-1-4 1-5 3-5 2-1 5 0 6 3 2 5 8 26 10 47zm-11 4a264 264 0 01-22-44c-2-4 0-5 2-6 2 0 5 0 6 3 2 5 11 25 14 46zm-10 3a270 270 0 01-27-41c-1-4 1-6 2-6 2-1 5-1 7 2 2 5 12 24 18 45zm-10 5a276 276 0 01-31-39c-2-4 0-5 1-6 2-1 5-1 7 2 3 4 15 23 23 43zm-10 5a285 285 0 01-34-36c-2-4-1-5 1-7 2-1 5-1 7 2 3 4 17 22 26 41zm-8 6a292 292 0 01-38-33c-3-4-1-5 0-7a6 6 0 017 1c4 4 19 21 31 39zm-9 7a299 299 0 01-41-30c-3-3-1-5 0-7a6 6 0 017 1c4 3 21 19 34 36zm-7 7a307 307 0 01-44-27c-3-3-2-5-1-6 2-2 5-2 7-1a292 292 0 0138 35zm-7 9a313 313 0 01-46-24c-4-3-3-5-2-6 1-2 4-3 7-1 5 3 24 15 41 31zm-6 8c-23-7-45-17-49-19-3-3-3-5-2-6s4-3 7-2c5 3 26 14 44 27zm-6 9c-23-5-46-14-50-16s-3-4-2-5c0-2 3-3 6-2 5 2 27 11 46 23zm-4 9a329 329 0 01-51-12c-4-1-4-4-4-5 1-2 4-4 7-3 5 2 28 10 48 20z"/>
    <path fill="#f31509" d="M195 147a332 332 0 01-53-7c-4-2-4-4-4-6 1-1 3-3 6-3 6 2 29 7 50 16z"/>
    <path d="M129 142h382v12H129z"/>
  </g>
</svg>
