<svg xmlns="http://www.w3.org/2000/svg" xmlns:xlink="http://www.w3.org/1999/xlink" id="flag-icons-mx" viewBox="0 0 640 480">
  <defs>
    <radialGradient xlink:href="#a" id="b" cx="842" cy="104" r="26" gradientTransform="matrix(.14152 .03595 -.03453 .14198 213 162)" gradientUnits="userSpaceOnUse"/>
    <radialGradient xlink:href="#a" id="c" cx="652" cy="551" r="26" gradientTransform="matrix(-.13441 -.05384 .04964 -.12489 398 -24)" gradientUnits="userSpaceOnUse"/>
    <radialGradient xlink:href="#a" id="d" cx="381" cy="740" r="26" gradientTransform="matrix(.07536 .00282 -.00343 .14804 412 -204)" gradientUnits="userSpaceOnUse"/>
    <linearGradient id="a">
      <stop offset="0" stop-color="#fff"/>
      <stop offset="1" stop-color="#f15770"/>
    </linearGradient>
  </defs>
  <path fill="#ce1126" d="M427 0h213v480H427z"/>
  <path fill="#fff" d="M213 0h214v480H213z"/>
  <path fill="#006847" d="M0 0h213v480H0z"/>
  <path fill="#fcca3e" d="M356 289v5l2-1-2-4z"/>
  <circle cx="356" cy="288" r="1" fill="#fcca3e"/>
  <path fill="#fcca3e" d="M361 296l-3-3-2 1 5 3zM361 298v-2h2v2h-2zM386 250l4 3v-2l-3-2z"/>
  <circle cx="386" cy="249" r="1" fill="#fcca3e"/>
  <path fill="#fcca3e" d="M395 252l-5 1 1-2h4z"/>
  <circle cx="396" cy="251" r="1" fill="#fcca3e"/>
  <path fill="#fcca3e" d="M378 277l-3-5 4 4z"/>
  <circle cx="375" cy="271" r="1" fill="#fcca3e"/>
  <path fill="#fcca3e" d="M378 277l4 1v-1l-3-1z"/>
  <circle cx="383" cy="278" r="1" fill="#fcca3e"/>
  <path fill="#fcca3e" d="M285 288l-1 1-1-1 1-1 1 1zM285 290l1 5h-2v-4z"/>
  <path fill="#fcca3e" d="M286 289l-2 2-2-1 2-1h2z"/>
  <ellipse cx="277" cy="296" fill="#fcca3e" rx="2" ry="1"/>
  <path fill="#fcca3e" d="M280 296h4v-1h-4z"/>
  <path fill="#fcca3e" d="M280 295c1 2 1 3-1 3l-1-2v-2c1-1 2 0 2 1z"/>
  <circle cx="264" cy="269" fill="#fcca3e" r="1"/>
  <path fill="#fcca3e" d="M264 272v5l-1-1v-4z"/>
  <path fill="#fcca3e" d="M266 271c0 1-1 2-2 1l-2-1 2-1c1 0 2-1 2 1z"/>
  <ellipse cx="256" cy="277" fill="#fcca3e" rx="2" ry="1"/>
  <path fill="#fcca3e" d="M259 277l4-1 1 1h-5zM258 275l1 2-2 2v-1-1-2h1zm-3-29l-2 1v-2l2-1v2zM251 254l2-5-1-1-2 4z"/>
  <path fill="#fcca3e" d="M252 249l-1-3h2v1h2v2h-3zm-8-1l1 2h-2l-1-2h2zM246 250l4 2v2l-4-3z"/>
  <path fill="#fcca3e" d="M246 251h-2v-2l1-1h1v3z"/>
  <path fill="#aa8c30" d="M357 290h-1v1-2l1 1zm0-1h-3l1-2-1 1v1h1v1h1v-1h1zm4 7h-1l-3-1 4 2v-1zm2 1v1h-2v-1 1l1 1h1v-2zm25-47v1l-1-1v-1l1 1zm-1-1l-1 1c-1 0-2-1-1-2h-1l1 1v1h2v-1zm10 1l-1 2-1-1c0-1 0 0 0 0v1h2v-2zM394 251l-1 1h-1 3v-1h-1zm-17 23v1l-2-3 2 2zm-1-3l-2 1v-2h-1v2h3v-1zm5 6h-2l3 1v-1h-1zM385 278l-2 1-1-2v1l1 1h1l1-1zm-99 11l-2 2-2-1v-1 1l1 1h1l1-1h1v-1zM285 291l-1 1v-1h1zm-4 4v1h1-2v-1h1zm-1 1v1l-1 1a1 1 0 01-1-1v-1 2h2v-2zm-5 0l2 1h1-3v-1zm-9-25l-2 1-1-1h-1l1 1h3v-1zm-2 2a4 4 0 00-1 1v-2h1v1zm-4 4h3-4 1zm-1 0l-2 2v-2 2h1v-1h1v-1zm-2 0h-2 2zm-2-29l-2 1-2-2 1 1 1 1h2v-1zM252 249v2l1-2h-1zm-5 2l2 3-3-3v-1l1 1zm-1 0h-2v-1l-1 1h2zm-2-1l-2-1h1l1 1z"/>
  <path fill="#9ca168" d="M400 240c0 4-4 6-6 7l-3 4-1 2v8l3-2 2-1-3 5c-1 2-2 7-5 9l-6 1-1 1-1 2-1 1-1 1h-1a8 8 0 010 2l-1 3 2-1h1l-1 1c0 1 0 5-3 7-4 3-14 2-14 2l-1 1-2 1-2 2-2 2-3 2h3l3 2h-4c-1 1-8 5-11 5s-8-5-8-5l-2-2h-8v-2h4l5 1h3l6-5 6-1h4l-1 1a7 7 0 01-1 1v1l4-1 1 1 1-1 3-3 2-1 1-4v-1l5-4 2-3 2-3-1-1 1 3v3l4-3h2l2-2 1-2 1-3-1-7 3-5 3-3 1-1-1 1v2l3-3h1a7 7 0 000-2l1-3v-3l-1-3-1-4v-6l-2-1 3 2a14 14 0 012 5l3-11 2 4v3l2-3v1c0 1 2 2 2 6zm-67 65l-4-3-6-2v1l5 3 3 2 2-1z"/>
  <path fill="#717732" d="M355 296l5-4 3-1 7-2 6-6 2-1-3 4a29 29 0 01-6 5 18 18 0 01-8 1 8 8 0 00-4 2l-2 3v-1zm12-13l-5 7 5-5 6-3 2-3 1-1s-1-2-9 5zm-8 9l2-3 1-3 6-5c3-3 1-6 1-6v3l-8 7v3l-2 3zm-3 10l-4-1c-5 0-9 3-13 3-3 0-4-1-7-3-2-2-9-2-9-2v1h7c3 1 5 5 9 5 6 0 10-4 12-4l5 1zm-24-2s4 0 7-2 6-5 8-5h4l-4-1-6 2-5 4a13 13 0 01-4 2zm-1 5h-1l-3-2-4-1 4 1a9 9 0 013 2l1 1 2-1h-2zm3-4l4 1c5 0 9-4 12-5 3-2 5 0 5 0v-1a7 7 0 00-4-1c-5 0-11 4-13 5l-4 1zm56-40c-2 2-4 8-6 9l-3 3-3 4-1 1s-1 0 0 0l2-1 2-3 5-4 5-9 4-3s-2 0-5 3zm-9 11l1-2 3-4 2-7 3-5-3 2a35 35 0 00-5 9l-1 7zm-2 2l1-3 1-9c0-2 5-7 5-7l-5 3c-3 2-3 4-3 6l1 7v4zm11-20l1-5 3-4c1-1 3-2 3-4l1-8-1 2-1 6-4 7v-6l2-6v-6l-2 3-1 7v10l-1 2a35 35 0 010 3v-1zm-4-21l2 3-1 7 3 3v-2l-1-2-1-6c0-2-2-3-2-3z"/>
  <path fill="#9ca168" d="M307 305l3-3a34 34 0 017-3v2l-3 1-2 1-2 2h-3z"/>
  <path fill="#9ca168" d="M314 298l-6 1h-2a5 5 0 01-1-1l-1-1v2l-5-4-1 3v1l-5-5v4h-1l-4-2h-1l1 2-4 1h-1a6 6 0 00-1 1v1h1l1-1c0 1 0 2 1 1l4-1c2 1-2 2-2 4h4c1 0 3-3 4-2s-3 2-2 4h4c1 0 3-4 4-3s-2 2-2 3h4l3-4h2l1-1 4-2h1l1 1h2v-1l-3-1zm-28 0l1-2-3-2a7 7 0 00-2-2l-2-1-1-3v-1l-2 1-1-6-1-1-2 3-1-2-1-5-1 1-1 1-2-4h-1v3a26 26 0 01-6-6l-1-2 1-2 1-3-2 1-1-5v-2l-3 4-1-2v-4h-1v2l-2-2v-5c-1-2-2-3-1-5v-2-1l3-4c-1-1-4 2-4 0 1-2 4-2 5-5 0-2-3 1-4 0l2-4v-2l-3 3-2-1v3l-1 3-3-2 1 3 1 3-3-1 1 3 2 2 1 2h1l1 1 1 2v7h-1c-1 1 1 2 1 2l-3 1c-1 1 0 2 1 2l5 2c0 1-5-2-4 0a4 4 0 002 4l5 1c0 1-3-1-3 1-1 1 2 1 2 1l3 1 4 4a76 76 0 005 3h-3c0 1 6 3 5 4-2 1-4-2-5 0 0 2 1 3 2 3 1 1 7 1 6 2s-5-1-5 1 2 4 4 3c1 0 3-2 4-1v2c1 1 2-1 4-1l5 3a79 79 0 013 3z"/>
  <path fill="#717732" d="M308 304l2 1 3-3a18 18 0 014-1l-4 2-3 2-2 1-1-1 1-1zm9-4h-1a4 4 0 00-3-1 7 7 0 00-4 1l-1 2 2-1a7 7 0 013-2l2 1h2zm-51-21v-1a16 16 0 01-2-1l-5-3 3 2 4 3zm36 25l2-2 1-2v-1l-1-2 2 2a10 10 0 011 1l1-1h-1l-3-3-1 2c-1 0-2-4-5-4h-2c0 1 3 3 2 4-1 0-4-4-6-4l-2 1 2 2-4-2-2 1v1l-2 1-2 2 2-1a50 50 0 016 0l-1-1-1-2 1 2 2 1h2l-1 2-1 1 2-1 1-2 1 1v-2l-2-3 2 3 1 2h2l-1 2-1 2 2-2 1-2h2l-1-1-1-3 2 3 1 1h2l-1 2a18 18 0 00-1 2zm-21-12l1 1s-2-1-2-3l-1-4-2 2v-6l-3-3c-1 1 0 4-2 4v-6l-2-2v3l-2-2h-1v-1l-1 1 1 2 1 1-1 1h-2 2l2 1 1 2 1-3v-2 6l-2 1-4-1a14 14 0 007 1l2 2 1-3v-3 7a5 5 0 01-2 1l-4 1h4l2-1 1 1 1 1h-1l-1 1 2-1a22 22 0 001 0h1v-1l-1-2 1 2v1l1 1zm-32-36l1-3a14 14 0 00-2-6l1-1-1 1-2-1a3 3 0 010-1l1 1v-2l-2-1-2-2 2 2h2l2-1 1-1-2 1h-1l-1-2-1-1-1-3 1 2 2 1 1-1 3-2-2 1-2 1v-1l1-2-1-1 1-2v2l4-3-1-2-2 2-1-1-2 2v3c-1 1-1-1-2-1-2 0-2 2-2 3 0 0 3 3 2 4-1 0-3-3-4-1s4 4 4 4l1 2 2 2a13 13 0 013 6l-1 2zm12 17l-1-3 2-6-3 2 1-6c-1-2-1-3-2-2-2 0-2 4-3 3v-4l-1-1-2 2-2-2c-1 1 2 5 2 5l1-1 1-2v4h-3a9 9 0 01-2-1l2 1 3 1a45 45 0 002 2l1-2 1-3-1 4v3l-3-1h-3l3 1h3l1 2 1-1 1-2v2a27 27 0 01-1 2h-4a20 20 0 004 1l1 1a5 5 0 001 1z"/>
  <path fill="#fff" d="M314 311l-1-1-1-1h-1l1-2 6-5 1-5h3v7h1l6 4v2h-2l-2 1-4-3-2-2-3 4-2 1z"/>
  <path fill="#016848" d="M319 297v1l-1 5-4 4-2 2-2 1-1 1s0-3 3-5l4-3v-6h3zm7 15l1-1 1-1h-2l-3-2a14 14 0 01-2-2l-2 2 2 2 3 1a9 9 0 012 1z"/>
  <path fill="#cd202a" d="M322 297h2l-1 6a8 8 0 01-1 3l-4 3-2 3-1-1-1-1a10 10 0 013-3c3-1 4-3 5-5v-5z"/>
  <path fill="#cd202a" d="M333 310h-4l-2-2-3-2c-2 0-2-2-2-2l1-2 2 3 5 2 2 3z"/>
  <path fill="#30c2dc" stroke="#0872a7" d="M345 286s-4-1-3-2c0-2 8-4 8-4v-2l-3 1-9 1a1735 1735 0 00-34-2c-4 0-6-6-6-6l-2 1v3a65 65 0 01-14-6l-1 2s7 4 7 6l-2 1 1 2s12 0 12 4l-3 2 1 1v1l9 1c1 1 2 3 5 4h19c3-1 5-4 9-5l6-1z"/>
  <circle cx="285" cy="281" r="2" fill="#fff" stroke="#0872a7"/>
  <circle cx="296" cy="271" r="2" fill="#fff" stroke="#0872a7"/>
  <circle cx="347" cy="287" r="2" fill="#fff" stroke="#0872a7"/>
  <path fill="#f8c83c" d="M275 268c-1 1 2 4 4 5l3-1a3 3 0 000-3c-1-2-6-3-7-1z"/>
  <path fill="#fff" d="M281 270l-3-2c-1 0-2 0-1 1l2 1v1h1l1-1z"/>
  <path fill="#f8c83c" d="M298 288c0 2-1 2-2 3-2 1-5 0-5-1-1-1 1-3 2-3 2-1 4 0 5 1z"/>
  <path fill="#fff" d="M295 289l1 1 1-1-2-2-3 3h1l2-1z"/>
  <path fill="#f8c83c" d="M349 281c1 2 4 0 4 0 1-1 3-2 2-3l-3-1-3 2v2z"/>
  <path fill="#fff" d="M350 280s0-2 1-2l2 1 1-1-1 1h-2l-1 1z"/>
  <path fill="#f9aa51" stroke="#953220" stroke-linecap="round" stroke-linejoin="round" d="M322 276h-7l3 10 4 6h5l1-2-2-9-4-5z"/>
  <path fill="#f9aa51" stroke="#953220" stroke-linecap="round" stroke-linejoin="round" d="M311 277v-1h2a7 7 0 012 0l3 5 3 6 3 5h-6l-6-9-1-6z"/>
  <path fill="#f9aa51" stroke="#953220" stroke-linecap="round" stroke-linejoin="round" d="M308 276h3a14 14 0 014 5l1 6 4 5h-6l-4-1a9 9 0 00-2-1h-2l1-3-1-7v-4h2zm24 2l-4-2h-7v3a30 30 0 003 8l3 5c1 1 5-1 5-1h2v-3l-1-1 1-8-1-1h-1z"/>
  <path fill="#f9aa51" stroke="#953220" stroke-linecap="round" stroke-linejoin="round" d="M307 278h1c1 1 1 0 1-1l-2-2-2 3 1 2-1 3 1 4-1 3 2 2 3-2-2-2-1 1m26-11l-1 1-1-1 2-2c1 0 2 1 2 3l-1 2 1 3-1 3 1 3c0 2-1 2-2 2s-2 0-2-2l1-2 1 2"/>
  <path fill="#953220" d="M310 289l1 2 9 1 9-1 2-2h1-1v2l-1 1-2 1h-15l-3-1a4 4 0 01-1-1l1-1-1-1zm20-12h1l-2 3-1 2h-6l-1-2 8-3z"/>
  <path fill="#231f20" d="M346 276l-1-1v-2l1 1v2zm11-3l1 1 1 1h-2a8 8 0 01-1-2h1z"/>
  <path fill="#231f20" d="M360 274h-2l-1-1 1 1h2zm5-4h-2 2zm-8-11l-1 1v1l1-1v-1zm-5 3l-1 1v2l1-2v-1z"/>
  <path fill="#8cbebf" stroke="#04534e" d="M343 268l-3 3s7 4 12 4 10-4 11-5l-1-6-5-3c-2 0-4 2-6 4s-2 4-5 4l-3-1z"/>
  <path fill="#0c8489" d="M342 270s7 1 9-1l6-6 2-1 1 1 2 2 1 3v2l-2 2-4 1-4 2h-4l-6-2-2-2 1-1z"/>
  <path fill="#04534e" d="M353 266l1-1 1 1-1 1-1-2zm3 1h1l1 1-1 1-1-2zm-1 5l1-1 1 1a1 1 0 01-1 1l-1-2zm-4-2l1-1 1 2-1 1-1-2zm-6 1a1 1 0 113 0 1 1 0 01-3 0z"/>
  <path fill="#8cbebf" d="M356 267h1v1l-1-1zm-1 4h2l-1 1-1-1zm-4-1l1-1 1 1-1 1-1-1zm2-5h1v2l-1-2zm-8 6l1-2 2 1-2 2-1-1z"/>
  <path fill="#231f20" d="M348 269l-2 1v1h1l1-2zm4-1l-1 2 1 1v-2-1zM353 269l-1 1v0l1-1zm1-5l-1 1v1l1-1v-1zm4 2l-2 1 1 1v-1l1-1zm-1 4l-1 1h-1 1l1-1z"/>
  <path fill="#04534e" d="M363 268s0 2-1 3c-2 0-7 4-11 3-5 0-10-3-10-3l-1 1h2l3 2 4 1h4l5-2 3-1 2-2v-2z"/>
  <path fill="#231f20" d="M275 242l1 2-1 1v-3zm8 7l-1 2-1-1h1l1-1zm-17 1l1 1h1l-1-1h-1zm3 6l1 1a1 1 0 002-1h-2-1zm5 5l2-1v-1l-1 1-1 1z"/>
  <path fill="#8cbebf" stroke="#04534e" d="M283 257s1-6-4-10c-5-5-8-3-10-2-2 2-3 7 2 11 5 5 12 3 12 3v-2z"/>
  <path fill="#0c8489" d="M268 251s0-4 1-5c2-1 7-2 9 3 3 5 3 8 2 10h-2l-5-1-3-3-2-4z"/>
  <path fill="#04534e" d="M282 258l-3 1c-1 0-10-2-12-10v2l1 2 2 2 2 2 3 2h2l2 1h2l1-2z"/>
  <path fill="#04534e" d="M278 256v-1l2 1-1 1-1-1zm0-4l1-1 1 1-1 1-1-1zm-4 4h2l-1 1-1-1zm0-4l1-1 1 1-1 1-1-1zm-3 0v-1l2 1-1 1-1-1zm0-4h1l1 1-1 1-1-2zm4 0h1l1 1-1 1-1-2z"/>
  <path fill="#8cbebf" d="M271 248h2l-1 1-1-1zm-1 4l1-1 1 1-1 1-1-1zm5-4h1c1 0 0 0 0 0v1l-1-1zm-1 4l1 1 1-1-1-1-1 1zm4-1l1 1 1-1-1-1-1 1zm-4 5l1-1 1 1-1 1-1-1zm4 0l1-1v2l-1-1z"/>
  <path fill="#231f20" d="M279 249v0zm-4-3l1 1v1l-1-1v-1zm-3 1v1-1zM271 247l1 1v1l-1-1-1-1zm2 4l1 1 1 1-1-1-1-1zm-3 0h1v1l-1-1zm8 3v2-1-1zM277 255h1v1a9 9 0 01-1-1zm-3 0h1v2l-1-1v-1z"/>
  <path fill="#04534e" d="M272 244s-3 1-4 3v4l-1-3 1-1 1-2 1-1h2zm10 12v-3l-3-6 1 2 2 2v2l1 1v2h-1z"/>
  <path fill="#231f20" d="M286 252l1 1v1l-1-1a7 7 0 010-1zm-5 13l1-1h1l-2 1zm8 3l1-1 1-1-1 1-1 1zm-1-1l1-1h1l-1 1a8 8 0 01-1 0z"/>
  <path fill="#8cbebf" stroke="#04534e" d="M302 261s-5-7-13-7a7 7 0 00-8 7c0 1 2 5 11 5 8 1 9-3 10-4l-1-1z"/>
  <path fill="#0c8489" d="M296 256l3 3v2c0 1-5-4-9-4-3-1-7 0-7 1s-1 5 1 6l10 2h3l3-2v-1l1-2-2-2-3-3z"/>
  <path fill="#04534e" d="M289 257l-1 1-1-1 1-1 1 1zm-4 2h2l-2 1v-1zm5 3l1-1 1 1-2 1v-1z"/>
  <path fill="#8cbebf" d="M286 263l1-1 1 1-1 1-1-1z"/>
  <path fill="#04534e" d="M293 265v-1h1l-1 1a1 1 0 01-1-1zm3-3l1 1h-1l-1-1z"/>
  <path fill="#8cbebf" d="M289 257h-2l1-1 1 1zm-2 2h-2v-1l2 1zm1 4h-2l1-1 1 1zm4-2l-2 1v-1-1l2 1zm5 2h-1v-1l1-1v2zm-3 1l-1 1a1 1 0 01-1-1h2z"/>
  <path fill="#231f20" d="M294 262h2c1 0 0 0 0 0a86 86 0 01-2 0zm-3 3l1-1 1 1h-2zm-2-5l2 1v1l-1-1-1-1z"/>
  <path fill="#231f20" d="M289 262l1-1 1 1h-2zm-4 0h2v1h-1l-1-1zM285 263h1-1zm-1-5h1l1 1h-1l-1-1zm3-3l1 1v1h-1v-2z"/>
  <path fill="#04534e" d="M300 264s-2 2-8 2c-5-1-10-3-11-5v1l1 1 4 2 4 1h7l3-1v-1zm1-3l-2-2-7-5 4 2 3 2 2 2v1z"/>
  <path fill="#231f20" d="M301 256l2 1v1h-1l-1-2zm4-2l2 1v2l-1-1a47 47 0 00-1-2z"/>
  <path fill="#231f20" d="M306 254l2 1v1l-1-1-1-1zm7 2l1 1v1l-1-1v-1zm2 0l1 1v1l-1-1v-1zm-12 15h1l1-1h-1l-1 1zm6 2l2-1 1-1h-1l-1 2zm6 0l1-1 1-1h-1v1l-1 1zM317 273l1-1v-1l-1 1v1z"/>
  <path fill="#8cbebf" stroke="#04534e" d="M300 264c0-2 3-8 7-8l8 2 4 3h4l5-1-4 6-1 1s-2 3-5 4h-12c-3-1-6-4-6-7z"/>
  <path fill="#04534e" d="M300 264l1-2a12 12 0 012-4l4-2 4 1a29 29 0 014 1l2 2 2 1a9 9 0 002 0h2l4-1-3 6-2 1a9 9 0 01-4 4h-5l-7-1a8 8 0 01-4-2 6 6 0 01-2-4c0 2 0 3 2 5a9 9 0 004 2l7 1a14 14 0 005-1 9 9 0 005-4l1-1 4-6h-5a15 15 0 01-4 0 6 6 0 01-2-1l-2-1a29 29 0 00-4-2h-4l-3 1a11 11 0 00-3 3 8 8 0 00-1 4z"/>
  <path fill="#0c8489" d="M324 265h-1c-1 0-12-7-15-6-4 0-7 2-7 5l1 5 8 2h7l3-2 2-1 1-1 1-2z"/>
  <path fill="#04534e" d="M307 263l-1 1-2-1 1-1 1 1zm1-3l1-1 1 1-1 1-1-1zm6 2l1-1 1 1-1 1a1 1 0 01-1-1zm2 4l1-1 1 1-1 1-1-1zm-4 3l1-1 2 1h-1l-2-1zm-6-1l1-1a1 1 0 110 1 1 1 0 01-1-1z"/>
  <path fill="#8cbebf" d="M306 263l-1 1a1 1 0 01-1-1l1-1 1 1zm4-3l-1 1-1-1 1-1 1 1zm6 2h-1l-1-1h2z"/>
  <path fill="#04534e" d="M313 264l-1 1-1-1 1-1 1 1z"/>
  <path fill="#8cbebf" d="M308 267l-1 1-1-1 1-1 1 1zm5-3a1 1 0 01-1 1 1 1 0 01-1-1 1 1 0 011-1 1 1 0 011 1zm5 1l-1 2-1-1v-1h2zm-4 3l-1 1-1-1 1-1 1 1z"/>
  <path fill="#231f20" d="M315 265h2v1h-1l-1-1zm-2-5l2 1v1l-1-1-1-1zm-4 2l2 2v1l-1-1-1-2z"/>
  <path fill="#231f20" d="M309 263l2 1v1a4 4 0 01-1-1l-1-1zm-2-4h2v1h-1a8 8 0 00-1-2zm-4 2l2 1v1l-1-1a9 9 0 00-1-1zM303 263h2-2zm8 6l2-1h1l-1 1h-2zm-6-1l1-1h1l-1 1h-1z"/>
  <path fill="#04534e" d="M323 267l-4 3a14 14 0 01-8 1 15 15 0 01-11-5l1 1 2 2 2 1 3 1 4 1h2l3-1 2-1h1l1-1 2-2zm-3-6l-3-1c-2-1-5-3-9-3-5 0-6 3-6 3l2-2 2-1 1-1h2l2 1h2l2 1 1 1 3 1 1 1zm6 1h-4l-1 1-1-2h6v1z"/>
  <path fill="#0c8489" stroke="#04534e" d="M321 280l1 1h5l1-1 1-4 1-1 3-2h3l2-1h3l1-1 1-2 1-1-1-3-2-3-3-1h-3l-3 1-5 2-5 3-1 6v7z"/>
  <path fill="#8cbebf" d="M322 279l2-4 3-4c1 0 0 0 0 0l2-1 1-2 2-2h1v1l2-1v-1h2l1 1v1l1 1h1l1-1v-1c-1 0-1 0 0 0 0 0 1 2 2 1v-2a91 91 0 01-2-2l-3-1h-4l-4 2-4 2-1 2-1-1-2 4-1 5 1 3z"/>
  <path fill="#8cbebf" d="M326 274l-1 1v1l1 1 1-1v-1a29 29 0 01-1-1zm6-5l-1 1v1h2v-1h-1v-1zm5 1h-1v1l1 1v-1zm-14 2h1a1 1 0 001-1l-1 1h-1v-1z"/>
  <path fill="#04534e" d="M327 276v1h-1-1v-1h1a2 2 0 001 0zm14-9l-1 1h-1-1v-1l1 1a2 2 0 002-1zm-12 3l-1 1h-1 1l1-1zm2 0v1h2v-1 1h-2v-1zm4-5v2h-1 1v-2z"/>
  <path fill="#04534e" d="M322 281l5-1c1 0 0-3 3-5 3-3 6-3 7-3 2 0 6-1 6-4 1-2-2-3-3-4-1-2-3-2-4-2l-4 2-1 2-4 1-1 2-1-1 1-3 4-3 5-2h4l3 1 2 3v2a5 5 0 010 2c-1 3-4 5-7 5a14 14 0 00-7 2l-2 6h-6z"/>
  <path fill="#231f20" d="M324 271h-1v-2 1l1 1zm3-1v-1l2-2-1 2-1 1zm-1 5c0 1 0 0 0 0l1-2-1 1 1 1h-1z"/>
  <path fill="#231f20" d="M328 274l-1 1h-1c0 1 0 0 0 0l2-1zm5-6l-1 1v1l1-1v-1z"/>
  <path fill="#231f20" d="M335 270l-2-1h-1v1h3zm-1-5h1v-1h-1v1zm7 0l-2 1v1h1l1-2zm-2 5l-1 1h-2l1-1a7 7 0 002 0z"/>
  <ellipse cx="329" cy="207" fill="url(#b)" rx="3" ry="4" transform="rotate(9)"/>
  <path fill="#fcca3e" d="M295 247l-1 4h1l1-4zM296 245l-1 1 1 1h1l-1-2zM370 256l-5 4h2l3-4zM372 254a2 2 0 00-2 1v2l2-1v-2zM263 233l2 5 1-1-3-4zM262 231v2h2v-2a1 1 0 00-2 0z"/>
  <path fill="#aa8c30" d="M297 245l-2 1a1 1 0 001 1v1l-1-1v-2h2z"/>
  <path fill="#aa8c30" d="M296 248h-1a49 49 0 01-1 2l1-3h1v1zm76 6v1h-2v2c1 0 0 0 0 0l-1-1v-1l1-1h2z"/>
  <path fill="#aa8c30" d="M369 257l-2 1 2-2 1 1h-1zm-107-26v2h2c0-1 0 0 0 0h-2l-1-1 1-1zM264 234v2l-1-3h1v1z"/>
  <ellipse cx="338" cy="-128" fill="url(#c)" rx="5" ry="3" transform="rotate(63)"/>
  <path fill="#e92736" d="M263 241h1l1-1v-1a4 4 0 00-1-1h-1v-1l-2 2h1v1l1 1z"/>
  <path fill="#e92736" d="M264 238l1 1h1l1-1a2 2 0 000-1l-1-1v-1l-3 2h1v1z"/>
  <path fill="#e92736" d="M269 238v-2l-1-1h-2l1 1h-1l1 1v1h2v-1zm22 12l1 1h2v-1l-1-1 1-1h-2v1h-1v1zM294 250v1h2v-1l1-1-3-1 1 1-1 1z"/>
  <path fill="#e92736" d="M297 253l1-2h1l-2-2v1h-1v2l1 1zm66 5l1 1v1h1a3 3 0 001-1v-1-1h-2l-1 1z"/>
  <path fill="#e92736" d="M366 259h-1v1l1 1 1-1h1v-1l-1-1-1 1z"/>
  <path fill="#e92736" d="M366 262h3l-1-2s0 1 0 0a2 2 0 00-1 0h-1v2z"/>
  <path fill="#f7e204" d="M264 239v1h-1v-1h1zm0-1h1l1 1v-2l-2 1zm3-2v1l1 1 1-2h-2zm26 14l-1 1v-1-1h1v1zm1-1v1l1 1 1-1-1-1zm3 1l-1 1 1 1 1-1-1-1zm68 9h-1v-1l1-1v2zm1 0v1h1l-1-1zm1 2l-1 1h2v-1z"/>
  <ellipse cx="439" cy="-93" fill="url(#d)" rx="2" ry="5" transform="rotate(48)"/>
  <path fill="#a8ac71" d="M286 199h-7c-3-1-2-7-2-7l-1-4 6-5h1l2-1 1 1-2 2-1 2-1 2v2l3-1 2-1-2 2-3 1s-1 2 1 3l4-1-1 5zm-15 16s2 1 2 3-2 4-2 8 0 4 6 9a6 6 0 011 2c1 1 1 9 6 9s6-3 6-3l-2-3h-3a3 3 0 01-2-2l-2-6c-2-3-5-3-5-7 0-3 2-3 1-7 0-4-5-6-5-6l-2-1-1 4h2z"/>
  <path fill="#f1a720" d="M285 188v-5l-1 1 1 2v2z"/>
  <path fill="#a8ac71" d="M288 232l-1-1c-1-1-3-3-3-9 1-7 11-11 12-14s3-4-5-11l-2 2 3 3h1l-1 3-6 5-3 2-3 4v6s0 8 8 9z"/>
  <path fill="#78732e" d="M283 236v2l-1 1h-2l-1 1v-1l-1-1 2 1h1v-1l1-1 1-2zm-5 0l-1-1-1-1 1-1h1v3zm3-4l1 1v1h-2l-1-1 1-1h1zm-1 12l-1-1v-2h3v1l-2 2zm5-5h-1l-1-1v3h1l1-1v-1zm-5 5l2 1 1 1v-1l1-1v-1l-3 1h-1zm5-1l2-1v-2h-2v3zm-2 3l5-1 1-1h-1l-1 1-4 1zm-3-21v-1-1h1l1 1-1 1h-1zm2 4v-1a12 12 0 01-1-1h1l1 1v1h-1z"/>
  <path fill="#c6c7a6" d="M277 187v2l5-2 1-3v-1h-2l-4 4z"/>
  <path fill="#a8ac71" d="M280 184a18 18 0 00-2 2l3-2 2-1c1 1 0 0 0 0h-1l-2 1z"/>
  <path fill="#78732e" d="M284 225v-3l-1 1-1 1 2 1zm-4-3v-2-4l1 2 1 2 1 1-2 1h-1zm4-1v-1l1-1a25 25 0 00-2 2h1m-3-6l1-1 1-2v2l1 2v1h-1-2v-2zm4 3l1-1 1-1-3 1v1h1zm-2-6l2-1 1-1v3h-1l-2-1zM287 216l2-2-3-1 1 2zm2-5v-3l-2 1-1 1h1l1 1h1zm2-3v-3 1l-1 1 1 1h1zm2 3l1-1a7 7 0 002-2h-4v2l1 1zm-10-13v1h3l-1-1-1-1zm7 16l1-2h2l-4-1v2l1 1zm6-6v-3-2l-2 2v1l1 1 1 1z"/>
  <path fill="#78732e" d="M292 205l1-2h3l-1 1-1 1h-2zm4-2l-1-2-1-1-1 3h3z"/>
  <path fill="#fff" d="M272 222l-1 1 3-1 2 2v-1l-2-2-2 1zm0-6l1 1 1-2h2l-1-1-2 1a4 4 0 00-1 1zm5 5l-2-2-2 1h-1 3l1 2 1-1zm-5-5l1-2a5 5 0 011-1h-1l-1 1a3 3 0 000 2zm-1-3l1-1-1 1-1 2h1v-2zm8-19h2s-2 1-1 3l-1 2h1v-2l2 2h1v-2a5 5 0 003 1l-2-2a4 4 0 011-1h1v-1h-1l-2 2a9 9 0 010-1l-1-1-2 2 1-2v-1l-2 1-2 1v1l2-2zm2 2l2-1v2l-1 2-2-2a2 2 0 010-1h1zm-8 21v1l2-1 2 1v-1l-2-1-2 2zm21-11v-1a13 13 0 002-2h-3v-2l1-1-1-1-1 1-2-1 2 1h1v1l-1 1h1v1h3l-2 2-1-2v2a5 5 0 01-1 0h-1v3l-1-1h-1v1 3a5 5 0 01-3-1v3l-3-1a60 60 0 000 5c-2 0-3-2-3-2v1l2 4v1l-2 1v1a45 45 0 002 1 5 5 0 01-2 1v1l2-2 2 1v-1h-1l1-2v-1h-1l2-2v-1l-1-1 3-1-1-2h4l-1-3 3 1 1-1-1-3a5 5 0 001 0h3l-2-2zm-10 16l-2 2-2-2 3-1 1 1zm1-3l-2 2a4 4 0 01-1-1l-2-4 3 1a14 14 0 001 0l1 2zm2-3l-3 1a5 5 0 010-1l-1-4 3 1 1 3zm-1-3v-3l3 1v2h-3zm6-2h-3a23 23 0 010-3h2a10 10 0 001 3zm0-3v-3h1l1 1 1 2h-3zm-8 18l-1 1-2-1v1l2 1-1 1h1v-1h1v2h2-2v-1l1-1-1-1h-1a3 3 0 011-1zm-11-1l2 1v-1l-2-1-2 1v1l2-1zm13 19l-2 1v-1c3-1 3-3 3-3v-1l-2 3v-3l-2 1a8 8 0 000-3l-2 1 2-3-1-1-1 3a11 11 0 01-1 1l-2-1 2 1a27 27 0 01-1 1v1l3 1-2 2h4l-1 2 3-1 2-2-2 2zm-7-3l2-2h2l-1 2-3-1zm2 3l1-2c2 0 3-2 3-2l-1 3h-3zm-2-10h3l-3-1a4 4 0 012-2h-1l-1 2a4 4 0 00-1 0 5 5 0 00-2 1h3a26 26 0 00-1 2v1l1-3zm-3-7h-3l-2 2v1l2-2h3zm3 3l-1-1-2 1-1 3v1l2-3 2-1zm-4-1a5 5 0 012-1h-1l-2 1-2 2 1 1 2-3zm5-44l2-1h1a9 9 0 00-1 2l-1 2-1 3v2l1-1-1-1 1-3 1-2 1-2-1-1-2 1-2 2 2-1z"/>
  <path fill="#78732e" d="M285 195h-2v2zm-3-1a2 2 0 00-1 0h-1v2l2-2zm0 5l-2-2-1 2h3zm7 45a9 9 0 01-5 2 7 7 0 01-3-1 4 4 0 01-1-2l-1-4-2-4-3-3a7 7 0 01-3-5 8 8 0 010-1l1-4 1-4-1-2-2-1h-1 1l2 1 1 2-1 3a12 12 0 00-2 5v1a8 8 0 003 5l4 4 1 5 1 2 2 2a7 7 0 004 1l4-2z"/>
  <path fill="#78732e" d="M287 239a3 3 0 01-1 1l-2-1a4 4 0 01-1-3l-1-3-3-4-3-3a3 3 0 010-1v-3a11 11 0 001-5c0-2-1-3-3-4a14 14 0 00-3-1l3 2 3 3v1l-1 4-1 3v1l3 4 4 3 1 4 1 2 2 1a3 3 0 001 0v-1z"/>
  <path fill="#a8ac71" d="M296 232s2 0 2 1a13 13 0 01-1 4l-2-2 1-2h1l-1-1z"/>
  <path fill="#f8c83c" d="M266 215l-2-1v-1l-1-1 2-1 1-2 1 1-1 4z"/>
  <path fill="#f8c83c" d="M268 215h-2v-2l-1-1 2-1 1-1 1 1-1 4z"/>
  <path fill="#f8c83c" d="M271 215l-2 1-1-2v-1l1-1 2-2 1 2-2 1 1 2z"/>
  <path fill="#af7029" d="M294 231l-3-2c0-2-2-3-2-3l-2-1-1-3-1-2 1-2 1-1s-5 2-2 10c1 4 3 5 3 5l4-1h2z"/>
  <path fill="#816c2a" d="M292 202l1 1-8 7a14 14 0 00-4 4 12 12 0 00-2 7c0 5 2 8 5 9a10 10 0 005 2h2a36 36 0 013-1l1 1h1v2h-1v1a4 4 0 001-1l1-2h-1l-1-1h-6v1-1a9 9 0 01-5-1c-2-1-4-4-4-9l1-7 6-5a14 14 0 006-6v-1l-1-1v1z"/>
  <path fill="#fff" d="M298 233l-2 2h2l-1 1-2-1v-1h2a4 4 0 000-2l1 1z"/>
  <path fill="#fcca3d" d="M302 234l-3 1-1-1v-2l-2-1h-3l-5-5h5l3-1 1 1h2l1 1 1 2 1 1v4z"/>
  <path fill="#af7029" d="M302 234h-4v1l-1 1v3l3 1 1-1 1-3v-2z"/>
  <path fill="#fcca3d" d="M302 233v1-1zm-3-30v-3l-1-1-1-2-1-1h-1v-1h-3l-2 2 6 6a7 7 0 012 1h1v-2z"/>
  <path fill="#af7029" d="M296 205v4l1-2 2-3a7 7 0 00-3-1v2z"/>
  <path fill="#816c2a" d="M300 238l-1-2-1-1-1 1h1l1 1a18 18 0 011 1z"/>
  <path fill="#6f5b24" d="M302 236l-1 1-3 2 3 1 2-2-1-2z"/>
  <path fill="#404118" d="M302 238v1h-1l1-3 1 1v1z"/>
  <path fill="none" d="M286 199h-7c-3-1-2-7-2-7l-1-4 6-5h1l2-1 1 1-2 2-1 2-1 2v2l3-1 2-1-2 2-3 1s-1 2 1 3l4-1-1 5z"/>
  <path fill="#ab6d29" d="M319 171s-7-2-7 4c0 2 0 3 2 3l7 3c2 2 2 4 2 5v3l1 7 2 6 5-3 3-8-4-15-11-5z"/>
  <path fill="#4d2a15" d="M326 200s2-1 3-3l-3-3 2 1 2 1v-3l-2-3h-2 3l1 1-1-4-2-2h-2 4l-1-3a7 7 0 00-2-1l-2-1h2l-4-2h-3l1-1h1l-3-1h-5l1-1h1c1-1-1-2-1-2l1-1h4l8 5 4 4 3 6-1 11-6 4h-2l1-2z"/>
  <path fill="#d2a567" d="M318 173v-1-1s-2-1-4 1c-2 1-1 4-1 4l2-1h3l-1-2h-2 3z"/>
  <path fill="#8f4620" d="M327 201l-2 1 1 7 7 12 4-1 1-2 1 1 3 3 3 1 5 7v-3l-2-3-1-2v-1h2l1 1 2 1 1 2v1l1 1v1l1 3 1 2 1-1-1-3-2-6-1-2 2 1 2 3 1 2v2l1 2v1h1v-2l-1-4v-4h1a9 9 0 011 3l1 4 1 4 1 3 1 3 1 1v-2l-2-16h1l1 2 1 3v5l1 3 1 4 1 2 1-2-1-18 2 1v1l1 4v11l1 3 3-29h2v-1l-1-1-4-5-2-4-3-7-7-8-5-5a20 20 0 00-2-1v-1l1-2h-1l-2 1-2-1-5-3-4-2-3-1-7-2-6-1h-6l-2 2v3l3 2 6 4 2 2 1 1v1l1 11-2 6-2 1z"/>
  <path fill="#ab6d29" d="M334 218s1 2 3 1c1-2-1-6-1-7h1l1 2v3l-2 4h-2v-3z"/>
  <path fill="#4d2a15" d="M375 244l-1-4-1-4v-9-3l-2-2-1-1h2l-1-5-4-8 1 1 2 2 4 1 2 1 2 2 1 8-1 7-2 11v3h-1z"/>
  <path fill="#8f4620" d="M375 231l2-2-1-14a10 10 0 00-4-2l1 3v2l1 1 1 7v5z"/>
  <path fill="#4d2a15" d="M369 238l1-9-1-5a32 32 0 01-3-6l-2-6-2-2v1h-2v-5l2 2 4 3 2 8 2 6 1 9-1 8-1-4zm3-25l1 2 2 1a8 8 0 01-2-1l-1-1v-1z"/>
  <path fill="#4d2a15" d="M364 236v-4a49 49 0 00-1-9l-4-4-2-5-2-3v-3l4 2h1l2 9 2 3 1 3 1 8v7l-2-4zm-5-4v-4l-2-5-4-5-4-5v-4l2 2a57 57 0 013 1l1 4 1 2 1 3 2 1v4l1 2 1 3-1 2-1-1zm-2 0l-1-1v-2l-1-3-1-3a121 121 0 00-5-4l-4-3-1-1-1-4 2 2a55 55 0 002 1l3 5 1 1 3 2 1 3 1 2 1 3v3-1zm-6-1l-2-3v-2l-4-5-3-4v-1l1 1 4 5 2 2 1 3v2l1 2zm16-23s3 4 4 0l-1-4-4-6-6-8-3-1 1 2 6 8 3 9zm-18-23l10 11c4 6 6 9 5 10s-4 0-5-2c0-2-1-4-5-9l-5-4-3-5 3-1zm-3 13l6 5a37 37 0 013 4l2 1-1-1 1-1-11-12v3zm-1 0l3 4a465 465 0 004 4l1 3-5-3 1 3-1-1-3-3-1-3-1-4h2z"/>
  <path fill="#4d2a15" d="M330 210s2 3 4 0v-5s4 6 5 0l-2-4 1-1 2 3s1 0 1-3-2-5-2-5l2 2s4 0 4-2-3-4-3-4 2 0 2-2l-3-3c0-1 1-3 2-2 2 1 4 2 5 0v-2h-2l-4-2-3-1h-2l1 2v8l1 6-1 4-1 1-1 1-1 3-1 1-3 3-2 2z"/>
  <path fill="#ab6d29" d="M349 221l-2-3a8 8 0 00-4-1l4 4h2zm5 1l-2-4-3-4h-1v3l3 3 3 2zm5 0l-2-6-3-4v3l1 3 2 3 2 1zm4-2v-8c-1-2-3-2-3-2v5l2 4 1 1zm4-10l2 2a40 40 0 012 9h-1l-3-6-1-5h1z"/>
  <path fill="#d2a567" d="M340 217l2-1-2-3 2-1s-2-3-1-4 2 3 2 3l1 3c-1 4-4 3-4 3zm5-5l3 1-3-3v-2h2l-2-4 1 1 2 3c1 1 2 2 2 5-1 2-5 0-5-1zm14-4l-1-2 2-1-3-1h-1l1 2 2 2z"/>
  <path fill="#d2a567" d="M349 209l5 1-3-4-1-1 3 1v1s1 3 2 2l-1-3 3 2 3 1v-2 3h-3l-1-1v-1l-1 3h-3l-3-2zm11-3l5 3c1-1-1-8-1-8 1-1 4 7 3 9h-2l-3-1-2-3zm14 13h1l1 1h-2v-1zm-5-17l1 1h-1v-1zm-1-2h1v-1l-1-1h-2l2 2zm4 14l2 1 1 1h-2-1v-2zm-8-22h1v1l-1 1a48 48 0 01-2-2h2zm-7-7h1l2 1v4l-3-2-2-3h2zm-3-1s2 0 2-1a3 3 0 00-2-3l-2 2 2 2zm-7-3h1l4-3h2v2l-4 2h-2a10 10 0 01-1 0v-1zm-1-4c0-2-1-2-2-2 0 0 2 1 2 3v4h1v-4l-1-1zm-5-2a15 15 0 00-6-4l5 4 1 4h1v-3h-1v-1zm-6-3c-2-2-7-3-10-3s-5 1-5 2 2 3 5 3h5a10 10 0 014 2l-3-2-2-2h2c2 0 4 1 5 3l1 3 1-1-1-1-1-2-1-1zm-10 29c2 0 5-3 6-7l-3-13 2 1a25 25 0 012 11c0 4 0 5-3 7l-4 2v-1zm6 11l1 1c2 0 4-2 4-4l-2-3v-1h2v3h2l2-3-2-3v-2l1 1 1 2h1l2-3-2-2v-1h3l2-2-1-2h1l1 1v2l-2 2-1 1h-1l1 1v2l-1 1-2 1v2l-1 2-2 1h-1v2l-1 2-3 1h-1l-1-1v-1z"/>
  <path fill="#d2a567" d="M343 191s4 2 4-1l-4-5v-1l2 1s2 1 3 0v-3h2v3l-2 5s1 2-1 2c-2 1-4-1-4-1zm4 30l-1-2-3-2a63 63 0 003 4h1zm6 0l-3-3-2-3 1 3 3 3h1zm5 0l-2-4-2-4v1l1 3 2 3 1 1zm4-2l-1-5-1-3v3l2 5zm8 2l-2-5-2-4v3l2 5 2 1zm7-9l-4-2-5-1 1 1 3 2h5z"/>
  <path fill="#202020" d="M348 214l1 4 5 4 2 6 1 5 1 2-2-2v-2l-2-8-7-6-1-3h2z"/>
  <path fill="#202020" d="M355 229l-2-4a16 16 0 00-4-4h-2l-4-4 4 5 3 6 1 2 1 2v-1a10 10 0 01-2-3l-2-6-1-1h2l4 4 2 4 2 4-2-4zm-6-20l4 2a10 10 0 001 0l2 7 3 4 2 8 1 8c-1 0-2-2-2-5l-2-6a13 13 0 00-3-4c-1-1 0-1 0 0l3 4 2 5v-1l-1-4a17 17 0 00-1-5l-2-3a20 20 0 01-3-5v-2h-2l-2-3zM356 209l2 1h2l1 7 4 5v6l1 9v10l-1-7-3-8-1-8-2-2s2 0 2 2l2 8c1 5 3 7 3 7l-1-9-1-8c-1-1-3-2-3-4l-2-6-1-1-2-2z"/>
  <path fill="#202020" d="M360 206l3 3 3 1c1 0 0 4 2 7l2 4 1 14c0 3 1 15-1 15s0-9-1-11l-1-3-2-11-1-3 2 3 1 11 2 4a157 157 0 000-16c-1-1-4-7-4-10l-1-3-2-2-3-3z"/>
  <path fill="#202020" d="M367 208l4 3 6 1 2 10c0 6-1 5-2 10l-1 17-1 1-1 3-1-2 1-6-1-6v-15l-3-3 3 3 1 15v-2l1-10-2-11 1 2 1 1 1 1-1-1h-1a24 24 0 011 8v16c1 1 1-6 2-11l2-10-3-9c-1 0-3 0-5-2l-4-3zm-35 6h1l4-4v-1l3-2a8 8 0 000-3h1l3-3-1-3h1l3-2c0-2-1-3-3-4h3l1-2-3-4h3l1-3-1-1h3l4-2-3 2 3 2v1h3l-2 1a34 34 0 016 5l1 1h1-2a65 65 0 014 5h1l1 1h-2a82 82 0 014 6l-7-10-5-4 5 6 3 6-9-12-7-6v5l7 7 7 11-8-10-7-7-1 2-2 1 5 5h2l2 1h-2-1l4 4 2 1 2 1-3-1h-1l3 4-8-8c-3-3-4-3-5-3v1l-2 1 5 5a149 149 0 014 5l-4-4-4-3v1l4 6-5-6-1 1-2 1 7 7-6-5 2 6-3-5-1 1-2 1 4 6-5-5 1 4-2-3-1 1-1 1 1 2 1 2-1-2-2-2-1 1-1-1z"/>
  <path fill="#202020" d="M377 212h2l-2-2c-1-2-5-12-9-17-7-9-13-13-13-13s7 4 13 12c6 9 7 15 9 17 1 2 3 2 3 2l-1 1-2 1v-1zm-48-2l3-3-2-1-1-1 1 1h2l3-3h-2l-1-2 2 1h2s2-3 1-4h-1l-2-2 2 1c1 1 2 0 2-1v-4h-2l-2-2 2 1 2-1a6 6 0 000-3l-1-2h-2l-2-1 2 1a2 2 0 002-2l-1-2-1-2-2 1-2-2 2 1 2-1-3-3a58 58 0 00-3-3 22 22 0 007 5h2l-1-2-2-3 2 3 1 3 4 1v-2l-1-2 1 2 1 2-1 1 2 1 3 1v-3l-1-2 1 2v3h-1l-8-3 5 4 2 3-2-2-5-2 1 1-1 1 5 4-1 2-3-2 1 2v1l2 3-1 2 2 2-2-1-2-2-1 3 2 2v3l-2-2h-1s-2 2-1 3l1 1a3 3 0 01-1 3l-2-3-2 3 1 2h-4z"/>
  <path fill="#202020" d="M355 180l1-1 1-2h-3l-5-2s-9-7-24-7c-4-1-6 1-7 2 0 0 2-2 6-2 2 0 17 1 24 7 1 0 3 3 5 2h3l-1 2a9 9 0 000 1zm-25 2l-3-3a37 37 0 00-8-5l8 5 3 3z"/>
  <path fill="#d2a567" d="M330 192l-2-1a10 10 0 00-2-1h3a5 5 0 011 2zm-1-5l-2-1-2-1h3a3 3 0 011 2zm-1-5l-2-1-2-1 3 1 1 1zm-2-2l-3-2h-4 5l2 2zm-5-3l-4-1h-4l6-1 2 1z"/>
  <path fill="#f8c83c" d="M305 238l2 2c2 0 3 3 3 3l-2 1-4 1-2-3 3-4zm0-1l-3-4v5l3-1z"/>
  <path fill="#f8c83c" d="M304 241l1 1 1-1m-3-1l2-3-1-1a7 7 0 00-2 2l1 2zM301 242l1 1 2-1-1-2h-2v2z"/>
  <path fill="#f8c83c" d="M303 240l-2 1-1-1 1-1 1-1 1 1v1z"/>
  <path fill="#f8c83c" d="M302 241l-4 3 1-5 1 1 2 1z"/>
  <path fill="#f8c83c" d="M297 238l4 2-3 1-1-3z"/>
  <path fill="#202220" d="M289 243l2 2 3-1-4-2-1 1z"/>
  <path fill="#4b4139" d="M289 243v1l2 1 3-1-4-2-1 1 1-1 4 2h-1l-2 1a2 2 0 01-1-1 3 3 0 01-1 0v-1z"/>
  <path fill="#202220" d="M290 243l2 1 4-1-3-3-3 3z"/>
  <path fill="#4b4139" d="M290 243l2 1 4-1-3-3-3 3 3-2 3 2a5 5 0 01-4 1 3 3 0 01-2 0 2 2 0 010-1z"/>
  <path fill="#4b4139" d="M290 243l2 1h2-3l-1-1z"/>
  <path fill="#202220" d="M292 242s1 2 3 1l2-1-2-3-3 3z"/>
  <path fill="#4b4139" d="M292 242l1 1 2 1v-1h2v-1l-2-3-3 3 3-2 2 2-2 1a2 2 0 01-2 0 4 4 0 010-1h-1z"/>
  <path fill="#4b4139" d="M293 242l2 1a3 3 0 001 0h-3v-1zm-4 2l2 1a5 5 0 002-1l-1 1h-2l-1-1z"/>
  <path fill="#f8c83c" d="M297 238l2 4-1 2-3-2v-2l2-2zm-8 1l-2-1v3l2-1v-2zM289 240l-2 1 1 1h2l-1-2z"/>
  <path fill="#f8c83c" d="M290 241l-2 1 1 2 1-1-1-2zm0-5h-1l-1 2v2l3-1-1-3z"/>
  <path fill="#f8c83c" d="M291 238l-3 2 1 2 3-2-1-2z"/>
  <path fill="#f8c83c" d="M293 242l-3 1-1-2 2-1c1-1 2 2 2 2zm2-9h-2c-2 0-3 2-3 3v3l4-2v-3z"/>
  <path fill="#f8c83c" d="M292 240l-2-2 3-2 1 3-2 1z"/>
  <path fill="#f8c83c" d="M295 240l-2 2-2-1 1-2h2l1 1z"/>
  <path fill="#f8c83c" d="M293 237v2l2 2 2-1 1-2-1-2c-1-1-2 0-4 1z"/>
  <path fill="#202220" d="M296 233h-2l-1 2v3l2-1 1-1-1-2 1-1z"/>
  <path fill="#4b4139" d="M296 233h-2a3 3 0 00-1 2v1-1l1-2h2z"/>
  <path fill="#f8c83c" d="M329 257l1-1 2-1 1 2-2 2h-1l-1-1v-1zM326 257h3v2l-2 1-1-1v-2zm12-1v-1l-3-2v5h3l1-1v-1z"/>
  <path fill="#f8c83c" d="M326 257h-1l-2 1v3l3 1 6-4h-3l-1 1-2-1v-1z"/>
  <path fill="#f8c83c" d="M330 259h-1l-1 1v2h2l2-1v-2h-2zm10-1v-1l-1-1-2 2v1l1 1h1l1-1v-1z"/>
  <path fill="#f8c83c" d="M333 257l-2 1-1 1 1 1h1l3-1v-2h-2zm9 2v-1h-2l-1 1v1l1 1h2l1-1-1-1z"/>
  <path fill="#f8c83c" d="M338 261h1v1h1l1 2h3l2-3h-1s1-2-1-2h-2l-1 2a2 2 0 01-1-1l-1-1h-1l-1-1h-1v-1l-2 1-1 1-2 1-1 2-2-2-2 1-1 1 1 3h3c2-1 1-2 1-2h1l2-2"/>
  <path fill="#f8c83c" d="M336 251v7h-4v-4l4-3zM333 261l1 1 1-1v-1c1 0 0 2 2 2l1-2"/>
  <path fill="#202220" d="M321 263v-2h2l1-1a4 4 0 00-1-2s-3 1-3 3l1 2zm5 5v-2h1v-2l-1-2c-1 0-3 2-2 4a4 4 0 002 2zm18-1s4 1 4-2l-2-4-1 1-1 2 2 1c0 2-2 2-2 2z"/>
  <path fill="#4b4139" d="M326 268s-3 0-3-3l3-3s-2 1-2 3c0 3 2 3 2 3zm-5-5s-1 0-2-2c0-3 4-3 4-3s-3 1-3 3l1 2zm23 4h2c1 0 2 0 2-2l-1-3-1-1 1 1 1 3-3 2a6 6 0 01-1-1z"/>
  <path fill="#904720" d="M303 192h-1v-1h2l2-1h2l1 1 1 2-4 2v1l-1-1v-2z"/>
  <path fill="#202020" d="M337 246v-6l-15 5 6 5z"/>
  <path fill="#d2a567" d="M309 236l-1-1-1-1h-2l1 1 1 2 2 1h1l1 1-1-3zm0 2h1l1 1v1l1 2v1l-1-1-5-1v-1l1-1h1l1-1z"/>
  <path fill="#d2a567" d="M312 242h2l-1-2 1-6-4-5-1 3 1 5 1 3z"/>
  <path fill="#ab6d29" d="M309 232v2c1 1 1 5 3 7l-2-2s-2-5-1-8v1zm3 3l-1 1v3l1-2 1 3v-5h-1zm1 9l-5-1-3-2h4l3 1h1l2-1v2l-2 1zm-8-1l1 1a4 4 0 01-2 1l4 1 1-1-4-2z"/>
  <path fill="#d2a567" d="M304 242l2 1h4l-1 2-3-1-1-1-1-1z"/>
  <path fill="#ab6d29" d="M314 240l1 1v-5l-1-1z"/>
  <path fill="#4d2a15" d="M310 236l-2-2-1-3 1-2 1 2v2l1 3z"/>
  <path fill="#d2a567" d="M301 244l2-1a8 8 0 012 0l3 2h-5l-2-1z"/>
  <path fill="#8f4620" d="M314 235v4l1 2-1 1h-2 1v-3l-1-2v-3c1-1 2 1 2 1z"/>
  <path fill="#ab6d29" d="M305 243l-1-1s1 2 4 2l2-1h1v2a61 61 0 00-2 1l-1 1v-3l-3-1z"/>
  <path fill="#8f4620" d="M310 236l-5-5v-6l3 4v2l2 5z"/>
  <path fill="#ab6d29" d="M308 248v-1c2-3 7-4 7-4v2l-6 3h-1z"/>
  <path fill="#8f4620" d="M308 246l1-1-2-1-2-1 2 2h1v1zm8 1l-1-2v-3l-1 1-2 1h2l-3 1h2l-2 2-3 1h4l4-2v1z"/>
  <path fill="#ab6d29" d="M316 247l-1-5-1-6 2 1 1 4-1 6z"/>
  <path fill="#8f4620" d="M317 239l-1 4v4l2 2 1-1v-5l-2-4z"/>
  <path fill="#202020" d="M319 243s1 6-1 6l-2-2 2 2 1-7v1zm-3 4v-1c-1-1 0 0-4 2h-4 4l4-1z"/>
  <path fill="#ab6d29" d="M310 239l1 1a363 363 0 001 2l-1-2-2-3 1 2z"/>
  <path fill="#8f4620" d="M308 247v-2h-3a34 34 0 01-4-1l3 1 3 1h1v1z"/>
  <path fill="#202020" d="M308 247v-1l-4-1-3-1 3 2 4 1z"/>
  <path fill="#ab6d29" d="M309 238l-2 1-2 2h1l1-2 2-1z"/>
  <path fill="#8f4620" d="M305 234l2 2 2 1 1 2-4-2a10 10 0 01-1-3z"/>
  <path fill="#8f4620" d="M308 235l-1-1h-2c-1 0 0 0 0 0l1 2h1l-1-2 2 1z"/>
  <path fill="#202020" d="M316 231l17-9 8 12-14 4h-8l-4-3z"/>
  <path fill="#4d2a15" d="M339 236l21 18-2 2-5-2-11-10-3-4z"/>
  <path fill="#4d2a15" d="M366 251l-12-10-15-11v5l17 16 6 3 3-1 2-1-1-2z"/>
  <path fill="#803f1d" d="M339 238l11 10 10 7v-1l-21-18v2z"/>
  <path fill="#4d2a15" d="M354 255l-2 2-3-1-13-13 1-3h2z"/>
  <path fill="#202020" d="M366 251s-2 3-5 2c-3 0-22-18-22-18v2s19 17 23 18c3 0 6-3 6-3a44 44 0 00-2-1z"/>
  <path fill="#803f1d" d="M337 240l9 11 7 5-1-2-9-9-4-5h-2z"/>
  <path fill="#202020" d="M338 240l17 16c2 1 6-2 6-2h-2s0 2-4 1c-3-1-16-15-16-15h-1z"/>
  <path fill="#4d2a15" d="M344 255l-5-6-2-2v-3l11 11-1 1h-2z"/>
  <path fill="#202020" d="M354 256s-1 2-3 1a5 5 0 01-3-2l-10-10-1-2s12 13 14 13c1 1 3-1 3-1z"/>
  <path fill="#202020" d="M348 255s0 2-2 1h-2l-6-8-1-2 9 10 2-1z"/>
  <path fill="#b07229" d="M341 235l7 6h1l4 4h1l4 3 4 1h-3l4 4-5-3-1 1v-2l-4-3v-1a16 16 0 00-4-3v2l-1-2-7-7z"/>
  <path fill="#4d2a15" d="M331 252l-1 3c-2 0-4-4-4-4v-5l3 3 2 3zm8-1v-1-1l-1-3v-2l-1-1-2 2v4l1 3h1l2-1z"/>
  <path fill="#4d2a15" d="M337 255l-1-3-2-5v-2h-2l-1 1 1 2 2 4c1 1 2 4 3 3z"/>
  <path fill="#202020" d="M335 245a6 6 0 011 3l1 4 2 2v-3h-1l-1-5v-2l2 4v1-3l-1-2v-3l1 1 1-2v-6l-7 9 2 2z"/>
  <path fill="#202020" d="M335 244l1 5 1 3v3l-3-6-1-3v-1l2-1z"/>
  <path fill="#4d2a15" d="M334 257v-3l-2-5-3-3-1-2v4l3 5 3 4z"/>
  <path fill="#202020" d="M325 246v3l2 4 2 3 1-2-1 1a40 40 0 01-2-7h-1a18 18 0 01-1-2zm7 6l-2-4-1-1-1-2 2 1 2 1v4z"/>
  <path fill="#5c3a1d" d="M327 248l2 3 2 3-2-3a14 14 0 01-2-3z"/>
  <path fill="#202020" d="M332 247l1-2h1l-1-1-1-1v4zm0 0l2 6v0l-3-5 1-1z"/>
  <path fill="#4d2a15" d="M334 244l1-6-1-2-3-6v1a6 6 0 01-3-2 9 9 0 00-1 5l6 10h1z"/>
  <path fill="#8b441f" d="M324 248l1 1v-3l-8-10 7 12z"/>
  <path fill="#8b441f" d="M328 245v3c-2 1-9-9-10-10l-4-4 4 1 10 9v1z"/>
  <path fill="#202020" d="M324 248l-1-2v-2l-6-8-2-1a16 16 0 000 2l4 6a458 458 0 005 5z"/>
  <path fill="#4d2a15" d="M332 247v-3a458 458 0 00-5-10h-1l-2-1-2-2 1 3v2l3 6 6 5zm4-5l1-1v-5l-3-9-1-1-2-1 1 6 3 8v2l1 1z"/>
  <path fill="#202020" d="M328 244l-4-4-2-3h-1l-3-2 4 5c4 5 6 4 6 4z"/>
  <path fill="#8b441f" d="M334 245c2 0 1-5 0-9l-3-6 3 8v3l-1-3-2-3 2 9-5-10h-1s4 12 7 11z"/>
  <path fill="#4d2a15" d="M337 221l2 5 1 4v4l-1 7-1-1a2729 2729 0 01-2-8l-2-9h1v-1h1l1-1z"/>
  <path fill="#8b441f" d="M332 247v-2h-2l-1-3v-1l-2 1-4-6-1 1s6 11 10 10z"/>
  <path fill="#202020" d="M329 242l1-3-3-5h-1a10 10 0 01-2-1 38 38 0 005 9zm3-2l-2-7-2-4v4l2 2 2 5zm5-6l-1-6-1-5 2 2-1-3v-1h-1v2l-1-1v5l1 3 2 4zm3 0l-1-9-2-4h-1l3 6 1 7zm-6 2l-1-7a83 83 0 01-1-3l-1-1 1 3v2l1 2a26 26 0 011 4z"/>
  <path fill="#904720" d="M337 243v-8l-3-8 3 10c-1 1-2-3-2-3l1 7-1-1v1l2 2zM339 240l-1-8-2-8 2 8 1 9-1-1v-1l1 1z"/>
  <path fill="#312317" d="M329 247l-1 2-3-3 3 2v-3l1 2z"/>
  <path fill="#d2a567" d="M334 220h3a4 4 0 001-3v-3l1 3c0 1 0 4-3 5h-1l-1-2z"/>
  <path fill="#8f4620" d="M332 215l2 5 1 3-1-1-2-7z"/>
  <path fill="#1e2121" d="M304 218l11 15 13-15-8-8z"/>
  <path fill="#4d2a15" d="M318 209l-1 2 1 4 2 2 3 2v-2l1-2h2l1-1 2-3v-2h-1l-2-5-1 2h-1l-2-1-1 3-3-1z"/>
  <path fill="#5c3818" d="M323 219l1-2v-6l-2-4s2 3 1 7l-1 5h1zM324 213s1 2 2 1v-5l-1-3v-1l1 4c1 1 2 5 0 6-1 1-2-2-2-2z"/>
  <path fill="#8f4620" d="M318 215l1-1h1l1 2 1 2 1 1v1h-1l-3-2-1-1v-3z"/>
  <path fill="#d2a567" d="M322 236c-1 1-3 0-4-1l-6-7-1-3 2 1 4-2v-1l5-3 3-1h5l2-3 2 5-1 5-2-1v6l-4-2v5a10 10 0 01-5-3s1 5 0 5z"/>
  <path fill="#8f4620" d="M321 230l1 1v4l-2-3-3-4 4 2zm11-13s2 8 1 8l-4-3-4-6-1-1v-1l2 1 6 2zM318 232c-1 1-1-1-2-1l-3-3a12 12 0 01-2-3l-1-1 1-1h1l5 5 1 4zm8 0l-5-4-4-5v-2h1l8 11zm1-3l-3-2v-3l3 5zm2-1l-4-5-2-2-1-1h1v-1l1-1 5 8v2z"/>
  <path fill="#ab6d29" d="M318 235h-1a21 21 0 01-10-7l-3-5 1-2 10 11 3 3z"/>
  <path fill="#8f4620" d="M318 235h-1l-7-5a33 33 0 01-5-7v-2l1-1 7 10 5 5z"/>
  <path fill="#4d2a15" d="M325 231l-4-3a24 24 0 01-3-6l1-1v-2l2 1 2 3 1 1 1 4-2-2 2 5zm-4-1v1h-1a16 16 0 00-2-3l-1 2-3-3-2-4v-5 2l4 4h1l2 4 2 2zm-14-7l6 8a17 17 0 005 4l-8-10-3-1zm22 3a12 12 0 01-3-3l-2-5v-3l4 4 1 3-2-1c-1 1 2 5 2 5zm3-3l-2-2a15 15 0 01-1-3l-1-3v-4h1l2 3 1 3v6zm-23 8a42 42 0 01-4-6l-1-3 1 1s1 3 5 7l4 4 1 3-6-6z"/>
  <path fill="#202020" d="M314 236l-6-6a47 47 0 01-5-7l1-1a46 46 0 0010 14zm4-1l-6-6-3-5 2 1 2 4 5 6zm0-7l-4-4-2-4 4 3h1v5zm0-11v4a16 16 0 004 4l-2-2-1-3 2 1 3 3-2-4a54 54 0 00-4-3zM327 223l-2-4-1-6v3l-1 4h-1 1l1-2 1 3 2 2z"/>
  <path fill="#202020" d="M324 213s2 3 3 2v-4h2v-2l3 6 2 6-3-6-2-4a5 5 0 00-1 3l2 4 1 3-2-2-1-2-2-1-2-1v-2z"/>
  <path fill="#171717" d="M317 223a27 27 0 004 7l-3-3a16 16 0 01-1-4z"/>
  <path fill="#8f4620" d="M330 224h-1l1 2 1 1v-3h-1z"/>
  <path fill="#d2a567" d="M306 209l-1 1-2 3 1 5 2 3c1 2 3 5 4 4l2-3v-3l1 2 3 2 2-3-4-10-1-1h-7z"/>
  <path fill="#ab6d29" d="M315 217l1 4v2l2-4v-6-5l-1-1-2 4v6zm-7-2l1 5 1 3 2-4-1-5-1-5-2 6z"/>
  <path fill="#45392d" d="M303 208s-4 4-3 7l1 4 1 6v-1l1-17z"/>
  <path fill="#ab6d29" d="M303 208s-3 4-3 7l1 4 1 5h2l2-3-1-2a8 8 0 01-1-2l-1-1 1-4v-4h-2z"/>
  <path fill="#dbad6c" d="M317 215h-2v-2l2 2z"/>
  <path fill="#d2a567" d="M303 209l-2 7 2 6v-9l1-3v-2h-1z"/>
  <path fill="#8f4620" d="M308 210v1l-2 2-1 3 1-2h1l1 2-1 2v2-2l1-1 1 2v-2l1-2c1 0 1 0 0 0v-5h2a11 11 0 00-2-3l-2 3z"/>
  <path fill="#dbad6c" d="M317 218h-1l-1-1h1l1 1z"/>
  <path fill="#8f4620" d="M304 219v1l-1 2v-6l-1 1v-3l1-2-1 1a31 31 0 00-1 1l1-2 2-2v-2h1l1 2-1 1-1 3v5zm10-9v2l-1 2-1 3 1-2v-1l1 2 1 2v-1h1l1 1-1-1-1-1v-3l1 1 1 1v-4-2-1l-3 2z"/>
  <path fill="#1e2121" d="M325 206a24 24 0 001 7l-1-3-2-4-1 2 1 4-1-3-1-2v2l1 3-1-1v-1 2l1 2-1-1-1-1 1 3 2 3-2-2c-1-2-2-8-1-9l1-1 1-5 1 4 2 1zm-9-1l1 1v1l-2 2-3 2v-1l2-2a7 7 0 002-2v-1zm-11 4l1 2 4-3 1-1-1-1-4 3h-1zm0-3v2l-2 1v-2h1l1-1zm21-4l1 4 1 2-1-1-2-1 1-2v-2z"/>
  <path fill="#dbad6c" d="M302 207h2l1-1v2l1 1a4 4 0 002-1l2-2 1 3h2l2-2 1-1 1-1 1-6v-1l-2 1-1-1h-1l-1 1-1 1h-2v-1l-1-1-2 3h-2l-1 2-1 1-1 2v1z"/>
  <path fill="#8f4620" d="M314 202l-1 3-1 4 3-4 1-6-2 3zm3-3v2l-1 4 1 2 1 1 3-2 1-3 1 2 2 1 1-1-2-4-1-4-1-2-3 1-2 3z"/>
  <path fill="#ab6d29" d="M322 195l1 4-1 4v-4l-1-3 1-1z"/>
  <path fill="#4d2a15" d="M326 203v2c-1 1-2-1-2-3l-1-4-1-3h1l3 8zm-7 4s2-1 3-6l-1-6-1 7a61 61 0 01-2 4l1-1v-1 3zm-3-8l-1 2-3 2 2-3v-2l-1 2h-1v-1-1l2-2 1 2 1 1z"/>
  <path fill="#1e2121" d="M325 194a18 18 0 001 9l-2-3-1-3a3 3 0 00-1-1l-1-1 1-1v-1l1 1h2zm-6 9l1-4 1-4h-2l-1-2v3c0 2-2 3-2 3h2l1-2v6z"/>
  <path fill="#8f4620" d="M301 207l2-3 2-4h1a4 4 0 002-1 7 7 0 001-3l1 3 2 1-1 3-1 3v-3l-1 1-1 2 1-3v-1h-1l-1 1 1-1a6 6 0 011-2l1-1h-1l-1 1-1 1-1 3a17 17 0 01-1 2l-1 1 1-3 1-3h-1l-2 3-1 3h-1z"/>
  <path fill="#874f20" d="M326 192l-1 2a4 4 0 01-3-1v-1h4z"/>
  <path fill="#b27129" d="M306 195l-1 2-1 3h1l1-4v-1z"/>
  <path fill="#dbad6c" d="M318 193s0 6-2 6-2-3-2-3-1 4-3 4l-2-4-1 3c-2 2-4 1-4 1s2-2 2-5h1l1-2c1 1 4-1 4-1l1-1 1-1a4 4 0 001-1l3 2v2z"/>
  <path fill="#b27129" d="M311 187l3 3h1v3l1-1 1 5 1-4c0-2 0 0 0 0l3 3c2-1 1-3 1-4l-1-3-6-4v1l-4 1z"/>
  <path fill="#8f4620" d="M320 186l1 2v6l-3-1v-4a8 8 0 01-1-3v-2h1l2 2z"/>
  <path fill="#4d2a15" d="M320 185l2 3 3 4h1a3 3 0 01-3 1l-2-5-3-3 1-1 1 1z"/>
  <path fill="#1e2121" d="M318 182l3 4 3 4 2 2h-2a5 5 0 01-1-2 35 35 0 00-2-4l-3-2 2 3a7 7 0 011 3l-1-2-3-3 2 2 1 4-2-3-2-2-1-2h2l1-2z"/>
  <path fill="#8f4620" d="M312 187h4v1l-1 2v-1l-3-2z"/>
  <path fill="#b27129" d="M313 191v3c0 3-1 5-2 5v-4l-1 1 1-2v-1l1-2h1z"/>
  <path fill="#8f4620" d="M310 192l-1 1-1 1v1l-2 3 3-3 1-1 1-1v1l1 2 1-2v-3h-1l-1-1-1 2z"/>
  <path fill="#dbad6c" d="M318 181v2l-2 1a5 5 0 01-1-1l-4-1-2-1h-1v-1h3l3 1 1 1h2l1-1z"/>
  <path fill="#ab6d29" d="M318 181v1h-2l-4-1-3-1h-1 5l4 1h1z"/>
  <path fill="#4d2a15" d="M308 180h1v-1 1h-1z"/>
  <path fill="#dbad6c" d="M315 184l1 3-2-1-5-2-2-1v-1l1-1 2 1 3 1 2 1z"/>
  <path fill="#dbad6c" d="M312 186l2 4-5-3-2 3-5-2 4-4h3l3 1v1z"/>
  <path fill="#ab6d29" d="M311 182l3 1 3 1h-2l-2-1-2-1z"/>
  <path fill="#4d2a15" d="M308 181h3v1l-2-1-1 1v-1z"/>
  <path fill="#ab6d29" d="M315 186l1 1h-1a3 3 0 01-2 0l-3-2a18 18 0 00-3-1h-1l1-1 3 1 3 1 2 1zm-5 2l1 3-1 1-1 1v-1h-1v-1l-2-1 2-2v-1l2 1z"/>
  <path fill="#4d2a15" d="M307 183h1l3 1h1-1l3 1a6 6 0 012 1l-2-1a17 17 0 00-3-1h-5 1v-1z"/>
  <path fill="#ab6d29" d="M314 190v1l-3-1-1-1a14 14 0 00-2-2c-1 0 0 0 0 0l4 1a13 13 0 012 2z"/>
  <path fill="#4d2a15" d="M314 190l-5-3 1-1h-2l-3-1v1l-1 1a5 5 0 013-1l1 2-2 2 2-2 1 1v-1l-1-1 3 1 3 2z"/>
  <path fill="#dbad6c" d="M308 187s3 1 3 4-2 2-3 1l1 1 1-3-1-2a12 12 0 00-1-1z"/>
  <path fill="#6c3f18" d="M296 180v2l-3 4-3 4 1 1 5-6 1-4-1-1z"/>
  <path fill="#dbad6c" d="M306 176l1 5c0 3-5 6-5 6l-6 4h-4-1v-2l1-1 2-2 2-2v-2-2l1 1v4l1-2 3-1 1-1v-6h1v2l1 3 1-1 1-2v-1z"/>
  <path fill="#904720" d="M307 192v2l-1 2v-2l-2-1-1-1 2-1 2 1z"/>
  <path fill="#ab6d29" d="M306 192h1v-1 1l-2-1h-2 1l1 1h1z"/>
  <path fill="#904720" d="M297 188h1l3-1 2-2c1 0 3-2 4-5l-1-4s4 3 1 8c-2 3-4 3-4 3h4l-1 3 3 1h-4l-3 1h-5l-4-1 1-2c1-2 3-1 3-1z"/>
  <path fill="#ab6d29" d="M304 180l2-3v-1 2l-2 2z"/>
  <path fill="#904720" d="M303 177s1 4 0 6-6 4-6 4 4-2 5-5l1-4v-1z"/>
  <path fill="#1e2121" d="M298 188l3-1 2-2-1 1h-1l-1 1-2 1zm4-6l1-4-1-3 1 3-1 4zm2 1l2-2v-2 2l-2 2zm-1 9l2-1 1 1-2-1-1 1zm-3-3l4-1 3-1-3 3-3 1 3-2h-4z"/>
  <path fill="#fff" d="M296 186a3 3 68 01-3 4"/>
  <path fill="#f16e16" d="M296 186a2 2 68 01-3 4"/>
  <path d="M295 187a1 1 0 11-1 2"/>
  <path fill="#d5d3ca" d="M295 189v-1 1z"/>
  <path fill="#ab6d29" d="M297 184l2-3v-4l1 2v4l1-1c1-1 2-5 1-7v4c0 3-1 3-3 5a10 10 0 00-4 4 19 19 0 01-2 3l1-3 2-3 1-1z"/>
  <path fill="#904720" d="M296 185l1-3-1-2 1 2-1 3z"/>
  <path fill="#4d2a15" d="M299 183l1-3-1-2 1 2-1 3z"/>
  <path fill="#ab6d29" d="M292 191v-1l1-3a13 13 0 003-2v-5s1 2-1 4a16 16 0 01-3 4l-1 2v1h1z"/>
  <path fill="#6c4119" d="M306 196v-1-1a3 3 0 00-2-1l-2-1 1 1 2 1 1 2z"/>
  <path fill="#6c4119" d="M306 196l1-2v-2l1 1s-1 3-3 3z"/>
  <path fill="#bf802d" d="M295 195l1 1 1 1 3-1 1-1-1-2h-2l-3 2z"/>
  <path fill="#f9c83a" d="M304 194l-1-1-1-1h-4l-1 1a22 22 0 01-3-1l-2-1h-1l-2 1v1c1 0 0 0 0 0s-3 1-4 4c0 3 5 7 7 5 0 0-3-2-2-4 0-1 2-3 4-3l3-1c1 0 3-1 4 1 1 1-5 2-5 2l1 1s7-2 7-4z"/>
  <path fill="#fcf3d8" d="M289 201s-3-1-3-4c1-3 4-4 4-4l1-2a2 2 0 012 1h1s-5 3-5 6v3z"/>
  <path fill="#fdeaaf" d="M304 194h-1c0-1-2-2-3-1h-5l-4-2-1 1h-1l2-1 6 1h3l4 2z"/>
  <path fill="#513625" d="M295 196l2-1 3-1-2 2h-3z"/>
  <path fill="#f9c83a" d="M291 202l-3-1c-2-1-2-3-2-3s-1-2 1-4l2-1-2 1v2l-1 1v1l1 2 2 1 2 1z"/>
  <path fill="#8b5122" d="M290 191v1-1 1-1h-1 1-1 1-1 1-1 1-1 1-1 1-1a5 5 0 000 1v1h2l-1-1v1a1 1 0 01-1 0v-1a3 3 0 011 0v-1h-1l1 1z"/>
  <path fill="#f9c83a" d="M295 194l-4 1h5c1 0 4-2 5 0l-5 2 4-1 2-1v-1l-1-1h-3l-1 1h-2z"/>
  <path fill="#8f4620" d="M290 200l1 2h-1c-2 0-3-1-4-4v2l1 1 2 1h3l-1-1-2-2 1 1z"/>
  <path fill="#fcca3d" d="M302 233v1h-1v-2zm-5-35l-1-1h-1l2 2z"/>
  <path fill="#816c2a" d="M302 236l-2-1a10 10 0 00-2-1l2 1a14 14 0 012 1zm0-4h-3a4 4 0 00-1 1 4 4 0 012 0 23 23 0 012 0v-1zm0-2l-3 1-2 1 1 1v-1a17 17 0 013-2h1zm-2-3v1a9 9 0 01-1 1 86 86 0 01-2 3 220 220 0 002-3l1-1v-1zm-2-1a4 4 0 010 2l-1 2-1 1v1l2-4v-1a4 4 0 000-1zm-2 0a9 9 0 000 1l-1 1v3l1-2v-4zm-2 0v3a52 52 0 00-1 2h1v-2-3zm-2 0a13 13 0 000 3 14 14 0 000 2 23 23 0 011-2v-3h-1zm-1 0a9 9 0 010 2l-1 2v1l1-3a9 9 0 000-2zm-2 0v3a6 6 0 01-1 1 10 10 0 01-1 1l2-2 1-2v-1h-1zm-1 0a7 7 0 01-1 2l-1 1a12 12 0 01-1 0l1 1 2-2a8 8 0 001-2h-1zm-1-1a6 6 0 01-1 1l-1 1h-1l1 1v-1h1l1-1v-1zm-1-1l-1 1a7 7 0 010 1h-1 1l2-2h-1zm0-1v1h-1a2 2 0 01-1 1h1l1-1v-1zm0 0h-2a2 2 0 010 1l2-1zm-1-2v1h-1v1a2 2 0 001-1 4 4 0 001 0l-1-1zm0-2v1l-1 1 1-1a8 8 0 011-1h-1zm11-13h2-2zm0-1h2v-1a1 1 0 011 0h-1l-1 1h-1zm0-1h1l1-1h1v-1h-1l-1 1a3 3 0 01-1 1zm0-1l1-1 2-2-2 1-2 1 1 1zm-1-2l3-2-1-1-3 3zm-2-2a21 21 0 013-2l-1 1-2 1zm-1-1a124 124 0 013-1v-1a113 113 0 00-3 2v1z"/>
  <path fill="#78732e" d="M295 195v1a17 17 0 012 2l2 4v1a10 10 0 01-3 5l-7 6a18 18 0 00-3 3 6 6 0 00-1 4 6 6 0 001 3 4 4 0 004 2l6-1 4 2c2 2 2 4 2 6v4a26 26 0 01-1 2l1-6c0-2 0-4-2-6a6 6 0 00-4-2l-6 1a4 4 0 01-3-2 6 6 0 01-1-3c0-2 0-3 2-5l7-6c2-2 4-4 4-7v-1l-2-5a17 17 0 00-2-2h-1z"/>
  <path fill="#a8ac71" d="M292 198h-1l1 1zm1 1z"/>
  <path fill="#78732e" d="M295 201h-1zm1 2l-1-1v1zm0 1zm0 2v-1 1zm0 1v-1 1zm-12 14v-1 1z"/>
  <path fill="#fff" d="M284 222v1-1z"/>
  <path fill="#78732e" d="M284 224z"/>
  <path fill="#fff" d="M284 225zm0 1zm1 2v-1h-1l1 1z"/>
  <path fill="#a8ac71" d="M286 230l-1-1 1 1zm1 1c-1-1 0 0 0 0zm10 1c-1 0 0 0 0 0z"/>
  <path fill="#fff" d="M298 233l-1-1h1z"/>
  <path fill="#a8ac71" d="M298 233zm0 1z"/>
  <path fill="#fff" d="M297 236l1-1h-1v1zm-14-52z"/>
  <path fill="#f9c83a" d="M295 195z"/>
  <path fill="#8f4620" d="M295 195h-1 1z"/>
  <path fill="#977c2e" d="M301 239h0z"/>
</svg>
