<svg xmlns="http://www.w3.org/2000/svg" id="flag-icons-my" viewBox="0 0 640 480">
  <path fill="#c00" d="M0 0h640v480H0z"/>
  <path fill="#fff" d="M1 40h639v38H1zm0 79h639v38H1zm0 78h639v39H1z"/>
  <path fill="#006" d="M0 1h320v280H0z"/>
  <path fill="#fc0" d="M208 74l6 41 23-34-13 39 36-21-28 30 41-3-39 15 38 14-40-3 28 30-36-21 12 40-23-34-6 40-5-40-23 34 12-40-36 21 28-30-41 3 39-14-38-15 41 3-29-30 36 21-12-40 23 35zm-34 1a71 71 0 100 131 80 80 0 110-130z"/>
  <path fill="#fff" d="M1 276h639v39H1zm0 78h639v39H1zm-1 88h639v38H0z"/>
</svg>
