<svg xmlns="http://www.w3.org/2000/svg" id="flag-icons-nc" viewBox="0 0 640 480">
  <path fill="#009543" d="M0 0h640v480H0z"/>
  <path fill="#ed4135" d="M0 0h640v320H0z"/>
  <path fill="#0035ad" d="M0 0h640v160H0z"/>
  <circle cx="240" cy="240" r="157" fill="#fae600" stroke="#000" stroke-width="5"/>
  <path stroke="#000" stroke-width="6" d="M213 264h54m-54-40h54M240 83v269"/>
  <path d="M177 384c64 27 124 2 124 2s-23-25-34-34c-12-10-45-9-57 0a489 489 0 00-33 32z"/>
  <ellipse cx="240" cy="313" rx="18" ry="26"/>
  <ellipse cx="240" cy="244" rx="21" ry="14"/>
  <circle cx="240" cy="181" r="21"/>
  <path d="M266 102s1 3-2 10c-19 33-38 34-41 37l-6 3 1-16c3-15 26-15 45-31l3-3zm-63 72s5 12 5 24c1 19 19 20 32 20v-11c-9 0-18-1-24-15a123 123 0 00-13-18zm0 155s6-9 14-28c4-10 14-16 23-16v-15c-20 0-30 7-31 18a329 329 0 01-6 41zM277 174s-4 12-5 24c-1 19-19 20-32 20v-11c10 0 18-1 25-15 3-7 7-13 12-18zm0 155s-6-9-14-28c-4-10-14-16-23-16v-15c20 0 30 8 31 19a329 329 0 006 40z"/>
</svg>
