<svg xmlns="http://www.w3.org/2000/svg" id="flag-icons-nf" viewBox="0 0 640 480">
  <g fill-rule="evenodd">
    <path fill="#fff" d="M195 0h250v480H195z"/>
    <path fill="#198200" d="M0 0h195v480H0zm445 0h195v480H445z"/>
    <path fill="#198200" stroke="#000" stroke-linecap="round" stroke-linejoin="round" d="M314 351v53h21s-7-46-3-52c3-6 7-5 7-5s14 4 15 3c2 0 0-5 7-4 3-1 2-5 4-5 2-1 44 11 53 0-2-6-10 0-12 0s-11-4-16 0c-4-3-24-6-24-6-3-2 48 2 51 0 5-6-11-6-14-4a15 15 0 00-14 0c-2-4-18-3-27-4-3-2-3-3-1-4 19 1 38 4 57 3 5-7-6-9-14-4-4-7-12 0-18-1-6 0-3-7 4-6s20-1 23-4-2-7-14-3c-4-4-13 0-17 1-5-3-18 0-22 1-5-3 22-7 22-7l20-3c15-9-1-9-9-3-5-4-10 0-14 1a38 38 0 01-14 2l13-8 18-1c3-1 19-9-3-3h-14c-17-2 1-3 1-3s24-3 24-4c0-9-19-5-19-5 0-6-18 1-18 0-4-2 2-4 2-4 4-1 12-1 13-3 0 0 14 0 16-3-4-10-29 1-33 3-4 0 3-8 4-8 0 0 21-1 31-14 0-8-12 4-12 4-1-10-13 1-21 2-7 1-7-4-2-4 5-1 11 0 14-8 2-8 11 0 13-2 1-3-4-6-4-6s7-6-4-6l-23-1s11-5 21-4c10 0 4-8-5-8-10 0-15-3-15-3l16-6-1-5s10-7-4-6l-15 2-27 5s-8-3-1-4 32-7 36-6-1-9-14-10c-13-2-21 3-21 3s-9-3-1-6c8-2 21 1 21 1s14-4 2-6c-11-2-15 2-20 2-3-3 18-3 19-6-2-4-15 0-22 0-3-1-3-3 0-4l22-1v-12c-10-2-21 1-26 1 1-5 22-6 24-7 5-6-20 0-20 0-4-1-4-3-1-5 6-1 20 1 19-3s-10-2-13-1h-10c-2-3 22-2 22-5-1-2-16 0-21 0-4-3 19-5 20-5 1-7-16 0-19 0s-1-5-1-5l6-3a22 22 0 00-5-2v-5s5-4 4-5l-6 1v-5s4 0 5-2c0-2-5-2-5-2l-2-23-2 21-8 1s6 3 7 6c0 3-7 2-7 2l6 7c1 1-7 2-7 2s7 5 7 8v4s-12-10-19-7c-4 2 9 3 17 10 0 2-20-5-21-1 0 1 22 5 23 7-7 1-24-1-23 1-2 3 15 2 22 4 2 2 2 4-1 5-7-4-22-6-23-2 1 1 16 0 22 4-8 2-33-3-34-1 1 1 5 7 12 6 7 0 24 3 25 5 1 3-21-4-30 0-8 4 24 1 29 6 6 5-10 0-10 0s-22-3-25-2l-7 5s2 5 4 4-1 2-1 2 31 8 38 14c7 7-39-10-39-10s-19 7 1 7c-2 4 1 6 1 6s32 6 36 12c3 5-22-5-28-8s-22 2-22 3 8 2 8 4c1 2-9 3-9 5 0 1 41 10 52 19s-32-11-32-11 2 3 0 4c-3 1-11-12-25-4-3 4 12 6 16 7-2 3-3 4 2 7l-10-4 1 6c-5-4-10-6-16-2 0 0 0 4 6 7-4 6 3 4 14 10-16-4-17 4-6 5s42 3 49 13c7 9-10-4-12-4l-1 5c-5-3-9-6-15-7l-1 3c-5-3-9-6-16-6l-1 3s-6-8-19 0c-6 5 26 2 31 8 5 5 1 6 1 6l-13-5s-15-2-20 1 64 12 66 22c2 5-16-6-31-10l-2 5s-6-6-12-7l1 6s-17-8-26-4c-8 4 30 6 34 10 3 4-12-2-13 0-1 3-20-5-20-1 0 3 3 5 3 5s39 4 40 9c1 4-22-3-22-3s-2 3 0 5c2 1-13-9-12-2-5-2-17-8-15-3 1 4 35 11 35 11s-15 1-14 5c-19-12-19-5-18-4 0 0-25-6-6 4s10 8 10 8l2 5-17-7c-4 0-24 6-3 15s34-2 46-1c11 1 17 3 16 7s-12-12-23 2c-13-3-22-4-15 5-21-8-34 2-8 7 26 0 42-7 42-7s5 8 11 3c6-6 7 2 7 2l6-3h2z"/>
    <path fill="#fff" stroke="#000" stroke-linecap="round" stroke-linejoin="round" d="M316 320v-4s-8-1-12 0c-3-1-5-3-8-2l7 4a41 41 0 0013 2zm0 6s-8-3-12 1c1 3 10 5 12 4s0-5 0-5zm14 2v2s10 2 12 0c1-2-8-3-12-2zm0-11v3s8 2 12-3c3-4-8 0-13 0zm0-10v2s6 1 8-1c1-3-8 0-8-1zm-14-6c0-1-4-4-13-5-7 0 11 9 13 5zm14-9l-1 2s23-6 28-6c4-1 5-4 5-4-4-3-23 2-32 8zm0-8v2s15-2 20-5c4-3-20 3-20 3zm0-8v3s10-1 12-3c1-2-9 0-12 0zm21 22s6 1 7-1c-1-3-7 1-7 1zm-21-31v5l27-9c1-1 5-6-27 4zm-1-8v4s10-1 15-5c5-3-15 1-15 1zm-12-10l1 4-33-10s-2-6 32 6zm1-13v4s-23-10-24-9c-3-7 24 5 24 5zm11 6v3s14-3 15-4l-15 1zm0 8l1 3 6-2c1-1-7-1-7-1zm-1-17v3l17-5-17 2zm0-9v3s19-3 22-6c3-2-21 3-21 3zm0-15v3s12-2 14-5c2-2-14 2-14 2zm-2-21v4s16-2 19-4c2-3-19 0-19 0zm-7-37v3s-8 0-6-2 6-1 6-1zm7 4v4s10-1 10-2c1-2-10-2-10-2zm-1 6l1 3 4-2c1-1-4-1-5-1zm-8 12v4l-23-6c-2 0-3-5 23 2zm2 7l-1 4s-14-4-12-6c1-1 13 2 13 2zm-1 29v3l-25-8c-1-1-3-7 25 5zm1 8v4l-33-12s-2-8 32 8z"/>
    <path fill="#fff" stroke="#000" stroke-linejoin="round" d="M280 329v3s-6-2-8-5c4-1 8 2 8 2z"/>
  </g>
</svg>
