<svg xmlns="http://www.w3.org/2000/svg" id="flag-icons-nr" viewBox="0 0 640 480">
  <defs>
    <clipPath id="a">
      <path d="M-55 0h683v512H-55z"/>
    </clipPath>
  </defs>
  <g fill-rule="evenodd" clip-path="url(#a)" transform="translate(51) scale(.9375)">
    <path fill="#002170" d="M-140 0H884v512H-140z"/>
    <path fill="#ffb20d" d="M-140 234H884v44H-140z"/>
    <path fill="#fff" d="M162 438l-33-33-11 45-12-45-32 34 13-45-45 14 33-33-45-11 45-12-34-32 45 12-14-44 33 33 11-45 12 45 31-34-12 45 45-14-33 33 45 11-45 12 34 32-45-13z"/>
  </g>
</svg>
