<svg xmlns="http://www.w3.org/2000/svg" xmlns:xlink="http://www.w3.org/1999/xlink" id="flag-icons-nz" viewBox="0 0 640 480">
  <defs>
    <g id="b">
      <g id="a">
        <path d="M0 0v1l1-1z"/>
        <path d="M0 0h1z" transform="rotate(-36 1 0)"/>
      </g>
      <use xlink:href="#a" transform="scale(-1 1)"/>
      <use xlink:href="#a" transform="rotate(72 0 0)"/>
      <use xlink:href="#a" transform="rotate(-72 0 0)"/>
      <use xlink:href="#a" transform="scale(-1 1) rotate(72)"/>
    </g>
  </defs>
  <path fill="#00247d" fill-rule="evenodd" d="M0 0h640v480H0z"/>
  <g transform="translate(-111 36) scale(.66825)">
    <use xlink:href="#b" width="100%" height="100%" fill="#fff" transform="matrix(45.4 0 0 45.4 900 120)"/>
    <use xlink:href="#b" width="100%" height="100%" fill="#cc142b" transform="matrix(30 0 0 30 900 120)"/>
  </g>
  <g transform="rotate(82 525 115) scale(.66825)">
    <use xlink:href="#b" width="100%" height="100%" fill="#fff" transform="rotate(-82 519 -458) scale(40.4)"/>
    <use xlink:href="#b" width="100%" height="100%" fill="#cc142b" transform="rotate(-82 519 -458) scale(25)"/>
  </g>
  <g transform="rotate(82 525 115) scale(.66825)">
    <use xlink:href="#b" width="100%" height="100%" fill="#fff" transform="rotate(-82 669 -328) scale(45.4)"/>
    <use xlink:href="#b" width="100%" height="100%" fill="#cc142b" transform="rotate(-82 669 -328) scale(30)"/>
  </g>
  <g transform="translate(-111 36) scale(.66825)">
    <use xlink:href="#b" width="100%" height="100%" fill="#fff" transform="matrix(50.4 0 0 50.4 900 480)"/>
    <use xlink:href="#b" width="100%" height="100%" fill="#cc142b" transform="matrix(35 0 0 35 900 480)"/>
  </g>
  <path fill="#012169" d="M0 0h320v240H0z"/>
  <path fill="#fff" d="M38 0l122 91L281 0h39v31l-120 90 120 89v30h-40l-120-89-119 89H0v-30l120-89L0 32V0z"/>
  <path fill="#c8102e" d="M212 141l108 79v20l-135-99zm-92 10l3 17-96 72H0zM320 0v2L196 96l1-22 98-74zM0 0l120 88H90L0 21z"/>
  <path fill="#fff" d="M121 0v240h80V0zM0 80v80h320V80z"/>
  <path fill="#c8102e" d="M0 97v48h320V97zM137 0v240h48V0z"/>
</svg>
