<svg xmlns="http://www.w3.org/2000/svg" id="flag-icons-om" viewBox="0 0 640 480">
  <defs>
    <clipPath id="a">
      <path d="M0 0h640v480H0z"/>
    </clipPath>
  </defs>
  <g clip-path="url(#a)">
    <path fill="#ef2d29" fill-rule="evenodd" d="M-3-22h702v553H-3z"/>
    <path fill="#009025" fill-rule="evenodd" d="M175 317h535v208H175z"/>
    <path fill="#fff" fill-rule="evenodd" d="M175-35h565v190H175z"/>
    <g stroke="#ef2d28">
      <g fill="#fff" fill-rule="evenodd" transform="matrix(.19848 0 0 .17744 111 -13)">
        <rect width="138" height="85" x="18" y="468" rx="11" ry="12"/>
        <rect width="131" height="78" x="21" y="471" rx="11" ry="11"/>
        <path d="M65 396l10 1v5l8 6 6-7 8 5-7 6 2 8h8v10h-7l-3 6 8 8-6 6-7-7-10 3 1 10-11 1-1-10-9-5-5 7-8-5 5-7-5-5h-8v-14l7 1 5-8-6-6 8-7 6 6 10-2 1-6z" transform="matrix(.68108 0 0 .5852 38 261)"/>
        <ellipse cx="69" cy="427" rx="11" ry="10" transform="matrix(.65819 0 0 .70224 39 210)"/>
        <path d="M39 475l-11 10m18-10l-11 10m18-10l-10 10m17-10l-10 10m17-10l-10 10m17-10l-10 10m17-10l-10 10m18-10l-11 10m18-10l-11 10m18-10l-11 10m18-10l-11 10m18-10l-11 10m-17-10l-11 10m46-10l-11 10m18-10l-11 10m18-10l-10 10m17-10l-10 10m0-10l10 10m-17-10l10 10m-18-10l11 10m-18-10l11 10m-18-10l11 10m-18-10l11 10m-18-10l11 10m-18-10l11 10m-18-10l10 10m-17-10l10 10m-17-10l10 10m-17-10l10 10m18-10l11 10m-46-10l10 10m-18-10l11 10m-18-10l11 10m-18-10l11 10m0 50l-11 11m18-11l-11 11m18-11l-10 11m17-11l-10 11m17-11l-10 11m17-11l-10 11m18-11l-11 11m18-11l-11 11m18-11l-11 11m18-11l-11 11m18-11l-11 11m18-11l-11 11m-17-11l-11 11m46-11l-11 11m18-11l-11 11m18-11l-10 11m17-11l-10 11m0-11l10 11m-17-11l10 11m-17-11l10 11m-18-11l11 11m-18-11l11 11m-18-11l11 11m-18-11l11 11m-18-11l11 11m-18-11l11 11m-18-11l11 11m-18-11l10 11m-17-11l10 11m18-11l11 11m-46-11l10 11m-17-11l10 11m-18-11l11 11m-18-11l11 11"/>
      </g>
      <g fill="#fff" fill-rule="evenodd" transform="matrix(.19848 0 0 .17744 19 -14)">
        <rect width="138" height="85" x="18" y="468" rx="11" ry="12"/>
        <rect width="131" height="78" x="21" y="471" rx="11" ry="11"/>
        <path d="M65 396l10 1v5l8 6 6-7 8 5-7 6 2 8h8v10h-7l-3 6 8 8-6 6-7-7-10 3 1 10-11 1-1-10-9-5-5 7-8-5 5-7-5-5h-8v-14l7 1 5-8-6-6 8-7 6 6 10-2 1-6z" transform="matrix(.68108 0 0 .5852 38 261)"/>
        <ellipse cx="69" cy="427" rx="11" ry="10" transform="matrix(.65819 0 0 .70224 39 210)"/>
        <path d="M39 475l-11 10m18-10l-11 10m18-10l-10 10m17-10l-10 10m17-10l-10 10m17-10l-10 10m17-10l-10 10m18-10l-11 10m18-10l-11 10m18-10l-11 10m18-10l-11 10m18-10l-11 10m-17-10l-11 10m46-10l-11 10m18-10l-11 10m18-10l-10 10m17-10l-10 10m0-10l10 10m-17-10l10 10m-18-10l11 10m-18-10l11 10m-18-10l11 10m-18-10l11 10m-18-10l11 10m-18-10l11 10m-18-10l10 10m-17-10l10 10m-17-10l10 10m-17-10l10 10m18-10l11 10m-46-10l10 10m-18-10l11 10m-18-10l11 10m-18-10l11 10m0 50l-11 11m18-11l-11 11m18-11l-10 11m17-11l-10 11m17-11l-10 11m17-11l-10 11m18-11l-11 11m18-11l-11 11m18-11l-11 11m18-11l-11 11m18-11l-11 11m18-11l-11 11m-17-11l-11 11m46-11l-11 11m18-11l-11 11m18-11l-10 11m17-11l-10 11m0-11l10 11m-17-11l10 11m-17-11l10 11m-18-11l11 11m-18-11l11 11m-18-11l11 11m-18-11l11 11m-18-11l11 11m-18-11l11 11m-18-11l11 11m-18-11l10 11m-17-11l10 11m18-11l11 11m-46-11l10 11m-17-11l10 11m-18-11l11 11m-18-11l11 11"/>
      </g>
      <path fill="#fff" fill-rule="evenodd" d="M539 532c1 166 24 202 3 202s-32-93-32-206 14-205 36-205-9 31-7 209z" transform="matrix(-.32136 -.12684 -.20158 .20221 346 61)"/>
      <path fill="#fff" fill-rule="evenodd" d="M546 780l-61 17c57 61 121 85 139 75 17-11-32-36-78-92z" transform="matrix(-.19848 0 0 .17744 145 -13)"/>
      <path fill="#fff" fill-rule="evenodd" d="M547 787l-51 15c57 60 113 77 128 70 14-8-31-28-77-85z" transform="matrix(-.19334 0 0 .17062 143 -8)"/>
      <path fill="none" stroke-width="2" d="M353 634l1 10 1 8c1 2 1 4 3 5a10 10 0 005 4 28 28 0 006 4 12 12 0 008 0l6-4 1-7a33 33 0 00-1 8l2 7" transform="matrix(-.13978 0 0 .12414 123 20)"/>
      <path fill="none" stroke-width="2" d="M389 682l1-1c-1 2-1 1 3-1l8-3h8l9 2 6 4a11 11 0 014 5l4 6 3 5c-3 0-5 0-7 2l3-2 6-2c3-1 5 1 7 2l5 1" transform="matrix(-.13978 0 0 .12414 125 20)"/>
      <path fill="none" stroke-width="2" d="M438 725h10c2-1 4-2 5-5v6c0 3 2 3 3 6l6 4a18 18 0 006 3c2 1 4 1 5 3 2 1 2 3 3 5 0 3 0 5-2 7l-4 5c-1 3-3 5 1 5h5M481 772l9-3h9l7 2 5 5 5 6a26 26 0 011 8c1 4 0 5-1 8a19 19 0 01-4 8l-1 1" transform="matrix(-.13978 0 0 .12414 127 18)"/>
      <path fill="none" stroke-width="2" d="M538 818l3 4c3 3 3 3 7 3s4-2 6-3l5-6 3-5 4-5 3-2c-4 1-4 2-7 4a59 59 0 00-3 6l-1 8 1 9 5 4a37 37 0 014 5l6 4 7 2 7-2 6-5a21 21 0 005-5c3-1 5 0 7 2a17 17 0 015 4l3 2" transform="matrix(-.09924 0 0 .09799 110 39)"/>
      <path fill="none" stroke-width="2" d="M504 836l-5 3-3 7v9c0 3 2 5 3 8l5 4h16l7-2 6-4 5-5 4-6-3 7c-2 3-3 4-3 7v9l1 8v1" transform="matrix(-.12338 0 0 .12229 111 19)"/>
      <path fill="none" d="M541 799v3c-2 2-4 2-7 2-2-2-2-3-5-4-4 0-5 1-7 2a10 10 0 00-5 5c-1 2-1 3 1 4a15 15 0 007 3c3 0 5-1 6 1 2 2 2 3 2 7l1 5a11 11 0 006 2l2-8c0-2 0-5 2-7a17 17 0 014-4 8 8 0 014-3c-3 2-3 3-3 6 2 1 2 2 6 2 3 0 4-1 6-3l2 7 3 6c-1 3-2 3-2 7-1 2-1 5-3 6l-3 1c4 0 6 0 8-2l5-3a24 24 0 018-4l6 1c2 1 3 4 4 6 0 4 1 6-1 8v6c2 2 4 2 7 3l6-1" transform="matrix(-.19848 0 0 .17744 145 -13)"/>
      <g fill-rule="evenodd" transform="matrix(-.19848 0 0 .17744 145 -13)">
        <path fill="#fff" d="M532 360c0-166 8-300 17-300 10 0 18 134 18 300h-35z" transform="matrix(1.4216 -.73423 .46161 .89375 -717 541)"/>
        <path fill="#fff" d="M532 360c0-166 8-300 17-300 10 0 18 134 18 300" transform="matrix(1.1373 -.58739 .44532 .86221 -555 472)"/>
        <path fill="#fff" d="M563 301v60h-28v-60h28z" transform="matrix(1.4216 -.73423 .45889 .88849 -717 541)"/>
        <path fill="#fff" d="M560 305v53h-21v-53h21z" transform="matrix(1.4216 -.73423 .45889 .88849 -717 541)"/>
        <path fill="#fff" d="M542 312h14v39h-14zm0 0l14 39m-14 0l14-39m-14-199h14" transform="matrix(1.4216 -.73423 .45889 .88849 -717 541)"/>
        <circle cx="546" cy="92" r="4" fill="#ef0000" transform="matrix(1.6046 .45375 -.36215 1.5787 -735 -171)"/>
      </g>
      <path fill="#fff" fill-rule="evenodd" d="M539 532c1 166 24 202 3 202s-32-93-32-206 14-205 36-205-9 31-7 209z" transform="matrix(.32136 -.12684 .20158 .20221 -181 61)"/>
      <path fill="#fff" fill-rule="evenodd" d="M546 780l-61 17c57 61 121 85 139 75 17-11-32-36-78-92z" transform="matrix(.19848 0 0 .17744 19 -14)"/>
      <path fill="#fff" fill-rule="evenodd" d="M547 787l-51 15c57 60 113 77 128 70 14-8-31-28-77-85z" transform="matrix(.19334 0 0 .17062 22 -9)"/>
      <path fill="none" stroke-width="2" d="M353 634l1 10 1 8c1 2 1 4 3 5a10 10 0 005 4 28 28 0 006 4 12 12 0 008 0l6-4 1-7a33 33 0 00-1 8l2 7" transform="matrix(.13978 0 0 .12414 41 20)"/>
      <path fill="none" stroke-width="2" d="M389 682l1-1c-1 2-1 1 3-1l8-3h8l9 2 6 4a11 11 0 014 5l4 6 3 5c-3 0-5 0-7 2l3-2 6-2c3-1 5 1 7 2l5 1" transform="matrix(.13978 0 0 .12414 40 19)"/>
      <path fill="none" stroke-width="2" d="M438 725h10c2-1 4-2 5-5v6c0 3 2 3 3 6l6 4a18 18 0 006 3c2 1 4 1 5 3 2 1 2 3 3 5 0 3 0 5-2 7l-4 5c-1 3-3 5 1 5h5" transform="matrix(.13978 0 0 .12414 37 18)"/>
      <path fill="none" stroke-width="2" d="M481 772l9-3h9l7 2 5 5 5 6a26 26 0 011 8c1 4 0 5-1 8a19 19 0 01-4 8l-1 1" transform="matrix(.13978 0 0 .12414 37 17)"/>
      <path fill="none" stroke-width="2" d="M538 818l3 4c3 3 3 3 7 3s4-2 6-3l5-6 3-5 4-5 3-2c-4 1-4 2-7 4a59 59 0 00-3 6l-1 8 1 9 5 4a37 37 0 014 5l6 4 7 2 7-2 6-5a21 21 0 005-5c3-1 5 0 7 2a17 17 0 015 4l3 2" transform="matrix(.09924 0 0 .09799 55 38)"/>
      <path fill="none" stroke-width="2" d="M504 836l-5 3-3 7v9c0 3 2 5 3 8l5 4h16l7-2 6-4 5-5 4-6-3 7c-2 3-3 4-3 7v9l1 8v1" transform="matrix(.12338 0 0 .12229 53 19)"/>
      <path fill="none" d="M541 799v3c-2 2-4 2-7 2-2-2-2-3-5-4-4 0-5 1-7 2a10 10 0 00-5 5c-1 2-1 3 1 4a15 15 0 007 3c3 0 5-1 6 1 2 2 2 3 2 7l1 5a11 11 0 006 2l2-8c0-2 0-5 2-7a17 17 0 014-4 8 8 0 014-3c-3 2-3 3-3 6 2 1 2 2 6 2 3 0 4-1 6-3l2 7 3 6c-1 3-2 3-2 7-1 2-1 5-3 6l-3 1c4 0 6 0 8-2l5-3a24 24 0 018-4l6 1c2 1 3 4 4 6 0 4 1 6-1 8v6c2 2 4 2 7 3l6-1" transform="matrix(.19848 0 0 .17744 19 -14)"/>
      <g fill-rule="evenodd" transform="matrix(.19848 0 0 .17744 19 -14)">
        <path fill="#fff" d="M532 360c0-166 8-300 17-300 10 0 18 134 18 300h-35z" transform="matrix(1.4216 -.73423 .46161 .89375 -717 541)"/>
        <path fill="#fff" d="M532 360c0-166 8-300 17-300 10 0 18 134 18 300" transform="matrix(1.1373 -.58739 .44532 .86221 -555 472)"/>
        <path fill="#fff" d="M563 301v60h-28v-60h28z" transform="matrix(1.4216 -.73423 .45889 .88849 -717 541)"/>
        <path fill="#fff" d="M560 305v53h-21v-53h21z" transform="matrix(1.4216 -.73423 .45889 .88849 -717 541)"/>
        <path fill="#fff" d="M542 312h14v39h-14zm0 0l14 39m-14 0l14-39m-14-199h14" transform="matrix(1.4216 -.73423 .45889 .88849 -717 541)"/>
        <circle cx="546" cy="92" r="4" fill="#ef0000" transform="matrix(1.6046 .45375 -.36215 1.5787 -735 -171)"/>
      </g>
      <g fill="#fff" fill-rule="evenodd" transform="matrix(.19848 0 0 .17744 19 -14)">
        <path d="M306 397c0 124 0 171-6 177-6 7-167 0-167 35s133 71 173 71c53 0 79-35 79-106V397h-79z" transform="matrix(1.3333 0 0 1 -142 0)"/>
        <path d="M266 397v18a321 321 0 00106 0v-18a321 321 0 01-106 0z" transform="matrix(1 0 0 .99999 0 35)"/>
        <path d="M266 397v18a321 321 0 00106 0v-18a321 321 0 01-106 0z" transform="scale(1 .99999)"/>
        <path d="M266 397v18a321 321 0 00106 0v-18a321 321 0 01-106 0z" transform="matrix(1 0 0 .99999 0 18)"/>
        <path d="M266 397v18a321 321 0 00106 0v-18a321 321 0 01-106 0z" transform="matrix(1 0 0 .99999 0 53)"/>
        <ellipse cx="257" cy="211" stroke-width="4" rx="9" ry="27" transform="matrix(.54545 0 0 .14383 131 394)"/>
        <ellipse cx="292" cy="246" stroke-width="4" rx="9" ry="27" transform="matrix(.54545 0 0 .14383 131 391)"/>
        <ellipse cx="328" cy="264" stroke-width="4" rx="9" ry="27" transform="matrix(.54545 0 0 .14383 131 391)"/>
        <ellipse cx="363" cy="264" stroke-width="4" rx="9" ry="27" transform="matrix(.54545 0 0 .14383 131 391)"/>
        <ellipse cx="399" cy="246" stroke-width="4" rx="9" ry="27" transform="matrix(.54545 0 0 .14383 131 391)"/>
        <ellipse cx="434" cy="211" stroke-width="4" rx="9" ry="27" transform="matrix(.54545 0 0 .14383 131 394)"/>
        <path d="M266 485l106 96m-96-96l96 85m-81-81l81 71m-71-71l71 60m-60-60l60 50m-50-50l50 39m-39-39l39 28m-28-28l28 21m-18-21l18 14m-7-14l7 7m-106 0l106 96m0-107L255 593m106-107l-102 93m88-89l-81 71m71-71l-71 60m60-60l-60 50m49-50l-49 39m39-39l-39 28m28-28l-28 21m17-21l-17 14m7-14l-7 7m106 0L255 603m117-96L255 613m117-96L255 624m117-96L255 634m117-95L255 645m117-96L255 656m117-96L255 666m117-95L255 677m117-96l-110 99m110-88l-99 88m95-74l-78 71m75-57l-64 57m57-39l-32 28m-60-159l102 92m-102-82l102 92m-102-81l99 89m-99-78l99 88m-99-78l95 85m-99-78l96 85m-96-74l89 78m-92-71l88 78m-92-71l85 74m-85-63l82 71m-82-61l71 64"/>
        <path d="M266 397v18a321 321 0 00106 0v-18a321 321 0 01-106 0z" transform="matrix(1 0 0 .99999 0 71)"/>
        <path d="M255 613l64 57m-64-46l57 49m-57-39l50 43m-50-32l36 32m-36-21l28 24m-28-14l18 14"/>
        <ellipse cx="257" cy="211" stroke-width="4" rx="9" ry="27" transform="matrix(.54545 0 0 .14383 131 448)"/>
        <ellipse cx="292" cy="246" stroke-width="4" rx="9" ry="27" transform="matrix(.54545 0 0 .14383 131 444)"/>
        <ellipse cx="328" cy="264" stroke-width="4" rx="9" ry="27" transform="matrix(.54545 0 0 .14383 131 444)"/>
        <ellipse cx="363" cy="264" stroke-width="4" rx="9" ry="27" transform="matrix(.54545 0 0 .14383 131 444)"/>
        <ellipse cx="399" cy="246" stroke-width="4" rx="9" ry="27" transform="matrix(.54545 0 0 .14383 131 444)"/>
        <ellipse cx="434" cy="211" stroke-width="4" rx="9" ry="27" transform="matrix(.54545 0 0 .14383 131 448)"/>
        <path d="M113 652l128-74m-135 70l121-70m-124 63l110-63M99 634l96-56M92 627l89-49m-85 39l60-36m-64 28l46-28m-46 18l32-18m0 75l120-71m-109 74l113-67m-103 71l107-64m-96 67l89-53m-75 53l78-46m-67 50l67-39m-57 42l53-32m-39 32l43-25m-28 29l28-18m-14 18l18-11"/>
        <path d="M266 397v18a321 321 0 00106 0v-18a321 321 0 01-106 0z" transform="matrix(0 1 -.99999 0 656 308)"/>
        <path d="M50 624l42-36m-42 11l42 42"/>
        <path d="M260 388l6 27c35 6 65 6 101 0l11-27c-36 6-82 6-118 0z" transform="matrix(0 .63333 -.8 0 424 416)"/>
        <path d="M259 351v-18c-11 0-18-11-18-21h-36c0 10-7 21-17 21v18h71z" transform="matrix(1.4983 0 0 1 -16 53)"/>
        <path d="M296 344h46v21h-46zm4-22h38v22h-38zm0-21h38v21h-38zm4-28h30v28h-30zm-2-25h33v25h-33z"/>
        <ellipse cx="237" cy="161" rx="43" ry="34" transform="matrix(1.0333 0 0 1 75 64)"/>
        <path d="M259 159c0 10 10 25 10 25-7 6-20 11-32 11s-26-3-31-11c0 0 10-15 10-24s-11-22-11-22a55 55 0 0133-10c11 0 24 4 31 10 0 0-10 12-10 22z" transform="matrix(1.0333 0 0 1 75 64)"/>
        <path d="M252 159c0 10 10 29 10 29-8 6-13 7-25 7s-19 1-24-7c0 0 10-19 10-29s-10-24-10-24c7-6 13-7 24-7 12 0 17 1 25 7 0 0-10 15-10 24z" transform="matrix(1.0333 0 0 1 75 64)"/>
        <circle cx="195" cy="167" r="11" transform="matrix(1.0333 0 0 1 75 60)"/>
        <circle cx="195" cy="167" r="11" transform="matrix(1.0333 0 0 1 163 60)"/>
        <circle cx="195" cy="167" r="11" transform="matrix(1.0333 0 0 1 119 60)"/>
        <circle cx="195" cy="167" r="11" transform="matrix(1.0333 0 0 1 119 25)"/>
        <circle cx="195" cy="167" r="11" transform="matrix(1.0702 0 0 1 80 227)"/>
        <circle cx="195" cy="167" r="11" transform="matrix(1.0702 0 0 1 141 227)"/>
        <path d="M213 312h49l-25 32-24-32z" transform="matrix(1.0702 0 0 1 65 53)"/>
        <circle cx="195" cy="167" r="11" transform="matrix(1.427 0 0 1.3333 41 168)"/>
      </g>
      <g fill="#fff" fill-rule="evenodd" transform="matrix(.19848 0 0 .17744 19 -19)">
        <rect width="82" height="21" x="262" y="524" rx="4" ry="4"/>
        <path d="M369 507c-10 0-18 8-18 18v16a18 18 0 0018 19 18 18 0 0017-19v-16a18 18 0 00-18-18zm0 7c-6 0-11 6-11 15v9c0 8 5 15 10 15 6 0 11-7 11-15v-9c0-9-5-15-10-15zm-93-4c-6 0-10 7-10 15v17c0 8 4 14 10 14s11-6 11-15v-16c0-8-5-15-11-15zm0-7a18 18 0 00-17 19v23a18 18 0 0017 18c10 0 18-8 18-18v-23a18 18 0 00-18-19z"/>
        <path d="M248 517c-6 0-11 7-11 15v4c0 8 5 15 11 15s11-7 11-15v-4c0-8-5-15-11-15zm0-7a18 18 0 00-18 19v10a18 18 0 0018 19c10 0 18-8 18-19v-10a18 18 0 00-18-19z"/>
        <path d="M478 237c-6 0-10 7-10 15v17c0 8 4 15 10 15s11-7 11-15v-17c0-8-5-15-11-15zm0-7a18 18 0 00-17 19v23a18 18 0 0017 19c10 0 18-9 18-19v-23a18 18 0 00-18-19z" transform="matrix(1.8 0 0 1.1176 -655 242)"/>
        <path d="M478 237c-6 0-10 7-10 15v17c0 8 4 15 10 15s11-7 11-15v-17c0-8-5-15-11-15zm0-7a18 18 0 00-17 19v23a18 18 0 0017 19c10 0 18-9 18-19v-23a18 18 0 00-18-19z" transform="matrix(1.8 0 0 1.1176 -425 246)"/>
        <rect width="43" height="21" x="376" y="524" rx="2" ry="4"/>
        <rect width="25" height="28" x="337" y="521" rx="1" ry="5"/>
        <rect width="25" height="28" x="220" y="521" rx="1" ry="5"/>
        <rect width="50" height="35" x="142" y="517" rx="3" ry="6"/>
        <rect width="46" height="35" x="450" y="521" rx="3" ry="6"/>
      </g>
    </g>
  </g>
</svg>
