<svg xmlns="http://www.w3.org/2000/svg" xmlns:xlink="http://www.w3.org/1999/xlink" id="flag-icons-pe" viewBox="0 0 640 480">
  <path fill="#d91023" d="M0 0h640v480H0z"/>
  <path fill="#fff" d="M213 0h214v480H213z"/>
  <g fill="#00a854" stroke="#d4af37" stroke-width="2" transform="translate(245 154) scale(.17778)">
    <g id="g" stroke-width="4" transform="matrix(.44722 -.20656 .2582 .35777 89 -67)">
      <path d="M480 567c31 33 63 68 79 111 25 70 19 152-22 214a328 328 0 01-142 117 225 225 0 01-165 3c-20-7-39-18-58-28-8-2-14 8-7 13 63 41 131 42 202 28a273 273 0 0099-50 247 247 0 0055-366 488 488 0 00-45-47l4 5z"/>
      <path d="M171 983c-9-1-13 12-6 14 5-1 11-12 6-14zm304-431c-5-5-14-3-18-7-4-5 3-6 0-10-3-3-8-2-12-6-4-5-1-9-4-12-4-4-4 0-9-4s-1-13-6-19c-4-5-3-12 3-11l10 6c5 1 8-3 11 1 4 3 0 9 4 14s6 1 9 5c2 5 0 7 2 12s8 3 11 11c2 7-1 20-1 20z"/>
      <path d="M478 565c-5-26-27-57-52-80 15 12 44 41 54 80h-2z"/>
      <path d="M460 524c-4-3-7-2-10-3l9 1 1 2zm-15-19c-4-1-7 0-11 1 3-1 6-3 10-2l1 1zm4 4c-2-6-2-10-2-14l1 12 1 2zm14 18l-3-14 1 13 2 1zm92 155c-8-3-17 0-24-2-7-3 1-9-4-11-6-2-10 6-18 3-8-2-6-10-12-11-7-1-7 7-14 5-8-2-8-12-16-16-9-3-9-11-2-13 6-1 11 2 18 0s7-9 13-7c7 1 5 10 12 13s11-5 17-2c5 3 0 10 4 14 5 4 8-2 14 4 7 7 12 23 12 23z"/>
      <path d="M564 692c-23-26-59-42-102-50 25 3 76 15 105 50h-4z"/>
      <path d="M524 662c-6-1-11 1-15 2 4-2 8-4 13-4l2 1zm-28-11c-6 1-10 4-14 6l12-7 2 1zm8 1c-6-5-7-9-10-14 2 5 3 9 7 13l3 1zm25 11c-5-5-7-9-9-14a35 35 0 006 13l3 1zm26 223c7-6 9-15 14-20 6-4 7 6 11 2 4-3 1-12 7-17s11 0 16-4c4-5-3-10 3-15s14 0 21-5 14-2 12 6c-2 6-7 8-10 16s3 11-1 15c-5 5-11-2-17 3s-2 12-7 15-8-5-14-3c-5 1-2 8-11 10a68 68 0 01-24-3z"/>
      <path d="M543 887c32-5 64-27 94-60-16 20-53 58-96 63l2-3z"/>
      <path d="M588 871c4-6 4-11 5-15 0 4 0 9-3 14l-2 1zm23-19c3-6 2-11 2-16 1 5 2 9 0 15l-2 1zm-4 6c6-2 10-1 15 0-4-1-8-3-14-2l-2 2zm-23 16c7-2 11-1 16-1-5-1-9-2-14-1l-2 2zm2-84c6-7 7-17 12-22 4-6 7 5 10 0 4-4-1-12 4-18s11-2 15-8c3-5-4-9 0-15 5-6 14-2 20-9 6-6 14-4 13 4-1 6-6 9-7 18-1 8 5 10 1 15-3 5-11 0-16 6-5 5 1 12-4 16s-8-3-14-1c-5 3-1 9-9 12s-25 2-25 2z"/>
      <path d="M575 794c31-11 58-39 82-77-13 22-42 67-83 80l1-3z"/>
      <path d="M616 769c3-6 3-11 3-16 1 4 1 9-1 14l-2 2zm20-23c1-6 0-11-1-16 2 5 3 9 3 14l-2 2zm-3 7c6-3 10-3 15-3-5-1-9-1-14 1l-2 2zm-19 20c5-3 10-3 15-4l-14 1-2 3zm-47-32c-8-5-18-5-24-9-7-5 3-9-2-12-6-3-13 3-20-2-7-4-4-12-10-15s-9 6-16 1-5-15-13-21-6-14 3-14c5 0 10 5 19 5s5-4 11-1 5 12 11 17c7 5 16-5 20 0s-2 10 1 16 9-1 14 8 6 27 6 27z"/>
      <path d="M573 754c-17-34-50-60-94-81 26 11 78 37 98 82l-4-1z"/>
      <path d="M540 711c-7-2-12-2-17-1 5-1 9-2 15-1l2 2zm-26-19c-8-1-12 1-17 3 4-2 8-4 14-5l3 2zm7 3c-4-6-5-11-6-16l3 15 3 1zm24 19c-4-7-5-12-6-17l3 15 3 2zm43 36c4-7 3-17 6-23 4-7 8 3 11-3 3-5-4-11 0-18s11-5 13-11-6-8-2-15c3-7 13-5 18-13 4-7 12-6 12 2 1 5-3 10-3 18 1 8 7 9 5 15-3 6-11 2-15 9-4 6 3 12-1 17s-9-2-14 2c-5 3 1 8-6 13s-24 7-24 7z"/>
      <path d="M578 757c28-18 49-51 64-93-7 25-27 75-65 96v-3z"/>
      <path d="M613 723c2-6 1-11 0-16l2 14-2 2zm15-26c0-7-2-11-4-15 2 4 5 7 5 13l-1 2zm-2 7c5-4 9-5 14-6-4 1-8 1-13 4l-1 2zm-15 24c5-5 10-5 14-7-4 1-8 1-13 4l-1 3zm-54-89c4-9 1-18 4-26 3-7 9 2 11-3 2-6-5-12-3-20s11-6 13-12c1-7-7-8-5-16 3-8 13-7 17-16 4-8 12-9 14 0 1 6-3 11-1 19 1 9 8 9 6 15-2 7-11 4-14 11-3 8 5 13 1 19-3 5-9-1-14 3-4 5 2 9-5 15-7 7-24 11-24 11z"/>
      <path d="M547 647c27-22 45-60 56-106-5 27-19 82-56 110v-4z"/>
      <path d="M580 607c1-7-1-11-2-16l4 14-2 2zm12-29c-1-7-4-11-6-16l7 13-1 3zm-1 8c5-5 9-7 14-9-5 1-9 2-14 6v3zm-13 26c5-5 10-7 14-9l-13 6-1 3z"/>
      <path d="M533 605c5-6-1-18 3-24 3-6 7 3 9-1 3-5 0-11 3-17 4-6 9-2 11-7s-2-5 2-11c3-6 12-4 16-11 4-6 12-5 12 2 0 5-3 7-3 15 0 7 5 9 2 14-2 5-9 2-12 7-4 6 0 8-3 12-4 4-7 2-11 4-5 3-1 12-8 16s-21 1-21 1z"/>
      <path d="M522 611c24-10 49-42 64-78-8 21-28 63-63 81l-1-3z"/>
      <path d="M557 583c2-6 1-10 0-14l2 12-2 2zm14-23c0-6-1-9-3-13l5 11-2 2zm-2 7c5-4 9-4 13-5-4 0-8 0-12 2l-1 3zm-14 20c5-4 9-5 13-6l-12 3-1 2zm-173 425c3-9 1-19 3-27 3-8 9 3 11-3s-5-13-2-21c2-9 10-6 12-13 1-7-7-8-4-17 2-8 12-7 16-16s12-9 13 1c1 6-2 11-1 20s8 9 6 16c-1 7-10 4-13 11-3 8 4 14 1 20s-10-1-14 3c-4 5 2 9-5 16-7 6-23 10-23 10z"/>
      <path d="M375 1016c27-22 41-57 51-106-4 29-15 83-51 110v-4z"/>
      <path d="M404 980c1-8-1-13-2-18 1 5 3 9 3 15l-1 3zm12-31c-1-7-4-12-6-17 3 4 6 8 7 15l-1 2zm-1 8c4-5 9-6 13-8-4 1-8 2-13 5v3zm-13 28c5-5 9-7 14-9-4 1-9 2-13 6l-1 3zm159-153c-7-7-19-10-25-16s7-6 2-11-15-1-22-8c-7-6-1-12-7-16-6-5-12 2-18-5-7-6-1-14-8-22-7-7-2-15 8-12 6 2 10 8 20 11s13-3 19 2-2 11 4 17c6 7 16 3 20 8 4 6-6 9-4 15s10 2 13 11-2 26-2 26z"/>
      <path d="M540 797c-7-4-13-5-19-6 6 0 11 1 18 4l1 2zm-24-25c-8-3-14-3-20-3h18l2 3zm8 5c-3-7-2-12-2-17-1 5-2 9-1 15l3 2zm21 24c-3-7-2-12-2-17-1 5-2 9-1 15l3 2z"/>
      <path d="M562 840c-9-34-36-64-79-96 26 18 74 53 82 98l-3-2z"/>
      <g id="d">
        <path d="M527 891c-3-9-20-13-22-21-3-7 9-5 6-11-2-5-13-4-17-11-3-8 5-13 1-19-3-6-11 0-15-7-3-8 6-15 3-24s4-16 12-11c5 3 6 10 14 15 7 5 13-1 17 5 3 6-7 11-4 19 2 7 13 5 15 12 1 6-9 6-10 13-1 6 8 4 7 14s-7 25-7 25z"/>
        <path d="M520 853c-5-6-13-9-18-11a58 58 0 0118 8v3zm-10-25c0-7 3-12 6-16-3 4-6 8-7 14l1 2zm13 26c0-7-1-9 2-14-3 4-3 6-4 12l1 2z"/>
        <path d="M525 907c7-37-13-79-38-119 16 22 52 74 41 121l-3-2z"/>
        <path d="M505 822c-6-5-11-5-17-7 5 1 11 1 16 4l1 3z"/>
      </g>
      <path d="M494 566c-2-7-12-8-14-14s5-5 4-9c-2-5-6-5-8-11s3-9 1-13c-2-5-5-1-7-7s4-12 2-20c-2-7 2-12 6-9 3 2 3 6 8 10 4 3 8 1 10 5 1 5-4 9-2 15 1 6 5 3 5 9 1 5-2 6-2 11s6 7 6 15c-1 8-9 18-9 18z"/>
      <path d="M492 579c5-26-3-64-17-95 9 17 25 56 18 95h-1z"/>
      <path d="M491 534c-3-4-5-5-8-7l8 5v2zm-6-23c-4-4-7-4-10-5 3 0 6 0 9 2l1 3zm2 5l4-14-5 12 1 2zm6 22c0-6 1-10 3-14-2 4-4 7-4 12l1 2zm17 37c0-7-7-11-7-17-1-6 14-4 14-9-1-4-6-4-6-10s5-8 4-13-4-1-5-7l2-19c0-7 6-13 10-9 2 2 1 6 5 9s8 1 11 5c3 3 2 6 3 12 0 6 4 4 3 9 0 5-4 6-6 11-1 5 6 6 3 14s-31 24-31 24z"/>
      <path d="M499 586c25-22 37-64 18-94a69 69 0 019 50 92 92 0 01-25 44h-2z"/>
      <path d="M522 551a31 31 0 00-8-12l9 9-1 3zm4-27c-3-3-6-3-9-4 3 0 6 0 9 2v2zm1 0c2-6 5-9 7-13l-7 11v2zm-4 28c2-6 8-4 13-5-4 0-11-2-13 3v2zm-44 24c-7-5-5-16-10-20s-7 4-11 1-2-9-8-13c-5-4-9 0-13-4-4-3 0-4-5-9-6-4-14-1-21-5-7-5-14-3-12 4 2 4 5 5 8 11 2 6-2 9 2 12 4 4 10 0 15 4s2 6 7 9 7 0 13 2c6 1 4 9 13 11 8 2 22-3 22-3z"/>
      <path d="M493 579c-29-4-64-26-91-53 14 16 48 47 91 55v-2z"/>
      <path d="M447 562c-3-5-4-8-4-12 0 3 0 7 2 11l2 1zm-22-16c-2-5-1-8-1-12l-1 11 2 1zm4 5c-6-2-10-2-15-2h14l1 2zm21 14c-6-2-10-2-15-2h14l1 2zm51 41c-8-4-7-16-13-19-7-3-8 6-13 3-5-2-4-8-11-12-7-3-11 2-16-1s0-5-7-8-16 2-25-2c-8-3-16 0-14 6 2 4 7 5 10 11s-2 9 4 12 11-2 18 1 3 6 9 8 9-1 15-1c7 0 6 9 16 9 11 1 27-7 27-7z"/>
      <path d="M517 606c-34 1-78-14-112-37 18 14 61 40 112 39v-2z"/>
      <path d="M462 597c-5-4-5-7-6-11 0 4 0 7 3 11h3zm-27-11c-3-5-2-9-2-13-1 4-2 7-1 12l2 1zm5 4c-8-1-13 0-19 1 5-1 10-3 17-3l2 2zm26 10c-8-1-13 0-19 1 5-1 10-3 17-3l2 2z"/>
      <path d="M518 630c-9-3-8-15-15-18-7-2-7 6-12 4-6-2-5-8-12-11s-11 3-16 0 0-5-7-8-17 3-25 0c-9-3-17 1-14 7 3 4 8 4 11 10 3 5-1 9 4 12s12-3 19-1c7 3 3 6 9 8 6 1 9-2 15-2 7 0 7 8 17 8s26-9 26-9z"/>
      <path d="M534 629c-34 4-79-9-114-29 19 12 63 35 114 31v-2z"/>
      <path d="M478 624c-4-4-5-7-7-11 1 4 1 7 4 11h3zm-28-10c-3-5-2-9-2-12-1 3-2 7 0 11l2 1zm6 4c-8-1-13 1-18 2l16-4 2 2zm26 8l-18 2c5-1 10-3 16-3l2 1z"/>
      <g id="a">
        <path d="M207 997c7-4 15-3 21-6 5-4-3-7 1-10 5-2 11 3 17 0s3-10 8-13c5-2 8 5 14 2s3-12 10-16c7-5 6-12-1-12-5 0-9 3-16 3-8 0-8-6-14-3-5 2-1 9-7 13-5 4-11-2-15 2s2 8-1 12-7 0-11 6c-5 7-6 22-6 22z"/>
        <path d="M202 1007c15-26 43-46 79-61-21 7-65 27-82 62l3-1z"/>
        <path d="M230 974c6-2 10-1 14 0a31 31 0 00-12-2l-2 2zm22-14c6-1 10 1 14 3l-12-5-2 2zm-6 2c4-5 4-9 5-13l-3 12-2 1zm-20 14c4-5 4-9 5-13l-3 12-2 1z"/>
      </g>
      <g id="b">
        <path d="M210 1025c9 3 20 0 27 2 8 3-2 10 4 12s12-6 20-4c9 3 7 12 14 13 7 2 7-8 16-5 8 2 7 14 17 18 9 3 9 12 0 15-6 1-11-3-20 0-9 2-8 9-15 8-7-2-4-12-12-15-8-4-13 5-19 2-6-4 0-11-4-16-5-5-9 3-16-4-7-8-12-27-12-27z"/>
        <path d="M202 1014c24 29 63 47 111 56-28-4-86-17-115-57l4 1z"/>
        <path d="M244 1048c7 0 12-2 17-4-4 3-9 5-15 6l-2-2zm30 12c8-1 12-5 16-8-3 4-7 7-13 9l-3-1zm-8-1c6 5 8 10 10 15-2-5-3-10-7-14l-3-1zm-27-12c5 5 7 10 9 15-1-5-3-10-7-15h-2z"/>
      </g>
      <use xlink:href="#a" width="744" height="1052" transform="translate(44 17)"/>
      <use xlink:href="#b" width="744" height="1052" transform="translate(59 11)"/>
      <g id="e">
        <path d="M354 1034c9 1 18-5 26-5 9 1 1 10 7 10 7 1 10-9 19-9 9 1 9 10 16 9 7 0 6-10 14-10s11 12 21 13 13 9 5 14c-5 3-12 1-20 5s-6 12-13 13c-6 0-7-11-15-12s-11 9-18 8c-6-2-2-11-8-14s-8 5-16 0-18-22-18-22z"/>
        <path d="M342 1026c31 21 74 28 123 23-28 4-87 8-127-22l4-1z"/>
        <path d="M392 1047c7-1 12-5 16-8-4 4-7 7-13 9l-3-1zm33 4c7-4 10-8 14-12l-11 12-3-1zm-8 1c6 3 9 7 13 11-3-4-5-8-10-12l-3 1zm-30-4c6 3 9 7 13 11-3-4-5-8-10-12l-3 1z"/>
      </g>
      <path d="M293 1025c5-5 13-7 17-11s-4-5-1-8 10 0 15-5c5-4 1-8 5-11s8 2 12-2c5-4 1-11 6-16s2-11-5-9c-4 1-7 5-13 6-7 2-9-3-13 0-5 4 1 9-4 13-4 4-10 1-13 5s3 6 2 10c-1 5-7 2-9 8-2 7 1 20 1 20z"/>
      <path d="M292 1030c7-25 26-45 55-66-17 12-50 35-57 68l2-2z"/>
      <path d="M308 1000c5-3 9-3 13-4-4 0-8 0-12 2l-1 2zm16-17c6-2 10-1 14-1l-12-1-2 2zm-5 3c2-5 2-8 2-12v11l-2 1zm-14 16c2-5 1-8 1-12v11l-2 1zm41 15c4-6 12-9 15-14s-6-4-3-8 10-2 14-8c4-5-1-9 3-13 3-4 8 1 12-5 4-5-1-11 3-17 4-7 0-12-7-9-4 2-6 7-13 10-6 3-9-2-13 3-3 4 3 8 0 13-4 6-11 4-13 8-2 5 5 6 4 11 0 4-6 2-7 10-1 7 4 19 4 19z"/>
      <path d="M346 1023c2-27 17-51 43-79-16 15-45 46-45 81l2-2z"/>
      <path d="M356 989c4-4 8-5 12-7-4 1-8 2-12 5v2zm13-21c5-3 9-3 14-4-4 0-8 0-13 2l-1 2zm-4 4c1-5-1-9-1-13l2 11-1 2zm-12 20c1-5 0-9-1-13 1 4 3 7 3 11l-2 2z"/>
      <g id="f">
        <path d="M506 949c8-4 11-13 17-17 7-4 6 7 10 4 6-3 3-12 10-16s11 2 16-2-1-10 6-14 14 3 22-1c7-4 14 1 10 8-3 5-8 7-12 14s1 11-4 15-10-4-17-1c-6 4-4 13-9 15-6 2-7-7-13-6-6 0-3 7-12 8-9 0-24-7-24-7z" transform="translate(9 -8)"/>
        <path d="M494 949c33 0 67-17 102-44-19 17-61 48-105 46l3-2z" transform="translate(9 -8)"/>
        <path d="M541 939c5-4 6-9 8-13-1 4-2 8-6 13h-2zm26-14c3-5 3-10 4-15 0 5 0 9-2 14l-2 1zm-6 5c7-1 11 1 16 2-4-1-8-3-14-3l-2 1zm-24 12c6-1 11 1 15 2l-13-4-2 2z" transform="translate(9 -8)"/>
      </g>
      <path d="M583 716c4-8 1-18 4-25 3-8 8 2 10-4s-5-12-2-20 11-6 12-12c2-7-7-8-4-16 3-7 13-7 17-16 3-8 12-8 13 0 1 6-2 11-1 20 2 8 9 8 7 14-2 7-11 4-14 12-3 7 4 12 1 18-3 5-10-1-14 4-5 4 2 8-5 15-7 6-24 10-24 10z"/>
      <path d="M573 724c27-22 45-60 55-105-4 26-19 81-55 109v-4z"/>
      <path d="M605 685c1-8-1-12-2-17 2 4 4 8 4 14l-2 3zm13-30c-1-7-4-11-6-15 2 3 5 7 7 13l-1 2zm-2 8c5-5 10-7 14-9l-13 6-1 3zm-12 27c5-6 9-7 14-9-5 1-9 2-13 6l-1 2z"/>
      <path d="M572 672c5-8 3-17 7-24 3-6 8 3 10-2 3-5-3-11 0-19 4-7 11-4 13-10 3-6-5-8-2-15 4-7 13-5 18-13 4-8 12-7 13 2 0 5-4 10-4 18 1 8 7 9 5 15-3 6-11 2-15 8-4 7 3 13-1 18-3 5-9-2-13 2-5 3 0 8-7 13s-24 7-24 7z"/>
      <path d="M562 679c28-18 49-51 65-93-8 24-28 74-66 96l1-3z"/>
      <path d="M597 645c2-7 1-11 0-16 1 4 3 9 2 14l-2 2zm15-26c0-7-2-11-4-15 3 3 5 7 6 13l-2 2zm-2 7c5-4 10-5 14-6-4 0-8 1-13 4l-1 2zm-15 24c6-5 10-6 14-7-4 1-8 1-13 4l-1 3zm-28 126c-8-6-18-5-25-9-7-5 4-9-2-12-5-4-12 3-20-2-7-5-3-12-10-15-6-4-9 5-16 1-7-5-4-15-12-21s-7-15 2-14c6 0 10 4 19 5 9 0 5-5 11-1s5 12 12 17c6 5 15-5 20 0 5 4-3 10 1 15 3 6 9 0 14 9 5 8 6 27 6 27z"/>
      <path d="M573 788c-17-33-51-59-94-80 25 10 77 37 97 81l-3-1z"/>
      <path d="M540 746c-7-3-12-2-17-2h15l2 2zm-27-19c-7-1-12 1-17 3 5-2 9-5 15-5l2 2zm8 3c-5-7-5-12-6-17 0 5 0 10 3 15l2 2zm23 18c-4-6-4-11-6-16 1 5 1 9 4 15l2 1zm31 95c5-6 6-16 11-22 4-5 7 5 10 1 4-5-1-12 4-19 5-6 11-2 15-7 3-6-4-9 1-15 4-7 13-3 19-9 6-7 14-4 13 4-1 5-6 9-7 17s5 10 2 15c-4 6-11 0-16 6s0 13-5 17c-4 4-8-4-14-1-5 2 0 8-9 12-8 3-24 1-24 1z"/>
      <path d="M563 848c31-12 59-40 82-78-12 23-42 68-83 81l1-3z"/>
      <path d="M604 822c3-6 3-11 3-16v15l-3 1zm20-22c1-7 0-11-1-16 2 4 3 8 3 14l-2 2zm-3 6c6-3 10-3 15-3-5 0-9-1-14 1l-1 2zm-19 20c5-3 10-3 15-3-5 0-9-1-14 1l-1 2z"/>
      <use xlink:href="#c" width="744" height="1052" transform="rotate(15 310 758)"/>
      <use xlink:href="#d" id="c" width="744" height="1052" transform="rotate(5 93 577)"/>
      <use xlink:href="#e" width="744" height="1052" transform="rotate(-10 275 690)"/>
      <use xlink:href="#f" width="744" height="1052" transform="rotate(10 225 654)"/>
    </g>
    <use xlink:href="#g" width="1" height="1" transform="matrix(-1 0 0 1 840 0)"/>
  </g>
  <g stroke="#d4af37">
    <path fill="#007ea8" d="M291 196l-14 17a26 26 0 017 18 54 54 0 01-2 18v0h38v-53c-8 5-20 7-29 0z"/>
    <path fill="#fff" d="M349 196c-9 7-20 5-29 0v53h39v-1a54 54 0 01-3-17c0-6 2-13 7-18l-14-17z"/>
    <path fill="#d91023" d="M282 249c-3 6-5 12-6 21-1 14 10 22 14 24 8 3 15 2 23 3l7 5 7-5c8-1 15 0 23-3 4-2 15-10 14-24-1-9-3-15-5-21h-77z"/>
  </g>
  <g stroke="#d4af37" stroke-width="3">
    <g fill="#00a854" stroke-width="6" transform="matrix(.08444 0 0 .08889 233 248)">
      <g id="j" stroke-width="3">
        <path d="M1075-201s6-21 18-30 25-5 33-9c-5 7-6 21-18 30s-33 9-33 9zm48-37c-8 2-13 0-25 4m18 2c-9 2-14-1-26 3m17 4c-8 3-12-1-23 4m13 3c-8 3-9-2-17 4m9 2c-5 2-7 0-12 5m46-31c-4 8-3 13-10 23m3-17c-5 7-3 14-11 23m2-16c-5 7-3 11-11 20m1-13c-5 7-1 9-9 15m1-9c-3 4-2 7-8 10"/>
        <path d="M1131-244l-24 18-32 24 32-23 24-18m-23-74s17 13 21 28c4 14-4 25-4 34-5-8-17-13-21-28s4-34 4-34zm16 59c1-9 5-13 5-25m-8 15c1-8 7-12 7-24m-10 13c1-8 6-10 5-22m-8 11c1-8 6-8 3-18m-5 8c0-5 3-7 0-13m11 55c-5-7-11-8-17-19m14 10c-5-7-12-8-17-19m14 7c-4-7-9-6-15-17m12 6c-4-7-8-4-11-14m9 4c-3-4-6-4-7-11"/>
        <path d="M1127-249l-8-29-11-39 10 39a5074 5074 0 008 29"/>
        <g id="h">
          <path d="M1206-262s17 13 21 28c4 14-4 25-4 34-4-8-17-13-21-28-4-14 4-34 4-34zm16 59c1-9 6-13 6-25m-8 16c1-9 6-13 6-25m-9 14c0-9 5-11 4-23m-7 11c0-8 5-8 2-17m-5 8c1-6 3-7 0-14m11 55c-5-7-11-8-17-19m15 10c-5-7-12-8-18-19m15 7c-5-7-10-6-15-17m12 6c-5-7-9-4-11-14m8 5c-3-5-6-5-6-12"/>
          <path d="M1225-194l-8-29-10-38 10 38a5155 5155 0 007 29m-53 57s2-21 13-31c11-11 24-9 32-14-5 8-3 21-14 32-10 10-31 13-31 13zm43-43c-8 4-14 2-25 8m18-1c-8 4-14 1-25 7m17 1c-8 4-12 1-22 7m14 1c-8 4-10 0-17 7m9 0c-5 3-7 2-11 7m42-37c-4 8-2 14-8 24m1-17c-4 8-1 14-7 25m-1-17c-4 8-1 12-8 22m-1-14c-3 8 1 10-6 17m-1-10c-2 5-1 8-6 12"/>
          <path d="M1220-187l-21 22-28 28 28-28a5074 5074 0 0021-21"/>
        </g>
        <path d="M1057-279s21-5 34 1c14 6 18 19 25 25-9-2-21 5-35-1s-24-25-24-25zm56 24c-6-6-7-11-16-19m7 16c-6-6-6-13-16-21m6 16c-7-5-5-11-15-17m4 13c-6-6-3-10-12-13m3 9c-4-4-4-7-11-8m50 24c-9 0-13 4-25 2m16-5c-9-1-13 4-25 2m15-7c-9-1-11 4-23 1m12-5c-8-1-9 3-18-1m9-4c-6 0-8 2-13-2"/>
        <path d="M1122-251l-28-12-37-15 37 16a5136 5136 0 0027 12m-49-134s15-15 30-17c15-3 25 6 33 7-8 4-14 15-29 18-15 2-34-8-34-8zm60-9c-8-2-12-7-24-9m15 10c-9-2-12-8-24-9m12 11c-8-1-9-7-21-7m10 9c-8-2-8-6-17-5m7 6c-5-1-7-3-13-1m55-5c-7 4-9 10-20 15m11-14c-8 5-9 11-20 16m8-14c-7 4-7 9-18 13m7-11c-7 3-5 8-15 9m5-8c-5 3-5 6-12 5"/>
        <path d="M1142-395l-30 5-39 6 39-6 30-4m-40-61s20 7 28 20c8 12 4 25 7 33-6-5-20-7-28-19-8-13-7-34-7-34zm33 51c-1-9 2-14-2-25m-3 17c-1-9 2-14-2-26m-4 16c-2-8 2-11-3-23m-3 14c-3-8 2-10-4-18m-2 9c-1-5 0-8-4-12m27 48c-7-5-12-5-22-12m17 4c-7-5-14-4-22-12m16 2c-7-5-11-3-20-11m14 2c-7-6-10-2-15-10m9 1c-4-3-7-2-10-9"/>
        <path d="M1141-396l-17-26-22-33 22 34a5080 5080 0 0016 25"/>
        <g id="i">
          <path d="M1214-402s16 13 20 28c4 14-4 25-4 34-4-8-16-13-20-28s4-34 4-34zm15 59c1-9 6-13 6-25m-8 16c1-9 6-13 6-25m-9 14c0-9 5-11 5-23m-8 11c0-8 5-8 3-17m-6 8c1-6 3-7 0-14m11 55c-5-7-10-8-17-19m15 10c-5-7-12-8-18-19m15 8c-4-8-10-7-15-18m12 6c-4-7-9-4-11-14m8 5c-3-5-6-5-6-12"/>
          <path d="M1232-334l-8-29-10-39 10 39a5074 5074 0 007 29m-64 39s8-20 21-27 26-3 34-5c-6 6-8 20-21 27-13 8-34 5-34 5zm53-30c-9 1-14-2-26 1m17 3c-8 2-14-3-25 1m15 5c-8 2-11-2-22 2m13 4c-9 2-10-3-18 2m9 3c-6 1-8-1-13 4m50-25c-6 6-5 12-14 21m5-17c-5 7-4 14-13 22m3-16c-5 6-3 11-12 19m3-13c-6 6-3 9-11 14m2-9c-4 4-3 7-10 9"/>
          <path d="M1228-330l-26 15-35 20 35-20a5074 5074 0 0026-15"/>
        </g>
        <path d="M1182-442s20-8 34-4c15 4 20 16 28 21-9 0-20 7-34 4-15-4-28-21-28-21zm59 16c-7-5-8-11-19-17m10 14c-7-5-8-12-19-18m8 15c-7-4-7-10-17-15m6 12c-7-4-5-8-15-11m5 9c-5-3-5-6-12-7m53 18c-9 1-13 5-25 5m16-8c-9 1-13 7-25 6m14-9c-9 1-11 6-23 5m12-8c-9 1-9 5-18 3m8-5c-6 0-7 3-13-1"/>
        <path d="M1250-424l-29-8-38-10 38 11a5074 5074 0 0029 8m-35-74s20 8 27 21 3 26 5 34c-6-6-20-8-27-21-8-13-5-34-5-34zm30 53c-1-9 2-14-1-26m-3 17c-2-8 3-14-1-25m-5 15c-2-8 2-11-1-22m-5 12c-2-8 3-9-2-17m-3 9c-1-6 1-8-4-13m25 50c-6-6-12-5-21-14m17 5c-7-5-14-4-22-13m16 3c-6-5-11-3-19-12m13 2c-6-5-9-2-14-11m9 2c-4-3-7-2-9-9"/>
        <path d="M1250-436l-15-27-20-34 20 35a5041 5041 0 0015 26"/>
        <use xlink:href="#h" width="744" height="1052" transform="translate(-32 -18)"/>
        <path d="M1142-298s17 13 21 28c4 14-4 25-4 34-4-8-17-13-21-28-4-14 4-34 4-34zm16 59c1-9 6-13 6-25m-8 16c1-9 6-13 6-25m-9 14c0-9 5-11 4-23m-7 11c0-8 5-8 2-17m-5 8c1-6 3-7 0-14m11 55c-5-7-11-8-17-19m15 10c-5-7-12-8-18-19m15 8c-5-7-10-7-15-17m12 6c-5-8-9-5-11-15m8 5c-3-5-6-5-6-12"/>
        <path d="M1161-230l-8-29-10-39 10 39a5155 5155 0 007 29m-53 57s2-21 13-31c11-11 24-10 32-14-5 8-3 21-14 32-10 10-31 13-31 13zm43-43c-8 4-14 2-25 8m18-1c-8 3-14 1-25 7m17 1c-8 4-12 1-22 7m14 1c-8 4-10 0-17 7m9 0c-5 3-7 1-11 7m42-37c-4 8-2 14-8 24m1-17c-4 8-1 14-7 25m-1-17c-4 8-1 12-8 22m-1-14c-3 8 1 10-6 17m-1-10c-2 5-1 8-6 12"/>
        <path d="M1156-223l-21 22-28 28 28-28a5074 5074 0 0021-21"/>
        <use xlink:href="#i" width="744" height="1052" transform="translate(-62 -40)"/>
        <use xlink:href="#i" width="744" height="1052" transform="translate(-31 -20)"/>
      </g>
      <use xlink:href="#j" width="744" height="1052" transform="matrix(-1 0 0 1 2501 0)"/>
      <path fill="#947245" d="M1251-437c-9 41-9 79-9 79-1 14-7 24-14 20-55-32-60-37-89-60 24 27 31 39 87 71 10 6 12 16 11 29l-1 62c-1 9 5 50-23 34-65-37-64-34-95-52 38 33 24 24 91 62 12 7 24 25 24 33 0 124 2 101-13 139h61c-15-38-13-15-13-139 0-8 13-26 24-33 67-38 52-29 90-62l-94 52c-28 16-22-25-23-34l-1-62c-1-13 1-23 11-29 56-32 63-44 87-71-29 22-34 28-89 60-6 4-13-6-14-20 0 0 0-37-8-79z"/>
    </g>
    <path fill="#e3e4e5" stroke-linecap="square" d="M264 425c0 1 2 12 1 15l-2 11-4 25a37 37 0 00-1 12l4 19 2 3v2l2 4 1 1h2l1 2h-7c1-2-2-4-2-4l-3-2v-3l-3-11-1-4c0-5-1-7-3-13-1-1-2-1-2-3l1-1v-1l1-16a2 2 0 000-1c1-8-4-17-7-25l-1-4c-3-1-5-6-6-10a23 23 0 01-1-11 5 5 0 011-3m63 37a8 8 0 013-1l1 2 4 21 2 8v4l1 2 1 4 2 8a75 75 0 013 16v5l4 6c0 1 0 0 0 0l1 1h2a6 6 0 001 0h6a5 5 0 00-5-3c-1-1-2-1-2-3l-3-3v-2l-2-24v-4l1-39 4-4" transform="matrix(.19494 0 0 .1962 242 142)"/>
    <path fill="#fff" stroke-linecap="square" d="M357 324a7 7 0 00-6 2 22 22 0 00-3 11v2a83 83 0 00-1 5l-2 26c-1 6-6 14-8 17a10 10 0 01-5 2h-7l-30-7-26-1s-10-4-19-1-14 8-22 20l-4 5a17 17 0 006 13c1 1 0 0 0 0l1 3a44 44 0 014 5l1 5c4 8 2 17 2 26a2 2 0 010 1c-1 6-6 13-6 19v1l-1 2c0 1-2 2-1 3l4 13 1 5c2 2 5 12 5 12v3c0 2 3 2 3 2a6 6 0 003 5h6l-1-3h-2l-1-1-2-4v-3l-3-3-5-20c-1-5 3-8 3-12l5-13c3-8 9-22 9-28v-4c1-4-2-14-1-15 12 21 24 28 44 26a9 9 0 013 0v2c1 3-1 15-2 21v8l-1 4v14a61 61 0 01-3 15l-1 2-1 2v3l1 6v1l1 1 1 1h7c0-2-2-3-3-4l-1-2v-4-1-3a174 174 0 017-27l1-5 5-30a4 4 0 012-2l18-9c6-4 10-12 15-18l3-5a93 93 0 0010-28l3-27c1-2 3-3 3-6v0h1l4-1h5l2 1 1-1 1-1h1l1-1h1v-2l-1-1h0v-2a4 4 0 000-2 2 2 0 00-1-1l-1-1-6-6v-1c-1-3-2-3-5-5a26 26 0 00-10-4h-2a7 7 0 000 0z" transform="matrix(.19494 0 0 .1962 242 142)"/>
    <path fill="#d18219" d="M312 206a1 1 0 00-1 0 5 5 0 00-1 2v2l-1 5a11 11 0 01-1 3h-2l-6-1h-5l-4-1-4 4-1 1a3 3 0 001 3v-2a6 6 0 001 2l1 1v9 2l2-5 1-4-1-3v-2c3 6 8 6 11 3a16 16 0 000 4v1l-1 5v3-1-1h1l1-6a1 1 0 010-1l1-4c0-4 4-5 6-3l1-1a8 8 0 001-2v-1a15 15 0 001-2v-2a15 15 0 010-2h1v-1h-2a2 2 0 01-1-1l1-2h1a8 8 0 013 2h1v-1h-1l-1-2-1-1a5 5 0 00-2 0z" stroke="none"/>
    <path fill="none" stroke-linecap="square" d="M357 324a7 7 0 00-6 2 22 22 0 00-3 11v2a83 83 0 00-1 5l-2 26c-1 6-6 14-8 17a10 10 0 01-5 2h-7l-30-7-26-1s-10-4-19-1-14 8-22 20l-4 5a17 17 0 006 13c1 1 0 0 0 0l1 3a44 44 0 014 5l1 5c4 8 2 17 2 26a2 2 0 010 1c-1 6-6 13-6 19v1l-1 2c0 1-2 2-1 3l4 13 1 5c2 2 5 12 5 12v3c0 2 3 2 3 2a6 6 0 003 5h6l-1-3h-2l-1-1-2-4v-3l-3-3-5-20c-1-5 3-8 3-12l5-13c3-8 9-22 9-28v-4c1-4-2-14-1-15 12 21 24 28 44 26a9 9 0 013 0v2c1 3-1 15-2 21v8l-1 4v14a61 61 0 01-3 15l-1 2-1 2v3l1 6v1l1 1 1 1h7c0-2-2-3-3-4l-1-2v-4-1-3a174 174 0 017-27l1-5 5-30a4 4 0 012-2l18-9c6-4 10-12 15-18l3-5a93 93 0 0010-28l3-27c1-2 3-3 3-6v0h1l4-1h5l2 1 1-1 1-1h1l1-1h1v-2l-1-1h0v-2a4 4 0 000-2 2 2 0 00-1-1l-1-1-6-6v-1c-1-3-2-3-5-5a26 26 0 00-10-4h-2a7 7 0 000 0z" transform="matrix(.19494 0 0 .1962 242 142)"/>
    <path fill="#d39044" stroke-linecap="square" d="M382 344v1-1 0z" transform="matrix(.19494 0 0 .1962 242 142)"/>
    <path fill="#fff" fill-rule="evenodd" d="M335 433c-2 8-7 10-3 17 0 0-2 0-3-3a17 17 0 01-1-6 47 47 0 011-9" transform="matrix(.19494 0 0 .1962 242 142)"/>
    <path fill="#fff" fill-rule="evenodd" d="M339 429c-2 9-7 10-4 17 0 1-2 1-3-2a19 19 0 010-6v-6a31 31 0 012-3" transform="matrix(.19494 0 0 .1962 242 142)"/>
    <path fill="#fff" fill-rule="evenodd" d="M346 418l-7 15c-1 4-2 6 1 10 0 0-2 0-4-4a13 13 0 01-1-7 31 31 0 011-4 30 30 0 011-3" transform="matrix(.19494 0 0 .1962 242 142)"/>
    <path fill="#fff" fill-rule="evenodd" d="M349 415l-4 8a29 29 0 00-3 10c0 2 0 4 2 7h-2a6 6 0 01-2-3 15 15 0 01-1-6v-6l2-4" transform="matrix(.19494 0 0 .1962 242 142)"/>
    <path fill="#d18219" fill-rule="evenodd" stroke-width="1" d="M353 335c0-1-11-4-13-14 2-3 14 5 15 13" transform="matrix(.19494 0 0 .1962 242 142)"/>
    <path fill-rule="evenodd" stroke-width="1" d="M340 321s7 0 12 10c-2-1-6 2-12-10M369 336v-1c-5-3-5 1-9 1l3 1c2 2 4 2 6-1" transform="matrix(.19494 0 0 .1962 242 142)"/>
    <path fill="none" stroke-linecap="square" d="M381 350l-4-1" transform="matrix(.19494 0 0 .1962 242 142)"/>
    <path fill-rule="evenodd" stroke-linecap="square" d="M382 346l-4-1s3-3 3 0" transform="matrix(.19494 0 0 .1962 242 142)"/>
    <path fill="#fff" fill-rule="evenodd" d="M303 437a34 34 0 00-1 2c-1 2-2 4 0 8l-2-3-1-6v-3" transform="matrix(.19494 0 0 .1962 242 142)"/>
    <path fill="none" d="M231 419s-2-6 2-13" transform="matrix(.19494 0 0 .1962 242 142)"/>
    <g fill="#e7ca00" stroke-width="2">
      <path d="M401 880c-2-2-4-7-3-9-3-3-10 2-6 8 3 7 8 6 9 1zm19 6c1-4 0-10-6-11-7-1-8 4-7 10 4-3 11-2 14 1z" transform="matrix(.01896 -.24347 .22029 .02096 145 341)"/>
      <path d="M407 882c1-5 6-6 11-6-3-3-6-8-10-5-4 2-6 6-1 11z" transform="matrix(.01896 -.24347 .22029 .02096 145 341)"/>
      <path d="M405 879c0-3 2-8 6-10-4-3-12-2-13 4 0 6 3 8 7 6zm-16 40c5 1 12-1 10-13s-10-14-11-12c5 2 4 18 1 25z" transform="matrix(.01896 -.24347 .22029 .02096 145 341)"/>
      <path d="M397 918c5 1 14-2 10-14-4-11-13-10-13-7 5 2 6 13 3 21z" transform="matrix(.01896 -.24347 .22029 .02096 145 341)"/>
      <path d="M377 918c4 4 14 5 17-7 3-11 0-14-4-16 2 6-5 22-13 23zm25-1c3-2 11-5 6-16-4-9-10-5-12-3 4 1 8 11 6 19z" transform="matrix(.01896 -.24347 .22029 .02096 145 341)"/>
      <path d="M409 915c3-2 11-7 5-18s-14-4-14-1c3 1 9 10 9 19z" transform="matrix(.01896 -.24347 .22029 .02096 145 341)"/>
      <path d="M417 907c2-3 7-10-1-17a7 7 0 00-12 5c3-1 11 5 13 12z" transform="matrix(.01896 -.24347 .22029 .02096 145 341)"/>
      <path d="M421 896c1-3 2-12-7-14s-9 8-8 10c2-2 11-1 15 4zm-50 19c3 4 13 7 19-4 5-11 2-15-1-17 1 6-9 21-18 21z" transform="matrix(.01896 -.24347 .22029 .02096 145 341)"/>
      <path d="M361 907c3 6 19 14 25 2s1-22-4-26c3 11-12 29-21 24z" transform="matrix(.01896 -.24347 .22029 .02096 145 341)"/>
      <path d="M352 898c8 18 24 15 30 2 5-12 4-19-2-24-4 15-12 23-28 22z" transform="matrix(.01896 -.24347 .22029 .02096 145 341)"/>
      <path d="M342 884c6 22 27 19 36 7 6-9 4-15 1-19-7 8-19 15-37 12z" transform="matrix(.01896 -.24347 .22029 .02096 145 341)"/>
      <path d="M338 871c1 22 26 24 37 12 8-9 8-16 6-20-9 9-26 19-43 8z" transform="matrix(.01896 -.24347 .22029 .02096 145 341)"/>
      <path d="M333 850c-4 29 29 38 43 21 8-9 7-15 5-19-14 10-39 11-48-2z" transform="matrix(.01896 -.24347 .22029 .02096 145 341)"/>
      <path d="M330 824c-10 30 19 41 38 38 14-2 23-20 21-24-19 13-56 2-60-14z" transform="matrix(.01896 -.24347 .22029 .02096 145 341)"/>
      <path d="M329 800c-13 30 15 47 39 45 15-1 27-7 27-19-23 8-58-6-66-26z" transform="matrix(.01896 -.24347 .22029 .02096 145 341)"/>
      <path d="M330 775c-13 31 15 56 43 56 15 1 22-3 28-13-21 4-65-28-71-43z" transform="matrix(.01896 -.24347 .22029 .02096 145 341)"/>
      <path d="M330 765c-12 36 80 81 85 34-22 12-82-21-85-34z" transform="matrix(.01896 -.24347 .22029 .02096 145 341)"/>
      <path d="M328 756c-16 19 93 78 95 28-10 5-30 1-49-8-20-9-33-23-46-20z" transform="matrix(.01896 -.24347 .22029 .02096 145 341)"/>
      <path d="M311 751c20 1 61 31 89 36 18 3 33-4 24-35-28 29-83-18-111-7-3-2 0 8-2 6z" transform="matrix(.01896 -.24347 .22029 .02096 145 341)"/>
      <path d="M315 756c19-12 58 10 86 11 17 0 38-19 24-47-22 37-83 7-108 27-2 4-1 10-2 8z" transform="matrix(.01896 -.24347 .22029 .02096 145 341)"/>
      <path d="M307 757c20-15 62-6 88-9 18-1 44-32 20-57-15 54-64 27-107 58-2 6 0 9-1 8z" transform="matrix(.01896 -.24347 .22029 .02096 145 341)"/>
      <path d="M314 752c17-16 58-15 82-27 17-8 33-44 5-62-3 57-56 40-88 82-1 6 3 8 1 7z" transform="matrix(.01896 -.24347 .22029 .02096 145 341)"/>
      <path d="M316 745c13-23 50-28 71-46 18-17 23-47-8-56-2 59-43 46-60 82-4 8-2 20-3 19z" transform="matrix(.01896 -.24347 .22029 .02096 145 341)"/>
      <path d="M326 722c12-20 22-13 42-34 17-18 22-60-8-61 5 51-15 52-29 79 0 7-4 16-6 16z" transform="matrix(.01896 -.24347 .22029 .02096 145 341)"/>
      <g stroke-width="3">
        <path fill-rule="evenodd" d="M310 603l-10 5-50 154 18 40 17 3 21-2 31-138 8-57-21-12-14 7z" transform="matrix(.01291 -.19952 .15288 .02036 191 323)"/>
        <path d="M309 598l2 6c9-7 20-1 23 15s-3 39-14 57a167 167 0 00-17 56c-2 19 2 42-2 63-3 10-8 9-18 8 4 7 9 11 16 11 14-4 25-17 28-45a106 106 0 0110-72 86 86 0 0026-50 54 54 0 00-9-39c-12-18-21-18-30-17l-15 7z" transform="matrix(.01291 -.19952 .15288 .02036 191 323)"/>
      </g>
      <path fill-rule="evenodd" stroke-width="1" d="M-326 630c0-3 2-6 5-6s4 3 4 6h-9z" transform="matrix(1.00994 .34063 .4261 -.98295 369 1013)"/>
      <path d="M296 723c-4 7-12 11-17 8-6-4-7-12-3-19 4-8 11-11 17-8 5 3 6 12 3 19zm-19-82c-3-3-7-6-11-5a12 12 0 00-6 4l-1-1c-1-8 5-17 12-18 3-1 5 0 8 3a15 15 0 00-1 8 15 15 0 001 4 18 18 0 00-2 5z" transform="matrix(.01896 -.24408 .22029 .01391 146 342)"/>
      <path d="M300 632c-3-3-6-5-11-5-4 1-8 4-10 8a19 19 0 01-1-4c-2-9 6-19 13-20a10 10 0 016 0 16 16 0 000 4 18 18 0 005 11 19 19 0 00-2 6zm-42 45v1a15 15 0 01-9-5 13 13 0 009 4zm7-13a17 17 0 01-8-13c-2-8 5-18 13-19a9 9 0 012 0 18 18 0 00-3 13c0 3 1 5 3 7a21 21 0 00-7 12z" transform="matrix(.01896 -.24408 .22029 .01391 146 342)"/>
      <path d="M258 689c-2 1-4 1-5-1-5-2-6-10-3-17 3-6 9-9 13-6a9 9 0 014 5 8 8 0 00-6 1c-4 2-7 8-5 14a11 11 0 002 4z" transform="matrix(.01896 -.24408 .22029 .01391 146 342)"/>
      <path d="M262 694c-3-1-5-3-7-7-3-7-1-16 5-19a10 10 0 019-1 18 18 0 001 9 13 13 0 006 7 10 10 0 00-8 1 14 14 0 00-6 10zm-5 49c-7-4-11-14-9-21 1-6 6-8 12-6a26 26 0 00-1 18 19 19 0 008 12c-3 0-6 0-10-3z" transform="matrix(.01896 -.24408 .22029 .01391 146 342)"/>
      <path d="M252 770a12 12 0 01-1-1c-6-6-7-17-4-23 4-6 11-6 17-1-3 7-2 16 1 22a12 12 0 00-10 1 14 14 0 00-3 2z" transform="matrix(.01896 -.24408 .22029 .01391 146 342)"/>
      <path d="M268 784c-5-1-11-7-12-15-2-9 1-17 7-19h0c3 5 7 8 12 8v0c-7 5-10 16-7 25v1zm-3-66c-6 2-14-3-17-11s0-16 6-19h5c2 5 5 9 8 11a26 26 0 001 17 11 11 0 01-3 2z" transform="matrix(.01896 -.24408 .22029 .01391 146 342)"/>
      <path d="M270 728c-7-5-11-14-10-21 2-7 9-10 16-5a22 22 0 015 5 25 25 0 00-3 23c-2 1-5 0-8-2z" transform="matrix(.01896 -.24408 .22029 .01391 146 342)"/>
      <path d="M285 751c-4 7-12 10-17 6s-7-14-3-21c3-8 11-11 16-7s7 14 4 22zm-10-48a12 12 0 01-11 1c-6-4-7-13-3-21a18 18 0 0113-9 10 10 0 008 2l1 1c-8 3-12 13-10 22a16 16 0 002 4z" transform="matrix(.01896 -.24408 .22029 .01391 146 342)"/>
      <path d="M284 666c1 8-4 15-10 16-7 1-13-5-14-13a18 18 0 016-15c3 5 7 7 11 7l5-2a23 23 0 012 7z" transform="matrix(.01896 -.24408 .22029 .01391 146 342)"/>
      <path d="M287 706c-6 3-12-2-14-10-3-8 0-17 6-20a8 8 0 015-1 26 26 0 00-1 4c-4 9-2 20 3 24l3 1a10 10 0 01-2 2z" transform="matrix(.01896 -.24408 .22029 .01391 146 342)"/>
      <path d="M305 668a14 14 0 01-1 8c-6-3-13 0-16 7a15 15 0 01-9-12c-1-7 5-16 12-17v1c1 7 7 13 13 12v1z" transform="matrix(.01896 -.24408 .22029 .01391 146 342)"/>
      <path d="M304 697c-5 9-13 13-20 9-6-4-8-15-3-24 4-10 13-14 19-10 6 5 8 15 4 25zm-15-42a15 15 0 01-6 7c-6 3-14 0-17-8-3-7 1-18 7-21a9 9 0 018 0h0c-1 10 2 19 8 22zm32-41a14 14 0 01-1 8c-3-3-6-5-10-5-4 1-8 5-10 10a16 16 0 01-5-9c-1-8 5-17 12-18s12 6 14 14z" transform="matrix(.01896 -.24408 .22029 .01391 146 342)"/>
      <path d="M322 631c1 6-3 12-8 14-3-3-6-5-10-5a10 10 0 00-3 1 15 15 0 01-3-7c-1-7 5-16 12-17 6-1 11 6 12 14z" transform="matrix(.01896 -.24408 .22029 .01391 146 342)"/>
      <path d="M293 654a9 9 0 01-9 1c-5-4-7-13-3-20 3-8 10-11 15-8a12 12 0 015 9c-5 4-9 12-8 18h0zm-37 145c-5 2-12-3-14-11s1-18 7-21c5-3 12 1 15 8-7 5-10 15-8 24z" transform="matrix(.01896 -.24408 .22029 .01391 146 342)"/>
      <path d="M271 804c-7 3-14-1-16-9s1-16 7-19 12 0 15 5a22 22 0 00-6 23z" transform="matrix(.01896 -.24408 .22029 .01391 146 342)"/>
      <path d="M268 818c-6 3-12-1-14-8a16 16 0 012-13c4 3 9 4 13 2a15 15 0 003-2 14 14 0 012 4l1 7a21 21 0 00-5 8l-2 2zm8 29c-6 3-13-1-16-9-2-7 1-16 8-19h1a27 27 0 001 9c2 7 7 12 12 13a13 13 0 01-6 6z" transform="matrix(.01896 -.24408 .22029 .01391 146 342)"/>
      <path d="M285 848c-6 3-13-1-15-8a18 18 0 010-10c4 4 9 5 14 2a16 16 0 007-6 17 17 0 011 4c3 7-1 16-7 18z" transform="matrix(.01896 -.24408 .22029 .01391 146 342)"/>
      <path d="M293 863c-6 3-13-1-15-8a18 18 0 01-1-6l8-1a18 18 0 008-12c3 2 6 5 7 9 2 7-1 15-7 18zm-20-77c-3-2-5-5-6-9-3-8 1-17 7-20 7-3 15 1 17 9 2 6 1 13-3 17a11 11 0 00-11 0l-4 3zm47-134c1 6-6 17-12 18-7 1-11-2-14-6-3-5-5-10-3-16 2-5 6-10 10-12 5-2 8-1 11 2 4 3 7 7 8 13z" transform="matrix(.01896 -.24408 .22029 .01391 146 342)"/>
      <path d="M285 809c-6 2-13-1-15-9-2-7 1-16 7-19 6-2 13 1 15 9 2 7-1 16-7 19z" transform="matrix(.01896 -.24408 .22029 .01391 146 342)"/>
      <path d="M283 834c-6 3-13-1-15-8s1-16 7-19c6-2 13 1 15 9 2 7-1 15-7 18z" transform="matrix(.01896 -.24408 .22029 .01391 146 342)"/>
    </g>
  </g>
  <path fill="#e7ca00" stroke="#d4af37" d="M291 195h0l-14 18h-1l1 1a26 26 0 017 17 53 53 0 01-3 17c-2 7-5 13-6 22a23 23 0 006 17 29 29 0 009 8c8 3 15 2 23 3 3 0 5 2 7 4v1-1c2-2 4-4 7-4 8-1 15 0 23-3a29 29 0 009-8c4-4 6-10 6-17-1-9-4-15-6-22a53 53 0 01-3-17c0-6 3-13 7-17l1-1h-1l-14-18h0a20 20 0 01-15 5c-5 0-10-2-14-5h0v1a30 30 0 01-14 4 20 20 0 01-15-5h0zm0 1a21 21 0 0015 5 30 30 0 0014-4v51h-38a54 54 0 003-17c0-6-3-13-7-18l13-17zm58 0l13 17a27 27 0 00-7 18 54 54 0 003 17h-37v-51a30 30 0 0013 4 21 21 0 0015-4zm-67 53h76c2 7 5 12 5 21a21 21 0 01-5 16 28 28 0 01-9 8c-7 3-14 2-22 3-3 0-6 2-7 4-2-2-4-4-7-4-8-1-15 0-22-4-3 0-7-3-10-7s-5-9-5-16c1-9 4-14 6-21z"/>
  <g fill="#008f4c">
    <path fill="#00a854" d="M373 171v5l-1 3-2-1-10-1 1 8c1 1 0 1-1 2l-4 1c-1 1 0 1 2 3l2 2-1 1c-1 1-1 1 3 5s6 5 9 5h3l4-1 6 2v1c-1-2-5-2-6-2h-2l-2 2c-1 2 0 3 2 3 2 1 3 0 3-2v-2c2 0 5 2 6 4 1 3 1 3-1 1a13 13 0 00-4-4l-1 4-1 1-2-1h-2v2l2 5 1 2-3-1c-5-1-4-2-4 1l1 4h-2l-2 1 6 8c2 2 7 4 9 4l4 1 3 1v3l-2 10-2-3c-2-4-2-4-3-3 0 1 0 1 0 0a17 17 0 00-4-8l-1-1-1 2v1l-3-3-3-3-1 3c0 5-1 5-2 3l-2-1v1a40 40 0 001 14 49 49 0 012 6c0 4 3 9 5 11l1 2-2 1c-2 2 0 5 3 4l2 1v6c0 1-3 2-4 1v-7l-2 2a30 30 0 00-13 18l-4 5a20 20 0 00-4 4l-7 3-22 4-29 4a90 90 0 01-3 2 7 7 0 00-2 2v2c1 3 4 3 9 0a31 31 0 018-3l6-1 10-2a199 199 0 0036-7l11-2c6 1 13-1 16-4l4-5 4-4c2-1 1-2-4-2h-5l2-3 3-9-3 1h-3v-1l2-2 2-1a7 7 0 013 1l1 2c0 2 1 3 3 3l3-2c0-2-2-3-4-3a11 11 0 01-3-1l-3-1h8l2 2c4 0 5-5 2-6l-4 2-2 1a17 17 0 00-6 1l4-2a60 60 0 007-3c4-2 9-7 11-12a54 54 0 002-13l-4 1-3 1 1-9v-1a28 28 0 00-10 5l-3 2 1-3 3-1 2-1c1-2 1-4-1-4-1-1-1-1 1-2a16 16 0 007-7l1-2-2 1h-2l1-3 1-4-3-10-2 1-2 1-2-4a59 59 0 00-2-4l-2 1v-2c1-3 2-3 3-2 2 1 4 0 4-2l-1-3h-2l-1-2a3 3 0 00-2-1c-3-1-5 2-3 4l1 5c-1 6-2 6-2 4v-14c2-4 1-11-2-14a35 35 0 00-11-8zm-3 14a21 21 0 015 5l8 13-3-4-7-10c-3-2-4-4-3-4z"/>
    <path d="M383 239v4l2 1 3 4c0 1 0 1 0 0l-1-3v-2l-1-4h-3z"/>
  </g>
  <path fill="#9eab05" d="M289 321l-1 3c1 2 5 0 6-1 0-2-3-3-5-2z"/>
  <path fill="#75b52b" d="M375 176a27 27 0 004 9l2 2-3-7-3-4zm-17 13a27 27 0 008 2l-6-2h-2zm3 6l12 6h4l-2-1a53 53 0 01-6-2l-8-3zm29 13a93 93 0 00-3 15l1 5 1-4a194 194 0 001-17v1zm-9 4c0 4 2 9 3 7a15 15 0 00-2-6l-1-4v3zm-6 0l2 3 1 1v-1a3 3 0 00-1-2l-2-1zm-7 13a76 76 0 008 5l-1-1-6-4h-1zm3 11l3 9h1l-4-9v-2 2zm6 4l1 3 1 2-1-4c0-2-1-3-1-1zm-10 4l7 14c2 4 2 4 2 2l-2-6a535 535 0 01-5-8 23 23 0 00-3-5l1 3zm31 1a76 76 0 00-8 11l-1 3c1 1 2 0 7-8l5-9-3 3zm-8 37a2 2 0 002 3c1 0 2-2 1-3 0-2-2-1-3 0z"/>
  <path fill="#d91023" d="M375 205c-2 1 0 5 2 4s2-3 1-4a4 4 0 00-2-1l-1 1zm13-11v3c1 2 3 1 3-1l-2-2zm4 4v2l1 1c2 0 3-1 2-2 0-2-3-2-3-1zm-19 75c-2 2 0 4 2 3 1 0 2-1 1-2-1-2-2-2-3-1zm10-33v3c2 1 4 0 4-3l-2-1-2 1zm10 0c-1 1 0 2 1 2s3-1 2-2l-1-2-2 1zm1 37c0 1 0 2 2 2l2-2-2-2c-2 0-2 0-2 2zm-3 4c-2 2 0 4 2 4l1-3c-1-2-2-2-3-1z"/>
  <path fill="#75b52b" d="M370 186l2 2a59 59 0 016 9l5 5-7-10-6-7v1z"/>
  <path fill="#eac102" d="M383 249l-1 8a158 158 0 01-3 25v1l1-1 3-3a145 145 0 0017-19l6-9-8 9a244 244 0 01-6 8l-11 11v-2a93 93 0 002-20v-9 1zm-13 33l-3 5a69 69 0 01-10 14l-1 2c-1 1 4 2 7 2 5 1 8 0 21-7l3-2a35 35 0 00-9 3l-10 5h-8l1-1h1l3-1a83 83 0 0016-14 39 39 0 00-6 4 47 47 0 01-15 10h-1l1-1 2-3a64 64 0 009-17l-1 1zm0-65a55 55 0 006 8l7 8 6 6c4-5 6-11 7-15 2-4 3-8 3-13l-4 11-6 15-11-13c-3-4-8-7-8-7z"/>
  <path fill="#cab313" d="M373 175l-1 4-2-1-9-2c-1 0-2 1-1 2l2 7-2 1a11 11 0 00-3 2c-1 0-1 1 1 2 2 2 2 3 1 4l3 4 6 5h10l3-1h1a30 30 0 00-5-3 32 32 0 01-16-17v-5l9 2c4 2 11 8 13 12l1 7c0 5 1 6 1 2l1-8c2-3 1-9-2-13a36 36 0 00-6-5 41 41 0 01-4-3c-1-1-1 1-1 4zm6 1c4 2 5 3 6 5 1 4 2 8 1 11l-1 2-1-3a27 27 0 00-6-7 31 31 0 00-5-4l1-7 5 3zm-16 12a8 8 0 002 2l1 2-3 1-4-2-2-3 4-1 2 1zm7 8c3 2 3 3 7 4 2 1 2 1 1 2s-7 2-9 1-10-8-9-9a14 14 0 015-1l5 3zm14 9l1 3v5a10 10 0 00-1 3 12 12 0 01-1 4v1l-2-1a5 5 0 01-2-2v-8l2-2v-1h-1a7 7 0 00-1 3l-2 1c-2-2-3-1-3 0l2 6v-1l-1-6 2 1 1 4c0 4 0 4-5 3l-3-1 1 6h-5l2 3a20 20 0 0014 10l5 1h1l-2-1-10-7c-4-4-5-7-5-10v-1l4 1c5 1 6 2 8 5 3 3 4 5 5 9l1 3v-3c0-4 1-10 4-16 1-2 5-6 6-5l1 4c2 6 1 7-1 12a19 19 0 01-6 8c-2 1-2 2 1 1s7-4 9-8l1-2-2 1h-2l1-3v-9l-2-4v-2l-2 1a9 9 0 00-1 2c-1 1-2 0-3-4l-2-4-2 2-2 1 1-1c0-1 0-2-1-1v1c0 2-1 2-2 0l-1-2zm8 13a32 32 0 00-3 8l-1 4-1-2a18 18 0 00-2-4l-1-5c1-6 2-9 4-11l2-2 2 3 2 4-2 5zm-20 8l8 9a17 17 0 01-11-8 20 20 0 01-1-3h1l3 2zm29 4l-5 6-2 1 2-3a33 33 0 003-4l3-2-1 2z"/>
  <path fill="#005000" d="M383 209l2 3-1-2-1-1z"/>
  <path fill="#cab313" d="M369 235v4l-1 2-1-1-2-2v3a32 32 0 001 13 52 52 0 012 6c1 5 4 10 9 13l2 4v3-3a65 65 0 00-1-8c-2-7-1-10 2-18l3-5 3 5c3 7 4 10 2 16a33 33 0 01-2 5v1l-1 1-1 1a14 14 0 00-3 3h1l2-2 1-1 3-6a28 28 0 017-12 27 27 0 018-6l5-2-2 11a26 26 0 01-6 10l-10 5-4 1 8-2c5-2 10-7 12-12l3-14-4 2-4 2 1-4 1-6-1-2a32 32 0 00-10 6l-3 3v-5-3 3l-2 8-2-4c-2-3-2-4-3-2l-1-3a23 23 0 00-2-5l-2-2-1 2v1l-2-2-3-3c-1-1-1 0-2 1zm4 2l7 13v1l-1-1c-2-3-6-7-9-8l-1-3 1-3 1-2a13 13 0 012 3zm7 5c1 3 2 5 1 6s-5-8-5-9c1-1 1-2 2-1l2 4zm-9 1a25 25 0 017 8v3a24 24 0 00-2 12v3l-6-8a38 38 0 01-5-20l1-2 1 1 4 3zm31 0a75 75 0 00-1 6c0 2 0 2-3 4a24 24 0 00-6 5l-2 2-1-2a21 21 0 00-1-4l1-4c2-3 11-9 13-9v2zm-28 25l3 4-3-2a19 19 0 01-5-8l1 1a30 30 0 004 5z"/>
  <path fill="#cab313" d="M369 281a32 32 0 00-11 17l-2 3s2 0 3-3c1-5 5-13 10-16l3-2v4l-1 7a28 28 0 01-9 9c-2 2-3 2 0 1l10-10 1-4 2-1 11-3-5 11c-2 2-7 6-9 6l-5 2-4 1-2 1h2l5-1c5-2 8-3 11-6l3-2h8l-2 3a481 481 0 00-4 4 18 18 0 01-3 4 29 29 0 01-13 3c-4 0-4 0-6-2l-3-2-4 2c-4 1-5 1-3-1l4-1h4l-4-1c-2 1-2 1-1-1 2-1 3-3 2-3l-7 7a18 18 0 01-8 4l-10 1-3 1 10-1 10-3c3-3 3-3 2-1h5c4-2 4-2 5-1s1 1-1 2a124 124 0 01-21 5l-8 2h6l10-3 12-3 6-1c3 1 9 0 13-1 3-1 6-3 9-8l3-4 2-1h-5l-4-1a87 87 0 003-7l1-4h-2l-3 1h-2l1-2v-2l-1 2-1 1h-1a6 6 0 01-2 2l-2 1c-1 1-1 0-1-3v-4l-4 2zM322 314l-19 3-10 1v1h-2l-5 4c0 2 2 3 3 3s1 0 0 0c-2 0-3-3-1-5l12-3a213 213 0 0023-4h-1z"/>
  <path fill="#cab313" d="M313 319a80 80 0 00-17 4c-4 2-3 2 0 1a32 32 0 017-2l10-2 8-2h3-2l-9 1z"/>
  <path fill="#fff" d="M354 305c-2 1-4 3-2 3l7-3h-5z"/>
  <g stroke="#d4af37">
    <path fill="#fff" d="M368 432l-9 1-14-1c-5 0-5 0-15 7-7 5-16 4-23 3-4-2-5-2-5-1 1 1 9 4 14 4 7 0 12-2 20-7 7-4 10-5 19-3 10 2 12 1 21-2h-4l1-4-2 1-3 2z" transform="matrix(.59548 0 0 .58466 141 63)"/>
    <path fill="#d91023" d="M354 430c-5-1-8-2-11-1-4 0-6 2-10 4l-8 5-10 1-9-2c-5-2-8 1-2 4a33 33 0 0016 1c5 0 10-2 13-5l7-5h6l15 1c8 0 6 0 9-2l3-2 2-3c-8 5-12 5-21 4z" transform="matrix(.59548 0 0 .58466 141 63)"/>
    <path fill="#d91023" d="M341 435l-7 4c-6 4-12 6-19 6-3 1-13-4-11-3 1 3 4 3 9 4h11c5-1 7-3 9-5a34 34 0 0114-5l9 3h11c5-1 8-4 12-7l-4 1c-6 3-16 4-21 2h-13z" transform="matrix(.59548 0 0 .58466 141 63)"/>
  </g>
  <path fill="#00a854" d="M276 176a38 38 0 00-17 14l-2 2 1-6 1-7-2 1a41 41 0 00-7 13l-1 9v7l-1-5c-1-4-2-8-4-9l-1-1c-1 2 0 8 1 13l-1-2-2-3v8l-2-1c-3-3-3-3-3-1l1 3v2l-1 1c-3 0-3 1-3 3l2 7c1 1 1 0 2-3v-3l2 3a77 77 0 019 18c2 6 2 7 0 3a72 72 0 00-3-5l-13-14 1 7 4 6 3 3-2-1-6-3 2 4 3 5h-2a6 6 0 00-3 0l-1 3c0 4 1 7 2 7l2-5 2 1 14 17 4 6-5-4-15-8h-1l7 7 6 6-3-1a71 71 0 00-6-1l3 3a68 68 0 008 7l4 2a35 35 0 00-12-2l6 5 8 3c6 2 10 4 13 7l2 2-4-2-16-5c-1 0 4 5 9 8a80 80 0 0019 10l18 4 8 1 10 2a100 100 0 0131 7l7 1c5 0 6 0 4-3-1-2-4-4-9-5l-9-1a726 726 0 00-29-5c-14-3-20-5-27-11a43 43 0 01-13-37l1-6-5 10-1 3v-5c0-9 4-16 8-21l2-2h-2c-2 0-3 1-5 3l-3 3 2-2a27 27 0 018-10l3-2h-2c-3 0-9 4-13 9-2 3-2 2 0-2a42 42 0 018-13l2-2c-3 0-7 3-11 8v-1a40 40 0 016-10c2-2 1-2-1-1a26 26 0 00-9 10l-2 2a61 61 0 001-3 46 46 0 0113-23l2-3-9 5c-3 3-3 3-2 1a57 57 0 0118-18l4-3-11 3a42 42 0 00-4 3l-2 1 10-9 1-1c-2-1-9 3-14 7l-2 2 1-2a48 48 0 0115-15 61 61 0 014-3v-1l-4 1zm77 145a6 6 0 012 2l-3 1c-2 0-2 0-2-2s1-3 3-1z"/>
  <path fill="#9eab05" d="M350 321c-1 1-1 3 1 3l5-1-4-3h-2z"/>
  <path fill="#cab313" d="M279 176a32 32 0 00-15 8l-5 5-2 4 1-7 1-8-6 9a31 31 0 00-3 16v7l-2-5-4-11-1 2c-1 1 0 3 2 12l-1-2-4-4 2 2a44 44 0 013 6 85 85 0 016 20l-1-1-2-5a74 74 0 00-3-6 38 38 0 01-4-13l-1-2 1 6 1 3-3-3c-2-2-2-3-3-2l1 5 1 2h-2l-3 1v3l2 6 2-4v-2l1 1a78 78 0 0110 20 111 111 0 014 16l-1-4c-2-9-5-14-14-23 0 0-3-4-6-5v2c1 4 3 6 8 12a43 43 0 013 5l-2-2-8-5 3 5 1 4h-4l-1 5 1 4h1l1-3 1-2a48 48 0 014 4 81 81 0 002 2 332 332 0 0113 18l1 2-1-2a75 75 0 00-19-11h-1c2 4 10 10 12 11l1 3-3-2c-6-2-8-2-7-1a4 4 0 002 1 43 43 0 0116 7l13 12-2-1a44 44 0 00-11-6l-4-1-7-1h-3l2 1 13 7a59 59 0 017 3l7 5a124 124 0 00-20-7l3 3a76 76 0 008 7c11 7 20 10 39 12l5 1 9 2c14 1 22 3 30 6a23 23 0 009 2h4l-3-5-9-3-8-2-16-3c-19-3-25-4-30-7a40 40 0 01-22-34 56 56 0 010-9v-4l-5 10v2-3a34 34 0 017-21l3-4c-2 0-4 1-7 4l-3 2 7-9 2-2-6 5c-6 8-7 16-7 27a36 36 0 010 6l-3-6c-2-7 1-20 7-26l3-5-5 6-1 1 1-2a45 45 0 019-16v-1c-3 1-6 3-9 7l-2 2 5-10 3-4-3 2a28 28 0 00-8 9c-1 3-1 2-2 2a43 43 0 0113-26l3-3c-3 1-7 3-10 6l-2 2 3-4a54 54 0 0114-15l6-4-5 1a38 38 0 00-12 6l3-3 7-6c2-1 2-2 0-1a32 32 0 00-13 7v1l-2 1 2-3a47 47 0 0116-16l1-1zm-39 27zm35-26a73 73 0 00-12 12 60 60 0 00-7 13l-2 4a86 86 0 013-12l1-2a42 42 0 012-4l5-5 1-1 9-5zm-17 3l-1 10a231 231 0 00-5 25c0 4-1 4-1 2l-1-10c0-10 0-13 3-19a29 29 0 015-8zm14 8l-3 4a57 57 0 00-16 27l-1 3v-3a45 45 0 014-15l5-8 1-1 3-3 7-4zm6 3l-3 2a70 70 0 00-13 14 84 84 0 00-8 16c-2 4-2 2 0-4a69 69 0 017-18l2-2 1-1 3-1 11-6zm-34 4v1a38 38 0 012 5 94 94 0 015 25 83 83 0 00-3-10l-5-20 1-1zm26 11l-2 2a49 49 0 00-13 28l-2 6-1-3a41 41 0 015-20l1-3 1-2c3-2 6-6 9-7l2-1zm-33 1l1 1a85 85 0 013 5 118 118 0 017 14 69 69 0 00-6-8l-5-10v-2zm-1 7c2 0 5 3 8 7a69 69 0 018 21l3 17v1l-1-1-2-6a101 101 0 00-5-19c-2-6-7-14-9-16a3 3 0 00-1 0 7 7 0 00-1-2c-1-1-2-1 0-2zm-3 1l1 1c2 1 3 2 2 3v4c-1 1-1 0-2-2l-1-4v-2zm34 7v1l-2 2a69 69 0 00-9 24c-1 4-2 2-2-3a30 30 0 018-20c2-3 4-4 5-4zm-34 3l5 5a72 72 0 018 9c1 3 4 8 4 11l-3-4a175 175 0 00-6-7l-9-13 1-1zm38 2l-3 3a52 52 0 00-5 7l-6 19c-1 6-1 6-1-1 1-12 5-22 12-27l3-1zm-38 9l2 1 4 3 4 2a16 16 0 003 5 68 68 0 019 17l1 3-4-6a61 61 0 00-12-14 20 20 0 01-5-7l-2-4zm41 6l-3 3a32 32 0 00-7 13 75 75 0 002 29 48 48 0 01-4-11v-19l5-11 7-4zm-40 2l3 2c6 3 13 12 21 27l5 11a266 266 0 00-26-34v-1a20 20 0 00-3-3c-2-1-2-1-1-2h1zm-2 3h2l-1 5-1-3v-2zm36 13v6a43 43 0 0014 35c6 5 13 8 23 10l7 1 5 1h1l11 1a186 186 0 0123 5c2 1 5 4 5 6h-5a21 21 0 01-8-2c-7-3-16-5-28-6l-30-5a68 68 0 01-17-6 52 52 0 01-15-10l-3-3 3 1c8 2 15 5 23 10 7 4 9 6 13 6l4 1-4-2a37 37 0 01-25-41 54 54 0 013-8zm-33 2h1c3 1 15 8 19 12a30 30 0 014 6l2 3-3-2a67 67 0 00-6-4 86 86 0 01-10-9l-7-6zm8 21l2 1 5 1c8 2 18 8 23 14l2 3-2-1-2-2-8-6a93 93 0 00-8-3l-12-6v-1z"/>
  <path fill="#cab313" d="M272 234l-4 3c-2 2-2 2 0 1l6-4-1 2h1l3-2h-5zm-35 38c1 1 16 13 17 12l-5-3a65 65 0 01-7-6c-2-1-4-4-5-3z"/>
  <g stroke="#d4af37">
    <path fill="#fff" d="M246 432a31 31 0 01-16 1 21 21 0 00-6 0l2 2 4 2-3 1h8a37 37 0 009-1 47 47 0 019-2l9 4c9 4 15 6 21 6 4 0 9-1 13-5 4-2 1-2-3 0-5 2-15 3-27-3a44 44 0 00-14-6l-6 1z" transform="matrix(.59548 0 0 .58466 141 63)"/>
    <path fill="#d91023" d="M220 430l4 3 13 1 10-1c6-1 9-1 20 4 13 7 21 6 28 2 9-3 0-2-4-3l-5 3c-3 1-5 1-10-1l-8-4-7-2-7-1-9-1a44 44 0 01-21-1c-6-2-7-2-4 1z" transform="matrix(.59548 0 0 .58466 141 63)"/>
    <path fill="#d91023" d="M244 437a35 35 0 01-17 1l-4 1c-5 2-5 2-3 3h12c8 0 9 0 14-2a24 24 0 017-3l7 4c9 5 12 6 20 6 7 0 16-5 18-7a28 28 0 01-18 5 41 41 0 01-20-7c-5-3-7-4-16-1z" transform="matrix(.59548 0 0 .58466 141 63)"/>
    <path fill="#fff" d="M294 418c1-2 0-2-3-3a47 47 0 01-23-11c-2-2-3-2-3 0s6 8 11 10a46 46 0 0015 5l2-1z" transform="matrix(-.20995 -.43098 -.90458 .22461 742 335)"/>
    <path fill="#d91023" d="M291 421l-3-3a42 42 0 01-19-9c-4-4-6-4-5-1 2 4 15 11 20 12 5 2 6 3 7 1z" transform="matrix(-.20995 -.43098 -.90458 .22461 742 335)"/>
    <path fill="#ed1c24" d="M296 415v-1l-4-3c-4 0-13-3-18-6a22 22 0 00-6-3c-2 0-2 0 0 2a44 44 0 0021 10c3 1 5 2 7 1z" transform="matrix(-.20995 -.43098 -.90458 .22461 742 335)"/>
    <path fill="#fff" d="M294 418c1-2 0-2-3-3a47 47 0 01-23-11c-2-2-3-2-3 0s6 8 11 10a46 46 0 0015 5l2-1z" transform="matrix(.23749 -.41683 .88814 .2813 -102 308)"/>
    <path fill="#d91023" d="M289 421c0-1 1-2-1-3a42 42 0 01-19-9c-5-5-7-6-4-1 1 5 14 11 19 13h5z" transform="matrix(.23749 -.41683 .88814 .2813 -102 308)"/>
    <path fill="#ed1c24" d="M296 415v-1l-4-3c-4 0-13-3-18-6a22 22 0 00-6-3c-2 0-2 0 0 2a44 44 0 0021 10c3 1 5 2 7 1z" transform="matrix(.23749 -.41683 .88814 .2813 -102 308)"/>
    <path fill="#fff" d="M320 403a31 31 0 00-17 13c-2 3-4 4-3 5 2 1 3-1 6-4 7-7 13-10 20-10h6l-2-3c-2-3-4-3-10-1zm-51 2c-1 1-1 2 3 3a49 49 0 0124 11c2 2 3 3 3 1s-7-9-12-11c-4-3-12-5-15-5l-3 1z" transform="matrix(.59517 .01882 -.01898 .58436 150 60)"/>
    <path fill="#d91023" d="M319 400a52 52 0 00-6 2 48 48 0 00-10 9l-3 5v3l3-3c6-8 12-12 20-14l6 1v-1c-1-2-2-3-5-3a13 13 0 00-5 1z" transform="matrix(.59517 .01882 -.01898 .58436 150 60)"/>
    <path fill="#d91023" d="M272 403c0 1 2 2 5 2a42 42 0 0119 10c3 3 5 4 4 0-2-4-15-10-20-12s-7-1-8 0zm49 4a39 39 0 00-14 9c-4 4-6 6-4 6l4-3c7-6 20-9 26-7 2 1 1-2-1-5-1-2-8-1-11 0zm-53 0l-4 3 5 1c5 1 14 4 21 8l6 2c2 0 2 0 0-2a49 49 0 00-24-11c-3-1-3-2-5-1z" transform="matrix(.59517 .01882 -.01898 .58436 150 60)"/>
    <path fill="#d91023" d="M305 422a34 34 0 00-1 14h5v-8l3-4c-3-2-3-2-7-2z" transform="matrix(.59548 0 0 .58466 141 65)"/>
    <path fill="#fff" d="M296 429v7h8v-8l1-5-4-1h-3l-2 7z" transform="matrix(.59548 0 0 .58466 141 65)"/>
    <path fill="#d91023" d="M291 429v6l6 1v-6l1-8-4 1-4-1c2 2 1 7 1 7z" transform="matrix(.59548 0 0 .58466 141 65)"/>
  </g>
</svg>
