<svg xmlns="http://www.w3.org/2000/svg" id="flag-icons-ph" viewBox="0 0 640 480">
  <path fill="#0038a8" d="M0 0h640v240H0z"/>
  <path fill="#ce1126" d="M0 240h640v240H0z"/>
  <path fill="#fff" d="M416 240L0 480V0"/>
  <path fill="#fcd116" d="M27 42l14 13 17-9-8 17 14 13-19-1-8 17-4-19-19-2 16-10zm324 173v19l18 6-18 6-1 19-11-15-18 6 11-16-11-16 18 6zM37 388l8 17 19-1-14 13 8 17-17-9-14 12 3-18-16-10 19-2zm114-249l-6 6 3 47-3 1-5-43-6 5 8 38a48 48 0 00-17 7l-22-32h-7l26 34a48 48 0 00-2 2l-31-35h-9v8l36 31-2 3-35-26v7l33 21c-4 6-6 11-7 18l-39-8-5 5 43 6v3l-47-3-6 6 6 6 47-3v3l-43 6 5 5 39-8a48 48 0 007 17l-33 22v7l34-26a48 48 0 002 2l-35 31v9h9l31-35 3 2-27 34h7l22-32c5 3 11 6 17 7l-8 38 6 5 5-43 3 1-3 47 6 6 7-6-3-47 3-1 5 43 5-5-7-38a48 48 0 0017-7l22 32h7l-27-34a48 48 0 003-2l31 35h9v-9l-36-31 2-2 35 26v-7l-33-22c4-5 6-10 7-17l39 8 5-5-43-6v-3l47 3 6-6-6-6-47 3v-3l43-6-5-5-39 8a48 48 0 00-7-18l33-21v-7l-35 26a48 48 0 00-2-2l36-31v-9h-9l-31 35a48 48 0 00-2-2l26-34h-7l-22 32c-5-3-11-6-17-7l7-38-5-5-5 43-3-1 3-47z"/>
</svg>
