<svg xmlns="http://www.w3.org/2000/svg" id="flag-icons-pn" viewBox="0 0 640 480">
  <path fill="#00247d" d="M0 0h640v480H0z"/>
  <path fill="#012169" d="M0 0h320v240H0z"/>
  <path fill="#fff" d="M38 0l122 91L281 0h39v31l-120 90 120 89v30h-40l-120-89-119 89H0v-30l120-89L0 32V0z"/>
  <path fill="#c8102e" d="M212 141l108 79v20l-135-99zm-92 10l3 17-96 72H0zM320 0v2L196 96l1-22 98-74zM0 0l120 88H90L0 21z"/>
  <path fill="#fff" d="M121 0v240h80V0zM0 80v80h320V80z"/>
  <path fill="#c8102e" d="M0 97v48h320V97zM137 0v240h48V0z"/>
  <path fill="#f7e017" d="M410 252a57 57 0 00-19 28c-6 27-13 34-25 28 0 14 13 15 19 7 0 14 5 26 16 36 5 4 6 1 3-4-2-4-2-20-7-28 8 5 18 2 18-12-10 5-19 5-20-8-1-15 5-37 15-47zm-11-108c1-6 0-11-4-15-8-6-15-4-21 1-8-4-13 12-22 9 1 5 4 7 9 6-5 4 0 10-6 15 10 3 16-3 15-13a10 10 0 0014 0c-5-2-5-7-3-12 3-6 19-6 18 9z"/>
  <path fill="#337321" d="M424 222c-12 6-34 4-36-12-2-15 13-22 17-24 6-4 11 2 9 9 7-3 9-11 5-16 10 1 18-6 22-16-4 3-12 1-20 1 3-3 3-8 2-10-8 8-19 4-33 27a1023 1023 0 009-37c1-15-15-16-18-9 4 4 2 9 0 17-1 8-5 29-8 36-1-11-8-12-9-17-2 1-3 5-3 8-2-3-11 0-14-4-3 7 2 14 8 17-3 0-4 4-8 4 5 5 10 8 16 8 6 1 10 3 13 10 6 11 27 18 48 8z"/>
  <path fill="#f7e017" d="M453 208c-6 19-25 32-33 34-14 4-43 18-51 25a9 9 0 01-3-1c-4-3-7-12-1-19 22-20 44-11 59-25-12 6-34 4-36-12a55 55 0 0054-16 98 98 0 0111 14z"/>
  <path fill="#337321" d="M410 252c-11 9-16 32-15 47 0 4 2 7 3 9 1-9 7-31 22-41 13-8 33-27 41-48a17 17 0 00-8-10c-8 21-27 30-43 43z"/>
  <path fill="#316d3a" d="M447 200a50 50 0 01-21 16 11 11 0 002-6 77 77 0 01-40 0 55 55 0 0054-16 21 21 0 015 6z"/>
  <path fill="#337321" d="M365 247c-17 16-5 30 1 33-2 12 9 10 9 20 4-3 5-9 5-15 5 6 19 0 22 11 2-12-8-24-19-23 5-4 2-11-3-13-1 9-10 9-14 6s-7-12-1-19z"/>
  <path fill="#f7e017" d="M403 350c-2 1-2 3-1 5 2 3-2 10 6 12 2 0 4-1 5-4 2-7-5-8-6-11 0-4-3-3-4-2z"/>
  <path fill="#f7e017" d="M409 363c-2 1-5 3-4 11 1 3 1 11-2 11 1 1 5 2 7 0 2 3 5 2 6-1 2 1 5-1 5-3 1 1 4-1 4-6 2 1 4 0 5-2-3 0-10-4-12-7s-6-4-9-3z"/>
  <path fill="none" d="M370 135l4-5m39 35c2-2 5-2 8-1m-11 221l-1-9m7 8l-4-7m9 4a19 19 0 01-7-9m10 3c-1 0-7-4-10-8"/>
  <path fill="#f7e017" d="M529 247c27 23 29 42 25 53-3-10-14-26-26-30z"/>
  <path fill="#337321" d="M479 234h51v61c0 52-29 83-58 99a108 108 0 01-58-99v-61h36c0 3 0 8 4 13 9-1 18-8 25-13z"/>
  <path fill="#006ec7" d="M530 234v61c0 16-2 29-7 41l-51-93-51 93c-4-12-7-25-7-41v-61z"/>
  <path fill="#f7e017" d="M525 332a116 116 0 01-4 10l-49-91-49 91-3-10 52-98z"/>
  <path fill="#f7e017" d="M495 365l5 3a36 36 0 003-20c-3 7-13 7-16 12l5 2c-4 4-12 9-16 11v-49l-2-9v-10c1-2 0-5-2-5s-2 3-2 5v10l-1 9v49c-3-7-13-5-17-12a14 14 0 015 0c-3-12-13-13-14-16 0 5-2 16 1 20l3-2c4 8 21 8 25 22 3-5 15-11 23-20z"/>
  <path fill="#f7e017" d="M472 325l21-1 2-4-2-4-21-1-20 1-2 4 2 4 20 1zm-2-20l-3-1c-3 0-5 2-5 4 0 3 2 5 5 5 2 0 4-2 4-5h3c0 4-3 7-7 7s-8-3-8-7c0-3 4-6 8-6a8 8 0 013 0v3z"/>
  <path fill="#f7e017" d="M452 324l2-4-2-4"/>
  <path fill="#f7e017" d="M453 324l2-4-2-4m11 9c2 0 3-2 3-5s-1-5-2-5m2 10c2 0 3-2 3-5s-1-5-3-5m9 10c1 0 2-2 2-5s-1-5-2-5m3 10c1 0 2-2 2-5s-1-5-2-5m12 9l2-4-2-4m-44 47l5-2m41 2l-1-1m3 3c4-3 6-7 8-11"/>
  <path fill="#fff" d="M462 277l2-2 3-2h14c2 0 2 1 2 2v20l-1 1h-20v-19"/>
  <path fill="#e5e5e5" d="M478 298c2 0 1 0 3-2l1-2v-19l-1-1h-14l-3 2-1 2v20z"/>
  <path fill="#fff" d="M479 297l-1 2h-15l-1-2v-20l1-1h15l1 1z"/>
  <path fill="#96877d" d="M508 222c3 4 4 8 2 12h-4c2-5 1-10-7-11-11-1-25 21-45 24-6-7-5-21 2-27a82 82 0 00-18-28 55 55 0 00-10-1c3-7 11-13 18-16a82 82 0 013-4c1-9 42-5 51 0 0 10 4 43 8 51z"/>
  <path d="M458 228c-1-15-7-27-16-36a24 24 0 0018-3c8-5 27-13 34-10l1 6c-2-4-21 3-26 5s-7 5-5 13c-3-3-2-5-5-7l2 12c-1-3-3-9-7-13a74 74 0 015 35c3 0 10-3 13-5-3 3-10 5-14 6a22 22 0 00-3 12c0-4 1-14 3-15zm50-6c-4-4-11-6-20-4a28 28 0 017-2l-3-15 3-1 4 16 4 1-5-21 4-2a138 138 0 006 28z"/>
  <path fill="#96877d" d="M506 234c2-5 1-10-7-11-6-1-12 5-20 11zm-50-48a45 45 0 01-15-2l1-3a47 47 0 00-8 7c5 1 17 1 22-2z"/>
  <path fill="none" d="M456 220l2 10m-12-55l-5 9a48 48 0 0015 2"/>
  <path fill="none" d="M438 192h4c4 2 13 2 18-3 6-4 21-16 39-18"/>
  <path fill="none" d="M434 188c5 1 16 1 22-3a76 76 0 0138-14"/>
  <path fill="#337321" d="M529 247c19 13 33 26 37 46s11 26 21 20c-2 12-14 14-24 5 1 13-5 29-19 35-1-8 5-14 3-21 0-3-1-10 3-13-7 3-19-2-20-13 9 4 20 5 24-6s2-30-25-53zm23-105c6-16 22-14 27-8 15-8 17 11 30 7 0 4-5 7-9 7 5 5-2 11 8 15-9 5-22 0-25-12-3 6-13 6-18 1 9-2 9-11 4-14-6-4-15-2-17 4zm-45 33a82 82 0 0022 35c11 10 27 8 36-2 0 19-19 20-30 15-5-3-9-2-4 3 7 6 22 11 40 14 32 7 21 32 11 32 3 0 5-3 1-6-27-25-83-15-82-70-6 14-30 8-19-9 4 3 10 3 12-1s1-10-6-15c1 0 4 0 3-3 1 2 2 4 6 3l3 3 1-3c0 3 4 5 6 4z"/>
  <path fill="#f7e017" d="M535 223c13 8 28 8 42-8 4-5 11-9 15-9 5-1 5-5 8-6-2-1-3-4-6-3 8-3 6-10 10-13-3 1-9-4-13 2 1-3-1-6-2-7 0 3-7 4-8 12-1 5-4 5-4-3 0-5-3-20-6-28s-4-18 0-20a8 8 0 00-2-2c-6-4-15-2-17 4-5 15 11 24 10 40-3-12-23-15-23-27-6 3-5 8-3 12-4-6-13 4-21-4-1 11 9 15 17 16-4 7 1 13 7 15 0-12 26-7 26 14 0 19-19 20-30 15zm36 17c32 7 21 32 11 32-6 0-11-5-11-9-7 3-5 10 0 13-14-1-20 8-21 18 3-5 11-5 14-4s10 2 13-2c-2 2 2 7-2 11 12 0 17-11 15-16 16-14 13-37-19-43zm-24 108c2 1 2 4 1 5-3 4 1 12-8 13-2 1-4-1-5-4-2-8 6-8 7-12s4-3 5-2z"/>
  <path fill="#f7e017" d="M540 362c2 2 5 4 3 13 0 3 0 12 3 13-2 1-7 1-8-1-2 3-6 2-7-2-2 2-5-1-5-4-2 2-5 0-4-5-2 0-5-1-6-3 3 0 11-4 13-8 2-3 7-4 11-3z"/>
  <path fill="none" d="M538 387l1-10m-8 8c1-1 4-4 5-8m-10 5a22 22 0 007-10m-11 4c2-1 8-5 11-9"/>
  <path fill="#f7e017" d="M501 196c0 23 9 35 23 42-5-3-3-13-10-16 2 0 4 2 8 1-2-4-5-11-12-12h9c-4-6-14-3-18-15zm-2-22l-2-2c-4 0-5-2-6-3 1 2-2 2-3 2 7 5 8 12 6 15-2 5-8 4-12 1 0 10 13 13 17 1 0 2 3 2 3 5 3-6 1-13-3-19z"/>
  <path fill="#337321" d="M479 128a27 27 0 01-8-19c0-5 2-10 10-8-3 0-1 4-3 5 1 1 4-1 4-2 1 2 4 1 4 3 1-1 0-5-2-6l2-6c-2 0-3 2-4 4 1-2 0-6-3-7v6c-3-1-7 1-8 4l2-10c1-1-1-3-2-1-2-4-8-6-10-4-3 2-6-1-9 2-2 4-9 4-9 8 1 2 0 5-1 6-3 3 1 5 2 8 0-9 13-25 27-19a30 30 0 00-3 12c0 8 1 18 8 25z"/>
  <path fill="#c8102e" d="M483 101c0-2 4-5 8-5 6 1 10 6 15 5s2 2 1 3l-1 3c0 1 0 2-2 1-4-3-8 1-14-1-4-2-7-3-7-6z"/>
  <path fill="#96877d" d="M460 154a34 34 0 00-15-16v-4a50 50 0 0010-8c17 8 40-3 50-15l4 2-2 3-2-1a130 130 0 01-15 14l11 2c9-7 17-13 20-13l3 4-2 2-2-2a109 109 0 00-27 39c-6-1-29 0-33-7z"/>
  <path fill="none" d="M490 129l-3-1a23 23 0 01-13 3"/>
  <path fill="none" d="M461 152c-2-8 1-18 5-21a34 34 0 0035 0"/>
  <path fill="none" d="M461 148c7-1 23 1 26 1 4 1 11 2 10 4m-33-7l2-2-2-2-2 2z"/>
  <path fill="#337321" d="M469 104c-3-3-10-5-11 0-1 2-2 5-4 6s-1 4 0 5c1 4 0 7 3 9 0-3 4-6 7-6 4-1 9-4 10-7 0-3 1-6-5-7z"/>
  <path fill="#96877d" d="M453 137h1v6l5-3 1 1-5 3v1l5 3-6-3v7h-1v-6a2 2 0 01-1-1l-5 4-1-1 6-3v-1l-6-3 1-1 5 3h1z"/>
  <path fill="#96877d" d="M461 152a11 11 0 111-14 24 24 0 00-2 6 7 7 0 10-7 8c3 0 6-3 7-6l1 6z"/>
  <path fill="#337321" d="M449 162l-2-4a6 6 0 014 1l-1-5 5 4v-6l4 4 2-7 3 4c0-2 1-4 3-5l3 7 3-3v4c2-1 3-2 3-4l3 4v-5c1 1 3 2 3 4l3-5 1 6 3-4v6l3-3v3a14 14 0 003-6l4 5 4-3v4l1-2v5a6 6 0 013-1 20 20 0 01-2 7c-11-3-34-4-56-5z"/>
  <path fill="#f7e017" d="M486 102c0-1 2-2 5-2 5 0 8 3 11 2 4 0 2 1 1 1l-1 2h-10c-4-1-5-1-6-3zM452 169c-3 4-7 3-7 1-1-3 2-4 1-6s1-4 2-3 5-2 7 1l2 7c-1 2-4 1-5 0zm15-6c-1-2 3-5 4-3 2 2 5-2 7 1l3 7c0 2-5 3-6 1 0 1-5 2-6-1l-2-5zm23 2c-1-2 3-4 6-1 0-2 4-2 5 2v7c0 1-2 2-4-1-4 0-5-2-6-3l-1-4z"/>
  <path fill="#337321" d="M454 162c0-1 3-3 6-1 2 1 5-2 7 1l2 8c-1 1-5 1-6-1h-5c-2-1-3-5-4-7zm24 1c-1-2 5-4 7-1 1-1 4-1 5 3 2 3 2 5 1 6-1 0-4 1-5-1-1 1-5 0-6-2l-2-5zm23 3c0-2 2-2 3 0s5 0 5 4l-1 5c-1 1-7 0-7-3v-6z"/>
  <path fill="none" d="M452 169c-1-2-3-5-5-2m16 2l-2-4m14 4l-3-3m2-3l4 3 3 3m5 1l-1-3m0-5l2 3m10 7a9 9 0 00-4-4m3-3c0 4 5 4 5 6m3-5l1 3"/>
</svg>
