<svg xmlns="http://www.w3.org/2000/svg" xmlns:xlink="http://www.w3.org/1999/xlink" id="flag-icons-pt" viewBox="0 0 640 480">
  <path fill="red" d="M256 0h384v480H256z"/>
  <path fill="#060" d="M0 0h256v480H0z"/>
  <g fill="#ff0" fill-rule="evenodd" stroke="#000" stroke-linecap="round" stroke-linejoin="round">
    <path d="M340 306c-33-1-180-93-181-108l8-13c14 21 165 111 180 107l-8 14"/>
    <path d="M165 183c-3 8 39 33 88 64 50 30 93 49 96 46l2-3-4 1c-14-4-49-20-93-47-43-26-81-50-87-61a6 6 0 010-3h-1l-1 3h0zm175 124h-3c-12-1-49-19-92-45-51-30-92-57-88-64l2-3v1c-4 12 82 61 87 64 50 31 92 49 96 44l-2 3z"/>
    <path d="M256 207c32 0 72-4 95-13l-5-8c-13 7-53 12-90 13-44-1-74-5-90-15l-4 9c28 12 57 14 94 14"/>
    <path d="M353 194c-1 1-16 6-38 10a381 381 0 01-59 4 416 416 0 01-56-3c-23-4-35-9-40-11l1-2c13 5 25 8 39 10a412 412 0 0056 4 392 392 0 0058-4c23-4 35-9 37-11l2 3zm-5-8c-2 2-14 6-36 9a388 388 0 01-56 4c-22 0-40-1-53-3-22-3-34-8-38-10l1-2c4 2 15 6 37 10a385 385 0 0053 3 384 384 0 0056-4c21-3 33-8 35-10l1 3zm-198 60c20 11 64 16 106 16 38 0 87-5 106-15l-1-11c-5 9-58 18-105 17-47 0-91-7-106-16v9"/>
    <path d="M363 245v2c-3 3-20 8-42 12a434 434 0 01-66 4 400 400 0 01-62-4 155 155 0 01-44-12v-3c10 7 36 11 45 13a412 412 0 00169-13zm0-9v2c-3 3-20 8-42 12a434 434 0 01-66 4 414 414 0 01-62-4 155 155 0 01-44-12v-3c10 7 36 11 45 13a408 408 0 0061 4c27 0 49-2 65-4 16-3 38-9 43-12zm-107 68c-46 0-85-12-93-14l6 9a250 250 0 0087 15c35-1 65-4 87-14l6-10c-15 7-64 14-93 14"/>
    <path d="M345 297a143 143 0 01-3 4c-10 4-26 8-33 9a296 296 0 01-53 5c-41-1-74-9-89-16l-2-2h1l2 1a287 287 0 0088 14 307 307 0 0088-14l1-1zm5-8a287 287 0 01-2 3c-5 2-20 6-41 9-14 2-23 4-51 4a347 347 0 01-94-13l-1-3a390 390 0 0095 14c26 0 37-2 51-4 24-4 37-8 41-9a3 3 0 000-1l2-1z"/>
    <path d="M351 238c0 30-15 57-28 68a99 99 0 01-68 29c-30 0-58-20-66-28a101 101 0 01-28-68c2-33 15-55 34-71a100 100 0 0164-23 98 98 0 0171 36c12 15 18 32 21 57zm-95-103a106 106 0 01106 105 106 106 0 11-212 0c0-58 48-105 106-105"/>
    <path d="M256 135a106 106 0 010 211 106 106 0 010-211zM153 240c0 57 46 103 103 103 56 0 103-46 103-103s-47-103-103-103-103 46-103 103z"/>
    <path d="M256 143a97 97 0 0197 97 97 97 0 01-97 97c-53 0-97-44-97-97a97 97 0 0197-97zm-94 97c0 52 42 94 94 94s94-42 94-94-42-94-94-94a95 95 0 00-94 94z"/>
    <path d="M260 134h-9v212h9z"/>
    <path d="M259 133h3v215h-3V133zm-9 0h3v215h-3V133z"/>
    <path d="M362 244v-8l-7-6-36-9-52-6-63 4-45 10-9 7v8l23-10 54-9h53l38 4 27 7z"/>
    <path d="M256 224c25 0 49 2 68 6 20 4 34 9 39 14v3c-6-7-25-12-39-15a377 377 0 00-137 0c-15 3-35 9-38 15v-3c1-4 16-10 37-14 19-4 44-6 70-6zm0-9a383 383 0 0168 6c20 4 34 9 39 14v3c-6-7-25-12-39-15-19-4-43-6-68-6a376 376 0 00-69 6c-15 3-36 9-38 15v-3c1-4 17-10 37-14 19-4 44-6 70-6zm-1-46c40-1 74 5 90 13l5 10c-13-7-50-15-95-14-36 0-74 4-94 14l7-11c16-8 54-12 87-12"/>
    <path d="M256 177a354 354 0 0161 4c16 3 32 7 34 10l2 3c-6-4-19-7-36-11s-39-4-61-4c-25 0-45 1-62 4a109 109 0 00-33 11l1-3c6-3 16-7 32-10 17-3 37-4 62-4zm0-9c21-1 43 1 59 4a96 96 0 0131 10l2 4c-4-5-20-10-34-12-16-3-37-4-58-4a361 361 0 00-59 4 97 97 0 00-30 9l2-3c6-3 15-6 27-8a357 357 0 0160-4zm52 116a276 276 0 00-52-4c-66 1-87 14-89 17l-5-8c16-12 52-18 94-18 22 1 41 2 57 5l-5 8"/>
    <path d="M256 279c18 0 36 1 53 4l-1 2c-16-3-34-4-52-4-25 0-49 2-70 8-7 2-18 7-19 10l-2-2c1-2 8-6 20-10 24-7 47-8 71-8zm0-9a327 327 0 0158 5l-2 2a299 299 0 00-56-5c-24 0-50 2-73 9-7 2-21 7-21 10l-1-2c0-3 11-8 22-11 23-6 49-8 73-8z"/>
    <path d="M349 291l-7 12-23-20-59-40-66-36-34-12 7-13 3-2 21 6 70 36 41 25 34 25 14 16z"/>
    <path d="M159 196c6-4 50 15 96 43s90 60 86 66l-1 2h0v-3c-2-6-34-31-86-63-50-30-93-48-97-43l2-2zm192 94c4-7-37-38-88-68-52-30-90-47-97-42l-1 3s0 0 0 0l5-1c11 0 45 15 92 42 21 12 88 55 88 67l-1 2 2-2z"/>
  </g>
  <g transform="translate(0 27) scale(1.06667)">
    <path fill="#fff" stroke="#000" d="M181 211a59 59 0 0017 42 59 59 0 0042 17 59 59 0 0042-17 59 59 0 0017-42v-79H181v79z"/>
    <path fill="red" stroke="#000" d="M183 211a56 56 0 0017 40 57 57 0 0040 17 57 57 0 0040-17 56 56 0 0017-40v-77H183v77m91-54v54a33 33 0 01-10 24 34 34 0 01-24 10c-10 0-18-4-24-10a34 34 0 01-10-24v-54h68z"/>
    <g id="e">
      <g id="d" fill="#ff0" stroke="#000" stroke-width="1">
        <path stroke="none" d="M190 154c0-5 4-6 4-6s4 1 4 6h-8"/>
        <path d="M187 148l-1 6h4c0-5 4-6 4-6s4 1 4 6h5l-1-6h-15zm-1 6h17v2h-17l-1-1 1-1z"/>
        <path d="M192 154c0-3 2-4 2-4s3 1 3 4h-5m-6-9h16l1 1h-17s0 0 0 0v-1zm1 2h16l-1 1h-15l-1-1 1-1zm5-11h1v1h1v-1h1v1h1v-1h1v2s0 0 0 0h-5s0 0 0 0v-2zm4 3v6h-4v-6h4"/>
        <path id="a" d="M191 142v3h-4v-3h4z"/>
        <use xlink:href="#a" width="100%" height="100%" x="11"/>
        <path id="b" d="M186 139h2v1h0v-1h2v1h0v-1h2v2l-1 1h-4a1 1 0 01-1-1v-2z"/>
        <use xlink:href="#b" width="100%" height="100%" x="11"/>
        <path fill="#000" stroke="none" d="M194 141h1v1h-1v-1"/>
        <path id="c" fill="#000" stroke="none" d="M189 143c0-1 0-1 0 0v1-1"/>
        <use xlink:href="#c" width="100%" height="100%" x="11"/>
      </g>
      <use xlink:href="#d" width="100%" height="100%" y="46"/>
      <use xlink:href="#d" width="100%" height="100%" transform="rotate(-45 313 180)"/>
    </g>
    <use xlink:href="#d" width="100%" height="100%" x="46"/>
    <use xlink:href="#e" width="100%" height="100%" transform="matrix(-1 0 0 1 480 0)"/>
    <g id="f" fill="#fff">
      <path fill="#039" d="M233 202a8 8 0 002 6 7 7 0 005 2c2 1 4 0 5-2a8 8 0 003-6v-10h-15v10"/>
      <circle cx="236" cy="196" r="2"/>
      <circle cx="244" cy="196" r="2"/>
      <circle cx="240" cy="200" r="2"/>
      <circle cx="236" cy="204" r="2"/>
      <circle cx="244" cy="204" r="2"/>
    </g>
    <use xlink:href="#f" width="100%" height="100%" y="-26"/>
    <use xlink:href="#f" width="100%" height="100%" x="-21"/>
    <use xlink:href="#f" width="100%" height="100%" x="21"/>
    <use xlink:href="#f" width="100%" height="100%" y="26"/>
  </g>
</svg>
