<svg xmlns="http://www.w3.org/2000/svg" id="flag-icons-py" viewBox="0 0 640 480">
  <path fill="#0038a8" d="M0 320h640v160H0z"/>
  <path fill="#fff" d="M0 160h640v160H0z"/>
  <path fill="#d52b1e" d="M0 0h640v160H0z"/>
  <g fill="none" stroke="#000" transform="translate(-116) scale(1.45455)">
    <circle cx="300" cy="165" r="42"/>
    <circle cx="300" cy="165" r="35"/>
    <circle cx="300" cy="165" r="27" stroke="none"/>
  </g>
  <path d="M287 264l-7 4-2-4a6 6 0 01-1-1 2 2 0 010-2l1-1h2a2 2 0 011 0v1-2h1l1-2 2 2-2 3v1l3-2zm-5 0l-1-1a1 1 0 00-1-1l-1 1 1 1v1zm-7-5l-2-7 2-1 1 5 1-1-1-4h2l1 3h1l-1-4 2-1 2 7zm-3-10v-4-2l2-1h2l1 2v2l3-1 1 3zm4-3l-1-1v-1a1 1 0 00-1 0v2zm-4-13v-2h5a4 4 0 012 1l1 1v5a3 3 0 01-2 1h-7l1-3 5 1 1-1v-1a1 1 0 000-1h-1zm1-6l2-4 1-2a2 2 0 011 0l1 1 1 1 1-1a2 2 0 011 0 2 2 0 012 2v1l-1 1-1 4zm4-1v-1-1a1 1 0 00-1 0v1zm3 1l1-1v-1a1 1 0 00-1-1 1 1 0 00-1 0v2zm-3-10l1-2 6 3 2-3 2 1-4 6zm5-7l2-2 6 5-2 2zm11-5l2-1 1 2a3 3 0 010 2 5 5 0 01-2 1 4 4 0 01-2 1 4 4 0 01-2 0 5 5 0 01-2-1l-1-4a4 4 0 012-2 4 4 0 012-1h2l-1 2a2 2 0 00-1 0 2 2 0 00-1 0 2 2 0 00-1 1l1 2 2 1h1l1-1-1-2zm9-3l-3 2 1 1-3 1-1-8 3-2 6 6-2 1zm-1-1l-3-2 1 3zm7-9h4a5 5 0 012 0l1 1 1 1 1 1v2a3 3 0 01-1 2 3 3 0 01-1 0 6 6 0 01-1 1l-4 1zm3 2l1 4h2v-2l-1-2h-1zm8-3h7v2h-4v1h4l-1 2h-4v2h5v2l-7-1zm10 1h3l-2 6 4 1-1 2-6-1zm13 4l4 2 1 2v2a3 3 0 01-2 1h-2l-1-1-2 3-2-2zm1 5h1a1 1 0 001 0 1 1 0 000-1l-1-1zm7 9l-2-2-1 1-2-2 8-4 2 2-4 8-2-1zm1-1l1-3-3 1zm1 5l7-5 2 4 1 2v1a2 2 0 01-1 1h-1a2 2 0 01-1 0h-1v1l-2 3-1-3 1-2v-1a1 1 0 000-1l-3 2zm5-1l1 1v1h1a1 1 0 001-1l-1-1v-1zm3 13l-1-3h-2l-1-2h9l1 2-6 6-1-2zm1-1l3-2h-3zm2 9l2-1 1 4-4 1a8 8 0 01-1-2 7 7 0 01-1-2 5 5 0 010-2 4 4 0 012-2 5 5 0 012-1 5 5 0 012 0 4 4 0 012 2l1 2v2a3 3 0 01-1 1l-1 1-1-2 1-1v-1a2 2 0 00-1-1h-2a3 3 0 00-1 0l-1 2v1h2zm6 12v2h-5a4 4 0 01-2-1 3 3 0 01-1 0 3 3 0 010-1 5 5 0 010-2v-3a3 3 0 011-1 3 3 0 011 0 5 5 0 011 0h5v3l-5-1-1 1a1 1 0 000 1v1h1zm-9 8l1-2-2-1 1-3 7 6-1 3h-9l1-3zm2 0l3 1-3-2zm3 7l-2 3h-3l1 3-1 2-3-5-3-2 2-2 3 1z"/>
  <g fill="#009b3a" stroke="none" stroke-width="0">
    <path d="M328 211s24 10 19 31c-4 21-17 21-22 23s-8 6-10 5l-5-2s0 4 4 4c4 1 9-5 12-6 2 0 18-2 22-23 5-23-20-31-20-32z"/>
    <path d="M340 216a3 1 75 01-2 0 3 1 75 112 0z"/>
    <path d="M339 216a3 1 63 11-1 1 3 1 63 011-1zm-2 2a3 1 17 010 1 3 1 17 010-2z"/>
    <path d="M337 217a3 1 34 11-1 1 3 1 34 111-1z"/>
    <path d="M338 216a3 1 46 11-1 1 3 1 46 011-1z"/>
    <path d="M340 219l-1 1h-2l-1 1h1l1-1 2-1 1-1 1-2v-1a3 3 0 00-1 2v1l-1 1zm7 3a1 5-2 11-2-1 1 5-2 112 1z"/>
    <path d="M346 222a5 1 78 11-2 0 5 1 78 112 0z"/>
    <path d="M342 223a5 1 35 11-1 2 5 1 35 111-2z"/>
    <path d="M343 222a5 1 51 01-2 1 5 1 51 112-1z"/>
    <path d="M344 222a5 1 62 11-1 1 5 1 62 111-1z"/>
    <path d="M346 226l-2 1-2-1-2 2h2l2-1h2l1-2 3-2v-1a5 5 0 00-2 1l-1 2-1 1zm5 5a1 5 9 11-2-1 1 5 9 112 1z"/>
    <path d="M350 231a1 5-2 11-2 0 1 5-2 112 0z"/>
    <path d="M346 231a5 1 46 11-1 2 5 1 46 111-2z"/>
    <path d="M347 231a5 1 62 11-2 1 5 1 62 112-1z"/>
    <path d="M348 231a5 1 73 11-2 0 5 1 73 112 0z"/>
    <path d="M349 236h-2l-2-1a3 3 0 00-2 1l1 1 3-1h2l1-1 3-1 1-2a5 5 0 00-3 1l-1 2-1 1m2 6a1 5 31 01-1-2 1 5 31 011 2"/>
    <path d="M350 241a1 5 21 01-2-1 1 5 21 012 1m-4-1a5 1 70 01-1 2 5 1 70 011-2"/>
    <path d="M348 240a1 5-5 01-2 0 1 5-5 112 0"/>
    <path d="M349 240a1 5 6 11-2 0 1 5 6 112 0"/>
    <path d="M347 245h-1l-1-2a3 3 0 00-3 0l1 1 2 1 2 1 2-1h4v-1a5 5 0 00-2 0l-2 1h-2m1 8a1 6 49 11-1-2 1 6 49 111 2"/>
    <path d="M347 252a1 6 38 11-1-2 1 6 38 111 2"/>
    <path d="M344 249a1 6-3 11-3 1 1 6-3 113-1"/>
    <path d="M345 249a1 6 12 01-2 0 1 6 12 112 0"/>
    <path d="M346 250a1 6 22 11-2 0 1 6 22 112 0"/>
    <path d="M343 255a16 16 0 01-2-1v-2l-3-1 1 2 2 1 2 1 2 1 4 1c1 0 2 0 1-1a5 5 0 00-3-1l-2 1-2-1m-2 8a1 6 80 110-3 1 6 80 110 3"/>
    <path d="M341 261a1 6 69 01-1-3 1 6 69 011 3M338 256a1 6 26 01-2 0 1 6 26 112 0"/>
    <path d="M340 257a1 7 42 01-2-1 1 7 42 012 1"/>
    <path d="M340 259a1 7 53 11-1-2 1 7 53 011 2"/>
    <path d="M334 262a18 18 0 010-3v-1a4 4 0 00-2-3v2l1 2 1 3 2 2 3 3h2a6 6 0 00-2-3l-3-1-2-1M331 268a2 6 89 010-3 2 6 89 010 3"/>
    <path d="M330 263a2 6 38 01-3-3 2 6 38 113 3"/>
    <path d="M331 265a2 6 67 01-1-3 2 6 67 011 3m2-53a4 1 41 01-2 1 4 1 41 112-1m-2 1a4 1 8 010 2 4 1 8 110-2"/>
    <path d="M331 212a4 1 27 110 2 4 1 27 010-2m-27 50l9 3c5 1 12 7 13 7 2 0 5 0 6-3-3 0-5 2-8 0l-8-5-12-4v2m5-47l6-3-6 2-1 1h1"/>
    <path d="M315 217l-8-1 5-7-3 6 6 2"/>
    <path d="M308 216a314 314 0 015-4l-6 3v1h1"/>
    <path d="M314 217l-8-2 4-6-2 6 6 2"/>
    <path d="M307 216l6-2-6 1-1 1h1"/>
    <path d="M313 217l-8-1 4-7-2 6 6 2"/>
    <path d="M307 216l4-5-5 4-1 1h2"/>
    <path d="M313 217h-9l4-8-2 7 7 1"/>
    <path d="M306 217l5-4-6 3-1 1h2"/>
    <path d="M312 217l-10 1 6-10-3 8 7 1"/>
    <path d="M304 218l7-6-8 4-1 2h2"/>
    <path d="M311 218l-9 1 4-10-2 8 7 1"/>
    <path d="M303 219l5-7-6 6v1h1"/>
    <path d="M309 218l-9 1 5-9-3 8h7"/>
    <path d="M302 220l7-6-8 4v2h1"/>
    <path d="M309 219l-10 2 4-10-1 8h7"/>
    <path d="M301 220l4-8-5 7v2l1-1"/>
    <path d="M309 219l-10 3 3-11-1 9 8-1"/>
    <path d="M300 222l6-8-7 6v2h1"/>
    <path d="M308 220l-10 3 2-11v9l7-1"/>
    <path d="M299 223l4-9-5 8v2l1-1"/>
    <path d="M306 221l-10 3 4-11-1 8h7"/>
    <path d="M298 224l7-7-8 5v2h1"/>
    <path d="M305 222l-10 2 4-11-2 9h8"/>
    <path d="M297 223l4-8-5 7v2l1-1"/>
    <path d="M306 221l-11 5 2-13v10l9-2"/>
    <path d="M297 225l5-9-7 8v2l2-1"/>
    <path d="M304 223l-10 5 2-13v10l8-3"/>
    <path d="M296 227l3-10-5 9v2l2-1"/>
    <path d="M303 223l-11 6 2-13v10l9-3"/>
    <path d="M295 228l5-9-7 7v3l2-1"/>
    <path d="M303 223l-10 8v-13l2 9 8-4"/>
    <path d="M295 229l1-11-3 10 1 2 1-1"/>
    <path d="M302 224l-9 8-1-13 2 9 8-4"/>
    <path d="M294 230l3-10-5 9 1 3 1-2"/>
    <path d="M302 224l-9 9-2-13 3 9 8-5"/>
    <path d="M294 232l1-12-3 11 1 2 1-1"/>
    <path d="M301 226l-10 8-1-13 3 9 8-4"/>
    <path d="M294 233l3-11-5 10v2l1-1"/>
    <path d="M301 226l-9 9-2-13 3 9 8-5"/>
    <path d="M294 233l-1-11-2 11 1 2 2-2"/>
    <path d="M300 227l-9 9-2-13 3 9 8-5"/>
    <path d="M293 235l1-12-3 11 1 2 1-2"/>
    <path d="M299 227l-7 10-4-13 4 9 7-6"/>
    <path d="M293 236l-1-12-1 11 1 2 1-2"/>
    <path d="M299 228l-7 10-4-13 4 9 7-6"/>
    <path d="M294 237l1-12-3 11v2l2-1"/>
    <path d="M298 229l-6 11-5-12 6 8 5-7"/>
    <path d="M293 238l-3-11 1 11 2 2v-2"/>
    <path d="M298 230l-6 11-5-12 5 8 6-7"/>
    <path d="M293 240l-1-12-1 12 1 2 1-2"/>
    <path d="M299 231l-7 11-5-12 5 8 7-7"/>
    <path d="M293 241l-2-11v11l1 1 1-1"/>
    <path d="M298 233l-7 11-5-13 5 8 7-6"/>
    <path d="M292 242l1-12-3 11 1 2 1-1"/>
    <path d="M298 233l-6 12-6-12 6 8 6-8"/>
    <path d="M292 243l-3-11 1 11 1 2 1-2"/>
    <path d="M297 234l-4 13-7-11 7 7 4-9"/>
    <path d="M295 244l-4-11 2 11 1 2 1-3"/>
    <path d="M297 235l-4 13-7-11 7 7 4-9"/>
    <path d="M295 245l-5-9 3 10 2 2v-3"/>
    <path d="M297 236l-2 13-9-9 8 5 3-9"/>
    <path d="M295 247l-2-11v11l2 2v-2"/>
    <path d="M297 237l-1 14-10-9 8 5 3-10"/>
    <path d="M296 248l-7-8 5 9 2 1v-2"/>
    <path d="M297 238l-1 14-10-8 8 4c2-2 2-7 3-10"/>
    <path d="M296 249l-5-9 3 11 2 1v-3"/>
    <path d="M298 240l-1 14a117 117 0 00-10-8l8 4 2-10"/>
    <path d="M297 251l-7-8 5 10h2v-2"/>
    <path d="M298 242l-1 13-10-7 8 4 3-10"/>
    <path d="M298 253l-5-10 3 11 1 1 1-2"/>
    <path d="M298 243v14a134 134 0 00-10-7l9 3 1-10"/>
    <path d="M298 252l-8-6 7 8h2l-1-2"/>
    <path d="M298 243l1 14-10-6 8 3 1-11"/>
    <path d="M299 254l-7-8 6 10 2 1-1-3"/>
    <path d="M299 245l2 13-11-5 8 2 1-10"/>
    <path d="M301 256l-9-6 7 8h2v-2"/>
    <path d="M299 246l3 14-12-4 9 1v-11"/>
    <path d="M302 257l-7-8 5 9 2 1v-2"/>
    <path d="M299 247l4 13-11-2h9l-2-11"/>
    <path d="M302 257l-10-2 9 4h2l-1-2"/>
    <path d="M300 249l4 12-12-2h9l-1-10"/>
    <path d="M304 258l-10-5 9 7h2l-1-2"/>
    <path d="M300 249l6 12h-12l9-2-4-10"/>
    <path d="M305 259l-10-3 9 5h2l-1-2"/>
    <path d="M300 251l7 11-12 1 9-3-4-9"/>
    <path d="M306 260l-9-6 8 8h2l-1-2"/>
    <path d="M301 252c2 3 5 8 8 10a90 90 0 00-12 2l9-3-5-10"/>
    <path d="M307 261l-10-1 10 3 1-1-1-2m5-46l7-1h-8l1 1"/>
    <path d="M316 215l-7-2 7-3-5 3 5 2"/>
    <path d="M312 214l7-2-7 1-1 1h1"/>
    <path d="M317 216l-9-1 6-5-3 4 5 2"/>
    <path d="M310 215l7-1h-8l1 1"/>
    <path d="M315 216l-8-1 7-4-4 3 5 2"/>
    <path d="M309 215l6-3-7 2v1h1"/>
    <path d="M315 217l-7-3 5-4-3 4 4 3"/>
    <path d="M309 215l5-2-5 1-1 1h1m-4 45h-9l10 2 1-1-2-1"/>
    <path d="M307 260l-10-2 10 5 2-1-2-2"/>
    <path d="M309 261l-10-1 10 3 2-1-2-1"/>
    <path d="M303 254l9 10-12 3 8-4-5-9"/>
    <path d="M310 261l-10-3 10 6 2-1-2-2"/>
    <path d="M303 255l10 9c-3 0-8 2-11 4l8-5-7-8"/>
    <path d="M311 262l-9 2h10l1-1-2-1"/>
    <path d="M309 261l-10 1 10 2 2-1-2-2"/>
    <path d="M311 262l-10-2 10 4h1l-1-2z"/>
    <path d="M313 263h-10l10 2 1-1-1-2z"/>
    <path d="M306 256l10 9-12 4 8-5-6-8z"/>
    <path d="M314 263l-10-3 9 5h2l-1-2z"/>
    <path d="M307 257l10 8-10 5 7-6-7-8z"/>
    <path d="M315 263l-9 3h10l1-1-2-1z"/>
  </g>
  <path fill="#fedf00" d="M328 250l-8-6-8 5 3-8-6-5h8l3-8 3 8h8l-6 5 3 8z"/>
</svg>
