<svg xmlns="http://www.w3.org/2000/svg" xmlns:xlink="http://www.w3.org/1999/xlink" id="flag-icons-rs" viewBox="0 0 640 480">
  <defs>
    <clipPath id="a">
      <path fill-rule="evenodd" d="M60 0h1200v900H60z"/>
    </clipPath>
  </defs>
  <g clip-path="url(#a)" transform="translate(-32) scale(.53333)">
    <path fill="#fff" d="M0 0h1350v900H0z"/>
    <path fill="#0c4076" d="M0 0h1350v600H0z"/>
    <path fill="#c6363c" d="M0 0h1350v300H0z"/>
    <g transform="matrix(1 0 0 1.00437 0 0)">
      <path fill="#21231e" d="M473 259h1v1l-1-1zm1 0v1-1zm-93 6h-1l1-1h8l4-1h11l4-1h17l3-1h18l2-1h18l2-1h6v1h-6l-2 1h-15l-3 1h-16l-3 1h-17l-4 1h-11l-4 1h-12zm-1 0v-1h1l-1 1zm7 31l-7-31h1l7 31h-1zm0 0zm95-4v1h-12l-2 1h-31l-3 1h-27l-3 1h-17v-1h21l3-1h27l3-1h27l3-1h12zm0 0zm95 4h1-27l-3-1h-27l-3-1h-27l-3-1h-6v-1h9l3 1h27l3 1h27l3 1h23v1zm1 0h-1 1zm6-31l-6 31h-1l6-32h1v1zm0-1v1-1zm-94-5h1-1 19l2 1h19l3 1h10l3 1h14l4 1h12l4 1h4v1h-4l-4-1h-12l-4-1h-14l-3-1h-16l-3-1h-15l-2-1h-16v-1zm0 1v-1 1zm1-1h-1v-1l1 1zm-1 0zm-8 0v-1h9v1h-1v-1 1h1-9zm0 0zm-8 0v-1 1h-1v-1h9v1h-9 1v-1h-1 1v1zm0-1v1h-1l1-1zm-1 1v-1h1l-1 1z"/>
      <path fill="#edb92e" d="M584 264c3-6 6-13 11-19-12 9-18 8-19-3l-3-1c-9 14-17 12-26-5-11 18-21 18-29-1-13 16-25 16-34 0v-2h-1v-1a69 69 0 01-1 1l-1-1v1h-1v2c-9 16-20 16-34-1-7 19-17 20-29 1-8 18-17 20-26 6l-3 1c0 11-7 12-18 4l11 18 101-5 102 5z"/>
      <path fill="#21231e" d="M595 246l-1-1 1 1-1 1v1h-1v1l-1 1v1h-1v1h-1v2l-1 1v1h-1v2h-1v1l-1 1v1l-1 1v2h-2l1-1v-1l1-1v-1l1-1v-1l1-1v-1l1-1v-1h1v-1l1-1v-1l1-1 1-1v-1l1-1 1-1v-1l1 1zm-19-4v-1l1 1v4l1 1v1l1 1 1 1 1 1h3v-1h3l1-1h1v-1h1l1-1 1-1h1l1-1 1 1h-1l-1 1-1 1-1 1h-1l-1 1h-2l-1 1h-7v-1h-1v-1h-1v-1l-1-1v-3l-1-1v-1h1zm0-1zm-2 1l-1-1h3v1h-3 1zm-1-1zm-25-5l-1-1h1l1 2v1l1 2 1 1 1 1 1 1v1l1 1 1 1 1 1 1 1 1 1h2v1h3l1-1h1l1-1h1l1-1 1-1 1-1 1-1 1-1v-1l1-1h1l-1 1-1 1v2l-1 1-1 1h-1l-1 1-1 1h-1v1h-8l-1-1-1-1-1-1h-1l-1-1-1-1-1-1v-2l-1-1-1-1-1-2-1-1v-2h1zm-1-1h1-1zm-29 0v-1h1v2l1 2 1 1 1 1v2l1 1 1 1 1 1v1h1l1 1h1l1 1h6l1-1h1l1-1 1-1 1-1 1-1 1-1 1-1 1-1 1-2 1-1 1-2 1 1-1 1-1 2-2 1-1 2-1 1-1 1-1 1-1 1-1 1-1 1h-1l-1 1h-7l-1-1h-1v-1l-1-1-1-1-1-1-1-1-1-1-1-1v-2l-1-1-1-2-1-2h1zm0-1h1-1zm-34 1h1l1 1 1 2 1 1 1 1v1l1 1 1 1 1 1h1l1 1h1l1 1h2l1 1h2l1-1h2l1-1h1l1-1h1l1-1 1-1 2-1 1-1 1-1 1-2 2-1 1-2 1 1-2 1-1 2-1 1-1 2-1 1-2 1-1 1-1 1h-1l-1 1h-1l-1 1h-2l-1 1h-4l-1-1h-2l-1-1-1-1h-1l-1-1-1-1-1-1-1-1-1-1-1-2-1-1-1-2zm0 0zm1-2v2h-1v-2l1-1v1zm-1 0v-1h1l-1 1zm-1 0h1v-1h1l-1 1 1-1v1h-2zm0 0zm1-1v1h-1v-1h1zm-1 0h1-1zm-1 1v-1h1v1h-1zm0 0zm0 0l-1-1h1v1h-1 1zm-1-1zm0 1v-1l1 1h-1zm0 0h1zm0 0h-1l1-1v1h-2v-1l1 1zm-1-1h1v1l-1-1zm0 3v-2h1v2h-1zm1 0zm-34 0l-1-1h1l1 2 1 1 1 1 2 2 1 1 1 1 1 1h1l1 1 1 1h1l2 1h3l1 1h1l1-1h3l1-1 1-1 1-1 1-1 1-1 1-1 1-1 1-1 1-2 1-1v2l-1 1-1 1-1 1-1 2-1 1-1 1h-1l-1 1-1 1h-1l-1 1h-1l-1 1h-4l-2-1h-1l-1-1h-1l-1-1-1-1h-1l-2-1-1-1-1-1-1-2-1-1-2-2-1-1h1zm-1-1v-1l1 1h-1zm-28 2l-1-1h1l1 2 1 1 1 2 1 1 1 1 1 1 1 1 1 1 1 1 1 1h1l1 1h6l1-1h1v-1h1l1-1 1-1 1-1v-1l1-2 1-1 1-2 1-1v-2h1v2l-1 2-1 1-1 2-1 1-1 1v1l-1 1-1 1-1 1h-1l-1 1h-1l-1 1h-4l-1-1h-2l-1-1-1-1h-1l-1-1-1-1-1-1-1-2-1-1-1-2-1-1-1-2h1zm-1-1h1-1zm-26 7v-1l1 1 1 2 1 1 1 1 1 1 1 1 1 1h1l1 1h5l1-1h1v-1h1l1-1 1-1 1-1v-1l1-1 1-1 1-1 1-1v-2l1-1 1-2h1l-1 2-1 2-1 1v1l-1 2-1 1-1 1-1 1-1 1v1h-1l-1 1h-1l-1 1h-7l-1-1h-1l-1-1v-1l-1-1h-1l-1-1-1-1-1-2-1-1h1zm0-1zm-2 1h-1v-1h3v1h-2zm-1 0v-1 1zm-18 3l-1 1 1-1 1 1 1 1h1l1 1h1l1 1h1l1 1h6l1-1 1-1v-1l1-1v-4l1-1h1v1l-1 1v4l-1 1v1h-1v1h-1v1h-8l-1-1h-1l-1-1h-1l-1-1-1-1h-1l-1-1 1-1zm11 19v1l-1-1v-1l-1-1v-1l-1-1v-1l-1-1-1-1v-1l-1-1v-1h-1v-2h-1v-1l-1-1v-1h-1v-1l-1-1-1-1 1-1 1 1v1l1 1 1 1v1h1v2h1v1h1v1l1 1v1h1v1l1 1v1l1 1v1l1 1v1l1 1-1-1zm0 1h-1v-1l1 1zm101-6v1h-13l-3 1h-16l-2 1h-20l-3 1h-19l-3 1h-19l-3 1v-1h3l3-1h19l3-1h16l3-1h19l3-1h16l4-1h9l3-1zm0 0zm101 5v1h-6l-3-1h-19l-3-1h-19l-3-1h-13l-3-1h-16l-3-1h-13v-1h10l3 1h16l3 1h22l3 1h16l3 1h19l4 1h3zm0 1zm0 0v-1h1l-1 1zm1-1v1h-1l1-1z"/>
      <path fill="#edb92e" d="M459 276l23-11 23 11-23 12z"/>
      <path fill="#edb92e" d="M474 259l-93 6 6 31 95-3 95 3 7-31-93-6h-17z"/>
      <path fill="#edb92e" d="M597 237l-3-1c-7 18-14 18-15 1 2 0 1-3 3-2 1 1 2-1 1-2-2-1-4-1-5 1-1-3-3-4-6-3l1 2 1 3c-12 17-19 15-17-7l-10-2c-11 23-19 24-26 3 1-1 1-4 3-3 1 1 2-1 1-2-2-2-5-2-7 1-1-3-4-4-6-2-2 0-1 3 0 2 3 0 2 3 3 4-5 19-30 21-26-8h-13c4 29-22 27-27 8 2-1 1-4 3-4 1 1 2-2 1-2-3-2-6-1-7 2-2-3-4-4-7-2-1 1 0 3 1 3 3-1 2 2 4 3-7 21-15 20-27-4l-9 3c1 21-5 23-18 7 1-1 0-3 2-3v-2c-2-1-4 0-5 2-2-1-3-2-5 0-1 1 0 2 1 2 2-1 1 2 3 2-2 17-8 16-15-1h-4c0 4 2 9 4 12 11 14 19 11 19-5 14 17 24 15 26-3 12 22 31 12 31-2 5 20 34 20 36-3 1 23 30 23 35 3 0 14 19 24 31 2 2 18 12 20 26 3 0 15 8 19 19 5 2-3 4-7 4-12z"/>
      <path fill="#21231e" d="M594 236h3v1h-3l-1-1h1zm-1 0h1-1zm-14 1v1-1l1 2v5l1 1v1l1 1v2h3v-1h1l1-1 1-1v-1l1-1 1-1v-1l1-2 1-1v-1l1-2h1l-1 2v1l-1 2-1 1v1l-1 1-1 1v1l-1 1-1 1v1h-1l-1 1h-3v-1h-1v-1h-1v-2l-1-1v-5l-1-1v-2h1zm-1 0h1-1zm4-2l-1 1v-1 1l-1 1v1h-1v-2h1v-2h2zm-1 1zm2-2v-1h1v2h-2v1l-1-1 1-1v1-1h1v-1zm0-1zm-6 1l1-1h-1 1v-1h5v1h-5v1h-1zm1 0h-1 1zm-6-3v-1h4v1h1v1l1 1h-1l-1-1v-1h-4zm0 2l1 1h-1v-1h-1v-2h1v-1 3zm3 3h-1v-1h-1v-2h1v3zm0 0zm-18-7v-1 12l1 1v3l1 1 1 1 1 1h1l1-1h1l1-1h1v-1l1-1 1-1 1-1 1-1 1-1 1-2 2-1 1 1-2 1-1 1-1 2-1 1-1 1-1 1-1 1-1 1h-1l-1 1h-2l-1 1-1-1h-1l-1-1v-1h-1v-2l-1-1v-13l1 1zm0-1v1-1zm-9-1l-1-1h2v1h4l1 1h3l-1 1h-3l-1-1h-3l-1-1h-1zm-1-1zm-27 3l1 1 1 2v1l1 2 1 2v1l1 1 1 1v1l1 1 1 1 1 1h5l1-1 1-1h1l1-1 1-1 1-2 1-1 1-1 1-2 1-2 1-1 1-2 1-2h1l-1 2-1 2-1 2-1 2-1 1-1 2-1 1-1 1-1 1-1 1-1 1-1 1h-1l-1 1h-5l-1-1-1-1-1-1-1-1-1-1v-2l-1-1-1-2v-1l-1-2-1-2zm0 1v-1 1zm4-4v1h-1v1h-1v2h-1v-2h1v-2h2zm1-1v-1h1v3h-2v-1h1v-1zm-7 1h1-1v-1l1-1v-1h6v2h-1v-1h-4v1h-1v1h-1zm1 0l-1 1v-1h1zm-7-2l-1-1h2v-1h3v1h1v1h1v2h-1v-1l-1-1h-1l-1-1h-1v1h-1zm0 2l1 1h-1l-1-1v-2l1-1v3zm4 4h-2v-2h-1v-1h-1v-1h2v2h1v1l1 1zm0-1v1-1zm-27-7v-1 12l1 2v1l1 1v1l1 2 1 1h1l1 1h1l1 1h6l2-1h1l1-1 1-1 1-1 1-1 1-1 1-2 1-1 1-1v-2l1-2h1l-1 2-1 2v2l-1 1-1 2-1 1-1 1-2 1-1 1-1 1h-1l-1 1h-8l-1-1-1-1-1-1-1-1-1-1-1-1-1-2v-1l-1-2v-11h1zm0-1v1-1zm-7 1v-1h7v1h-7zm0 0zm-6-1h-1 7v1h-6v-1zm-1 0h1l-1 1zm-26 8v1l1 1 1 2v1l1 2 1 1 1 1 1 1 1 1 1 1 1 1 2 1h2l1 1h3l1-1h1l1-1h1l1-1 1-1 1-1v-1l1-2 1-1v-6l1-3-1-2v-3h1v3l1 2v3l-1 2v4l-1 1-1 2v1l-1 1-1 1-1 1-1 1h-2l-1 1h-5l-1-1h-2l-1-1h-1l-2-1-1-1-1-1-1-2-1-1-1-1-1-2v-2l-1-2zm-1 1v-1h1l-1 1zm4-4v1h-1v1h-1v2h-1v-2h1v-2h1v-1h1zm1-2v-1h1v3h-2v-1h1v-1zm-7 2l1-1h-1v-1h1v-1h2v-1h3v1h1v1h-1l-1-1h-2v1h-1v1h-1v1h-1zm1 0l-1 1v-1h1zm-7-1l-1-1h1v-1h5v1h1v2h-1v-1l-1-1h-4v1zm0 1l1 1h-2v-1h-1v-2h1l1 1h-1v1h1zm4 4h-1v-1h-1v-2h-1l-1-1h2v1h1v1l1 1v1zm0-1v1-1zm-27-2v-1h1l1 2 1 2 1 2 1 2 1 1 1 2 1 1 1 2 1 1v1h1l1 1 1 1h5l1-1 1-1 1-1v-1l1-1 1-1 1-1v-2l1-1 1-2v-2h1v2l-1 2-1 2v1l-1 1-1 2v1l-1 1-1 1-1 1-1 1h-7l-1-1v-1l-1-1-1-1-1-1-1-1-1-1-1-2-1-2-1-1-1-2-1-2-1-2zm0-1h1-1zm-9 3h-1v-1h4v-1h4v-1h2v1h-2v1h-4v1h-3zm-1 0v-1 1zm-17 7h1l1 1 1 1 1 2 1 1 1 1 1 1 1 1h1l1 1 1 1h4v-1l1-1v-3l1-1v-11h1v12l-1 1v3l-1 1-1 1-1 1h-3v-1h-1l-1-1h-1l-1-1-1-1-1-1-1-1-1-1-1-1-1-2-1-1-1-1zm0 0zm2-3v1h-1v2h-1v-3h2zm0-2v-1h1v3h-1v-2zm-6 3l1-1h-1v-1h1v-1h1v-1h4v1h-3v1h-1v1h-1l-1 1zm1 0h-1 1zm-6-1v-1h5v1h1l-1 1v-1h-5zm0 0zm1 1l1 1h-2v-1h-1v-1h1v1h1v1zm4 3h-1v1-1h-1v-1h-1v-1h-1l1-1h1v1l1 1v1h1zm-1 0h1-1zm-14-1v-1l1 2v2l1 1 1 1v1l1 1 1 1v1l1 1v1h1v1h1l1 1h1v-1h1v-1h1v-2l1-1v-5l1-2h1v2l-1 1v5l-1 1v1l-1 1-1 1h-1v1h-1l-1-1h-1v-1h-1v-1h-1l-1-1v-1l-1-1-1-1v-1l-1-2-1-1v-1l-1-2h1zm0-1zm-4 1l3-1v1l-3 1-1-1h1zm-1 0h1-1zm5 12h-1v-1h-1v-1h-1v-3l-1-1v-5h1v6h1v2h1v2h1v1zm19-5l-1 1 1-1v4l-1 2v3l-1 1v1l-1 1-1 1-1 1h-5l-1-1h-1l-1-1-1-1h-1l-1-1-1-1-1-1-1-1-1-2h1l1 1 1 1 1 1 1 1 1 1 1 1h1v1h1l1 1h5v-1h1v-1h1v-2h1v-2l1-1v-5l1-1zm-1 0v-1l1 1h-1zm27-3l-1 1 1-1v4l-1 1v2l-1 2v1l-1 1-1 1-1 1-1 1h-2l-1 1h-3l-1-1h-2l-1-1-1-1h-1l-1-1-2-1-1-1-1-1-1-2-2-1-1-2h1l1 1 1 1 1 2 2 1 1 1 1 1 1 1h1l1 1 1 1h2l1 1h4v-1h1l1-1 1-1h1v-1l1-1v-1l1-1v-5l1-2h1zm-1 0v-1l1 1h-1zm32-2l-1 1h1v2l-1 1v2l-1 1v1l-1 1v1l-1 1-1 1-1 1h-1l-1 1h-1l-1 1h-2l-1 1h-4l-1-1h-3l-1-1-1-1-2-1-1-1-1-1-1-2-1-1-2-2-1-2 1-1 1 2 1 2 2 2 1 1 1 1 1 1 1 1 2 1 1 1h1l1 1h6l1-1h1l1-1h1l1-1 1-1 1-1h1v-1l1-1 1-1v-3l1-1v-2h1zm35-3l-1 1h1v4l-1 1v2l-1 1-1 2-1 1-1 1-1 1-2 1-1 1-1 1h-3l-2 1h-4l-2-1h-3l-1-1-2-1-1-1-1-1-2-1-1-1-1-1-1-2-1-1v-2l-1-2h1l1 2v1l1 2 1 1 1 1 1 2 1 1 2 1h1l1 1 2 1h2l2 1h4l2-1h1l1-1h2l1-1 1-1 1-1 1-1 1-1 1-1 1-2 1-1v-4l1-2h1zm36 3l-1 1h1v1l-1 2-1 2-1 1-1 1-1 2-1 1-2 1-1 1h-1l-2 1h-1l-2 1h-6l-1-1h-2l-1-1h-2l-1-1-1-1-2-1-1-1-1-1-1-2v-1l-1-2-1-2v-4h1v4l1 2v1l1 1 1 2 1 1 1 1 1 1 1 1 2 1h1l1 1h10l2-1h1l1-1 2-1 1-1 1-1 1-1 1-1 1-1 1-2v-2l1-1h1zm31 2h-1l1 1-1 2-1 1-2 2-1 1-1 2-2 1-1 1h-1l-1 1-2 1h-8l-2-1h-1l-1-1-1-1h-1l-1-1v-1l-1-1-1-1v-1l-1-2v-1l-1-1v-2h1v2l1 1v1l1 1v1l1 1 1 1v1l1 1 1 1h1l1 1h1l1 1h3l1 1h2l1-1h2l1-1h1l1-1 2-1 1-1 1-1 1-1 1-2 1-2 2-2 1 1zm-1 0l1-1v1h-1zm27 3h-1l1 1-1 1-2 2-1 1-1 1-1 1-1 1-2 1-1 1h-1l-1 1h-1l-1 1h-6l-1-1-1-1-1-1h-1v-1l-1-1v-1l-1-1v-3l-1-2v-3h1v4l1 2v1l1 1v1l1 1v1l1 1 1 1h1l1 1h3l1-1h2l1-1h1l1-1 2-1 1-1 1-1 1-1 1-1 2-2 1-1h1zm-1 0l1-1v1h-1zm19 5l1 1-1 1-1 1-1 1-1 1-1 1h-1l-1 1-1 1h-2v1h-5v-1h-1l-1-1v-1l-1-1-1-1v-3l-1-2v-4h1v4l1 1v3l1 1v2h1v1h1l1 1h4l1-1h1v-1h1l1-1 1-1 1-1 1-1 1-1 1-1zm4-11v-1l1 1v4h-1v3h-1v2h-1v1l-1 1v1l-1-1 1-1v-2h1v-2h1v-6h1zm0-1h1v1l-1-1zm0 0v1-1zm0 1z"/>
      <path fill="#edb92e" d="M482 263h-37l-1 1h-19l-18 2a965 965 0 00-26 2c-5 1-6-5 0-6a961 961 0 0126-2 984 984 0 0137-2h2l16-1h16a1082 1082 0 018 0h16l16 1h3a984 984 0 0137 2 961 961 0 0126 2c6 1 5 7 0 6a966 966 0 00-26-2h-1a978 978 0 00-18-2h-19l-1-1h-37z"/>
      <path fill="#0c4076" d="M482 105a17 17 0 010 35c-9 0-17-8-17-18 0-9 8-17 17-17z"/>
      <path fill="#edb92e" d="M485 85c2 0 3-1 3-3s-1-3-3-3c0-2-1-3-3-3a3 3 0 00-3 3c-1 0-3 1-3 3a3 3 0 003 3v6h-5a3 3 0 00-3-3c-2 0-3 2-4 3a3 3 0 00-3 3c0 2 2 3 3 3a3 3 0 003 4c2 0 4-2 4-3h5v21h6V98h6a3 3 0 003 3c2 0 3-2 3-3 2 0 3-2 3-4a3 3 0 00-3-3c0-1-1-3-3-3s-3 2-3 3h-6v-6z"/>
      <path fill="#21231e" d="M488 82h1v1h-1v1l-1 1h-1v1h-1v-1h1v-1h1v-1h1v-1zm-3-3h1l-1-1h2v1h1v1h1v2h-1v-1l-1-1-1-1h-1v-1zm0 0zm-3-3v-1h2v1h1v2h1v1h-1v-1h-1v-1h-1v-1h-1zm-3 3v-1 1-3h1v-1h2v1h-2v3h-1zm1 0h-1 1zm-3 3h-1v-3h1v-1h2v1h-1v1h-1v2zm3 3h-3v-1h-1v-2h1v2h2l1 1zm-1-1h1v1l-1-1zm0 7v-6h1v6l-1 1v-1zm1 0v1h-1l1-1zm-6 0h5v1h-5l-1-1h1zm0 1h-1v-1l1 1zm-3-3v-1h2v1l1 1v1h-1v-1h-1v-1h-2zm-4 3v-3h1v-1h2v1h-1l-1 1v2h-1zm1-1v1h-1l1-1zm-3 3h-1v-2h1v-1h2v1h-1v1h-1v1zm3 4h-3v-1l-1-1v-2h1v2h1v1h2zm-1-1h1v1l-1-1zm3 3v1h-1v-1h-1v-1h-1v-1h1v1h1v1h1zm4-3v2l-1 1-1 1h-1v-1h1v-1h1v-1l1-1zm-1 1v-1h1l-1 1zm6 0h-5v-1h5l1 1h-1zm0-1h1v1l-1-1zm0 22V98h1v21l-1 1v-1zm0 1v-1 1zm6 0h-6v-1h7l-1 1zm1-1v1h-1l1-1zm0-21v21h-1V97l1 1zm-1 0v-1 1zm6 0h-6v-1h6v1zm0-1v1-1zm3 3v1h-2v-1h-1v-1h-1v-1h1l1 1v1h2zm3-3v1h1-1v2h-1v1h-2v-1h2v-2l1-1zm0 1v-1 1zm3-3h1v1h-1v1h-1v1h-2v-1h2v-2l1-1zm-3-3h1l-1-1h2v1h1v3h-1v-2h-1v-1h-1l-1-1zm0 0zm-3-3v-1h2v1h1v2h-1v-1l-1-1h-1zm-3 3v-1l-1 1v-2h1v-1h1v-1h2v1h-2v1l-1 1v1zm0 0zm-6-1h6v1h-6v-1zm0 1zm1-7v7h-1v-8l1 1zm-1 0zm0 0zm0 0z"/>
      <path fill="#21231e" d="M500 122h-1v-3l-1-1v-2l-1-1v-1l-1-1v-1h-1v-1h-1l-1-1-1-1v-1h-2v-1h-2l-1-1h-5v-1h5v1h3l1 1 1 1h1v1l1 1h1v1h1v1l1 1 1 1v1l1 1v2l1 1v4zm-18 18v-1h4l1-1h3v-1h2v-1h1l1-1v-1h1v-1h1v-1l1-1v-1l1-1v-1l1-1v-4h1v4l-1 1v2l-1 1v1l-1 1v1h-1v1l-1 1h-1v1h-1l-1 1-1 1h-2v1h-2l-1 1h-4zm-17-18h1v6l1 1v1h1v2l1 1 1 1 1 1 1 1h1v1h1l1 1h1l1 1h5v1h-5l-1-1h-2v-1h-2l-1-1-1-1h-1v-1l-1-1-1-1v-1h-1v-2l-1-1v-3l-1-1v-2zm17-17v1h-5v1h-2l-1 1h-1l-1 1h-1v1h-1v1l-1 1-1 1v1h-1v2l-1 1v3l-1 1v1-6l1-1v-1l1-1v-1h1v-1l1-1 1-1 1-1h1l1-1 1-1h2l1-1h5z"/>
      <path fill="#edb92e" d="M499 119a18 18 0 010 6l-17-1-17 1a18 18 0 010-6l17-1 17 1z"/>
      <path fill="#21231e" d="M500 122h-1v-3h1v3zm-1 3v-1 1-2h1v2h-1zm1 0h-1 1zm-18 0v-1h17v1h-17zm-17 0h1l-1-1h17v1h-17zm0 0zm0-3h1v3h-1v-3zm1-4v4h-1v-3h1zm-1 1v-1h1l-1 1zm17-1v1h-17v-1h17zm18 1h-18v-1h17v1zm-1-1h1v1l-1-1z"/>
      <path fill="#edb92e" d="M469 133c-4-2-4 1-4 5 0 13 3 26-1 42-1 6-4 10-1 11 5 3 8 6 7 8 1 3 6 2 12 1 6 1 11 2 12-1-1-2 2-5 8-8 2-1 0-5-2-11-3-16-1-29-1-42 0-4 0-7-4-5a29 29 0 01-26 0z"/>
      <path fill="#21231e" d="M465 138h-1v-4h1v-1l1-1h2l1 1v1h-1v-1h-2v2h-1v3zm0 42h-1v-5l1-1v-28l-1-2v-6h1v7l1 1v27l-1 1v6zm-2 11l-1 1v-1h-1v-4h1v-3h1v-3l1-1 1 1v1h-1v3l-1 1v2l-1 1v2h1zm7 8h-1 1v-1h-1v-2h-1l-1-1h-1v-1h-1l-1-1h-1v-1h-1l1-1 1 1h1v1h1l1 1 1 1 1 1 1 1v1h1v1l-1 1v-1zm-1 0zm13 1v1h-3v1h-7v-1h-1l-1-1-1-1h2v1h1l1 1h6l1-1h2zm0 0zm12-1h1v1h-1v1h-2l-1 1h-5l-1-1h-3v-1h5v1h5v-1h1l1-1zm1 0zm7-8v1l-1 1h-1l-1 1h-1v1h-1v1h-1v1h-1v2l-1 1v-3h1v-1h1v-1h1v-1h1v-1h2v-1h1l1-1zm-2-11h1v2h1v3l1 1v6h-1v-6h-1v-4h-1v-2zm-1-42h1v15l-1 1v16l1 1v6l1 2v1h-1v-1l-1-2v-7l-1-1v-17l1-2v-12zm-3-4l-1-1h1v-1h3v2h1v4h-1v-4l-1-1h-2zm-27 0v-1h1l1 1h1l1 1h3v1h13l1-1h2l1-1h1l1-1h1v1h-1v1h-2l-1 1h-2l-1 1h-13l-1-1h-2l-1-1h-1l-1-1h-1z"/>
      <g id="b">
        <path fill="#edb92e" d="M363 212c-2-4 0-10 0-11 1-1 0-2-1-3-13-18-13-20-4-27 8-6 26-12 39-16l7-7c-25 2-52 12-65 24-8 6 1 19 12 38 6 5 9 7 12 2z"/>
        <path fill="#21231e" d="M363 201h1v1h-1v10h1-1l-1-1v-10h1zm-1-3h1v1h1v2h-1v-1l-1-1zm-4-27v2h-1l-1 1-1 1h-1v1h-1v1l-1 1v3l1 1v1l1 1v2l1 1 1 1v1l1 2 1 1 1 1 1 2 1 1 1 2v1l-2-2-1-2-1-1-1-1-1-2v-1l-1-1-1-1-1-1v-1l-1-1v-1l-1-1v-6l1-1 1-1 1-1 1-1 1-1 1-1zm39-16l1 1h-2l-1 1h-3l-1 1h-1l-2 1h-1l-2 1h-1l-1 1h-2l-1 1h-1l-2 1h-1l-1 1h-2l-1 1h-1l-2 1-1 1h-1l-1 1h-1l-1 1h-1l-1 1h-1l-1 1-1 1h-1v-1h1l1-1v-1h1l1-1h1l1-1h2l1-1 1-1h1l2-1h1l1-1h1l2-1h1l1-1h2l1-1h1l2-1h1l2-1h2l2-1h1l1-1h1l2-1h1zm1 1h-1 1zm6-7v-1h1l-1 1h-1v2h-1v1h-1v1h-1v1h-1v1h-1v1l-1-1v-1h1l1-1 1-1v-1h1v-1h1v-1l1-1 1 1zm0-1l2-1-1 1-1-1zm-65 24l-1-1 2-1 1-1 1-1 2-1 1-1 2-1 2-1 1-1 2-1 2-1 2-1 2-1 2-1 2-1 2-1h2l3-1 2-1 2-1 3-1h2l2-1h3l2-1h2l3-1h2l3-1h4l3-1h2v1h-2l-3 1h-4l-3 1h-2l-2 1h-3l-2 1h-2l-3 1h-2l-2 1-2 1-3 1h-2l-2 1-2 1-2 1-2 1-2 1-2 1-2 1-2 1-2 1-1 1-2 1-1 1-2 1-1 1-2 1-1 1zm12 37v1h-1l-1-2-1-1-1-2-1-2v-2l-1-1-1-2-1-1-1-2-1-1-1-2v-1l-1-1v-2l-1-1-1-1v-1l-1-1v-2l-1-2v-5l1-1v-1l1-1 1-1 1 1h-1v1l-1 1v1l-1 1v4l1 1v2l1 1v3l1 1v1l1 2 1 1 1 1 1 2v1l1 2 1 1 1 2 1 2 1 1 1 2 1 2 1 2zm0 1h-1 1zm12 1v1h1l-1 1-1 1-1 1h-3l-1-1h-1l-1-1h-1v-1h-1l-1-1-1-1v-1h1v1h1l1 1 1 1h1v1h2l1 1h1v-1h1l1-1v-1h1zm0 1v-1 1zm0 0v-1l1 1h-1zm1 0h-1 1z"/>
        <path fill="#edb92e" d="M359 214a34 34 0 01-1-5c-1-3 0-6 1-8-3-5-7-9-9-14-2-3-3-7-2-10 1-4 4-7 7-9l14-8c11-4 20-7 26-7l-4 4c-12 4-26 9-33 15-9 6-9 8 4 26 1 1 2 2 1 3 0 1-2 7 0 11-1 2-2 1-4 1z"/>
        <path fill="#21231e" d="M357 209h1v1h1v3h1l-1 1-1-1v-3l-1-1zm1 0zm0-8l1-1v3h-1v6h-1v-7h1v-1zm1-1v1-1zm-10-12l1-1v1h1v1l1 1v2h1v1l1 1 1 1v1l1 1 1 1v1h1v2h-1v-1h-1v-1l-1-1v-1h-1v-1h-1v-2h-1v-1l-1-1v-1h-1v-2h-1v-1zm-2-11h1v5h1v3l1 1v1h-1v-1h-1v-2h-1v-7zm8-10l1 1h-1v1h-1v1h-1v1h-1v1h-1v1h-1v1h-1v2l-1 1h-1v-1h1v-2h1v-2h1v-1h1v-1h1v-1h1v-1h2zm14-7v1h-2v1h-2v1h-2v1h-2v1h-2v1h-1v1h-2v1l-1-1h1v-1h1l1-1h1v-1h2l1-1h1v-1h2l1-1h1l1-1h1zm0 0zm27-6l-1-1 1 1h-8l-1 1h-4l-1 1h-2l-1 1h-2l-1 1h-2l-1 1h-1l-1 1h-1l-1 1-1-1 1-1h1l1-1h2l1-1h1l1-1h2l1-1h4l1-1h3l1-1h5v-1h2l1 1zm-1-1h2l-1 1-1-1zm-4 4l4-4h1l-4 4-1-1zm1 0l-1 1 1-1zm-34 15v-1l1-1h1l1-1h1l1-1 1-1h1l1-1h1l1-1h1l1-1h3l1-1h1l1-1h1l1-1h1l2-1h1l1-1h2l1-1h2l1-1h2v1h-2l-1 1h-1l-1 1h-3l-1 1h-1l-1 1h-1l-1 1h-3l-1 1h-1l-1 1h-1l-1 1h-1l-1 1h-1l-1 1h-1l-1 1h-1l-1 1h-2v1h-1l-1 1zm5 26l-1 1-1-2-1-2-1-1-1-2-1-1-1-1-1-1-1-1v-1l-1-1v-1l-1-1v-1l-1-1v-4l1-1v-1l1-1 1-1v-1h1l1-1h1v-1l1 1h-1l-1 1v1h-1v1h-1l-1 1v1h-1v6h1v1l1 1v1l1 1v1l1 1 1 2 1 1 1 1 1 2 1 1 1 2zm1 3h-1v-1h-1v-1l1-1v1h1v2zm0 12l-1-1v1-1h-1v-10l1-1h1-1v11h1v1zm0-1v1-1zm-5 1v1-1h4v-1l1 1h-1v1h-4v-1zm0 1v-1 1zm0-1l1 1h-1l1-1z"/>
        <path fill="#edb92e" d="M468 132v2l-2-1-1 5v3c-33-1-53 4-58 14-4 8 3 21 14 36v3c-2 2-4 6-3 9a24 24 0 01-21 1c-1-3-3-4-5-5l-2-2-10-31c-10-31 75-34 88-34z"/>
        <path fill="#21231e" d="M467 134h1-1v-2h1v-2l1 1v1h-1v-1h1v1h-1v2h-1zm1 0v2l-1-2h1zm-2-1v-1h1v1h1l-1 1v-1h-1zm0 0zm-1 5h-1v-4h1v-1h1v-1 2h-1v4zm-1 0zm1 3v-1l-1 1v-3h1v3zm0 0zm-58 14h-1l1-1 1-1v-1l1-1 1-1 1-1h1l1-1 2-1 1-1h1l2-1h1l2-1h2l1-1h2l2-1h4l3-1h4l3-1h22v1h-20l-3 1h-9l-2 1h-2l-2 1h-3l-2 1h-2l-1 1-2 1h-1l-1 1h-1l-1 1-1 1h-1l-1 1-1 1-1 1-1 2zm14 36h-1l-1-1-1-2-1-1-1-2-1-1v-1l-1-2-1-1-1-1-1-2v-1l-1-1-1-1v-1l-1-2v-1l-1-1v-1l-1-1v-2l-1-1v-7l1-1v-1h1v1l-1 1v7l1 1v3l1 1v1l1 1v1l1 1 1 2v1l1 1 1 1v2l1 1 1 1 1 2 1 1 1 1 1 2 1 1 1 2zm0 3h-1v-1h1v-1h-1v-1h2v3h-1zm-2 9h-1v-7h1v-1l1-1v-1l1 1v1h-1v1l-1 1v6zm0 0zm-22 2l1-1h1v1h14l1-1h1l1-1h1l1-1v2h-1l-1 1h-2l-1 1h-4l-1 1h-5l-1-1h-3l-1-1h-1v-1zm0 0zm-5-6v-1l1 1h1v1h1v1h1v1l1 1v1h1-2v-1l-1-1-1-1-1-1h-1v-1h-1zm-2-2h1v1h1v1h-1v-1h-1zm-11-31l1-1 1 1v3l1 1v2l1 1v2l1 1v2l1 1v3l1 1v2l1 1v2l1 1v1l1 1v2l1 1v2l1 1-1 1-1-1v-3l-1-1v-3l-1-1v-2l-1-1v-2l-1-1v-2l-1-1v-2l-1-1v-2l-1-1v-1l-1-1v-3l-1-1v-2zm89-34h1l-1 1h-20l-4 1h-8l-4 1-4 1h-4l-4 1-4 1-4 1-4 1-4 1-4 1-3 1-3 2-3 1-3 2-2 2-2 2-2 1-1 3-1 2v7l-1 1v-9l1-2 1-2 2-2 2-2 3-2 2-2 3-1 4-2 3-1 4-1 4-1 3-1 5-1 4-1 4-1h4l4-1h4l4-1h4l4-1h20zm1 0v1h-1l1-1zm-1 0zm1 0v1h-1l1-1z"/>
        <path fill="#fff" d="M405 190c4 0 6 3 6 7 0 3-3 6-6 6s-6-3-6-6c0-4 3-7 6-7z"/>
        <path fill="#21231e" d="M412 197h-1a6 6 0 00-3-6 6 6 0 00-3 0v-1c2 0 5 1 6 3a7 7 0 011 3zm-7 7v-1c2 0 4-2 5-4a6 6 0 001-2h1c0 2-2 4-4 6a7 7 0 01-3 1zm-7-7h1c0 2 1 4 3 5a6 6 0 003 0v1a7 7 0 01-6-3 7 7 0 01-1-4zm7-7v1a6 6 0 00-5 3 6 6 0 00-1 3h-1c0-3 2-5 4-6a7 7 0 013-1z"/>
        <path fill="#fff" d="M351 204c3 0 6 2 6 6s-3 6-6 6-6-3-6-6 3-6 6-6z"/>
        <path fill="#21231e" d="M357 210h-1c0-2-1-4-3-5a5 5 0 00-2-1v-1a7 7 0 015 3 7 7 0 011 4zm-6 6v-1c2 0 4-1 5-3a6 6 0 000-2h1c0 2-1 4-3 5a6 6 0 01-3 1zm-7-6h1c0 2 2 4 3 4l3 1v1a7 7 0 01-6-3 7 7 0 01-1-3zm7-7v1c-2 0-4 1-5 3a6 6 0 00-1 3h-1c0-3 2-5 3-6a6 6 0 014-1z"/>
        <path fill="#fff" d="M345 193c3 0 6 2 6 6s-3 6-6 6-6-3-6-6 3-6 6-6z"/>
        <path fill="#21231e" d="M352 199h-1c0-2-2-4-3-5a5 5 0 00-3-1v-1c2 0 5 1 6 3a7 7 0 011 4zm-7 6v-1c2 0 4-1 5-3a6 6 0 001-2h1c0 2-2 4-3 5a6 6 0 01-4 1zm-6-6h1c0 2 1 4 3 4a5 5 0 002 1v1c-2 0-4-1-5-3a7 7 0 01-1-3zm6-7v1c-2 0-4 1-5 3a6 6 0 000 3h-1c0-3 1-5 3-6a6 6 0 013-1z"/>
        <path fill="#fff" d="M340 182c3 0 6 2 6 6s-3 6-6 6-6-3-6-6 3-6 6-6z"/>
        <path fill="#21231e" d="M346 188h-1c0-2-1-4-3-5a5 5 0 00-2-1v-1c2 0 4 1 5 3a7 7 0 011 4zm-6 6v-1c2 0 4-1 5-3v-2h1c0 2-1 4-3 5a6 6 0 01-3 1zm-7-6h1c0 2 1 4 3 5h3v1a6 6 0 01-6-3 7 7 0 01-1-3zm7-7v1c-2 0-4 1-5 3a6 6 0 00-1 3h-1c0-2 1-5 3-6a6 6 0 014-1z"/>
        <path fill="#edb92e" d="M444 202c4 0 3 6 2 7-1 2-1 2-3 1 0-2-2-8 1-8z"/>
        <path fill="#21231e" d="M447 210l-1-1v-6h-2v-1h2v1h1v7zm-4 0l1-1v1h2v-1l1 1h-1v1h-2v-1h-1zm1-8v1h-1v6h1l-1 1v-1h-1v-7h2v-1z"/>
        <path fill="#fff" d="M445 206c8-1 6 13 4 17s-4 4-7 0c-2-3-6-17 2-17z"/>
        <path fill="#21231e" d="M449 223l-1-1h1v-3l1-1v-8l-1-1v-1h-1v-1l-1-1h-3v-1h3l1 1h1v1l1 1v3l1 1v6l-1 1v4h-1zm-7 0h1v1h1v1h3v-2h1v-1l1 1v1h-1v1h-1v1h-3v-1h-1v-1h-1v-1zm2-17v-1 1h-1l-1 1h-1v1l-1 1v8l1 1v2l1 1v1l-1 1v-2l-1-1v-3l-1-1v-7l1-1v-1h1v-1h1v-1h2v1zm0-1v1-1z"/>
        <path fill="#edb92e" d="M380 211c3-1 4 5 3 6 0 2-1 3-2 1-1-1-4-6-1-7z"/>
        <path fill="#21231e" d="M384 218l-1-1v-4h-1v-1h-1v-1h-1l-1-1h2v1h1v1h1v6zm-4 1l1-1h2v-1h1v1h-1v1h-3v-1zm0-9v1l-1 1v4h1v1l1 1-1 1v-2h-1v-1l-1-1v-3h1v-1h1z"/>
        <path fill="#fff" d="M381 214c7-2 9 12 8 16s-3 5-6 2-10-15-2-18z"/>
        <path fill="#21231e" d="M390 230l-1-1v-6l-1-1v-2l-1-1v-2h-1v-1l-1-1h-1v-1h-3v-1h3l1 1h1v1h1v1l1 1v1h1v3h1v9zm-7 2v-1h1v1h2v1h1v-1h1v-2h2l-1 1v2h-1v1h-3l-1-1h-1v-1zm-2-19v1l-1 1h-1v1h-1v7h1v2l1 1v1l1 1v1h1v1h1v1l-1 1v-1h-1v-1l-1-1v-1l-1-1-1-1v-2l-1-1v-1l-1-1v-3l1-1v-1l1-1 1-1h1zm0 1v-1 1z"/>
        <path fill="#edb92e" d="M464 138c-17-2-35 0-52 7-15 6-14 23 4 47l-2 11h5c-2-3 0-7 1-9s2-1 0-3c-10-15-17-28-13-36 5-10 24-15 58-14l-1-3z"/>
        <path fill="#21231e" d="M412 145v-1h1l2-1h2l1-1h2l2-1h1l2-1h3l2-1h3l2-1h6l2-1h20l1 1v1l-1-1h-17l-1 1h-10l-2 1h-3l-2 1h-1l-2 1h-3l-2 1-1 1h-2l-2 1h-1l-2 1zm5 47h-1l-2-2-1-2-1-2-2-2-1-2-1-2-1-2-1-2-1-2-1-2-1-2v-2l-1-1v-4l-1-1v-5l1-1v-2l1-2v-1l1-1 1-1 1-1h1l1-1 1-1 1-1h2v1h-1l-1 1-1 1h-1l-1 1-1 1-1 1-1 1v1l-1 1v3l-1 1v4l1 1v3l1 2v2l1 1 1 2 1 2 1 2 1 2 1 2 1 2 1 2 2 2 1 2 2 3zm0 0zm-3 11v1l-1-1v-2l1-1v-4h1v-3h1v-1h1v1h-1v3h-1v6h-1v1-1zm0 1h-1v-1l1 1zm4-1h1v1h-5v-1h5-1zm1 0l1 1h-1v-1zm1-9h1v1h-1v3h-1v5h-1v-6h1v-2h1v-1zm0-3h1v1h1v2h-1v1l-1-1 1-1v-1h-1zm-13-36h1l-1 1v10l1 1v2l1 1v1l1 1v2l1 1 1 1v1l1 1 1 2 1 1v1l1 2 1 1 1 1 1 2 1 1 1 2h-1l-1-1-1-1-1-2-1-1-1-2v-1l-1-1-1-2-1-1-1-1v-2l-1-1-1-1v-1l-1-1v-2l-1-1v-1l-1-1v-2l-1-1v-7l1-1v-1zm57-14h1v1h-25l-2 1h-5l-2 1h-4l-1 1h-2l-2 1h-1l-2 1h-1l-2 1h-1l-1 1-1 1h-1l-1 1-1 1h-1l-1 1v1l-1 1h-1l1-1v-1l1-1 1-1 1-1h1l1-1 1-1 1-1h1l2-1 1-1h2l2-1h1l2-1h2l2-1h4l2-1h7l3-1h20l-1 1zm1 0v1-1zm-1-2l1-1v3h-1v-3zm1-1zm-1 0h1l-1 1v-1zm0 0h-1 1v1zm0 0v1zm0 0h1v1l-1-1z"/>
        <path fill="#fff" d="M381 143c3 0 6 2 6 6s-3 6-6 6-7-3-7-6a6 6 0 017-6z"/>
        <path fill="#21231e" d="M387 149h-1c0-2-1-4-3-5a6 6 0 00-2-1v-1c2 0 4 1 5 3a7 7 0 011 4zm-6 7v-1c2 0 4-2 5-3a7 7 0 000-3h1a7 7 0 01-3 6 7 7 0 01-3 1zm-7-7h1c0 2 1 4 3 5a6 6 0 002 1v1a7 7 0 01-5-3 7 7 0 01-1-4zm6-7v1l-4 3a6 6 0 00-1 3h-1l3-6a7 7 0 013-1z"/>
        <path fill="#fff" d="M393 139c3 0 6 2 6 6 0 3-3 6-6 6a6 6 0 01-6-6c0-4 2-6 6-6z"/>
        <path fill="#21231e" d="M399 145h-1c0-2-1-4-3-5a6 6 0 00-2-1v-1a7 7 0 015 3 7 7 0 011 4zm-6 7v-1c2 0 4-2 5-3a6 6 0 000-3h1l-3 6a7 7 0 01-3 1zm-7-7h1c0 2 1 4 3 5a6 6 0 003 1v1a7 7 0 01-6-4 7 7 0 01-1-3zm7-7v1c-2 0-4 1-5 3a6 6 0 00-1 3h-1c0-3 1-5 3-6a7 7 0 014-1z"/>
        <path fill="#edb92e" d="M394 144a261 261 0 002 2c-10 6-14 11-13 17l10 32 10 8 1 2c0 3-3 2-5 1l-7-7-2-2-10-31c-3-10 3-17 14-22z"/>
        <path fill="#21231e" d="M396 147v-1 1-1h-1v-1h-1l1-1v1h1v2zm1-1v1h-1l1-1zm-13 17h-1v-5l1-1v-2h1v-1l1-1 1-1 1-1h1v-1h1l1-1 1-1h1l1-1h1v-1l1 1-1 1h-1l-1 1h-1l-1 1h-1v1h-1l-1 1-1 1-1 1-1 1v1h-1v2l-1 1v4zm0 0zm9 31v1h-1v-2l-1-2v-1l-1-2v-2l-1-1v-2l-1-1v-2l-1-1v-2l-1-1v-2l-1-1v-3l-1-1v-2l-1-1v-3h1v3h1v3l1 1v3l1 1v2l1 2v1l1 1v3l1 2v1l1 2v1l1 2 1 2v2zm0 1h-1 1zm10 9v-1 1l-1-1v-1h-1v-1h-1l-1-1h-1v-1h-1v-1h-1l-1-1h-1v-1h-1v-1h1l1 1h1v1h1v1h1l1 1 1 1h1v1h1v1h1v2zm0-1h1l-1 1v-1zm1 2h-1v-1 1-2h1v2-1zm-1 0v-1 1zm-5 2l1-1h4v-1l1-1v3h-6v-1zm0 0zm-6-8v-1 1h1v1h1l1 1 1 1 1 1v1h1v2h1l-1 1v-1h-1v-1l-1-1v-1h-1v-1h-1v-1h-1v-1h-1zm0-1v1-1zm-3 0l2-1v1h1l-1 1h-1v-1h-1zm-9-32l1 1v2l1 1v2l1 1v2l1 1v2l1 1v3l1 1v2l1 1v2l1 1v1l1 1v2l1 1v2l1 1-1 1-1-1v-2l-1-1v-4l-1-1v-2l-1-1v-2l-1-1v-2l-1-1v-2h-1v-2l-1-1v-2l-1-1v-3l-1-1v-2zm15-22h-1l-1 1h-1l-1 1-1 1h-1l-1 1h-1l-1 1-1 1v1h-1l-1 1-1 1v1h-1v2h-1v9h-1v-8l1-1v-1l1-1v-1l1-1h1v-1l1-1h1v-1h1l1-1 1-1h1v-1h1l1-1h1l1-1h2zm-1 0v-1l1 1h-1z"/>
        <path fill="#edb92e" d="M356 217v2h-8c4-3 6-4 8-2z"/>
        <path fill="#21231e" d="M355 219v-2h1v2h-1zm1 0zm-8 0l1 1-1-1h6v-1h1l1 1h-1l-1 1h-6v-1zm0 1h-1l1-1v1zm8-3h-1 1-4l-1 1h-1v1h-1v1l-1-1v-1h2v-1h1l1-1h4v1zm0 0zm0 0zm0-1v1-1z"/>
        <path fill="#edb92e" d="M356 212l2 1 4-1c4-2 4 2 2 5-1 3 0 5 1 7v4l-2 1c-1 2-2 1-2 0-4-2-5-6-6-9-2-5-8-6 1-8z"/>
        <path fill="#21231e" d="M358 213v1-1h-3l1-1h1v1h1zm3-1l1 1h-1v1h-2v-1h2v-1zm0 0zm3 6v-6h-1l-1 1-1-1h1v-1h2l1 1v5l-1 1zm1 6h-1v-1h-1v-5l1-1 1 1h-1v5h1v1zm0 5l-1-1h1v-3h-1v-1h1v1h1v3h-1zm0 0zm-2 1v-2h2v1h-2zm0-1zm-2 0v-1 1h2v1h-2v-2 1zm0-1zm-7-8h2v3h1v2h1v1h1v1h1v1h1l-1 1v-1h-1v-1h-1v-1h-1v-1h-1v-2l-1-1v-1l-1-1zm2-8v1h-3l-1 1v1h1v2h1v1l1 1v1h-1v-1h-1v-2h-1v-1h-1v-3h1l1-1h3zm0 0zm0 1v-1 1zm0-1z"/>
        <path fill="#edb92e" d="M357 213c4 1 4-1 6-1-1 5-2 8-7 5-3-2-7 1-7 2-1 1-2 0-3-2-3-6 7-6 11-5z"/>
        <path fill="#21231e" d="M364 212h-2v1h-5v-1h5v-1l1 1zm-1-1h1v1l-1-1zm-7 6v-1l1 1h1l1 1h1l1-1v-1h1v-4h2v1h-1v3l-1 1v1h-1v1h-3v-1h-2zm-7 2h-1 1v-1h1v-1h2v-1h4v2h-1v-1h-3v1h-2v1h-1zm-3-2h1v1l1 1 1 1h-2v-1h-1v-2zm11-5v1h-2v-1h-5l-1 1h-1v1h-1v3l-1 1v-4l1-1 1-1h1l1-1h6v1h1zm0 1v-1 1z"/>
        <path fill="#fff" d="M459 125c3 0 6 2 6 6 0 3-3 6-6 6s-6-3-6-6a6 6 0 016-6z"/>
        <path fill="#21231e" d="M466 131h-1c0-2-2-5-4-5a6 6 0 00-2-1v-1a7 7 0 016 3 7 7 0 011 4zm-7 6v-1c2 0 4-1 5-3a6 6 0 000-2h1c0 2-1 4-3 5a7 7 0 01-3 1zm-7-6h1c0 2 1 4 3 5a6 6 0 003 0v1a7 7 0 01-6-3 7 7 0 01-1-3zm7-7v1c-2 0-4 1-5 3a6 6 0 00-1 3h-1c0-3 1-5 3-6a7 7 0 014-1z"/>
        <path fill="#fff" d="M446 125a6 6 0 016 6c0 3-2 6-6 6s-6-3-6-6c0-4 3-6 6-6z"/>
        <path fill="#21231e" d="M453 131h-1c0-2-1-4-3-5a6 6 0 00-3-1v-1c3 0 5 1 6 3a7 7 0 011 4zm-7 6v-1c2 0 4-1 5-3a7 7 0 001-2h1c0 2-1 4-3 5a7 7 0 01-4 1zm-6-6h1c0 2 1 4 3 5a6 6 0 002 0v1a7 7 0 01-5-3 7 7 0 01-1-3zm6-7v1c-2 0-4 1-5 3a6 6 0 000 3h-1a7 7 0 013-6 7 7 0 013-1z"/>
        <path fill="#fff" d="M434 126a6 6 0 016 6c0 3-3 6-6 6s-6-3-6-6 2-6 6-6z"/>
        <path fill="#21231e" d="M440 132h-1c0-2-1-4-3-5a6 6 0 00-2-1v-1a7 7 0 015 3 7 7 0 011 4zm-6 6v-1c2 0 4-1 5-3a6 6 0 000-2h1a7 7 0 01-3 5 7 7 0 01-3 1zm-7-6h1c0 2 1 4 3 5a6 6 0 003 0v1a6 6 0 01-6-3 7 7 0 01-1-3zm7-7v1c-2 0-4 1-5 3a6 6 0 00-1 3h-1c0-3 1-5 3-6a7 7 0 014-1z"/>
        <path fill="#fff" d="M422 128c4 0 6 3 6 6s-2 6-6 6-6-3-6-6 3-6 6-6z"/>
        <path fill="#21231e" d="M429 134h-1a6 6 0 00-3-5 6 6 0 00-3-1v-1c3 0 5 1 6 3a7 7 0 011 4zm-7 7v-1c2 0 4-2 5-3l1-3h1c0 2-1 4-3 5a7 7 0 01-4 1zm-6-7h1c0 2 1 4 3 5a5 5 0 002 0v1a7 7 0 01-5-3 7 7 0 01-1-3zm6-7v1c-2 0-4 1-5 3a6 6 0 000 3h-1c0-3 1-5 3-6a7 7 0 013-1z"/>
        <path fill="#fff" d="M346 159a6 6 0 016 7c0 3-2 6-6 6s-6-3-6-6a6 6 0 016-7z"/>
        <path fill="#21231e" d="M353 166h-1c0-2-1-4-3-5a6 6 0 00-3-1v-1c3 0 5 1 6 3a7 7 0 011 4zm-7 6v-1c2 0 4-1 5-3a7 7 0 001-2h1c0 2-1 4-3 5a7 7 0 01-4 1zm-6-6h1c0 2 1 4 3 5a6 6 0 002 0v1a7 7 0 01-5-3 7 7 0 01-1-3zm6-7v1c-2 0-4 1-5 3a6 6 0 000 3h-1a7 7 0 013-6 7 7 0 013-1z"/>
        <path fill="#fff" d="M357 153c3 0 6 3 6 6s-3 6-6 6c-4 0-6-2-6-6a6 6 0 016-6z"/>
        <path fill="#21231e" d="M364 159h-1c0-2-2-4-3-5a6 6 0 00-3-1v-1a7 7 0 016 3 7 7 0 011 4zm-7 7v-1a6 6 0 006-6h1a7 7 0 01-3 6 7 7 0 01-4 1zm-7-7h1c0 2 1 4 3 5a6 6 0 003 1v1a7 7 0 01-6-3 7 7 0 01-1-4zm7-7v1c-2 0-4 1-5 3a6 6 0 00-1 3h-1c0-3 1-5 3-6a7 7 0 014-1z"/>
        <path fill="#fff" d="M369 147c3 0 6 3 6 6 0 4-3 7-6 7s-6-3-6-7a6 6 0 016-6z"/>
        <path fill="#21231e" d="M375 153h-1c0-2-1-4-3-5a6 6 0 00-2 0v-1a7 7 0 015 3 7 7 0 011 3zm-6 7v-1c2 0 4-1 5-3a6 6 0 000-3h1a7 7 0 01-3 6 7 7 0 01-3 1zm-7-7h1c0 2 1 4 3 5a6 6 0 003 1v1a7 7 0 01-6-3 7 7 0 01-1-4zm7-6v1c-2 0-4 1-5 3a6 6 0 00-1 2h-1c0-2 1-4 3-5a7 7 0 014-1z"/>
        <path fill="#fff" d="M338 170a6 6 0 016 6c0 3-2 6-6 6s-6-3-6-6 3-7 6-7z"/>
        <path fill="#21231e" d="M345 176h-1c0-2-1-5-3-5a6 6 0 00-3-1v-1a7 7 0 016 3 7 7 0 011 4zm-7 6v-1c2 0 4-1 5-3a6 6 0 001-2h1c0 2-1 4-3 5a7 7 0 01-4 1zm-7-6h2c0 2 1 4 3 5a6 6 0 002 0v1a7 7 0 01-6-3 7 7 0 010-3zm7-7v1c-2 0-4 1-5 3a6 6 0 00-1 3c0-3 1-5 3-6a7 7 0 013-1z"/>
        <path fill="#edb92e" d="M454 276l-22 13-23-10 22-13z"/>
        <path fill="#21231e" d="M431 267l-22 12 22-13v1zm0-1zm23 11l-23-10v-1l24 10v1h-1zm1-1h1l-1 1v-1zm-23 13l22-13 1 1-22 12h-1zm1 0l-1 1 1-1zm-24-10l24 10-1 1-23-10v-1zm0 1l-1-1h1v1z"/>
        <path fill="#c6363c" d="M431 271c6-1 11 2 11 6s-4 7-10 7c-6 1-10-2-11-6 0-4 5-7 10-7z"/>
        <path fill="#21231e" d="M442 277h-1v-2l-1-1-1-1h-1l-1-1h-4v-1h-1l-1 1v-1h6l1 1h1v1h2v1l1 1v2zm-10 8v-1h2l1-1h2v-1h2v-1h1v-1l1-1v-2h1v2l-1 1v1h-1v1h-1v1h-1l-1 1h-2l-1 1h-2zm-11-7h1v2h1v1l1 1h1l1 1h5v1h-6v-1h-1l-1-1h-1v-2h-1v-2zm10-8v1h-2l-1 1h-2v1h-1l-1 1-1 1v1h-1v2h-1v-3h1v-1h1v-1h1v-1h1l1-1h3v-1h3z"/>
        <path fill="#edb92e" d="M382 270l24 9-20 13c-4-2-8-19-3-22z"/>
        <path fill="#21231e" d="M406 279l-24-9 1-1 23 9v1zm0-1l1 1h-1v-1zm-20 14l20-14v1l-19 14h-1v-1zm1 1h-1 1zm-4-24l-1 1h1l-1 1-1 1v11l1 1v2l1 1v1l1 1v1l1 1h1v2-1h-1l-1-1-1-1v-1h-1v-1l-1-1v-3l-1-1v-3l-1-1v-5l1-1v-2l1-1 1-1zm-1 0h1-1zm1 1v-1l-1 1zm-1-1h1-1z"/>
        <path fill="#0c4076" d="M383 274c6 0 10 2 11 6 0 4-4 8-10 8-3 0-6-3-6-6-1-4 1-7 5-8z"/>
        <path fill="#21231e" d="M394 280h-1v-2h-1v-1h-1v-1h-2l-1-1h-5v-1h5v1h2v1h1l1 1 1 1v2zm-10 8v-1h4v-1h2v-1h1v-1h1v-2h1v-2h1v3h-1v1h-1v1l-1 1h-1v1h-2l-1 1h-3zm-7-6h1l1 1v2h1v1h1v1h3v1h-3l-1-1h-1v-1h-1v-2h-1v-2zm6-8v1h-2l-1 1v1h-1v2h-1v2-4h1v-1l1-1h1v-1h2z"/>
        <path fill="#fff" d="M458 280c1 0 3 2 3 4 0 1-2 3-4 3-1 0-3-2-3-4 0-1 2-3 4-3z"/>
        <path fill="#21231e" d="M461 284h-1v-2h-1v-1h-1v-1h1v1h1v1h1v1zm-4 3v-1h2v-1h1v-1h1v1l-1 1h-1v1h-2zm-3-3h1v1h1v1h1v1h-2v-1h-1v-2zm4-4v1h-2v1h-1v2h-1v-2l1-1h1v-1h2z"/>
        <path fill="#fff" d="M409 283l3 3c0 2-2 4-3 4a3 3 0 01-4-4c0-1 2-3 4-3z"/>
        <path fill="#21231e" d="M412 286h-1v-2h-2v-1h2v1h1v1l1 1zm-3 4v-1h1v-1h1v-1h1v2h-2v1h-1zm-4-4h1v2h1v1h2v1h-2v-1h-1v-1h-1v-1zm4-3v1h-2v1h-1v2h-1v-2h1v-1h1v-1h2z"/>
        <path fill="#fff" d="M407 268c2 0 3 2 3 4 0 1-1 3-3 3a3 3 0 01-3-4c0-1 1-3 3-3z"/>
        <path fill="#21231e" d="M411 272h-1v-1h-1v-2h-2v-1h2v1h1v1h1v2zm-4 3v-1h2v-2h1v-1h1v2h-1v1h-1v1h-2zm-4-4h1v1l1 1v1h2v1h-2l-1-1v-1h-1v-1zm4-3v1h-2v1l-1 1h-1v-1h1v-1h1v-1h2z"/>
        <path fill="#fff" d="M457 266c2 0 4 2 4 3 0 2-2 4-4 4a3 3 0 01-3-4l3-3z"/>
        <path fill="#21231e" d="M461 269h-1v-1h-1v-1h-2v-1h2l1 1h1v2zm-4 4v-1h2v-1h1v-2h1v2h-1v1h-1v1h-2zm-3-4h1v2h1v1h1v1h-1l-1-1h-1v-3zm3-3v1h-1v1h-1v1h-1v-2h1v-1h2z"/>
        <path fill="#edb92e" d="M371 237c2 0 6 5 7 5 1-3-1-11-5-16-3-1-4-3-4-8-1-1-3 0-3 2v8c4 2 5 4 5 9z"/>
        <path fill="#21231e" d="M378 242h1l-1 1-1-1v-1h-1l-1-1-1-1h-1l-1-1h-1v-1h2v1h2v1h1v1h1v1h1v1zm1 0l-1 1 1-1zm-7-16l1-1v1l1 1v1h1v1h1v2h1v3h1v3h1v5h-1v-4l-1-1v-2l-1-1v-2l-1-1v-1l-1-1-1-1v-1h-1v-1zm1-1v1-1zm-5-6h1v2h1v3h2v1h1l-1 1h-1v-1h-1v-1h-1v-3l-1-1v-1zm-2 1v-2h3v1h-2v2zm1 6h-1v-2h-1v-4h1v5h1v1zm-1 2l-1 1v-1h1v-2h1v2h-1v1-1zm-1 1v-1 1zm5 8h1-1l1-1v-2h-1v-3h-1v-1h-1l-1-1h-1v-1h2v1h1v1h1v1l1 1v2h1v3h-1zm1 0h-1 1zm-1 0h1-1z"/>
        <path fill="#edb92e" d="M369 219l-1 3 1 3 3 3 3 3 1 4 2 7h3l-1-3a8 8 0 01-2-3v-4l1-2c0-2-2-6-4-6s-3-1-5-4l-1-2z"/>
        <path fill="#21231e" d="M369 222h-1v-4l1 1v3zm1 3h-2v-3h1v3h1zm3 2l-1 1h-1v-1h-1v-1h-1v-1h1l1 1h1v1zm2 3l-1 1v-1h-1v-2h-1l1-1v1h1v2h1zm1 5h-1v-3h-1v-1h1v1h1v3zm-1 0zm3 6v1h-1l-1-1v-2h-1v-5h1v5h1v2h1zm2 1h1-1v1h-1l-1-1v-1h1v1h1v-1 1zm1 0h-1 1zm-2-2l1-1v1h1v2h-1v-2h-1zm-1-4h1v3h1l-1 1v-2h-1v-2zm1 0zm-2-3h2v3h-1v-1h-1v-3zm2-3h1v1h-1v2h-1v-3zm-4-5v-1h2v1h1v1h1v4h-1v-3h-1v-2h-2zm-5-4l1-1v3h4v1h-3v-1h-1v-1h-1v-1zm-1-2l-1-1h1v1h1v1l-1 1v-2h-1 1zm-1-1l1-1v1h-1zm1 1v-1zm-1-1l1-1v1h-1z"/>
        <path fill="#edb92e" d="M360 227l2-1a6 6 0 014 0c6 2 8 11 2 14l-4-3a21 21 0 00-4-7v-3z"/>
        <path fill="#21231e" d="M362 226v1h-2v-1h2zm4-1v1h-4v1-2h4zm2 15v-1h1l1-1v-1h1v-5l-1-1v-2h-1v-1h-1v-1h-1v-1h-1v-1h1v1h2v1h1v1l1 1v1h1v2l1 1v3h-1v2l-1 1v1h-2zm0 0zm-4-3l1-1v1l1 1v1h2v1h-2v-1h-1v-1h-1v-1zm0 0zm-4-7h1v1h1v1h1v2h1v2h1v1h-1v-1h-1v-2h-1v-1h-1v-2h-1zm0 0zm0-3v2h1v1h-2v-3h1zm0 0zm0 1v-1 1zm0 0z"/>
        <path fill="#edb92e" d="M363 228c5-2 9 8 4 10-2 1-3-3-3-4-1-3-6-4-1-6z"/>
        <path fill="#21231e" d="M367 238v-1h1v-2h1v-3h-1v-2h-1v-1h-1l-1-1h-2l-1-1h4v1h1v1h1v1h1v2l1 1v3l-1 1v1h-1v1h-1zm-4-4h1v1l1 1v1h1v1h1v1h-2v-1h-1v-3h-1v-1zm0-7v1l-1 1h-1v1h1v1h1v1h1v2h-1v-1h-1v-1h-1v-1l-1-1v-1l1-1h1v-1h1z"/>
        <path fill="#0c4076" d="M363 229c3-1 7 5 3 7-2 1-4 0-4-2-1-2 0-4 1-5z"/>
        <path fill="#21231e" d="M367 236l-1-1h1v-3l-1-1-1-1h-1v-1h1l1 1h1v2l1 1v2l-1 1v1h-1zm-6-2h2v1h1v1h2v-1 1l-1 1h-1l-1-1h-1v-1h-1v-1zm2-5l1 1h-1v1h-1v2l-1 1v-3l1-1v-1h1zm1 0h-1 1z"/>
        <path fill="#fff" d="M400 180c4 0 6 2 6 6s-2 7-6 7-6-3-6-7 3-6 6-6z"/>
        <path fill="#21231e" d="M407 186h-1c0-2-1-4-3-5a6 6 0 00-3-1v-1c2 0 5 1 6 3a7 7 0 011 4zm-7 7v-1a6 6 0 005-3 6 6 0 001-3h1c0 2-1 5-3 6a7 7 0 01-4 1zm-7-7h1a6 6 0 003 5 6 6 0 003 1v1a7 7 0 01-6-3 7 7 0 01-1-4zm7-7v1a6 6 0 00-5 3 6 6 0 00-1 3h-1a7 7 0 013-6 7 7 0 014-1z"/>
        <path fill="#fff" d="M395 169c4 0 7 3 7 6 0 4-3 7-7 7s-6-3-6-7c0-3 3-6 6-6z"/>
        <path fill="#21231e" d="M402 175h-1c0-2-1-4-3-5a6 6 0 00-2 0v-1l6 3a7 7 0 011 3zm-7 7v-1c3 0 5-1 6-3a6 6 0 000-3h1c0 3-1 5-3 7a7 7 0 01-3 1zm-6-7h1a6 6 0 003 6h2v1a7 7 0 01-5-3 7 7 0 01-1-3zm6-7v1c-2 0-4 2-5 4a6 6 0 000 2h-1l3-6a7 7 0 013-1z"/>
        <path fill="#fff" d="M411 132c3 0 6 2 6 6s-3 6-6 6-7-3-7-6a6 6 0 017-6z"/>
        <path fill="#21231e" d="M417 138h-1c0-3-1-5-3-5a6 6 0 00-2-1v-1a7 7 0 015 3 7 7 0 011 4zm-6 6v-1c2 0 4-1 5-3v-2h1c0 2-1 4-3 5a7 7 0 01-3 1zm-7-6h1c0 2 1 4 3 5a6 6 0 003 0v1a7 7 0 01-6-3 7 7 0 01-1-3zm7-7v1c-2 0-4 1-5 3a6 6 0 00-1 3h-1a7 7 0 013-6 7 7 0 014-1z"/>
        <path fill="#fff" d="M400 136c4 0 7 3 7 7 0 3-3 6-7 6s-6-3-6-6c0-4 3-7 6-7z"/>
        <path fill="#21231e" d="M407 143h-1a6 6 0 00-3-6 6 6 0 00-3 0v-1c3 0 5 1 6 3a7 7 0 011 3zm-7 7v-1c2 0 5-2 6-4a6 6 0 000-2h1l-3 6a7 7 0 01-4 1zm-7-7h1c0 2 2 4 4 5a6 6 0 002 0v1a7 7 0 01-6-3 7 7 0 01-1-3zm7-7v1a6 6 0 00-5 3 6 6 0 000 3h-1c0-3 1-5 3-6a7 7 0 013-1z"/>
        <path fill="#fff" d="M393 145c3 0 6 3 6 7 0 3-3 6-6 6s-6-3-6-6c0-4 3-7 6-7z"/>
        <path fill="#21231e" d="M400 152h-1a6 6 0 00-4-6 6 6 0 00-2 0v-1l6 3a7 7 0 011 4zm-7 7v-1c2 0 4-2 5-4a6 6 0 001-2h1c0 2-2 4-4 6a7 7 0 01-3 1zm-7-7h1c0 2 1 4 3 5a6 6 0 003 0v1a7 7 0 01-6-3 7 7 0 01-1-3zm7-7v1a6 6 0 00-5 3 6 6 0 00-1 3h-1c0-3 1-5 3-6a7 7 0 014-1z"/>
        <path fill="#fff" d="M392 157c3 0 6 2 6 6s-3 7-7 7-6-3-6-7 3-6 6-6z"/>
        <path fill="#21231e" d="M398 163h-1c0-2-1-4-3-5a6 6 0 00-3-1v-1c3 0 5 1 7 3a7 7 0 011 4zm-7 7v-1a6 6 0 006-3 6 6 0 000-3h1c0 3-1 5-3 6a7 7 0 01-3 1zm-6-7h1c0 2 1 4 3 5l2 1v1a7 7 0 01-5-3 7 7 0 01-1-4zm6-7v1c-1 0-4 1-5 3a6 6 0 000 3h-1c0-2 1-5 3-6a7 7 0 013-1z"/>
        <path fill="#edb92e" d="M474 198c-2-5-5-8-8-10 4-13 5-30 2-51 0-3-1-4-2-4l-2 5 2 30-5 21 4 4 5 5h4z"/>
        <path fill="#21231e" d="M465 188h2l1 1h1v1h1v1h1v1l1 1v1h1v1h1v2h1v1h-1l-1-1v-1h-1v-2h-1v-1h-1v-1h-1v-1h-1v-1h-1v-1h-1l-1-1zm1 1h-1v-1l1 1zm2-52h1v4l1 2v29l-1 1v6l-1 1v3l-1 1v3l-1 1h-1l1-1v-3l1-1v-3l1-1v-4l1-2v-32l-1-2v-2zm0 0zm-2-4v-1h1v1h1v2h1v2h-1v-2h-1v-2h-1zm-1 5h-1v-4h1v-1l1-1v2l-1 1v3zm-1 0zm2 30h-1v-23l-1-1v-6h1v7l1 1v22zm-4 21h-1v-2l1-1v-3l1-1v-4l1-1v-6h1v-3h1v4h-1v6l-1 1v4h-1v3h-1v4zm3 4v1-1h-2v-1h-1v-1h-1v-1h1v1h1l1 1h1v1zm1 0zm4 5v1l-1-1v-2h-1v-1h-2v-1h-1l1-1v1h1l1 1 1 1 1 1v2-1zm0 1l-1-1 1 1zm1-2v2h-1v-2h2zm4 1h-1 1v1h-4l1-1h3zm-1 0v-1 1zm0 0h1-1z"/>
        <path fill="#edb92e" d="M458 215l3-2v-3c-1-6 3-5 6-3l5 6 3 2v9l-3 2-5 5c-3 3-7 3-6-2v-3l-3-2a7 7 0 01-2-2v-2-3l2-2z"/>
        <path fill="#21231e" d="M460 213l1 1h-2v1l-1-1h1v-1h1zm1-3h1v3h-2 1v-3zm6-3v1h-1v-1h-2l-1-1h-1v4h-1v-4h1v-1h2v1h2l1 1zm5 5v1h-1v-1h-1v-1h-1v-1h-1v-1h-1v-2l1 1h1v1l1 1v1h1l1 1v1h1zm4 3h-3v-1h-1v-1h2v1h1v1h1zm0 0zm0 4h-1v-4h1v4zm-1 0zm0 0h1-1zm0 0zm1 5h-1v-4h1v4zm0 0zm-4 3v-2h2v-1h1v1h-1v1h-1zm-5 5v-2h1l1-1v-1h1v-1h1v-1h1v2h-1l-1 1v1h-1v1h-1zm-6-3h1v4h2v-1h2v-1l1 1h-1l-1 1h-2v1h-1v-1h-1v-4zm-1-3h1v1h1v2h-1v-2h-1v-1zm-2-1l1-1h1v1h1l-1 1h-1v-1h-1zm1-1zm-3-2h1v1h1v2-1h-1v-1h-1v-1zm-1-3h1v3h-1v-3zm1-2v3h-1v-3h1zm2-3l1 1h-1v1h-1v1h-1v-1h1v-1h1v-1zm1 1z"/>
        <path fill="#21231e" d="M476 220v1l-10 4 10-5zm0-1v-1c-4-1-7-2-10-5 2 3 6 5 10 6z"/>
        <path fill="#edb92e" d="M461 207l4 2c1 2 0 4-2 7l-1 3 1 4c2 2 3 5 2 7l-4 2v-3-3l-2-2a7 7 0 01-3-2v-3-2l3-2 2-2v-6z"/>
        <path fill="#21231e" d="M465 209l-1 1v-1h-1v-1h-2l1-1h1v1h1l1 1zm-1 7h-1v-2h1v-2h1v-1l-1-1 1-1v2h1v1h-1v3h-1v1h-1zm-1 3h-1v-4l1 1v3h-1v1zm1 4h-2v-3h1v2h1zm1 7l-1-1h1v-3h-1v-1l-1-1v-1h1v1l1 1v2h1v1h-1v2zm-4 2l1-1h-1 2v-1h1v-1l1 1v1h-2v1h-2zm0 0zm0-3h1v2l-1 1v-3zm-1-3l1-1v1h1v3h-1v-3h-1zm-2-1l1-1h1v1h1l-1 1-1-1h-1zm0 0zm-2-3h1v1h1v1h1l-1 1v-1h-1v-1h-1zm0 0v1-1zm-1-3h1v3l-1-1v-2zm1-2h1v1h-1v2h-1v-3h1zm2-3l1 1h-1v1h-1v1h-1v-1h1v-1h1v-1zm3-1v1h-1v1h-1l-1-1h1l1-1h1zm0-3h1v3h-2 1v-3zm0-2v-1l1 1v2h-1v-3 1zm0-1h1v1l-1-1zm0 0v1-1zm-100 19h1c-2-2-2-4-2-6-1 1-1 4 1 6z"/>
        <path fill="#edb92e" d="M411 200l2 3h3c5-2 5 2 4 6l-4 6-1 4a95 95 0 01-4 0l-4 1-3-3-6-5c-3-3-4-7 0-7l3-1 1-3 1-3h5l3 2z"/>
        <path fill="#21231e" d="M413 202l-1 1v-1h-1v-1l-1-1h2v2h1zm-1 1zm4-1v1h-4l1-1h3zm4 7h-1v-3l1-1v-1l-1-1v-1h-2v1h-1v-1h4v7zm-4 6h-1l1-1v-1h1v-2h1v-1h1v-1h1v1h-1v1l-1 1v1h-1v2h-1zm-1 4l-1-1v-1h1v-2l1 1v1h-1v2zm0 0zm-4 1v-1h2v-1h1l1 1h-2v1h-2zm0 0zm0 0v-1 1-1 1zm0-1zm-4 1v-1h4v1h-4zm0 0zm-3-3v-1l1 1 1 1v1h1l-1 1v-1h-1v-1h-1v-1zm-6-4l1-1v1h1v1h1v1h2v1h1v1h-2v-1h-1v-1h-2v-1h-1v-1zm0-8v1h-2v3h1v2h1v1h1l-1 1-1-1v-1h-1v-2h-1v-3l1-1h2zm3-1l1 1h-2v1h-2v-1h2v-1h1zm0 0zm0-3l1 1v3l-1-1v-3zm2-3v2l-1 1v1l-1-1v-1h1v-2h1zm0 1l1-1-1 1zm2-2v1h-1v1h-1v-1h1v-1h1zm0 1zm3-1v1h-3v-1h3zm3 3h-2v-1h-1v-2l1 1h1v1h1v1zm0 0zm-1 0h1-1zm0 0z"/>
        <path fill="#21231e" d="M410 219h-1c-1-3-3-7-6-9 3 1 6 5 7 9zm1 0h1c0-4 0-7 2-11-2 3-3 7-3 11z"/>
        <path fill="#edb92e" d="M418 202l-1 4c-1 2-3 2-6 0l-4-1-3 2c-1 2-3 4-5 2l-3-3h2l3-1 1-3 1-3 3-1h2l3 2 2 2h5z"/>
        <path fill="#21231e" d="M418 207l-1-1v-4h2v1h-1v4zm-8-1l1-1h1v1h1v1h3v-1h1l1 1h-1v1h-4v-1h-1l-1-1zm-2 0l-1-1h1v-1h2v1h1v1h-3zm-3 1l-1-1h1v-1h2l1 1h-3v1zm-6 3v-1h3v-1h1v-1h1v-1l1 1h-1v1h-1v1h-1v1h-3v-1zm-3-5l1 1v-1 1h1v2h1v2-1h-1v-1h-1v-1h-1v-2zm0 1v-1 1zm3-1v1h-2l-1-1h3zm2-1l1 1h-1l-1 1h-2v-1h2v-1h1zm0 0zm0-3l1 1v3l-1-1v-3zm2-3l1 1h-1v2h-1v1l-1-1h1v-2h1v-1zm0 0zm2-1l1 1h-2v1l-1-1h1v-1h1zm0 0h1-1zm3 0v1h-2l-1-1h3zm0 1zm3 2h-1v-1h-1v-1h-1v-1h1v1h1v1h1v1zm2 2l-1 1v-1h-1v-2h1v1l1 1zm-1 1zm4-1v1h-3v-1h3zm3 0h-1v1h-2v-1h3zm-1 0h1-1z"/>
        <path fill="#edb92e" d="M392 221l1-1-1-3c-2-5 0-5 4-3l3 2 2 3 3 1 2 5 2 4-2 2-2 4-3 3c-1 0-2-1-2-4a4 4 0 00-2-3l-2-2a9 9 0 01-2-2l-1-2-1-2a4 4 0 011-2z"/>
        <path fill="#21231e" d="M393 220h1-1v1h-1v-1h1zm1 0zm-2-3h1v3h-1v-3zm4-3l-1 1h-1v-1h-2v2l1 1h-1l-1-1v-3h3v1h2zm3 2l-1 1v-1h-2v-1h-1l1-1h1v1h1v1h1zm2 2v1h-1v-1h-1v-1h-1l1-1v1h1v1h2zm4 2l-1 1h-1v-1h-2v-1l1-1v1h1l1 1h1zm0 0zm1 5h-1v-3h-1v-1l1-1v2h1v2zm0 0zm0 0h-1 1-1 1l1-1v1-1 1l-1-1 1 1-1-1 1 1-1-1h1zm0-1v1-1zm2 5h-1v-1l-1-1v-2h1v3h1v1zm0 0zm-2 2h-1v-1h1v-1h2v1h-1v1h-1zm-2 5l-1-1h1v-2h1v-2l1 1v1h-1v3h-1v1zm-4 3l1-1v-1h1l1-1h1v1h-1v1h-1v1h-2zm-2-5h1v1h1v2h1v1h-2v-2h-1v-2zm-1-3h1v1h1v2h-1v-2h-1v-1zm-2-1v-1h1v1h1v1h-2zm-3-2h2v1h1v1h-1v-1h-1v-1zm-1-2h2v2h-1v-2zm0-3h1v2l-1 1v-3zm1 0v1zm0-1v-1 2h-1v-2h1v1zm0-1h1l-1 1v-1zm0 0v1-1zm0 1h-1l1-1v1z"/>
        <path fill="#21231e" d="M407 226v1l-4 2-2 3 2-4 4-2zm-1-2l-1-1-4-1-5-2 5 3 5 1z"/>
        <path fill="#edb92e" d="M391 214l3 2 2 3-1 3 1 4 2 4c2 2 4 5 3 6a4 4 0 01-1 2l-2-2a8 8 0 00-1-4l-2-2-3-1c-1-1-3-5-1-7s2-3 1-6l-1-2z"/>
        <path fill="#21231e" d="M395 215l-1 1h-1v-1h-1v-1h-1l1-1v1h2v1zm1 3l-1 1v-3h-1l1-1v1h1v2zm0 4h-1v-3l1-1v4zm-1 0zm1 4h-1v-4h1v4zm2 3l-1 1v-2h-1v-2h-1 2v2h1v1zm4 7h-1v-2h-1v-2h-1v-1h-1v-1h-1l1-1h1v1l1 1v1h1v1h1v3zm-3 2h1v-2h2v1h-1v1h-2zm1 0v1l-1-1h1zm-2-2l1-1v1h1v1l-1 1v-1h-1v-1zm-1-4h1v2h1v1l-1 1v-2h-1v-1zm0 0zm-2-2v-1l1 1v1h1v1h-1v-1h-1v-1zm-3-1l1-1v1h2v1h-2l-1-1zm-1-8v5h1v2h1l-1 1v-1h-1v-2h-1v-4h1zm0-5h2v4h-1v1h-1v-1h1v-3h-1v-1zm0-3v1l1-1v3l-1 1v-4zm0 1v-1 1zm0 0v-1 1zm0-1z"/>
        <path fill="#edb92e" d="M434 226l-2 2v3c2 5-1 4-5 3l-5-5-3-1a119 119 0 01-1-5l-1-4 3-3 3-6c3-3 6-4 6 2l1 3 3 1 2 2 1 3v3l-2 2z"/>
        <path fill="#21231e" d="M433 228h-1v-1h1v-1h1v1l-1 1zm-1 0zm1 3h-1v-1h-1v-2h2-1v2h1v1zm-6 3l1-1h1v1h3v-3h1v3l-1 1h-3l-1-1h-1zm-5-4v-1h1v1h1v1h1l1 1h1v2h-1v-1h-1v-1h-1l-1-1-1-1h-1zm0-1zm-4-1l1-1h1v1h2l1 1-1 1v-1h-2v-1h-1zm1 0zm-1-4v-1h1v5h-1v-5 1zm0-1h1-1zm0 0h1-1v1-1zm1 0zm-2-4h1v4h-1v-4zm0 0zm2-3l1 1-1 1h-1v1l-1-1h1v-1h1v-1zm4-6l1 1h-1v1l-1 1v1h-1v2h-2 1v-2h1v-2h1v-1h1v-1zm7 2h-1v-2h-1v-2h-1l-1 1h-1v1h-1v1l-1-1 1-1 1-1h1v-1h2l1 1v2h1v2zm1 3l-1 1v-1h-1v-3h1v3h1zm0 0zm2 1l-1 1h-1v-1h-1v-1h1v1h2zm3 2l-1 1-1-1h-1v-2h1v1h1v1h1zm-1 1zm1 2h-1v-2l1-1v3zm0 3v-2l-1-1h1v1h1v2zm-1 3l-1-1v-1h1v-1h1v2h-1v1h-1zm-1-1z"/>
        <path fill="#21231e" d="M418 223v-1a14 14 0 008-6c-2 3-5 6-8 7zm0 1v1c4 0 7 1 10 3-2-2-6-4-10-4z"/>
        <path fill="#edb92e" d="M433 233a11 11 0 01-4-1c-1-1-1-4 1-7v-3a6 6 0 00-2-4c-2-2-3-4-2-6l3-3v3l1 3 3 1 2 2 1 3v3l-2 2-2 2v3l1 2z"/>
        <path fill="#21231e" d="M429 232l1-1v1h2v1h1l-1 1-1-1h-1l-1-1zm0-7l1 1-1 1v4h1l-1 1v-1h-1v-4h1v-2zm0-3h2v2l-1 1h-1v-1h1v-2zm-1-3l1-1v2h1v2h-1v-2h-1v-1zm0 0zm-3-8l1 1v3h1v1l1 1v1h1-2v-1h-1v-1l-1-1v-3zm4-2h-1l1 1h-1l-1 1v1h-1l-1-1h1v-1h1v-1h2zm0 0h-1zm1 3h-1v-2h-1v-1h1v1h1v2zm1 3l-1 1h-1v-4h1v3h1zm2 1l-1 1h-2v-2h1v1h2zm3 2l-1 1h-1v-1h-1v-2l1 1h1v1h1zm-1 1zm1 2h-1v-2l1-1v3zm0 3v-2l-1-1h1v1h1v2zm-1 3l-1-1v-1h1v-1h1v2h-1v1h-1zm-1-1zm-1 2h-1v-1h1v-1h1v2h-1zm-1 0zm1 3h-1v-3h1v3zm-1 0zm1 3v-1h-1v-2h1v3zm0-1v1-1zm0 0v1-1zm0 0v1-1z"/>
        <path fill="#edb92e" d="M411 216c4 0 8 4 8 8 1 4-2 8-6 8s-7-3-8-7 1-8 6-8z"/>
        <path fill="#21231e" d="M420 224h-1v-1h-1v-2h-1v-1l-1-1-1-1h-1l-1-1h-2v-1h2l1 1h1l1 1h1v1h1v2h1v3zm-7 8v-1h3v-1h1v-1h1v-3h1v-2h1v2l-1 1v2l-1 1h-1v1h-1v1h-3zm-9-7l1-1v2h1v2h1v1h1v1h1l1 1h3v1h-4v-1h-1l-1-1-1-1v-1h-1v-2h-1v-1zm6-9v1h-2v1h-1v1h-1v2l-1 1v3h-1v-4h1v-2h1v-1h1v-1h1l1-1h1z"/>
        <path fill="#edb92e" d="M411 219c3-1 6 2 6 5 1 3-1 6-4 6s-6-2-6-5 1-6 4-6z"/>
        <path fill="#21231e" d="M418 224h-1l-1-1v-2h-1v-1h-2v-1h-2v-1h2l1 1h2v2h1v2h1v1zm-5 6v-1h2v-1h1v-2h1v-2h1v3h-1v1l-1 1h-1v1h-2zm0-1zm-7-4h2v2h1v1h1v1h2v1h-2v-1h-1v-1h-1v-1h-1v-2h-1v-1zm1 0zm4-7v1h-2v1l-1 1v2h-1v2h-1v-3h1v-2h1v-1h2v-1h1z"/>
        <path fill="#0c4076" d="M411 221c2 0 4 1 4 3s-1 4-3 4a4 4 0 01-4-4c0-2 2-3 3-3z"/>
        <path fill="#21231e" d="M416 224h-2v-2h-2v-1h-1v-1h1v1h2v1h1v2h1zm-4 4v-1h2v-1l1-1v-1h1v2h-1v1l-1 1h-2zm-4-3l1-1v2h1v1h2v1h-2v-1h-1v-1h-1v-1zm3-4h1-2v1h-1v2h-1v-2h1v-1h2v-1 1zm1 0h-1 1zm0 0h-1v-1l1 1zm-1 0v-1 1z"/>
      </g>
      <path fill="#fff" d="M482 183c4 0 7 3 7 7s-3 7-7 7-7-3-7-7 3-7 7-7z"/>
      <path fill="#21231e" d="M490 190h-1c0-2-2-5-4-6a6 6 0 00-3 0v-1c3 0 5 1 6 3a7 7 0 011 4zm-8 7v-1c3 0 5-1 6-3a6 6 0 001-3h1c0 2-2 5-4 6a7 7 0 01-4 1zm-7-7h1a6 6 0 006 6v1a7 7 0 01-6-3 7 7 0 01-1-4zm7-7v1a6 6 0 00-5 3 6 6 0 00-1 3h-1c0-3 2-5 4-6a7 7 0 013-1z"/>
      <path fill="#fff" d="M482 171c4 0 7 3 7 7a7 7 0 11-14 0c0-4 3-7 7-7z"/>
      <path fill="#21231e" d="M490 178h-1c0-2-2-5-4-6a6 6 0 00-3 0v-1c2 0 5 1 6 3a7 7 0 011 4zm-8 7v-1c3 0 5-1 6-3a6 6 0 001-3h1c0 2-2 5-4 6a7 7 0 01-4 1zm-7-7h1a6 6 0 006 6v1a7 7 0 01-6-3 7 7 0 01-1-4zm7-7v1a6 6 0 00-5 3 6 6 0 00-1 3h-1c0-3 2-5 4-6a7 7 0 013-1z"/>
      <path fill="#fff" d="M482 160c4 0 7 3 7 7a7 7 0 11-14-1c0-3 3-6 7-6z"/>
      <path fill="#21231e" d="M490 167h-1c0-3-2-5-4-6a6 6 0 00-3-1v-1c2 0 5 2 6 4a7 7 0 011 4zm-8 7v-1c3 0 5-1 6-4l1-3h1c0 3-2 5-4 7a7 7 0 01-4 1zm-7-7h1c0 2 1 4 3 5a6 6 0 003 1v1a7 7 0 01-6-4 7 7 0 01-1-4zm7-8v1a6 6 0 00-5 4 6 6 0 00-1 3h-1c0-3 1-5 3-7a7 7 0 014-1z"/>
      <path fill="#fff" d="M482 127c4 0 7 3 7 7s-3 7-7 7a7 7 0 010-14z"/>
      <path fill="#21231e" d="M490 134h-1c0-2-2-5-4-6a6 6 0 00-3 0v-1c2 0 5 1 6 3a7 7 0 011 4zm-8 7v-1c3 0 5-1 6-3a6 6 0 001-3h1c0 2-2 5-4 6a7 7 0 01-4 1zm-7-7h1c0 2 1 5 4 6a6 6 0 002 0v1a7 7 0 01-6-3 7 7 0 01-1-4zm7-7v1a6 6 0 00-5 3 6 6 0 00-1 3h-1c0-3 2-5 4-6a7 7 0 013-1z"/>
      <path fill="#fff" d="M482 137c4 0 7 3 7 7a7 7 0 11-14 0c0-4 3-7 7-7z"/>
      <path fill="#21231e" d="M490 144h-1c0-2-2-5-4-6a6 6 0 00-3 0v-1c3 0 5 1 7 3a7 7 0 011 4zm-8 7v-1c3 0 5-1 6-3a6 6 0 001-3h1c0 3-2 5-4 6a7 7 0 01-4 1zm-7-7h1c0 2 1 5 4 6a6 6 0 002 0v1a7 7 0 01-6-3 7 7 0 01-1-4zm7-7v1a6 6 0 00-5 3l-1 3h-1c0-2 2-5 4-6a7 7 0 013-1z"/>
      <path fill="#fff" d="M482 148c4 0 7 3 7 7a7 7 0 11-14 0c0-4 3-7 7-7z"/>
      <path fill="#21231e" d="M490 155h-1c0-2-2-5-4-6a6 6 0 00-3 0v-1c2 0 5 1 6 3a7 7 0 011 4zm-8 7v-1c3 0 5-1 6-3a6 6 0 001-3h1c0 3-2 5-4 6a7 7 0 01-4 1zm-7-7h1c0 2 1 5 4 6a6 6 0 002 0v1a7 7 0 01-6-3 7 7 0 01-1-4zm7-7v1a7 7 0 00-5 3 6 6 0 00-1 3h-1c0-2 2-5 4-6a7 7 0 013-1z"/>
      <path fill="#edb92e" d="M487 196l1 2h4c5-1 4 3 2 6l-5 5-2 4h-9l-2-4-6-5c-2-3-3-7 2-6h4l1-3a7 7 0 012-2h6a7 7 0 012 2z"/>
      <path fill="#21231e" d="M489 198h-2v-3h1v2h1zm-1 0zm4 0v1h-3l-1-1 1-1v1h3zm2 7v-3h1v-3h-3v-1h4v4l-1 1v1h-1zm-5 5v-2h1v-1h1v-1h1v-1h1v-1l1 1v1h-1v1h-1v1h-1v1h-1v1h-1zm-2 3v-3h1v-1l1 1v1h-1v2h-1zm0 0zm-5 0v-1h5v1h-5zm0-1zm0 0v1-1zm0 0zm-5 1l1-1h4v1h-5zm1 0zm-3-3l1-1v1h1v2h1l-1 1v-1h-1v-2h-1zm-5-5l1-1v1h1v1h1v1h1v1h1v1h1l-1 1v-1h-1l-1-1h-1v-1h-1v-1l-1-1zm3-7v1h-4v2l1 1v1l1 1-1 1v-1h-1v-3h-1v-2h1v-1h4zm3-1v2h-4v-1h3v-1h1zm1-2l1 1h-1v2l-1-1v-1h1v-1zm0 0zm2-2l1 1h-1l-1 1v1l-1-1v-1h1v-1h1zm3-1v1h-3 1v-1h2zm3 1v1h-1v-1h-2v-1h3v1zm0 0zm2 3v-1 1-1h-1v-1h-1v-1h1v1h1v1h1l-1 1zm1-1v1h-1v-1zm-1 0v1-1zm0 1l-1-1h1v1z"/>
      <path fill="#21231e" d="M481 213h-1c0-4-2-7-4-10 3 2 5 6 5 10z"/>
      <path fill="#edb92e" d="M494 198l-2 4c-1 1-4 0-6-2l-4-1a6 6 0 00-3 1c-3 2-5 3-7 2l-2-4h6l1-3a7 7 0 012-2h6l2 2 1 3h6z"/>
      <path fill="#21231e" d="M493 202l-1-1h1v-3l1 1v2h-1v1zm-8-1l1-1h1v1h2v1h2v-1h1v1l-1 1h-3v-1h-2v-1h-1zm1-1h1-1zm-4 0v-1h4v1h-4zm-3 1l-1-1h1v-1h3v1h-3zm-7 1v-1l1 1h3v-1h1v-1h1l1 1h-1l-1 1h-2v1h-3v-1zm-2-4v1-1 1h1v2h1v1h-1v-1h-1v-3zm0 1l-1-1h1v1zm3-1l-1 1h-2v-1h2zm3 0v1h-4v-1h3zm0 0v1-1zm1-3l1 1h-1v2h-1v-2h1zm2-2l1 1h-1v1h-1v1l-1-1v-1h1l1-1zm3 0v1h-2l-1-1h3zm3 0v1h-3v-1h3zm0 0zm2 2v1h-1v-1h-1v-2h1v1h1v1zm2 3h-2v-3 1h1v1h1zm-1 0zm4 0v1h-4v-1l1-1v1h3zm3 1l-1-1v1h-2v-1h2l1 1zm-1-1h1v1l-1-1zm0 0l1 1-1-1zm0 0h1v1l-1-1z"/>
      <path fill="#edb92e" d="M482 212c4 0 8 3 8 7s-4 8-8 8-8-3-8-8 4-7 8-7z"/>
      <path fill="#21231e" d="M483 213h1c0-4 2-7 4-10a15 15 0 00-5 10z"/>
      <use xlink:href="#b" width="1350" height="900" transform="matrix(-1 0 0 1 964 0)"/>
      <path fill="#edb92e" stroke="#21231e" d="M577 294c2 0 3 1 3 2 0 2-1 3-3 3a9 9 0 01-2 1c-60 5-125 5-186 0a9 9 0 01-2-1c-2 0-3-1-3-3 0-1 1-2 3-2a9 9 0 012-1c60-5 125-5 186 0l2 1z"/>
      <path fill="#21231e" d="M412 298v-1h10v-1h13v1h-10l-1 1h-3 15v2h-4l-1-1h-18l-1-1zm0 0zm47-3v1h-6l-1 1h-16v-1h9l1-1h13zm23 0v1h-23v-1h23zm24 0v1h-24v-1h24zm23 1v1h-19v-1h-5v-1h15l1 1h8zm23 1h1v1h-4v1h-19l-1 1v-2h13-4l-1-1h-8v-1h14v1h9zm0 1zm-116 0v2-2zm93 2l-1-1v-1h1v1zm-50-37v-1h3v1h-4zm0-1zm-2 0h2v1h-2v-1zm0 1zm0-1v1-1zm-1 0h1v1h-1v-1zm0 0zm-1 0h1v1h-1v-1zm0 1zm-1-1h1v1h-1v-1zm0 0zm0 0v1-1zm0 0zm-2 0h2v1h-2v-1zm-1 0h1v1h-1v-1zm0 0zm0 0v1-1zm-1 0h1v1h-1v-1zm-2 1v-1h2v1h-2zm0-1zm-1 0h1v1h-1v-1zm0 1zm0-1v1-1zm0 0zm-1 0h1v1h-1v-1zm0 1zm0-1v1-1zm0 0zm-1 0h1v1h-1v-1zm0 1zm-1-1h1v1h-1v-1zm0 0zm0 0v1-1zm0 1zm-1-1h1v1l-1 1v-1zm0 0v2-1zm-1 1h1v1h-1v-1zm0 0zm0 0v1-1zm0 1h-1 1zm-1-1h1v1h-1v-1zm-1 0h1v1h-1v-1zm0 0zm-1 0v1-1zm0 1zm-1-1h1v1h-1v-1zm0 0v1-1zm0 0zm0 0v1-1zm0 1zm-5 0v-1h4v1h-3zm1-1zm-1 0v1-1zm0 0zm-2 0h2v1h-2v-1zm0 1zm0-1v1-1zm0 0zm-1 0h1v1h-1v-1zm-1 0h1v1h-1v-1zm-1 0h1v1h-1v-1zm0 0zm0 0v1-1zm0 1zm-2-1h2v1h-2v-1zm0 1zm0-1v1-1zm0 0zm-1 0h1v1h-1v-1zm0 0zm0 0v1-1zm0 1zm-1-1h1v1h-1v-1zm-1 0h1v1h-1v-1zm0 0zm-1 0h1v1h-1v-1zm0 1zm0-1v1-1zm0 0zm-7 2v-1h2v-1h4v1h-5v1zm0 0zm0-1v1-1zm0 0zm-9 1v-1h9v1h-9zm0 0zm0-1v1-1zm0 0zm-1 0h1v1h-1v-1zm-18 2v-1h10l1-1h7v1h-8l-1 1h-9zm0 0zm0-1v1-1zm0 0zm0 0v1-1zm0 1zm-27 3v-1h1l1-1h10l1-1h11l1-1h2v1h-4l-1 1h-11l-1 1h-9l-1 1zm0 0zm0-7v1h-2l-1 1v3h2v1h1v1h-1l-1-1h-1l-1-1v-4h1v-1h2l1-1zm0 1zm27-4v1h-4l-1 1h-13v1h-9v-1h10l1-1h10l1-1h5zm0 1zm0 0v-1 1zm0-1zm37-2v1h-8l-2 1h-17l-1 1h-9v-1h10l1-1h17l1-1h7zm1 1h-1v-1h1v1zm0 0zm0 0v-1 1zm0-1zm0 1v-1 1zm1 0h-1v-1h1v1zm0 0zm0 0v-1 1zm0-1zm16 0v1h-16v-1h16zm1 1h-1v-1h1v1zm0 0zm0 0v-1 1zm0-1zm1 1h-1v-1h1v1zm0 0zm0 0v-1 1zm0 0zm0 0v-1 1zm0-1zm1 1h-1v-1h1v1zm1 0h-1v-1h1v1zm0-1zm0 1v-1 1zm1 0h-1v-1h1v1zm0 0zm1 0h-1v-1h1v1zm0-1zm0 1v-1 1zm3-1v1h-3v-1h3zm1 1h-1v-1l1-1v1zm0 0v-2 1zm0-2zm2 1h-2v-1h2v1zm3-1v1h-3v-1h3zm0 0zm0 1v-1 1zm0 0zm1 0h-1v-1h1v1zm4-1v1h-4v-1h4zm4 0v1h-4v-1h4zm1 1h-1v-1h1v1zm0 0zm0 0v-1 1zm0-1zm4 0v1h-4v-1h4zm1 1h-1v-1h1v1zm0-1zm0 1v-1 1zm1 0h-1v-1h1v1zm3-1v1h-3v-1h3zm1 1h-1v-1h1v1zm0-1zm0 1v-1 1zm0 0zm1 0h-1v-1h1v1zm0 0v-1h1v1zm0-1zm1 2h-1v-1h1v1zm1 0h-1v-1h1v1zm0-1zm0 1v-1 1zm0 0zm0 0v-1 1zm0 0zm2 0h-2v-1h2v1zm0-1zm0 1v-1 1zm0 0zm1 0h-1v-1h1v1zm15-1v1h-16v-1h16zm0 0zm0 1v-1 1zm0 0zm1 0h-1v-1h1v1zm0 0v-1h1v1zm0-1zm1 1h-1v-1h1v1zm0 0zm1 0h-1v-1h1v1zm37 1v1h-12l-1-1h-17l-1-1h-6v-1h9l1 1h16l1 1h10zm0 0zm0 1v-1 1zm0 0zm26 2v1h-2l-1-1h-9v-1h-12l-1-1h-1v-1h3l1 1h11l1 1h9l1 1zm0 1zm0 6v-1h2v-1h1v-1h1v-1l-1-1h-1v-1h-2v-1h2l1 1h1v2h1v1l-1 1v1h-1l-1 1h-2zm0 0zm-26-3v-1h4l1 1h11v1h10v2h-1l-1-1h-9l-1-1h-11l-1-1h-2zm0 0zm0-1v1-1zm0 0zm-1 0h1v1h-1v-1zm0 1zm-18-1v-1h9l1 1h8v1h-10l-1-1h-7zm0-1v1-1zm0 0zm-1 0h1v1h-1v-1zm0 1zm-9 0v-1h9v1h-5v-1h-4zm0-1zm0 0v1-1zm0 1zm-7-1v-1h7v1h-6zm1-1zm0 0v1-1zm0 1zm-2-1h2v1h-2v-1zm0 0zm-1 0h1v1h-1v-1zm-1 0h1v1h-1v-1zm0 1zm0-1v1-1zm0 0zm-1 0h1v1h-1v-1zm0 0zm0 0v1-1zm0 1zm-2-1h2v1h-2v-1zm0 1zm0-1v1-1zm0 0zm0 0v1-1zm-1 0h1v1h-1v-1zm-2 0h2v1h-2v-1zm0 0zm0 0v1-1zm0 1zm-2-1h2v1h-2v-1zm0 0zm0 0v1-1zm-4 1v-1h4v1h-4zm0 0zm0-1v1-1zm0 0zm-1 0h1v1h-1v-1zm-1 0h1v1h-1v-1zm0 1zm0-1v1-1zm0 0zm-1 0h1v1h-1v-1zm-1 0h1v1h-1v-1zm0 1zm0-1v1-1zm0 0h-1 1zm-1 0h1v1h-1v-1zm-1 0h1v1h-1v-1zm-1 0h2v1h-2v-1zm0 1zm0-1v1-1zm0 0zm-1 0h1v1h-1v-1zm0 1zm0-1v1-1zm0 0zm-1 0h1v1h-1v-1zm0 1zm-1-1h1v1h-1v-1zm0 0zm0 0v1-1zm0 1zm0-1v1-1zm0 0zm-3 0v-1h3v1h-3zm-1-1h1v1h-1v-1zm0 0v1-1zm0 0zm-1 0h1v1h-1v-1zm-1 0h1v1h-1v-1zm0 0zm-1 0h1v1h-1v-1zm0 0zm0 0v1-1zm0 1zm-1-1h1v1h-1v-1zm0 0zm-1 0h1v1h-1v-1zm-1 0h1v1h-1v-1zm0 1zm-1-1h1v1h-1v-1zm0 0zm-4 1v-1h4v1h-4zm1 2l-23 12v-1l22-12h1v1zm-1-1h1-1zm23 13l-23-12v-1l23 12v1zm0-1h1l-1 1v-1zm-23 11l23-11v1l-22 11h-1v-1zm1 1h-1 1zm-23-12l23 11-1 1-22-11v-1zm0 1l-1-1h1v1z"/>
      <path fill="#0c4076" d="M482 269c6 0 10 3 10 7s-4 7-10 7-10-3-10-7 5-7 10-7z"/>
      <path fill="#21231e" d="M493 276h-1v-2h-1v-1h-1v-1h-1v-1h-2v-1h-4v-1h4l1 1h2v1h1v1h1v1h1v3zm-11 7v-1h5l1-1h1l1-1h1v-2h1v-2h1v2l-1 1v1h-1v1h-1l-1 1h-2v1h-5zm-11-7h1v1h1v2h1v1h1v1h2v1h5v1h-4l-1-1h-1l-1-1h-1l-1-1v-1h-1v-3zm11-7v1h-5v1h-1l-1 1h-1v1h-1v3h-1v-2l1-1v-1h1v-1h2v-1h4v-1h2z"/>
      <path fill="#edb92e" d="M482 212c4 0 8 3 8 7s-4 8-8 8-8-3-8-8 4-7 8-7z"/>
      <path fill="#21231e" d="M490 219h-1v-3h-1v-1l-1-1h-1v-1h-2v-1h-2v-1h3v1h1l1 1h1v1h1v1l1 1v3zm-8 9v-1h2v-1h2v-1h1l1-1v-1l1-1v-3h1v3l-1 1v1h-1v1l-1 1h-1v1h-2v1h-2zm-8-9h1v3h1v2h1v1h1l1 1h2l1 1v1h-1l-1-1h-2v-1h-1l-1-1-1-1v-1l-1-1v-3zm8-8v1h-2v1h-2v1h-1v1l-1 1v1h-1v3h-1v-3h1v-2h1v-1l1-1h1v-1h2l1-1h1z"/>
      <path fill="#edb92e" d="M482 214c3 0 6 2 6 5 0 4-3 6-6 6s-5-2-5-6c0-3 2-5 5-5z"/>
      <path fill="#21231e" d="M488 219h-1v-3h-1v-1h-2l-1-1h-1v-1h2v1h2v1h1v1l1 1v3zm-6 7v-1h2v-1h1v-1h1v-1h1v-2h1v2l-1 1v1h-1v1h-2v1h-2zm-6-7h1v2l1 1v1h1v1h2v1h1v1h-2v-1h-1l-1-1h-1v-2h-1v-3zm6-6v1h-2v1h-1v1h-1v2h-1v1h-1v-2h1v-1l1-1 1-1h2v-1h1z"/>
      <path fill="#0c4076" d="M482 216c2 0 4 1 4 3s-2 4-4 4-3-2-3-4 1-3 3-3z"/>
      <path fill="#21231e" d="M486 219h-1v-1h-1v-1h-2v-1h2v1h1v1h1v1zm-4 5v-1h1v-1h1v-1h1v-2h1v2l-1 1h-1v1h-2zm-4-5h1v2h1v1h2v2h-1v-1h-1l-1-1v-1h-1v-2zm4-4v1h-1v1h-1v1h-1v1h-1v-1h1v-1l1-1h2z"/>
    </g>
    <path fill="#c6363c" d="M315 301v272c0 48 18 92 49 124a163 163 0 00118 52 163 163 0 00119-52c30-32 49-76 49-124V301H315z"/>
    <path fill="#fff" d="M313 300v277l1 5v9l1 4v5l1 4 1 4 1 5 1 4 1 4 1 4 1 4 2 4 1 5 2 4 1 4 2 4 2 3 2 4 2 4 2 3 2 4 2 4 3 3 2 4 2 3 3 4 3 3 2 3 3 3 3 3 2-2-3-3-3-3-2-3-3-3-3-3-2-4-2-3-3-4-2-3-2-4-2-3-2-4-2-4-2-4-1-3-2-4-2-4-1-4-2-4-1-4-1-5-1-4-1-4-1-4-1-5v-4l-1-4v-5l-1-4V303h333v274l-1 5v8l-1 5v4l-1 4-1 5-1 4-1 4-1 4-1 4-1 4-2 4-1 4-2 4-1 4-2 4-2 4-2 4-2 4-2 3-2 4-2 3-2 4-2 3-3 4-3 3-2 3-3 3-2 3-3 3-3 3-3 3-3 3-3 3-3 2-3 3-4 2-3 3-3 2-4 2-3 2-4 2-3 2-4 2-4 2-3 2-4 2-4 1-4 1-4 2-3 1-4 1-4 1-4 1-4 1-5 1h-4l-4 1h-4l-4 1h-9v2h13l5-1h4l4-1 4-1h4l4-1 4-1 4-2 4-1 4-1 4-2 4-1 4-2 4-1 3-2 4-2 4-2 3-2 4-3 3-2 3-2 4-3 3-2 3-3 3-2 3-3 3-3 3-3 3-3 3-3 3-3 3-3 2-3 3-4 2-3 3-4 2-3 2-4 2-3 2-4 3-4 2-3 1-4 2-4 2-4 1-4 2-4 1-4 1-4 1-5 2-4 1-4 1-4v-5l1-4v-5l1-4v-4l1-5V300z"/>
    <g fill="#fff" stroke="#21231e">
      <path d="M484 735c1 0 4 0 5-2 3-2 2-9 2-14l-4-128h-5a12 12 0 00-5 0l-3 128c-1 5-2 13 1 14 2 2 4 1 5 2h4z"/>
      <path d="M500 734c-2 0-4 1-6-1-3-1-3-9-3-14a6148 6148 0 00-8-128l5-1h1c9 59 13 101 19 127 1 3 3 12 0 15l-5 2h-3z"/>
      <path d="M518 731h-6c-2-1-2-9-4-14-6-25-10-67-19-127l5-1h0c15 58 20 99 31 124 1 3 4 12 2 16l-6 2h-3z"/>
      <path d="M537 726c-1 0-4 2-6 1-3-1-3-10-6-14-11-25-16-66-31-124l5-2 3-1c18 57 23 97 40 122 3 4 5 12 3 14-1 2-4 3-5 3l-3 1zm-72 8c1 0 4 1 6-1 2-1 3-9 3-14a7227 7227 0 017-128l-5-1a25 25 0 000 0c-10 59-14 101-20 127-1 3-3 12 0 15l6 2h3z"/>
      <path d="M446 731h6c3-1 3-9 4-14 6-25 10-67 20-127l-5-1h-1c-15 58-19 99-31 124-1 3-4 12-1 16l5 2h3z"/>
      <path d="M427 726c2 0 4 2 6 1 3-1 4-10 6-14 12-25 16-66 32-124l-5-2-3-1c-18 57-24 97-41 122-3 4-5 12-3 14l5 3 3 1zm100-43h-5c-3-1-5-9-6-14-12-23-23-65-41-123l4-1 5-2c19 58 28 99 46 122 3 4 6 12 4 15-1 2-3 2-4 2l-3 1z"/>
      <path d="M512 686l-6-1c-2-1-3-9-4-14l-26-126 4-1 5-1c15 59 18 103 32 125 3 5 4 13 2 15-1 2-3 2-5 2l-2 1z"/>
      <path d="M496 688l-5-1c-2-2-2-10-3-15l-11-128h9c8 59 12 103 18 127 1 5 2 13 0 15l-5 2h-3z"/>
      <path d="M437 683h6c2-2 4-9 6-14 12-24 23-66 40-124l-4-1-4-1c-20 58-28 99-47 122-3 4-5 12-4 15l5 2 2 1z"/>
      <path d="M452 686l6-1c2-1 3-9 4-14l26-126-4-1a12 12 0 00-4-1c-15 59-19 103-33 125-2 5-4 13-2 15 1 2 4 2 5 2l2 1z"/>
      <path d="M468 688l5-1c3-2 3-10 3-15l12-128h-9c-8 59-13 103-18 127-1 5-3 13-1 15l5 2h3z"/>
      <path d="M484 688l5-1c2-2 1-10 1-15l-3-128a14 14 0 00-5 0h-4c-2 60-2 103-4 128 0 5-1 13 2 15l5 1h2z"/>
      <path d="M517 648h-4c-3-1-4-9-5-14-10-23-18-65-32-123l4-1 3-1c15 57 21 99 36 121 2 4 4 12 3 15-1 2-3 2-4 2l-1 1z"/>
      <path d="M505 651c-1 0-3 1-4-1-2-1-3-9-4-14l-20-126 4-1h3c12 58 14 102 25 125 2 4 3 12 2 14l-4 3h-2z"/>
      <path d="M493 653l-4-1c-2-2-2-10-2-15l-9-127 3-1h4c6 59 10 103 14 127 0 5 2 13 0 15l-4 2h-2z"/>
      <path d="M448 648h4c2-1 4-9 5-14 9-23 17-65 31-123l-4-1-3-1c-15 57-21 99-36 121-2 4-4 12-3 15 1 2 3 2 4 2l2 1z"/>
      <path d="M459 651c1 0 3 1 4-1 3-1 3-9 4-14l20-126a8 8 0 00-3-1h-4c-11 58-14 102-25 125-2 4-3 12-1 14l3 3h2z"/>
      <path d="M471 653l4-1c2-2 2-10 3-15l9-127a10 10 0 00-4-1h-4l-13 127c-1 5-2 13-1 15l4 2h2z"/>
      <path d="M483 653l4-1c2-2 1-10 1-15l-2-128h-7l-3 128 1 15 4 1h2z"/>
      <path d="M475 559v14l-11 2c0 5 12 56 18 56s18-51 18-56l-10-2v0l-1-14-7 8-7-8z"/>
    </g>
    <g id="d">
      <path fill="#edb92e" stroke="#21231e" d="M412 585c-3 0-7 2-18 12-5 10-10 20-17 29l-6 3a84 84 0 01-17 0c-5-4-12-2-9 3-2 1 2 8 5 5 3-2 13 0 16-1-1 3-10 5-17 5-5 0-5 6-3 11h2c2 4 8 4 8 0s14-9 16-12l-11 17c-3 3-5 4-1 10 4 0 5-1 7 1 6 0 7-2 6-7s3-14 5-17c1-2 1-5 3-6 2-2 12-8 15-6 5 2 9 1 9-4-1-1 0-8-4-8-2-1-4 0-7 2-4 4-6 6-7 5-3-1 6-5 14-15 11-15 12-22 11-27z"/>
      <use xlink:href="#c" width="1350" height="900" transform="matrix(-1 0 0 1 802 0)"/>
      <path fill="#edb92e" stroke="#21231e" d="M345 635c-4-3-6-3-8-1-1 1-2 1-1-1 3-6 7-7 11-4l2 2c0 2-3 3-4 4zm58-6c4-3 8-4 10-2 1 1 3 0 1-1-4-7-9-7-13-3l-3 3 5 3zm-34 35s-1-5-3-7l-4 4c-4 4-4 11 3 17 1 1 2 0 1-2-1-3 1-6 3-12zm-16-13c-4 2-6 4-6 6s-1 2-1 1c-5-12 0-14 7-13v6z"/>
      <path fill="#21231e" d="M384 621l1 1v2l1 1h1l-1 1h-1v-1h-1v-3zm7 1l-1 1h-1v-1h-1v-1h-3v1l-1-1 1-1h3v1h1v1h1z"/>
      <path fill="#21231e" d="M387 618h1v2h1v1h1v2l-1-1h-1v-2h-1v-2h1zm7 0l-1 1h-1v-1h-1v-1h-2v1h-1v-1h1v-1h2v1h2v1h1z"/>
      <path fill="#21231e" d="M391 613h1v4h1l1 1-1 1v-1h-1v-1h-1v-4zm7 1l-1 1v-1h-1v-1h-1l-1-1h-1l-1 1h-1v-1h1v-1h3l1 1h1v1h1v1z"/>
      <path fill="#21231e" d="M395 608h1v4l1 1h1v1h-2v-2h-1v-1l-1-1v-2h1zm7 1l-1 1v-1h-1v-1h-1v-1h-3v1h-1v-1l1-1h1v-1h1v1h2v1h1v1h1v1h1z"/>
      <path fill="#21231e" d="M399 603h1v4h1v1h1v2h-1v-1h-1v-1h-1v-2h-1v-3h1v-1zm8 1l-1 1-1-1-1-1-1-1h-2v1h-1l-1-1h1v-1h4v1h1l1 1 1 1z"/>
      <path fill="#fff" stroke="#21231e" d="M463 581l-10-6c-4 3-7 14 0 22 9 11 12 19 14 28 6-8 8-16 5-25-6-11-9-17-9-20z"/>
      <path fill="#fff" stroke="#21231e" d="M470 573l-9-5c-4 3-13 13-6 22 9 10 18 19 20 27 6-8 8-16 5-24-6-11-10-17-10-20z"/>
      <path fill="#fff" stroke="#21231e" d="M449 569l-9-5c-4 3-7 13 0 22a65 65 0 0114 28c6-8 8-17 4-25-5-11-9-17-9-20z"/>
      <path fill="#fff" d="M406 469l-2 75c-1 8-4 13-8 17-4-5-6-12-6-20v-70c7-17 12-17 15-2z"/>
      <path fill="#21231e" d="M404 544h-1v-10l1-2v-35l1-3v-25h1v31l-1 4v31l-1 2v7zm-9 17l1-1v-1h1l1-1v-1h1v-1h1v-1l1-1v-1l1-1v-2l1-1v-5h1v5h-1v3l-1 1v1l-1 1v1h-1v1l-1 1v1h-1v1h-1v1h-1zm1 0h-1 1zm-7-19h1v4h1v5h1v3h1v2h1v2l1 1 1 1-1 1v-1h-1v-2h-1v-1l-1-1v-2l-1-1v-2l-1-1v-3l-1-1v-5zm1-71l1 1v20l-1 3v47h-1v-53l1-3v-15zm0 0zm16-2h-1v-1l-1-2v-1l-1-1v-2l-1-1v-1h-1v-1h-1l-1-1-1 1-1 1-1 1-1 1v1l-1 1v1l-1 1v1l-1 1v2l-1 2-1-1 1-1v-2l1-1 1-2v-1l1-1v-1l1-1 1-1v-1h1v-1h1l1-1h1l1 1h1v1h1v2l1 1v1l1 1v2l1 1v2zm0 0z"/>
      <path fill="#fff" d="M368 455l-3 79c0 7 9 49 14 58 12-6 15-34 12-62-2-28 1-52 3-57l-1-19-25 1z"/>
      <path fill="#21231e" d="M365 534l2-79h1l-2 79h-1zm1 0zm13 57v1h-1v-1l-1-1v-1l-1-2v-1l-1-2-1-2v-2l-1-2v-2l-1-2-1-2v-2l-1-3v-2l-1-2v-3l-1-2v-2l-1-2v-2l-1-2v-5l-1-1v-9h1v9l1 2v4l1 2v2l1 2v2l1 3v2l1 2v3l1 2v2l1 2v2l1 3 1 2v2l1 1v2l1 1 1 2v1l1 1v1h-1zm0 1h-1 1zm12-62h1v5l1 3v20l-1 3v6l-1 3v2l-1 2v2l-1 2v1l-1 2v2l-1 1-1 2-1 1-1 1-1 1-1 1-1 1-1 1h-1v-1h1l1-1h1l1-1 1-1v-1l1-2 1-1 1-2v-1l1-2v-2l1-1v-2l1-2v-4l1-3v-35zm2-57h1v3l-1 1v6l-1 2v12l-1 2v21l1 3v7h-1v-5l-1-2v-30l1-2v-8l1-1v-6l1-1v-2zm1 0v1-1zm-1-18v-1 7h1v12h-1v-13h-1v-6l1 1zm0-1zm-25 1h-1l1-1h25v1h-25zm-1 0v-1h1l-1 1zm1 0zm-1 0v-1h1l-1 1z"/>
      <path fill="#fff" d="M353 468l2 80c-1 7 11 48 16 56 13-10 10-50 8-62-4-24-3-52-2-56v-21l-24 3z"/>
      <path fill="#21231e" d="M354 548l-1-80h1l1 79h-1zm1 0zm16 56v1-1l-1-1v-1l-1-1v-1l-1-2-1-1-1-2v-2l-1-2v-2l-1-2-1-2v-3l-1-2-1-2v-2l-1-3-1-2v-2l-1-2v-3l-1-2-1-2v-4l-1-1v-3l-1-1v-3h1v1l1 1v6l1 2v2l1 2v2l1 2v3l1 2v2l1 2 1 3v2l1 2 1 3v2l1 2 1 2 1 2v2l1 1 1 2v2l1 1v1l1 1 1 1h-1zm0 1v-1h1zm8-63h1v4l1 2v33l-1 3v4l-1 2v2l-1 2-1 2v2l-1 1-1 2-1 1-1 2-1 1-1-1 1-1 1-1 1-2 1-1 1-1v-2l1-2 1-2v-2l1-2v-2l1-3v-14l1-2v-7l-1-2v-12l-1-1v-3zm-2-57h1v3l-1 1v28l1 2v9l1 2v7l1 2v3h-1l-1-3v-4l-1-3v-9l-1-2v-33l1-1v-2zm1 0zm-1-20v-1 4l1 1v16h-1v-11l-1-1v-8l1 1zm0-1v1zm-24 4v-1h8v-1h8l1-1h7v1h-8v1h-8l-1 1h-7zm0 0zm0-1v1-1zm0 1v-1 1z"/>
      <path fill="#fff" d="M342 487l21-1c-2 9 0 36 3 56 4 20 8 70-12 82-12-27-3-52-9-75-5-25-6-45-3-62z"/>
      <path fill="#21231e" d="M363 487h-21v-1h22l-1 1zm0-1h1-1zm4 56h-1v-1l-1-2v-2l-1-2v-9l-1-2v-10l-1-2v-24l1-1v-1h1v1l-1 1v24l1 2v8l1 2v6l1 2v7l1 2v2zm-13 82l1-1h-1l2-1 2-1 1-2 2-2 1-2 1-2 1-2 1-3 1-2v-3l1-3v-3l1-2v-6l1-3v-16l-1-3v-11l-1-3v-7l-1-2v-2h1v4l1 2v5l1 3v8l1 3v22l-1 3v3l-1 3v3l-1 2-1 3v3l-1 2-1 2-2 3-1 2-1 2-2 1-2 2-1 1h-1zm1 0h-1 1zm-10-75h1v2l1 2v4l1 3v39l1 2v3l1 2v5l1 2 1 3 1 2 1 3 1 2-1 1-1-3-1-2-1-3-1-3-1-2v-3l-1-2v-5l-1-2v-40l-1-2v-4l-1-2v-2zm0 0zm-3-63v1h1l-1 1v9l-1 2v16l1 2v10l1 2v7l1 2v4l1 2v3l1 2h-1l-1-2v-2l-1-3v-4l-1-2v-6l-1-3v-8l-1-2v-16l1-2v-10l1-2v-1zm0 1v-1 1zm0 0v-1 1zm0 0v-1 1z"/>
      <path fill="#fff" d="M422 454l-4 75c-1 8-4 14-8 17-4-5-6-12-6-20l3-70c7-17 12-17 15-2z"/>
      <path fill="#21231e" d="M419 529h-1v-16l1-3v-12l1-3v-15l1-3v-23h1v23l-1 3v15l-1 3v12l-1 3v14l-1 1v1zm-10 17l1-1h-1 1v-1h1v-1h1l1-1v-1h1v-1l1-1v-1l1-1v-2l1-1v-5h1v5l-1 1v2l-1 1v2h-1v1h-1v1h-1v1l-1 1-1 1-1 1h-1zm1 0h-1 1zm-7-20h2v8l1 1v3l1 1v2l1 1v1l1 1 1 1-1 1v-1h-1v-1l-1-1v-2h-1v-2l-1-1v-3l-1-1v-8zm4-70v1-1 21l-1 3v20l-1 3v23h-1v-21l1-2v-24l1-2v-21zm-1 0zm17-2h-1l-1-1v-2l-1-1v-1l-1-1v-2l-1-1v-1h-3l-1 1-1 1-1 1v1l-1 1v1l-1 1-1 1v2l-1 1-1 2-1-1 1-1 1-2v-1l1-1 1-1v-1l1-1 1-1v-1l1-1 1-1 1-1h3v1h1v1h1v1l1 1v2l1 1v3l1 1zm0 0zm-1 0h1-1zm1 0z"/>
      <path fill="#fff" d="M385 407l-1 63a51 51 0 007 22c4-3 8-8 8-16l1-56-12-10-3-3z"/>
      <path fill="#21231e" d="M385 470h-1v-63h1v63zm6 22v1h-1v-1l-1-1v-1l-1-1v-1l-1-1v-2h-1v-2l-1-1v-3l-1-1v-6h-1v-2h2v7l1 1v5h1v2l1 1v1l1 1v2h1v2h1-1zm0 1zm8-17h1v1l-1 1v4l-1 1v2l-1 1v1h-1v1l-1 1v1h-1v1h-1v1h-1l-1 1v-2h1l1-1 1-1 1-1v-1h1v-1l1-1v-1l1-1v-4h1v-3zm1-56h1v19l-1 2v35h-1v-27l1-2v-27zm0 0h1l-1-1zm-12-10v1l1-1v1h1v1h1v1h1v1h1v1h1v1h1v1h2v1h1l1 1h1v1h-2v-1h-1l-1-1-1-1h-1v-1h-1v-1h-1v-1h-1v-1h-1l-1-1v-1h-1v-1zm0 0h-1 1zm-3-3h-1 2v1h1v1h1v1-1 1h-1v-1h-2v-1h-1l1-1zm-1 0v-1l1 1h-1z"/>
      <path fill="#fff" d="M400 419v55a34 34 0 005 19c4-3 8-9 9-17l2-43c-5-2-12-10-16-14z"/>
      <path fill="#21231e" d="M400 474h-1v-55h1v55zm5 19h1-1l-1-1v-1l-1-1v-1l-1-1v-2l-1-1v-3l-1-1v-8h1v9h1v3h1v2l1 1v2l1 1v1l1 1h-1zm1 0l-1 1v-1h1zm8-17h1v2h-1v4l-1 1v2l-1 1v1h-1v2h-1v1l-1 1-1 1-1 1h-1v-1h1v-1h1v-1h1v-1l1-1 1-1v-1h1v-2h1v-3h1v-5zm2-42l1-1v15l-1 1v19l-1 1v7h-1v-5l1-1v-21l1-2v-14 1zm1-1zm-16-14h-1 1v1h1l1 1 1 1v1h1v1h1v1h1v1h1v1h1l1 1 1 1 1 1 1 1h1v1h2v2l-1-1h-1l-1-1h-1l-1-1-1-1-1-1-1-1-1-1h-1v-1h-1v-1h-1v-1h-1v-1h-1v-1h-1l-1-1-1-1h1zm-1 0v-1 1z"/>
      <path fill="#fff" d="M387 406l-14-21c-3 10-6 83-2 89a36 36 0 006 19c4-3 10-8 8-17-1-8 1-62 2-70z"/>
      <path fill="#21231e" d="M373 385l15 20-1 1-15-21h1zm-1 0l1-1v1h-1zm-1 89h-1v-2l-1-2v-9l-1-2v-21l1-3v-19l1-4v-10l1-3v-8l1-2v-3l1-1h1l-1 1v3l-1 2v8l-1 3v10l-1 4v54l1 2v2zm0-1v1-1zm6 20h-1v-2h-1v-2h-1v-1l-1-1v-2l-1-1v-2l-1-1v-4h-1v-3h1v2l1 1v4l1 1v3h1v2h1v2l1 1 1 1v1h1-1zm0 0v1-1zm8-17h1v7h-1v2l-1 1v1h-1v1l-1 1h-1v1l-1 1-1 1-1 1h-1v-1h1v-1h1l1-1 1-1 1-1v-1h1v-1l1-1v-2h1v-7zm2-70v-1l1 1-1 1v10l-1 2v17l-1 2v37l1 1h-1v-1l-1-1v-39l1-3v-18l1-1v-7l1-1v1zm0-1h1v1l-1-1zm0 0v1-1zm0 1z"/>
      <path fill="#fff" d="M358 451l-1 23c0 8 2 14 6 19 4-3 9-8 8-16-2-32 1-61 5-90l-12-7c-7 38-9 62-6 71z"/>
      <path fill="#21231e" d="M357 474h-1v-7l1-1v-15h1v18h-1v5zm5 19l1 1h-1v-1l-1-1v-1l-1-1v-1h-1v-3h-1v-4l-1-1v-7h1v7l1 1v3l1 1v2l1 1v2h1v1l1 1h-1zm1 1h-1 1zm7-17h1v7h-1v2l-1 1v1h-1v1l-1 1v1h-1v1h-1v1h-1l-1 1v-1l1-1 1-1 1-1v-1h1v-1h1v-1l1-1v-2h1v-7zm6-89l1-1v3l-1 3v5l-1 3v5l-1 3v5l-1 3v8l-1 3v14l-1 3v26l1 3v3h-1v-6l-1-3v-23l1-3v-14l1-3v-8l1-3v-5l1-3v-5l1-3v-6l1-2v-3 1zm1-1zm-12-7h-1v-1h1v1h1l1 1h1v1h1l1 1h2v1h1l1 1h1l1 1h1l-1 1h-1v-1h-1l-1-1h-1l-1-1h-1v-1h-2l-1-1h-1v-1h-1l-1-1zm-1 0v-1zm-6 71l-1-1v-4l-1-1v-9l1-1v-14l1-2v-5l1-3v-3l1-3v-5l1-4 1-3v-3l1-4v-3l1-4 1 1-1 3v4l-1 3v3l-1 4v3l-1 3v6l-1 2v6l-1 2v9l-1 2v18l1 1v2h-1zm0 0v1-1 1zm0 1v-1h1-1zm0-1l1-1v1h-1z"/>
      <path fill="#fff" d="M344 472l4 15c0 7 5 14 8 19 4-3 7-8 6-16-5-47-3-78 6-115-22 15-32 46-25 97z"/>
      <path fill="#21231e" d="M347 487l-4-15h1l4 14-1 1zm1-1zm8 19v1l-1-1v-1h-1v-1h-1v-1l-1-1v-1l-1-1v-1h-1v-2l-1-1v-1l-1-1v-2l-1-1v-4h1v4h1v3h1v2l1 1v2h1v1l1 1 1 1v1h1v1l1 1h-1zm0 1zm6-16h1v7l-1 1v2h-1v1l-1 1v1l-1 1-1 1-1 1h-1v-1h1v-1h1v-1h1v-1h1v-2h1v-1l1-1v-9zm7-115l-1-1 1 1-1 3-1 4-1 3v3l-1 4-1 3v3l-1 4v3l-1 3v7l-1 3v7l-1 3v29l1 4v12l1 4v4l1 4v5h-1v-4l-1-5v-4l-1-4v-12l-1-4v-25l1-3v-10l1-4v-6l1-4v-3l1-3 1-4v-3l1-3 1-4 1-3 1-4 1-3zm-1-1l1-1v1h-1zm-24 98h-1v-5l-1-4v-5l-1-4v-28l1-3v-4l1-3 1-3v-3l1-3 1-3 1-3 1-3 2-2 1-3 1-2 2-2 1-2 2-3 2-2 1-2 2-1 2-2 2-2 2-1 1 1-2 1-2 2-2 1-2 2-2 2-1 2-2 2-2 2-1 2-1 3-2 2-1 3-1 2-1 3-1 3-1 3-1 3v3l-1 3v4l-1 3v8l-1 3v12l1 5v4l1 5v4l1 5zm-1 0zm1 0zm-1 0z"/>
      <path fill="#fff" d="M345 486l-20-7c-3 21 1 46 7 80 4 29 2 51-2 66 22-3 31-31 20-83-3-14-6-32-5-56z"/>
      <path fill="#21231e" d="M325 479l20 7-1 1-20-7v-1h1zm-1 0h1-1zm8 79l-1 1-1-3v-4l-1-3v-3l-1-3v-2l-1-3v-6l-1-2v-6l-1-2v-5l-1-3v-9l-1-3v-17l1-2v-4l1 1v5l-1 2v15l1 3v9l1 2v5l1 3v5l1 3v3l1 3v6l1 3v2l1 3v3l1 4zm-2 66v1-5l1-1v-3l1-2v-5l1-2v-35l-1-3v-5l-1-2v-3h1v2l1 3v5l1 3v35l-1 2v7l-1 1v5l-1 2v1l-1-1zm0 1h-1 1zm19-83l1-1 1 5 1 5 1 5v4l1 4v4l1 4v15l-1 3v6l-1 3-1 3v2l-1 3-1 2-1 2-1 2-1 2-2 2-1 1-2 2-1 1-1 1-2 1-2 1h-2l-2 1h-2v-1h2l2-1h1l2-1 2-1 1-1 2-1 1-2 1-1 2-2 1-1 1-2 1-2 1-3 1-2v-2l1-3 1-3v-13l1-3v-4l-1-4v-8l-1-4v-4l-1-5-1-5-1-5zm-4-55v-1 19l1 2v11l1 1v7l1 1v3l1 2v4l1 2v3h-1v-2l-1-1v-6l-1-1v-5l-1-1v-7l-1-2v-15l-1-2v-13l1 1zm0-1z"/>
      <path fill="#21231e" d="M344 584h1v1h-1v-1zm-5-40h1l1 1v5l1 1v5l1 1v7l1 1v19h-1v-19l-1-1v-7l-1-1v-5l-1-1v-4l-1-1v-1zm-5-50h1v14l1 1v11l1 2v6l1 2v4l1 2v5l1 1v2h-1v-2l-1-1v-3l-1-2v-5l-1-1v-5l-1-1v-11l-1-2v-17zm1 0h-1v-1h1v1z"/>
      <path fill="#fff" d="M344 367l13 3-4 23c-5 24-9 53-5 84 2 12 4 21 8 29-15-2-24-16-23-41-3-29-1-52 3-70l8-28z"/>
      <path fill="#21231e" d="M357 370l-13-2v-1l13 2 1 1h-1zm0-1h1v1l-1-1zm-4 24h-1v-1h1v-6l1-1v-5l1-1v-4l1-1v-4h1v-1l1 1-1 1v3l-1 1v5l-1 1v5l-1 1v5h-1v1zm-4 84h-1l-1-3v-11l-1-3v-22l1-3v-11l1-2v-5l1-3v-5l1-2v-5l1-3v-2l1-2v-2h1v2l-1 2v3l-1 2v5l-1 2v5l-1 3v7l-1 3v16l-1 2v12l1 3v11l1 3v3zm7 29v-1l-1 1v-1l-1-1v-2l-1-1v-1l-1-1v-3h-1v-3l-1-1v-5l-1-1v-5l-1-1v-3h1v5l1 1v4l1 1v3l1 1v3l1 1v2l1 1v2l1 1v1l1 1v2zm0-1l1 1h-1v-1zm-24-40h1v9l1 2v5l1 2v2l1 2v1l1 2v1l1 1 1 2 1 1v1l1 1 1 1 1 1 1 1 1 1 1 1h1l1 1h2l1 1h2l2 1h1v1h-2l-1-1h-3l-1-1h-1l-1-1-1-1-1-1h-1l-1-1-1-1-1-1-1-2-1-1-1-1-1-1v-2l-1-1-1-2v-1l-1-2v-3l-1-2v-15zm1 0zm3-70l1 1-1 1v2l-1 2v5l-1 2v6l-1 2v14l-1 2v10l1 3v15l1 2v3h-1v-3l-1-2v-42l1-2v-6l1-2v-4l1-2v-1l1-2v-3zm8-28v1-1 2l-1 1v3l-1 1v3l-1 1v2l-1 1v3l-1 2v2l-1 1v2l-1 1v4l-1-1v-3l1-1v-3l1-1v-3l1-1v-2l1-1v-4l1-1v-2l1-1v-3l1-1v-1h1zm0 0zm0 0zm0 0z"/>
      <path fill="#fff" d="M336 370l6 8c-1 1 2 7 0 18-1 6-5 14-6 22-2 26-2 60 6 81-15-2-20-15-20-40-1-20-1-45 4-73 1-6 5-11 10-16z"/>
      <path fill="#21231e" d="M342 378l-6-7v-1l7 8h-1zm1-1v1-1zm0 19h-1v-13h-1v-5h1v-1l1 1v1h-1v4h1v10l-1 1v2zm0 0zm-6 22h-1v-4l1-1v-4l1-1v-2l1-1v-3h1v-3h1v-3h1v2l-1 1v3l-1 1v2l-1 1v2l-1 1v3l-1 1v4zm5 81v-1l-1 1v-2l-1-2-1-2v-3l-1-2v-2l-1-3v-2l-1-2v-5l-1-3v-16l-1-3v-11l1-2v-14l1-2v-5h1v2l-1 3v18l-1 3v11l1 3v13l1 2v5l1 3v2l1 3v2l1 2v2l1 3 1 2v2zm0 0zm-21-40h1v7l1 2v7l1 2v3l1 2v1l1 2v1l1 1v1l1 1v1l1 1 1 1 1 1v1l2 1h1l1 1 1 1h2l1 1h2v1h-2l-1-1h-2l-1-1h-1l-1-1-1-1h-1l-1-1-1-1-1-1v-1l-1-1-1-1v-1l-1-2v-1l-1-1v-2l-1-1v-3l-1-2v-6l-1-2v-9zm5-73l1 1-1 2v5l-1 3v5l-1 2v7l-1 3v14l-1 2v29h-1v-31l1-2v-12l1-2v-8l1-2v-5l1-3v-2l1-3v-3zm1 1zm9-17l-1 1h1l-1 1h-1v1l-1 1-1 1v1h-1v1h-1v2h-1v2h-1v3l-1 1v1h-1v-1l1-1v-3h1v-2l1-1v-1l1-1v-1l1-1v-1h1l1-1 1-1v-1h1v-1h1zm-1 0h1-1z"/>
      <path fill="#fff" d="M372 390l-13-2-5 27c-1 9 2 17 5 23 5-3 7-10 9-19l4-29z"/>
      <path fill="#21231e" d="M359 388l13 2v1l-13-2-1-1h1zm-1 0h1-1zm-4 27h-1l1-1v-6l1-1v-4l1-1v-5l1-1v-3l1-1v-4h1v4l-1 1v3l-1 1v5l-1 1v5h-1v7zm5 22v1h-1v-1l-1-1v-2h-1v-2l-1-1v-3l-1-1v-6h-1v-6h1v6l1 1v6l1 1v2l1 1v2l1 1v1h1v2-1zm0 1v1l-1-1h1zm9-19h1v1l-1 1v3l-1 1v3h-1v2l-1 1v2h-1v1l-1 1-1 1v1h-1l-1 1h-1v-1h1l1-1 1-1 1-1 1-1v-1h1v-2l1-1v-3l1-1v-2l1-1v-3zm4-28v-1h1v3l-1 1v8l-1 1v8h-1v6l-1 1v1h-1v-2l1-1v-4l1-1v-9l1-1v-7l1-1v-3 1zm0-1h1-1zm0 0v1-1zm0 1z"/>
      <path fill="#fff" d="M407 419h-12v22c0 7 2 14 5 19 4-3 7-9 8-17l-1-25z"/>
      <path fill="#21231e" d="M395 418h12v1h-12v-1zm0 1v-1 1zm0 22h-1v-17h1v-5h1v7l-1 1v14zm5 18v1l-1-1-1-1v-1l-1-1v-2h-1v-5h-1v-7l-1-1h1v1l1 1v6l1 1v3h1v2l1 1v1l1 1v1h1v1h-1zm0 1h1zm7-17h1v5l-1 1v3h-1v2l-1 1v1h-1v1h-1v1l-1 1-1 1h-1v-1h1v-1h1v-1h1v-1l1-1v-1l1-1v-2l1-1v-4h1v-2zm0-24v-1l1 1v25h-1v-25zm0-1h1v1l-1-1z"/>
      <path fill="#fff" d="M420 424l-12 1v22a37 37 0 007 19c3-3 6-9 7-17l-2-25z"/>
      <path fill="#21231e" d="M408 424h12v1h-12v-1zm0 1v-1 1zm1 22h-1v-22h1v22zm5 18l1 1h-1v-1h-1v-1l-1-1v-1l-1-1v-2h-1v-3l-1-1v-4l-1-1v-3h1v3l1 1v5h1v3h1v3h1v2h1v1h1-1zm1 1h-1 1zm6-17h1v4l-1 1v4h-1v1l-1 1v1l-1 1v1h-1v1h-1v1h-1v1l-1-1 1-1h1v-1h1v-2h1v-1l1-1v-2l1-1v-2l1-1v-4zm-1-25v1l1-1v16l1 1v8h-1v-9l-1-1v-12h-1v-3h1zm0 0zm0 1v-1 1z"/>
      <path fill="#fff" d="M395 412h-12l-2 22c0 7 1 14 4 19 4-3 8-8 9-16l1-25z"/>
      <path fill="#21231e" d="M383 411l12 1v1l-12-1v-1zm0 1v-1 1zm-2 22h-1v-3h1v-12l1-1v-7h1v8l-1 1v8l-1 1v5zm4 18v1h-1v-1l-1-1v-2l-1-1v-3h-1v-11h1v10l1 1v3h1v2l1 1v2zm0 1v1l-1-1h1zm8-16h1v3l-1 1v2l-1 1v2h-1v1h-1v2h-1v1l-1 1h-1v1h-1v1h-1v1l-1-1h1v-1h1v-1h1v-1h1v-1l1-1v-1h1v-2l1-1v-1l1-1v-4h1zm2-24v-1h1v2l-1 1v21l-1 1v1h-1v-1l1-1v-20l1-1v-3 1zm0-1h1-1z"/>
      <path fill="#fff" d="M384 400l-13-6c-2 9-5 38 0 50 4-3 9-8 10-17l3-27z"/>
      <path fill="#21231e" d="M371 394l13 5v1l-13-5-1-1h1zm-1 0h1-1zm1 50v1-1l-1-1v-1l-1-1v-3l-1-2v-11l-1-2v-5l1-2v-9l1-2v-6l1-1v-4h1v3l-1 2v5l-1 2v30l1 2v3l1 1v1l1 1h-1zm0 1zm10-18h1v1l-1 1v3l-1 1v2h-1v1l-1 1v1l-1 1-1 1v1h-1v1h-1v1l-1 1h-1v1h-1v-1l1-1 1-1 1-1h1v-1l1-1v-1h1v-1l1-1v-2h1v-2l1-1v-4zm3-27v-1 11l-1 1v10l-1 1v5h-1v-6l1-1v-10l1-1v-10l1 1zm0-1v1-1zm0 1zm0-1v1-1z"/>
      <path id="c" fill="#edb92e" stroke="#21231e" d="M388 701c8 7 15-8 8-27-5-15-31-9-17 10h2c-1-4 2-7 5-6 11 2 11 22 0 18-2 0-1 4 2 5z"/>
      <path fill="#edb92e" stroke="#21231e" d="M400 639c-1 4-5 8-8 11-4 5-3 12 0 16s5 9 6 13v16c0 4-2 6-5 7-1 1 1 3 5 6l2 3h2c0-2 2-3 2-3 4-3 5-5 4-6-2-1-4-4-5-7l1-16c1-4 2-9 6-13 3-4 4-11-1-16-3-3-7-7-8-11v-1l-1 1z"/>
      <path fill="#edb92e" d="M395 686h12c2 0 3 1 3 3s-1 4-3 4h-12c-2 0-3-2-3-4s1-3 3-3z"/>
      <path fill="#21231e" d="M407 686h-12v-1h12v1zm4 3h-1v-1h-1v-1h-1v-1h-1v-1h2v1h1v2h1v1zm-1 0h1-1zm-3 4v-1h1v-1h1v-2h1v3h-1l-1 1h-2zm-12-1h12v1h-12v-1zm-4-3h1v2h1l1 1h1v1h-2v-1h-1v-1h-1v-2zm1 0h-1 1zm3-4v1h-2v2h-1v1h-1v-2h1v-1h1l1-1h1z"/>
      <path fill="#fff" d="M417 579l1-11c-5-2-16 0-20 10a65 65 0 01-18 26c10 1 18-1 24-8l13-17z"/>
      <path fill="#21231e" d="M418 568v11h-1v-11h1zm0 0zm-20 11l-1-1 1-1v-1l1-1 1-1v-1l1-1h1v-1h1l1-1 1-1h1l1-1h2l1-1h7l1 1-1 1v-1h-7l-1 1h-2l-1 1h-1l-1 1-1 1v1h-1l-1 1-1 1v1l-1 1v1l-1 1zm-18 24v1-1l1-1h1v-1l1-1 1-1h1v-1l1-1 1-1v-1l1-1h1v-1l1-1v-1h1v-1l1-1v-1l1-1v-1l1-1v-1l1-1v-1l1-1 1-1v-1l1-1h1l-1 1-1 1v2l-1 1v1l-1 1v1l-1 1v1l-1 1-1 1v1l-1 1-1 1-1 1v1l-1 1-1 1v1h-1l-1 1v1h-1v1h-1l-1 1-1 1v1l-1-1zm0 1h-1l1-1v1zm23-8l1 1h-1v1h-1v1l-1 1h-1v1h-1l-1 1h-1l-1 1h-1l-1 1h-3l-1 1h-9v-1h-1v-1h1l1 1h8l1-1h3v-1h3v-1h2v-1h1v-1h1v-1h1l1-1v-1zm14-17h1l-1 1h-1v1l-1 1-1 1-1 1v1l-1 1v1h-1v1l-1 1-1 1v1h-1l-1 1v1l-1 1v1l-1 1h-2l1-1 1-1v-1l1-1 1-1 1-1v-1h1v-1l1-1v-1h1v-1h1v-1l1-1v-1h1v-1h1v-1h1v-1h1zm1 0v1h-1l1-1z"/>
      <path fill="#fff" d="M425 581l-12-5-9 20c-3 7-4 14-2 19a22 22 0 0014-11l9-23z"/>
      <path fill="#21231e" d="M414 575l11 5v1l-12-5v-1zm-1 0h1-1zm-9 21h-1v-1h1v-2l1-1v-1l1-1v-1l1-1v-2l1-1 1-1v-2l1-1v-1l1-1v-1l1-1v-2l1 1v1l-1 1v1h-1v2l-1 1v1h-1v2l-1 1v2h-1v1l-1 1v2h-1v2h-1v2zm-2 19v1l-1-1v-13h1v-4l1-1v-2l1 1v1l-1 1v3l-1 1v6h-1v4h1v3h-1zm0 1h-1v-1l1 1zm13-13l1 1v1h-1v1l-1 1-1 1v1l-1 1-1 1h-1v1h-1v1h-1l-1 1h-1l-1 1h-2l-1 1v-1l1-1h2v-1h2v-1h1l1-1h1v-1h1v-1l1-1 1-1v-1h1v-2h1v-1zm10-22v-1l1 1-1 1v1l-1 1v2l-1 1v1l-1 1v2l-1 1v2l-1 1v1l-1 1v2l-1 1v1l-1 1v1h-1v1l-1-1h1v-2h1v-1l1-1v-2l1-1v-2l1-1v-2l1-1v-1l1-1v-2l1-1v-2h1v-2l1-1v1zm0-1h1v1l-1-1z"/>
      <path fill="#fff" d="M429 581l-13-2-4 22c-1 7 0 14 2 19 5-2 9-7 11-15l4-24z"/>
      <path fill="#21231e" d="M416 578l13 2v1l-13-2h-1l1-1zm-1 1v-1h1l-1 1zm-3 22h-1v-3l1-1v-4l1-1v-4l1-1v-4l1-1v-4l1 1v4l-1 1v4l-1 1v3l-1 1v5l-1 1v2zm2 19h1-1l-1-1v-2h-1v-5l-1-1v-11h1v11l1 1v4h1v2l1 1v1h-1zm1 0l-1 1v-1h1zm10-15h1l-1 1v3l-1 1v1h-1v1l-1 1v1l-1 1-1 1-1 1v1h-1l-1 1h-1v1h-2v-1h2v-1h1l1-1 1-1h1v-1l1-1v-1l1-1v-1l1-1v-1h1v-3l1-1zm4-25v5h-1v10l-1 1v6h-1v3h-1v-4h1v-8l1-1v-8l1-1v-3h1zm-1 0h1l-1 1zm1 1v-1 1z"/>
      <path fill="#fff" d="M430 563h8c4 2 9 13 4 22a66 66 0 00-10 30c-7-7-11-15-8-24 3-11 7-25 6-28z"/>
      <path fill="#21231e" d="M438 564h-8v-1h8v1zm0-1zm4 23l-1-1 1-1v-2l1-1v-2l1-1v-4l-1-1v-3l-1-1v-1l-1-1v-1h-1v-1h-1v-1h-1v-1h1l1 1 1 1 1 1v1l1 1v2l1 1v10l-1 1v2l-1 1v1zm-10 29l1-1-1 1v-7l1-1v-4l1-1v-3l1-1v-1l1-1v-2l1-1v-1l1-1v-1l1-1v-1l1-1v-1l1-1 1 1-1 1-1 1v1l-1 1v1l-1 1v1l-1 1v1l-1 1v2l-1 1v2l-1 1v3h-1v5l-1 1v4h-1zm1 0v1l-1-1h1zm-10-24l2 1h-1v10l1 1v1l1 1v1l1 1v2h1v1l1 1 1 1 1 1 1 1v1h-1l-1-1v-1h-1l-1-1v-1l-1-1-1-1v-1h-1v-2l-1-1v-1l-1-1v-3l-1-1v-5l1-1v-2zm8-28v1-1 4h-1v5l-1 1v4l-1 1v4l-1 1v2l-1 1v2l-1 1v3l-1-1v-2l1-1v-1l1-1v-2l1-1v-3l1-1v-4l1-1v-4h1v-6l1-1zm-1 1v-1 1zm0 0v-1zm0 0v-1 1z"/>
      <path fill="#fff" d="M434 558l-12-4-9 20c-2 8-2 14-1 20a21 21 0 0014-12c4-7 5-16 8-24z"/>
      <path fill="#21231e" d="M422 553l12 5v1l-12-5h-1l1-1zm-1 1l1-1-1 1zm-7 21l-1-1v-2h1v-2l1-1v-1l1-1v-2l1-1v-1l1-1v-1l1-1v-2l1-1v-1l1-1v-1h1v1l-1 1v2l-1 1-1 1v2l-1 1v1l-1 1v2l-1 1v2l-1 1v2l-1 1v1zm-2 19v1-2h-1v-13l1-1v-3l1-1h1v1h-1v4l-1 1v11l1 1v1h-1zm0 1v-1 1zm14-13l1 1-1 1v1l-1 1-1 1v1h-1v1h-1v1h-1l-1 1-1 1h-1v1h-2l-1 1h-2v1l-1-1h1l1-1h1l1-1h1l1-1h1v-1h1l1-1v-1h1l1-1v-1h1v-1h1v-2l1-1zm8-23v-1 2l-1 1v3l-1 1v3h-1v4l-1 1v3l-1 1v2l-1 1v1l-1 1v1l-1-1h1v-2h1v-3h1v-4l1-1v-2l1-1v-3l1-1v-3l1-1v-1l1-1v-1 1zm0-1zm0 0v1-1zm0 0z"/>
      <path fill="#fff" d="M426 550l-3-17c-3 0-6 6-10 10l-3 3a23 23 0 00-3 8 62 62 0 01-13 27c10 0 18-4 22-12l10-19z"/>
      <path fill="#21231e" d="M423 533l3 17h-1l-2-17h1zm0 0zm-10 10v-2h1v-1h1v-1l1-1 1-1v-1h1v-1h1v-1h2v-1h2v1h-2v1h-1v1h-1v1h-1v1h-1v1l-1 1v1h-1v1h-1v1h-1v1zm-2 3l-1-1v-1h1v-1h1v-1l1 1v1h-1v1h-1v1zm-3 8l-1-1v-3h1v-2l1-1v-1h1v-1l1 1h-1v2h-1v2h-1v4zm-14 27v1-2l1-1 1-1v-1l1-1 1-1v-1h1v-1l1-1v-1l1-1v-1l1-1v-1l1-1v-2l1-1v-2l1-1v-2l1-1v-4h1v2l-1 2v2l-1 1v2l-1 1v2l-1 1v1l-1 1v2h-1v1l-1 1v1h-1v2l-1 1h-1v1l-1 1v1h-1v1l-1 1zm0 1h-1l1-1zm21-13h2l-1 1v1h-1v1l-1 1-1 1v1h-1v1h-1v1h-2v1h-1l-1 1h-1l-1 1h-3l-1 1h-7v-1h7l1-1h3v-1h2v-1h2v-1h1l1-1 1-1 1-1 1-1 1-1v-1l1-1zm10-19h1v1h-1v1h-1v2l-1 1v1l-1 1v2h-1v2l-1 1v1l-1 1v1l-1 1v1l-1 1v1h-1v-1l1-1v-1l1-1v-1l1-1v-2l1-1 1-1v-2h1v-2h1v-2h1v-1l1-1v-1l1-1v1zm1 0z"/>
    </g>
    <use xlink:href="#d" width="1350" height="900" transform="matrix(-1 0 0 1 964 0)"/>
    <path fill="#fff" stroke="#21231e" d="M536 415a38 38 0 005-1 66 66 0 01-21-22c-8-12 3-33 8-45a53 53 0 0021-31c1-7-19-5-33 2-17 8-19 6-25 7-3 11 2 12 6 11-9 15-13 30-15 52-2-22-6-37-15-52 4 1 9 0 7-11-6-1-9 1-26-7-14-6-34-9-33-2 3 14 12 24 22 31 4 12 15 33 8 45a67 67 0 01-22 22l5 1c-1 2-11 5-12 4-8-6-15-18-22-25-18-21-27-37-24-50 5-14 21-30 0-27-22 3-40 32-46 68l-4 34c11-5 17-9 20-14l-3 14c9-1 16-6 19-15l3-9h12l22 30c8 12 20 22 24 22 2 1 3-4 3-10h126c-1 6 0 11 2 10 4 0 16-10 24-22l22-30a20 20 0 0012 0l3 9c3 9 10 14 19 15l-3-14c3 5 9 10 20 14l-4-33c-6-36-24-66-46-69-21-2-5 13-1 27 4 13-5 29-24 50-6 7-13 20-21 25-1 1-11-2-12-4z"/>
    <g id="e">
      <path fill="#edb92e" d="M441 357c-2 2-9 2-18 2-15 1-24-4-26-13 6 6 13 10 20 8 10-3 16-5 18-4 2 0 4 3 6 7z"/>
      <path fill="#21231e" d="M423 360v-1h1l1-1h13l1-1h2v1h-2l-1 1h-9l-1 1h-5zm0 0zm-25-15l-1 1h1v2l1 1v1h1v2h1v1l1 1h1l1 1 1 1h2l1 1h2l1 1h12v1h-12l-1-1h-2l-1-1h-2l-1-1h-1l-1-1-1-1-1-1-1-1v-1l-1-1v-2h-1v-2l1-1zm19 8v1h-1v1h-6l-1-1h-2l-1-1h-2v-1h-2v-1h-1v-1h-1l-1-1v-1h-1v-1h-1v-2l1 1v1h1l1 1 1 1 1 1 1 1h1l1 1h1l1 1h3l1 1h4l1-1h1zm18-4v1h-2l-1 1h-4l-1 1h-3l-1 1h-3l-1 1h-2v-1h3v-1h4v-1h4l1-1h4v-1h2zm0 0zm6 8l-1-1v1-1l-1-1v-1h-1v-2h-1v-1h-1v-1h1v1h1v1h1v1h1v2h1v2zm0 0v-1zm-22-36v2-2zm16 4l-1 1h-3v-1h-2l-1-1h-3v-1h-5v-2h5l1 1h2v1h3l1 1h3v1h1zm9 3v1h-4v-1h-3v-1h-3l1-2 1 1h2v1h3l1 1h2zm0 1v-1 1zm23 8v-2 1h1-1zm-10-2v-2h1v1h5v1h4v2h-1v-1h-5l-1-1h-3zm0-2v2-1h1z"/>
      <path fill="#21231e" d="M432 332l-1 1h-1l-1-1-1-1h-1v-1h-1v-2h-1v-1h-1v-2h-1v-2h-1l2-1v1h1v2h1v2h1v1l1 1v1h1l1 1 1 1zm7-5h2l-1 1v1l-1 1-1 1v1h-1l-1 1h-2v1h-2l-1-1 1-1h3v-1h1v-1h1v-1h1v-1l1-1v-1z"/>
      <path fill="#21231e" d="M430 331l-3-2c-1-2 0-3 2-6l5 2-4 6zm-7 82v1-1zm24-4l1 1-1 1-1 1-1 1h-2v1h-2l-1 1h-2l-1 1h-8l-1-1h-4v-1h-1v-1h2l1 1h3l1 1h8v-1h3v-1h2v-1h1l1-1 1-1h1v-1zm3-2h1v1h-1v1h-1v1h-1l-1-1h1v-1h1v-1h1zm1 0h-1v-1h1v1z"/>
      <path fill="#21231e" d="M452 401h-1 1zm-5 16v1h-1l1-1v-2l1-1v-2h1v-4h1v-5h1v-2l1 1v3h-1v4l-1 1v3l-1 1v2h-1v3l-1-1zm-1 1h1-1zm16-10l1 1h-1v1h-1v1l-1 1h-1v1h-1l-1 1-1 1h-1l-1 1h-2v1h-2l-1 1h-2v-1h1l1-1h2l1-1h2v-1h1v-1h1l1-1 1-1h1v-1h1v-1l1-1zm1 1l-1-1h1v1z"/>
      <path fill="#21231e" d="M461 400h-1 1zm5 16v1l-1-1v-1h-1v-1l-1-1v-2l-1-1v-3l-1-1v-4l-1-1v-1h1v1h1v6h1v3h1v2h1v2h1v1h1-1zm0 1l1-1v1h-1zm7-13h1v3l-1 1v2h-1v1l-1 1v1h-1v1l-1 1h-1v1h-1v1l-1-1 1-1 1-1 1-1v-1h1v-1l1-1v-1l1-1v-1l1-1v-2zm1 0h-1 1z"/>
      <path fill="#edb92e" d="M406 318c-17 2-16 12 0 28 3 3 4 3 4 0 1-6 7-9 10-5 2 3 2 5 9 4 9 7 16 12 5 12-5 0-9 3-16 2l3 5c7 1 14-3 20-2 14 3-23-38-22-40 1-4-9-11-13-4z"/>
      <path fill="#21231e" d="M406 346h-1l-1-1-2-2-1-1-1-1-1-2-1-1-1-1-1-2v-1l-1-1v-1l-1-1v-1l-1-1v-4l1-1v-2h1l1-1v-1h1l1-1h1l1-1h4l2-1v1l-2 1h-3l-1 1h-1l-1 1h-1l-1 1-1 1v1h-1v6l1 1v1l1 1v1l1 1 1 1 1 2 1 1 1 1 1 1 1 2 1 1 2 2zm4 0h1v1h-1v1h-3l-1-1-1-1h2v1h1v1h1v-1l1-1zm11-5h-2v-1h-4l-1 1h-1v1h-1v2h-1v2l-1-1v-1h1v-2h1v-1h1v-1h1v-1h5v1h1v1h1zm8 3v1h-6l-1-1v-1h-1v-1h-1v-1h1v1h1v1h2v1h5zm0 0zm5 13v-1h5v-2l-1-1h-1v-1l-1-1h-1v-1h-1v-1l-1-1-1-1h-1v-1l-1-1h-1l1-1v1h1l1 1 1 1 1 1h1l1 1v1h1l1 1 1 1v1h1v3l-1 1h-5zm-16 2h-1 4l1-1h4v-1h5v-1h3v1h-3v1h-4l-1 1h-5v1h-3v-1zm-1 0h1-1zm4 4v1h-1v-1h-1v-1h-1v-2h-1l1-1v1h1v1l1 1v1h1v1zm0 1zm20-2v1h-10v1h-10v-1h10l1-1h9zm-23-40h1l1 1 1 1v1l1 1 1 2 1 1 2 2 1 1 1 2 2 2 1 2 2 2 1 1 2 3 1 2 1 1 2 2 1 2 1 2 1 1 1 2v1l1 1v4h-1v1h-3v-1h2v-1h1v-1l-1-1v-1l-1-2v-1l-1-2-1-2-1-1-2-2-1-2-2-2-1-2-1-2-2-2-1-2-2-1-1-2-1-2-1-1-1-2-2-1-1-1v-1l-1-1v-1h-1v-1zm-12-4v-2l1-1h1v-1h5l1 1h1v1h1l1 1h1v2h1v3l-1-1v-2h-1v-1h-1v-1h-1v-1h-2l-1-1h-4v1h-1v1h-1v1zm1 0h-1 1zm-1 0zm0 0z"/>
      <path fill="#21231e" d="M407 317l-1 1v-1h1zm8 11l-1 1-1-1v-1h-1l-1-1-1-1-1-1v-1h-1v-2h-1v-2h-1v-1h1l1 1v2h1v1l1 1v1h1v1h1v1h1v1l1 1zm-1 1l1-1v1h-1zm-10-5l2 2-2 1-1-2 1-1zm-46 39h1v-1 1h-1zm-22 56v-4l1-2v-2l1-1v-2l1-2v-2l1-2 1-3v-2l1-2 1-2 1-2 1-3 1-2 1-2v-2l1-2 1-2 1-2 1-2 1-2 1-1 1-2v-2l1-1 1-1 1-1 1-1h1v1l-1 1-1 1-1 1-1 1v2l-1 1-1 2-1 2-1 2-1 1-1 2-1 2v3l-1 2-1 2-1 2-1 3-1 2v2l-1 2-1 2v2l-1 2v2l-1 2v2l-1 2v3l-1 1v1h-1zm5 80v-2l-1-2-1-2v-2l-1-3v-2l-1-2v-3l-1-2v-5l-1-3v-13l-1-3v-18l1-3v-13l1-2h1l-1 2v16l-1 3v18l1 3v8l1 2v8l1 2v3l1 2v2l1 3v2l1 2v2l1 2h-1zm1 0h1z"/>
    </g>
    <use xlink:href="#e" width="1350" height="900" transform="matrix(-1 0 0 1 964 0)"/>
    <path fill="#21231e" d="M473 398v8l1 1v1l1 1v2l1 1v2h1v2h1v1h1v2h1v1l1 1h2l1-1v-1l1-1 1-1v-1h1v-2l1-1v-1l1-1v-1l1-1v-2l1-1v-5h1v-2h-1l-1 1v5l-1 1v2l-1 1v2l-1 1v1l-1 1v1l-1 1-1 1v1l-1 1-1 1v-1h-1v-1l-1-1v-1h-1v-2h-1v-1l-1-1v-2h-1v-2l-1-1v-4l-1-1v-4h-1z"/>
    <path fill="#c6363c" d="M549 422v109a72 72 0 01-19 49 65 65 0 01-95 0 73 73 0 01-20-49V422h134z"/>
    <use xlink:href="#f" width="1350" height="900" transform="matrix(-1 0 0 1 964 -90)"/>
    <path fill="#fff" stroke="#21231e" d="M549 489v28h-53v83a64 64 0 01-14 1 59 59 0 01-14-1v-83h-53v-28h53v-67h28v67h53z"/>
    <use xlink:href="#f" width="1350" height="900" transform="translate(0 -90)"/>
    <path id="f" fill="#fff" stroke="#21231e" d="M459 567v-39c-8-2-29-11-30 8-1 8 10 14 13 6 1-3 0-6-2-7-2 0-5 1-4 4-9-5 8-15 16-2 2 4-4 8-4 11 0 2 6 7 4 10-8 13-25 3-16-2-1 3 2 5 4 4s3-3 2-7c-3-7-14-2-13 7 1 18 22 10 30 7z"/>
    <use xlink:href="#f" width="1350" height="900" transform="matrix(-1 0 0 1 964 0)"/>
    <path fill="#21231e" d="M414 421v117l1 2v5l1 2v1l1 2v2l1 1v2l1 2 1 1v2l1 2 1 1 1 2v1l2 2v1l1 2 1 1 1 1 1 2 1 1 1 2 1 1 1 1 2 1 1 1 1 2 1 1 1 1 1 1 2 1 1 1 1 1 2 1 1 1 2 1 1 1h2l1 1 2 1h1l2 1 1 1h2l1 1h2l1 1h2l2 1h5l2 1h14l1-1h4l1-1h4l1-1h2l1-1 2-1h2l1-1 2-1h1l2-1 1-1 2-1 1-1 2-1 1-1 1-1 2-1 1-1 1-1 1-1 1-1 1-1 2-2 1-1 1-1 1-1 1-2 1-1 1-1 1-2 1-1 1-1 1-2 1-1 1-2v-1l1-2 1-2v-1l1-2 1-1v-2l1-2v-2l1-1v-4l1-2v-4l1-2V421H414zm2 2h132v116l-1 2v4l-1 1v4l-1 1v2l-1 1v2l-1 2-1 1v2l-1 1-1 2v1l-1 2-1 1-1 1-1 2-1 1-1 1-1 2-1 1-1 1-1 1-1 2-1 1-1 1-2 1-1 1-1 1-1 1-2 1-1 1-1 1-2 1-1 1h-2l-1 1-1 1-2 1h-1l-2 1-1 1h-2l-1 1h-2l-1 1h-2l-2 1h-3l-2 1h-16l-2-1h-3l-2-1h-3l-1-1h-2l-1-1-2-1h-1l-2-1-1-1h-2l-1-1-1-1-2-1-1-1-1-1-2-1-1-1-1-1-1-1-2-1-1-1-1-1-1-1-1-1-1-1-1-2-1-1-1-1-1-2-1-1-1-1-1-2-1-1-1-2v-1l-1-2-1-1-1-2v-1l-1-2v-1l-1-2v-1l-1-2v-2l-1-1v-4l-1-2v-10z"/>
  </g>
</svg>
