<svg xmlns="http://www.w3.org/2000/svg" id="flag-icons-sa" viewBox="0 0 640 480">
  <defs>
    <clipPath id="a">
      <path d="M-85 0h682v512H-85z"/>
    </clipPath>
  </defs>
  <g fill-rule="evenodd" clip-path="url(#a)" transform="translate(80) scale(.9375)">
    <path fill="#165d31" d="M-128 0h768v512h-768z"/>
    <path fill="#fff" d="M66 145c-1 12-2 33 8 35 12 2 5-20 10-24 1-2 2-2 2 0v19c0 6 4 7 7 9 3-1 6 0 7 3l1 32s8 2 8-18c0-12-2-22-1-24 0-3 3-3 5-2 4 3 5 5 10 4 8-2 12-5 12-11a47 47 0 00-3-17c0-1-2-4-1-5 1 3 3 2 4 0-2-4-4-8-7-10s-7-2-8 3c-1 6 2 13 6 18l2 9c-2 2-5 1-7-1l-6-5c2-11 1-12 0-15l-4-8h-5c-2 5-1 15 1 19l2 7c0 2-2 2-3-1a67 67 0 01-3-17c0-5-1-15-4-17-2-3-4-1-5 1a82 82 0 000 13l4 22c0 10-6 4-6-1a45 45 0 000-19c-1-3-2-4-5-3-1 0-6 5-8 14l-1 9c-1 4-4 8-6-1-2-6-3-21-6-18z"/>
    <path fill="#fff" d="M99 194l-32 16c0-8 15-21 25-21 7 0 5 3 7 5z"/>
    <path fill="#fff" d="M93 204c-17 44 40 50 46 2 1-2 3-4 3-1-1 44-43 47-50 33a42 42 0 01-3-15c-1-8-5-5-6 4v10c2 34 56 20 65-9 5-15-1-27 2-27 5 6 13 1 14-1 1-1 3-2 4 0 4 3 12 1 13-4l2-16c-3 1-6 1-6 3l-1 5c0 1-3 1-3-1-2-6-7-7-10 3-2 1-6 2-7-1 1-6-2-7-7-4l-5-36c2 0 4 1 6-1-2-7-6-20-9-21h-3c-3 1-5 3-5 8l9 52c0 2-2 5-4 4-4-3-5-8-12-8-5 0-11 6-11 11-1 4-2 9 0 12 3 4 7 4 11 3l7-4c0 1 0 11-15 19-8 4-15 5-19-2-2-5 0-22-6-18z"/>
    <path fill="#fff" d="M165 160c3-1 19-20 19-20l-2-2v-2c4-2 3-7 1-10a10 10 0 00-9 1c-3 2-3 7-1 9 2 1 4 3 3 5-7 7-25 19-23 19h12zm-97 65c-6 10-6 24-3 28 2 2 4 3 7 2s5-9 4-12c-1-2-2-2-3 0-3 5-4 1-4-2a70 70 0 010-15c1-4 0-3-1-1zm257-15l-16-30a558 558 0 00-25-36c-6-7 10 3-2-12l-9-7c-2-2-7-4-8 0l1 9c0 2 3 5 5 7a565 565 0 0154 87c2-1 2-16 0-18z"/>
    <path fill="#fff" d="M300 252c-2 1 2 6 8 6 8-1 16-5 23-18a33 33 0 005-14 317 317 0 00-6-73l1-5c0-1 2 0 3-2 2-1-4-14-7-18-1-2-1-4-3 0a27 27 0 00-3 14c4 28 5 53 8 81 0 3 0 7-2 9a80 80 0 01-27 20zm116-1c-6 4-6 8-1 8 9-1 19-2 26-12a41 41 0 004-16 303 303 0 00-5-72l-1-7 5-1c1-2-7-13-11-18-1-2-1-3-3 0a22 22 0 00-2 14c5 31 8 54 9 82 0 2 0 4-2 7s-5 8-8 10l-11 5z"/>
    <path fill="#fff" d="M421 224v-19a34 34 0 00-3-14c-2-4-1-7-2-12l-2-16-1-9c1-1 2 0 3-2 2-1-5-17-8-22-1-2-3-2-6 2-2 2-1 7 0 12 6 32 11 62 10 92-1 3 9-7 9-12zm-46-40c-4-1-12-8-14-12a8 8 0 010-7c2-1 4-2 5-1l2 3c2 1 3 0 3-1l-1-4c1-4 6-5 8-2 2 2 2 6 2 8h-3l-1 3-1 13zm-72 48v-33a477 477 0 00-4-45c-1-8 3 1 3-4-2-8-6-14-12-21-2-3-2-3-4 0-3 7-1 11 0 17 4 17 6 33 7 48a393 393 0 011 50c3 0 7-5 9-12z"/>
    <path fill="#fff" d="M434 216c-7-12-17-24-20-29a658 658 0 00-29-37c-9-9 4-2-2-9l-10-10c-2-1-3-4-4 1a83 83 0 000 11l3 7c21 25 44 51 62 84 2-1 2-16 0-18z"/>
    <path fill="#1ba400" d="M123 195l-2 3 3 1h3l1-4c-2-3-5-1-5 0z"/>
    <path fill="#fff" d="M354 363l23 1 10-1c11-1 11 15 11 15 0 10-4 10-8 11-3 0-4-2-6-4a14 14 0 01-7 1l-11-1h-11c0 2-2 3-4 3s-4-6-4-10l1-4c-37-1-75-3-112-2l-86 2c-15 0-27-2-35-14 1 0 39 2 50 1l61-2 123 3c-4-2-4-8 2-10l2 3c4 0 2 6 1 7zM189 135c-7 18 3 38 10 36 5 2 8-8 10-18 2-3 3-3 3-1 0 13 1 16 5 20 7 6 14 1 14 1l7-6c1-2 3-2 5-1 1 2 1 5 5 7 4 1 11 0 12-3l4-6c2-2 4-1 4-1v5h3c4-2 7-11 7-11 0-3-2-3-3-2l-3 2c-2 1-6 2-7-1l-4-12s-2-5 0-6c1 1 4 1 4-1 1-2-2-8-5-11-2-2-6-3-9 0-2 2-2 4-2 6a10 10 0 002 9c2 4 6 10 5 17 0 0-3 4-7 4-1-1-4-1-5-12-1-8 0-20-4-25-1-3-2-6-5-1-1 2-4 6-2 12a36 36 0 012 19l-3 5c-3 3-6 2-8 1s-4-2-5-6v-21c-2-4-5-2-6-1a48 48 0 00-12 23c-2 6-4 4-5 2-3-3-3-27-7-23z"/>
    <path fill="#fff" d="M207 174c3-2 2-3 6 1a72 72 0 019 31c0 3 2 4 3 4 0-6 15-15 29-16 2 0 1-4 1-6-1-8 4-14 11-15 10 1 13 7 13 14-1 15-17 18-25 19-2 0-2 1 0 2h36l2 1-2 2a30 30 0 00-4 12c-11 4-22 5-33 6-4 2-6 5-5 8s10 7 10 7c2 1 3 3-1 9-17-1-31-9-36-20-2-1-3 0-4 2-7 9-14 17-26 21-7 2-14-1-18-5l-3-7c-3 2-36 16-32 9 8-8 22-14 34-23 1-3 2-12 7-15v10c1-1 16-12 17-16v-7c-3-8-7-8-8-12-1-5-1-10 2-12 2-2 5-1 8 1 3 3 6 8 6 12h-5a16 16 0 014 7c2 9 1 12-1 17-6 14-15 18-22 23 0 0 0 4 2 6h10a55 55 0 0022-24 51 51 0 00-2-22l-7-16 2-8zm-95-39c4 3 12 2 11-5v-3c-1-2-3-2-3 0l-1 2c0 1-1 1-1-1l-1-2h-2v2l-1 1h-1l-1-1v-2h-1c-2 0-2 2-2 3s-1 5 3 7z"/>
    <path fill="#fff" d="M235 188c4 2 14 1 12-6v-3c-1-2-3-2-4 1v2c-1 0-2 0-2-2l-1-2h-1v1l-1 1-1 1-1-1v-2h-1c-3 0-3 3-3 4 0 0 0 5 3 6zm72-22c4 2 12 1 12-6v-3c-1-2-3-1-4 1v2c-1 0-2 0-2-2l-1-1-1-1v1l-1 2-1 1v-1h-1v-2l-1-1c-3 0-3 3-3 4 0 0 0 5 3 6zm37 54c-7 9-4 22-2 25 2 5 4 8 9 11 4 3 8 1 10-1 4-5 4-16 6-19 1-4 5-3 7-1a17 17 0 006 5c4 4 9 4 13 1 4-2 6-4 8-9s1-31 0-47l-4-21-1-13 1-1 2 1c1 1 2-1 1-3l-10-18c-1-1-2-2-3 0a7 7 0 00-3 5l2 14 4 22 3 45c-1 7-3 13-5 14 0 0-3 2-5 0l-7-10c-3-3-5-2-7 0-6 6-9 16-13 24-1 1-4 3-7 0-8-12-4-28-5-24zm-35-93c4 1 6 9 6 13-1 4-3 9-5 9v-9c-1-3-6-8-5-9-1-4 2-5 4-4z"/>
    <path fill="#fff" d="M357 225l-1-20-7-51c-2-8 5-1 4-5-2-6-8-14-10-19-1-2-1-4-3-1a42 42 0 00-3 20c6 32 13 59 12 89 3 0 6-6 8-13zm64-85c4 1 6 11 5 14-1 5-2 10-4 9v-9c-1-3-6-9-5-10-1-4 2-5 4-4zm-256 68c4 1 6 8 5 10 0 4-2 8-3 7-2 0 0-5-1-7 0-4-5-6-5-7 0-3 2-4 4-3z"/>
    <path fill="#1b9d00" d="M245 218c4 0 6 4 2 5s-7 3-7 8c1 8-2 5-4 4-3-1-10-6-11-15 0-2 2-4 5-4l15 2z"/>
    <path fill="#fff" d="M77 124c5 2 6 9 5 11 0 4-2 8-3 7-2 0 0-5-1-7s-5-6-4-7c-1-3 2-4 3-4zm96 34c-3 2-5 8-3 12 3 3 6 1 6 1 4 1 6-6 6-6s0-2-4 1c-2 1-2 0-2-1a9 9 0 010-6c1-1-1-2-3-1zm28-36c-2 1-5 5-5 9-1 3-1 3 1 4 1 2 2 2 4 1a5 5 0 003-4c0-3-3 2-4-2-1-3 2-4 4-7 0-2 0-3-3-1zm23 4a60 60 0 00-2 11c0 2 3 4 5 0l2-12c0-4-3-4-5 1zm142 72l20-15c2 0 1 8 0 8a78 78 0 01-20 14c-1 1-2-5 0-7zm17 0c4 1 5 11 5 14 0 6-3 10-5 9v-9c-1-3-4-8-3-10-1-3 1-5 4-4zm-116 43a26 26 0 016-5c2-1 4 1 4 1l-1 6c0 1 1 2 3 2l9-3c2 0 2 4 1 4l-13 5c-2 1-3-1-3-1l-1-3c1-2 0-4-2-3-1 0-2 1-3-1v-2zm137 5v4l-4 4c0 1-1 2 1 3 4 1 12-5 12-5 2-1 1-3 1-3h-4s-2 0-1-2a11 11 0 001-3c1-1 0-2-2-3h-5l-2 2c0 3 2 3 3 3z"/>
    <path fill="#259f00" d="M268 190h-4c-2-1-3-3-2-4h4c2 1 3 3 2 4zm-89-54l-3-2c-1-1 0-3 1-3l3 2c1 1 0 3-1 3z"/>
    <path fill="#209000" d="M355 375l28 1c1 1 0 5-1 4h-8c0-3-7-2-7 0h-12v-5z"/>
  </g>
</svg>
