<svg xmlns="http://www.w3.org/2000/svg" id="flag-icons-sb" viewBox="0 0 640 480">
  <defs>
    <clipPath id="a">
      <path d="M0 0h683v512H0z"/>
    </clipPath>
  </defs>
  <g fill-rule="evenodd" clip-path="url(#a)" transform="scale(.9375)">
    <path fill="#0000d6" d="M0 507L987 0H0v507z"/>
    <path fill="#006000" d="M1024 0L27 512h997V0z"/>
    <path fill="#fc0" d="M1024 0h-55L0 485v27h55l969-484V0z"/>
    <path fill="#fff" d="M71 9l12 35h39L91 65l11 34-31-21-31 21 12-34-31-21h38zm192 0l11 35h39l-31 21 12 34-32-21-31 21 12-34-31-21h39zm0 145l11 34h39l-31 21 12 35-32-22-30 22 11-35-31-21h39zm-95-72l11 35h39l-31 21 12 34-31-21-32 21 12-34-31-21h39zm-97 72l12 34h39l-31 21 11 35-31-22-31 22 12-35-31-21h38z"/>
  </g>
</svg>
