<svg xmlns="http://www.w3.org/2000/svg" id="flag-icons-sg" viewBox="0 0 640 480">
  <defs>
    <clipPath id="a">
      <path d="M0 0h640v480H0z"/>
    </clipPath>
  </defs>
  <g fill-rule="evenodd" clip-path="url(#a)">
    <path fill="#fff" d="M-20 0h720v480H-20z"/>
    <path fill="#df0000" d="M-20 0h720v240H-20z"/>
    <path fill="#fff" d="M146 40a84 84 0 001 165 86 86 0 01-107-59A86 86 0 0199 40c16-4 31-4 47 0z"/>
    <path fill="#fff" d="M133 110l5 15-13-9-13 9 5-15-13-9h16l5-15 5 15h16zm18 52l5 15-13-9-13 9 4-15-12-9h16l4-15 5 15h16zm58 0l5 15-13-10-13 10 5-15-13-10h16l5-15 5 15h16zm17-52l5 15-13-9-12 9 4-15-13-9h16l5-16 5 16h16zm-46-34l5 15-13-9-13 9 5-15-13-10h16l5-15 5 15h16z"/>
  </g>
</svg>
