<svg xmlns="http://www.w3.org/2000/svg" id="flag-icons-si" viewBox="0 0 640 480">
  <defs>
    <clipPath id="a">
      <path d="M-15 0h683v512H-15z"/>
    </clipPath>
  </defs>
  <g fill-rule="evenodd" clip-path="url(#a)" transform="translate(14) scale(.9375)">
    <path fill="#fff" d="M-62 0H962v512H-62z"/>
    <path fill="#d50000" d="M-62 341H962v171H-62z"/>
    <path fill="#0000bf" d="M-62 171H962v170H-62z"/>
    <path fill="#d50000" d="M228 93c-4 62-6 95-15 111-10 17-20 29-60 44-40-15-49-27-60-44-9-16-11-49-15-111l6-2 27-8c9-2 17-4 42-4s33 2 42 4l27 8 6 2z"/>
    <path fill="#0000bf" d="M223 91c-4 62-7 90-12 103-10 23-25 36-58 48-33-12-48-25-58-48-5-13-8-42-12-103l28-8c9-2 17-4 42-5 25 1 33 3 42 5a284 284 0 0128 8z"/>
    <path fill="#ffdf00" d="M153 110l2 3 7 2-5 2 4 3-6 1-2 4-2-4-6-1 4-3-4-2 7-1 1-4z"/>
    <path fill="#fff" d="M208 180l-4-3-2-5-6-5-3-4-5-5-3-5-3-2-1-2-5 4-3 5-3 3-4-3-3-5-10-18-10 18-3 5-4 3-3-3-3-5-5-4-1 2-3 2-3 5-5 5-3 4-6 5-2 5-4 3a66 66 0 0018 36 107 107 0 0037 20 104 104 0 0037-20c5-6 16-19 18-36z"/>
    <path fill="#ffdf00" d="M169 84l2 4 7 1-5 2 5 3-6 1-2 4-2-4-6-1 4-3-5-2 7-1 2-4zm-33 0l2 4 7 1-4 2 4 3-6 1-2 4-2-4-6-1 4-3-5-2 7-1 2-4z"/>
    <path fill="#0000bf" d="M200 203h-15l-8-4h-9l-9 4h-6l-6-1-9-3h-9l-8 4h-15l-4-6h1l11 2 7-1 8-4h9l9 4 6 1 7-1 8-4h9l8 4 7 1 11-2-3 6zm-87 10l8-1 8-4h9l9 4 6 1 6-1 9-4h9l8 4 8 1 5-6-6 1-7-1-8-4h-9l-8 4-7 1-6-1-8-4h-10l-8 4-7 1-5-1 4 5z"/>
  </g>
</svg>
