<svg xmlns="http://www.w3.org/2000/svg" id="flag-icons-sm" viewBox="0 0 640 480">
  <g fill-rule="evenodd">
    <path fill="#19b6ef" d="M0 240h640v240H0z"/>
    <path fill="#fff" d="M0 0h640v240H0z"/>
  </g>
  <path fill="#fd0" fill-rule="evenodd" stroke="#7d6c00" stroke-width="2" d="M317 339c53-39 109-119 43-161-12-3-26-2-33 3-3-2-6-1-10 2-2-3-5-4-10-3a41 41 0 00-31-3c-58 35-23 117 41 162z"/>
  <g stroke="#3a9d4f" stroke-width="2">
    <path fill="#4fd46b" fill-rule="evenodd" stroke-linejoin="round" d="M414 250l6-8c6-3 7-8 7-8 6-2 4-7 4-7a6 6 0 002-7c0-1 2-9-1-10 0-8-5-7-9-2-4 2-5 5-4 9-5 0-5 8-4 12-7 0-3 8-3 9-3 1 2 12 2 12zm-46 68l4 3c0 2 3 4 5 4 1 4 6 3 9 1 3 4 6 4 11 3 4 3 9 1 12-2 4 3 7 1 8-2 3 0 6 0 7-3 5 0 3-6-2-8 4-3 8-10 2-11h-8c-1-3-5-4-9 0-2-4-7-2-10 0-3-3-7-3-13 1l-16 14zm0-8c1-4-2-11 2-12-1-6 0-13 8-12 1-6 1-12 7-12 0 0 6-20 12-6 2 4 1 10-3 9 1 4-1 9-6 8 2 4 2 8-1 10l-19 15zm33-24l6-1c6-4 9-6 12-2 5-1 10 0 9 4 6 0 6 4 6 7 1 5-2 12-5 4-12-7-19-6-38-2l10-10zm3-6s18-5 16-10c5-1 6-6 6-6 10-3 10-9 10-9 3-3 8-6 7-12 0-6 0-10-8-6-6 0-9 3-10 9-3-4-8 2-9 7l-8 8-6 12 2 7z"/>
    <path fill="#4fd46b" fill-rule="evenodd" stroke-linejoin="round" d="M405 266c-5-3-7-7-6-10-3-4-5-6-2-9l-2-8c-6-2-3-6-2-8-2-3-2-7 0-10 0-7 5-4 8 0 0 0 7 4 2 8 5 2 6 6 3 7 4 2 5 6 3 9 4 3 2 7 4 11l-8 10z"/>
    <path fill="#4fd46b" fill-rule="evenodd" stroke-linejoin="round" d="M412 236s-7-9-5-9c-1-3-3-6-1-8-4-4-4-8-1-11-3-3-2-7 1-10 0-5 3-6 6-7 2-8 6-6 8 0 4 3 3 7 2 11 4 2 2 5 0 7l-10 27z"/>
    <path fill="#4fd46b" fill-rule="evenodd" stroke-linejoin="round" d="M411 193l-6-6c2-3 3-8-1-10-3-6-15-13-17 0-1-4-5-8-8-3-6-5-9-4-6 3 0 0-3 5 4 8 1 1-2 8 7 8-2 3 1 7 5 6-3 3 1 7 4 6-1 3-1 5 4 5l6 6 4 7 4-30z"/>
    <path fill="none" stroke-linecap="round" d="M414 247c1-1 11-25 13-33m-12-11s2 20-3 35m-29-55s21 21 24 30m-9-32s1 17 7 34m31 28s-21 19-32 35m12 30s-29 4-42 4m32 8s-35 0-38-3m21-43s-19 30-19 40"/>
  </g>
  <path fill="#65c7ff" fill-rule="evenodd" stroke="#7d6c00" stroke-width="2" d="M317 333c-38-35-77-102-38-136 7 4 15 1 26-4 3 4 8 5 12 2a9 9 0 0011-2c11 6 24 10 28 3 38 36-1 103-39 138z"/>
  <path fill="#8fc753" fill-rule="evenodd" d="M317 332a213 213 0 01-42-57c2-2 3-2 4-5 5 1 8 1 16-1 2 6 2 11 6 16l7-15a34 34 0 0017 0c3 4 2 10 7 15 4-10 7-10 11-16 5 2 8 1 12 0l5 6a194 194 0 01-43 57z"/>
  <path fill="#fff" fill-rule="evenodd" stroke="#000" d="M273 164a3 3 0 11-7 0 3 3 0 017 0zm-4-7a3 3 0 11-6 0 3 3 0 016 0zm-4-7a3 3 0 11-7 0 3 3 0 017 0zm-3-7a3 3 0 11-6 0 3 3 0 016 0zm1-8a3 3 0 11-7 0 3 3 0 017 0zm17-13a3 3 0 11-6 0 3 3 0 016 0zM274 124a3 3 0 11-7 0 3 3 0 017 0zm-7 4a3 3 0 11-7 0 3 3 0 017 0zm22-6a3 3 0 11-7 0 3 3 0 017 0zm9 1a3 3 0 11-6 0 3 3 0 016 0zm8 0a3 3 0 11-6 0 3 3 0 017 0z"/>
  <path fill="#fd0" fill-rule="evenodd" stroke="#7d6c00" d="M326 118a9 9 0 11-17 0 9 9 0 0117 0z"/>
  <path fill="#fff" fill-rule="evenodd" stroke="#000" d="M335 123a3 3 0 11-7 0 3 3 0 017 0zm9 0a3 3 0 11-7 0 3 3 0 017 0zm8 0a3 3 0 11-7 0 3 3 0 017 0zm7 0a3 3 0 11-6 0 3 3 0 016 0zm9 1a3 3 0 11-7 0 3 3 0 017 0zm7 4a3 3 0 11-7 0 3 3 0 017 0z"/>
  <path fill="#e40000" fill-rule="evenodd" stroke="#ac0000" stroke-width="2" d="M269 152l9 16h79l9-16c-5-3-9-6-16-5-5-6-9-7-16-6-2-2-4-4-8-4h-17l-8 4c-7-1-13-1-15 6-6-1-11 0-17 5z"/>
  <path fill="#fff" fill-rule="evenodd" stroke="#000" d="M378 135a3 3 0 11-7 0 3 3 0 017 0zm1 8a3 3 0 11-7 0 3 3 0 017 0zm-3 8a3 3 0 11-7 0 3 3 0 017 0zm-3 6a3 3 0 11-7 0 3 3 0 017 0zm-4 7a3 3 0 11-6 0 3 3 0 016 0zm-46-10a5 5 0 11-10 0 5 5 0 0110 0z"/>
  <path fill="#fff" fill-rule="evenodd" stroke="#000" d="M324 143a6 6 0 11-12 0 6 6 0 0112 0z"/>
  <path fill="#fff" fill-rule="evenodd" stroke="#000" d="M323 132a5 5 0 11-11 0 5 5 0 0111 0z"/>
  <path fill="#fd0" fill-rule="evenodd" stroke="#7d6c00" d="M316 109v-4h-4v-3h3v-3h5v2h3v4h-4v4h-4z"/>
  <path fill="none" stroke="#fd0" stroke-width="3" d="M278 168c-7-12-18-28-11-35 9-10 30-1 43-7 1 11-2 30 3 34l-5 4c-3-3-8-8-15 1-4-4-8-3-11 1l-4 2zm80 0c7-12 17-29 11-36-9-10-30-1-44-7-1 12 3 31-3 35l5 4c5-7 11-7 16 0 3-3 7-3 10 2l5 2z"/>
  <path fill="#fd0" fill-rule="evenodd" stroke="#7d6c00" stroke-width="2" d="M277 177a437 437 0 0180 0l3-9c-28-5-47-6-83-1v10z"/>
  <path fill="#c76e2e" fill-rule="evenodd" d="M314 329l1-4h7l3-4-2-2c-2 0-3 2-4 3l-5-1-1-6c-2-2-5-2-4 1v3l2 4v3l3 3zm1-18c-2 1-4-1-7-2-2 0-4 2-7 1l2-2c0-4 2-6 3-6l3 1h2c2 3 4 5 4 8z"/>
  <path fill="#ffe100" fill-rule="evenodd" stroke="#e9bf00" stroke-width="2" d="M301 366c7-11 56-34 102-84-47 45-76 56-115 84h13z"/>
  <path fill="#9d4916" fill-rule="evenodd" stroke="#68300e" d="M368 313a4 4 0 11-7 0 4 4 0 017 0zm35-35a4 4 0 11-8 0 4 4 0 018 0zm11-29a4 4 0 11-7 0 4 4 0 017 0zm-11-39a4 4 0 11-7 0 4 4 0 017 0z"/>
  <path fill="#fff" fill-rule="evenodd" stroke="#a9a9a9" d="M279 270v-16l-1-1v-3l2-1 1-17-2-1v-2h2v-4h-1l2-2-1-1-1-3 1-3-1-2-1-2 2-2-1-3a10 10 0 012-2l2-3 4-1h6l2 2 1 5-1 2-2 1h-3l1 4v7l-1 2-1 1v4l4 1v2h-3l1 16h4v5l-2 1v16h-15zm63 0v-15l-2-2v-3h3v-17l-1-1-1-3h2l1-3-1-1 1-2-1-1-1-3 1-3v-1l-2-3 2-1v-3a10 10 0 011-3l2-3 5-1 5 1 3 1v8l-3 1h-3l1 3v9l-1 1v4l4 1-1 2h-2v16l4 1v4l-2 1v16h-14zm-32 0v-15l-2-1v-4h3l1-17-2-1v-3l2 1v-4h-1l2-2-1-2-1-2v-5l-1-2 1-2v-3a9 9 0 012-3l2-3 4-1 5 1 3 2 1 5-1 2-2 1h-3l1 3v4l-1 3v2l-1 1v4l4 1v3h-3l1 16h4v5l-2 1-1 15h-14z"/>
  <path fill-rule="evenodd" d="M283 270v-12h7v12h-7zm31 1l1-13h6v12h-7zm31-1v-11l7-1v13l-6-1zm-60-36h3v6h-3zm30 0h5v6h-5zm31 1h4v6h-4z"/>
  <path fill="none" stroke="#a8a8a8" d="M287 207l4 5m26-5c1 2 2 5 4 5m29-4s1 3 3 4"/>
  <path fill="#b97700" fill-rule="evenodd" d="M282 194c12-4-3-12-5 0-4 1-4 4-13 2-20 33-5 87 54 142-106-90-63-157-33-155 16 1 8 21-3 11z"/>
  <path fill="none" stroke="#7d6c00" stroke-width="2" d="M286 177s9 3 9 7m0-8s7 3 9 6m45-5s-9 2-11 4m-2-3s-5 4-5 6m4 12c-1 0-5-5-4-10m-30 7s3-2 3-7m13-2l1 11m9-2s3-8-1-11m-20-2s-2 8-1 14m21-7l-6 3m-12-2s4-1 6 1"/>
  <path fill="#c76e2e" fill-rule="evenodd" d="M301 302s3-1 3-3c2-1 1-4 1-4l-3-1-5-5-1-5c-3 1-5 4-6 7l3 3 3-1 1 4 4 5zm-4-22v-7h-5l-2 3-3 1 4 3h6zm-14 9l-3-4a7 7 0 015 0v4h-2zm36 4a5 5 0 003-3l-5-5-4-1-3-1s1 2 3 2l6 8zm4 1l7-2c-1-1 3-5 3-5l5 7-4 1-3 3h-8c-1-2 1-5 1-4zm4-13a14 14 0 000-8h-7l-4 2s1 4 3 4c1 2 3 2 4 2h4zm25-7c-1 3-2 6-1 8l4 1 5-9h-8z"/>
  <path fill="#b97700" fill-rule="evenodd" d="M353 193c-12-4 3-12 5 0 4 1 5 4 13 2 21 34 5 87-54 142 107-90 63-157 34-155-16 1-8 21 2 11z"/>
  <path fill="#c76e2e" fill-rule="evenodd" d="M354 285l-3 2-4 1h-4l-1-2 3-3c-3-1-6 0-8 2 0 0 0 4 2 5l5 4a7 7 0 005-1l5-8zm-23 30c2 0 11-13 11-13a10 10 0 00-4-5l-5 7c-1 2-3 9-2 10v1z"/>
  <path fill="#006800" fill-rule="evenodd" stroke="#004100" stroke-linejoin="round" stroke-width="2" d="M266 317c-14-13-34-20-62-10 7 3 15 4 22 8l40 2z"/>
  <path fill="none" stroke="#00a400" stroke-linecap="round" stroke-width="2" d="M223 308c30 1 38 8 37 7"/>
  <path fill="#006800" fill-rule="evenodd" stroke="#004100" stroke-linejoin="round" stroke-width="2" d="M267 319c-9 2-21 10-24 10-10-1-19-5-28-8-4-2-8 0-12 0 33-16 44-14 64-2zM245 296l-15 2c-5 0-12-5-20-13-4-5-14-4-14-4 21-5 37 0 49 15zm-15-21c-14-1-33-14-37-30 0 0 5 3 4 4 25 6 26 11 33 26zm25 25c3-13 3-22-3-30-5-6-7-10-11-18-1 17-5 32 14 48zm-23-37c11-16 13-28 11-47l-4 11c-16 10-9 26-7 36z"/>
  <path fill="#006800" fill-rule="evenodd" stroke="#004100" stroke-linejoin="round" stroke-width="2" d="M222 185c11 16 10 31 8 51l-4-11c-17-11-6-30-4-40z"/>
  <path fill="#006800" fill-rule="evenodd" stroke="#004100" stroke-linejoin="round" stroke-width="2" d="M231 210c27-14 17-31 22-44-19 14-21 29-22 44z"/>
  <path fill="none" stroke="#00a400" stroke-linecap="round" stroke-width="2" d="M235 207c3-10 10-26 11-26m-19 45l-4-26"/>
  <path fill="#006800" fill-rule="evenodd" stroke="#004100" stroke-linejoin="round" stroke-width="2" d="M228 257c-15-1-31-22-35-38 0 1 6 4 5 5 21 9 23 18 30 32zm-4-14a63 63 0 01-11-48l4 11c16 10 9 27 7 37zm10-29c28-12 19-25 27-39-18 14-27 24-27 39z"/>
  <path fill="none" stroke="#00a400" stroke-linecap="round" stroke-width="2" d="M235 211a71 71 0 0015-20"/>
  <g fill-rule="evenodd">
    <path fill="#ffe100" stroke="#e9bf00" stroke-width="2" d="M334 366l13 1c-45-42-130-61-119-138-12 84 71 92 106 137z"/>
    <path fill="#9d4916" stroke="#68300e" d="M235 213a4 4 0 11-8 0 4 4 0 018 0zm-2 23a4 4 0 11-8 0 4 4 0 018 0zm4 34a4 4 0 11-8 0 4 4 0 018 0zm31 37a4 4 0 11-7 0 4 4 0 017 0zm4 11a4 4 0 11-7 0 4 4 0 017 0z"/>
  </g>
  <g fill="#fff" fill-rule="evenodd">
    <g stroke="#000">
      <path d="M288 349a16 16 0 01-5-6l-14-1v8l19-1z"/>
      <path stroke-linejoin="round" d="M185 340c9 1 21-1 25 4 5 6-15 14-12 19 6 6 12 4 19 0l4-12c-3-5-10-8-8-17 12-4 33-4 36-2 2 3 0 5 0 8-2 4-6 10-6 13 12 4 15-1 25 0 13 0 21 3 23-2-2-4-13-1-17-3-3-1-4-3-6-5s-7-2-8-7c2-10 17-8 19-10l39 3c7 0 11 12 1 16-9 4-37-6-49 1 0-3-9-7-10-7l-11 1-5 9c-8-4-16 2-24 0l-14 2-9-1-13 4 10-8-9-6z"/>
      <path d="M185 338a4 4 0 11-8 0 4 4 0 018 0zm-1 18a4 4 0 11-8 0 4 4 0 018 0z"/>
    </g>
    <g stroke="#000">
      <path d="M346 349c3-2 4-3 5-6l14-1v8l-19-1z"/>
      <path stroke-linejoin="round" d="M449 340c-8 1-20-1-24 4-5 6 15 14 12 19-6 6-13 4-19 0l-4-12c2-5 9-8 7-17-11-4-33-4-35-2-2 3 0 5-1 8 2 4 7 10 7 13-12 4-15-1-26 0-12 0-20 3-23-2 2-4 14-1 18-3l5-5c1-2 8-2 8-7-2-10-17-8-19-10l-38 3c-7 0-11 12-2 16 10 4 37-6 49 1 1-3 10-7 10-7l11 1 6 9c8-4 15 2 24 0l13 2 9-1 13 4-9-8 8-6z"/>
      <path d="M450 338a4 4 0 107 0 4 4 0 00-7 0zm1 18a4 4 0 107 0 4 4 0 00-7 0z"/>
    </g>
    <path d="M317 329h-7l-5 15 16 1c-5-1-4-16-4-16z"/>
  </g>
  <g font-family="Trebuchet MS" font-size="9" font-weight="bold">
    <path d="M283 340v-11h2v10h5v1z" aria-label="L"/>
    <path d="M292 341v-11h2v11z" aria-label="I"/>
    <path d="M300 342h-3v-11h3l2 1 1 2-1 2q2 0 2 3l-1 2-3 1zm-1-10v3h1l1-2-1-1h-1zm0 4v4h1l1-1 1-1v-1l-2-1h-1z" aria-label="B"/>
    <path d="M309 333v3h3v1h-3v3h5v2h-7v-11h6v2z" aria-label="E"/>
    <path d="M322 342l-3-4h-1v4h-2v-10h1l2-1q4 1 4 4v1l-2 1 3 5zm-4-9v3h2l1-1v-2h-3z" aria-label="R"/>
    <path d="M330 333v9h-2v-9h-4v-2h9v2z" aria-label="T"/>
    <path d="M341 341l-1-3h-4l-1 2h-2l5-10 5 10zm-3-8l-1 4h2z" aria-label="A"/>
    <path d="M344 340l1-2 2 1q2 0 2-2h-1l-1-2-2-1-1-1v-1l1-2 2-1 3 1v2l-3-1-1 1 2 2 2 1v1l1 1-1 2-3 1-3-1z" aria-label="S"/>
  </g>
  <path fill="none" stroke="#00a400" stroke-linecap="round" stroke-width="2" d="M231 319h31m-46-35c9 7 27 11 27 11m11 2c-3-14-6-18-9-27m-43-15c14 6 16 10 25 17m5-14c2-18 4-22 8-26m-38-2l22 23m-7-39c6 4 6 21 6 21"/>
</svg>
