<svg xmlns="http://www.w3.org/2000/svg" xmlns:xlink="http://www.w3.org/1999/xlink" id="flag-icons-sv" viewBox="0 0 640 480">
  <path fill="#0f47af" d="M0 0h640v480H0z"/>
  <path fill="#fff" d="M0 160h640v160H0z"/>
  <g transform="matrix(.8 0 0 .8 -93 0)">
    <g fill="#fff" fill-rule="evenodd" stroke="none" stroke-width="0">
      <path d="M515 353l10-1c7-2 13-6 14-7h3a8 8 0 00-5-3l-5 1c-2 1-8 4-17 4s-15-3-17-4l-4-1c-3 0-6 2-6 3h3c1 1 7 5 14 7l10 1z"/>
      <path d="M488 347v-1l3-1h-3l-1 1v1h1z"/>
      <path d="M491 345l-3 1v2l5-1-2-2zm51 2v-1l-3-1h3l1 1v1h-1z"/>
      <path d="M539 345l3 1v2l-5-1 2-2z"/>
    </g>
    <path d="M496 343l-1 3v1l2-1c1-1 0-2-1-2v-1zm0 1l1 2h-2l1-2z"/>
    <path fill-rule="evenodd" d="M498 348h-1l2-3-1 3z"/>
    <path d="M500 345l-1 1v3l3-1a2 2 0 00-1-3 2 2 0 00-1 0zm0 1h1v1l-1 1-1-1 1-1z"/>
    <path fill-rule="evenodd" d="M504 347h-1v1l1 1a1 1 0 01-2 1 1 1 0 010-2v1h1v-1l-1-1h2zm2 0v4l1-1 1-2v2l-2 1-1-2 1-2zm5 5l-2-3-1 2 1-3 1 3 1-2zm0 0l1-3v3z"/>
    <path d="M514 349a2 2 0 00-1 1l1 2 2-1-2-2zm0 0l1 2a1 1 0 01-1 1l-1-2 1-1z"/>
    <path fill-rule="evenodd" d="M519 352l-2-2v2h-1v-3l3 2-1-2h1zm2 0v-4 3h1zm2-1l-1-3h1v3z"/>
    <path d="M524 348h-1l1 3h1l1-1-1-1v-1h-1zm0 0v1-1zm0 1l1 1h-1z"/>
    <path fill-rule="evenodd" d="M527 348l-1 1 1 1 1-1v1h-2l-1-3h2-1v1z"/>
    <path d="M529 346h-2l2 4v-2l1 1-1-1v-1a1 1 0 000-1zm0 1l-1 1v-1h1z"/>
    <path fill-rule="evenodd" d="M529 346l2-1-1 1 2 2h-1l-1-2h-1z"/>
    <path d="M532 344v4h1v-1l1-1 1 1-3-3zm1 1l1 1h-1v-1zm2-2h-1l2 3 1-2-2-1zm1 0v3l-2-2h1l1-1z"/>
    <g id="a" stroke="#000" stroke-miterlimit="3" stroke-width="0">
      <path fill="#e60000" fill-rule="evenodd" d="M485 355l1-1a1 1 0 00-1-1l-1 1 1 1zm-5 6h1a1 1 0 00-1-1 1 1 0 00-1 1h1zm-12-19l1-1a1 1 0 00-1-1 1 1 0 00-1 1l1 1zm-7 3l1-1-1-1a1 1 0 00-1 1l1 1zm-2-22a1 1 0 001-1l-1-1a1 1 0 00-1 1 1 1 0 001 1zm-6 2a1 1 0 001-1 1 1 0 00-1-1 1 1 0 00-1 1 1 1 0 001 1zm3-20a1 1 0 001-1 1 1 0 00-1-1 1 1 0 00-1 1l1 1zm-5-18l1-1a1 1 0 00-1-1 1 1 0 00-1 1l1 1zm7 1a1 1 0 001 0l-1-1a1 1 0 00-1 1 1 1 0 001 1zm7-15l1-1-1-1a1 1 0 100 2zm-5-4a1 1 0 001-1 1 1 0 00-1-1 1 1 0 00-1 1 1 1 0 001 1zm10-10a1 1 0 001-1 1 1 0 00-1-1 1 1 0 00-1 1 1 1 0 001 1zm-21 46l1-1-1-1a1 1 0 00-1 1l1 1z"/>
      <path fill="none" d="M486 359l-1-4 1-1m-1 6h-4v1m-14-15l1-4 1-1m-5 4h-2-1m-1-23v1l-3 4-3-2h-1m-5-20h1l3 3 4-3h1m-6-19l1 1 2 3 3-2h1m1-19h1s2 2 1 4h4"/>
      <g fill="#1f601a" fill-rule="evenodd">
        <path d="M533 378h-5l-2-3c-1-1-11-6-18-7a95 95 0 01-19-6 88 88 0 01-26-19c-3-4-6-14-7-19-1-2-4-12-4-19a84 84 0 012-20 111 111 0 0115-26s-12 18-14 26a81 81 0 00-2 21c0 4 3 20 8 31 5 9 8 10 14 15l14 9 18 6 18 5 8 6z"/>
        <path d="M464 343l1-2a14 14 0 002-4v-3l1-2-2-3-2-4v2a7 7 0 00-1 3v8l1 5zm0-1l-4-6v-4c-1 0-3-2-1-5l2-3 2-3v13l1 8zm38 23h-4l-3-1a10 10 0 01-4-3l-3-4c-1-1 1-1 3-1l3 2 4 3 2 1c0 1 0 2 2 3z"/>
        <path d="M506 368l-8-4a25 25 0 01-3-3l-4-3-3-6 5 1 4 2 3 3 2 5 4 5z"/>
        <path d="M510 368s-6-1-9-5l-2-3-4-4-2-7 4 1 4 3c2 1 2 4 3 5l1 4 1 3 4 3zm-9-2l-6-2-2-1h-10l3 3 4 1h7l4-1z"/>
        <path d="M504 366l-7-1h-4l-6 1-7 1 4 3 6 1 6-1 2-1 6-3z"/>
        <path d="M509 369s-6-3-11-1l-4 1h-5c-1 0-6 3-7 2l5 4h11l4-2 2-2 5-2zm-31-13l-4-4-3-3c-1 0-1-2-3-2l-4-2 1 4a8 8 0 003 3l4 2h2l4 2z"/>
        <path d="M481 357l-6-4-4-1-5-3-4-1 1 4 4 3 5 2 3-1 6 1z"/>
        <path d="M483 358l-7-2-4-1-5-1c-1 0-6 2-7 1-1 0 1 2 3 2l4 3c2 1 4 2 6 1h3c1-1 4-3 7-3zm0-1s1-5 0-7a5 5 0 01-1-3 11 11 0 00-2-4l-1-5s-3 3-3 5v3l1 4 1 5c1 0 4 3 5 2z"/>
        <path d="M483 358l-3-2-6-3-4-5v-3l1-4 2-4 1 4 1 3 2 4 1 6c1 0 3 4 5 4zm-19-15h-3l-6-1-3-3-2-4-4-5s4-1 7 1l3 2 6 6 2 4z"/>
        <path d="M464 343l-5-2c-1 0-5-3-5-5l-3-3c-1-2-1-6-3-7l5 1 5 2c0 2 1 3 2 3l1 5a32 32 0 003 6zm-7-20l1-7a11 11 0 011-3l1-3v-6l-2 2-2 2-1 2a6 6 0 00-1 3v3l3 7z"/>
        <path d="M457 324v-3l2-1 1-2 1-2v-5h-2l-2 3-1 2v5a7 7 0 011 3zm-5-23l1-6c2-2 2-4 5-6v6l-2 3-2 2h-2z"/>
        <path d="M453 303v-4l2-2 2-3 3-3v6l-3 4-2 1h-1l-2 1zm3 20c0 1 1-2-2-2-4 0-6-1-7-2l-2-2a9 9 0 01-2-3l-1-5 2 1 3 1 2 2 2 1 2 4 2 2 1 3z"/>
        <path d="M456 322l-3-2-4-4-2-4a4 4 0 01-2-4l1-4 1 2 3 2 2 2 1 2 1 3 2 7zm-3-16c-1 0 1-2-2-3a10 10 0 01-6-4l-1-2a9 9 0 01-1-4l1-4 2 1 2 2 1 2 2 2 1 4c-1 1 0 2 1 3v3z"/>
        <path d="M453 304l-3-3-2-4-1-4v-4l1-3 1 2 2 2 2 2v12zm2-18l2-1 4-3 2-2 1-5-3 1a7 7 0 00-3 2l-2 2-1 3v3z"/>
        <path d="M455 285v-3-5l6-4v3l-2 4-4 5z"/>
        <path d="M454 286l-1-3-1-3v-3l3-5 1 4v7l-2 3zm8-15l2-1 3-1 3-1a5 5 0 001-2l2-2h-3c-2 1-5 1-5 3l-3 4z"/>
        <path d="M463 270l3-1 1-2 2-3v-4a31 31 0 01-2 1l-2 1-1 3s-3 2-1 5z"/>
        <path d="M462 270l2-2 1-3 2-3-1-3-2 2-1 2-2 2 1 4v1z"/>
      </g>
      <g fill="none">
        <path d="M495 365s-10 0-11-1m17 2l-10 2h-6l-5-1m27 2l-6 1-7 2h-5a18 18 0 01-7 0m6-15l5 3 4 3m-9-11l8 7 8 7m-10-16l5 6 3 3 2 5 4 4m-44-22l7 6m-9-3l8 5 10 2m2 2h-7l-7-1-7-1m12-18v5l2 6 2 5m2-16l-1 5 1 4 1 4 1 4 2 2m-37-26l6 3 2 2m10-10l1 6v5c0 1-2 4-1 5m-2-20v4l-1 4v7m-12-11l5 4 5 7 4 5m-21-33l5 5 2 3m12-6l-2 3-1 3c0 1-2 3-1 4m3-16l-1 3-2 4-1 8m-10-16l1 4 3 3 3 7a5 5 0 012 3m-11-32l1 3 3 6m9-8l-1 3-1 2-1 2m6-5l-2 4-2 3c-1 1-4 3-3 4m-5-17l1 5a37 37 0 011 4l1 3 1 4m12-26l-3 3-5 6m4-11l-2 5-1 2m-2-8v5a8 8 0 000 3l-1 4m18-21l-5 4m2-8l-3 5-1 2m1-7l-2 3a36 36 0 01-2 6M469 258s0 1 2 1"/>
      </g>
    </g>
    <use xlink:href="#a" width="100%" height="100%" transform="matrix(-1 0 0 1 1030 0)"/>
    <path fill="#00209f" fill-rule="evenodd" d="M515 366s0-2 2 0c0 0 2 4 0 4h-3l1-4z"/>
    <path fill="#00209f" fill-rule="evenodd" d="M517 366l1-7c1 0 3-2 5-1 2 2 0 8 0 9-1 1-2 3-5 2l-1-2h3l2-2-1-5-3-1-1 7-1-1zM514 370s-6 4-3 9l-2-1s-1 2 0 3c0 0-4-4-1-8 4-5 6-5 6-5v2z"/>
    <path fill="#00209f" fill-rule="evenodd" d="M514 367s-2-2-6-1c0 0-2-5-1-7l1-1s-2-1-2 4l2 7h6v-2z"/>
    <path fill="#00209f" fill-rule="evenodd" d="M514 367s-5-9-6-9l2-1c1 0 3 0 4 2l2 6-2 2z"/>
    <path fill="#011322" fill-rule="evenodd" d="M514 367l-4-2v-5l-2-2c-1 0-2 1-1 3l1 5s3-1 6 1z"/>
    <path fill="#00209f" fill-rule="evenodd" d="M518 370s2 1 2 4l2 7 1-2 3 2-1-3-2-5-5-4v1z"/>
    <path fill="#011322" fill-rule="evenodd" d="M519 360l-2 6v1l1-1 2-6-2-1z"/>
    <path fill="#011d33" fill-rule="evenodd" d="M514 369s-3 1-4 4c0 0 0-2 4-4zm4 0l2 2-2-1v-1zm-4-1h-5 5zm8-3l1 2 1-6-2-2v3a49 49 0 000 3zM517 366s2 4 0 4v-2l-1-3 1 1z"/>
    <path fill="none" d="M515 366s0-2 2 0c0 0 2 4 0 4h-3l1-4z"/>
    <path fill="none" d="M517 366l1-7c1 0 3-2 5-1 2 2 0 8 0 9-1 1-2 3-5 2l-1-2h3l2-2-1-5-3-1-1 7-1-1z"/>
  </g>
  <g transform="matrix(.8 0 0 .8 -93 0)">
    <path fill="#00209f" fill-rule="evenodd" d="M510 256l-1-8a68 68 0 014-12l1-1 1-2a11 11 0 011 4l-1 6-2 5v3l-3 5z"/>
    <path fill="#fff" fill-rule="evenodd" d="M515 247l1 1 1-5-1-6-1 6-2 5v3l2-4z"/>
    <path fill="#00209f" fill-rule="evenodd" d="M516 248l1-5v8l-2-3z"/>
    <path fill="none" d="M517 251v-2-6l-1-6-1-4-1 1-1 2-4 11 1 9"/>
    <path fill="#fc0" fill-rule="evenodd" d="M515 234v-1h1l2 2-2 2-1-2v-1z"/>
    <path fill="none" d="M515 233v1h1l2 1m-2-1l2 2"/>
    <path fill="#fc0" fill-rule="evenodd" d="M514 233h1v1l-1 3-2-2 1-1 1-1z"/>
    <path fill="none" d="M515 233v1l-1 2M514 234l-1 2h1"/>
    <path fill="#fc0" fill-rule="evenodd" d="M515 233c1-1 2-2 3-1v1h-2-1 1l1 1 2-1-2-1-2 1zM515 233l-2-1h-1v1h3l-2 1-1-1 1-1 2 1z"/>
    <path fill="#fc0" fill-rule="evenodd" d="M515 232l-1 1h2l-1-1z"/>
    <path fill="#fc0" fill-rule="evenodd" d="M515 226l2 4c1 2-2 2-2 3l-2-3 2-4z"/>
    <path fill="none" d="M515 226l2 4-2 3-2-3 2-4"/>
    <path fill="none" d="M515 229l1 2h-1l-1-1 1-1z"/>
    <path fill="#fff" fill-rule="evenodd" d="M515 345v-1h-2v-5l2-7 2 7v5h-2v1z"/>
    <path fill="#00209f" fill-rule="evenodd" d="M515 332l2 7v5l1-1h1l1-1 1-1v-1-1l-1-1v-1a2 2 0 00-1-1v-1h-1l-1-2a3 3 0 010-2h-2zm0 0l-2 7v5l-1-1a1 1 0 00-1 0l-1-1-1-1a3 3 0 010-1v-1l1-1v-1l1-1v-1h1l1-2v-2h2z"/>
    <g id="b" fill="none" stroke-miterlimit="3" stroke-width="0">
      <path stroke="#011322" d="M514 332l-1 5c-1 1-3 3-2 6"/>
      <path stroke="#011d33" d="M514 332l-1 5c-1 1-3 3-2 6"/>
      <path stroke="#022743" d="M515 332l-2 5c-1 1-3 3-1 6"/>
      <path stroke="#033054" d="M515 332l-2 5c-1 1-3 3-1 6"/>
      <path stroke="#053a65" d="M515 332l-2 5c0 1-3 3-1 6"/>
      <path stroke="#011d33" d="M514 332l-1 5c-1 1-3 3-2 6"/>
      <path stroke="#022743" d="M514 332l-2 5c0 1-3 3-1 6"/>
      <path stroke="#033054" d="M514 332l-2 5c0 1-3 3-1 6"/>
      <path stroke="#053a65" d="M514 332l-2 5c0 1-3 3-1 6"/>
      <path stroke="#00209f" d="M514 332l-2 5c-1 1-3 3-1 5"/>
      <path stroke="#00209f" d="M515 332l-2 5c0 1-3 3-1 6"/>
    </g>
    <use xlink:href="#b" width="100%" height="100%" transform="matrix(-1 0 0 1 1030 0)"/>
    <path fill="none" d="M519 335v1l1 1v1l1 1v1a3 3 0 010 1l-1 1-1 1a2 2 0 00-1 0l-1 1h-2v1-1h-2l-1-1a1 1 0 00-1 0v-1h-1l-1-1a3 3 0 010-1v-1l1-1v-1l1-1v-1"/>
    <g id="c">
      <g fill-rule="evenodd">
        <path fill="#fff" d="M487 294l-3-13 1-17 8 8v6l1 5-7 11z"/>
        <path fill="#00209f" d="M494 283l-1-5v-6l4 5-3 6zm-19 7a76 76 0 010-4v-14l1-14v-4l9 10-1 17 3 13-2 3-10-7zm6 14l-1-5v-5l5 3-4 7zm-14 24a5 5 0 01-2-3l-1-3v-4l-2-6-2-13c1-4 2-9 1-13v-4l11 7-1 15 3 11-7 13zm17 3l6 4 6 2 6-1h2l4-1 3-2 1-2h1v2l-1 1v1h-1l-1 1-4 1-2 1-3 1h-2l-9 1-5-2c-2-1-6-1-7-3l-2-1-5-2h13z"/>
        <path fill="#00209f" d="M498 332h14l-1 1-3 2-5-1-5-2z"/>
        <path fill="#fff" d="M498 332l5 2 4 1-3 1h-2l-6 1a11 11 0 01-6-2l-6-3h14z"/>
      </g>
      <g fill="none" stroke-miterlimit="3" stroke-width="0">
        <path stroke="#022743" d="M477 260s1 15 7 14"/>
        <path stroke="#022847" d="M484 274c-3 0-5-3-6-7a46 46 0 01-1-7"/>
        <path stroke="#032b4c" d="M484 274c-3 0-5-4-6-7a44 44 0 01-1-7"/>
        <path stroke="#032d4f" d="M484 274c-3 0-5-4-6-7a48 48 0 01-1-7"/>
        <path stroke="#032f53" d="M484 274c-3-1-5-5-6-7a43 43 0 01-1-8"/>
        <path stroke="#043258" d="M484 274c-3-1-5-5-6-7l-1-8"/>
        <path stroke="#04345b" d="M484 274c-3-1-5-5-5-7a46 46 0 01-2-8"/>
        <path stroke="#04365e" d="M484 274c-3-1-5-5-5-8a49 49 0 01-2-7"/>
        <path stroke="#043862" d="M484 274c-3-2-5-6-5-8a48 48 0 01-2-7"/>
        <path stroke="#053b67" d="M484 274c-3-2-5-6-5-8l-2-7"/>
        <path stroke="#053d6a" d="M484 274c-3-2-5-6-5-8a50 50 0 01-2-7"/>
        <path stroke="#053f6e" d="M484 274c-3-2-5-7-5-8a46 46 0 01-2-7"/>
        <path stroke="#064172" d="M484 274c-3-2-5-7-5-8a66 66 0 01-2-7"/>
        <path stroke="#00209f" d="M477 259a47 47 0 002 7c0 1 2 5 5 7"/>
        <path stroke="#022743" d="M477 256s5 12 8 11"/>
        <path stroke="#022a49" d="M485 267l-5-5a65 65 0 01-3-6"/>
        <path stroke="#032d4f" d="M485 267l-5-5a86 86 0 01-3-6"/>
        <path stroke="#033054" d="M485 267l-5-5a92 92 0 01-3-6"/>
        <path stroke="#043359" d="M485 267l-5-5-3-6"/>
        <path stroke="#043760" d="M485 267l-5-5-3-6"/>
        <path stroke="#053a65" d="M485 267l-5-5a750 750 0 00-3-6"/>
        <path stroke="#053d6a" d="M485 267l-5-5a281 281 0 00-3-6"/>
        <path stroke="#064171" d="M485 267l-5-5-3-6"/>
        <path stroke="#00209f" d="M477 256l3 6a14 14 0 005 5m8 12l4-1m-4-3l4 2"/>
        <path stroke="#064171" d="M493 275l4 2"/>
        <path stroke="#053e6c" d="M493 275l4 2"/>
        <path stroke="#053b67" d="M493 275l4 2"/>
        <path stroke="#043862" d="M493 276l4 1"/>
        <path stroke="#04355c" d="M493 276l4 1"/>
        <path stroke="#043258" d="M493 276l4 1"/>
        <path stroke="#032f53" d="M493 276l4 1"/>
        <path stroke="#032c4d" d="M493 276l4 1"/>
        <path stroke="#022a49" d="M493 277h4"/>
        <path stroke="#064171" d="M493 279l4-1"/>
        <path stroke="#053e6c" d="M493 278h4"/>
        <path stroke="#053b67" d="M493 278h4"/>
        <path stroke="#043862" d="M493 278h4"/>
        <path stroke="#04355c" d="M493 278h4"/>
        <path stroke="#043258" d="M493 278h4"/>
        <path stroke="#032f53" d="M493 277l4 1"/>
        <path stroke="#032c4d" d="M493 277l4 1"/>
        <path stroke="#022a49" d="M493 277h4"/>
        <path stroke="#022743" d="M493 277h4m-22 1l1 4 7 7"/>
        <path stroke="#022847" d="M483 289a27 27 0 01-5-4 14 14 0 01-2-3l-1-4"/>
        <path stroke="#032b4c" d="M483 289a27 27 0 01-5-5 9 9 0 01-2-2l-1-4"/>
        <path stroke="#032d4f" d="M483 289a31 31 0 01-5-5 12 12 0 01-2-2l-1-4"/>
        <path stroke="#032f53" d="M483 289a31 31 0 01-5-5 14 14 0 01-2-2l-1-4"/>
        <path stroke="#043258" d="M484 289c-3-1-4-3-6-5a10 10 0 01-1-2l-2-5"/>
        <path stroke="#04345b" d="M484 289l-6-5a15 15 0 01-1-2 21 21 0 01-2-5"/>
        <path stroke="#04365e" d="M484 289l-5-5a14 14 0 01-2-2l-2-5"/>
        <path stroke="#043862" d="M484 289l-5-5a15 15 0 01-2-2 26 26 0 01-2-5"/>
        <path stroke="#053b67" d="M484 289l-5-5a14 14 0 01-2-3l-2-4"/>
        <path stroke="#053d6a" d="M484 289l-5-5a17 17 0 01-2-3l-2-4"/>
        <path stroke="#053f6e" d="M484 289l-5-5a19 19 0 01-2-3l-2-4"/>
        <path stroke="#064172" d="M484 289l-5-5a16 16 0 01-1-3l-3-4"/>
        <path stroke="#00209f" d="M475 277l4 6 5 6"/>
        <path stroke="#011d33" d="M475 290l10 7 2-3-1-3"/>
        <path stroke="#011e34" d="M475 290l10 6h0l2-3h0l-1-2"/>
        <path stroke="#022037" d="M475 290l10 6h0l2-3h0a18 18 0 01-1-2"/>
        <path stroke="#022139" d="M475 290l10 6h0l2-3v-1l-1-1"/>
        <path stroke="#02223b" d="M475 290l10 6h0l2-3v-1a8 8 0 01-1-1"/>
        <path stroke="#02233d" d="M475 290l10 6h1l1-3v-1a10 10 0 01-1-1"/>
        <path stroke="#022540" d="M475 290l11 6v0l1-3v-1a5 5 0 01-1-1"/>
        <path stroke="#022541" d="M475 290l11 6v-1l1-2v-1a5 5 0 01-1-1"/>
        <path stroke="#022743" d="M475 290a110 110 0 0011 6v-1l1-2v-1a4 4 0 01-1-1"/>
        <path stroke="#022847" d="M475 290a93 93 0 0011 5v0l1-2v-1l-1-1"/>
        <path stroke="#022a49" d="M475 290a81 81 0 0011 5h0v-3s1 0 0 0v-1"/>
        <path stroke="#032a4a" d="M475 290a80 80 0 0011 5v0-3h0v-1"/>
        <path stroke="#032b4c" d="M475 290a68 68 0 0010 5h1v-3h0v-1"/>
        <path stroke="#032d4f" d="M475 290a62 62 0 0010 5h1v-3h0v-1"/>
        <path stroke="#032e50" d="M475 290l10 5v0l1-3h0v-1"/>
        <path stroke="#032f53" d="M475 290a54 54 0 0010 5 1 1 0 001 0v-3h0v-1"/>
        <path stroke="#033156" d="M475 290l10 5a1 1 0 001-1v-2h0v-1"/>
        <path stroke="#043258" d="M475 290a45 45 0 0010 5l1-1v-2-1s0 0 0 0"/>
        <path stroke="#043359" d="M475 290c2 1 7 4 10 4h1v-2-1s0 0 0 0"/>
        <path stroke="#04355c" d="M475 290c2 0 7 4 10 4h1l-1-3h1s0 0 0 0"/>
        <path stroke="#04365e" d="M475 290c1 0 7 4 10 4h1l-1-3h1s0 0 0 0"/>
        <path stroke="#043760" d="M475 290l10 4h1l-1-3h1s0 0 0 0"/>
        <path stroke="#043862" d="M475 290l10 4h1a13 13 0 00-1-3h1s0 0 0 0"/>
        <path stroke="#053a65" d="M476 290s7 4 10 4v-1l-1-2s0 0 0 0h1"/>
        <path stroke="#053b67" d="M476 290s7 4 10 4v-1l-1-2h1"/>
        <path stroke="#053c68" d="M476 290s7 4 10 4v-1a6 6 0 00-1-2h1"/>
        <path stroke="#053e6c" d="M476 290s8 4 10 3a1 1 0 000 0l-1-2h1"/>
        <path stroke="#053f6e" d="M476 290s8 4 10 3h0l-2-3 1 1h1"/>
        <path stroke="#053f6f" d="M476 290s8 4 10 3h0l-2-3 1 1h1"/>
        <path stroke="#064171" d="M476 289c0 1 8 5 10 4a1 1 0 000 0l-2-3h1l1 1"/>
        <path stroke="#064374" d="M476 289s8 5 10 4h0l-2-3h1l1 1"/>
        <path stroke="#00209f" d="M476 289s9 6 10 3l-2-2h1l1 1"/>
        <path stroke="#011d33" d="M474 315l-7 13a5 5 0 01-2-2l-1-4v-3l-2-7"/>
        <path stroke="#011d33" d="M462 312l2 6v4l1 3a5 5 0 002 3l7-13"/>
        <path stroke="#011e34" d="M462 312l2 6v4l1 3 2 2 7-12"/>
        <path stroke="#011e34" d="M462 312l2 6v4l1 3a6 6 0 002 2l7-12"/>
        <path stroke="#011f36" d="M462 312l2 6v3l1 4a6 6 0 002 2l7-12"/>
        <path stroke="#011f36" d="M462 312l2 6v3l1 4 2 2 7-12"/>
        <path stroke="#022037" d="M462 312l2 6v3l1 4 2 2 7-12"/>
        <path stroke="#022037" d="M462 312l2 6v3l1 4 2 2 7-12"/>
        <path stroke="#022139" d="M462 312l2 6v3l1 3 2 3 7-12"/>
        <path stroke="#022139" d="M462 312l2 6v3l1 3a5 5 0 002 2l7-11"/>
        <path stroke="#022139" d="M462 312l2 6v3l1 3 2 2 7-11"/>
        <path stroke="#02223b" d="M462 312l2 6v3l1 3a5 5 0 002 2l7-11"/>
        <path stroke="#02223b" d="M462 312l2 6v3l1 3a5 5 0 002 2l7-11"/>
        <path stroke="#02233d" d="M462 312l2 6v3l1 3a5 5 0 002 2l7-11"/>
        <path stroke="#02233d" d="M462 312l2 6v3l1 3a7 7 0 002 2l7-11"/>
        <path stroke="#02233e" d="M462 312l2 6v3l1 3a6 6 0 002 2l7-11"/>
        <path stroke="#02233e" d="M462 312l2 6v3l1 3a5 5 0 002 2l7-11"/>
        <path stroke="#022540" d="M462 312l2 5v3l1 3a5 5 0 002 2l7-10"/>
        <path stroke="#022540" d="M462 312l2 5v3l1 3 2 2 7-10"/>
        <path stroke="#022540" d="M462 312l2 5v3l1 3a5 5 0 002 2l7-10"/>
        <path stroke="#022541" d="M462 312l2 5v3l1 3a5 5 0 002 2l7-10"/>
        <path stroke="#022541" d="M462 312l2 5v3l1 3 2 2 7-10"/>
        <path stroke="#022743" d="M462 312l2 5v3l1 3a6 6 0 002 2l7-10"/>
        <path stroke="#022743" d="M462 312l2 5v3l1 3a5 5 0 002 1c1 1 7-9 7-9"/>
        <path stroke="#022845" d="M462 312l2 5v3l1 3a5 5 0 002 1c1 1 7-9 7-9"/>
        <path stroke="#022845" d="M462 312l2 5v3l1 2a5 5 0 002 2l7-9"/>
        <path stroke="#022847" d="M462 312l2 5v3l1 2a5 5 0 002 2l7-9"/>
        <path stroke="#022847" d="M462 312l2 5v3l1 2a5 5 0 002 2l7-9"/>
        <path stroke="#022847" d="M462 312l2 5v2l1 3a5 5 0 002 2l7-9"/>
        <path stroke="#022a49" d="M462 312l2 5v2l1 3 2 2 7-9"/>
        <path stroke="#022a49" d="M462 312l2 5v2l1 3 2 1c1 1 7-8 7-8"/>
        <path stroke="#032a4a" d="M462 312l2 5v2l2 3 1 1c1 1 7-8 7-8"/>
        <path stroke="#032a4a" d="M462 312l2 5v2l2 3a5 5 0 001 1l7-8"/>
        <path stroke="#032b4c" d="M462 312l2 4v3l2 2 1 2 7-8"/>
        <path stroke="#032b4c" d="M462 312l2 4v3l2 2 1 2 7-8"/>
        <path stroke="#032c4d" d="M462 312l2 4v3l2 2 1 2 7-8"/>
        <path stroke="#032c4d" d="M462 312l2 4v3l1 2a5 5 0 002 2l7-8"/>
        <path stroke="#032c4d" d="M462 312a13 13 0 002 4v3l1 2a5 5 0 002 1c1 1 6-7 7-7"/>
        <path stroke="#032d4f" d="M462 312l2 4v2l1 3 2 1c1 1 6-6 7-7"/>
        <path stroke="#032d4f" d="M462 312l2 4v2l1 3a5 5 0 002 1l7-7"/>
        <path stroke="#032e50" d="M462 312l2 4v2l1 3a5 5 0 002 1l7-7"/>
        <path stroke="#032e50" d="M462 312l2 4v2l1 2a5 5 0 002 2l7-7"/>
        <path stroke="#032f53" d="M462 312l2 4v2l2 2a5 5 0 001 2l7-7"/>
        <path stroke="#032f53" d="M462 312a11 11 0 002 4v2l2 2a5 5 0 001 2l7-7"/>
        <path stroke="#033054" d="M462 312a12 12 0 002 4v2l2 2a5 5 0 001 1c1 1 6-6 7-6"/>
        <path stroke="#033054" d="M462 312l2 4 1 2 1 2a5 5 0 001 1c1 1 6-5 7-6"/>
        <path stroke="#033054" d="M462 312l2 4 1 2 1 2a5 5 0 001 1l7-6"/>
        <path stroke="#033156" d="M462 312l2 4 1 2 1 2a5 5 0 001 1l7-6"/>
        <path stroke="#033156" d="M462 312l2 4 1 2 1 2a5 5 0 001 1l7-6"/>
        <path stroke="#043258" d="M462 312l2 4 1 1 1 2 1 2 7-6"/>
        <path stroke="#043258" d="M462 312a8 8 0 002 3l1 3 1 2 1 1 7-6"/>
        <path stroke="#043359" d="M462 312l2 3 1 2 1 2 1 2 7-6"/>
        <path stroke="#043359" d="M462 312l2 3 1 2 1 2 1 1c1 1 6-4 7-5"/>
        <path stroke="#04345b" d="M462 312l2 3 1 2 1 2 1 1c1 1 6-4 7-5"/>
        <path stroke="#04345b" d="M462 312l2 3 1 2 1 2 1 1 7-5"/>
        <path stroke="#04345b" d="M462 312l2 3 1 2 1 2 1 1 7-5"/>
        <path stroke="#04355c" d="M462 312l2 3 1 2 1 2 1 1 7-5"/>
        <path stroke="#04355c" d="M462 312l2 3 1 2 1 2 1 1 7-5"/>
        <path stroke="#04365e" d="M462 312l2 3 1 2 1 1 1 1c2 1 6-3 7-4"/>
        <path stroke="#04365e" d="M462 312l2 3 1 2 1 1 1 1c2 1 6-3 7-4"/>
        <path stroke="#043760" d="M462 312l2 3 1 2 1 1 1 1c2 1 6-3 7-4"/>
        <path stroke="#043760" d="M462 312l2 3 1 1 1 2 1 1c2 1 6-3 7-4"/>
        <path stroke="#043862" d="M462 312l2 3 1 1 1 2 1 1 7-4"/>
        <path stroke="#043862" d="M462 312l2 3 1 1 1 2 1 1 7-4"/>
        <path stroke="#043862" d="M462 312l2 3 1 1 1 2 1 1 7-4"/>
        <path stroke="#043963" d="M462 312l2 3 1 1 1 2h1c2 1 6-2 7-3"/>
        <path stroke="#043963" d="M462 312l2 3 1 1 1 1 1 1c2 1 6-2 7-3"/>
        <path stroke="#053a65" d="M462 312l2 2 1 2 1 1 1 1c2 1 6-2 7-3"/>
        <path stroke="#053a65" d="M462 312l2 2 1 2 1 1 1 1c2 1 6-2 7-3"/>
        <path stroke="#053b67" d="M462 312l2 2 1 2 1 1 1 1 7-3"/>
        <path stroke="#053b67" d="M462 312l2 2 1 2 1 1 1 1 7-3"/>
        <path stroke="#053c68" d="M462 312l2 2 1 2 1 1 1 1 7-3"/>
        <path stroke="#053c68" d="M462 312l2 2 1 1 1 2h1c2 1 5-1 7-2"/>
        <path stroke="#053c68" d="M462 312a6 6 0 002 2l1 1 1 2a6 6 0 001 0c2 1 5-1 7-2"/>
        <path stroke="#053d6a" d="M462 312l2 2 1 1 1 1a6 6 0 001 1c2 1 5-1 7-2"/>
        <path stroke="#053d6a" d="M462 312a6 6 0 002 2l1 1 1 1 1 1c2 1 5-1 7-2"/>
        <path stroke="#053e6c" d="M462 312l2 2 1 1 1 1 1 1c2 1 5-1 7-2"/>
        <path stroke="#053e6c" d="M462 312l1 2 2 1 1 1 1 1 7-2"/>
        <path stroke="#053f6e" d="M462 312l1 2 2 1 1 1 1 1 7-2"/>
        <path stroke="#053f6e" d="M462 312l1 2a14 14 0 002 1l1 1 1 1 7-2"/>
        <path stroke="#053f6f" d="M462 312l1 2 2 1 1 1h1c2 1 5 0 7-1"/>
        <path stroke="#053f6f" d="M462 312l1 2 2 1 1 1h1c2 1 5 0 7-1"/>
        <path stroke="#053f6f" d="M462 312l1 2 2 1 1 1h1c2 1 5 0 7-1"/>
        <path stroke="#064171" d="M462 312l1 2h2l1 1 1 1c2 1 5 0 7-1"/>
        <path stroke="#064171" d="M462 312l1 2h2l1 1 1 1 7-1"/>
        <path stroke="#064172" d="M462 312l1 1 2 1 1 1 1 1 7-1"/>
        <path stroke="#064172" d="M462 312l1 1 2 1 1 1 1 1 7-1"/>
        <path stroke="#064374" d="M462 312l1 1 2 1a13 13 0 002 1h7"/>
        <path stroke="#064374" d="M462 312l1 1 2 1a16 16 0 002 1h7"/>
        <path stroke="#00209f" d="M462 312l1 1 2 1 1 1a12 12 0 008 0m-12-3s6 5 12 3"/>
        <path stroke="#022743" d="M462 292l1 9c1 2 3 6 7 7"/>
        <path stroke="#022a49" d="M462 292l1 9c1 1 3 6 7 7"/>
        <path stroke="#032b4c" d="M462 292l2 9a14 14 0 006 7"/>
        <path stroke="#032e50" d="M462 292l2 9c0 1 2 5 6 7"/>
        <path stroke="#033054" d="M462 292l2 9a15 15 0 006 7"/>
        <path stroke="#043359" d="M462 292l2 9a16 16 0 006 7"/>
        <path stroke="#04355c" d="M462 292l2 9c0 1 2 4 6 7"/>
        <path stroke="#043760" d="M462 292l2 9c1 1 2 4 6 7"/>
        <path stroke="#053a65" d="M462 292l2 9c1 1 2 4 6 7"/>
        <path stroke="#053c68" d="M462 292l2 9 6 7"/>
        <path stroke="#053f6e" d="M462 292l2 9 6 7"/>
        <path stroke="#064172" d="M462 292l2 9 6 7"/>
        <path stroke="#00209f" d="M462 292l3 9 5 7"/>
        <path stroke="#022743" d="M462 287s1 12 9 15"/>
        <path stroke="#022a49" d="M462 287l2 7c1 3 4 6 7 8"/>
        <path stroke="#032b4c" d="M462 287l2 7a15 15 0 007 8"/>
        <path stroke="#032e50" d="M462 287l2 7 7 8"/>
        <path stroke="#033054" d="M462 287l2 7 7 8"/>
        <path stroke="#043359" d="M462 287l3 7c1 2 3 6 6 8"/>
        <path stroke="#04355c" d="M462 287l3 7a18 18 0 006 8"/>
        <path stroke="#043760" d="M462 287s1 5 3 7c1 2 3 6 6 8"/>
        <path stroke="#053a65" d="M462 287a30 30 0 003 7l6 8"/>
        <path stroke="#053c68" d="M462 287l3 7 6 8"/>
        <path stroke="#053f6e" d="M462 287a30 30 0 003 7l6 8"/>
        <path stroke="#064172" d="M462 287a31 31 0 003 7l6 8"/>
        <path stroke="#00209f" d="M462 287l3 7 6 8"/>
        <path stroke="#022743" d="M462 284s3 9 9 12"/>
        <path stroke="#022847" d="M462 284l3 6c2 3 4 5 6 5"/>
        <path stroke="#032a4a" d="M462 284l3 6c2 2 4 5 6 5"/>
        <path stroke="#032c4d" d="M462 284l3 6c2 3 4 5 6 5"/>
        <path stroke="#032f53" d="M462 284l3 6a15 15 0 006 5"/>
        <path stroke="#033156" d="M462 284l3 6 6 5"/>
        <path stroke="#043359" d="M462 284l4 6a17 17 0 005 5"/>
        <path stroke="#04355c" d="M462 284a27 27 0 009 11"/>
        <path stroke="#043760" d="M462 284l4 6a21 21 0 005 5"/>
        <path stroke="#043963" d="M462 284l4 6a23 23 0 005 5"/>
        <path stroke="#053b67" d="M462 284l4 6a28 28 0 005 5"/>
        <path stroke="#053e6c" d="M462 284l4 6a39 39 0 005 5"/>
        <path stroke="#053f6f" d="M462 284l4 6a44 44 0 005 5"/>
        <path stroke="#064172" d="M462 284l4 6 5 5"/>
        <path stroke="#00209f" d="M462 284l4 5 5 6m9 2h4m-4 3l4-2"/>
        <path stroke="#064171" d="M480 297h4"/>
        <path stroke="#053e6c" d="M480 297h4"/>
        <path stroke="#053b67" d="M480 297h4"/>
        <path stroke="#043862" d="M480 297h5"/>
        <path stroke="#04355c" d="M480 297h5"/>
        <path stroke="#043258" d="M480 298h5"/>
        <path stroke="#032f53" d="M480 298l5-1"/>
        <path stroke="#032c4d" d="M480 298h5"/>
        <path stroke="#022a49" d="M480 298h5"/>
        <path stroke="#064171" d="M480 300l5-2"/>
        <path stroke="#053e6c" d="M480 300l5-2"/>
        <path stroke="#053b67" d="M480 300l5-2"/>
        <path stroke="#043862" d="M480 299l5-1"/>
        <path stroke="#04355c" d="M480 299l5-1"/>
        <path stroke="#043258" d="M480 299l5-1"/>
        <path stroke="#032f53" d="M480 299l5-1"/>
        <path stroke="#032c4d" d="M480 299l5-1"/>
        <path stroke="#022a49" d="M480 298h5"/>
        <path stroke="#022743" d="M480 298h5"/>
        <path stroke="#032b4c" d="M484 332h-12"/>
        <path stroke="#032e50" d="M484 332h-12"/>
        <path stroke="#033054" d="M484 332h-12"/>
        <path stroke="#043359" d="M484 332h-12"/>
        <path stroke="#04355c" d="M484 332h-3-9"/>
        <path stroke="#043760" d="M484 332h-3-9"/>
        <path stroke="#053a65" d="M484 332l-3 1-9-1"/>
        <path stroke="#053c68" d="M484 332l-3 1-9-1"/>
        <path stroke="#053f6e" d="M484 332l-3 1-9-1"/>
        <path stroke="#064172" d="M484 332l-3 1-9-1"/>
        <path stroke="#00209f" d="M473 332l8 1 3-1"/>
        <path stroke="#022a49" d="M486 337l5 1 3-1h2"/>
        <path stroke="#032d4f" d="M486 337l5 1h3l2-1"/>
        <path stroke="#033054" d="M486 337l5 1 2-1h2"/>
        <path stroke="#043359" d="M485 337h6a57 57 0 012 0h2"/>
        <path stroke="#043760" d="M485 337h10"/>
        <path stroke="#053a65" d="M485 337h10"/>
        <path stroke="#053d6a" d="M485 336l6 1h2a24 24 0 001 0"/>
        <path stroke="#064171" d="M484 336l7 1h3"/>
        <path stroke="#022743" d="M486 337l5 1h3l2-1"/>
        <path stroke="#00209f" d="M484 336l7 1h3m12 0l4-2c3-1 3-3 3-3"/>
        <path stroke="#00209f" d="M506 336l3-1c3-2 3-4 3-4"/>
        <path stroke="#053e6c" d="M505 336l4-1 1-1 2-1v-1"/>
        <path stroke="#043862" d="M505 336l4-1 1-1 2-1v-1"/>
        <path stroke="#043258" d="M505 337l4-2 1-1a6 6 0 002-1v-1"/>
        <path stroke="#032c4d" d="M504 337l5-2 1-1 2-1v-1"/>
        <path stroke="#053e6c" d="M506 337l4-2 2-1 1-2"/>
        <path stroke="#043862" d="M505 337l5-2 2-2 1-1"/>
        <path stroke="#043258" d="M505 337l5-2a8 8 0 002-2l1-1"/>
        <path stroke="#032c4d" d="M505 337l5-2 2-2 1-1"/>
        <path stroke="#022743" d="M504 337l6-2 2-2v-1"/>
        <path stroke="#032b4c" d="M511 332h-13"/>
        <path stroke="#032e50" d="M511 332h-13"/>
        <path stroke="#033054" d="M511 332h-3-10"/>
        <path stroke="#043359" d="M511 332h-3-9"/>
        <path stroke="#04355c" d="M511 332h-12"/>
        <path stroke="#043760" d="M511 332h-12"/>
        <path stroke="#053a65" d="M511 332l-3 1-9-1"/>
        <path stroke="#053c68" d="M511 332l-3 1-9-1"/>
        <path stroke="#053f6e" d="M511 332l-3 1-9-1"/>
        <path stroke="#064172" d="M511 332l-3 1-9-1"/>
        <path stroke="#00209f" d="M499 332l9 1 4-1"/>
      </g>
      <path fill="none" stroke="#000" stroke-miterlimit="3" stroke-width="0" d="M475 290a34 34 0 010-3v-15l1-14v-4l21 23m-30 51a5 5 0 01-2-3l-1-3v-4l-2-6c0-4-2-8-1-13v-17l24 16m28 33v2l-1 1v1h-1l-1 1-4 1-2 1-3 1h-2l-9 1-5-2-7-3-2-1-5-2"/>
      <g stroke="#000" stroke-miterlimit="3" stroke-width="0">
        <path fill="#fc0" fill-rule="evenodd" d="M485 298v-1l-23-16-1 1zm-24-17l1-2h1s0 0 0 0c1 1 0 1-1 2h-1 0l2-1v-1h-1l-1 2s0 0 0 0zM461 281l-2 1v2l2-2v-1h0v1l-1 2h-1l-1-2 3-1s0 0 0 0z"/>
        <path fill="#fc0" fill-rule="evenodd" d="M461 281v1s0 0 0 0l1-1h-1zM456 278l4 1 1 2h-3l-2-3z"/>
        <path fill="none" d="M458 279h1l1 1h-1l-1-1z"/>
        <path fill="#fc0" fill-rule="evenodd" d="M461 283v-1l1 1 1 2-3 1v-2l1-1z"/>
        <path fill="none" d="M461 282v1h1v3m0-3v3m-1-2l1 2h-1"/>
        <path fill="#fc0" fill-rule="evenodd" d="M497 277h1l-22-24v1zM477 253l1-2h1v1l-2 1h0-1 3v-2h-2l-1 2h1z"/>
        <path fill="#fc0" fill-rule="evenodd" d="M476 253l-2 1v1s0 0 0 0c1 1 1 0 2-1 0 0 0 0 0 0h0l-1 1h-2l1-2h3-1z"/>
        <path fill="#fc0" fill-rule="evenodd" d="M476 253v1s0 0 0 0l1-1h-1zM472 249l4 2v2h-3l-1-4z"/>
        <path fill="none" d="M474 250l1 1v1h-1v-2z"/>
        <path fill="#fc0" fill-rule="evenodd" d="M476 255l1-1v4h-2v-2l1-1z"/>
        <path fill="none" d="M476 254v1l1 1v2m-1-3v3m0-1v1h0"/>
      </g>
    </g>
    <use xlink:href="#c" width="100%" height="100%" transform="matrix(-1 0 0 1 1030 0)"/>
  </g>
  <path fill="#fc0" d="M319 198l-40 67h81z"/>
  <path fill="#fff" d="M319 202l-36 61h73z"/>
  <path fill="#007e93" d="M294 245l-11 18h73l-11-18z"/>
  <g fill="none" stroke-miterlimit="3" stroke-width="0">
    <path d="M313 213a9 9 0 016-2c3 0 5 0 7 2"/>
    <path d="M313 213a9 9 0 016-2c3 0 5 0 7 2"/>
    <path d="M313 213a9 9 0 016-2c3 0 5 0 7 2"/>
    <path d="M313 213a9 9 0 016-2l7 2"/>
    <path d="M313 213c1-2 4-2 6-2l7 2"/>
    <path d="M313 213l6-2h1l6 2"/>
    <path d="M313 213l6-2h1c2 0 5 1 6 3"/>
    <path d="M312 214c2-2 5-2 7-2h1c3 0 5 1 7 3"/>
    <path d="M312 214c2-2 5-3 7-3h1c3 0 5 1 7 4"/>
    <path d="M312 214c2-2 4-3 7-3s6 1 8 3"/>
    <path d="M312 214c2-2 5-3 7-3 3 0 6 1 8 3"/>
    <path d="M313 214c1-2 4-3 6-3 3 0 6 1 7 3"/>
    <path d="M313 214c1-2 4-3 6-3 3 0 6 1 7 3"/>
    <path d="M313 214c1-2 4-3 6-3 3 0 6 1 7 3"/>
    <path d="M313 214c1-2 4-3 6-3 3 0 6 1 7 3M315 209a7 7 0 014-1l4 1"/>
    <path d="M315 209a7 7 0 014-1 7 7 0 014 1"/>
    <path d="M315 209a7 7 0 014-1l4 1"/>
    <path d="M315 209a7 7 0 014-1l4 1"/>
    <path d="M315 209a7 7 0 014-1l4 1"/>
    <path d="M315 209a7 7 0 014-1l5 1"/>
    <path d="M315 209a7 7 0 014-1l5 1"/>
    <path d="M315 209a7 7 0 014-1 8 8 0 015 1"/>
    <path d="M315 210a7 7 0 014-2l5 1"/>
    <path d="M315 210a7 7 0 014-2 8 8 0 015 2"/>
    <path d="M315 210a7 7 0 014-2 8 8 0 015 2M314 211a10 10 0 0111 0"/>
    <path d="M314 211a9 9 0 015-1l6 1"/>
    <path d="M314 211a9 9 0 015-1l6 1"/>
    <path d="M314 211a9 9 0 015-2l6 2"/>
    <path d="M314 211a9 9 0 015-2 9 9 0 016 2"/>
    <path d="M314 211l5-2a8 8 0 015 2"/>
    <path d="M314 211l5-2 5 2"/>
    <path d="M314 211a8 8 0 015-2l5 2"/>
    <path d="M314 211a8 8 0 015-2 8 8 0 015 1"/>
    <path d="M315 210a8 8 0 014-1l5 1"/>
    <path d="M315 210a8 8 0 014-1l5 1"/>
    <path d="M315 210a8 8 0 014-1l5 1"/>
    <path d="M315 210a8 8 0 014-1l5 1"/>
    <path d="M315 210a8 8 0 014-1l5 1"/>
    <path d="M315 210a8 8 0 014-1 8 8 0 015 1"/>
    <path d="M315 210a7 7 0 014-1l5 1"/>
    <path d="M315 210a7 7 0 014-1 8 8 0 015 1"/>
    <path d="M314 211a10 10 0 015-1l6 1"/>
    <path d="M314 212a9 9 0 015-2c2 0 5 0 6 2"/>
    <path d="M314 212a9 9 0 015-2c2 0 5 0 6 2"/>
    <path d="M314 212a9 9 0 015-2c2 0 5 0 6 2"/>
    <path d="M314 212a9 9 0 015-2l6 2"/>
    <path d="M314 212a9 9 0 015-2l6 2"/>
    <path d="M314 212a8 8 0 015-2l6 2"/>
    <path d="M314 212a8 8 0 015-2l6 2"/>
    <path d="M313 212a8 8 0 016-2l6 2"/>
    <path d="M313 213a9 9 0 016-2 9 9 0 017 2"/>
    <path d="M313 213a9 9 0 016-3 9 9 0 017 3"/>
    <path d="M313 213a9 9 0 016-2 9 9 0 016 2"/>
    <path d="M313 213a9 9 0 016-3 9 9 0 016 3"/>
    <path d="M313 213a9 9 0 016-2c3 0 5 0 6 2"/>
    <path d="M313 213a9 9 0 016-3l6 2"/>
    <path d="M313 212a8 8 0 016-2l6 2"/>
    <path d="M313 212l6-2 6 2M323 209a7 7 0 00-4-1 7 7 0 00-4 1M327 215c-2-2-4-3-8-3-3 0-5 0-7 2"/>
    <path d="M326 213c-2-2-4-2-7-2a9 9 0 00-6 2"/>
    <path d="M326 214c-1-2-4-3-7-3l-6 2M325 211a9 9 0 00-6-1l-5 1"/>
    <path d="M324 210a8 8 0 00-5-2 7 7 0 00-4 2"/>
    <path d="M325 212a10 10 0 00-6-2 8 8 0 00-6 2"/>
  </g>
  <g fill="none" stroke-miterlimit="3" stroke-width="0">
    <path d="M312 215a16 16 0 017-2l8 2 8 13a15 15 0 01-31 0l8-14z"/>
    <path d="M319 213l8 2 7 13c0 8-6 15-15 15-8 0-15-7-15-15l8-13a16 16 0 017-2z"/>
    <path d="M319 213l8 2 7 13c0 8-7 15-15 15a15 15 0 01-14-15l7-13a16 16 0 017-2z"/>
    <path d="M319 214l7 2 8 12a14 14 0 01-15 14c-8 0-14-6-14-14l7-13a16 16 0 017-1z"/>
    <path d="M319 214l7 2 7 12c0 7-6 14-14 14s-13-6-13-14l7-12 6-2z"/>
    <path d="M319 215c3 0 5 0 7 2l7 11c0 7-6 13-14 13s-13-6-13-13l7-12 6-1z"/>
    <path d="M319 215l7 2 6 11c0 7-6 13-13 13s-12-6-12-13l6-11a13 13 0 016-2z"/>
    <path d="M319 216l6 1a76 76 0 017 11c0 7-6 12-13 12a12 12 0 01-12-12l6-11 6-1z"/>
    <path d="M319 216l6 2 6 10a12 12 0 01-12 12 12 12 0 01-12-12l7-10a13 13 0 015-2z"/>
    <path d="M319 219l5 1 4 8a9 9 0 01-9 9 9 9 0 01-9-9l5-8a10 10 0 014-1z"/>
    <path d="M319 219a9 9 0 015 1l4 8a9 9 0 11-18 0l5-8a9 9 0 014-1z"/>
    <path d="M319 220a8 8 0 014 1l4 7a8 8 0 01-8 8 8 8 0 01-8-8l4-7 4-1z"/>
    <path d="M319 220a8 8 0 014 1 16 16 0 014 7 8 8 0 01-8 8 8 8 0 01-7-8l4-7a8 8 0 013-1z"/>
    <path d="M319 213l8 2 7 13a15 15 0 01-15 15 15 15 0 01-15-15l8-13a16 16 0 017-2z"/>
    <path d="M319 214l7 2 8 12a15 15 0 01-29 0l7-13a15 15 0 017-1z"/>
    <path d="M319 214l7 2 7 12c0 8-6 14-14 14s-14-6-14-14l8-12a15 15 0 016-2z"/>
    <path d="M319 214l7 2 7 12a14 14 0 01-14 14 14 14 0 01-14-14l8-12 6-2z"/>
    <path d="M319 215c3 0 5 0 7 2l7 11c0 7-6 13-14 13s-13-6-13-13l7-12 6-1z"/>
    <path d="M319 215l7 2 6 11c0 7-6 13-13 13a13 13 0 01-13-13l7-11a14 14 0 016-2z"/>
    <path d="M319 215l7 2 6 11c0 7-6 13-13 13a13 13 0 01-13-13l7-11a14 14 0 016-2z"/>
    <path d="M319 216l6 1 7 11c0 7-6 12-13 12a13 13 0 01-12-12l6-11a13 13 0 016-1z"/>
    <path d="M319 216l6 2 6 10a12 12 0 01-12 12 12 12 0 01-12-12 88 88 0 017-11l5-1z"/>
    <path d="M319 216l6 2a87 87 0 016 10c0 6-5 12-12 12-6 0-11-6-11-12l6-10a12 12 0 015-2z"/>
    <path d="M319 217l6 1 6 10c0 6-5 11-12 11s-11-5-11-11l6-10a12 12 0 015-2z"/>
    <path d="M319 217l6 1 6 10a11 11 0 01-23 0l6-10a12 12 0 015-1z"/>
    <path d="M319 217l6 2a55 55 0 015 9c0 6-5 11-11 11s-11-5-11-11l6-10a12 12 0 015-1z"/>
    <path d="M319 217l6 2 5 9c0 6-5 11-11 11a11 11 0 01-10-11l5-10a11 11 0 015-1z"/>
    <path d="M319 217l6 2 5 9c0 6-5 11-11 11a11 11 0 01-10-11l5-9a11 11 0 015-2z"/>
    <path d="M319 218l6 1 5 9c0 6-5 10-11 10s-10-4-10-10l5-9a11 11 0 015-1z"/>
    <path d="M319 218l5 1 6 9c0 5-5 10-11 10a10 10 0 01-10-10l5-9a11 11 0 015-1z"/>
    <path d="M319 218l5 1 5 9c0 5-4 10-10 10s-10-5-10-10a39 39 0 015-9 11 11 0 015-1z"/>
    <path d="M319 218l5 2 5 8c0 5-4 10-10 10s-10-5-10-10l5-9a10 10 0 015-1z"/>
    <path d="M319 218l5 2 5 8a10 10 0 11-19 0l5-8a10 10 0 014-2z"/>
    <path d="M319 219a10 10 0 015 1l5 8c0 5-5 9-10 9s-9-4-9-9l5-8a10 10 0 014-1z"/>
    <path d="M319 219l5 1 4 8a9 9 0 01-9 9 9 9 0 01-8-9l4-8a9 9 0 014-1z"/>
    <path d="M319 219a9 9 0 015 2l4 7a9 9 0 01-9 8 9 9 0 01-8-8l4-8a9 9 0 014-1z"/>
    <path d="M319 220l5 1a19 19 0 014 7 8 8 0 01-17 0l4-7a9 9 0 014-1z"/>
    <path d="M319 220l4 1 4 7a8 8 0 01-8 8 8 8 0 01-8-8l4-7 4-1z"/>
    <path d="M319 220l4 1a15 15 0 014 7 8 8 0 01-8 7 8 8 0 01-7-7c0-1 2-6 4-7a8 8 0 013-1z"/>
    <path d="M319 221l4 1a13 13 0 014 6c0 4-4 7-8 7a7 7 0 01-7-7 14 14 0 014-6 8 8 0 013-1z"/>
    <path d="M319 221a8 8 0 014 1 13 13 0 013 6c0 4-3 7-7 7a7 7 0 01-7-7c0-2 3-6 4-6a7 7 0 013-1z"/>
    <path d="M319 221a7 7 0 014 1l3 6a7 7 0 01-7 7 7 7 0 01-7-7c0-2 3-5 4-6a7 7 0 013-1z"/>
    <path d="M319 221a7 7 0 014 1l3 6a7 7 0 11-13 0l3-6 3-1z"/>
    <path d="M319 221l4 1 3 6a7 7 0 01-7 6 7 7 0 01-6-6l3-6a7 7 0 013-1z"/>
    <path d="M319 222h4l3 6a6 6 0 01-7 6 6 6 0 01-6-6 9 9 0 013-6h3z"/>
    <path d="M319 222l3 1a8 8 0 013 5 6 6 0 01-6 6 6 6 0 01-6-6c0-2 2-5 3-5a6 6 0 013-1z"/>
    <path d="M319 222a6 6 0 013 1c2 1 3 3 3 5a6 6 0 01-6 6 6 6 0 01-6-6c0-2 2-4 3-5a6 6 0 013-1z"/>
    <path d="M319 222a6 6 0 013 1 7 7 0 013 5 6 6 0 01-11 0 7 7 0 013-5 6 6 0 012-1z"/>
    <path d="M319 222l3 1a7 7 0 013 5 6 6 0 11-11 0c0-2 1-4 3-5a6 6 0 012-1z"/>
    <path d="M319 223h3a6 6 0 013 5 5 5 0 01-6 5 5 5 0 01-5-5 6 6 0 013-5 5 5 0 012 0z"/>
    <path d="M319 223l3 1a5 5 0 012 4 5 5 0 11-10 0c0-2 1-4 3-4a5 5 0 012-1z"/>
    <path d="M319 233a5 5 0 005-5c0-3-2-5-5-5a5 5 0 00-5 5 5 5 0 005 5z"/>
  </g>
  <path fill="#fff" fill-rule="evenodd" d="M319 233a5 5 0 005-5 5 5 0 00-5-5 5 5 0 00-5 5 5 5 0 005 5z"/>
  <g stroke="none" stroke-width="0">
    <path fill="none" d="M320 223l1-3m-1 3v-3m-1 3v-3m0 3l-1-3m0 3v-3m0 3l-1-2m0 2l-1-2m1 3l-2-3m2 3l-2-2m1 2l-2-2m2 3l-2-2m1 2l-2-2m2 2l-2-1m2 2l-3-1m3 1l-3-1m3 2l-3-1m2 1h-2m2 1h-2m2 0l-2 1m2 0l-2 1m3-1l-3 1m3 0l-3 1m3-1l-3 2m3-1l-5 4m6-4l-7 6m7-5l-5 5m5-5l-4 5m5-5l-4 7m4-7l-2 5m3-4l-3 7m3-7l-1 4m2-4l-1 7m2-7v2m0-2l2 6m-1-7l1 5m-1-5l3 7m-2-7l3 6m-3-6l5 6m-4-6l4 4m-4-5l6 6m-6-6l4 2m-3-3l2 2m-2-2l2 1m-2-1h2m-2-1l3 1m-3-1h3m-3-1h3m-3-1h3m-3 0l3-1m-3 0h2m-2 0l2-1m-2 0l2-1m-3 1l2-2m-2 2l2-2m-2 1l1-2m-2 2l2-2m-2 2l1-3m-2 2l1-2m-1 2l1-2m-3-4v-2m-2 2v-2m-2 3l-1-2m-1 3l-1-2m-1 3l-1-1m0 3l-2-1m1 3h-2m1 3l-2-1m2 3h-2m3 2l-2 1m22 1l2 1m-1-3l2 1m-2-3h2m-2-2h2m-2-3h2m-3-2l2-1m-3-1l1-1m-3 0l1-2m-3 1l1-2m-3 1v-2"/>
    <path fill="#e60000" fill-rule="evenodd" d="M322 230h-4-1l2 1h2l1-1zM317 230l1-3h-1v-1l1-1h1l1 1 1 2 1 1v1h-5v-1z"/>
    <path fill="none" d="M317 230l3-1h2"/>
    <path fill="#fc0" fill-rule="evenodd" d="M319 237v-7h1v13l-1-6z"/>
  </g>
  <g fill="#e60000">
    <path fill-rule="evenodd" d="M312 231l-1 1h-1l2-1zm-2 0a1 1 0 010-1l1-1 1 1-1 1v-1h-1a1 1 0 001 0v1h-2v-1h1zm0-4h-1v1l1-1 1-1v2h-1l1-1h-1v1l-1-1 1-1v1zm0-2l1-1-1 1 1 1 1-2-1 2-2-1 1-1z"/>
    <path d="M311 222l-1 1 2 1h-1l1-1-1-1zm0 0v0z"/>
    <path fill-rule="evenodd" d="M314 222h-1l-1-1h-1l2-1-1 1zm0-1l-1-1 1 1zm0-2l1 1 1-1-1 1v1l1-1-1 1-1-2 1-1v1zm4 1v-2 2h-1l-1-2 1 1v1l-1-2 1 2 1-2 1 2h-1z"/>
    <path d="M319 218v2h1l1-1h-1l1-1h-2zm0 0h1v1h-1v-1zm0 1h1v1h-1v-1zm2-1v2-1h1v1h1v-1l-1-1h-1zm1 0l1 1h-1v-1z"/>
    <path fill-rule="evenodd" d="M324 219v1h1-2l1 1-1-1 1-1h1v1z"/>
    <path d="M327 221l-2 1 1 1h1v-2zm0 0v2h-1v-1l1-1z"/>
    <path fill-rule="evenodd" d="M328 223h-1l1 1v1l-1-2v2l-1-1 2-1 1 1zm-1 4l2-1v1h-2z"/>
    <path d="M328 228a1 1 0 00-1 0l1 1h1l1-1h-1-1zm0 0v0zm1 0v0z"/>
    <path fill-rule="evenodd" d="M329 230v1l-1-1-1 1v-2l1 1 1 1v-1zm-2 2v-1l1 1v-1 1h1-2z"/>
  </g>
  <path fill="none" d="M319 202l-36 61h73z"/>
  <g fill="none" stroke-miterlimit="3">
    <path d="M321 256a6 6 0 004 0c1-1 3-2 4-1l6 1 4-1h4l5 1M293 258l5-1 6 1 5-1 5 1a6 6 0 002 0 10 10 0 003-1h3l3 1h4c1-1 3-2 5-1l5 1 5-1h3c2 0 2 2 5 1"/>
    <path d="M289 256a8 8 0 015-1l6 1 5-1 5 1h2a9 9 0 003-1h3l3 1h4l4-1 6 1 4-1h4l5 1"/>
    <path stroke="#fff" d="M285 262a6 6 0 015-1l6 1 5-1 5 1a6 6 0 002 0 8 8 0 003-1h4l3 1h3l5-2 5 2 5-1h3l5 1"/>
    <path d="M286 259c2-1 4-2 5-1l6 1 2-1M297 255h10m25 8l3-1h4l3 1a6 6 0 003 0c1-1 3-2 5-1l5 1M337 255l4-1h4l5 1M286 262a8 8 0 015-1l5 1 5-1 5 1a8 8 0 002 0 10 10 0 003-1h4l3 1"/>
    <path stroke="#000" d="M290 260c1-1 4-2 5-1l6 1 4-1 6 1a7 7 0 002 0 11 11 0 003-1h10l4-1 6 2 5-2 3 1 5 1"/>
  </g>
  <g fill="#fc0" fill-rule="evenodd" stroke="none" stroke-width="0">
    <path d="M291 250l2-1v-1l2-1a11 11 0 003-3 18 18 0 016-6h3v1l4 2c2 0 2 1 3 2l2 2h1l2 2a67 67 0 013 3l3 2 3 2h-40l3-4z"/>
    <path d="M327 254l-2-2-3-2a67 67 0 00-3-4l-2-1a9 9 0 01-2-2l-2-2a8 8 0 011 0h3l3 2 3 2 1 1h1l1 1 3 3v1l2 1 3 2h-7z"/>
    <path d="M319 242l1 1 3 2 1 1h1l1 2a63 63 0 013 2v1l2 1 2 1h5l-2-1-2-1v-1l-2-2-2-1v-1a6 6 0 01-2-1l-2-2a9 9 0 01-3-1h-2a10 10 0 00-2 0z"/>
    <path d="M328 244v1l2 1v1l2 1 2 2v1l2 1 2 1h6l-2-1-1-1-1-1a94 94 0 00-2-2l-1-1a5 5 0 01-1-1l-2-1a7 7 0 01-3-1v-1h-2a10 10 0 00-1 1z"/>
    <path d="M343 253a7 7 0 00-1-1l-1-2h-1l-2-2-1-1a6 6 0 01-1-1l-2-1a6 6 0 011-1h2v1l2 1 2 1 1 1 1 1 2 1 1 2h2-5z"/>
  </g>
  <path fill="none" d="M303 239h1m-2 1h1m-1 0h1m-2 0h1m-1 1h1m-2 0h2m-2 1h1m-2 1h2m-3 1h2m-11 10l6-1m3-10h2m-2 1h1m0 1h-2m2 0a3 3 0 00-2 0m-1 1h2m-2 0h2m-3 1h3m-1 0h-3m3 1h-2a4 4 0 00-2 0m0 0a1 1 0 011 0h2v1m-3 0h3m-4 0h4m-5 0l3 1h2m-5 0h5m-5 0l3 1h1m-5 0h5m-5 1h5m-6 0h6m-6 1h6m6-7l1 1m-1 0h1m-1 0h1m-2 1h2m-2 0h2m-2 1h1m-1 0h1m-2 0l2 1m-2 0h2m-2 1h2m-3 0h3m-3 0l2 1h1m-3 0h3m-4 0h4m-4 1h4m-4 0l4 1m2-7h1m-1 1h1m-1 0h1m-1 1h1m-1 0h1m-1 1h1m-2 0h2m-2 1h2m-2 0h2m-2 1h2m-2 0h3m-3 1h3m-3 0h4m-4 1l4-1m-11 0h1m11 1h4m-5-1h5m-9 0h-1m-4 0h-2m12-11h1m-1 0h1m-1 0h1m1 2h-1m0 0h1m0 1h-1m0 0h1m0 0l-1 1m1 0h1m0 0h-1v1m0 0h1m1 0l-2 1m0 0h2m-2 1h2m1 0h-2m0 1a4 4 0 012 0m0 0h-2m0 1h2m1 0h-2-1m0 1h1l2-1m0 1h-2-1m1 1l1-1h2m0 1h-3m0 1l2-1h1m-3 1h4m0-1h4m-4 1h4m-1-3h1m-1 1h1m0 1l1-1m-1 1h1m-1 1l2-1m-2 1h3m0 0h5m-5-1h5m-13-10h1m-1 0h2m-1 1l1-1m-1 1h2m0 0h-1m1 1l1-1m0 1h-1m0 0h1m1 1h-1m1 0h1m0 0h-1m1 1h1m0 0h-1m3 1h-2m1 1h1m0 1h2m1 0l-2 1h-1m1 0h2m1 0h-3m1 1h3m0 0h-3m1 1l2-1h1m1 1a4 4 0 00-2 0h-1m0 0h3m-3 0h3m-16-11h1m-1 0h1m5 6h2m0 1h2m0 1h-2m-8-9l-1 1m8 1h1m0 1l1-1m-1 1h1m-1 0h1m1 0a4 4 0 00-1 1m0 0h1m1 0h-2m1 1l1-1m1 1h-2m1 0h1m1 0l-2 1m1 0h1m1 0h-1-1m3 1h-2m1 1l1-1m0 2h2m1 0h-3m1 1h2m1 0h-3m1 1l2-1m1 1h-3m1 0h3m0 0h-1l-2 1m1 0h2m-2 0h3m-15-10h1m-2 0h1v-1h1m5 6h1m0 1h2m0 1h-1m-8-8a2 2 0 00-1 1m8 2h1m-1 0h1m0 1h1m-1 0h1m0 0h-1m1 0h1m0 1h-1m0 0h2m0 0h-1m0 0h1m1 1h-1m0 0h1m0 0h-1m2 1h-1m1 0h1m-1 1h2m0 0l-1 1m0 0h2m1 0h-2a7 7 0 01-1 0m1 1v-1h2m0 1h-2m1 0h2m0 0h-1-1m0 1l1-1h2m-2 1h2m-12-8h1m-1 0h1m4 4h1m0 1l1-1m1 1h-2m-5-6l-1 1m7 0h1m-1 1h1m-1 0h1m0 0h1m0 0h-1m0 1h1m1 0h-1m0 0h1m0 0h-1m1 1h1m0 0h-1m0 0h1m1 0h-1m1 1h-1m1 0h1m0 1h1m0 0a12 12 0 01-1 1m0 0a36 36 0 012 0m0 0h-2m1 0h2m0 0h-1l-1 1m0 0h3m0 0a3 3 0 00-1 0 3 3 0 01-1 0m0 0h2m-2 0h2m-10-7h1m-2 0h1m4 4h1m0 1l1-1m1 1h-2m-5-5h-1"/>
  <g fill="#fc0">
    <path d="M288 299v4l-2 1c-1 2-1 3 1 4l2 1 4-8h-1l-2 3v-4l-2-1zm0 6h1l-1 2-1-2 1-1z"/>
    <path fill-rule="evenodd" d="M281 303l1-2-3-2 1-1 2 2 2-2-3-2 1-1 4 3-5 7-4-3 1-1z"/>
    <path d="M279 293l-2 2-1-1c-1-1-2-1-4 1-1 1 0 2 1 4l2 1 5-6-1-1zm-4 2l1 1-2 2v-2l1-1z"/>
    <path fill-rule="evenodd" d="M268 295l-1-2 4-3c1-1 2-2 1-3s-3 0-3 1l-4 3-1-1 4-4c1-1 3-2 5 0 1 2 1 4-1 5l-4 4z"/>
    <path d="M265 278l-1 1c-1 0-2 1-1 2h-2c-2 1-2 3-1 4l2 2 7-5-2-2-2-2zm0 2l1 1h1l-2 1v-2zm-2 3h1l-2 2v-2h1z"/>
    <path fill-rule="evenodd" d="M265 275l-8 5-1-2 6-4-1-2h2zm-12-3l8-4 1 2-8 3zm-1-10a3 3 0 000 3c1 1 2 2 4 1l2-3a3 3 0 00-2-2l2-1 1 2a5 5 0 01-3 6c-2 1-5 0-6-3a5 5 0 010-2l2-1z"/>
    <path d="M256 251l-8 5v1l10 2-1-2h-2v-3l2-1-1-2zm-2 3v2h-3l3-2zm-2-20c-3 0-4 2-5 4v3l9 1v-3a4 4 0 00-4-5zm-1 2a3 3 0 011 0c2 0 3 1 2 3h-5c0-2 1-3 2-3z"/>
    <path fill-rule="evenodd" d="M250 230h2l1-3h1l-1 3 3 1v-3h2l-1 5-9-2 1-5 2 1zm3-12l2 1 1-3 2 1-1 2 2 1 1-3 1 1-1 4-9-3 2-4h2zm9-2l-7-4v-2l7 4 1-3 1 1zm2-16l-1 1a1 1 0 000 1c1 1 3-2 5-1s2 3 1 5l-3 1v-2h2l-1-2h-2l-3 1a3 3 0 010-4 4 4 0 012-2v2z"/>
    <path d="M268 192l-1 1 4 9 1-1v-2l2-2h2l1-1-9-4zm2 3l2 1-1 1-1-2z"/>
    <path fill-rule="evenodd" d="M278 195l-5-7 1-1 5 6 2-2 1 1zm5-14l1-1 2 10h-1l-7-6 1-1 5 4z"/>
    <path d="M291 177h-2l1 10 2-1v-2l2-1 2 1h1l-6-7zm0 3l2 2-2 1v-3zm9-6h-1l-2 1 2 8 2-1a4 4 0 003-5c0-2-2-3-4-3zm0 2c1 0 2 0 3 2 0 1 0 2-2 3h-1l-1-5h1zm11-5h-1a4 4 0 00-3 5 4 4 0 005 4 5 5 0 003-5 5 5 0 00-4-4zm0 2c1 0 2 1 2 3 1 1 0 2-2 3l-2-3c-1-1 0-3 2-3zm7-2v9h2v-4l2 4h2l-2-4 1-3c0-1-1-2-3-2h-2zm2 1l2 2-2 1v-3z"/>
    <path fill-rule="evenodd" d="M337 174l-1 2 3 1v1h-3l-1 2 3 1v1l-5-1 2-8 5 1-1 1zm6 0l1 1 3 7 2-5 1 1-3 8-1-1-2-7-2 5h-2zm10 15l4-8 2 1-4 6 2 2-1 1z"/>
    <path d="M365 187l-8 4 1 1 2-1 3 2-1 2 1 2 3-10h-1zm-1 2l-1 3-2-1 3-2zm14 11l-9 3 1 1h2l2 2-1 2 1 1 5-8-1-1zm-1 2l-2 3-1-2 3-1z"/>
    <path fill-rule="evenodd" d="M375 212v-2l8-2 1 1-4 4h6v1l-7 5-1-1 5-4-6 1 4-5zm12 8l-2 1 1 3h-1l-1-3-2 1 1 3h-2l-1-4 8-3 1 5h-1z"/>
    <path d="M390 226l-8 1v2h3l-3 3 1 2 3-4a2 2 0 003 2c2-1 2-2 2-4l-1-2zm-1 2l-1 2-1-2h2z"/>
    <path fill-rule="evenodd" d="M392 236l-9 1v-2l9-1zm-2 10a3 3 0 001-2c0-2-1-3-3-3-1 0-3 1-3 3l1 2h-2a5 5 0 010-2 5 5 0 014-5c2 0 5 2 5 4a4 4 0 01-1 2h-2z"/>
    <path d="M384 247l-1 2 2 1v3l-2 1v1l9-2v-1l-8-5zm3 4l2 1-3 1 1-2z"/>
    <path fill-rule="evenodd" d="M384 272a3 3 0 002-1l-2-4-4 1a3 3 0 000 3l-2-1a5 5 0 011-2 5 5 0 015-3c3 1 4 4 3 6a5 5 0 01-1 2l-2-1zm-1 5l-2-1-1 2h-2l2-3-2-1-2 3-1-1 2-4 8 4-2 4-2-1zm-2 6l-1 1h-7l4 4-1 1-7-5 1-1h7l-4-4 1-1zm-9 9l1-1 1 1-4 4-1-1 2-2-6-5 2-1z"/>
    <path d="M363 291l-2 1 3 3-4-2-2 2 4 1 1 3h4l1-2-5-6zm2 5l1 1v1h-2v-2zm-8-1l-1 1v2l-3 2-1-1-2 1 8 5h1l-2-10zm-1 5l1 3-2-2 1-1z"/>
    <path fill-rule="evenodd" d="M349 300l3 8-1 1-3-6-3 1v-2z"/>
  </g>
</svg>
