<svg xmlns="http://www.w3.org/2000/svg" id="flag-icons-sx" viewBox="0 0 640 480">
  <defs>
    <clipPath id="a">
      <path d="M0 0h683v512H0z"/>
    </clipPath>
  </defs>
  <g clip-path="url(#a)" transform="scale(.9375)">
    <path fill="#ed2939" fill-rule="evenodd" d="M0 0h768v256H341L0 0z"/>
    <path fill="#002395" fill-rule="evenodd" d="M0 512h768V256H341L0 512z"/>
    <path fill="#fff" fill-rule="evenodd" d="M0 0l341 256L0 512V0z"/>
    <path fill="#ff0" d="M172 193v-4s-2-3 1-7c0 0-5-3-4-7 0 0-5-1-5-6 0 0-5-1-5-5 0 0-5 1-8-3 0 0-5 1-6-3 0 0-5 2-8-2 0 0-5 2-7-2-2 4-7 1-7 1-3 5-8 3-8 3-1 3-6 2-6 2-3 5-8 4-8 4 0 4-5 5-5 5a6 6 0 01-5 6c2 4-4 7-4 7 3 4 1 7 1 7v4h84"/>
    <path fill="none" d="M172 193v-4s-2-3 1-7c0 0-5-3-4-7 0 0-5-1-5-6 0 0-5-1-5-5 0 0-5 1-8-3 0 0-5 0-6-3 0 0-5 2-8-2 0 0-5 2-7-2-2 4-7 2-7 2-3 4-8 2-8 2-1 3-6 3-6 3-3 4-8 3-8 3 0 4-5 5-5 5a6 6 0 01-5 6c2 4-4 7-4 7 3 4 1 7 1 7v4h84z"/>
    <path fill="red" d="M170 188c-13-1-28-4-40 2-8-4-19-4-28-3l-17 2h-1c-9 0-18-2-27-6 3 15 6 30 7 46 4 24-11 44-5 67 4 11 16 18 27 19a215 215 0 0132 5 32 32 0 016 1 20 20 0 016 5c6-6 15-8 24-9 16-2 35-1 45-15v-1c5-8 5-20 2-29l-1-9c-10-25-1-54 3-80a61 61 0 01-17 6h-14l-2-1"/>
    <path fill="#80cfe1" d="M190 262l1 4c2 11 4 26-7 33-13 8-30 4-45 9l-9 5-4-3c-12-6-28-4-41-8-7-2-14-7-16-14-5-19 6-34 5-53-1-14-3-27-7-40 11 5 23 6 35 3a52 52 0 0128 3l15-3 29 2c7 0 12-2 18-5-3 22-10 45-2 67"/>
    <path fill="#fff" d="M171 266v-21h2l-31-20v-10h3l-15-11-16 11h3v10l-31 20h3v21h82"/>
    <path fill="none" stroke="#000" d="M376 907v-18h2l-27-18v-9h3l-14-10-13 10h2v9l-27 18h2v17h72z" transform="matrix(1.1464 0 0 1.1461 -260 -773)"/>
    <path fill="#fff" d="M181 293v6H81v-7h100"/>
    <path fill="none" stroke="#000" d="M384 930v5h-87v-5h87z" transform="matrix(1.1464 0 0 1.1461 -260 -773)"/>
    <path fill="#fff" d="M87 292v-21h4v21-21h-6v-5h90v5h-6v21-21h4v21"/>
    <path fill="none" stroke="#000" d="M303 929v-18h3v19-19h-5v-4h78v4h-4v19l-1-19h4v19" transform="matrix(1.1464 0 0 1.1461 -260 -773)"/>
    <path fill="none" stroke="#000" d="M320 925v-13h-11v13h11" transform="matrix(1.1464 0 0 1.1461 -260 -773)"/>
    <path fill="none" stroke="#000" d="M312 914v8h5v-8h-5m59 11v-13h-11v13h11" transform="matrix(1.1464 0 0 1.1461 -260 -773)"/>
    <path fill="none" stroke="#000" d="M363 915v7h5v-7h-5m8-11v-13h-11v13h11z" transform="matrix(1.1464 0 0 1.1461 -260 -773)"/>
    <path fill="none" stroke="#000" d="M363 893v8h5v-8h-5m-43 11v-14h-11v13h11z" transform="matrix(1.1464 0 0 1.1461 -260 -773)"/>
    <path fill="none" stroke="#000" d="M312 893v8h5v-8h-5m26 11v-14h-10v13h11" transform="matrix(1.1464 0 0 1.1461 -260 -773)"/>
    <path fill="none" stroke="#000" d="M331 893v8h5v-8h-5m22 11v-13l-10-1v13h10" transform="matrix(1.1464 0 0 1.1461 -260 -773)"/>
    <path fill="none" stroke="#000" d="M345 893v8h5v-8h-5" transform="matrix(1.1464 0 0 1.1461 -260 -773)"/>
    <path fill="#fff" d="M148 258v34h-35v-34h35"/>
    <path fill="none" stroke="#000" d="M356 900v30h-30l-1-30h31zm-31 8h31m-27 22v-22m23 22v-22m15-21l-17-13h-19l-17 13h53m-35-23v7h16v-7h-16" transform="matrix(1.1464 0 0 1.1461 -260 -773)"/>
    <path fill="none" stroke="#000" d="M336 866v4h8v-4h-8m4-11l9 6h-18l9-6" transform="matrix(1.1464 0 0 1.1461 -260 -773)"/>
    <path fill="#fff" d="M171 202c3 0 4 12 4 18l11 7h-29l11-7c0-6 0-18 3-18"/>
    <path fill="none" stroke="#000" d="M376 851c3 0 4 10 4 16 2 0 7 3 9 6h-25c2-3 7-6 9-6 0-6 1-16 3-16m-49 49h2l-1 1v4l1 1h-2v-6m4 0h3l-1 1v5h-2l1-1v-3l-1-2m5 0h2v6h-2l1-1v-3l-1-2zm6 0h2l-1 2s1 1 0 2l1 1h-2v-5zm5 0h2l-1 2s1 1 0 2l1 1h-2v-5m5 0h2l-1 2s1 1 0 2l1 1h-2v-5" transform="matrix(1.1464 0 0 1.1461 -260 -773)"/>
    <path fill="#ff0" d="M131 337c13 0 29-3 36-7l17-1v20c-14 8-46 9-53 9s-40-1-54-9v-20l17 1a98 98 0 0037 7"/>
    <path fill="none" d="M131 337c13 0 29-3 36-7l17-1v20c-14 8-46 9-53 9s-40-1-54-9v-20l17 1c7 4 24 7 37 7"/>
    <path fill="#ff0" d="M34 251l15 5-5 23-13 2s-2-12 3-30"/>
    <path fill="none" d="M35 251l14 5-4 23-14 2s-2-12 4-30z"/>
    <path fill="#7e7e7e" d="M45 279l-14 2 9-12 5 10"/>
    <path fill="none" d="M45 279l-14 2 9-12 5 10"/>
    <path fill="#ff0" d="M26 268l14 1c0 12 2 57 56 60l-2 16c-66 1-71-55-68-77"/>
    <path fill="none" d="M26 268l14 1c0 12 2 57 56 60l-2 16c-66 1-71-55-68-77zm51 80l17-3"/>
    <path fill="#ff0" d="M225 251l-14 5 5 23 13 2s3-12-4-30"/>
    <path fill="none" d="M226 251l-15 5 5 23 13 3s3-13-3-31z"/>
    <path fill="#7e7e7e" d="M216 279l13 3-9-13-5 10"/>
    <path fill="none" d="M216 279l13 2-8-12-5 10"/>
    <path fill="#ff0" d="M234 268l-14 1c0 12-1 57-55 60l2 16c66 1 70-55 67-77"/>
    <path fill="none" d="M234 268l-14 1c0 12-1 57-55 60l2 16c66 1 70-55 67-77zm-50 80l-17-3"/>
    <path fill="#009fc5" d="M122 347h-4v-4l3 1h1v3m-5 5l1-4h3l2-1 1-2a3 3 0 00-1-2 3 3 0 00-2 0l-4-1-1 10h1m10-8h4l1 2-1 1a3 3 0 01-1 0h-3v-3m0 8v-4h3l1 1 1 1v2h1a3 3 0 010-1v-1-2a2 2 0 00-1 0l1-1v-2l-1-2a5 5 0 00-2 0h-5v9h2m10-2a5 5 0 01-1-2l1-3a3 3 0 012-1 3 3 0 012 0l1 3a5 5 0 010 3l-3 1-2-1m-2-6a6 6 0 00-1 4l2 3a5 5 0 003 1 4 4 0 004-1 6 6 0 001-4 5 5 0 00-1-3c-1-1-3-2-4-1l-4 1m44-13h3l2 2-1 1a2 2 0 00-2-2 4 4 0 00-2 0 3 3 0 00-2 1v3a5 5 0 001 3l3 1a3 3 0 002-1v-3l-3 1v-1l4-1 1 5h-1v-1l-1 1-2 1a4 4 0 01-4-1 5 5 0 01-1-3 5 5 0 010-4 4 4 0 013-2m10-1l3-1h1l1 1v1l-1 1-3 1-1-3m3 8l-2-4 3-1a3 3 0 011 0l1 1 1 1v1h2l-1-1v-1l-1-1v-1a2 2 0 00-1 0v-1-2l-2-1a5 5 0 00-2 0l-4 2 3 8h2m11-5l-6-7 6-4 1 1-5 3 2 2 4-3 1 1-5 3 2 3 5-3 1 1-6 3m4-13l2-2 2-1 3 1a5 5 0 011 2v2a4 4 0 01-1 1l-1 1-6-4m8 3c2-1 2-2 1-4a7 7 0 00-2-2 5 5 0 00-3-1l-3 1-2 3 7 6 2-3m6-7l-8-5v-1l9 5-1 1m3-6l-9-3 3-7 1 1-2 5 3 1 2-5 1 1-2 4 3 2 2-6 1 1-3 6m4-11l-9-2v-1l9-3-8-2 1-1 9 2v1l-9 3 8 2-1 1m0-12v-1h1l1-2a4 4 0 000-2l-1-1h-1l-1 2v1l-1 2-2 1a3 3 0 01-2-1l-1-3 1-3h3v1h-2l-1 2 1 2h2l1-2v-1l1-1 2-1 2 1v3a4 4 0 01-1 3h-2m-196 0v1h-1v3a4 4 0 000 1l2 1 1-1v-3-2l2-1 2 1 1 2a4 4 0 010 3l-2 1v-1a3 3 0 001-1v-2-1a2 2 0 00-2-1 1 1 0 00-1 1v3a4 4 0 010 2 2 2 0 01-2 1l-2-1a5 5 0 01-2-2 4 4 0 011-3 3 3 0 012-1m-1 12l10-3 2 7h-1l-2-5-3 1 2 5h-1l-2-5-3 1 2 5-1 1-3-7m5 11l8-4 1 1-6 6 9-1 1 2-9 4-1-1 5-3h1l2-1-9 2v-1l5-7v1h-1a7 7 0 01-1 1l-5 2v-1m15 13l-1-1-2-2 3-2 2 2a3 3 0 010 1v1l-2 1m-6 1l3-3 2 2 2 1a3 3 0 002-1 3 3 0 001-2l-1-2-3-3-7 7 1 1m8 7l5-8 6 4v1l-5-3-2 2 5 3-1 1-5-3-1 3 5 3-1 1-6-4m15-1l3 1h1v2l-1 1h-1l-3-1 1-3m-3 8l2-4 3 1h1v1l-1 2v1h2v-2-2l1-1 1-1-1-3a5 5 0 00-2 0l-4-2-3 9 1 1"/>
    <path fill="#bc715f" d="M79 176c1-3 11-10 44-7l9 3c2 0-1 0-3-2-3-2-3-6 2-6 6 0 28 1 28 3s-11 3-16 3c-4 0-4 2 1 2 14-1 28-6 44 5 2 2-5 2-10 0h-20s-4 3-10 3c1 2-2 9-21 4-3 1-15 3-14-1-3 0-8 1-9-1l11-5s-21 0-25-2c0 0-12 3-11 1"/>
    <path fill="#008737" d="M85 205l2-2c2 1 3 5 6 2l2 2c0 2 2-1 3-1l10-1c0 2-2 5-4 6l2 5-1 3-4-2h-1l1 2c0 2-2 0-3 0v3c-2 0-2-2-3-3-1 1 1 2 1 2-1 3-1 6-3 8l-2 1-1-5-3 5-4-5a6 6 0 012-6c-1-1-3-1-3-3-3-2-5 4-6 1a9 9 0 012-8l-3-1c-2-2-5-3-5-6a14 14 0 0115 3"/>
    <path fill="#ff0" d="M88 205c0 2 1 1 3 2-1 0-2 2-3 0l-1 1 1 2-2-2h-2v-1l2-1 1-2 1 1m6 2l1 1 2 1-1 1h-1v-1l-2 1 1 1h-2v-2c-1 0-1 2-2 1v-2a2 2 0 011 0c1 0 1-4 3-1m-8 3l1 3c1-2 2 0 3 0v1h-4l-1 1c1 0 2 1 1 2s-3 1-3-1c0-1 1-1-1-2 0 1 0 2-2 1a2 2 0 01-1-2c1-2 3 0 4-1l1-3 2 1"/>
    <path fill="#fff" d="M91 211c-1 2-3 0-3 0 1-2 1 0 3 0m5 3l-2-2 1-1 1 2"/>
    <path fill="#ff0" d="M94 213l1 2v-1l3 2-2 2h-1l-1-1a1 1 0 00-1 0c0 1 2 2 0 3l-3-1c0-1 2-3 0-3-1 2-1 3-3 2v-2l4-1v-3c2-1 3 0 3 1"/>
    <path d="M93 216l-1 1-1-1 1-1 1 1"/>
    <path fill="#fff" d="M93 216h-1v-1l1 1"/>
  </g>
</svg>
