<svg xmlns="http://www.w3.org/2000/svg" xmlns:xlink="http://www.w3.org/1999/xlink" id="flag-icons-sz" viewBox="0 0 640 480">
  <path fill="#3e5eb9" d="M0 0h640v480H0z"/>
  <path fill="#ffd900" d="M0 90h640v300H0z"/>
  <path fill="#b10c0c" d="M0 120h640v240H0z"/>
  <g fill="#ffd900" stroke="#000" transform="translate(-43) scale(1.2)">
    <g id="a">
      <path fill="#fff" d="M493 154l-24 9 24 8 24-8z"/>
      <rect width="357" height="6" x="123" y="160" rx="3" ry="3"/>
      <path d="M471 166a3 3 0 003-3 3 3 0 00-3-3m-2 6a3 3 0 002-3 3 3 0 00-2-3m-3 6a3 3 0 003-3 3 3 0 00-3-3"/>
    </g>
    <use xlink:href="#a" width="100%" height="100%" x="-23" y="17"/>
    <rect width="486" height="9" x="60" y="196" rx="4" ry="4"/>
  </g>
  <path fill="#fff" stroke="#000" d="M488 240c-34 34-80 103-171 103-80 0-137-69-172-103 35-34 92-103 172-103 91 0 137 69 171 103z"/>
  <path d="M305 173c9 10 1 14 11 15s4 11 13 11c6 0-1 24 5 32s11 3 11 9-16 5-16 24c-1 11-14 12-14 19-1 6 25 10 25 16s-29 5-30 12c-1 6 39 11 42 28-6 2-23 4-35 4-80 0-137-69-172-103 35-34 92-103 172-103 0 0-24 22-12 36z"/>
  <g stroke="#fff" transform="translate(-43) scale(1.2)">
    <g id="d" stroke-width="7">
      <g id="c">
        <path id="b" d="M214 192v-22m14 0v22m14-22v22"/>
        <use xlink:href="#b" width="100%" height="100%" y="38"/>
      </g>
      <use xlink:href="#c" width="100%" height="100%" x="42"/>
    </g>
  </g>
  <use xlink:href="#d" width="100%" height="100%" x="105" stroke="#000" transform="translate(-43) scale(1.2)"/>
  <g fill="#a70000">
    <path fill="#333" stroke="#000" d="M570 236c-5 9 4-3 27 12a22 22 0 018 15l-3-3c-2 2 1 9 2 13-4-2-4-3-5-6l1 14c-3 0-3-3-4-3v11l-4-3-4 8a5 5 0 01-2-3 59 59 0 00-8 13c-4-4-16-14-18-20-1 3-3 4-7 6-2-8-8-17-4-25a75 75 0 00-7 5 50 50 0 0128-34z"/>
    <path fill="#b3b3b3" d="M551 281c2-5 4-6 6-9 2-5 2-9 5-8 2 0 2 2-1 7s-4 6-10 9zm15 10v-7c0-4-2-6 0-6 2-1 3 1 3 4 0 4 0 5-3 9zm11 6l-1-9c-1-6-3-9-1-10 2 0 3 2 4 7 0 5 0 7-2 12zm11-32l-6-3c-3-3-4-5-5-4s-1 3 3 5 4 2 8 2zm-2 15c-1-3-3-3-3-5-2-4-2-7-4-6s-2 2 0 6c2 3 3 3 7 5z"/>
    <path fill="#333" stroke="#000" d="M54 245c-1-3 0-3-2-5 3 1 3 3 6 1v-3l14 4c4 0 12-5 17 1 5 5 3 10 3 17l-3-4c2 6 0 17 0 24l-1-3c-2 6-5 7-5 14l-1-3c-2 4-16 8-11 12-4-2-7-2-9-5l-2 4c-9-4-6-13-12-18l-2 6-3-13-4 5-2-13-3 3c2-16 12-28 20-25z"/>
    <path fill="#b3b3b3" d="M43 272c2-6 4-7 6-11 2-6 3-11 5-10s2 3-1 9-4 7-10 12zm9 13l2-10c1-5 1-9 3-9s2 2 1 8c-1 5-2 7-7 11zm9 9l2-9c0-5-1-9 1-9s3 2 2 7-1 7-5 11zm22-30l-9-7c-5-5-7-9-9-8-2 2-1 4 4 8 5 5 7 5 14 7zm-3 16l-6-8c-3-5-4-9-6-8s-1 3 2 8c3 4 5 5 10 8z"/>
    <path fill="#333" stroke="#000" d="M261 155c-4 10 9-3 29 13a35 35 0 019 19 62 62 0 01-12-5s9 9 9 19c-3-2-4-1-6-4 0 4 3 6 3 11a42 42 0 00-6-4c3 5-5 15-1 19a27 27 0 01-18-11c-2 1-2 2-2 4 0 0-11-8-10-12a10 10 0 00-3 6 32 32 0 01-9-14l-4 5c-1-8-1-8 1-16a69 69 0 00-5 5 50 50 0 0125-35z"/>
    <path fill="#b3b3b3" d="M250 200c0-6 2-8 3-13 0-7-1-12 2-12 2 0 3 3 2 10s-2 9-7 15zm13 12v-11c0-6-2-10 0-11 2 0 3 2 3 8 1 6 0 8-3 14zm21 9l-6-9c-3-5-3-9-5-8-2 0-2 3 1 8s4 6 10 9zm7-41l-13-5c-6-4-10-7-11-5-2 2 0 4 7 7s9 3 17 3zm2 17l-9-6c-5-4-8-8-9-6-2 1-1 3 4 7s7 4 14 5z"/>
  </g>
</svg>
