<svg xmlns="http://www.w3.org/2000/svg" id="flag-icons-ta" viewBox="0 0 640 480">
  <path fill="#006" d="M640 480V0H0v480h640z"/>
  <path fill="#8fc5ff" stroke="#fff" stroke-width="4" d="M575 200c0 63-11 132-93 165-83-33-93-102-94-165z"/>
  <path fill="#366cc9" stroke="#000" stroke-width="4" d="M481 365a134 134 0 0074-63h-8c-2 0-79-8-88-12-8-2-39 3-53 8a133 133 0 0076 67z"/>
  <path fill="#5d3100" d="M424 326h4l2-2h2l3-1h4l2-2h4l1 2 2-1c1 2 2 1 2 0l-1-9-2-5c0-4 0-4-4-6l-4-1v-4c1 0 2 0 2-2h11l5-2c2-1 2-1 2-3l-2-10-3-7-3-6-1-2a6 6 0 00-2-4c-3-3-4-12-5-19-1-4 0-13-2-14l-6-2-3-9c-2 0-3 2-5 3l-1 2-3 7c-1 4-5 2-8 7-5-7-5-9-6-11 0-2-1-2-4-5v-6c-3-2-4-1-5 0l-4 4-7 9c3 35 11 70 34 99z"/>
  <path fill="#ff0" stroke="#fff" stroke-width="4" d="M575 200c0-25-2-48-1-68a249 249 0 00-93-17c-20 0-61 3-92 17 1 20-1 43-1 68z"/>
  <path fill="#cf6200" d="M394 227l3 6 1-3 1-3v-1l1 3c-1 5-3 6-3 10 3 7 1 9 4 16h8c2 0 3 2 3 4l1 2 1 4 1 2-1 2 1 3c2 2 4 8 4 12s1 6 2 6c2 1 2 2 2 3l1 12 1 1c1 1 1 2 3 2h5l4 8 1 5 1-3-1-4c-1-1-2-2-1-3v-3c0-1 0-2 2 0l2 3 1 3c0 1 0 2 1 1l1 2c-1 1 0 2 1 3l2 1c1 1 2 2 2 0a27 27 0 00-2-7l-1-6-1-2-1-1-1-1-2-1-1-1h-1l-1-3-1-3-1-4-3-3c0-1-1-2-1 0s0 3 2 3l1 2v4h-1a6 6 0 00-1-3c0-1-1-2-2-1v-1-1-1-2l-3-11v-1l3 4v3c1 1 1 0 1-1v-3c-2-2-4-5-5-12l-3-12-1-4-1-4c-1-1-1-2-1 0v7l1 3c-1 1-2 2 1 4l1 3h-1l-2-3-1-3v-3l-1 1-1 4v-7c1-2 2-5 1-8s0-4-3-6l-6-8-2-8a17 17 0 00-4-3v-5l-2-2-3 3-3 4-2 6z"/>
  <path fill="#cf6200" d="M401 257h3c1 0 2-2 4 0a11 11 0 013 7c0 2 0 6 2 8 3 3 4 5 4 8a53 53 0 002 9l1 4 2 5v6c0 1 0 2-1 1l-2-2v1l3 3 3 1 2 1h5l2 2 2 6v5l-1-1h-2l-1-2-2-1v2h-2-1l-2-2-1-1-2-1-1-1-1-1-1-2h-1v-2l-1-2v-2l-1-2-1-3c-2-1-3 0-3-3a44 44 0 00-3-12l-2-2c-1 0-2 0-2-2s0-4-2-5l-2-3v-3-5-4-3-2zm24-29a22 22 0 01-4 5c-2 1-5 2-3 5l2 4 2 4c2 0 2 0 2 3 0 2 0 4 2 5s1 2 1 4l2 12c2 4 6 11 5 13 0 1-1 2 1 4l3 6c0 1 0 2 2 1a6 6 0 003-1h3l5 1 3-2 3-5c1-1 0-1-1-2v-3l-2-7-4-7-2-5-2-3-2-6-2-9-1-2-1-2-1-2 1-3v-5c-1-2-1-4-3-4-3 0-3-1-4-3l-2-5h-2c-2 2-2 2-2 5l1 3 1 4c0 2 2 6-1 9-3 2-2 2-2 4s-1 3-1 1c-1-3 0-4 1-5 2-1 3-3 2-4a19 19 0 01-1-7c-1-1-1-2-2-1z"/>
  <path fill="#00b800" d="M401 263v8 3c2 0 2-2 2-3a3 3 0 010-3v-5h-2zm18 26l-2-9c0-3-1-5-4-8-2-1-2-4-3-7-1-1-2 0-1 2 0 1 2 2 1 5l1 3 1 3v2l1 2 2 2v3 2c1-1 1 0 2 1l2 1a9 9 0 01-1-2zm13 24h-2l-1-2-1-2h-1l-2-1a7 7 0 00-1-1v1l-1 1c-1 1-1-1-1-2a4 4 0 01-3-3v-1l2 2c1 1 1 0 1-1a5 5 0 010-2 2 2 0 00-1-1c-2 0-1-1-1-2l-1-1c-1 1-1 0-1-2s-2-2-2 0l-1-2c-1-2-2-2-2 0 0 1-1 2-2 1l1 3c0 3 1 2 3 3l2 3v4l1 3v1h1l1-1c1-1 3 0 4 1 0 2 1 2 2 1h1l2 1h2c0 1 1 1 2-1s-1-1-1 0zm3-56c1-3 0-6 2-7 1-1 2-3 2 1l-1 6c-1 1-2 1-1 3l1 4 1 6 2 3a8 8 0 002 4c1 1 3 4 3 7 0 2 2 2 4 4 1 1-1 2-2 2-1-1-1 0-2 1s-1 1-1-1c-1-2-3-3-5-3l-3-4a5 5 0 00-3-3v3c0 1-1 2 1 4l3 6c0 1 0 2 2 1a7 7 0 003-1h3l5 1 3-2 3-5c1-1 0-1-1-2v-3l-2-7-4-7-2-5-2-3-3-6-1-8c-1 1-2 2-2 0l-2-1v-1l-1-1v-3c-1-2-1-2-1 0-1 3-2 4-1 5l-1 3a5 5 0 000 4v4c0 2 1 4 1 1zm-24-24c-1 0-2 1-2 4 1 2-1 1-1 0l-2-4c-1-2-1 1-1 2 0 2 1 2 2 3 1 2 0 2-1 2v4l-1 1v-6c0-2 0-2-2-2v-2-3c-1-1 0-1 1-1l1-1c1-1 2 0 2-2s0-2 2-2l2 7zm13 16l1 5 2 4 2 12 2 4a8 8 0 002-2l-2-4c-1-2 0-3 1-5s0-2-1-2c-2-1-2-2-3-5v-4c1-1 0-2-1-2v-3c0-1 1-1-1-1l-2 1z"/>
  <path fill="#5d3100" d="M440 254l-1 3 1 3v3c-1 1 0 2 1 3l1 2a6 6 0 002 5l1 3 2 2 1 1h1l3 3 3 1c0-2 0-3-2-4l-3-7a17 17 0 00-4-7l-1-4a4 4 0 01-2-3l-1-3-1-2-1 1z"/>
  <path fill="#00d860" d="M433 327a39 39 0 009-3l6 3h-4l1 2-5-2h-7zm4 3l6 1c-2 1 0 2 2 2l-2 1a24 24 0 009-2c-2 3-11 5-15-2zm4 6a9 9 0 015 0h-5z"/>
  <path d="M445 336h10c0 2-4 2-5 2l-4-1-1-1z"/>
  <path fill="#00d860" d="M447 339a31 31 0 009-1l7 1h-6a11 11 0 01-10 0z"/>
  <path fill="#00d860" d="M450 340l7-1 3 1 4 2a17 17 0 01-7-1 19 19 0 00-8 1 3 3 0 011-2z"/>
  <path d="M447 329c2 0 9 0 12-2 1 0 2 1 0 1-5 2-9 3-12 1-1 0-2-1 0 0z"/>
  <path fill="#00d860" d="M479 320c-8 4-13 5-24 1-1 0-2 0-1 1a40 40 0 009 2v2c-1 0-1 0 0 0 1-1 8-1 10 1h2c-1-1 0-1 1-1l1-1-1-1c1 0 1 0 0 0v-1a9 9 0 012-1l1-2z"/>
  <path d="M466 321a26 26 0 0017-6l5 2c1 0 2 1 0 1l-5-1a30 30 0 01-17 4c-1 0-2 0 0 0z"/>
  <path fill="#00d860" d="M452 296c2 1 5 3 8 3a17 17 0 006 3l-6 2-3-1v2a22 22 0 007 1c1-1 2 0 1 1-3 1-8 0-10-3s-3-4-8-2l-2-1c-1 0-3-2-1-2s5 0 8-3z"/>
  <path fill="#00d860" d="M454 303l-4 2c-1 0-3 1-1 1l4-2c2 0 2-1 1-1zm5 5l-4 1h-2c0 1 1 1-1 1l-2 1h4l3-1c2 0 3-2 2-2z"/>
  <path d="M455 311l8 3c2 0 2 0 1 1a12 12 0 01-10-3c-1-1 0-1 1-1z"/>
  <path fill="#00d860" d="M481 314a21 21 0 01-10 0c-2 0-4 0-2 1 1 1 4 2 7 1l-12 2a38 38 0 00-7-1 6 6 0 01-3 0c-1-1-1-1 1-1h1c-2-1-4 0-2 2h11a19 19 0 0016-3v-1zm-21-6v1h6v-1a7 7 0 00-3 0l-2-1-1 1zM471 310l-3-1c-1-1-2-1-1 1l6 1 2-1 3 2c1 0 2 0 1-1l-2-1h4l3-1v-1h-3l-3 1-2-1v-1c1 0 1 0 0 0h-5l-3-1v1l4 1v1c-1-1-3-1-1 1zM484 308v1l8 1c1-1 1-2 2-1h3a2 2 0 012 0l2-1 3-1h1-5l-5 1h-11z"/>
  <path d="M508 307c-3 2-7 3-11 3-2 0-1 0 0 1 5 0 10-2 12-3 0-1 0-2-1-1z"/>
  <path fill="#00d860" d="M487 312a47 47 0 017 2l2-1c-1 0-1-1 1-1h8l3-1h-10l-3 1h-8z"/>
  <path fill="#00d860" d="M505 312l3-1h4c0-1 0-2 2-2l6 1h6l2 1 2 1h11c2 0 2 1 1 1l-1 2-1 1h-3l-3 1h-7a10 10 0 00-5-1l-5 1v-1l3-1c1 0 3-1 1-1h-11l-5-2zm6 3c-2 1-3-1-5-1-1 1-3 2-1 2h6c2 0 1-1 0-1zm-3 2h5l1 1h-5c-1 0-2 0-1-1zm-24 7c2 0 8-1 10-6h1c1 1 4 3 9 3 2 0 3 1 0 1l-9-2c-3 4-7 4-11 4-2 0-2 0 0 0z"/>
  <path fill="#00d860" d="M497 317c-1 1-3 3-5 3l-6-1c-1 0-2 0-1 1a11 11 0 006 1h5l4 2h4c1 0 2 2 0 1l-4-1c1 2 3 4 5 4v1h4v1l1 1h-4c2 1 7 3 12 2 1 0 2-1 0 0l-4-1 1-1a24 24 0 014 0c1 0 2-1 0-1h-6v-2l2-1c-3 0-7-2-5-3v-1a22 22 0 01-5-1c-1-1 0-1 1-2-2 1-6 0-9-2zm30 0l-7 2c-1 0-2 0 0 0l3 1h1a6 6 0 004 0l5-1c1 0 2 0 0 0h-6c-1 0-3 0-2-1l3-1h-1zm-1 4a12 12 0 01-6 2l5 3-2 1a8 8 0 005-1c3 1 7 0 8-1l-5-1 2-2c-2 1-6 0-7-1z"/>
  <path fill="#00d860" d="M523 327l2-1a19 19 0 01-11-3c-2-2-2 0-1 1a11 11 0 0010 3zm5 5h-7c-1 0-2 0-1 1h-1a12 12 0 00-4 1c-1 0-2 1 0 1l5-1h7c1 0 0 0 0 0v-1l1-1zm-42-6a62 62 0 01-10 2l-4 2 4 1-2 1 4 1a12 12 0 01-7 1l2 1a11 11 0 01-5 1l2 1h-6c2 2 5 2 9 2l9-4h-5a32 32 0 008-3 5 5 0 01-3-1 27 27 0 008-1 6 6 0 01-3-2 34 34 0 0017 0c1 0 1-1-1-1l-10-1a10 10 0 004 1c-2 1-6 2-11-1z"/>
  <path fill="#00d860" d="M474 332l2-1-4-1 4-2-7-1h-5c-1 0-1 2 3 2a13 13 0 01-7 1v3l11 3c-3-1-4-2-2-3l5-1z"/>
  <path d="M467 339c5 0 12 0 17-5 1-1 2-1 1 1a29 29 0 01-16 6c-3 0-4-2-2-2z"/>
  <path fill="#00d860" d="M504 331a19 19 0 01-6 1 6 6 0 00-3 0v1h3a5 5 0 00-2 2h6a3 3 0 01-2 0c3 3 11 3 12 3l-1 1 7-1-4-1a5 5 0 012-1h-5a4 4 0 011-1l-10-1 7-2-5-1zm-10 2l-6 2c-1 0-2 1 0 1a109 109 0 010-1s-1 0 0 0l6-2zm-4 5l5-1 5 2v1a11 11 0 01-6-2h-5zm-24 14a17 17 0 0010 1l8 1h5l8 2h-4l1 1a22 22 0 00-12 3 6 6 0 016-4c-1 0-7-1-9 1a6 6 0 01-1-2c-4 1-10-1-12-3zm-8-6a14 14 0 007-3h7l-1 2a23 23 0 00-7 2h-6v-1z"/>
  <path fill="#00d860" d="M471 345a23 23 0 00-7 2l1 2a44 44 0 0115-2l-6 2 9 1v1c0 1-1 1 1 1l6-1-2-1a7 7 0 002-2 25 25 0 01-4 0l-1-1a7 7 0 002-2c-2 1-5 1-7-1h4a5 5 0 00-3-1c2-1 6-2 12 0a27 27 0 017 1l3-4c-6 1-16 0-16-3-2 2-7 4-9 3l2 3h-7l3 2h-5z"/>
  <path fill="#00d860" d="M484 352l6-1-2-1a7 7 0 002-2l10-1h8l-5 2 2 1-5 2c-2-1-3 1-3 1l-6 1h-6c1-1 1-2-1-2zm19-12h6a7 7 0 00-2 2l9-1-4 2 1 1h1-8c-1 0-1 0 0 0a10 10 0 003-1h-4v-1h-1l-4 2 3-4z"/>
  <path d="M488 343a9 9 0 007 3s2 1 0 1c-4 0-6-1-8-4h1zm25-36l10 2 1 1a18 18 0 01-11-2v-1z"/>
  <path fill="#00d860" d="M516 307l7 1 6-1c1 1 2 0 0 0l-8-1-7 1h1zm13 1h8 7l-6 2h-3a11 11 0 00-6-1z"/>
  <path fill="#00d860" d="M544 308h-15c2-1 3 0 4-2h3l4 1 1-1h4l4-1a24 24 0 01-5 3z"/>
  <path fill="#ff0" d="M472 291l-1-87c0-4-2-3-2 0v86zm28-91l3 91v1h-2l-2-92zm26 77l-1-74c0-3-2-2-2 0l1 74z"/>
  <path fill="#fff" d="M484 215h-27c-1 5 5 5 8 4h13c3 2 7 0 6-4zm2 13h-27c-5 5 1 7 6 4 1 2 4 2 7 1 2 2 5 1 7-1 2 1 6 2 7-4zm-1 18h-26c-1 4 5 4 7 3 2 3 6 2 8 0 3 2 5 2 6 0 3 2 6-1 5-3zm2 17h-30c-2 5 3 6 5 4 1 3 5 2 6 0 1 2 3 1 4 0 0 2 4 3 7 0 5 4 10 0 8-4zm26-7h-24c1 5 3 6 7 3 3 3 8 2 9 1 6 4 8-1 8-4zm-2-17l-24-1c0 6 6 6 9 4 2 2 6 2 8 0 3 3 8 1 7-3zm3-19h-26c0 4 6 6 10 2 1 5 6 4 8 2 3 4 10-1 8-4zm-2-13h-23c0 4 5 6 7 2 2 2 5 2 7 0 1 3 4 1 4 0 3 2 6 1 5-2zm27 8h-28c0 3 3 4 5 3 0 3 4 4 7 1 1 3 6 3 8 0 4 4 9 1 8-4zm0 23h-27c0 4 4 5 7 4 0 3 4 3 6 1 2 3 6 3 9 0 3 1 5-2 5-5zm-2 21h-21c0 4 4 4 6 2 3 3 6 3 8 1 2 2 7 1 7-3z"/>
  <path d="M503 292l-32-1c-9-1-11-2-17-6l-22-13c-2-1-4 0-1 2l22 14a60 60 0 0113 12c5 5 8 5 10 4 3 0 6-2 9-1l10 1c2 2 7 2 10 1l7-1h27a20 20 0 018-1l4-5 3-2 2-6h1v-3l-1-2v-4l2-1v-4l-35 1a8 8 0 00-2 4l-10 2c-2 0-3 0-4 2z"/>
  <path d="M544 277l5-20c0-1-1-2-2 1l-5 19z"/>
  <path fill="#fff" d="M564 255c-5 2-7 3-9 2h-6a2 2 0 010 1 1929 1929 0 01-4 14c3 2 8 2 10 0l7-1 1-4v-4l1-8z"/>
  <path fill="none" d="M465 218a208 208 0 01-31 55m7 5a213 213 0 0045-49m-27 16l-6 39m10-15l-13 13m49-34c-3 3-6 7-10 8m12-7a27 27 0 0011 7m-13-24a33 33 0 01-11 6m13-6l9 7m-21-20a27 27 0 0010-5m1 0a30 30 0 0011 6m-22-13a16 16 0 0010-5m1-1l10 6m13 3c-2 2-6 5-9 5m11-5c1 2 4 5 6 5m-19 23a28 28 0 0011-7m2 0a22 22 0 008 7m-16 21l7-5m2-2a27 27 0 008 7m-73 3c5-1 15-7 20-13m-10 7c4 3 9 6 13 7m-25-18a31 31 0 0010-6m2 0c1 2 9 7 13 7m-15-23a38 38 0 01-10 5m12-5c3 2 8 5 12 5m-14-21c-2 2-6 6-9 7m11-7c2 3 6 7 9 7m32 11c7 12 20 29 34 37m-55-52c11 16 32 50 52 62m4-13a72 72 0 01-19 18m17-14c-6-11-10-24-15-43m-55 49l8 23m-10-24l8 24m-10-25l7 24m-7-23l5 23m0 0h7m-1-3h-6m5-2h-6m5-2h-6m5-2h-5m0-2h5m-6-2h5m-5-2h5m-5-1h4m-5-2h4m-4-2h4m-5-1h4m-4-1h4m-10 0l-5 19m6-19l-4 20m5-21l-3 22m5-22l-3 22m3-1h-8m8-2h-9m9-3h-8m7-2h-7m8-2h-7m7-2h-7m7-2h-7m7-2h-6m5-2h-4m5-2h-5m5-1h-5m4 22v-23m25-8l-15 32m17-32l-13 32m14-33l-11 33m12-32l-9 32m1-1h-10m10-3h-9m10-3h-8m9-2h-8m9-2h-8m8-3h-7m8-3h-6m7-1h-6m6-3h-5m6-1h-5m5-2h-5m5-2h-4m4-1h-4m4-1h-3m4-2h-3m3-1h-3m13 0l7 22m-5-22l8 21m-7-21l10 21m2-2l-11-19m11 19h-8m7-3h-8m7-2h-7m5-3h-6m5-2h-6m4-3h-5m4-3h-5m3-2h-3m12 0l-7 21m9-21l-6 20m3 0l4-20m1 1l-4 18m-6-1h6m-5-2h6m-6-3h7m-5-2h6m-6-3h6m-5-2h5m-4-3h5m-4-2h4m4 0l3 14m-2-15l4 15m-3-15l5 15m-3-14l5 14m0-2h-7m6-2h-6m5-1h-5m5-3h-6m4-2h-5m5-2h-5m4-2h-5"/>
  <path fill="#00b800" d="M468 299c3-2 8-2 11 1 3-2 9-2 12 1 4-3 8-4 12-1a11 11 0 0111 0c4-1 8-3 12 1a9 9 0 00-12 1c-3-4-9-3-11 0a8 8 0 00-12 0c-4-3-9-3-12-1a13 13 0 00-11-2z"/>
  <path fill="#cf6200" d="M523 295a228 228 0 01-59-2c9 2 28 2 39 1l6-8c1-2 1-2 3-2l9-2v2h-1l1 9h1l1 2z"/>
  <path fill="#cf6200" d="M550 296h2l2-2 2-6-2-3 1-5 2-1v-2l-32 1-2 1a24 24 0 008 24c1 0 2 0 1-1a26 26 0 01-5-6h6l2 6c0 1 0 1 0 0l-1-6h5v5h1v-5h5l-1 5h1l1-5h3l-2 5h1a31 31 0 002-5z"/>
  <path d="M527 295c-1-1-3-5-3-8h7l1 8zm5-8l1 8h6v-8zm-8-7a33 33 0 000 6l7-1-1-6zm8-1v6h7l-1-6zm8 0v6h6v-6zm7 0v6h6l1-6zm6 7h-6l-1 8h6a54 54 0 003-6l-2-2zm-13 1v8l5-1v-8zm-27-2h-3a196 196 0 01-6 9h9v-9zm1 0l1 9 5-1-1-9zM487 263h-30v-1l30 1zm23-24c1 0 1 0 0 0l-23-1c-1 0-1 0 0 0h23zm-25 6v1h-26v-1zm1-17v1h-28v-1zm-2-13h-27v-1l27 1z"/>
  <path fill="#fff" d="M512 207h-23z"/>
  <path d="M514 220h-26zm25 18h-28 28zm0-23c1 0 1 0 0 0h-28 28zm-26 41h-25zm24 3c1 0 1 0 0 0h-22z"/>
  <path fill="#ef072d" d="M557 263a12 12 0 000-5 4 4 0 01-2 0 12 12 0 00-1-1 25 25 0 01-2 7l-5-1-1 4a14 14 0 006 0l-2 6 4-1c2-2 2-4 2-5l2-1h2l3-1v-4l-6 2z"/>
  <path d="M460 131l-11 1c-2 0-2 1 0 1l9 3c3 2 4 4 4 8a24 24 0 0012 25v2l-1 4 1 2a78 78 0 01-4 6c-6-1-12 0-12 7h1c1-2 2-3 5-4l-2 7c0 1 1 2 2 0 0-2 2-4 3-5v1a6 6 0 002 4c0 1 1 1 0 0 0-2 0-5 2-5 3-2 5-1 6 0 1 2 2 0 0-1l-3-4 4-6c0-1 0-2 1-1l1-1 3-6h2l4 6v2l-2 6c-4 0-7 0-8 3-1 1 0 2 1 1a8 8 0 014-1v1c-3 1-4 3-4 6h1a9 9 0 015-4c0 2 0 5 2 6 1 1 1 0 1-1-1-2 0-4 1-5 2-3 6 1 8 1v-1c0-3-4-4-8-5l5-16c2 1 4-2 7-1a83 83 0 0115 9h6v-2a28 28 0 00-9-10l7-1-7-2a13 13 0 007-3l-4-1c-8 0-12 0-16-3l-15-10-4-5c-2-6-2-9-7-11s-12 0-15 3z"/>
  <path fill="#fff" d="M461 132h-7s-1 0 0 0l6 2v1h-1c4 3 5 5 4 15l2 2c1 0 0 0 0 0s-2 0-1 1l1 1c-1 0-2 0 0 0s3 1 0 1c-2 0-2 1 0 1 3 0 2 1 1 1s-1 0 1 0h3v1 1h1v1c3 0 3 1 2 1s-1 0 0 0l1 1v1l2 1c-1 1-2 1 0 1v1h-2c0-1 0-1 0 0l-1-1c-1-2-1-2-1 0h-2a13 13 0 0016 3l1 1 2 4c1 1 1 0 1-1l3-6c0-1 1-2 1 1h10a48 48 0 0110 6 2 2 0 002 0c1 0 2 0 0-2s-1-3 0-2 2 1 1-1l-4-3-3-1h-6l1 1 8 5c1 0 2 2 0 0a102 102 0 00-14-7c-11 1-20 2-26-5-3-3-3-11 2-14v-4l-2-2c-1 0-2-2-4-1h-3l-2-1-2-1h3c2 1 5 2 7-1 1-2-1-4-4-5-4 0-6 2-8 3z"/>
  <path fill="#fff" d="M478 131a11 11 0 00-4-2l-1 1v4c-1 0 0 3 1 2h1l1 1v2h1l-1 2h2l2 3h-2l-2 1v1c1 0 2 1 0 1l-2 1v2l3-2h2c1 1 0 2-1 2h-2l-2 1-1 2c0 5 5 9 12 9h13c-2-2-4-2-5-2h-1v-1h-2l-4 2c-1 0-2 0-1-1l4-2v-1h1l7 3 1-1-1-2h2c1 2 4 2 5 3 1 0 2 0 0-1l-9-7c-1-1-1 0-1 1h-2v-1-2h-2l-1 2-1-2c1-1 2-1 0-2-2-2-1 0-1 0h-2l-1-1h1c1 1 2 0 1-1-2-2-2-1-2 0h-2v-2-1c-3-5-1-8-5-12z"/>
  <path fill="#cf6200" d="M478 132l-1 1v1a2 2 0 002-1 9 9 0 00-1-1zm-3-3l-1 2c1 0 1 0 0 0h1l1 1 1-1-2-2zm-1 5v2l1 1a5 5 0 002-1c1-1 0-1-1-1s-2 0-1-1 0-1-1-1l-1 1zm5 6l1-2v-3l-1 2-1 1c-1-1-2 0-2 1h1v1c2 0 2 1 2 2h1l-1-2z"/>
  <path fill="#ff0" d="M480 150l-2 1-3 1-2 1 1 2 1 1v1l3 1 1 3 2 1h6v-1l-2-1v-2-2c0-2 0-3-2-3l-2-3h-1z"/>
  <path fill="#cf6200" d="M473 161l2 1-1 1 1 1 1 1 1 1h-2l-1-1h-1l-1-1-2 1a11 11 0 003 2h3l3 1c1 0 2 0 1-1h-1v-2h-1v-1h-1v-1l-1-1-1-1h-2z"/>
  <path fill="#ff0" d="M486 168c-6 2-10 1-13-1h3l3 1c1 0 2 0 1-1l2 1h4zm-12-26l-1-1-2-1c-1 0-2 0-2 2l-2 2-1 3-1 2-1 1 1 1v1h-1l1 1c-1 0-3 1 0 1 2 0 3 1 0 1-2 0-1 1 0 1h1c-1 0-1 1 1 1v-1l2-4 1-2 3-5 1-3z"/>
  <path fill="#cf6200" d="M472 142c-1-1-2 0-2 1l-1 2a4 4 0 00-2 2l-1 3v2l1 1 1-1 1-1 2-3v-2l2-1v-2l-1-1z"/>
  <path d="M472 141v0zm0 2l-1 1c2 0 2-1 1-1zm-2 2h0zm-1 1l1 1c1-1 1-2-1-1zM468 147h0zm1 1c-1 0-1 1 0 0s1-1 0 0z"/>
  <path d="M467 148l1 1c1-1 1-2-1-1zm1 1l1 1c1-1 1-2-1-1z"/>
  <path d="M467 150h1c1-1 1-1-1-1zM467 150c0 1 0 2 1 1s1-1-1-1z"/>
  <path fill="#cf6200" d="M467 159l-1 1 1 1 2 2 1-1-2-2-1-1z"/>
  <path fill="#ff0" d="M492 153v1l2-1s-1-2 1-1l9 7c2 1 0 1 0 1l-5-2-2-1v2l-2-1-3-4v-1z"/>
  <path fill="#00d860" d="M542 320c-1 0-3 2-2 4h1a124 124 0 0012-19v-1a18 18 0 01-4 3c0 2-2 4-4 4 1 1 1 3-1 3l-2 2-2 1h2v1l-2 1h2z"/>
  <path d="M482 151h-2c1 1 0 2-1 2h-4c-1 0-2 2 0 1l6-1c1 0 2-1 0-2zm3 2c-2-1-2 0-2 1l-1 1-5 1c-2 0-2 1 0 1l6-2h1c1 0 2 0 1-2zm1 4l-4 2c-1 0-2 1 0 1l5-3h1s2-1 0-2h-2v2zM470 131c-3-2-6 2-3 4 3 1 5-2 3-4z"/>
  <path fill="#fff" d="M467 133s1 2 2 1c-1 1-2 0-2-1zm9 37h5l-2 2c0 1 0 1 0 0l-1-1-1 2h-1v-3z"/>
  <path fill="none" stroke="#000" d="M575 200c0 63-11 132-93 165-83-33-93-102-94-165zm0 0c0-25-2-48-1-68a249 249 0 00-93-17c-20 0-61 3-92 17 1 20-1 43-1 68z"/>
  <path fill="#012169" d="M0 0h320v240H0z"/>
  <path fill="#fff" d="M38 0l122 91L281 0h39v31l-120 90 120 89v30h-40l-120-89-119 89H0v-30l120-89L0 32V0z"/>
  <path fill="#c8102e" d="M212 141l108 79v20l-135-99zm-92 10l3 17-96 72H0zM320 0v2L196 96l1-22 98-74zM0 0l120 88H90L0 21z"/>
  <path fill="#fff" d="M121 0v240h80V0zM0 80v80h320V80z"/>
  <path fill="#c8102e" d="M0 97v48h320V97zM137 0v240h48V0z"/>
</svg>
