<svg xmlns="http://www.w3.org/2000/svg" id="flag-icons-tm" viewBox="0 0 640 480">
  <defs>
    <clipPath id="a">
      <path d="M43 0h682v512H43z"/>
    </clipPath>
  </defs>
  <g fill-rule="evenodd" clip-path="url(#a)" transform="translate(-40) scale(.9375)">
    <path fill="#00843d" d="M0 0h768v512H0z"/>
    <g fill="#fff">
      <path d="M263 138c28 13 61 0 73-19 13-17 14-47-7-73 33 27 40 58 24 84-22 29-71 28-90 8z"/>
      <path d="M313 69l5 1-4 3 2 6-5-4-4 4 1-6-4-3 5-1 2-5zm-28 35h6l-5 4 2 5-5-3-4 3 1-5-4-4h5l2-5zm2-27h6l-5 3 2 6-5-3-4 3 1-6-4-3h5l2-6zm0-28h6l-5 4 2 6-5-4-5 4 2-6-4-3 5-1 2-5zm-31 35h6l-5 4 2 5-5-3-4 3 1-5-4-4h6l1-5z"/>
    </g>
    <path fill="#ca3745" d="M48 0h164v512H48z"/>
    <g fill="#faae29">
      <path d="M48 134v-4l6-9-1-2 4-6-1-1-3 3-1-2 9-12 2 1-2 2 3 4 7-9-7-9-3 3 2 2-2 2-9-13 1-2 3 4 1-2-4-5 1-2-7-9v-4l10 13-1 2 4 5-3 4 3 3 4-5 10 13-10 13-4-6-3 4 3 3-4 6 1 2-9 13z"/>
      <path d="M48 88l1 3v6h4l3 2-3 2h-4v5l-1 4V88z"/>
    </g>
    <g fill="#faae29">
      <path d="M48 221v-3l6-9-1-2 4-6-1-2-3 4-1-2 9-13 2 2-2 2 3 4 7-10-7-8-3 3 2 2-2 2-9-13 1-2 3 4 1-2-4-6 1-2-7-9v-3l10 12-1 2 4 6-3 3 3 4 4-5 10 13-10 12-4-5-3 3 3 4-4 5 1 2-9 13z"/>
      <path d="M48 176l1 3v6h4l3 1-3 2h-4v6l-1 4v-22z"/>
    </g>
    <g fill="#faae29">
      <path d="M48 309v-4l6-9-1-2 4-5-1-2-3 4-1-2 9-13 2 2-2 2 3 3 7-9-7-9-3 4 2 2-2 1-9-12 1-2 3 3 1-1-4-6 1-2-7-9v-4l10 13-1 2 4 6-3 3 3 4 4-6 10 13-10 13-4-5-3 3 3 4-4 5 1 2-10 13z"/>
      <path d="M48 263l1 4v6h4l3 1-3 2h-4v6l-1 3v-22z"/>
    </g>
    <g fill="#faae29">
      <path d="M48 391v-3l6-9-1-2 4-6-1-2-3 4-1-2 9-13 2 2-2 2 3 4 7-9-7-9-3 3 2 2-2 2-9-13 1-2 3 4 1-2-4-6 1-1-7-10v-3l10 13-1 1 4 6-3 4 3 3 4-5 10 13-10 12-4-5-3 4 3 3-4 6 1 2-10 12z"/>
      <path d="M48 346l1 3v6h4l3 2-3 1h-4v6l-1 4v-22z"/>
    </g>
    <g fill="#faae29">
      <path d="M212 134v-4l-7-9 2-2-4-6 1-1 3 3 1-2-9-12-2 1 2 2-3 4-7-9 7-9 3 3-2 2 1 2 10-13-1-2-3 4-1-2 4-5-2-2 7-9v-4l-9 13 1 2-4 5 3 4-3 3-4-5-10 13 10 12 4-5 3 4-3 3 4 6-1 2 9 13z"/>
      <path d="M212 88l-1 3v6h-4l-3 2 3 2h4v5l1 4V88z"/>
    </g>
    <g fill="#faae29">
      <path d="M213 221v-3l-7-9 1-2-4-6 1-2 3 4 1-2-9-13-1 2 1 2-3 4-7-10 7-8 3 3-2 2 2 2 9-13-1-2-3 4-1-2 4-6-1-1 7-10v-3l-10 13 1 1-4 6 3 4-3 3-4-5-10 13 10 12 4-5 3 3-3 4 4 6-1 1 10 13z"/>
      <path d="M213 176l-2 3v6h-4l-3 1 3 2h4v6l2 4v-22z"/>
    </g>
    <g fill="#faae29">
      <path d="M212 309v-4l-7-9 2-2-4-5 1-2 3 4 1-2-9-13-2 2 2 2-3 3-7-9 7-9 3 4-2 2 1 1 10-12-1-2-3 3-1-1 4-6-2-2 7-9v-4l-9 13 1 2-4 6 3 3-3 4-4-6-10 13 10 13 4-5 3 3-3 4 4 5-1 2 9 13z"/>
      <path d="M212 263l-1 4v6h-4l-3 1 3 2h4v6l1 3v-22z"/>
    </g>
    <g fill="#faae29">
      <path d="M212 391v-3l-7-9 2-2-4-6 1-2 3 4 1-2-9-13-2 2 2 2-3 4-7-9 7-9 3 3-2 2 1 2 10-13-1-2-3 4-1-2 4-5-2-2 7-9v-4l-9 13 1 1-4 6 3 4-3 3-4-5-10 13 10 13 4-6 3 4-3 3 4 6-1 2 9 12z"/>
      <path d="M212 346l-1 3v6h-4l-3 2 3 1h4v6l1 4v-22z"/>
    </g>
    <path fill="#faae29" d="M48 35v-4l6-9-1-2 4-5-1-2-3 4-1-2 9-13 2 2-2 1 3 4 7-9h3L64 13l-4-6-3 4 3 4-4 5 1 2-9 13zm0-35h8l-3 2h-4v5l-2 4V0zm164 35v-4l-7-9 2-2-4-5 1-2 3 4 1-2-10-13-1 2 1 1-2 4-7-9h-3l10 13 4-6 3 4-3 4 4 5-1 2 9 13zm0-35h-8l3 2h4v5l1 4V0zm-96 505s6-11 21-14 17 7 26 7 22-7 22-7-14 13-24 13-14-7-25-6c-10 1-20 7-20 7z"/>
    <path fill="#faae29" d="M145 505s-6-11-21-14-17 7-26 7-22-7-22-7 14 13 24 13 14-7 25-6c10 1 20 7 20 7z"/>
    <g fill="#faae29">
      <path d="M96 488c-1-3-4-15-3-17 3-1 10 12 9 23-4 2-20-1-20-5 2-4 10-3 14-1z"/>
      <path d="M87 477c-1-3-2-16 0-17 2 0 7 14 5 25-5 1-20-7-19-10 2-4 10 0 14 2z"/>
      <path d="M79 465c0-3-1-16 1-16 3 0 7 15 4 25-5 0-19-10-18-13 2-4 10 1 13 4z"/>
      <path d="M73 453c0-3 1-16 3-16 3 1 5 16 0 25-4-1-17-13-15-16s9 3 12 7z"/>
      <path d="M69 440c0-3 3-16 5-16 2 2 3 17-3 26-4-2-15-17-14-19 3-3 9 5 12 9z"/>
      <path d="M70 425c0 13-2 13-7 4-2-4-2-19 0-20 2 0 7 11 7 16z"/>
    </g>
    <g fill="#faae29">
      <path d="M164 489c1-3 5-15 3-16-3-1-10 11-9 22 5 2 20-1 20-4-1-5-10-3-14-2z"/>
      <path d="M173 478c1-3 3-15 1-16-3 0-8 13-6 24 5 1 20-7 19-10-2-4-10 0-14 2z"/>
      <path d="M181 467c1-3 1-16-1-17-3 0-7 15-3 25 5 0 19-9 18-12-3-4-10 1-14 4z"/>
      <path d="M187 454c0-3-1-16-3-16-3 1-5 16 0 25 5 0 17-13 16-16-3-3-10 4-13 7z"/>
      <path d="M191 441c0-3-3-15-5-15-2 1-3 16 3 25 5-2 16-17 14-19-3-3-9 5-12 9z"/>
      <path d="M190 426c0 13 3 13 7 4 2-4 2-19 1-19-3 0-8 10-8 15z"/>
    </g>
    <g transform="matrix(.99985 0 0 1.26515 188 -77)">
      <path fill="#ca3745" d="M-2 321h-8v4h-8v5h-31l-6 4 3 2h13l3-2h-13l2-2h19l-8 6h-19l-5-2-5 2h-19l-7-6h18l3 2h-14l3 2h13l3-2-5-4h-29v-5h-8v-4h-8v-20h8v-4h8v-5h29l5-4-3-2h-13l-3 2h14l-3 2h-18l7-7h19l5 3 6-3h18l8 7h-19l-2-2h13l-3-2h-13l-3 2 6 4h31v5h8v4h8v20z"/>
      <path fill="#00843d" stroke="#faae29" d="M376 500v24h10v8h11v7h35l15 10 14-10h39v-7h10v-7h11v-25h-11v-7h-10v-8h-39l-14-10-15 10h-35v8h-11v7h-10z" transform="matrix(.74419 0 0 .62 -392 -6)"/>
      <path fill="#ca3745" d="M-76 297l-15 11v-11h15zm32 0l16 11v-11h-16zm-32 28l-15-11v11h15zm32 0l16-11v11h-16zm5-22l-5 5h11l-6-5zm-42 0l-5 5h10l-5-5zm0 16l-5-5h10l-5 5zm42 0l-5-5h11l-6 5z"/>
      <path fill="#faae29" d="M-60 330l-5-5h11l-6 5zm0-22l-5-5h11l-6 5zm0-16l-5 5h11l-6-5zm0 22l-5 5h11l-6-5zM-44 308h11v2h-11z"/>
      <path fill="#c00" d="M-83 310h5v2h-5zm42 0h5v2h-5z"/>
      <path fill="#900" d="M-65 297h10v2h-10zm0 4h10v2h-10zM-68 299h16v2h-16zm3 20h10v2h-10zm0 4h10v2h-10zm-3-2h16v2h-16z"/>
      <path fill="#faae29" d="M-44 312h11v2h-11zm-42-4h10v2h-10zm0 4h10v2h-10zm-3-2h5v2h-5zm11 0h5v2h-5zm31 0h6v2h-6zm11 0h5v2h-5z"/>
      <circle cx="414" cy="582" r="1" fill="#fff" transform="matrix(.74419 0 0 .62 -374 -39)"/>
      <circle cx="414" cy="582" r="1" fill="#fff" transform="matrix(.74419 0 0 .62 -368 -39)"/>
      <circle cx="414" cy="582" r="1" fill="#fff" transform="matrix(.74419 0 0 .62 -361 -39)"/>
      <circle cx="414" cy="582" r="1" fill="#fff" transform="matrix(.74419 0 0 .62 -371 -41)"/>
      <circle cx="414" cy="582" r="1" fill="#fff" transform="matrix(.74419 0 0 .62 -364 -41)"/>
      <circle cx="414" cy="582" r="1" fill="#fff" transform="matrix(.74419 0 0 .62 -372 -37)"/>
      <circle cx="414" cy="582" r="1" fill="#fff" transform="matrix(.74419 0 0 .62 -364 -37)"/>
      <circle cx="414" cy="582" r="1" fill="#fff" transform="matrix(.74419 0 0 .62 -353 -50)"/>
      <circle cx="414" cy="582" r="1" fill="#fff" transform="matrix(.74419 0 0 .62 -347 -50)"/>
      <circle cx="414" cy="582" r="1" fill="#fff" transform="matrix(.74419 0 0 .62 -340 -50)"/>
      <circle cx="414" cy="582" r="1" fill="#fff" transform="matrix(.74419 0 0 .62 -350 -52)"/>
      <circle cx="414" cy="582" r="1" fill="#fff" transform="matrix(.74419 0 0 .62 -343 -52)"/>
      <circle cx="414" cy="582" r="1" fill="#fff" transform="matrix(.74419 0 0 .62 -351 -48)"/>
      <circle cx="414" cy="582" r="1" fill="#fff" transform="matrix(.74419 0 0 .62 -343 -48)"/>
      <circle cx="414" cy="582" r="1" fill="#fff" transform="matrix(.74419 0 0 .62 -374 -61)"/>
      <circle cx="414" cy="582" r="1" fill="#fff" transform="matrix(.74419 0 0 .62 -368 -61)"/>
      <circle cx="414" cy="582" r="1" fill="#fff" transform="matrix(.74419 0 0 .62 -361 -61)"/>
      <circle cx="414" cy="582" r="1" fill="#fff" transform="matrix(.74419 0 0 .62 -372 -63)"/>
      <circle cx="414" cy="582" r="1" fill="#fff" transform="matrix(.74419 0 0 .62 -364 -63)"/>
      <circle cx="414" cy="582" r="1" fill="#fff" transform="matrix(.74419 0 0 .62 -372 -59)"/>
      <circle cx="414" cy="582" r="1" fill="#fff" transform="matrix(.74419 0 0 .62 -364 -59)"/>
      <circle cx="414" cy="582" r="1" fill="#fff" transform="matrix(.74419 0 0 .62 -395 -50)"/>
      <circle cx="414" cy="582" r="1" fill="#fff" transform="matrix(.74419 0 0 .62 -389 -50)"/>
      <circle cx="414" cy="582" r="1" fill="#fff" transform="matrix(.74419 0 0 .62 -382 -50)"/>
      <circle cx="414" cy="582" r="1" fill="#fff" transform="matrix(.74419 0 0 .62 -393 -52)"/>
      <circle cx="414" cy="582" r="1" fill="#fff" transform="matrix(.74419 0 0 .62 -385 -52)"/>
      <circle cx="414" cy="582" r="1" fill="#fff" transform="matrix(.74419 0 0 .62 -393 -48)"/>
      <circle cx="414" cy="582" r="1" fill="#fff" transform="matrix(.74419 0 0 .62 -385 -48)"/>
    </g>
    <path fill="#fff" d="M139 256l4-2 5 2h-9zm-14 0l5-2 4 2h-9zm-13 0l4-2 5 2h-9zm27-49l4 2 5-2h-9zm-14 0l5 2 4-2h-9zm-13 0l4 2 5-2h-9z"/>
    <path fill="#00843d" d="M135 262l-5 4-6-4-5 4-5-4v2l3 2-1 3v2h1l2-2 2 2h2v-2l-2-3 3-2 4 2-2 3v2h2l2-2 2 2h1v-2l-1-3 3-2 4 2-2 3v2h2l1-2 2 2h2v-2l-2-3 4-2v-2l-6 4-5-4zm0-61l-5-5-6 5-5-5-5 5v-3l3-2-1-2v-2h1l2 2 2-2h2v2l-2 2 3 2 4-2-2-2v-2h2l2 2 2-2h1v2l-1 2 3 2 4-2-2-2v-2h2l1 2 2-2h2v2l-2 2 4 2v2l-6-4-5 4zm40 35l6-5-6-4 6-5-6-4h3l3 3 3-2h3v2l-3 1 3 2v1h-3l-3-1-3 3 3 3 3-2h3v2l-3 1 3 2v1h-3l-3-1-3 3 3 3 3-2h3v2l-3 2 3 1v2h-3l-3-2-3 3h-3l6-4-6-5zm-90 0l-6-5 5-4-5-5 5-4h-2l-3 3-3-2h-3v2l3 1-3 2v1h3l3-2 3 4-3 3-3-2h-3v2l3 1-3 2v1h3l3-1 3 3-3 3-3-2h-3v2l3 1-3 2v2h3l3-2 3 3h2l-5-5 5-4zM177 252h3v2h-3zm-2 2h2v2h-2zm-11 10h2v2h-2zm2-2h2v2h-2zm-75 0h3v2h-3zm-11-10h2v2h-2zm2 2h2v2h-2zm0-47h2v2h-2zm-2 2h2v2h-2zm14-13h2v2h-2zm-3 2h3v3h-3zm73-2h2v2h-2zm2 2h2v3h-2zm9 9h2v2h-2zm2 2h3v2h-3zm-83 55h2v2h-2z"/>
    <path fill="#fff" d="M123 231h-7v-4h5v-4h4v-3h5v4c-4 0-7 3-7 7z"/>
    <path fill="#faae29" d="M136 231h7v-4h-4v-4h-5v-3h-4v4c3 0 6 3 6 7z"/>
    <path fill="#fff" d="M136 231h7v5h-4v3h-5v4h-4v-4c3 0 6-3 6-8z"/>
    <path fill="#faae29" d="M123 231h-7v5h5v3h4v4h5v-4c-4 0-7-3-7-8z"/>
    <path fill="#00843d" d="M136 231h-6v-7c3 0 6 3 6 7z"/>
    <path fill="#ca3745" d="M136 231h-6v8c3 0 6-4 6-8z"/>
    <path fill="#00843d" d="M123 231h7v8c-4 0-7-4-7-8z"/>
    <path fill="#ca3745" d="M123 231h7v-7c-4 0-7 3-7 7z"/>
    <path fill="#00843d" d="M137 258l-7-4-7 4-7-4-7 4v-2l5-2-2-3v-2h2l2 3 2-3h3v3l-3 2 5 2 5-2-3-3v-2h3l2 3 2-3h2v3l-2 2 5 2 4-2-2-3v-2h2l2 3 3-3h2v3l-2 2 4 2v2l-7-4-6 4zm0-53l-7 4-7-4-7 4-7-4v2l5 2-2 2v2h2l2-2 2 2h3v-2l-3-2 5-2 5 2-3 2v2h3l2-2 2 2h2v-2l-2-2 5-2 4 2-2 2v2h2l2-2 3 2h2v-2l-2-2 4-2v-2l-7 4-6-4zm25 32l-4-6 4-5-4-5 4-6h-2l-2 4-1-2h-2v2l2 2-2 1v2h2l1-2 2 4-2 3-1-1h-2v1l2 2-2 2v2h2l1-2 2 4-2 3-1-2h-2v2l2 2-2 2v1h2l1-1 2 3h2l-4-5 4-5z"/>
    <path fill="#00843d" d="M109 207l-9 8v32l9 9h41l9-9v-32l-9-8h-41zm-2-7l-23 22v19l23 21h46l22-21v-19l-22-22h-46z"/>
    <path fill="#faae29" d="M119 258l3 4 4-4h-7zM119 205l3-5 4 5h-7zM133 205l4-5 4 5h-8zM133 258l4 4 4-4h-8z"/>
    <path fill="#ca3745" d="M112 205l3-5 4 5h-7zM126 205l4-5 3 5h-7zM141 205l3-5 4 5h-7zM103 252l6 6h-6v-6z"/>
    <path fill="#00843d" d="M98 237l4-6-4-5 3-5-3-6h2l1 4 2-2h2v2l-2 2 2 1v2h-2l-2-2-1 4 1 4 2-2h2v2l-2 1 2 2v2h-2l-2-2-1 4 1 3 2-2h2v2l-2 2 2 2v2h-2l-2-2-1 3h-2l3-5-3-5z"/>
    <path fill="#ca3745" d="M164 226h9l2 2-2 1h-9v-4zM103 211l-5 4v32l5 5h-7v-41h7zM112 258l3 4 4-4h-7zM126 258l4 4 3-4h-7zM141 258l3 4 4-4h-7zM157 211l5 4v32l-5 5h7v-41h-7zM157 252l-7 6h7v-6zM157 211l-7-6h7v6zM103 211l6-6h-6v6z"/>
    <path fill="#00843d" d="M109 207l-9 8v32l9 9h41l9-9v-32l-9-8h-41zm0-2l-11 10v32l11 11h41l12-11v-32l-12-10h-41z"/>
    <path fill="#faae29" d="M164 229h9l2 2-2 2h-9v-4z"/>
    <path fill="#ca3745" d="M164 233h9l2 2-2 2h-9v-4z"/>
    <path fill="#faae29" d="M164 237h9l2 2-2 2h-9v-4zM164 222h9l2 2-2 2h-9v-4z"/>
    <path fill="#ca3745" d="M96 226h-9l-3 2 3 1h9v-4z"/>
    <path fill="#faae29" d="M96 229h-9l-3 2 3 2h9v-4z"/>
    <path fill="#ca3745" d="M96 233h-9l-3 2 3 2h9v-4z"/>
    <path fill="#faae29" d="M96 237h-9l-3 2 3 2h9v-4zM96 222h-9l-3 2 3 2h9v-4z"/>
    <path fill="#970000" d="M82 209v44h12v11h72v-11h11v-44h-11v-10H94v10H82zm2 2v41h12v10h68v-10h11v-41h-11v-10H96v10H84z"/>
    <path fill="#ca3745" d="M186 43l-6-8v-6l-7-6h-14l-11-7h-36l-12 7H87l-7 6v6l-7 8v16l7 8v7l7 6h13l12 6h36l11-6h14l7-6v-6l7-9V43z"/>
    <path fill="#faae29" d="M75 51v6l7 9v6l7 6h14l11 6h16V51H75z"/>
    <path fill="#ca3745" d="M111 66l-9 5h-5l2 1-3 4 2 2 5-2 1 2 1-5 9-6-3-1z"/>
    <path fill="#ca3745" d="M102 61l-9 6h-5l2 1-3 4 1 2 5-2 2 2 1-5 9-5-3-2zm-5-8l-8 6h-5l1 1-3 4 2 1 5-1 2 2v-5l9-6-3-2z"/>
    <path fill="#faae29" d="M184 51v-6l-7-8v-6l-6-6h-14l-11-6h-16v32h54z"/>
    <path fill="#ca3745" d="M130 84h-4l-5-4h-8l-4-2 2-2 4 2h4l4-6 7 2v4h-6l6 6z"/>
    <path fill="#fff" d="M75 51v-6l7-8v-6l7-6h14l11-6h16v32H75z"/>
    <path fill="#ca3745" d="M130 19h-4l-5 4h-8l-4 2 2 2 4-2h4l4 6 7-2v-4h-6l6-6zM130 19h4l5 4h8l4 2-2 2-5-2h-4l-4 6-6-2v-4h6l-6-6z"/>
    <path fill="#fff" d="M184 51v6l-7 9v6l-6 6h-14l-11 6h-16V51h54z"/>
    <path fill="#ca3745" d="M130 84h4l5-4h8l4-2-2-2-5 2h-4l-4-6-6 2v4h6l-6 6zm-28-43l-9-5h-5l2-2-3-3 1-2 5 1 2-1 1 4 9 6-3 2zm47-4l8-5h5l-2-2 4-4-2-1-5 1-1-1-1 4-9 6 3 2z"/>
    <path fill="#ca3745" d="M111 37l-9-5h-5l2-2-3-4 2-1 5 1 1-1 1 4 9 6-3 2zM97 49l-8-5h-5l1-2-3-3 2-2 5 2 2-2v5l9 5-3 2z"/>
    <path fill="#fff" d="M80 51h2l2 2 2-2h44v29h-2l2 2v2l-7-6v-2h3v2h2v-2l-17-9H96v-9l-6-5h-4l-2 2 2 2h-2l-4-6z"/>
    <path fill="#faae29" d="M80 51h2l2-2 2 2h44V23h-2l2-2v-2l-7 6v2h3v-2h2v2l-17 9H96v9l-6 4h-4l-2-2 2-2h-2l-4 6z"/>
    <path fill="#00843d" d="M89 51h41v25l-18-10H98v-9l-9-6z"/>
    <path fill="#ca3745" d="M158 41l8-5h5l-1-2 3-3-2-2-5 1-1-1-1 4-9 6 3 2zm5 8l8-5h5l-2-2 3-3-1-2-5 2-2-2-1 5-9 5 4 2z"/>
    <path fill="#fff" d="M180 51h-2l-2-2-2 2h-44V23h2l-2-2v-2l6 6v2h-2v-2h-2v2l17 9h14v9l7 4h4l2-2-2-2h2l4 6z"/>
    <path fill="#00843d" d="M171 51h-41V27l18 10h14v8l9 6z"/>
    <path fill="#ca3745" d="M149 66l8 5h5l-2 1 4 4-2 2-5-2-1 2-1-5-9-6 3-1z"/>
    <path fill="#ca3745" d="M158 61l8 6h5l-1 1 3 4-2 2-5-2-1 2-1-5-9-5 3-2zm5-8l8 6h5l-2 1 3 4-1 2-5-2-2 2-1-5-9-6 4-2z"/>
    <path fill="#faae29" d="M180 51h-2l-2 2-2-2h-44v29h2l-2 2v2l6-6v-2h-2v2h-2v-2l17-9h14v-9l7-5h4l2 2-2 2h2l4-6z"/>
    <path fill="#ca3745" d="M171 51h-41v25l18-10h14v-9l9-6zm-82 0h41V27l-18 10H98v8l-9 6zM134 51l12-6h7l-3-2 5-4-2-2-7 2-3-2-1 5-12 7 4 2zm-9 0l-11 6h-7l2 2-4 4 2 3 7-2 2 2 1-6 13-6-5-3z"/>
    <path fill="#00843d" d="M125 51l-11-6h-7l3-2-5-4 2-2 7 2 2-2 1 5 13 7-5 2zm9 0l12 6h7l-3 2 5 5-2 2-7-2-3 2-1-6-12-6 4-3z"/>
    <path fill="#fff" d="M116 51l14-10 13 10-13 10-14-10z"/>
    <path fill="#ca3745" d="M86 55l2 2-2 2h-2l-7-8h2l5 6h2l-2-2 2-2h4v2h-4zM86 47l2-2-2-2h-2l-7 8h2l5-6h2l-2 2 2 2h4v-2h-4zm88 8l-2 2 2 2h2l6-8h-2l-4 6h-2l2-2-2-2h-4v2h4zM174 47l-2-2 2-2h2l6 8h-2l-4-6h-2l2 2-2 2h-4v-2h4zm-46-4h4v16h-4z"/>
    <path fill="#ca3745" d="M121 47h17v8h-17z"/>
    <path fill="#00843d" d="M111 362l-38 21v33l38 21h38l37-21v-33l-37-21h-38z"/>
    <path fill="#c00" d="M87 396h2v-4h5v4h2v-10h-2v5h-4v-5h-3v10zm58 33h2v-4h5v4h2v-10h-2v4h-5v-4h-2v10zm-37-49h3v-4h4v4h3v-10h-3v4h-4v-4h-3v10zm34 0h2v-4h5v4h2v-10h-2v4h-5v-4h-2v10zm21 16h3v-4h4v4h2v-10h-2v5h-4v-5h-3v10zm0 17h3v-5h4v5h2v-10h-2v4h-4v-4h-3v10z"/>
    <path fill="#faae29" d="M130 435v-36h55v17l-37 19h-18zm0-71v35H75v-16l37-19h18z"/>
    <path fill="#fff" d="M130 364v35h55v-16l-37-19h-18zm0 71v-36H75v17l37 19h18z"/>
    <path fill="#faae29" d="M159 385h22l-22-10v10zm26-2v17h-35v-13h-7l-9-5v-12l5-5h-7v17h-2v-18h18l37 19z"/>
    <path fill="#ca3745" d="M112 388v23h5l13 7 13-7h5v-23h-5l-13-6-13 6h-5z"/>
    <path fill="#faae29" d="M101 414H79l22 10v-10zm-26 2v-16h35v13h7l9 4v12l-5 5h7v-17h2v18h-18l-37-19z"/>
    <path fill="#fff" d="M101 385H79l22-10v10zm-26-2v17h35v-13h7l9-5v-12l-5-5h7v17h2v-18h-18l-37 19zM159 414h22l-22 10v-10zm26 2v-16h-35v13h-7l-9 4v12l5 5h-7v-17h-2v18h18l37-19z"/>
    <path fill="#ca3745" d="M86 413h2v-5h5v5h2v-12h-2v5h-5v-5h-2v12zm22 16h2v-5h5v5h2v-11h-2v4h-5v-5h-2v12zm-22-42h2v4h5v-5h2v12h-2v-5h-5v5h-2v-12zm22-17h2v5h5v-5h2v12h-2v-5h-5v5h-2v-12zm35 59h2v-5h5v5h2v-11h-2v4h-5v-5h-2v12zm22-31h2v-5h4v5h3v-11h-3v4h-4v-5h-2v12z"/>
    <path fill="#ca3745" d="M143 429h2v-5h5v5h2v-12h-2v5h-5v-5h-2v12z"/>
    <path fill="#ca3745" d="M143 429h2v-5h5v5h2v-12h-2v5h-5v-5h-2v12zm22-16h2v-5h4v5h3v-12h-3v5h-4v-5h-2v12zm-22-31h2v-5h5v5h2v-12h-2v5h-5v-5h-2v12z"/>
    <path fill="#fff" d="M132 400l7-6h4v3h-4v1h6v-6h-6v-4h-7v4h1v-3h4v3l-7 6-8-6v-3h4v3h2v-4h-7v4h-6v6h6v-1h-4v-3h4l7 6-7 6h-4v-3h4v-2h-6v6h6v4h7v-4h-2v3h-3v-3l7-6 7 6v3h-3v-3h-2v4h7v-4h6v-6h-6v2h4v3h-4l-7-6z"/>
    <g transform="matrix(1.0321 0 0 .95838 205 18)">
      <path fill="#ca3745" d="M-122 134l3-3h21l15-17h21l15 17h21l3 3-3 4h-21l-15 17h-21l-15-17h-21l-3-4z"/>
      <path fill="#ca3745" d="M-121 135l2-2h22l15-18h18l16 18h21l2 2-2 1h-21l-14 16h-21l-14-16h-22l-2-1z"/>
      <path fill="#faae29" d="M-64 136l7 8-4 3-1-2h-2v2l2 2h3l4-4v-3l-7-8 7-7v-4l-4-4h-3l-2 2v2h2l2-2 3 4-7 7-7-7 7-8v-1h-2l-7 7-6-7h-2v1l7 8-7 7-7-7 3-4 2 2h2v-2l-2-2h-3l-4 4v4l7 7-7 8v3l4 4h3l2-2v-2h-2l-2 2-3-3 7-8 7 8-7 7v2h1l7-7 7 7h2v-2l-7-7 7-8zm-9-9l-6 7 6 8 7-8-7-7zm-10 28v15l2-2 2 2 1-2 2 2 2-2 1 2 2-2 2 2 2-2 1 2 2-2 2 2v-15h-21zm21-41V99l-2 2-2-2-1 2-2-2-2 2-2-2-1 2-2-2-2 2-2-2-1 2-2-2v15h21zm29 17v-15l-2 2-2-2-1 2-2-2-2 2-1-2-2 2-2-2v15h14zm-65 0v-15l-2 2-2-2-1 2-2-2-2 2-2-2-1 2-2-2v15h14zm65 7v15l-2-2-2 2-1-2-2 2-2-2-1 2-2-2-2 2v-15h14zm-65 0v15l-2-2-2 2-1-2-2 2-2-2-2 2-1-2-2 2v-15h14z"/>
      <path fill="#00843d" d="M-62 155v9l1-2 2 2 2-2 2 2 1-2 2 2 2-2 1 2 2-2v-24l-15 17zm-21 0v9l-2-2-1 2-2-2-2 2-2-2-1 2-2-2-2 2-1-2v-24l15 17zm0-41v-9l-2 1-1-1-2 1-2-1-2 1-1-1-2 1-2-1-1 1v25l15-17zm21 0v-9l1 1 2-1 2 1 1-1 2 1 2-1 2 1 1-1 2 1v25l-15-17zm-50 35l-2-2-2 2-1-2-2 2-2-2-1 2-2-2-2 2v-30l2 2 2-2 1 2 2-2 2 2 1-2 2 2 2-2v12h-7l-3 3 3 4h7v11zm79 0l1-2 2 2 2-2 2 2 1-2 2 2 2-2 1 2v-30l-1 2-2-2-2 2-1-2-2 2-2-2-2 2-1-2v12h7l3 3-3 4h-7v11z"/>
      <path fill="#fff" d="M-91 156l-2 2 2 2 2-2-1-2v-3s3 5 3 3-3-4-3-4h-1l-3 4c0 2 3-3 3-3v3z"/>
      <path fill="#ca3745" d="M-73 162l-2 3 2 3 3-3-2-3v-5s3 7 3 4l-3-6h-2l-3 6c0 3 3-4 3-4v5z"/>
      <ellipse cx="404" cy="392" fill="#00843d" rx="4" ry="2" transform="matrix(.96774 0 0 1.0526 -482 -278)"/>
      <ellipse cx="404" cy="392" fill="#00843d" rx="4" ry="2" transform="matrix(.96774 0 0 1.0526 -463 -278)"/>
      <ellipse cx="404" cy="392" fill="#00843d" rx="4" ry="2" transform="matrix(.96774 0 0 1.0526 -445 -278)"/>
      <path fill="#fff" d="M-92 113l-1-2 2-3 2 2-1 3v3s3-5 3-3l-3 4h-2l-3-4c0-2 3 3 3 3v-3z"/>
      <path fill="#ca3745" d="M-74 107l-2-3 3-3 3 3-2 3v4s3-7 3-3c0 2-3 5-3 5h-2l-3-5c0-3 3 3 3 3v-4z"/>
      <path fill="#fff" d="M-55 156l-1 2 2 2 2-2-1-2v-3s3 5 3 3-3-4-3-4h-2l-3 4c0 2 3-3 3-3v3zm0-43l-2-3 3-2 2 2-2 3v3s3-5 3-3l-3 4h-1l-3-4c0-2 3 3 3 3v-3z"/>
      <path fill="#ca3745" d="M-106 146l-2 2 3 2 3-2-2-2v-3s3 4 3 2l-3-4h-2l-4 4c0 2 4-2 4-2v3zm-1-22l-2-2 3-2 3 2-2 2v3s4-4 4-2l-4 4h-2l-3-4c0-2 3 2 3 2v-2zm67 21l-2 2 3 2 2-2-2-2v-3s4 5 4 3l-4-4h-2l-3 4c0 2 4-3 4-3v3zm-1-21l-2-2 3-2 3 2-2 2v3s3-5 3-3-3 4-3 4h-2l-3-4c0-2 3 3 3 3v-3z"/>
      <path fill="#fff" d="M-120 145l-1-2 3-2 2 2-1 3v-3c-2 4-2 4-2 0l-1 2zm0-21l-1 3 3 2 2-3-1-2v2c-1-3-2-3-2 0l-1-2zm92 21v-3l2-1 2 2v2l-1-2c-1 3-1 3-2 0l-1 2zm0-21v2l2 2 2-2v-3l-1 3c-1-4-1-4-2 0l-1-2z"/>
      <path fill="#ca3745" d="M-83 170v-5h-16v-11h-14v-3h-13v-32h13v-4h14v-10h16v-6h21v6h16v10h14v4h13v32h-13v3h-14v11h-16v5h-21zm-2 2v-5h-16v-11h-14v-4h-12v-35h12v-4h14v-10h16v-6h25v6h16v10h14v4h12v35h-12v4h-14v11h-16v5h-25z"/>
    </g>
  </g>
</svg>
