<svg xmlns="http://www.w3.org/2000/svg" id="flag-icons-tn" viewBox="0 0 640 480">
  <defs>
    <clipPath id="a">
      <path d="M-85 0h682v512H-85z"/>
    </clipPath>
  </defs>
  <g fill-rule="evenodd" clip-path="url(#a)" transform="translate(80) scale(.9375)">
    <path fill="#e70013" d="M-128 0h768v512h-768z"/>
    <path fill="#fff" d="M386 256a129 129 0 11-258 0 129 129 0 01258 0z"/>
    <path fill="#e70013" d="M257 341a86 86 0 010-171c11 0 25 3 34 10-63 2-78 55-78 76s10 70 78 77c-8 5-23 8-34 8z"/>
    <path fill="#e70013" d="M332 292l-39-14-25 32 1-41-39-15 40-11 2-42 23 35 40-11-26 32z"/>
  </g>
</svg>
