<svg xmlns="http://www.w3.org/2000/svg" id="flag-icons-tv" viewBox="0 0 640 480">
  <path fill="#009fca" d="M0 0h640v480H0z"/>
  <path fill="#fff40d" fill-rule="evenodd" d="M593 123h28l-22 15 8 25-22-16-22 16 8-25-22-15h27l9-25zm-69 197h28l-23 15 9 24-22-15-23 15 9-24-22-16h27l9-24zm69-45h28l-22 15 8 25-22-16-22 16 8-25-22-15h27l9-25zM296 418h27l-22 15 9 24-23-15-22 15 9-24-23-15h28l8-25zm62-77h-27l22-15-8-25 22 15 22-15-8 25 22 15h-28l-8 25zm82-112h-28l22-16-8-24 22 15 22-15-8 25 22 15h-27l-9 24zm68-24h-28l23-15-9-25 22 16 23-16-9 25 23 15h-28l-8 25zm-68 195h-28l22-15-8-25 22 15 23-15-9 25 22 15h-27l-9 25zm-82 20h-27l22-15-8-25 22 15 22-15-8 25 22 15h-27l-9 25z"/>
  <path fill="#012169" d="M0 0h320v240H0z"/>
  <path fill="#FFF" d="M38 0l122 91L281 0h39v31l-120 90 120 89v30h-40l-120-89-119 89H0v-30l120-89L0 32V0z"/>
  <path fill="#C8102E" d="M212 141l108 79v20l-135-99zm-92 10l3 17-96 72H0zM320 0v2L196 96l1-22 98-74zM0 0l120 88H90L0 21z"/>
  <path fill="#FFF" d="M121 0v240h80V0zM0 80v80h320V80z"/>
  <path fill="#C8102E" d="M0 97v48h320V97zM137 0v240h48V0z"/>
</svg>
