<svg xmlns="http://www.w3.org/2000/svg" id="flag-icons-tw" viewBox="0 0 640 480">
  <clipPath id="a">
    <path d="M0 0h640v480H0z"/>
  </clipPath>
  <g clip-path="url(#a)">
    <path fill="red" d="M0 0h720v480H0z"/>
    <path fill="#000095" d="M0 0h360v240H0z"/>
    <g fill="#fff">
      <path d="M154 127l-2 10 9 2-2-7zm47 5l-2 7 9-3-2-9zm-42-24l-5 5 2 7z"/>
      <path d="M156 120l-2 7 5 5z"/>
      <path d="M154 113l-7 7 7 7 2-7zm14 28l5 5 7-2zm19 5l10 3 2-10-7 2z"/>
      <path d="M192 141l7-2 2-7zm-31-2l3 9 9-2-5-5zm19 5l7 2 5-5z"/>
      <path d="M173 146l7 7 7-7-7-2zm-12-45l-9 3 2 9 5-5zm-2 31l2 7 7 2zm45-12l2-7-5-5z"/>
      <path d="M168 99l-7 2-2 7zm33 9l-2-7-7-2zm5 19l7-7-7-7-2 7z"/>
      <path d="M201 108l-9-9-12-3-12 3-9 9-3 12 3 12 9 9 12 3 12-3 9-9 3-12z"/>
      <path d="M201 132l5-5-2-7zm5-19l3-10-10-2 2 7zm-7-12l-3-10-9 3 5 5zm-26-7l-10-3-2 10 7-2zm7 2l-7-2-5 5z"/>
      <path d="M187 94l-7-7-7 7 7 2z"/>
      <path d="M192 99l-5-5-7 2zm-19 47l-10 3 5 16 12-12zm-5 19l12 45 12-45-12-12zm-7-26l-9-3-5 17 16-4z"/>
      <path d="M147 153l-12 45 33-33-4-17zm-12-21l-33 33 45-12 4-16z"/>
      <path d="M154 127l-7-7-12 12 16 5zm0-14l-2-9-17 4 12 12z"/>
      <path d="M135 108l-45 12 45 12 12-12zm90 24l-17 5 5 16 45 12z"/>
      <path d="M199 139l-3 9 17 5-4-16zm-12 7l-7 7 12 12 5-17zm19-19l3 10 16-5-12-12zM192 165l33 33-12-45-16-4zm7-64l9 2 5-16-16 4z"/>
      <path d="M225 108l33-33-45 12-4 16zm-12-21l12-45-33 33 5 16zm12 45l45-12-45-12-12 12z"/>
      <path d="M206 113l7 7 12-12-17-4zm-38-38l-33-33 12 45 16 4zM161 101l3-9-17-5 4 16zM147 87l-45-12 33 33 16-4zm40 7l9-2-4-17-12 12z"/>
      <path d="M192 75l-12-45-12 45 12 12z"/>
      <path d="M173 94l7-7-12-12-4 16z"/>
    </g>
    <circle cx="180" cy="120" r="51" fill="#000095"/>
    <circle cx="180" cy="120" r="45" fill="#fff"/>
  </g>
</svg>
