<svg xmlns="http://www.w3.org/2000/svg" id="flag-icons-ug" viewBox="0 0 640 480">
  <defs>
    <clipPath id="a">
      <path d="M-85 0h682v512H-85z"/>
    </clipPath>
  </defs>
  <g clip-path="url(#a)" transform="translate(80) scale(.9375)">
    <path fill="#ffe700" fill-rule="evenodd" d="M-128 341h768v86h-768z"/>
    <path fill-rule="evenodd" d="M-128 256h768v85h-768z"/>
    <path fill="#de3908" fill-rule="evenodd" d="M-128 171h768v85h-768z"/>
    <path fill="#ffe700" fill-rule="evenodd" d="M-128 85h768v86h-768z"/>
    <path fill-rule="evenodd" d="M-128 0h768v85h-768z"/>
    <path fill="#fffdff" fill-rule="evenodd" stroke="#000" d="M336 256a80 80 0 11-160 0 80 80 0 01160 0z"/>
    <path fill="#de3108" fill-rule="evenodd" stroke="#000" d="M242 195l-5-10c2-2 5-3 11-3l-1 10-5 3z"/>
    <path fill="#ffe700" fill-rule="evenodd" stroke="#000" d="M247 192l1-10s10-1 16 6l-6 8-11-4z"/>
    <path fill="#de3108" fill-rule="evenodd" stroke="#000" d="M259 196l5-8c3 4 5 6 5 10 1 1-8 3-8 2l-2-4z"/>
    <path fill-rule="evenodd" stroke="#000" stroke-linecap="round" stroke-linejoin="round" d="M245 331s9-11 29-9c-3-4-13-4-13-4s-2-22 0-23 12 0 12 0c1 0 3-3 1-6-1-2-6-10-4-12 2-1 13 1 13 1l-32-41s-3-15 3-23c8-6 7-13 7-13-1-7-12-13-19-6-5 5-2 9-2 9s-11 3-12 5c0 2 13 0 13 0l-1 9s-26 24-6 44l1-1s7 9 14 11l6 6s2 11 0 13h-22c-2 1-11 0-9 15l3-7s0 5 2 7c0-6 3-10 3-10s0 7 1 7c2 1 2-10 9-9l13 1s3 21 2 23c-5-1-18 1-19 4l11 1s-6 5-4 8z"/>
    <path fill="#9ca69c" fill-rule="evenodd" stroke="#9ca69c" stroke-linecap="round" stroke-linejoin="round" d="M248 215s-19 21-11 37v-4l3 2-1-4 2 1-1-3h3l-1-3h3c-5-10 0-18 3-26z"/>
    <path fill="#9ca69c" fill-rule="evenodd" stroke="#9ca69c" d="M254 197s1 7-3 9c0 1-3 1-2 3 0 2 1 2 3 1 4-1 8-9 2-13z"/>
    <path fill="#fff" fill-rule="evenodd" d="M247 203a2 2 0 11-3 0 2 2 0 013 0z"/>
    <path fill="#de3108" fill-rule="evenodd" stroke="#000" d="M241 209c-1 1-6 6-1 8 5-1 4-2 5-3 0-3-3-3-4-5z"/>
    <path fill="#9ca69c" fill-rule="evenodd" stroke="#9ca69c" stroke-linecap="round" stroke-linejoin="round" d="M253 261c-1 1-2 5 0 9 4-2 6-2 8-1l-8-8z"/>
    <path fill="#fff" fill-rule="evenodd" stroke="#fff" stroke-linecap="round" stroke-linejoin="round" d="M260 281l1 10h5c2-1 0-7-6-10z"/>
    <path fill="#9ca69c" fill-rule="evenodd" stroke="#000" d="M286 282s-6-15-23-19-15-22-13-23c0-2 1-4 6-2l30 14c3 1 0 31 0 30z"/>
    <path fill="#de3108" fill-rule="evenodd" stroke="#000" stroke-linejoin="round" d="M270 263s22 13 16 24c6-4 4-12 4-12s5 14-8 21l3 1-2 2s-1 2 7-2c-2 1-2 3-2 3s0 2 6-3l-6 7c13-1 39-41-8-53l2 3-12 9z"/>
    <path fill="#fff" fill-rule="evenodd" stroke="#000" stroke-linecap="round" stroke-linejoin="round" d="M271 259l5 4-6-1-7-6-5-3c-3-1-5-9 4-7a93 93 0 0010 5l11 3 6 7-12-6 4 6-10-2z"/>
    <path fill="none" stroke="#fff" stroke-linecap="round" d="M228 210l12-2"/>
    <path fill="#de3908" fill-rule="evenodd" d="M-128 427h768v85h-768z"/>
  </g>
</svg>
