<svg xmlns="http://www.w3.org/2000/svg" id="flag-icons-us" viewBox="0 0 640 480">
  <g fill-rule="evenodd">
    <path fill="#bd3d44" d="M0 0h912v37H0zm0 74h912v37H0zm0 74h912v37H0zm0 73h912v38H0zm0 75h912v36H0zm0 73h912v37H0zm0 74h912v37H0z"/>
    <path fill="#fff" d="M0 37h912v37H0zm0 74h912v37H0zm0 74h912v37H0zm0 74h912v37H0zm0 73h912v37H0zm0 74h912v37H0z"/>
    <path fill="#192f5d" d="M0 0h365v259H0z"/>
    <path fill="#fff" d="M30 11l4 10h10l-8 7 3 10-9-6-8 6 3-10-9-7h11zm61 0l3 10h11l-8 7 3 10-9-6-9 6 4-10-9-7h11zm61 0l3 10h11l-9 7 4 10-9-6-9 6 4-10-9-7h11zm61 0l3 10h11l-9 7 4 10-9-6-9 6 4-10-9-7h10zm61 0l3 10h11l-9 7 3 10-8-6-9 6 3-10-8-7h10zm60 0l4 10h11l-9 7 3 10-9-6-8 6 3-10-9-7h11zM61 37l3 10h11l-9 6 3 11-8-7-9 7 3-11-8-6h11zm61 0l3 10h11l-9 6 3 11-8-7-9 7 3-11-8-6h10zm60 0l4 10h11l-9 6 3 11-9-7-8 7 3-11-9-6h11zm61 0l4 10h10l-8 6 3 11-9-7-8 7 3-11-9-6h11zm61 0l3 10h11l-9 6 4 11-9-7-9 7 4-11-9-6h11zM30 63l4 10h10l-8 6 3 10-9-6-8 7 3-11-9-6h11zm61 0l4 10h10l-8 6 3 10-9-6-8 7 3-11-9-6h11zm61 0l3 10h11l-9 6 4 10-9-6-9 6 4-10-9-6h11zm61 0l3 10h11l-9 6 3 10-8-6-9 6 4-10-9-6h10zm61 0l3 10h11l-9 6 3 10-8-6-9 6 3-10-8-6h10zm60 0l4 10h10l-8 6 3 10-9-6-8 6 3-10-9-6h11zM61 89l3 10h11l-9 6 4 10-9-6-9 6 3-10-8-6h11zm61 0l3 10h11l-9 6 3 10-8-6-9 6 3-10-9-6h11zm60 0l4 10h10l-8 6 3 10-9-6-8 6 3-10-9-6h11zm61 0l4 10h10l-8 6 3 10-9-6-8 6 3-10-9-6h11zm61 0l3 10h11l-9 6 4 10-9-6-9 6 4-10-9-6h11zM30 115l4 10h10l-8 6 3 10-9-6-8 6 3-10-9-6h11zm61 0l3 10h11l-8 6 3 10-9-6-9 6 4-10-9-6h11zm61 0l3 10h11l-9 6 4 10-9-6-9 6 4-10-9-6h11zm61 0l3 10h11l-9 6 3 10-8-6-9 6 4-10-9-6h10zm61 0l3 10h11l-9 6 3 10-8-6-9 6 3-10-8-6h10zm60 0l4 10h10l-8 6 3 10-9-6-8 6 3-10-9-6h11zM61 140l3 11h11l-9 6 4 10-9-6-9 6 3-10-8-6h11zm61 0l3 11h11l-9 6 3 10-8-6-9 6 3-10-8-6h10zm60 0l4 11h11l-9 6 3 10-9-6-8 6 3-10-9-6h11zm61 0l4 11h10l-8 6 3 10-9-6-8 6 3-10-9-6h11zm61 0l3 11h11l-9 6 4 10-9-6-9 6 4-10-9-6h11zM30 166l4 10h10l-8 7 3 10-9-6-8 6 3-10-9-7h11zm61 0l3 10h11l-8 7 3 10-9-6-9 6 4-10-9-7h11zm61 0l3 10h11l-9 7 4 10-9-6-9 6 4-10-9-7h11zm61 0l3 10h11l-9 7 3 10-8-6-9 6 4-10-9-7h10zm61 0l3 10h11l-9 7 3 10-8-6-9 6 3-10-8-7h10zm60 0l4 10h10l-8 7 3 10-9-6-8 6 3-10-9-7h11zM61 192l3 10h11l-9 6 4 11-9-7-9 7 3-10-8-7h11zm61 0l3 10h11l-9 6 3 11-8-7-9 7 3-10-8-7h10zm60 0l4 10h11l-9 6 3 11-9-7-8 7 3-10-9-7h11zm61 0l4 10h10l-8 6 3 11-9-7-8 7 3-10-9-7h11zm61 0l3 10h11l-9 6 4 11-9-7-9 7 4-10-9-7h11zM30 218l4 10h10l-8 6 3 11-9-7-8 7 3-11-9-6h11zm61 0l3 10h11l-8 6 3 11-9-7-9 7 4-11-9-6h11zm61 0l3 10h11l-8 6 3 11-9-7-8 7 3-11-9-6h11zm61 0l3 10h11l-9 6 3 11-8-7-9 7 4-11-9-6h10zm61 0l3 10h11l-9 6 3 11-8-7-9 7 3-11-8-6h10zm60 0l4 10h10l-8 6 3 11-9-7-8 7 3-11-9-6h11z"/>
  </g>
</svg>
