<svg xmlns="http://www.w3.org/2000/svg" id="flag-icons-va" viewBox="0 0 640 480">
  <g fill-rule="evenodd">
    <path fill="#fff" d="M320 0h320v480H320z"/>
    <path fill="#fff" stroke="#000" d="M282-735s56 223 119 300c69 88 113 88 113 88l71-18s-42 2-124-104a697 697 0 01-108-283l-71 17z" transform="matrix(-.24 0 0 .1991 534 334)"/>
    <path fill="#fff" stroke="#000" d="M285-728c-1-9 34 221 140 328 53 53 89 53 89 53l88-18s-51 4-134-102a650 650 0 01-108-264l-75 3z" transform="matrix(.24 0 0 .1991 382 336)"/>
    <path fill="#fff" stroke="#000" d="M282-735s56 223 119 300c69 88 113 88 113 88l71-18s-42 2-124-104a697 697 0 01-108-283l-71 17z" transform="matrix(.24 0 0 .1991 382 336)"/>
    <path fill="#fff" stroke="#000" d="M285-728c-1-9 34 221 140 328 53 53 89 53 89 53l88-18s-51 4-134-102a650 650 0 01-108-264l-75 3z" transform="matrix(-.24 0 0 .1991 534 334)"/>
    <path fill="#fff133" stroke="#000" d="M345-596l9 22s1-10 8-12l7-1 32 58c6 9-3 17-1 17l26-12s-10 1-15-6l-35-60 12-5c5-3 10 8 10 8l-13-27s0 9-4 11l-8 3-8-13c-5-7 4-14 4-14l-23 11s8 5 11 9l5 9-8 3c-4 2-8 0-9-1z" transform="matrix(.23995 .00428 -.00516 .19905 380 342)"/>
    <g fill="#b00" stroke="#000" stroke-width="13">
      <path d="M213-453c-36 0-71 35-71 70s35 71 71 71h195c35 0 70-35 70-71 0-37-35-70-71-70H213z" transform="matrix(.01763 .00275 .01016 -.01162 411 330)"/>
      <path d="M213-453c-36 0-71 35-71 70s35 71 71 71h195c35 0 70-35 70-71 0-37-35-70-71-70H213z" transform="matrix(.0173 .00313 .01036 -.0116 409 331)"/>
      <path d="M213-453c-36 0-71 35-71 70s35 71 71 71h195c35 0 70-35 70-71 0-37-35-70-71-70H213z" transform="matrix(.01763 .00275 .01016 -.01162 407 333)"/>
      <path d="M213-453c-36 0-71 35-71 70s35 71 71 71h195c35 0 70-35 70-71 0-37-35-70-71-70H213z" transform="matrix(.01789 -.0011 .00628 -.01341 430 312)"/>
      <path d="M213-453c-36 0-71 35-71 70s35 71 71 71h195c35 0 70-35 70-71 0-37-35-70-71-70H213z" transform="matrix(.0177 -.00038 .0068 -.01331 428 314)"/>
      <path d="M213-453c-36 0-71 35-71 70s35 71 71 71h195c35 0 70-35 70-71 0-37-35-70-71-70H213z" transform="matrix(.01791 -.00081 .0066 -.0133 427 316)"/>
      <path d="M213-453c-36 0-71 35-71 70s35 71 71 71h195c35 0 70-35 70-71 0-37-35-70-71-70H213z" transform="matrix(.01769 .00056 .0078 -.01292 426 316)"/>
      <path d="M213-453c-36 0-71 35-71 70s35 71 71 71h195c35 0 70-35 70-71 0-37-35-70-71-70H213z" transform="matrix(.01765 -.00269 .00455 -.0139 434 306)"/>
      <path d="M213-453c-36 0-71 35-71 70s35 71 71 71h195c35 0 70-35 70-71 0-37-35-70-71-70H213z" transform="matrix(.0175 -.00223 .00475 -.01392 433 308)"/>
      <path d="M213-453c-36 0-71 35-71 70s35 71 71 71h195c35 0 70-35 70-71 0-37-35-70-71-70H213z" transform="matrix(.01765 -.00269 .00455 -.0139 432 310)"/>
      <path d="M213-453c-36 0-71 35-71 70s35 71 71 71h195c35 0 70-35 70-71 0-37-35-70-71-70H213z" transform="matrix(.01754 -.00195 .00507 -.01384 431 311)"/>
      <path d="M213-453c-36 0-71 35-71 70s35 71 71 71h195c35 0 70-35 70-71 0-37-35-70-71-70H213z" transform="matrix(.01784 .00155 .009 -.01227 418 324)"/>
      <path d="M213-453c-36 0-71 35-71 70s35 71 71 71h195c35 0 70-35 70-71 0-37-35-70-71-70H213z" transform="matrix(.01754 .00195 .0092 -.01225 416 325)"/>
      <path d="M213-453c-36 0-71 35-71 70s35 71 71 71h195c35 0 70-35 70-71 0-37-35-70-71-70H213z" transform="matrix(.01784 .00155 .009 -.01227 415 327)"/>
      <path d="M213-453c-36 0-71 35-71 70s35 71 71 71h195c35 0 70-35 70-71 0-37-35-70-71-70H213z" transform="matrix(.0173 .00313 .01036 -.0116 413 328)"/>
      <path d="M213-453c-36 0-71 35-71 70s35 71 71 71h195c35 0 70-35 70-71 0-37-35-70-71-70H213z" transform="matrix(.01794 .00014 .00759 -.01293 424 318)"/>
      <path d="M213-453c-36 0-71 35-71 70s35 71 71 71h195c35 0 70-35 70-71 0-37-35-70-71-70H213z" transform="matrix(.01769 .00056 .0078 -.01292 423 320)"/>
      <path d="M213-453c-36 0-71 35-71 70s35 71 71 71h195c35 0 70-35 70-71 0-37-35-70-71-70H213z" transform="matrix(.01784 .00155 .009 -.01227 421 321)"/>
      <path d="M213-453c-36 0-71 35-71 70s35 71 71 71h195c35 0 70-35 70-71 0-37-35-70-71-70H213z" transform="matrix(.01754 .00195 .0092 -.01225 420 322)"/>
      <path d="M213-453c-36 0-71 35-71 70s35 71 71 71h195c35 0 70-35 70-71 0-37-35-70-71-70H213z" transform="matrix(.01668 -.00552 .00122 -.01437 444 284)"/>
      <path d="M213-453c-36 0-71 35-71 70s35 71 71 71h195c35 0 70-35 70-71 0-37-35-70-71-70H213z" transform="matrix(.01707 -.00392 .00278 -.01429 444 285)"/>
      <path d="M213-453c-36 0-71 35-71 70s35 71 71 71h195c35 0 70-35 70-71 0-37-35-70-71-70H213z" transform="matrix(.01715 -.00439 .00258 -.01424 443 287)"/>
      <path d="M213-453c-36 0-71 35-71 70s35 71 71 71h195c35 0 70-35 70-71 0-37-35-70-71-70H213z" transform="matrix(.01707 -.00392 .00278 -.01429 442 289)"/>
      <path d="M213-453c-36 0-71 35-71 70s35 71 71 71h195c35 0 70-35 70-71 0-37-35-70-71-70H213z" transform="matrix(.01664 -.00505 .0014 -.01443 446 278)"/>
      <path d="M213-453c-36 0-71 35-71 70s35 71 71 71h195c35 0 70-35 70-71 0-37-35-70-71-70H213z" transform="matrix(.01668 -.00552 .00122 -.01437 445 280)"/>
      <path d="M213-453c-36 0-71 35-71 70s35 71 71 71h195c35 0 70-35 70-71 0-37-35-70-71-70H213z" transform="matrix(.01664 -.00505 .0014 -.01443 444 282)"/>
      <path d="M213-453c-36 0-71 35-71 70s35 71 71 71h195c35 0 70-35 70-71 0-37-35-70-71-70H213z" transform="matrix(.01752 -.00323 .00393 -.01402 438 298)"/>
      <path d="M213-453c-36 0-71 35-71 70s35 71 71 71h195c35 0 70-35 70-71 0-37-35-70-71-70H213z" transform="matrix(.01738 -.00277 .00413 -.01406 437 300)"/>
      <path d="M213-453c-36 0-71 35-71 70s35 71 71 71h195c35 0 70-35 70-71 0-37-35-70-71-70H213z" transform="matrix(.01752 -.00323 .00393 -.01402 436 302)"/>
      <path d="M213-453c-36 0-71 35-71 70s35 71 71 71h195c35 0 70-35 70-71 0-37-35-70-71-70H213z" transform="matrix(.0175 -.00223 .00475 -.01392 435 304)"/>
      <path d="M213-453c-36 0-71 35-71 70s35 71 71 71h195c35 0 70-35 70-71 0-37-35-70-71-70H213z" transform="matrix(.01715 -.00439 .00258 -.01424 441 291)"/>
      <path d="M213-453c-36 0-71 35-71 70s35 71 71 71h195c35 0 70-35 70-71 0-37-35-70-71-70H213z" transform="matrix(.01738 -.00277 .00413 -.01406 441 292)"/>
      <path d="M213-453c-36 0-71 35-71 70s35 71 71 71h195c35 0 70-35 70-71 0-37-35-70-71-70H213z" transform="matrix(.01752 -.00323 .00393 -.01402 440 294)"/>
      <path d="M213-453c-36 0-71 35-71 70s35 71 71 71h195c35 0 70-35 70-71 0-37-35-70-71-70H213z" transform="matrix(.01738 -.00277 .00413 -.01406 439 296)"/>
      <path d="M213-453c-36 0-71 35-71 70s35 71 71 71h195c35 0 70-35 70-71 0-37-35-70-71-70H213z" transform="matrix(.01541 -.00768 -.00154 -.01435 449 267)"/>
      <path d="M213-453c-36 0-71 35-71 70s35 71 71 71h195c35 0 70-35 70-71 0-37-35-70-71-70H213z" transform="matrix(.01656 -.00577 .0009 -.01438 449 268)"/>
      <path d="M213-453c-36 0-71 35-71 70s35 71 71 71h195c35 0 70-35 70-71 0-37-35-70-71-70H213z" transform="matrix(.01653 -.0053 .0011 -.01445 448 270)"/>
      <path d="M213-453c-36 0-71 35-71 70s35 71 71 71h195c35 0 70-35 70-71 0-37-35-70-71-70H213z" transform="matrix(.01546 -.0072 -.00136 -.01443 450 260)"/>
      <path d="M213-453c-36 0-71 35-71 70s35 71 71 71h195c35 0 70-35 70-71 0-37-35-70-71-70H213z" transform="matrix(.01541 -.00768 -.00154 -.01435 449 262)"/>
      <path d="M213-453c-36 0-71 35-71 70s35 71 71 71h195c35 0 70-35 70-71 0-37-35-70-71-70H213z" transform="matrix(.01546 -.0072 -.00136 -.01443 449 264)"/>
      <path d="M213-453c-36 0-71 35-71 70s35 71 71 71h195c35 0 70-35 70-71 0-37-35-70-71-70H213z" transform="matrix(.01656 -.00577 .0009 -.01438 448 272)"/>
      <path d="M213-453c-36 0-71 35-71 70s35 71 71 71h195c35 0 70-35 70-71 0-37-35-70-71-70H213z" transform="matrix(.01664 -.00505 .0014 -.01443 447 274)"/>
      <path d="M213-453c-36 0-71 35-71 70s35 71 71 71h195c35 0 70-35 70-71 0-37-35-70-71-70H213z" transform="matrix(.01668 -.00552 .00122 -.01437 446 276)"/>
    </g>
    <g fill="#b00" stroke="#000" stroke-width="13">
      <path d="M213-453c-36 0-71 35-71 70s35 71 71 71h195c35 0 70-35 70-71 0-37-35-70-71-70H213z" transform="matrix(-.01781 .00178 -.00923 -.01216 503 324)"/>
      <path d="M213-453c-36 0-71 35-71 70s35 71 71 71h195c35 0 70-35 70-71 0-37-35-70-71-70H213z" transform="matrix(-.0175 .00217 -.00943 -.01214 505 325)"/>
      <path d="M213-453c-36 0-71 35-71 70s35 71 71 71h195c35 0 70-35 70-71 0-37-35-70-71-70H213z" transform="matrix(-.01781 .00178 -.00923 -.01216 507 327)"/>
      <path d="M213-453c-36 0-71 35-71 70s35 71 71 71h195c35 0 70-35 70-71 0-37-35-70-71-70H213z" transform="matrix(-.01776 -.00209 -.00521 -.01373 486 306)"/>
      <path d="M213-453c-36 0-71 35-71 70s35 71 71 71h195c35 0 70-35 70-71 0-37-35-70-71-70H213z" transform="matrix(-.01762 -.00135 -.00574 -.01366 487 307)"/>
      <path d="M213-453c-36 0-71 35-71 70s35 71 71 71h195c35 0 70-35 70-71 0-37-35-70-71-70H213z" transform="matrix(-.0178 -.0018 -.00554 -.01364 489 309)"/>
      <path d="M213-453c-36 0-71 35-71 70s35 71 71 71h195c35 0 70-35 70-71 0-37-35-70-71-70H213z" transform="matrix(-.0177 -.00041 -.00676 -.01332 490 310)"/>
      <path d="M213-453c-36 0-71 35-71 70s35 71 71 71h195c35 0 70-35 70-71 0-37-35-70-71-70H213z" transform="matrix(-.0174 -.00365 -.00345 -.01411 482 299)"/>
      <path d="M213-453c-36 0-71 35-71 70s35 71 71 71h195c35 0 70-35 70-71 0-37-35-70-71-70H213z" transform="matrix(-.01728 -.00319 -.00365 -.01415 483 301)"/>
      <path d="M213-453c-36 0-71 35-71 70s35 71 71 71h195c35 0 70-35 70-71 0-37-35-70-71-70H213z" transform="matrix(-.0174 -.00365 -.00345 -.01411 484 303)"/>
      <path d="M213-453c-36 0-71 35-71 70s35 71 71 71h195c35 0 70-35 70-71 0-37-35-70-71-70H213z" transform="matrix(-.01735 -.0029 -.00398 -.01409 485 305)"/>
      <path d="M213-453c-36 0-71 35-71 70s35 71 71 71h195c35 0 70-35 70-71 0-37-35-70-71-70H213z" transform="matrix(-.01792 .00057 -.00802 -.01274 497 318)"/>
      <path d="M213-453c-36 0-71 35-71 70s35 71 71 71h195c35 0 70-35 70-71 0-37-35-70-71-70H213z" transform="matrix(-.01766 .00098 -.00823 -.01273 498 319)"/>
      <path d="M213-453c-36 0-71 35-71 70s35 71 71 71h195c35 0 70-35 70-71 0-37-35-70-71-70H213z" transform="matrix(-.01792 .00057 -.00802 -.01274 500 321)"/>
      <path d="M213-453c-36 0-71 35-71 70s35 71 71 71h195c35 0 70-35 70-71 0-37-35-70-71-70H213z" transform="matrix(-.0175 .00217 -.00943 -.01214 501 322)"/>
      <path d="M213-453c-36 0-71 35-71 70s35 71 71 71h195c35 0 70-35 70-71 0-37-35-70-71-70H213z" transform="matrix(-.0179 -.00085 -.00656 -.01332 491 312)"/>
      <path d="M213-453c-36 0-71 35-71 70s35 71 71 71h195c35 0 70-35 70-71 0-37-35-70-71-70H213z" transform="matrix(-.0177 -.00041 -.00676 -.01332 492 314)"/>
      <path d="M213-453c-36 0-71 35-71 70s35 71 71 71h195c35 0 70-35 70-71 0-37-35-70-71-70H213z" transform="matrix(-.01792 .00057 -.00802 -.01274 494 315)"/>
      <path d="M213-453c-36 0-71 35-71 70s35 71 71 71h195c35 0 70-35 70-71 0-37-35-70-71-70H213z" transform="matrix(-.01766 .00098 -.00823 -.01273 495 316)"/>
      <path d="M213-453c-36 0-71 35-71 70s35 71 71 71h195c35 0 70-35 70-71 0-37-35-70-71-70H213z" transform="matrix(-.01621 -.00642 -.00009 -.0144 474 277)"/>
      <path d="M213-453c-36 0-71 35-71 70s35 71 71 71h195c35 0 70-35 70-71 0-37-35-70-71-70H213z" transform="matrix(-.01672 -.00485 -.00165 -.01441 474 278)"/>
      <path d="M213-453c-36 0-71 35-71 70s35 71 71 71h195c35 0 70-35 70-71 0-37-35-70-71-70H213z" transform="matrix(-.01677 -.00532 -.00146 -.01435 475 280)"/>
      <path d="M213-453c-36 0-71 35-71 70s35 71 71 71h195c35 0 70-35 70-71 0-37-35-70-71-70H213z" transform="matrix(-.01672 -.00485 -.00165 -.01441 476 282)"/>
      <path d="M213-453c-36 0-71 35-71 70s35 71 71 71h195c35 0 70-35 70-71 0-37-35-70-71-70H213z" transform="matrix(-.0162 -.00595 -.00027 -.01447 473 270)"/>
      <path d="M213-453c-36 0-71 35-71 70s35 71 71 71h195c35 0 70-35 70-71 0-37-35-70-71-70H213z" transform="matrix(-.01621 -.00642 -.00009 -.0144 473 273)"/>
      <path d="M213-453c-36 0-71 35-71 70s35 71 71 71h195c35 0 70-35 70-71 0-37-35-70-71-70H213z" transform="matrix(-.0162 -.00595 -.00027 -.01447 474 275)"/>
      <path d="M213-453c-36 0-71 35-71 70s35 71 71 71h195c35 0 70-35 70-71 0-37-35-70-71-70H213z" transform="matrix(-.01723 -.00419 -.00282 -.01421 479 291)"/>
      <path d="M213-453c-36 0-71 35-71 70s35 71 71 71h195c35 0 70-35 70-71 0-37-35-70-71-70H213z" transform="matrix(-.01713 -.00372 -.00302 -.01425 479 293)"/>
      <path d="M213-453c-36 0-71 35-71 70s35 71 71 71h195c35 0 70-35 70-71 0-37-35-70-71-70H213z" transform="matrix(-.01723 -.00419 -.00282 -.01421 480 295)"/>
      <path d="M213-453c-36 0-71 35-71 70s35 71 71 71h195c35 0 70-35 70-71 0-37-35-70-71-70H213z" transform="matrix(-.01728 -.00319 -.00365 -.01415 481 297)"/>
      <path d="M213-453c-36 0-71 35-71 70s35 71 71 71h195c35 0 70-35 70-71 0-37-35-70-71-70H213z" transform="matrix(-.01677 -.00532 -.00146 -.01435 476 284)"/>
      <path d="M213-453c-36 0-71 35-71 70s35 71 71 71h195c35 0 70-35 70-71 0-37-35-70-71-70H213z" transform="matrix(-.01713 -.00372 -.00302 -.01425 476 285)"/>
      <path d="M213-453c-36 0-71 35-71 70s35 71 71 71h195c35 0 70-35 70-71 0-37-35-70-71-70H213z" transform="matrix(-.01723 -.00419 -.00282 -.01421 477 287)"/>
      <path d="M213-453c-36 0-71 35-71 70s35 71 71 71h195c35 0 70-35 70-71 0-37-35-70-71-70H213z" transform="matrix(-.01713 -.00372 -.00302 -.01425 478 289)"/>
      <path d="M213-453c-36 0-71 35-71 70s35 71 71 71h195c35 0 70-35 70-71 0-37-35-70-71-70H213z" transform="matrix(-.01478 -.0085 .00266 -.01423 470 259)"/>
      <path d="M213-453c-36 0-71 35-71 70s35 71 71 71h195c35 0 70-35 70-71 0-37-35-70-71-70H213z" transform="matrix(-.01607 -.00667 .00022 -.0144 470 260)"/>
      <path d="M213-453c-36 0-71 35-71 70s35 71 71 71h195c35 0 70-35 70-71 0-37-35-70-71-70H213z" transform="matrix(-.01608 -.0062 .00004 -.01448 471 262)"/>
      <path d="M213-453c-36 0-71 35-71 70s35 71 71 71h195c35 0 70-35 70-71 0-37-35-70-71-70H213z" transform="matrix(-.01486 -.00804 .00249 -.01433 470 252)"/>
      <path d="M213-453c-36 0-71 35-71 70s35 71 71 71h195c35 0 70-35 70-71 0-37-35-70-71-70H213z" transform="matrix(-.01478 -.0085 .00266 -.01423 470 255)"/>
      <path d="M213-453c-36 0-71 35-71 70s35 71 71 71h195c35 0 70-35 70-71 0-37-35-70-71-70H213z" transform="matrix(-.01486 -.00804 .00249 -.01433 470 257)"/>
      <path d="M213-453c-36 0-71 35-71 70s35 71 71 71h195c35 0 70-35 70-71 0-37-35-70-71-70H213z" transform="matrix(-.01607 -.00667 .00022 -.0144 471 265)"/>
      <path d="M213-453c-36 0-71 35-71 70s35 71 71 71h195c35 0 70-35 70-71 0-37-35-70-71-70H213z" transform="matrix(-.0162 -.00595 -.00027 -.01447 472 266)"/>
      <path d="M213-453c-36 0-71 35-71 70s35 71 71 71h195c35 0 70-35 70-71 0-37-35-70-71-70H213z" transform="matrix(-.01621 -.00642 -.00009 -.0144 472 268)"/>
    </g>
    <path fill="#fff133" stroke="#000" d="M345-596l9 22s1-10 8-12l7-1 32 58c6 9-3 17-1 17l26-12s-10 1-15-6l-35-60 12-5c5-3 10 8 10 8l-13-27s0 9-4 11l-8 3-8-13c-5-7 4-14 4-14l-23 11s8 5 11 9l5 9-8 3c-4 2-8 0-9-1z" transform="matrix(-.23995 .00428 .00516 .19905 536 341)"/>
    <g transform="matrix(.14437 0 0 .12085 424 295)">
      <path fill="silver" d="M325-255l-51 50L450-30l50-50z"/>
      <circle cx="354" cy="-1428" r="35" fill="#fff133" stroke="#000" transform="scale(-1 1) rotate(45 -178 -1105)"/>
      <path fill="silver" stroke="#000" d="M-402-957l38 38-25 25-38-38c-13-12 12-37 25-25z"/>
      <path fill="#fff133" stroke="#000" d="M-347-926l-50 50a25 25 0 01-25-25c11-26 25-39 50-50a27 27 0 0125 25z"/>
      <path fill="silver" stroke="#000" d="M-352-932l38 38-51 50-37-38c5-20 30-45 50-50z"/>
      <path fill="#fff133" stroke="#000" d="M-309-889l-50 50a25 25 0 01-25-25c11-26 25-38 50-50a27 27 0 0125 25z"/>
      <path fill="silver" stroke="#000" d="M-314-894L28-551l-50 50-342-343c5-20 30-45 50-50z"/>
      <path fill="#fff133" stroke="#000" d="M49-531l-50 50a25 25 0 01-25-25c11-26 25-38 50-50a27 27 0 0125 25z"/>
      <path fill="silver" stroke="#000" d="M49-531l225 226-50 50L-1-481c5-20 30-45 50-50z"/>
      <path fill="silver" stroke="#000" d="M187-418l-75 75a25 25 0 01-25-25s0-25 25-50 50-25 50-25c11 1 21 12 25 25z"/>
      <path fill="silver" stroke="#000" d="M187-418l50 75-50 50-75-50c-3-2 0-25 25-50s49-25 50-25z"/>
      <path fill="silver" stroke="#000" d="M337-507c0-35 0-86 17-130 18 44 18 95 18 130h-35z" transform="rotate(135 435 19) scale(1 -.81782)"/>
      <path fill="silver" stroke="#000" d="M319-507h18v-43c0-43-36-65-36-65l18 108z" transform="rotate(-45 399 -194) scale(1 .81782)"/>
      <path fill="silver" stroke="#000" d="M319-507h18v-43c0-43-36-65-36-65l18 108z" transform="rotate(135 435 19) scale(1 -.81782)"/>
      <path fill="#fff133" stroke="#000" d="M-314-894l37 37c25 25 113 138 113 138s117 92 142 117l38 38c-25-25-180-130-180-130s92 143 130 180l-38-38c-25-25-117-142-117-142s-100-75-125-100l-50-50c25 25 175 125 175 125s-100-150-125-175z"/>
      <path fill="silver" stroke="#000" d="M300-230A907 907 0 00412-92a83 83 0 0050 25s0-25-25-50a899 899 0 00-137-113zm-63-113c88 88 188 138 250 200 50 50 16 89 2 101s-52 50-102 0c-62-63-113-163-200-251 0-25 25-50 50-50z"/>
      <path fill="silver" stroke="#000" d="M218 258h23v73h-23z" transform="matrix(-1.2487 -1.4214 -1.3593 1.3175 1166 -103)"/>
      <g fill="silver" stroke="#000">
        <path d="M301 397l18 18-18 17 9 9 18-18 35 36-18 18 9 8 18-17 18 17-53 54-36-36 18-18 9 9 9-9-36-35-9 9 9 9-17 17-18-17 9-9-9-9-36 35 9 9 9-9 18 18-18 18-9-9-9 9 36 35 9-9-9-8 18-18 35 35-53 53-18-17 18-18-9-9-18 18-35-36 18-17-9-9-18 18-18-18 124-124z" transform="matrix(-2.2946 0 0 2.2438 361 -1734)"/>
        <path d="M319 787v35l88 89v-71l-17-18h-36l-35-35zM230 699l71 70 1 35-72-71v-34z" transform="matrix(-1.1473 0 0 1.1219 157 -1288)"/>
        <path d="M301 804l36-35v-36l-36 36v35z" transform="matrix(-1.1473 0 0 1.1219 157 -1288)"/>
        <path d="M301 804l36-35v-36l-36 36v35z" transform="matrix(-1.1473 0 0 1.1219 259 -1388)"/>
        <path d="M248 645v35l18-17-18-18z" transform="matrix(-1.1473 0 0 1.1219 157 -1288)"/>
        <path d="M248 645v35l18-17-18-18z" transform="matrix(-1.1473 0 0 1.1219 56 -1189)"/>
        <path d="M230 699l36 35v36l-36-37v-34z" transform="matrix(-1.1473 0 0 1.1219 219 -1349)"/>
        <path d="M301 804l36-35v-36l-36 36v35z" transform="matrix(-1.1473 0 0 1.1219 56 -1507)"/>
        <path d="M301 804l36-35v-36l-36 36v35z" transform="matrix(-1.1473 0 0 1.1219 137 -1428)"/>
        <path d="M284 822l53-53v-36l-71 71 18 18z" transform="matrix(-1.1473 0 0 1.1219 137 -1547)"/>
        <path d="M248 645v35l18-17-18-18z" transform="matrix(-1.1473 0 0 1.1219 35 -1447)"/>
        <path d="M301 804l-35-35v-35l35 35v35z" transform="matrix(-1.1473 0 0 1.1219 56 -1507)"/>
        <path d="M390 822l-53-53v-35l71 70-18 18z" transform="matrix(-1.1473 0 0 1.1219 56 -1547)"/>
        <path d="M230 698l71 71h36l17 18v71L230 733v-35z" transform="matrix(-1.1473 0 0 1.1219 -66 -1388)"/>
        <path d="M354 822l107-106h35L390 822h-36zm54 18l106-107-18-17-106 106 18 18z" transform="matrix(-1.1473 0 0 1.1219 157 -1288)"/>
        <path d="M408 840v71l106-107v-71L408 841z" transform="matrix(-1.1473 0 0 1.1219 157 -1288)"/>
        <path d="M354 822l107-106h35L390 822h-36zm54 18l106-107-18-17-106 106 18 18z" transform="matrix(-1.1473 0 0 1.1219 -5 -1447)"/>
        <path d="M408 840v71l106-107v-71L408 841z" transform="matrix(-1.1473 0 0 1.1219 -5 -1447)"/>
        <path d="M319 787l18-18v-36l-36 36 18 18z" transform="matrix(-1.1473 0 0 1.1219 -87 -1527)"/>
        <path d="M319 787l18-18v-36l-36 36 18 18z" transform="matrix(-1.1473 0 0 1.1219 15 -1626)"/>
        <path d="M266 769v-36l18 18-18 18z" transform="matrix(-1.1473 0 0 1.1219 56 -1348)"/>
        <path d="M301 804l-35-35 18-18 17 18v35z" transform="matrix(-1.1473 0 0 1.1219 137 -1428)"/>
        <path d="M301 804l-18-17 18-18v35z" transform="matrix(-1.1473 0 0 1.1219 15 -1587)"/>
      </g>
      <path fill="#fff133" stroke="#000" d="M197 254h25v80h-26z" transform="matrix(-1.2509 -1.4194 -1.3614 1.3153 1166 -103)"/>
      <path fill="silver" stroke="#000" d="M337 167c0 14 35 35 35-18h-35v18z" transform="matrix(-1.8992 0 0 1.8865 1166 -103)"/>
      <path fill="silver" stroke="#000" d="M242 25C95 25 129 189 142 149c9-30 35-71 65-80 40-13 26 9 41 9s1-22 41-9c30 9 56 50 65 80 13 40 53-124-112-124z" transform="matrix(-1.8992 0 0 1.8865 1166 -103)"/>
      <path fill="silver" stroke="#000" d="M390 167a142 142 0 01-284 0v-18c0-29 36 124 142 124s142-125 142-124v18z" transform="matrix(-1.8992 0 0 1.8865 1166 -103)"/>
      <path fill="silver" stroke="#000" d="M337 167c0 14 35 35 35-18h-35v18z" transform="matrix(1.8992 0 0 1.8865 224 -100)"/>
      <path fill="silver" stroke="#000" d="M390 149a142 142 0 11-284 0 142 142 0 01284 0zm-53 0c0 15 22 3 9 43a81 81 0 01-57 55c-40 13-26-10-41-10s-1 23-41 10a80 80 0 01-57-57c-13-40 9-26 9-41s-22-1-9-41a80 80 0 0157-57c40-13 26 9 41 9s1-22 41-9a80 80 0 0157 57c13 40-9 26-9 41z" transform="matrix(-1.8992 0 0 1.8865 1166 -103)"/>
      <path fill="silver" stroke="#000" d="M127 158c-21 0-2 67-9 51a127 127 0 010-103c7-16-12 52 9 52z" transform="matrix(-1.6618 0 0 1.7607 1107 -99)"/>
      <path fill="silver" stroke="#000" d="M372 140a88 88 0 01-10 45c-8 14 10-45-8-45 18 0 2-59 8-45a108 108 0 0110 45z" transform="matrix(-1.8992 0 0 2.0316 1166 -106)"/>
      <path fill="silver" stroke="#000" d="M296 263a124 124 0 01-96 0c-15-6 48 10 48-8 0 18 63 2 48 8zM248 43c0-18-63-2-48-8a123 123 0 0196 0c15 6-48-10-48 8z" transform="matrix(-1.8992 0 0 1.8865 1166 -103)"/>
      <ellipse cx="82" cy="161" fill="#fff133" stroke="#000" rx="18" ry="20" transform="matrix(-1.2929 -1.3819 -1.3912 1.2842 1258 -120)"/>
      <path fill="#fff133" stroke="#000" d="M277 288a142 142 0 01-57 0l-2 7a149 149 0 0060 0l-1-7z" transform="matrix(-1.2929 -1.3819 1.3912 -1.2842 809 712)"/>
      <path fill="#fff133" stroke="#000" d="M277 288a142 142 0 01-57 0l-2 7a149 149 0 0060 0l-1-7z" transform="matrix(-1.2929 -1.3819 -1.3912 1.2842 1223 330)"/>
      <path fill="#fff133" stroke="#000" d="M268 309l-30 1c-10 0-20-3-29-5l9-10a149 149 0 0060 0l-10 14z" transform="matrix(-1.2929 -1.3819 -1.3912 1.2842 1223 330)"/>
      <path fill="#fff133" stroke="#000" d="M277 288a142 142 0 01-57 0l-2 7a149 149 0 0060 0l-1-7z" transform="matrix(-1.3912 1.2842 1.2929 1.3819 847 -345)"/>
      <ellipse cx="82" cy="161" fill="#fff133" stroke="#000" rx="18" ry="20" transform="matrix(-1.2929 -1.3819 -1.3912 1.2842 789 314)"/>
      <path fill="#fff133" stroke="#000" d="M268 282c-10 1-17 3-27 3s-23-1-33-3l10 13a150 150 0 0060 0l-10-13z" transform="matrix(-1.3912 1.2842 1.2929 1.3819 851 -315)"/>
      <path fill="#fff133" stroke="#000" d="M174 272l-1 15-3 4 1-15 3-4zm157-6l3 4 1 13-3-3-1-14z" transform="matrix(-1.8992 0 0 1.8865 1166 -103)"/>
      <ellipse cx="82" cy="161" fill="#fff133" stroke="#000" rx="18" ry="20" transform="matrix(-1.2929 -1.3819 -1.3912 1.2842 1238 330)"/>
    </g>
    <path fill="#fff" stroke="#000" d="M514-790l35-18 36 18s-74 35-74 159c0 89 125 107 125 213 0 45-34 88-69 88s-89-17-142-70c36 17 76 37 106 36 20-1 55-18 55-53 0-71-122-107-122-214 0-124 50-159 50-159z" transform="matrix(-.24 0 0 .1991 534 334)"/>
    <path fill="#fff" stroke="#000" d="M520-790l47-18 10 18s-71 35-71 159c0 89 126 107 126 213 0 45-27 87-65 88-74 3-91-23-142-70 43 32 105 46 129 34 30-16 35-36 35-54 0-71-121-104-121-211 0-124 52-159 52-159z" transform="matrix(-.24 0 0 .1991 534 334)"/>
    <path fill="#fff" stroke="#000" d="M513-790c7-2 36-18 72 18 17 17 17 53 17 70l53-53s-29-87-107-53a335 335 0 00-35 18z" transform="matrix(-.24 0 0 .1991 534 334)"/>
    <path fill="#fff" stroke="#000" d="M524-796c9-3 36-6 64 19 18 17 19 43 19 60l41-38c3-3-25-81-99-54a154 154 0 00-25 13z" transform="matrix(-.24 0 0 .1991 534 334)"/>
    <path fill="#fff133" stroke="#000" d="M345-596l9 22s1-10 8-12l7-1 32 58c6 9-3 17-1 17l26-12s-10 1-15-6l-35-60 12-5c5-3 10 8 10 8l-13-27s0 9-4 11l-8 3-8-13c-5-7 4-14 4-14l-23 11s8 5 11 9l5 9-8 3c-4 2-8 0-9-1z" transform="matrix(-.19534 -.02065 -.06668 .17315 440 337)"/>
    <path fill="#fff133" stroke="#000" d="M345-596l9 22s1-10 8-12l7-1 32 58c6 9-3 17-1 17l26-12s-10 1-15-6l-35-60 12-5c5-3 10 8 10 8l-13-27s0 9-4 11l-8 3-8-13c-5-7 4-14 4-14l-23 11s8 5 11 9l5 9-8 3c-4 2-8 0-9-1z" transform="matrix(.17775 .02412 .0031 -.13262 321 95)"/>
    <g transform="matrix(.14437 0 0 .12085 424 295)">
      <g transform="rotate(45 478 -505)">
        <circle cx="354" cy="-1428" r="35" fill="silver" stroke="#000" transform="translate(124 284)"/>
        <path fill="#fff133" stroke="#000" d="M461-1127v53h35v-53c0-17-35-17-35 0z"/>
        <path fill="silver" stroke="#000" d="M443-1066h71a25 25 0 000-35c-26-11-45-10-71 0a27 27 0 000 35z"/>
        <path fill="#fff133" stroke="#000" d="M443-1074v54h71v-54a83 83 0 00-71 0z"/>
        <path fill="silver" stroke="#000" d="M443-1013h71a25 25 0 000-35c-26-11-45-10-71 0a27 27 0 000 35z"/>
        <path fill="#fff133" d="M443-117h71v248h-71z"/>
        <path fill="#fff133" stroke="#000" d="M443-1020v484h71v-485a83 83 0 00-71 1z"/>
        <path fill="silver" stroke="#000" d="M443-507h71a25 25 0 000-35c-26-11-45-10-71 0a27 27 0 000 35z"/>
        <path fill="#fff133" stroke="#000" d="M443-507v319h71v-319a83 83 0 00-71 0z"/>
        <path fill="#fff133" stroke="#000" d="M425-329h106a25 25 0 001-36s-18-18-54-18-53 18-53 18c-7 9-6 24 0 36z"/>
        <path fill="#fff133" stroke="#000" d="M425-329l18 88h71l17-88c1-4-17-18-53-18s-52 17-53 18z"/>
        <path fill="#fff133" stroke="#000" d="M337-507c0-35 0-86 17-130 18 44 18 95 18 130h-35z" transform="matrix(1 0 0 .81782 124 173)"/>
        <path fill="#fff133" stroke="#000" d="M319-507h18v-43c0-43-36-65-36-65l18 108z" transform="matrix(-1 0 0 .81782 833 173)"/>
        <path fill="#fff133" stroke="#000" d="M319-507h18v-43c0-43-36-65-36-65l18 108z" transform="matrix(1 0 0 .81782 124 173)"/>
        <path fill="#fff133" stroke="#000" d="M478-117a909 909 0 0118 177 83 83 0 01-18 53s-17-17-17-53c0-18 0-88 17-177zm-35-124c0 124-35 230-35 319 0 71 51 73 70 72 18-1 72-1 71-72 0-89-35-195-35-319a54 54 0 00-71 0z"/>
        <path fill="silver" stroke="#000" d="M443-1020v53c0 35 18 177 18 177s-18 148-18 183v54c0-36 35-219 35-219s36 166 36 219v-54c0-35-18-183-18-183s18-124 18-160v-71c0 36-36 213-36 213s-35-177-35-212z"/>
      </g>
      <path fill="#fff133" stroke="#000" d="M218 258h23v73h-23z" transform="matrix(1.2487 -1.4214 1.3593 1.3175 -662 -103)"/>
      <path fill="#fff133" stroke="#000" d="M337 167c0 14 35 35 35-18h-35v18z" transform="matrix(1.8992 0 0 1.8865 -662 -103)"/>
      <path fill="#fff133" stroke="#000" d="M242 25C95 25 129 189 142 149c9-30 35-71 65-80 40-13 26 9 41 9s1-22 41-9c30 9 56 50 65 80 13 40 53-124-112-124z" transform="matrix(1.8992 0 0 1.8865 -662 -103)"/>
      <path fill="#fff133" stroke="#000" d="M390 167a142 142 0 01-284 0v-18c0-29 36 124 142 124s142-125 142-124v18z" transform="matrix(1.8992 0 0 1.8865 -662 -103)"/>
      <ellipse cx="82" cy="161" fill="silver" stroke="#000" rx="18" ry="20" transform="matrix(1.2929 -1.3819 1.3912 1.2842 -754 -120)"/>
      <path fill="silver" stroke="#000" d="M197 254h25v80h-26z" transform="matrix(1.2509 -1.4194 1.3614 1.3153 -662 -103)"/>
      <path fill="#fff133" stroke="#000" d="M337 167c0 14 35 35 35-18h-35v18z" transform="matrix(-1.8992 0 0 1.8865 280 -100)"/>
      <path fill="#fff133" stroke="#000" d="M390 149a142 142 0 11-284 0 142 142 0 01284 0zm-53 0c0 15 22 3 9 43a81 81 0 01-57 55c-40 13-26-10-41-10s-1 23-41 10a80 80 0 01-57-57c-13-40 9-26 9-41s-22-1-9-41a80 80 0 0157-57c40-13 26 9 41 9s1-22 41-9a80 80 0 0157 57c13 40-9 26-9 41z" transform="matrix(1.8992 0 0 1.8865 -662 -103)"/>
      <path fill="#fff133" stroke="#000" d="M127 158c-21 0-2 67-9 51a127 127 0 010-103c7-16-12 52 9 52z" transform="matrix(1.6618 0 0 1.7607 -604 -99)"/>
      <path fill="#fff133" stroke="#000" d="M372 140a88 88 0 01-10 45c-8 14 10-45-8-45 18 0 2-59 8-45a108 108 0 0110 45z" transform="matrix(1.8992 0 0 2.0316 -662 -106)"/>
      <path fill="#fff133" stroke="#000" d="M296 263a124 124 0 01-96 0c-15-6 48 10 48-8 0 18 63 2 48 8zM248 43c0-18-63-2-48-8a123 123 0 0196 0c15 6-48-10-48 8z" transform="matrix(1.8992 0 0 1.8865 -662 -103)"/>
      <path fill="silver" stroke="#000" d="M277 288a142 142 0 01-57 0l-2 7a149 149 0 0060 0l-1-7z" transform="matrix(1.2929 -1.3819 -1.3912 -1.2842 -305 712)"/>
      <path fill="silver" stroke="#000" d="M277 288a142 142 0 01-57 0l-2 7a149 149 0 0060 0l-1-7z" transform="matrix(1.2929 -1.3819 1.3912 1.2842 -720 330)"/>
      <path fill="silver" stroke="#000" d="M268 309l-30 1c-10 0-20-3-29-5l9-10a149 149 0 0060 0l-10 14z" transform="matrix(1.2929 -1.3819 1.3912 1.2842 -720 330)"/>
      <path fill="silver" stroke="#000" d="M277 288a142 142 0 01-57 0l-2 7a149 149 0 0060 0l-1-7z" transform="matrix(1.3912 1.2842 -1.2929 1.3819 -344 -345)"/>
      <ellipse cx="82" cy="161" fill="silver" stroke="#000" rx="18" ry="20" transform="matrix(1.2929 -1.3819 1.3912 1.2842 -285 314)"/>
      <path fill="silver" stroke="#000" d="M268 282c-10 1-17 3-27 3s-23-1-33-3l10 13a150 150 0 0060 0l-10-13z" transform="matrix(1.3912 1.2842 -1.2929 1.3819 -347 -315)"/>
      <path fill="silver" stroke="#000" d="M174 272l-1 15-3 4 1-15 3-4zm157-6l3 4 1 13-3-3-1-14z" transform="matrix(1.8992 0 0 1.8865 -662 -103)"/>
      <ellipse cx="82" cy="161" fill="silver" stroke="#000" rx="18" ry="20" transform="matrix(1.2929 -1.3819 1.3912 1.2842 -734 330)"/>
      <g fill="#fff133" stroke="#000">
        <path d="M301 397l18 18-18 17 9 9 18-18 35 36-18 18 9 8 18-17 18 17-53 54-36-36 18-18 9 9 9-9-36-35-9 9 9 9-17 17-18-17 9-9-9-9-36 35 9 9 9-9 18 18-18 18-9-9-9 9 36 35 9-9-9-8 18-18 35 35-53 53-18-17 18-18-9-9-18 18-35-36 18-17-9-9-18 18-18-18 124-124z" transform="matrix(2.2946 0 0 2.2438 143 -1734)"/>
        <path d="M319 787v35l88 89v-71l-17-18h-36l-35-35zM230 699l71 70 1 35-72-71v-34z" transform="matrix(1.1473 0 0 1.1219 346 -1288)"/>
        <path d="M301 804l36-35v-36l-36 36v35z" transform="matrix(1.1473 0 0 1.1219 346 -1288)"/>
        <path d="M301 804l36-35v-36l-36 36v35z" transform="matrix(1.1473 0 0 1.1219 245 -1388)"/>
        <path d="M248 645v35l18-17-18-18z" transform="matrix(1.1473 0 0 1.1219 346 -1288)"/>
        <path d="M248 645v35l18-17-18-18z" transform="matrix(1.1473 0 0 1.1219 448 -1189)"/>
        <path d="M230 699l36 35v36l-36-37v-34z" transform="matrix(1.1473 0 0 1.1219 285 -1349)"/>
        <path d="M301 804l36-35v-36l-36 36v35z" transform="matrix(1.1473 0 0 1.1219 448 -1507)"/>
        <path d="M301 804l36-35v-36l-36 36v35z" transform="matrix(1.1473 0 0 1.1219 367 -1428)"/>
        <path d="M284 822l53-53v-36l-71 71 18 18z" transform="matrix(1.1473 0 0 1.1219 367 -1547)"/>
        <path d="M248 645v35l18-17-18-18z" transform="matrix(1.1473 0 0 1.1219 468 -1447)"/>
        <path d="M301 804l-35-35v-35l35 35v35z" transform="matrix(1.1473 0 0 1.1219 448 -1507)"/>
        <path d="M390 822l-53-53v-35l71 70-18 18z" transform="matrix(1.1473 0 0 1.1219 448 -1547)"/>
        <path d="M230 698l71 71h36l17 18v71L230 733v-35z" transform="matrix(1.1473 0 0 1.1219 570 -1388)"/>
        <path d="M354 822l107-106h35L390 822h-36zm54 18l106-107-18-17-106 106 18 18z" transform="matrix(1.1473 0 0 1.1219 346 -1288)"/>
        <path d="M408 840v71l106-107v-71L408 841z" transform="matrix(1.1473 0 0 1.1219 346 -1288)"/>
        <path d="M354 822l107-106h35L390 822h-36zm54 18l106-107-18-17-106 106 18 18z" transform="matrix(1.1473 0 0 1.1219 509 -1447)"/>
        <path d="M408 840v71l106-107v-71L408 841z" transform="matrix(1.1473 0 0 1.1219 509 -1447)"/>
        <path d="M319 787l18-18v-36l-36 36 18 18z" transform="matrix(1.1473 0 0 1.1219 590 -1527)"/>
        <path d="M319 787l18-18v-36l-36 36 18 18z" transform="matrix(1.1473 0 0 1.1219 489 -1626)"/>
        <path d="M266 769v-36l18 18-18 18z" transform="matrix(1.1473 0 0 1.1219 448 -1348)"/>
        <path d="M301 804l-35-35 18-18 17 18v35z" transform="matrix(1.1473 0 0 1.1219 367 -1428)"/>
        <path d="M301 804l-18-17 18-18v35z" transform="matrix(1.1473 0 0 1.1219 489 -1587)"/>
      </g>
    </g>
    <g fill="#b00" stroke="#000" stroke-width="18">
      <path d="M213-453c-36 0-71 35-71 70s35 71 71 71h195c35 0 70-35 70-71 0-37-35-70-71-70H213z" transform="matrix(.01435 .009 -.00335 .01413 452 279)"/>
      <path d="M213-453c-36 0-71 35-71 70s35 71 71 71h195c35 0 70-35 70-71 0-37-35-70-71-70H213z" transform="matrix(.01446 .00854 -.00318 .01423 452 277)"/>
      <path d="M213-453c-36 0-71 35-71 70s35 71 71 71h195c35 0 70-35 70-71 0-37-35-70-71-70H213z" transform="matrix(.01435 .009 -.00335 .01413 452 275)"/>
      <path d="M213-453c-36 0-71 35-71 70s35 71 71 71h195c35 0 70-35 70-71 0-37-35-70-71-70H213z" transform="matrix(.01446 .00854 -.00318 .01423 452 273)"/>
      <path d="M213-453c-36 0-71 35-71 70s35 71 71 71h195c35 0 70-35 70-71 0-37-35-70-71-70H213z" transform="matrix(.01435 .009 -.00335 .01413 452 288)"/>
      <path d="M213-453c-36 0-71 35-71 70s35 71 71 71h195c35 0 70-35 70-71 0-37-35-70-71-70H213z" transform="matrix(.01446 .00854 -.00318 .01423 452 286)"/>
      <path d="M213-453c-36 0-71 35-71 70s35 71 71 71h195c35 0 70-35 70-71 0-37-35-70-71-70H213z" transform="matrix(.01435 .009 -.00335 .01413 452 284)"/>
      <path d="M213-453c-36 0-71 35-71 70s35 71 71 71h195c35 0 70-35 70-71 0-37-35-70-71-70H213z" transform="matrix(.01446 .00854 -.00318 .01423 452 282)"/>
      <path d="M213-453c-36 0-71 35-71 70s35 71 71 71h195c35 0 70-35 70-71 0-37-35-70-71-70H213z" transform="matrix(.01435 .009 -.00335 .01413 452 262)"/>
      <path d="M213-453c-36 0-71 35-71 70s35 71 71 71h195c35 0 70-35 70-71 0-37-35-70-71-70H213z" transform="matrix(.01446 .00854 -.00318 .01423 452 260)"/>
      <path d="M213-453c-36 0-71 35-71 70s35 71 71 71h195c35 0 70-35 70-71 0-37-35-70-71-70H213z" transform="matrix(.01435 .009 -.00335 .01413 452 258)"/>
      <path d="M213-453c-36 0-71 35-71 70s35 71 71 71h195c35 0 70-35 70-71 0-37-35-70-71-70H213z" transform="matrix(.01446 .00854 -.00318 .01423 452 256)"/>
      <path d="M213-453c-36 0-71 35-71 70s35 71 71 71h195c35 0 70-35 70-71 0-37-35-70-71-70H213z" transform="matrix(.01435 .009 -.00335 .01413 452 271)"/>
      <path d="M213-453c-36 0-71 35-71 70s35 71 71 71h195c35 0 70-35 70-71 0-37-35-70-71-70H213z" transform="matrix(.01446 .00854 -.00318 .01423 452 269)"/>
      <path d="M213-453c-36 0-71 35-71 70s35 71 71 71h195c35 0 70-35 70-71 0-37-35-70-71-70H213z" transform="matrix(.01435 .009 -.00335 .01413 452 266)"/>
      <path d="M213-453c-36 0-71 35-71 70s35 71 71 71h195c35 0 70-35 70-71 0-37-35-70-71-70H213z" transform="matrix(.01446 .00854 -.00318 .01423 452 265)"/>
      <path d="M213-453c-36 0-71 35-71 70s35 71 71 71h195c35 0 70-35 70-71 0-37-35-70-71-70H213z" transform="matrix(.01435 .009 -.00335 .01413 452 314)"/>
      <path d="M213-453c-36 0-71 35-71 70s35 71 71 71h195c35 0 70-35 70-71 0-37-35-70-71-70H213z" transform="matrix(.01446 .00854 -.00318 .01423 452 312)"/>
      <path d="M213-453c-36 0-71 35-71 70s35 71 71 71h195c35 0 70-35 70-71 0-37-35-70-71-70H213z" transform="matrix(.01435 .009 -.00335 .01413 452 309)"/>
      <path d="M213-453c-36 0-71 35-71 70s35 71 71 71h195c35 0 70-35 70-71 0-37-35-70-71-70H213z" transform="matrix(.01446 .00854 -.00318 .01423 452 307)"/>
      <path d="M213-453c-36 0-71 35-71 70s35 71 71 71h195c35 0 70-35 70-71 0-37-35-70-71-70H213z" transform="matrix(.01435 .009 -.00335 .01413 452 322)"/>
      <path d="M213-453c-36 0-71 35-71 70s35 71 71 71h195c35 0 70-35 70-71 0-37-35-70-71-70H213z" transform="matrix(.01446 .00854 -.00318 .01423 452 320)"/>
      <path d="M213-453c-36 0-71 35-71 70s35 71 71 71h195c35 0 70-35 70-71 0-37-35-70-71-70H213z" transform="matrix(.01435 .009 -.00335 .01413 452 318)"/>
      <path d="M213-453c-36 0-71 35-71 70s35 71 71 71h195c35 0 70-35 70-71 0-37-35-70-71-70H213z" transform="matrix(.01446 .00854 -.00318 .01423 452 316)"/>
      <path d="M213-453c-36 0-71 35-71 70s35 71 71 71h195c35 0 70-35 70-71 0-37-35-70-71-70H213z" transform="matrix(.01435 .009 -.00335 .01413 452 296)"/>
      <path d="M213-453c-36 0-71 35-71 70s35 71 71 71h195c35 0 70-35 70-71 0-37-35-70-71-70H213z" transform="matrix(.01446 .00854 -.00318 .01423 452 295)"/>
      <path d="M213-453c-36 0-71 35-71 70s35 71 71 71h195c35 0 70-35 70-71 0-37-35-70-71-70H213z" transform="matrix(.01435 .009 -.00335 .01413 452 292)"/>
      <path d="M213-453c-36 0-71 35-71 70s35 71 71 71h195c35 0 70-35 70-71 0-37-35-70-71-70H213z" transform="matrix(.01446 .00854 -.00318 .01423 452 290)"/>
      <path d="M213-453c-36 0-71 35-71 70s35 71 71 71h195c35 0 70-35 70-71 0-37-35-70-71-70H213z" transform="matrix(.01435 .009 -.00335 .01413 452 305)"/>
      <path d="M213-453c-36 0-71 35-71 70s35 71 71 71h195c35 0 70-35 70-71 0-37-35-70-71-70H213z" transform="matrix(.01446 .00854 -.00318 .01423 452 303)"/>
      <path d="M213-453c-36 0-71 35-71 70s35 71 71 71h195c35 0 70-35 70-71 0-37-35-70-71-70H213z" transform="matrix(.01435 .009 -.00335 .01413 452 301)"/>
      <path d="M213-453c-36 0-71 35-71 70s35 71 71 71h195c35 0 70-35 70-71 0-37-35-70-71-70H213z" transform="matrix(.01446 .00854 -.00318 .01423 452 299)"/>
      <path d="M213-453c-36 0-71 35-71 70s35 71 71 71h195c35 0 70-35 70-71 0-37-35-70-71-70H213z" transform="matrix(.01435 .009 -.00335 .01413 451 348)"/>
      <path d="M213-453c-36 0-71 35-71 70s35 71 71 71h195c35 0 70-35 70-71 0-37-35-70-71-70H213z" transform="matrix(.01446 .00854 -.00318 .01423 451 346)"/>
      <path d="M213-453c-36 0-71 35-71 70s35 71 71 71h195c35 0 70-35 70-71 0-37-35-70-71-70H213z" transform="matrix(.01435 .009 -.00335 .01413 451 344)"/>
      <path d="M213-453c-36 0-71 35-71 70s35 71 71 71h195c35 0 70-35 70-71 0-37-35-70-71-70H213z" transform="matrix(.01446 .00854 -.00318 .01423 451 342)"/>
      <path d="M213-453c-36 0-71 35-71 70s35 71 71 71h195c35 0 70-35 70-71 0-37-35-70-71-70H213z" transform="matrix(.01446 .00854 -.00318 .01423 451 354)"/>
      <path d="M213-453c-36 0-71 35-71 70s35 71 71 71h195c35 0 70-35 70-71 0-37-35-70-71-70H213z" transform="matrix(.01435 .009 -.00335 .01413 451 352)"/>
      <path d="M213-453c-36 0-71 35-71 70s35 71 71 71h195c35 0 70-35 70-71 0-37-35-70-71-70H213z" transform="matrix(.01446 .00854 -.00318 .01423 451 350)"/>
      <path d="M213-453c-36 0-71 35-71 70s35 71 71 71h195c35 0 70-35 70-71 0-37-35-70-71-70H213z" transform="matrix(.01435 .009 -.00335 .01413 452 331)"/>
      <path d="M213-453c-36 0-71 35-71 70s35 71 71 71h195c35 0 70-35 70-71 0-37-35-70-71-70H213z" transform="matrix(.01446 .00854 -.00318 .01423 452 329)"/>
      <path d="M213-453c-36 0-71 35-71 70s35 71 71 71h195c35 0 70-35 70-71 0-37-35-70-71-70H213z" transform="matrix(.01435 .009 -.00335 .01413 452 326)"/>
      <path d="M213-453c-36 0-71 35-71 70s35 71 71 71h195c35 0 70-35 70-71 0-37-35-70-71-70H213z" transform="matrix(.01446 .00854 -.00318 .01423 452 325)"/>
      <path d="M213-453c-36 0-71 35-71 70s35 71 71 71h195c35 0 70-35 70-71 0-37-35-70-71-70H213z" transform="matrix(.01435 .009 -.00335 .01413 451 339)"/>
      <path d="M213-453c-36 0-71 35-71 70s35 71 71 71h195c35 0 70-35 70-71 0-37-35-70-71-70H213z" transform="matrix(.01446 .00854 -.00318 .01423 452 337)"/>
      <path d="M213-453c-36 0-71 35-71 70s35 71 71 71h195c35 0 70-35 70-71 0-37-35-70-71-70H213z" transform="matrix(.01435 .009 -.00335 .01413 452 335)"/>
      <path d="M213-453c-36 0-71 35-71 70s35 71 71 71h195c35 0 70-35 70-71 0-37-35-70-71-70H213z" transform="matrix(.01446 .00854 -.00318 .01423 452 333)"/>
      <path d="M213-453c-36 0-71 35-71 70s35 71 71 71h195c35 0 70-35 70-71 0-37-35-70-71-70H213z" transform="matrix(.01435 .009 -.00335 .01413 451 369)"/>
      <path d="M213-453c-36 0-71 35-71 70s35 71 71 71h195c35 0 70-35 70-71 0-37-35-70-71-70H213z" transform="matrix(.01446 .00854 -.00318 .01423 451 367)"/>
      <path d="M213-453c-36 0-71 35-71 70s35 71 71 71h195c35 0 70-35 70-71 0-37-35-70-71-70H213z" transform="matrix(.01435 .009 -.00335 .01413 451 365)"/>
      <path d="M213-453c-36 0-71 35-71 70s35 71 71 71h195c35 0 70-35 70-71 0-37-35-70-71-70H213z" transform="matrix(.01446 .00854 -.00318 .01423 451 363)"/>
      <path d="M213-453c-36 0-71 35-71 70s35 71 71 71h195c35 0 70-35 70-71 0-37-35-70-71-70H213z" transform="matrix(.01446 .00854 -.00318 .01423 451 376)"/>
      <path d="M213-453c-36 0-71 35-71 70s35 71 71 71h195c35 0 70-35 70-71 0-37-35-70-71-70H213z" transform="matrix(.01435 .009 -.00335 .01413 451 374)"/>
      <path d="M213-453c-36 0-71 35-71 70s35 71 71 71h195c35 0 70-35 70-71 0-37-35-70-71-70H213z" transform="matrix(.01446 .00854 -.00318 .01423 451 372)"/>
      <path d="M213-453c-36 0-71 35-71 70s35 71 71 71h195c35 0 70-35 70-71 0-37-35-70-71-70H213z" transform="matrix(.01435 .009 -.00335 .01413 451 361)"/>
      <path d="M213-453c-36 0-71 35-71 70s35 71 71 71h195c35 0 70-35 70-71 0-37-35-70-71-70H213z" transform="matrix(.01446 .00854 -.00318 .01423 451 359)"/>
      <path d="M213-453c-36 0-71 35-71 70s35 71 71 71h195c35 0 70-35 70-71 0-37-35-70-71-70H213z" transform="matrix(.01435 .009 -.00335 .01413 451 357)"/>
    </g>
    <g fill="#b00" stroke="#000" stroke-width="18">
      <path d="M213-453c-36 0-71 35-71 70s35 71 71 71h195c35 0 70-35 70-71 0-37-35-70-71-70H213z" transform="matrix(.01447 .00887 -.00316 .01416 455 280)"/>
      <path d="M213-453c-36 0-71 35-71 70s35 71 71 71h195c35 0 70-35 70-71 0-37-35-70-71-70H213z" transform="matrix(.01457 .0084 -.003 .01426 455 278)"/>
      <path d="M213-453c-36 0-71 35-71 70s35 71 71 71h195c35 0 70-35 70-71 0-37-35-70-71-70H213z" transform="matrix(.01447 .00887 -.00316 .01416 455 275)"/>
      <path d="M213-453c-36 0-71 35-71 70s35 71 71 71h195c35 0 70-35 70-71 0-37-35-70-71-70H213z" transform="matrix(.01457 .0084 -.003 .01426 455 273)"/>
      <path d="M213-453c-36 0-71 35-71 70s35 71 71 71h195c35 0 70-35 70-71 0-37-35-70-71-70H213z" transform="matrix(.01447 .00887 -.00316 .01416 455 288)"/>
      <path d="M213-453c-36 0-71 35-71 70s35 71 71 71h195c35 0 70-35 70-71 0-37-35-70-71-70H213z" transform="matrix(.01457 .0084 -.003 .01426 455 286)"/>
      <path d="M213-453c-36 0-71 35-71 70s35 71 71 71h195c35 0 70-35 70-71 0-37-35-70-71-70H213z" transform="matrix(.01447 .00887 -.00316 .01416 455 284)"/>
      <path d="M213-453c-36 0-71 35-71 70s35 71 71 71h195c35 0 70-35 70-71 0-37-35-70-71-70H213z" transform="matrix(.01457 .0084 -.003 .01426 455 282)"/>
      <path d="M213-453c-36 0-71 35-71 70s35 71 71 71h195c35 0 70-35 70-71 0-37-35-70-71-70H213z" transform="matrix(.01447 .00887 -.00316 .01416 455 262)"/>
      <path d="M213-453c-36 0-71 35-71 70s35 71 71 71h195c35 0 70-35 70-71 0-37-35-70-71-70H213z" transform="matrix(.01457 .0084 -.003 .01426 455 261)"/>
      <path d="M213-453c-36 0-71 35-71 70s35 71 71 71h195c35 0 70-35 70-71 0-37-35-70-71-70H213z" transform="matrix(.01447 .00887 -.00316 .01416 455 258)"/>
      <path d="M213-453c-36 0-71 35-71 70s35 71 71 71h195c35 0 70-35 70-71 0-37-35-70-71-70H213z" transform="matrix(.01457 .0084 -.003 .01426 455 256)"/>
      <path d="M213-453c-36 0-71 35-71 70s35 71 71 71h195c35 0 70-35 70-71 0-37-35-70-71-70H213z" transform="matrix(.01447 .00887 -.00316 .01416 455 271)"/>
      <path d="M213-453c-36 0-71 35-71 70s35 71 71 71h195c35 0 70-35 70-71 0-37-35-70-71-70H213z" transform="matrix(.01457 .0084 -.003 .01426 455 269)"/>
      <path d="M213-453c-36 0-71 35-71 70s35 71 71 71h195c35 0 70-35 70-71 0-37-35-70-71-70H213z" transform="matrix(.01447 .00887 -.00316 .01416 455 267)"/>
      <path d="M213-453c-36 0-71 35-71 70s35 71 71 71h195c35 0 70-35 70-71 0-37-35-70-71-70H213z" transform="matrix(.01457 .0084 -.003 .01426 455 265)"/>
      <path d="M213-453c-36 0-71 35-71 70s35 71 71 71h195c35 0 70-35 70-71 0-37-35-70-71-70H213z" transform="matrix(.01447 .00887 -.00316 .01416 455 314)"/>
      <path d="M213-453c-36 0-71 35-71 70s35 71 71 71h195c35 0 70-35 70-71 0-37-35-70-71-70H213z" transform="matrix(.01457 .0084 -.003 .01426 455 312)"/>
      <path d="M213-453c-36 0-71 35-71 70s35 71 71 71h195c35 0 70-35 70-71 0-37-35-70-71-70H213z" transform="matrix(.01447 .00887 -.00316 .01416 455 310)"/>
      <path d="M213-453c-36 0-71 35-71 70s35 71 71 71h195c35 0 70-35 70-71 0-37-35-70-71-70H213z" transform="matrix(.01457 .0084 -.003 .01426 455 308)"/>
      <path d="M213-453c-36 0-71 35-71 70s35 71 71 71h195c35 0 70-35 70-71 0-37-35-70-71-70H213z" transform="matrix(.01447 .00887 -.00316 .01416 455 322)"/>
      <path d="M213-453c-36 0-71 35-71 70s35 71 71 71h195c35 0 70-35 70-71 0-37-35-70-71-70H213z" transform="matrix(.01457 .0084 -.003 .01426 455 321)"/>
      <path d="M213-453c-36 0-71 35-71 70s35 71 71 71h195c35 0 70-35 70-71 0-37-35-70-71-70H213z" transform="matrix(.01447 .00887 -.00316 .01416 455 318)"/>
      <path d="M213-453c-36 0-71 35-71 70s35 71 71 71h195c35 0 70-35 70-71 0-37-35-70-71-70H213z" transform="matrix(.01457 .0084 -.003 .01426 455 316)"/>
      <path d="M213-453c-36 0-71 35-71 70s35 71 71 71h195c35 0 70-35 70-71 0-37-35-70-71-70H213z" transform="matrix(.01447 .00887 -.00316 .01416 455 297)"/>
      <path d="M213-453c-36 0-71 35-71 70s35 71 71 71h195c35 0 70-35 70-71 0-37-35-70-71-70H213z" transform="matrix(.01457 .0084 -.003 .01426 455 295)"/>
      <path d="M213-453c-36 0-71 35-71 70s35 71 71 71h195c35 0 70-35 70-71 0-37-35-70-71-70H213z" transform="matrix(.01447 .00887 -.00316 .01416 455 292)"/>
      <path d="M213-453c-36 0-71 35-71 70s35 71 71 71h195c35 0 70-35 70-71 0-37-35-70-71-70H213z" transform="matrix(.01457 .0084 -.003 .01426 455 291)"/>
      <path d="M213-453c-36 0-71 35-71 70s35 71 71 71h195c35 0 70-35 70-71 0-37-35-70-71-70H213z" transform="matrix(.01447 .00887 -.00316 .01416 455 305)"/>
      <path d="M213-453c-36 0-71 35-71 70s35 71 71 71h195c35 0 70-35 70-71 0-37-35-70-71-70H213z" transform="matrix(.01457 .0084 -.003 .01426 455 303)"/>
      <path d="M213-453c-36 0-71 35-71 70s35 71 71 71h195c35 0 70-35 70-71 0-37-35-70-71-70H213z" transform="matrix(.01447 .00887 -.00316 .01416 455 301)"/>
      <path d="M213-453c-36 0-71 35-71 70s35 71 71 71h195c35 0 70-35 70-71 0-37-35-70-71-70H213z" transform="matrix(.01457 .0084 -.003 .01426 455 299)"/>
      <path d="M213-453c-36 0-71 35-71 70s35 71 71 71h195c35 0 70-35 70-71 0-37-35-70-71-70H213z" transform="matrix(.01447 .00887 -.00316 .01416 455 348)"/>
      <path d="M213-453c-36 0-71 35-71 70s35 71 71 71h195c35 0 70-35 70-71 0-37-35-70-71-70H213z" transform="matrix(.01457 .0084 -.003 .01426 455 346)"/>
      <path d="M213-453c-36 0-71 35-71 70s35 71 71 71h195c35 0 70-35 70-71 0-37-35-70-71-70H213z" transform="matrix(.01447 .00887 -.00316 .01416 455 344)"/>
      <path d="M213-453c-36 0-71 35-71 70s35 71 71 71h195c35 0 70-35 70-71 0-37-35-70-71-70H213z" transform="matrix(.01457 .0084 -.003 .01426 455 342)"/>
      <path d="M213-453c-36 0-71 35-71 70s35 71 71 71h195c35 0 70-35 70-71 0-37-35-70-71-70H213z" transform="matrix(.01457 .0084 -.003 .01426 455 355)"/>
      <path d="M213-453c-36 0-71 35-71 70s35 71 71 71h195c35 0 70-35 70-71 0-37-35-70-71-70H213z" transform="matrix(.01447 .00887 -.00316 .01416 455 352)"/>
      <path d="M213-453c-36 0-71 35-71 70s35 71 71 71h195c35 0 70-35 70-71 0-37-35-70-71-70H213z" transform="matrix(.01457 .0084 -.003 .01426 455 350)"/>
      <path d="M213-453c-36 0-71 35-71 70s35 71 71 71h195c35 0 70-35 70-71 0-37-35-70-71-70H213z" transform="matrix(.01447 .00887 -.00316 .01416 455 331)"/>
      <path d="M213-453c-36 0-71 35-71 70s35 71 71 71h195c35 0 70-35 70-71 0-37-35-70-71-70H213z" transform="matrix(.01457 .0084 -.003 .01426 455 329)"/>
      <path d="M213-453c-36 0-71 35-71 70s35 71 71 71h195c35 0 70-35 70-71 0-37-35-70-71-70H213z" transform="matrix(.01447 .00887 -.00316 .01416 455 327)"/>
      <path d="M213-453c-36 0-71 35-71 70s35 71 71 71h195c35 0 70-35 70-71 0-37-35-70-71-70H213z" transform="matrix(.01457 .0084 -.003 .01426 455 325)"/>
      <path d="M213-453c-36 0-71 35-71 70s35 71 71 71h195c35 0 70-35 70-71 0-37-35-70-71-70H213z" transform="matrix(.01447 .00887 -.00316 .01416 455 340)"/>
      <path d="M213-453c-36 0-71 35-71 70s35 71 71 71h195c35 0 70-35 70-71 0-37-35-70-71-70H213z" transform="matrix(.01457 .0084 -.003 .01426 455 338)"/>
      <path d="M213-453c-36 0-71 35-71 70s35 71 71 71h195c35 0 70-35 70-71 0-37-35-70-71-70H213z" transform="matrix(.01447 .00887 -.00316 .01416 455 335)"/>
      <path d="M213-453c-36 0-71 35-71 70s35 71 71 71h195c35 0 70-35 70-71 0-37-35-70-71-70H213z" transform="matrix(.01457 .0084 -.003 .01426 455 333)"/>
      <path d="M213-453c-36 0-71 35-71 70s35 71 71 71h195c35 0 70-35 70-71 0-37-35-70-71-70H213z" transform="matrix(.01447 .00887 -.00316 .01416 455 370)"/>
      <path d="M213-453c-36 0-71 35-71 70s35 71 71 71h195c35 0 70-35 70-71 0-37-35-70-71-70H213z" transform="matrix(.01457 .0084 -.003 .01426 455 368)"/>
      <path d="M213-453c-36 0-71 35-71 70s35 71 71 71h195c35 0 70-35 70-71 0-37-35-70-71-70H213z" transform="matrix(.01447 .00887 -.00316 .01416 455 365)"/>
      <path d="M213-453c-36 0-71 35-71 70s35 71 71 71h195c35 0 70-35 70-71 0-37-35-70-71-70H213z" transform="matrix(.01457 .0084 -.003 .01426 455 363)"/>
      <path d="M213-453c-36 0-71 35-71 70s35 71 71 71h195c35 0 70-35 70-71 0-37-35-70-71-70H213z" transform="matrix(.01457 .0084 -.003 .01426 455 376)"/>
      <path d="M213-453c-36 0-71 35-71 70s35 71 71 71h195c35 0 70-35 70-71 0-37-35-70-71-70H213z" transform="matrix(.01447 .00887 -.00316 .01416 455 374)"/>
      <path d="M213-453c-36 0-71 35-71 70s35 71 71 71h195c35 0 70-35 70-71 0-37-35-70-71-70H213z" transform="matrix(.01457 .0084 -.003 .01426 455 372)"/>
      <path d="M213-453c-36 0-71 35-71 70s35 71 71 71h195c35 0 70-35 70-71 0-37-35-70-71-70H213z" transform="matrix(.01447 .00887 -.00316 .01416 455 361)"/>
      <path d="M213-453c-36 0-71 35-71 70s35 71 71 71h195c35 0 70-35 70-71 0-37-35-70-71-70H213z" transform="matrix(.01457 .0084 -.003 .01426 455 359)"/>
      <path d="M213-453c-36 0-71 35-71 70s35 71 71 71h195c35 0 70-35 70-71 0-37-35-70-71-70H213z" transform="matrix(.01447 .00887 -.00316 .01416 455 357)"/>
    </g>
    <g fill="#b00" stroke="#000" stroke-width="13">
      <path d="M213-453c-36 0-71 35-71 70s35 71 71 71h195c35 0 70-35 70-71 0-37-35-70-71-70H213z" transform="matrix(.01804 .0045 .00258 .01426 467 266)"/>
      <path d="M213-453c-36 0-71 35-71 70s35 71 71 71h195c35 0 70-35 70-71 0-37-35-70-71-70H213z" transform="matrix(.00502 .01448 -.01369 .00945 463 263)"/>
      <path d="M213-453c-36 0-71 35-71 70s35 71 71 71h195c35 0 70-35 70-71 0-37-35-70-71-70H213z" transform="matrix(.01316 .01078 -.0063 .01351 464 265)"/>
      <path d="M213-453c-36 0-71 35-71 70s35 71 71 71h195c35 0 70-35 70-71 0-37-35-70-71-70H213z" transform="matrix(-.011 .01222 -.01787 -.00248 463 259)"/>
      <path d="M213-453c-36 0-71 35-71 70s35 71 71 71h195c35 0 70-35 70-71 0-37-35-70-71-70H213z" transform="matrix(-.0104 .0123 -.018 -.00234 465 259)"/>
      <path d="M213-453c-36 0-71 35-71 70s35 71 71 71h195c35 0 70-35 70-71 0-37-35-70-71-70H213z" transform="matrix(-.01155 .01189 -.01775 -.003 452 259)"/>
      <path d="M213-453c-36 0-71 35-71 70s35 71 71 71h195c35 0 70-35 70-71 0-37-35-70-71-70H213z" transform="matrix(-.01097 .01198 -.01788 -.00286 455 259)"/>
      <path d="M213-453c-36 0-71 35-71 70s35 71 71 71h195c35 0 70-35 70-71 0-37-35-70-71-70H213z" transform="matrix(-.01155 .01189 -.01775 -.003 458 259)"/>
      <path d="M213-453c-36 0-71 35-71 70s35 71 71 71h195c35 0 70-35 70-71 0-37-35-70-71-70H213z" transform="matrix(-.0104 .0123 -.018 -.00234 460 259)"/>
      <path d="M213-453c-36 0-71 35-71 70s35 71 71 71h195c35 0 70-35 70-71 0-37-35-70-71-70H213z" transform="matrix(-.01155 .01189 -.01775 -.003 449 258)"/>
      <path d="M213-453c-36 0-71 35-71 70s35 71 71 71h195c35 0 70-35 70-71 0-37-35-70-71-70H213z" transform="matrix(-.01268 .01087 -.01732 -.00452 450 259)"/>
      <path d="M213-453c-36 0-71 35-71 70s35 71 71 71h195c35 0 70-35 70-71 0-37-35-70-71-70H213z" transform="matrix(-.01676 .00696 -.01454 -.00862 450 257)"/>
    </g>
    <g fill="#b00" stroke="#000" stroke-width="13">
      <path d="M213-453c-36 0-71 35-71 70s35 71 71 71h195c35 0 70-35 70-71 0-37-35-70-71-70H213z" transform="matrix(-.01456 -.00876 -.0151 .00691 501 356)"/>
      <path d="M213-453c-36 0-71 35-71 70s35 71 71 71h195c35 0 70-35 70-71 0-37-35-70-71-70H213z" transform="matrix(-.01407 -.00899 -.01526 .0068 503 356)"/>
      <path d="M213-453c-36 0-71 35-71 70s35 71 71 71h195c35 0 70-35 70-71 0-37-35-70-71-70H213z" transform="matrix(-.01456 -.00876 -.0151 .00691 506 355)"/>
      <path d="M213-453c-36 0-71 35-71 70s35 71 71 71h195c35 0 70-35 70-71 0-37-35-70-71-70H213z" transform="matrix(-.01407 -.00899 -.01526 .0068 508 354)"/>
      <path d="M213-453c-36 0-71 35-71 70s35 71 71 71h195c35 0 70-35 70-71 0-37-35-70-71-70H213z" transform="matrix(-.01737 .00284 -.00405 .01407 524 347)"/>
      <path d="M213-453c-36 0-71 35-71 70s35 71 71 71h195c35 0 70-35 70-71 0-37-35-70-71-70H213z" transform="matrix(-.01147 .01155 .00717 .0131 526 341)"/>
      <path d="M213-453c-36 0-71 35-71 70s35 71 71 71h195c35 0 70-35 70-71 0-37-35-70-71-70H213z" transform="matrix(-.0175 .0033 -.00385 .01404 525 345)"/>
      <path d="M213-453c-36 0-71 35-71 70s35 71 71 71h195c35 0 70-35 70-71 0-37-35-70-71-70H213z" transform="matrix(-.0136 -.00978 -.01575 .0058 491 358)"/>
      <path d="M213-453c-36 0-71 35-71 70s35 71 71 71h195c35 0 70-35 70-71 0-37-35-70-71-70H213z" transform="matrix(-.0131 -.00997 -.0159 .00568 493 358)"/>
      <path d="M213-453c-36 0-71 35-71 70s35 71 71 71h195c35 0 70-35 70-71 0-37-35-70-71-70H213z" transform="matrix(-.01493 -.00832 -.0148 .00736 496 357)"/>
      <path d="M213-453c-36 0-71 35-71 70s35 71 71 71h195c35 0 70-35 70-71 0-37-35-70-71-70H213z" transform="matrix(-.01254 -.01046 -.0162 .00507 497 357)"/>
      <path d="M213-453c-36 0-71 35-71 70s35 71 71 71h195c35 0 70-35 70-71 0-37-35-70-71-70H213z" transform="matrix(-.01456 -.00876 -.0151 .00691 511 354)"/>
      <path d="M213-453c-36 0-71 35-71 70s35 71 71 71h195c35 0 70-35 70-71 0-37-35-70-71-70H213z" transform="matrix(-.01407 -.00899 -.01526 .0068 513 353)"/>
      <path d="M213-453c-36 0-71 35-71 70s35 71 71 71h195c35 0 70-35 70-71 0-37-35-70-71-70H213z" transform="matrix(-.01096 -.01188 -.01683 .003 459 360)"/>
      <path d="M213-453c-36 0-71 35-71 70s35 71 71 71h195c35 0 70-35 70-71 0-37-35-70-71-70H213z" transform="matrix(-.01041 -.01198 -.01695 .00287 461 360)"/>
      <path d="M213-453c-36 0-71 35-71 70s35 71 71 71h195c35 0 70-35 70-71 0-37-35-70-71-70H213z" transform="matrix(-.01096 -.01188 -.01683 .003 464 360)"/>
      <path d="M213-453c-36 0-71 35-71 70s35 71 71 71h195c35 0 70-35 70-71 0-37-35-70-71-70H213z" transform="matrix(-.01041 -.01198 -.01695 .00287 466 360)"/>
      <path d="M213-453c-36 0-71 35-71 70s35 71 71 71h195c35 0 70-35 70-71 0-37-35-70-71-70H213z" transform="matrix(-.01096 -.01188 -.01683 .003 449 360)"/>
      <path d="M213-453c-36 0-71 35-71 70s35 71 71 71h195c35 0 70-35 70-71 0-37-35-70-71-70H213z" transform="matrix(-.01041 -.01198 -.01695 .00287 451 360)"/>
      <path d="M213-453c-36 0-71 35-71 70s35 71 71 71h195c35 0 70-35 70-71 0-37-35-70-71-70H213z" transform="matrix(-.01096 -.01188 -.01683 .003 454 360)"/>
      <path d="M213-453c-36 0-71 35-71 70s35 71 71 71h195c35 0 70-35 70-71 0-37-35-70-71-70H213z" transform="matrix(-.01041 -.01198 -.01695 .00287 456 360)"/>
      <path d="M213-453c-36 0-71 35-71 70s35 71 71 71h195c35 0 70-35 70-71 0-37-35-70-71-70H213z" transform="matrix(-.01244 -.01081 -.01634 .00452 480 360)"/>
      <path d="M213-453c-36 0-71 35-71 70s35 71 71 71h195c35 0 70-35 70-71 0-37-35-70-71-70H213z" transform="matrix(-.01231 -.01064 -.0163 .00483 483 359)"/>
      <path d="M213-453c-36 0-71 35-71 70s35 71 71 71h195c35 0 70-35 70-71 0-37-35-70-71-70H213z" transform="matrix(-.01284 -.01048 -.01616 .00495 485 359)"/>
      <path d="M213-453c-36 0-71 35-71 70s35 71 71 71h195c35 0 70-35 70-71 0-37-35-70-71-70H213z" transform="matrix(-.0131 -.00997 -.0159 .00568 488 359)"/>
      <path d="M213-453c-36 0-71 35-71 70s35 71 71 71h195c35 0 70-35 70-71 0-37-35-70-71-70H213z" transform="matrix(-.01096 -.01188 -.01683 .003 469 360)"/>
      <path d="M213-453c-36 0-71 35-71 70s35 71 71 71h195c35 0 70-35 70-71 0-37-35-70-71-70H213z" transform="matrix(-.0113 -.0114 -.0167 .00377 472 360)"/>
      <path d="M213-453c-36 0-71 35-71 70s35 71 71 71h195c35 0 70-35 70-71 0-37-35-70-71-70H213z" transform="matrix(-.0125 -.01076 -.01631 .0046 475 360)"/>
      <path d="M213-453c-36 0-71 35-71 70s35 71 71 71h195c35 0 70-35 70-71 0-37-35-70-71-70H213z" transform="matrix(-.01107 -.01156 -.01677 .00353 477 359)"/>
      <path d="M213-453c-36 0-71 35-71 70s35 71 71 71h195c35 0 70-35 70-71 0-37-35-70-71-70H213z" transform="matrix(-.00824 -.01334 -.0172 .00043 417 358)"/>
      <path d="M213-453c-36 0-71 35-71 70s35 71 71 71h195c35 0 70-35 70-71 0-37-35-70-71-70H213z" transform="matrix(-.00768 -.01335 -.01729 .00028 419 358)"/>
      <path d="M213-453c-36 0-71 35-71 70s35 71 71 71h195c35 0 70-35 70-71 0-37-35-70-71-70H213z" transform="matrix(-.00983 -.01256 -.01706 .0019 422 359)"/>
      <path d="M213-453c-36 0-71 35-71 70s35 71 71 71h195c35 0 70-35 70-71 0-37-35-70-71-70H213z" transform="matrix(-.00927 -.01262 -.01717 .00176 425 359)"/>
      <path d="M213-453c-36 0-71 35-71 70s35 71 71 71h195c35 0 70-35 70-71 0-37-35-70-71-70H213z" transform="matrix(-.00768 -.01335 -.01729 .00028 409 357)"/>
      <path d="M213-453c-36 0-71 35-71 70s35 71 71 71h195c35 0 70-35 70-71 0-37-35-70-71-70H213z" transform="matrix(-.00824 -.01334 -.0172 .00043 412 358)"/>
      <path d="M213-453c-36 0-71 35-71 70s35 71 71 71h195c35 0 70-35 70-71 0-37-35-70-71-70H213z" transform="matrix(-.00768 -.01335 -.01729 .00028 414 358)"/>
      <path d="M213-453c-36 0-71 35-71 70s35 71 71 71h195c35 0 70-35 70-71 0-37-35-70-71-70H213z" transform="matrix(-.00983 -.01256 -.01706 .0019 438 360)"/>
      <path d="M213-453c-36 0-71 35-71 70s35 71 71 71h195c35 0 70-35 70-71 0-37-35-70-71-70H213z" transform="matrix(-.00927 -.01262 -.01717 .00176 440 360)"/>
      <path d="M213-453c-36 0-71 35-71 70s35 71 71 71h195c35 0 70-35 70-71 0-37-35-70-71-70H213z" transform="matrix(-.01096 -.01188 -.01683 .003 443 360)"/>
      <path d="M213-453c-36 0-71 35-71 70s35 71 71 71h195c35 0 70-35 70-71 0-37-35-70-71-70H213z" transform="matrix(-.01041 -.01198 -.01695 .00287 446 360)"/>
      <path d="M213-453c-36 0-71 35-71 70s35 71 71 71h195c35 0 70-35 70-71 0-37-35-70-71-70H213z" transform="matrix(-.00983 -.01256 -.01706 .0019 428 359)"/>
      <path d="M213-453c-36 0-71 35-71 70s35 71 71 71h195c35 0 70-35 70-71 0-37-35-70-71-70H213z" transform="matrix(-.00927 -.01262 -.01717 .00176 430 360)"/>
      <path d="M213-453c-36 0-71 35-71 70s35 71 71 71h195c35 0 70-35 70-71 0-37-35-70-71-70H213z" transform="matrix(-.00983 -.01256 -.01706 .0019 433 360)"/>
      <path d="M213-453c-36 0-71 35-71 70s35 71 71 71h195c35 0 70-35 70-71 0-37-35-70-71-70H213z" transform="matrix(-.00927 -.01262 -.01717 .00176 435 360)"/>
      <path d="M213-453c-36 0-71 35-71 70s35 71 71 71h195c35 0 70-35 70-71 0-37-35-70-71-70H213z" transform="matrix(.01773 -.00226 .00503 -.01378 400 339)"/>
      <path d="M213-453c-36 0-71 35-71 70s35 71 71 71h195c35 0 70-35 70-71 0-37-35-70-71-70H213z" transform="matrix(.0141 -.00895 -.00376 -.01413 397 343)"/>
      <path d="M213-453c-36 0-71 35-71 70s35 71 71 71h195c35 0 70-35 70-71 0-37-35-70-71-70H213z" transform="matrix(.00947 -.01275 -.00925 -.01215 397 347)"/>
      <path d="M213-453c-36 0-71 35-71 70s35 71 71 71h195c35 0 70-35 70-71 0-37-35-70-71-70H213z" transform="matrix(.00376 -.01448 -.01383 -.00869 398 350)"/>
      <path d="M213-453c-36 0-71 35-71 70s35 71 71 71h195c35 0 70-35 70-71 0-37-35-70-71-70H213z" transform="matrix(.01766 .00094 .00819 -.01275 405 333)"/>
      <path d="M213-453c-36 0-71 35-71 70s35 71 71 71h195c35 0 70-35 70-71 0-37-35-70-71-70H213z" transform="matrix(.01793 .00053 .00798 -.01276 404 335)"/>
      <path d="M213-453c-36 0-71 35-71 70s35 71 71 71h195c35 0 70-35 70-71 0-37-35-70-71-70H213z" transform="matrix(.01757 -.0018 .00523 -.0138 401 337)"/>
      <path d="M213-453c-36 0-71 35-71 70s35 71 71 71h195c35 0 70-35 70-71 0-37-35-70-71-70H213z" transform="matrix(-.001 -.01499 -.0159 -.0055 400 354)"/>
      <path d="M213-453c-36 0-71 35-71 70s35 71 71 71h195c35 0 70-35 70-71 0-37-35-70-71-70H213z" transform="matrix(-.00438 -.01435 -.01702 -.00258 403 355)"/>
      <path d="M213-453c-36 0-71 35-71 70s35 71 71 71h195c35 0 70-35 70-71 0-37-35-70-71-70H213z" transform="matrix(-.00824 -.01334 -.0172 .00043 407 357)"/>
      <path d="M213-453c-36 0-71 35-71 70s35 71 71 71h195c35 0 70-35 70-71 0-37-35-70-71-70H213z" transform="matrix(-.0174 -.00361 -.01096 .0111 517 352)"/>
      <path d="M213-453c-36 0-71 35-71 70s35 71 71 71h195c35 0 70-35 70-71 0-37-35-70-71-70H213z" transform="matrix(-.0168 -.00469 -.0118 .01058 517 352)"/>
      <path d="M213-453c-36 0-71 35-71 70s35 71 71 71h195c35 0 70-35 70-71 0-37-35-70-71-70H213z" transform="matrix(-.01764 -.00272 -.01013 .01164 522 349)"/>
      <path d="M213-453c-36 0-71 35-71 70s35 71 71 71h195c35 0 70-35 70-71 0-37-35-70-71-70H213z" transform="matrix(-.01667 -.00498 -.01207 .01037 519 351)"/>
      <path d="M213-453c-36 0-71 35-71 70s35 71 71 71h195c35 0 70-35 70-71 0-37-35-70-71-70H213z" transform="matrix(.01634 -.0062 .01318 .00926 512 341)"/>
      <path d="M213-453c-36 0-71 35-71 70s35 71 71 71h195c35 0 70-35 70-71 0-37-35-70-71-70H213z" transform="matrix(.0159 -.0065 .01336 .00919 510 340)"/>
      <path d="M213-453c-36 0-71 35-71 70s35 71 71 71h195c35 0 70-35 70-71 0-37-35-70-71-70H213z" transform="matrix(.01686 -.00512 .01228 .01009 506 339)"/>
      <path d="M213-453c-36 0-71 35-71 70s35 71 71 71h195c35 0 70-35 70-71 0-37-35-70-71-70H213z" transform="matrix(.0159 -.0065 .01336 .00919 519 344)"/>
      <path d="M213-453c-36 0-71 35-71 70s35 71 71 71h195c35 0 70-35 70-71 0-37-35-70-71-70H213z" transform="matrix(.01634 -.0062 .01318 .00926 516 343)"/>
      <path d="M213-453c-36 0-71 35-71 70s35 71 71 71h195c35 0 70-35 70-71 0-37-35-70-71-70H213z" transform="matrix(.0159 -.0065 .01336 .00919 514 342)"/>
    </g>
    <g transform="matrix(.08053 0 0 .0956 438 288)">
      <path fill="#fff133" stroke="#000" d="M213-1995v53h-54v36h54v106h35v-106h53v-36h-53v-53h-35z"/>
      <ellipse cx="239" cy="-1814" fill="#fff133" stroke="#000" rx="62" ry="57" transform="matrix(.57143 0 0 .61816 94 -679)"/>
      <path fill="#fff" stroke="#000" d="M602-1119c0 68-10 145-29 205-120-27-268-40-339-40-87 0-246 13-345 26a631 631 0 01-31-191c0-274 106-391 368-496 233 105 376 222 376 496z" transform="matrix(1.0576 0 0 1.3394 -6 364)"/>
      <path fill="#fff133" stroke="#000" d="M567-657c0-44-151-80-337-80s-336 36-336 80v26c0-44 151-71 336-71s337 45 337 89v-44z" transform="matrix(1.1715 0 0 .74463 -33 -635)"/>
      <g fill="#fff133" stroke="#000">
        <path d="M230-826l-53 54 36 35-18 18-36-36-53 53 53 54 36-36 18 18v53h35v-53l18-18 35 36 53-54-53-53-35 36-18-18 36-35-54-54z" transform="matrix(1.1725 0 0 .74463 -33 -767)"/>
        <path d="M221-826l-8 54v35l-18 18v-36l-18 53 18 54v-36l18 18v53h17v-53l18-18v36l18-54-18-53v36l-18-18v-35l-9-54z" transform="matrix(1.13516 -.18643 .29356 .72091 -190 -704)"/>
        <path d="M221-826l-8 54v35l-18 18v-36l-18 53 18 54v-36l18 18v53h17v-53l18-18v36l18-54-18-53v36l-18-18v-35l-9-54z" transform="matrix(1.1416 .16986 -.26746 .725 182 -778)"/>
        <path d="M142-1020a38 38 0 0135-36c18 0 36 18 36 35s-18 36-18 36l71 71h-36l-53-53-53 53H89l71-71s-18-18-18-36z" transform="matrix(.92597 -.09509 .18717 .73508 29 -522)"/>
        <path d="M142-1020a38 38 0 0135-36c18 0 36 18 36 35s-18 36-18 36l71 71h-36l-53-53-53 53H89l71-71s-18-18-18-36z" transform="matrix(.92699 .091 -.17909 .7359 125 -554)"/>
        <path d="M567-657c0-44-151-80-337-80s-336 36-336 80v26c0-44 151-71 336-71s337 45 337 89v-44z" transform="matrix(1.1725 0 0 .74463 -33 -674)"/>
      </g>
      <path fill="#fff133" stroke="#000" d="M567-657c0-44-151-80-337-80s-336 36-336 80v26c0-44 151-71 336-71s337 45 337 89v-44z" transform="matrix(1.0735 0 0 .74463 -9 -387)"/>
      <g fill="#fff133" stroke="#000">
        <path d="M230-826l-53 54 36 35-18 18-36-36-53 53 53 54 36-36 18 18v53h35v-53l18-18 35 36 53-54-53-53-35 36-18-18 36-35-54-54z" transform="matrix(1.1042 0 0 .74463 -13 -519)"/>
        <path d="M221-826l-8 54v35l-18 18v-36l-18 53 18 54v-36l18 18v53h17v-53l18-18v36l18-54-18-53v36l-18-18v-35l-9-54z" transform="matrix(1.06903 -.18643 .27645 .72092 -161 -456)"/>
        <path d="M221-826l-8 54v35l-18 18v-36l-18 53 18 54v-36l18 18v53h17v-53l18-18v36l18-54-18-53v36l-18-18v-35l-9-54z" transform="matrix(1.0751 .16986 -.25188 .725 190 -530)"/>
        <path d="M142-1020a38 38 0 0135-36c18 0 36 18 36 35s-18 36-18 36l71 71h-36l-53-53-53 53H89l71-71s-18-18-18-36z" transform="matrix(.87203 -.09509 .17626 .73508 45 -274)"/>
        <path d="M142-1020a38 38 0 0135-36c18 0 36 18 36 35s-18 36-18 36l71 71h-36l-53-53-53 53H89l71-71s-18-18-18-36z" transform="matrix(.873 .091 -.16866 .7359 136 -306)"/>
        <path d="M567-657c0-44-151-80-337-80s-336 36-336 80v26c0-44 151-71 336-71s337 45 337 89v-44z" transform="matrix(1.1042 0 0 .74463 -13 -426)"/>
      </g>
      <path fill="#fff133" stroke="#000" d="M567-657c0-44-151-80-337-80s-336 36-336 80v26c0-44 151-71 336-71s337 45 337 89v-44z" transform="matrix(1.105 0 0 .74463 -16 -865)"/>
      <g fill="#fff133" stroke="#000">
        <path d="M230-826l-53 54 36 35-18 18-36-36-53 53 53 54 36-36 18 18v53h35v-53l18-18 35 36 53-54-53-53-35 36-18-18 36-35-54-54z" transform="matrix(1.0799 0 0 .70238 -6 -1031)"/>
        <path d="M221-826l-8 54v35l-18 18v-36l-18 53 18 54v-36l18 18v53h17v-53l18-18v36l18-54-18-53v36l-18-18v-35l-9-54z" transform="matrix(1.0455 -.17585 .27037 .68 -151 -972)"/>
        <path d="M221-826l-8 54v35l-18 18v-36l-18 53 18 54v-36l18 18v53h17v-53l18-18v36l18-54-18-53v36l-18-18v-35l-9-54z" transform="matrix(1.05143 .16022 -.24634 .68386 192 -1042)"/>
        <path d="M142-1020a38 38 0 0135-36c18 0 36 18 36 35s-18 36-18 36l71 71h-36l-53-53-53 53H89l71-71s-18-18-18-36z" transform="matrix(.85284 -.0897 .17238 .69338 51 -800)"/>
        <path d="M142-1020a38 38 0 0135-36c18 0 36 18 36 35s-18 36-18 36l71 71h-36l-53-53-53 53H89l71-71s-18-18-18-36z" transform="matrix(.85378 .08583 -.16494 .69414 139 -831)"/>
        <path d="M567-657c0-44-151-80-337-80s-336 36-336 80v26c0-44 151-71 336-71s337 45 337 89v-44z" transform="matrix(1.0799 0 0 .70238 -6 -944)"/>
      </g>
      <ellipse cx="234" cy="-822" fill="#b90000" rx="376" ry="121" transform="matrix(.96627 0 0 .41385 13 -517)"/>
    </g>
    <path fill="#fff" stroke="#000" d="M514-790l35-18 36 18s-74 35-74 159c0 89 125 107 125 213 0 45-34 88-69 88s-89-17-142-70c36 17 76 37 106 36 20-1 55-18 55-53 0-71-122-107-122-214 0-124 50-159 50-159z" transform="matrix(.24 0 0 .1991 382 336)"/>
    <path fill="#b00" stroke="#000" stroke-width="18" d="M213-453c-36 0-71 35-71 70s35 71 71 71h195c35 0 70-35 70-71 0-37-35-70-71-70H213z" transform="matrix(.02071 -.00148 .00948 .02238 454 384)"/>
    <path fill="#fff" stroke="#000" d="M520-790l47-18 10 18s-71 35-71 159c0 89 126 107 126 213 0 45-27 87-65 88-74 3-91-23-142-70 43 32 105 46 129 34 30-16 35-36 35-54 0-71-121-104-121-211 0-124 52-159 52-159z" transform="matrix(.24 0 0 .1991 382 336)"/>
    <path fill="#fff" stroke="#000" d="M513-790c7-2 36-18 72 18 17 17 17 53 17 70l53-53s-29-87-107-53a335 335 0 00-35 18z" transform="matrix(.24 0 0 .1991 382 336)"/>
    <path fill="#fff" stroke="#000" d="M524-796c9-3 36-6 64 19 18 17 19 43 19 60l41-38c3-3-25-81-99-54a154 154 0 00-25 13z" transform="matrix(.24 0 0 .1991 382 336)"/>
    <path fill="#fff133" stroke="#000" d="M345-596l9 22s1-10 8-12l7-1 32 58c6 9-3 17-1 17l26-12s-10 1-15-6l-35-60 12-5c5-3 10 8 10 8l-13-27s0 9-4 11l-8 3-8-13c-5-7 4-14 4-14l-23 11s8 5 11 9l5 9-8 3c-4 2-8 0-9-1z" transform="matrix(.19534 -.02065 .06668 .17315 476 339)"/>
    <path fill="#fff133" stroke="#000" d="M345-596l9 22s1-10 8-12l7-1 32 58c6 9-3 17-1 17l26-12s-10 1-15-6l-35-60 12-5c5-3 10 8 10 8l-13-27s0 9-4 11l-8 3-8-13c-5-7 4-14 4-14l-23 11s8 5 11 9l5 9-8 3c-4 2-8 0-9-1z" transform="matrix(-.17775 .02412 -.0031 -.13262 595 97)"/>
    <path fill="#b00" stroke="#000" stroke-width="18" d="M213-453c-36 0-71 35-71 70s35 71 71 71h195c35 0 70-35 70-71 0-37-35-70-71-70H213z" transform="matrix(.02071 -.00148 .00948 .02238 458 384)"/>
    <path fill="#b00" stroke="#000" stroke-width="18" d="M213-453c-36 0-71 35-71 70s35 71 71 71h195c35 0 70-35 70-71 0-37-35-70-71-70H213z" transform="matrix(.03487 -.00148 .01595 .02238 453 387)"/>
    <path fill="#b00" stroke="#000" stroke-width="18" d="M213-453c-36 0-71 35-71 70s35 71 71 71h195c35 0 70-35 70-71 0-37-35-70-71-70H213z" transform="matrix(.03487 -.00148 .01595 .02238 456 387)"/>
    <path fill="#b00" stroke="#000" stroke-width="18" d="M213-453c-36 0-71 35-71 70s35 71 71 71h195c35 0 70-35 70-71 0-37-35-70-71-70H213z" transform="matrix(.04323 -.00148 .01978 .02238 451 390)"/>
    <path fill="#b00" stroke="#000" stroke-width="18" d="M213-453c-36 0-71 35-71 70s35 71 71 71h195c35 0 70-35 70-71 0-37-35-70-71-70H213z" transform="matrix(.04323 -.00148 .01978 .02238 455 390)"/>
    <path fill="#ffe000" d="M0 0h320v480H0z"/>
  </g>
</svg>
