<svg xmlns="http://www.w3.org/2000/svg" xmlns:xlink="http://www.w3.org/1999/xlink" id="flag-icons-vg" viewBox="0 0 640 480">
  <defs>
    <linearGradient id="a" x1="103" x2="93" y1="111" y2="108" gradientTransform="matrix(.99614 0 0 2.25255 704 -75)" gradientUnits="userSpaceOnUse">
      <stop offset="0" stop-color="red"/>
      <stop offset="1" stop-color="#ff0"/>
    </linearGradient>
  </defs>
  <path fill="#006" d="M0 0h640v480H0z"/>
  <path fill="#012169" d="M0 0h320v240H0z"/>
  <path fill="#fff" d="M38 0l122 91L281 0h39v31l-120 90 120 89v30h-40l-120-89-119 89H0v-30l120-89L0 32V0z"/>
  <path fill="#c8102e" d="M212 141l108 79v20l-135-99zm-92 10l3 17-96 72H0zM320 0v2L196 96l1-22 98-74zM0 0l120 88H90L0 21z"/>
  <path fill="#fff" d="M121 0v240h80V0zM0 80v80h320V80z"/>
  <path fill="#c8102e" d="M0 97v48h320V97zM137 0v240h48V0z"/>
  <g transform="translate(-217 -9) scale(.77497)">
    <path fill="#fff" d="M776 144l251-1-1 223s9 34-105 86c41-5 86-48 86-48s18-23 27-10 17 19 23 24c7 5 12 19 2 29-10 11-25 12-29-1-7 4-46 52-128 54-83-1-129-54-129-54s-11 18-27 4c-15-18-4-30-4-30s13-7 17-12c6-7 8-17 18-17 12 1 17 11 17 11s42 44 87 50c-102-49-106-79-105-87V144z"/>
    <path fill="#006129" stroke="#000" stroke-width="2" d="M782 150l239-1v214c1 28-46 57-120 93-76-39-119-63-120-93l1-213z"/>
    <g id="b" fill="#ffc72c" stroke="#000" stroke-width="1">
      <path fill="none" stroke="#ffc72c" stroke-width="2" d="M815 182l14-21 14 21"/>
      <path d="M832 174a3 3 0 11-6 0 3 3 0 016 0z"/>
      <path d="M817 197h22s1-3-2-4c12-2 9-12 18-13 2 1-5 5-5 5s-6 4-3 6c2 2 3-1 3-3 1-2 10-3 8-9-2-5-14 3-14 3h-9c-1-1-3-5-6-5s-5 5-5 5h-21s0 5 10 6c2 3 4 4 6 5l-2 4zm2-4h18m-26-11s1 9 8 11"/>
      <path fill="url(#a)" d="M810 182c0-3 2-4 3-8 0-4-3-4-2-6 1-3 1-6-3-8 1 4-4 7-4 10s2 3 2 7l-1 5h5z"/>
      <path d="M832 162a3 3 0 11-6 0 3 3 0 015 0z"/>
    </g>
    <use xlink:href="#b" width="100%" height="100%" x="-1" y="41"/>
    <use xlink:href="#b" width="100%" height="100%" x="-1" y="82"/>
    <use xlink:href="#b" width="100%" height="100%" x="26" y="126"/>
    <use xlink:href="#b" width="100%" height="100%" x="-5" y="162"/>
    <use xlink:href="#b" width="100%" height="100%" x="-4" y="205"/>
    <use xlink:href="#b" width="100%" height="100%" x="146" y="1"/>
    <use xlink:href="#b" width="100%" height="100%" x="145" y="41"/>
    <use xlink:href="#b" width="100%" height="100%" x="143" y="83"/>
    <use xlink:href="#b" width="100%" height="100%" x="145" y="123"/>
    <use xlink:href="#b" width="100%" height="100%" x="145" y="164"/>
    <use xlink:href="#b" width="100%" height="100%" x="145" y="205"/>
    <g fill="#ffc6b5" stroke="#000">
      <path fill="#ffc72c" d="M916 406s5 14 12 5c7-8 4-11 4-11l-14-8-5 9 3 5z"/>
      <path d="M928 405l2-2c1-1-2-2-3-3l-1 2zm-33-4l-12 7s-7 1-7 0c-1-1 0-2 3-2 4-1 13-9 13-9l3 4zm1-228v5c0 1-2 5-3 4l-1 2 2 1v3c1 1-2 5 0 6l7 2c2 0 0 6 0 6l-4 10 24-3-5-8s-2-2-2-6v-25l-17-3-1 6zm-5 36s-8 4-7 14l-4 19-12 14-9 14c-1 2-7 9-7 11 0 3-2 14 5 15 1 1 6-13 6-13s1-6-1-7 4-5 4-5l13-9 8-9 4-44z"/>
      <path fill="#fff" d="M900 202s2 5 7 4 10-5 10-5l5 1s11 11 11 14c0 4-5 3-7 5s-4 8-4 12c1 4 4 9 3 11l-2 4 2 5-2 7v36l2 3 11 47-2 2 4 9 6 20-2 8s4 10 3 11c0 2-7 2-7 2l-2-1-1 3-10-1s-3 4-5 4c-1 0-3-3-4-2 0 0 2 3 1 4 0 0-8 2-10-2-2-3 1-2 0-3l-5-3c-1 1 3 2 3 4l-5 4c-1 0-4-6-9-6l-7 2-7 2-4-3 2-7-2-4 4-9v-29s-3 0-4-2l6-49 3-13s-2 2-2 0l7-26 1-16-1-8s-6-2-6-7c-1-6 6-10 7-12l3-9s3-6 9-7z"/>
      <path fill="#ffc72c" d="M898 403l-18 9c-2 0-3-3-1-4l5-1-4-4 7-3 3 4a31 31 0 006-3l2 2z"/>
      <path d="M919 407c2 2 2 5 6 4 3-2-2-6-2-6zM926 407s1 1 3 0c1-1-3-4-3-4l-2 2zm6-190l6 20c1 4 3 19 2 22l-10 15-6 13-2 11 1 4c0 1-5 5-7 5-2-1-5-3-5-5s0-9 2-11l9-20c1-1 7-15 7-18 0-2-2-7-4-9-5-15-3-24 7-27z"/>
      <path fill="#9c5100" d="M895 172h6c2-1 4-2 5 0l3 2s-2 6 0 7l4 1-2 3 2 3-1 4 3 3c1 0 0 4 3 3s3-3 3-3 3-1 4-4c0-2 2-3 2-3s4-2-1-5c0-22-15-20-15-20s-1-4-4-3c-3 0-3 3-5 3s-3-2-3-2l-2 5s-5-1-5 3c1 4 3 4 3 3z"/>
      <g fill="none">
        <path d="M921 208s-14 9-14 12m17-10l-3 3m7 0s-7 6-6 10m-27-16l-1 6c0 1 4 7 4 10v6m-6-14l1 6 4 7m-7 8s4 2 8-6m6-5s-3 7 2 10c6 3 9 3 12 2l4-2m-20-1s1 11 16 21m-15-11s0 9 6 13m-9-24s-5 14-9 15m7-5l-1 14m-1 2s3 4 6 4c4-1 5-5 8-4 2 0 4 2 10 2m-8 4s0 8 1 9c2 1 1 8 1 8m-22-21l-1 10c-1 3-3 8-2 12m-6 4l3-3m2 2s-7 29-5 47m6-45s-3 21-2 26m1-27l13 1m2-2s3 2 8 2m-10 9l-1 46m21-38s4 33 6 36m-14-31s2 29 4 31m-40 10s5-1 9-6c5 7 13 0 13 0s12 8 17-1c9 6 13-1 13-1s3 5 5 5m-13 3s6 29 15 37M889 348l2 41m-3-14l-2 17m-7 2s1 7 10 0c9-6 9 3 9 3 0 1 2 8 5 3m7-10s-1 14 11 4c13-10 15 0 15 3m-26-230s-1 7 7 6c-1 4 2 5 2 5m5 5s3 2 0 4m-11 1s2 2 4 2c1-1 4 1 4 1l3 1m-20 2s5 2 9-6m-19-3h3m-38 100v7m-7-8s5 8 4 12"/>
        <path stroke-linejoin="round" d="M894 188h3l-2 1m17 111s3 0 3 5c2-7 6-7 6-7"/>
        <path stroke-linejoin="round" stroke-width="2" d="M898 179h0z"/>
      </g>
    </g>
    <g fill="none" stroke="#000" stroke-width="2">
      <path fill="#ffc72c" d="M900 459a160 160 0 00110-51c-1 0 9-13 16-12 8 2 18 24 31 29 7 10-2 19-4 21-3 2-16 7-17 0-2-8-6-6-6-6s-60 58-128 55c-71 1-130-55-130-55l-5 5s-6 6-8 6c-3-1-15-9-16-17-1-7 7-13 7-13s21-15 23-24c5-4 14 4 14 4s53 61 113 58z"/>
      <path d="M749 423s5-2 7 1l16 16"/>
      <path d="M762 429l-6 4s14 3 11 12m285-23s-2-1-7 2l-15 15"/>
      <path d="M1040 429l6 4s-13 1-10 13"/>
    </g>
    <path d="M820 437l-2 1-6 2-19 11v-2l5-23v-4c-1 0 0-1 0 0l10 7h-2c-1-2-3 0-3 1l-3 15 13-7c1-1 2-3 1-4l-1-1 7 4zm6 32l-1 1-11-6 1-1h4l4-7 5-10c1-2 0-3-1-4h-1 2l10 6h-4l-4 7-6 11c-1 1 0 2 2 3zm43-10l-3 9-1-3a10 10 0 00-7-8c-3-1-6 1-8 3a23 23 0 00-4 12 7 7 0 003 7 10 10 0 006 1l2-6-2-3h1l11 4h-3l-2 4-1 3c-5 1-10 0-15-3-4-2-7-8-6-13 1-4 4-8 7-10 4-2 8-2 12 0l6 3c1 2 2 2 3 0h1m18 29l-1 1-12-2v-1l3-1 1-5 2-15c1-1 0-2-1-2l-2-1h1l13 2h-1l-3 1-1 5-2 15c-1 1 0 2 1 3h2zm34-8v9l-23 1v-1l3-1v-7l-1-14-2-2h0l12-1v1l-3 1v20c0 1 1 2 3 2h5c3-1 4-4 5-6l1-2m18-22l-1 1-3 23-2 4v1l8-2c0-2-2 0-3-1-1 0-2-2-1-3v-3l9-2 3 4c1 1-1 2-2 2v1l11-4-2-1-5-5-13-15zm0 9l6 8-8 2 2-10zm38-26l3 6c-1 1-1-1-2-1a5 5 0 00-6 0l-2 1 10 18c1 1 3 2 4 1h1l-5 3-7 3 1-1a2 2 0 001-3l-10-18c-2 1-4 1-4 4v4c-1 1-1 0-1-1l-3-5 20-11zm15-9l7 9 2-5c0-1-2-3-1-4l1 1 7 10c-1 1-2-1-3-2h-4c-2 0-1 1-1 2l5 6c1 1 3 0 4-1 2-1 4-4 4-7l-1-4 1 1 4 6-18 13 1-1v-4l-12-15h-4c0 1-1 0 0 0l17-13 4 6c-1 1-2-1-3-1-2-1-5 0-7 1l-3 2"/>
  </g>
</svg>
