<svg xmlns="http://www.w3.org/2000/svg" xmlns:xlink="http://www.w3.org/1999/xlink" id="flag-icons-vi" viewBox="0 0 640 480">
  <path fill="#fff" d="M0 0h640v480H0z"/>
  <path fill="#369443" stroke="#010002" stroke-miterlimit="10" stroke-width="2" d="M204 315s0-4 7-6c6-3 7-12 5-19 0 0-3 6-7 8 0 0-7 4-8 11v4c0 1-3-8 2-16 6-7 8-13 3-25 0 0 0 7-5 12-5 4-5 4-5 14 0 0 0 3-2 4l-4-9c-1-3-2-5 2-9 0 0 14-8 4-27 0 0 0 6-5 10-4 4-4 6-4 13l-1 7s-9-15-2-24c6-8 10-10 3-25 0 0 0 8-6 12s-4 13-4 13l-1 6s-8-16 0-25c6-7 7-12 3-22 0 0 0 5-4 7-4 3-7 5-6 15v9l-5-10c-1-5-1-7 1-11s13-16 1-33c0 0 0 6-3 11s-2 10-1 15l-2 9s-5-10-4-21-3-20-13-26c0 0-8 17 2 26 0 0 9 8 11 18 0 0-7 0-12-12-6-11-18-9-19-9 0 0 2 17 20 22 0 0 12 2 15 11l2 9s-3-1-7-7c-3-4-3-5-15-6 0 0-4-1-7-4 0 0 5 18 18 18 0 0 11-1 18 14l-3-2c-2-1-6-3-15-2s-11-1-13-1c0 0 9 16 21 11s18 12 18 13l-4-4c-2-2-6-4-15-2 0 0-6 3-12 1 0 0 6 11 20 9a15 15 0 0117 10l-3-2c-1-1-6-3-16 0s-13-1-13-1 5 10 16 11l8-1c3-1 9-2 14 5l-3-1s-7-3-13 2c0 0-4 5-11 4 0 0 9 8 23 1 0 0 4-3 8-1 3 3 11-2 11-2z"/>
  <g fill="#f4c53d" stroke="#010002" stroke-miterlimit="10" stroke-width="2">
    <path d="M282 104s-1-15 10-16a38 38 0 0118 1l6 11-2 7-8 3s2-11-8-11h-9c-5-1-6 4-7 5z"/>
    <path d="M364 140c-2 2-9 3-9 3s7 5 10 13-82 0-82 0 4-3 6-8c0 0-4 2-7-2 0 0 2 1 6-5l9-9s-1 2-6-1c0 0 8-1 10-13l4-7c2-4 2 1 7-6 0 0 2-4 0-7s-4-2-8-4c-5-3-7-4-5-8s5-4 6-4 1-3 5-5 18-2 20-1 9 4 14 15c4 11-2 15 10 32h-8s7 11 18 17z"/>
    <path fill="none" d="M311 92c-10 0-6-10-6-10"/>
    <path d="M328 94l-3-3c-2-3-7-4-9-2 0 0-3 3-5 3l4 3 6 2c3 0 3-2 5-2l2-1z"/>
  </g>
  <path fill="#369443" stroke="#010002" stroke-miterlimit="10" stroke-width="2" d="M203 337s0-7 8-7l23 32s-1 2-11 2l-2 1c-1 2-18-29-18-29z"/>
  <g id="a" fill="#f4c53d" stroke="#010002" stroke-width="10" transform="translate(4 26) scale(.15055)">
    <path d="M1495 1808s-50 86-110 87c0 0-104-13-133 14-21 19-42 35-50 83-9 49 16 59 22 61 0 0 5 35 39 26 0 0 2 36 62 18 60-17 85-12 97-72s23-59 34-66c14-10 41-19 61-30 18-11 87-46 111-49 24-2 18-82 18-82h-61l-29-43-61 53zm192-429s-61 49-112 0c0 0-21 24-62 17s-48-29-52-41c0 0-36 20-66 4s-30-41-30-41-53 10-80-26c-27-35-10-70 4-74 0 0-56 14-72-34a56 56 0 0117-63s-120-1-169-38c0 0-41-26-16-53 0 0-108-17-135-60 0 0-11-11-8-32 0 0 1-12 13-12 0 0-123-19-158-60 0 0-17-18-9-43 0 0 2-7 5-11 0 0-111-24-166-74 0 0-32-28-16-66 0 0-186-51-143-133 0 0-87-28-60-107 0 0-72-37-40-95 30-55 122 10 232 40 0 0 296 94 442 118l414 618 242 93 25 172z"/>
    <path d="M1690 924s-39-29-108 5c0 0-24 16-42-1a37 37 0 014-58c52-38 71-153-8-201 1 0-113-67-532-174 0 0-35-10-54-5a52 52 0 00-37 38s-19 53 44 84c0 0 28 13 58 21 0 0-32-7-46 25-13 30 6 61 65 81l38 12s-50 15-26 55c0 0 22 43 98 51 0 0-57 6-17 60 0 0 18 30 74 41 0 0-42 1-21 39s71 59 121 63c0 0 26 1 45-3 0 0-47 24-19 63 0 0 20 28 71 27 0 0-13 44 24 60 29 13 53-8 53-8s-10 47 33 64c0 0 21 11 52 0 0 0 24 54 110 16 85-38 20-355 20-355zm5 489s-13 68-112 152c0 1-77 68-75 146 2 80-14 89-44 116 0 0 62 4 92-37 1 0-1 69-10 75 0 0 20 1 48-29 0 0 17-18 33-25 0 0-19 47-4 91 0 1 4-17 29-24 0 0 44-9 61-73 0 0 11-42 80-79 0 0 78-30 76-68-2-39-174-245-174-245z"/>
    <path stroke-miterlimit="10" d="M2057 2282s-18 79-80 73c0 0-44-5-41-78 0 0-65 35-75-51 0 0-59 14-59-66 0 0-55 10-48-62 0 0-60 16-60-51 0 0-140-23 151-288l260 154-48 369z"/>
    <path d="M2085 1928s-43 39-74-19c0 0-42-2-48-34 0 1-34-3-41-35 0 0-46-5-45-45 0 1-85-6 0-102s228 159 228 159l-20 76zm49-24c42 1 89 263 77 420-5 58-35 105-77 105s-73-47-77-105c-13-157 35-419 77-419"/>
    <ellipse cx="2134" cy="1903" rx="58" ry="86"/>
    <path fill="none" stroke-miterlimit="10" d="M1936 2277s7-138 127-337m-202 286s-19-80 150-317c0 0-19-56 41-92m-250 343s-5-87 161-284c0 0-15-51 45-92m-254 315s6-88 168-259c0 0-8-53 50-85m-278 292s12-100 183-252c0 0-6-39 51-79"/>
    <path fill="none" d="M372 432s135 78 553 156m-493-49s364 119 533 133m-390 0s214 67 463 110m-281 30s241 58 356 67m-194 47s204 42 256 47m-126 58s149 22 208 21m-23 69s60-3 89-8m-34 105s51-14 82-33m-6 133s39-15 58-57m38 94s30-28 32-58m82 82s-12-10-4-53m-11-63s-6-12-4-32m-211-581s69 28 92 66 8 75 0 96c-4 10-53 104 4 172m-95 73l25-8m-170-91s41 8 81 8m-138-110s48 5 94 5m-166-110s70 14 107 14m-164-132s85 24 149 33m142 51s-62 57 12 110c0 0-31 48 31 99m-16 24s-10 92 103 92c0 0-22 82 87 79 0 0 13 66 91 53m-173 721s-18 4-56 0m-109 48s-54-8-52 110m85-83s-49-6-46 109m520-385s-23 5-40 24c-16 18-47 15-47 15s17-14 23-49c5-34 25-45 25-45m-57-32s-23 5-40 23c-16 19-48 15-48 15s17-13 23-48c6-34 25-45 25-45m24 189s-21 4-35 20c-14 17-42 14-42 14s15-12 20-43c5-30 22-39 22-39"/>
  </g>
  <use xlink:href="#a" width="100%" height="100%" stroke="#010002" stroke-width="10" transform="matrix(-1 0 0 1 647 0)"/>
  <path fill="#0081c6" stroke="#010002" stroke-miterlimit="10" stroke-width="2" d="M466 256l-14 62-6-5 14-59-10 1 23-43 2 49zm37 13l-43 51-5-5 43-51-9-4 40-26-21 44z"/>
  <path fill="#0081c6" stroke="#010002" stroke-miterlimit="10" stroke-width="2" d="M493 242l-39 74-6-3 39-74-9-3 32-34-10 47zm-48 97l-3 11 8 8-11 47-10-13-15 7 11-47 10-3 3-12s3-1 7 2z"/>
  <path fill="#0081c6" stroke="#010002" stroke-miterlimit="10" stroke-width="2" d="M447 331l-5 10 5 10-22 43-6-16-16 3 22-43h11l5-10s4 0 6 3z"/>
  <path fill="#0081c6" stroke="#010002" stroke-miterlimit="10" stroke-width="2" d="M448 334l-15 19 4 11-31 36-3-17-16-1 31-36 10 3 16-21s4 2 4 6zM66 289c3-2 6-3 6-7l-2-6-24-74a59 59 0 00-3-8c-1-2-3-3-6-4h31c-4 2-7 3-7 6l1 6 19 58 19-58a20 20 0 001-6c0-3-4-5-7-6h30c-3 1-5 2-6 4a63 63 0 00-3 8l-24 74a38 38 0 00-2 6s-1 5 6 7H67zm515-8v-83l-1-4c0-1-2-3-5-4h27a12 12 0 00-5 4l-1 4v83l1 4 5 4h-27l5-4 1-4z"/>
  <path fill="#fff" stroke="#010002" stroke-width="2" d="M325 310s74-33 74-109H251c0 76 74 109 74 109z"/>
  <path fill="#a60032" stroke="#010002" stroke-width="2" d="M262 201v49s6 11 11 18v-67h-11zm23 0v80l11 10v-90h-11zm23 0v99l11 7V201h-11zm80 0v49s-6 11-12 18v-67h12zm-23 0v80l-12 10v-90h12zm-23 0v99l-11 7V201h11z"/>
  <path fill="#162667" stroke="#010002" stroke-miterlimit="10" stroke-width="2" d="M399 146s-36 19-74-2c-38 21-74 2-74 2v55h148v-55z"/>
</svg>
