<svg xmlns="http://www.w3.org/2000/svg" id="flag-icons-ws" viewBox="0 0 640 480">
  <g fill-rule="evenodd">
    <path fill="#ce1126" d="M0 0h640v480H0z"/>
    <path fill="#002b7f" d="M0 0h320v240H0z"/>
    <path fill="#fff" d="M180 229l-21-14-20 14 7-24-19-16 24-1 9-24 8 24 24 1-19 16zm-4-165l-16-11-16 10 4-20-14-12 19-2 7-19 8 19 19 2-15 13zm-73 59l-16-11-16 11 5-19-15-13 19-1 7-19 7 19 19 1-15 13zm147-13l-15-10-15 10 4-18-14-12 18-2 7-17 7 18 17 1-13 12zm-43 43l-10-6-11 7 3-13-9-8 12-1 4-12 5 12 12 1-9 8z"/>
  </g>
</svg>
