<svg xmlns="http://www.w3.org/2000/svg" id="flag-icons-za" viewBox="0 0 640 480">
  <defs>
    <clipPath id="a">
      <path d="M-72 0h683v512H-72z"/>
    </clipPath>
  </defs>
  <g clip-path="url(#a)" transform="translate(67) scale(.93748)">
    <g fill-rule="evenodd">
      <path d="M-72 408V104l226 152-226 152z"/>
      <path fill="#000c8a" d="M82 512l254-170h360v170H82z"/>
      <path fill="#e1392d" d="M66 0h630v171H336S69-2 66 0z"/>
      <path fill="#ffb915" d="M-72 64v40l226 152-226 152v40l285-192L-72 64z"/>
      <path fill="#007847" d="M-72 64V0h95l301 204h372v104H324L23 512h-95v-64l285-192L-73 64z"/>
      <path fill="#fff" d="M23 0h59l254 171h360v33H324L23 0zm0 512h59l254-170h360v-34H324L23 512z"/>
    </g>
  </g>
</svg>
