<svg xmlns="http://www.w3.org/2000/svg" id="flag-icons-zm" viewBox="0 0 640 480">
  <defs>
    <clipPath id="a">
      <path d="M-171 0h683v512h-683z"/>
    </clipPath>
  </defs>
  <g fill-rule="evenodd" clip-path="url(#a)" transform="translate(160) scale(.9375)">
    <path fill="#198a00" d="M-256 0h768v512h-768z"/>
    <path fill="#ef7d00" d="M422 184h90v328h-90z"/>
    <path d="M332 184h90v328h-90z"/>
    <path fill="#de2010" d="M240 184h92v328h-92z"/>
    <g fill="#ef7d00" stroke="#000">
      <path stroke-linejoin="round" d="M452 66s34-15 37-18c1 2-14 20-43 27 27-6 49-26 54-26 1 1 1 20-60 36 42-11 67-31 66-29 1 0-4 16-41 28 11-2 39-19 38-16 1 1-27 37-77 26 40 10 66-15 70-15 1 0-8 22-58 24 24-3 17-1 17-1s-14 12-32 4l16 5c-1 2-12 4-23-2 8 4 16 4 16 6 0 0-5 3-10 1l-51-30 78-22 3 1zm-91 75c-7 0-7 6-7 6l-1 4 2-3c1 0 4 1 9-3-5 5-2 7-2 7s-1 3 3 4l-1-3s5 0 5-6c0 5 3 6 3 6s0 3 3 4l-2-4s4-3 1-8l4-5-4-2v-8l-2-10-5 15c0-2 0 6-6 6z"/>
      <path stroke-linejoin="round" d="M394 120s5 6 10 6c2-2-4-5-4-6 2 2 10 9 16 6 2-3-4-2-10-10 4 3 15 9 21 7 2-3-12-10-17-16l-12-6-16 13 12 6z"/>
      <path stroke-linecap="round" stroke-linejoin="round" d="M376 75s5-3 27-2c3 1 16-4 20-5 6-2 27-6 32-10 4-1-1 7-6 9s-24 9-31 8c8 0 4 6-10 3 7 4 4 4 4 4s-11 1-14-1c8 2 4 4 4 4s-7 0-11-1c6 1 3 2 3 2s-5 1-8 0c-4-2-10-11-10-11z"/>
      <path stroke-linejoin="round" d="M385 123v16c-1 1-11-1-9 6 0 3 0 4 2 6l-1-4c1 0 3 2 6-3-2 5 0 7 0 7 0 1-1 4 3 4l-1-3s4-1 3-8h2s0 4 4 3c1 1-1 4-1 4s3 0 4-2c0-3 1-6-3-8l2-2 3 3c1 2 1-4-3-4l-4-1-1-14h-6z"/>
      <path stroke-linecap="round" stroke-linejoin="round" d="M399 136c0-1-7-10-5-11 1 0 4 4 7 3-1-2-3-1-6-5-2-5-2-12-11-20 6 9 18 13 18 11s-10-11-10-14c2 5 14 15 22 14 0-2-7-6-9-9-5-4-19-16-19-19a33 33 0 00-10-11 5 5 0 01-1-1c-3-8 1-10 3-11h4l-5-2c3 1 8 0 7 5 3-1 8-8-6-9-5-5-23-8-28 15l2 1c-6-3-22-5-28-6-15-4-31-15-33-14s9 12 9 12a263 263 0 00-28-14l-12-6c-2 4 9 16 12 17l19 10-32-16c-2 0-8-8-9-7s1 12 13 18l26 11-29-12c-5-2-12-10-13-9s3 9 8 11a1541 1541 0 01-3 0c-4-2-5-5-6-5-1 1 1 13 30 19l9-1a113 113 0 01-16 2c0 1 2 5 17 5l11-3a174 174 0 01-15 5l-6 1s4 3 12 4c7 0 20-4 20-4l-13 5-6 1s7 7 27 0c-2 3-12 5-12 5 0 1 3 3 6 3h6c4 0 8-2 14-7 0 2-13 9-13 9 3 3 13 0 14 0l19-12-24 15c2 2 10 0 10-1l11-5s-12 7-11 8c0 5 19-3 21-4 1-1-10 4-10 6 4 6 14 4 16 3l-1 4a16 16 0 003-5l-2 7-1 9c-1 2 6-3 5-13 1 5-2 15-1 16s5-5 5-9l6 7-1-6 1-16c5 11 8 15 6 24 2 0 4-6 4-9a13 13 0 0012 10z"/>
      <path stroke-linecap="round" stroke-linejoin="round" d="M305 68s-4 3-8 2c1 5 11 2 11 2s-5 5-8 6h12l4-4-10 10c-1 1 9 1 11-1l7-5-14 9c5 2 15-1 21-5l-15 9c4 1 6 4 20-2 8-4 13-11 13-11a82 82 0 01-22 18c0 1 10 5 22-8"/>
      <path stroke-linecap="round" d="M373 96s1 4 5 7 3 6 3 6m-9-39s1 4 4 6c4 2 9 9 10 11l2 14m-38-25c0 1-5 8 2 16l-6 9s4 2 10-4c11 14 7 20 7 20"/>
      <path stroke-linecap="round" stroke-linejoin="round" d="M362 107s-1-1 1-6l4 3c1 0 9 2 10 7"/>
      <path d="M372 58c0-1-2-4-8 0 3 0 7 2 8-1z"/>
      <path stroke-linejoin="round" d="M430 74s18 4 24 2c-7 10-23 3-23 3l11 4c0 2-14 1-19-2 13 5 14 4 14 6 1 2-22-1-24-4 6 5 10 6 13 8-4 2-12 4-25-6 18 16 34 15 37 18-7 9-31-5-42-13s24 18 28 18c-2 2-14 0-15-1"/>
      <path stroke-linecap="round" d="M435 91h-10"/>
      <path stroke-linecap="round" stroke-linejoin="round" d="M300 65s14 7 20 7a10 10 0 01-4 2c1 0 5 2 11 1l-3 3s5 2 11-1a46 46 0 00-3 4h4"/>
    </g>
  </g>
</svg>
