<svg xmlns="http://www.w3.org/2000/svg" viewBox="0 0 137.75 25.82"><defs><style>.cls-1{fill:#1d1d1b;}.cls-2{fill:#aaa;}</style></defs><title>Element 60</title><g id="Ebene_2" data-name="Ebene 2"><g id="Ebene_3" data-name="Ebene 3"><path class="cls-1" d="M17,15.06c0,3.66-2.51,5.91-6.5,5.91H0V0H10c3.69,0,6.32,2,6.32,5.4A4.54,4.54,0,0,1,13.05,10C15.62,10.75,17,12.43,17,15.06ZM4.13,8.45H9c2.12,0,3.3-1,3.3-2.72S11.19,3.19,9,3.19H4.13Zm4.94,9.33c2.51,0,3.83-1.13,3.83-3s-1.35-3.08-3.83-3.08H4.13v6.12Z"/><rect class="cls-1" x="19.72" width="3.84" height="3.84"/><rect class="cls-1" x="19.72" y="5.88" width="3.84" height="15.09"/><path class="cls-1" d="M35.68,20.76a10.49,10.49,0,0,1-3.4.56c-3,0-4.28-1.39-4.28-4.25V8.8H25.31V5.88H28V1.21h3.84V5.88h3.6V8.8h-3.6v7.8c0,1,.44,1.38,1.51,1.38a8.63,8.63,0,0,0,1.89-.26Z"/><path class="cls-1" d="M55.09,15.06c0,3.66-2.51,5.91-6.5,5.91H38.05V0H48c3.69,0,6.32,2,6.32,5.4A4.54,4.54,0,0,1,51.1,10C53.67,10.75,55.09,12.43,55.09,15.06ZM42.19,8.45H47c2.12,0,3.31-1,3.31-2.72s-1.1-2.54-3.28-2.54H42.19Zm4.93,9.33c2.51,0,3.84-1.13,3.84-3s-1.36-3.08-3.84-3.08H42.19v6.12Z"/><path class="cls-1" d="M72.58,13.41c0,4.78-3.27,8-7.82,8s-7.86-3.25-7.86-8,3.28-8,7.86-8S72.58,8.62,72.58,13.41Zm-11.78,0c0,2.92,1.57,4.78,4,4.78s3.93-1.86,3.93-4.78-1.57-4.79-3.93-4.79S60.8,10.54,60.8,13.41Z"/><path class="cls-1" d="M83.57,21l-3.4-5.17L76.75,21H72.61l5.44-7.92L73.11,5.88h4.17l3,4.43,2.9-4.43h4.13l-4.87,7L87.79,21Z"/><path class="cls-2" d="M103.51,16.23H95.06L93.33,21H90.86L97.69,2.17h3.21L107.76,21h-2.53Zm-.72-2.07-.88-2.48C100.61,8.1,99.73,5.52,99.25,4c-.29,1-.63,2.08-1.09,3.38l-1,2.76-.56,1.57-.88,2.45Z"/><path class="cls-2" d="M122.54,14.47c0,4.12-2.42,6.91-5.76,6.91a4.88,4.88,0,0,1-4.34-2.07v6.51h-2.28V8h2.15V10a4.83,4.83,0,0,1,4.47-2.39C120.12,7.62,122.54,10.41,122.54,14.47Zm-2.34,0c0-3-1.46-4.91-3.77-4.91s-4.07,1.86-4.07,4.91,1.65,5,4.07,5C118.69,19.42,120.2,17.45,120.2,14.47Z"/><path class="cls-2" d="M137.75,14.47c0,4.12-2.42,6.91-5.77,6.91a4.87,4.87,0,0,1-4.33-2.07v6.51h-2.29V8h2.16V10A4.81,4.81,0,0,1,132,7.62C135.33,7.62,137.75,10.41,137.75,14.47Zm-2.34,0c0-3-1.46-4.91-3.77-4.91s-4.07,1.86-4.07,4.91,1.65,5,4.07,5C133.89,19.42,135.41,17.45,135.41,14.47Z"/></g></g></svg>