<svg xmlns="http://www.w3.org/2000/svg" viewBox="0 0 143.74 26.7"><defs><style>.cls-1{fill:#fff;}</style></defs><title>Element 223</title><g id="Ebene_2" data-name="Ebene 2"><g id="Ebene_3" data-name="Ebene 3"><path class="cls-1" d="M105.31,15.87H95.77l-2,5.43H91L98.74,0h3.63l7.74,21.3h-2.85Zm-.81-2.34-1-2.79c-1.47-4-2.46-7-3-8.67-.33,1.08-.72,2.34-1.23,3.81L98.2,9l-.63,1.77-1,2.76Z"/><path class="cls-1" d="M126.58,13.89c0,4.65-2.73,7.8-6.51,7.8a5.5,5.5,0,0,1-4.89-2.34V26.7H112.6V6.54H115V8.85a5.46,5.46,0,0,1,5-2.7C123.85,6.15,126.58,9.3,126.58,13.89Zm-2.64,0c0-3.33-1.65-5.55-4.26-5.55s-4.59,2.1-4.59,5.55,1.86,5.58,4.59,5.58C122.23,19.47,123.94,17.25,123.94,13.89Z"/><path class="cls-1" d="M143.74,13.89c0,4.65-2.73,7.8-6.51,7.8a5.5,5.5,0,0,1-4.89-2.34V26.7h-2.58V6.54h2.43V8.85a5.46,5.46,0,0,1,5-2.7C141,6.15,143.74,9.3,143.74,13.89Zm-2.64,0c0-3.33-1.65-5.55-4.26-5.55s-4.59,2.1-4.59,5.55,1.86,5.58,4.59,5.58C139.39,19.47,141.1,17.25,141.1,13.89Z"/><path class="cls-1" d="M9.21,18.06c2.55,0,3.9-1.14,3.9-3.09s-1.38-3.12-3.9-3.12h-5v6.21Zm-5-9.48H9.12c2.16,0,3.36-1,3.36-2.76S11.37,3.24,9.15,3.24H4.2ZM17.31,15.3c0,3.72-2.55,6-6.6,6H0V0H10.14c3.75,0,6.42,2,6.42,5.49a4.62,4.62,0,0,1-3.3,4.62c2.61.81,4,2.52,4,5.19"/><rect class="cls-1" x="20.03" width="3.9" height="3.9"/><rect class="cls-1" x="20.03" y="5.97" width="3.9" height="15.33"/><path class="cls-1" d="M36.24,21.09a10.53,10.53,0,0,1-3.45.57c-3,0-4.35-1.41-4.35-4.32V8.94H25.71V6h2.73V1.23h3.9V6H36v3H32.34v7.92c0,1.05.45,1.41,1.53,1.41A8.37,8.37,0,0,0,35.79,18Z"/><path class="cls-1" d="M47.86,18.06c2.55,0,3.9-1.14,3.9-3.09s-1.38-3.12-3.9-3.12h-5v6.21Zm-5-9.48h4.92c2.16,0,3.36-1,3.36-2.76S50,3.24,47.8,3.24H42.85ZM56,15.3c0,3.72-2.55,6-6.6,6H38.65V0H48.79c3.75,0,6.42,2,6.42,5.49a4.62,4.62,0,0,1-3.3,4.62c2.61.81,4.05,2.52,4.05,5.19"/><path class="cls-1" d="M61.76,13.62c0,3,1.59,4.86,4,4.86s4-1.89,4-4.86-1.59-4.86-4-4.86-4,2-4,4.86m12,0c0,4.86-3.33,8.16-8,8.16s-8-3.3-8-8.16,3.33-8.16,8-8.16,8,3.3,8,8.16"/><polygon class="cls-1" points="84.89 21.3 81.44 16.05 77.96 21.3 73.76 21.3 79.28 13.26 74.27 5.97 78.5 5.97 81.5 10.47 84.44 5.97 88.63 5.97 83.69 13.11 89.17 21.3 84.89 21.3"/></g></g></svg>