<?xml version="1.0" encoding="UTF-8"?>
<svg enable-background="new 0 0 2500 2500" version="1.1" viewBox="0 0 2500 2500" xml:space="preserve" xmlns="http://www.w3.org/2000/svg">
<style type="text/css">
	.st0{fill:none;}
	.st1{fill:#213147;}
	.st2{fill:#12AAFF;}
	.st3{fill:#9DCCED;}
	.st4{fill:#FFFFFF;}
</style>

	
		<rect class="st0" width="2500" height="2500"/>
		
			
				<path class="st1" d="m226 760v980c0 63 33 120 88 152l849 490c54 31 121 31 175 0l849-490c54-31 88-89 88-152v-980c0-63-33-120-88-152l-849-490c-54-31-121-31-175 0l-849 490c-54 31-87 89-87 152h-1z"/>
				
					
						
							<path class="st2" d="m1435 1440-121 332c-3 9-3 19 0 29l208 571 241-139-289-793c-7-18-32-18-39 0z"/>
						
						
							<path class="st2" d="m1678 882c-7-18-32-18-39 0l-121 332c-3 9-3 19 0 29l341 935 241-139-422-1156v-1z"/>
						
					
				
				
					<path class="st3" d="m1250 155c6 0 12 2 17 5l918 530c11 6 17 18 17 30v1060c0 12-7 24-17 30l-918 530c-5 3-11 5-17 5s-12-2-17-5l-918-530c-11-6-17-18-17-30v-1061c0-12 7-24 17-30l918-530c5-3 11-5 17-5v1zm0-155c-33 0-65 8-95 25l-918 530c-59 34-95 96-95 164v1060c0 68 36 130 95 164l918 530c29 17 62 25 95 25s65-8 95-25l918-530c59-34 95-96 95-164v-1060c0-68-36-130-95-164l-919-530c-29-17-62-25-95-25h1z"/>
				
				<polygon class="st1" points="642 2179 727 1947 897 2088 738 2234"/>
				
					<path class="st4" d="m1172 644h-233c-17 0-33 11-39 27l-499 1368 241 139 550-1507c5-14-5-28-19-28l-1 1z"/>
					<path class="st4" d="m1580 644h-233c-17 0-33 11-39 27l-570 1562 241 139 620-1701c5-14-5-28-19-28v1z"/>
				
			
		
	

</svg>
