<svg width="1128" height="121" viewBox="0 0 1128 121" fill="none" xmlns="http://www.w3.org/2000/svg">
<path d="M73.7685 56.0894C87.7879 60.4168 96.2996 69.7373 96.2996 84.8831C96.2996 105.688 81.7796 118.171 59.5823 118.171H0V0H56.4112C76.6058 0 92.1272 10.4856 92.1272 30.458C92.1272 43.773 84.6168 52.4278 73.7685 56.0894ZM23.3656 17.9752V47.6011H50.7367C62.9202 47.6011 69.4292 41.7758 69.4292 32.2889C69.4292 22.8019 63.0871 17.9752 50.9036 17.9752H23.3656ZM51.2374 100.195C65.7574 100.195 72.934 93.7043 72.934 83.0523C72.934 72.5667 65.5906 65.7428 51.2374 65.7428H23.3656V100.195H51.2374Z" fill="white"/>
<path d="M132.953 0V20.3054H111.256V0H132.953ZM132.953 33.121V118.171H111.256V33.121H132.953Z" fill="white"/>
<path d="M201.404 99.8624L203.908 117.006C196.397 119.502 190.222 120.168 184.715 120.168C167.357 120.168 160.515 112.012 160.515 96.2008V49.5983H145.327V33.121H160.515V6.82394H182.211V33.121H202.573V49.5983H182.211V93.5378C182.211 99.5296 185.048 101.36 190.723 101.36C193.226 101.36 195.897 101.194 201.404 99.8624Z" fill="white"/>
<path d="M292.984 56.0894C307.003 60.4168 315.515 69.7373 315.515 84.8831C315.515 105.688 300.995 118.171 278.798 118.171H219.215V0H275.627C295.821 0 311.343 10.4856 311.343 30.458C311.343 43.773 303.832 52.4278 292.984 56.0894ZM242.581 17.9752V47.6011H269.952C282.136 47.6011 288.645 41.7758 288.645 32.2889C288.645 22.8019 282.303 17.9752 270.119 17.9752H242.581ZM270.453 100.195C284.973 100.195 292.149 93.7043 292.149 83.0523C292.149 72.5667 284.806 65.7428 270.453 65.7428H242.581V100.195H270.453Z" fill="white"/>
<path d="M371.831 30.2916C397.7 30.2916 416.059 48.5997 416.059 75.5626C416.059 102.525 397.7 120.834 371.831 120.834C345.795 120.834 327.436 102.525 327.436 75.5626C327.436 48.5997 345.795 30.2916 371.831 30.2916ZM371.831 48.5997C358.312 48.5997 349.467 59.2517 349.467 75.5626C349.467 92.0399 358.312 102.525 371.831 102.525C385.183 102.525 394.028 92.0399 394.028 75.5626C394.028 59.2517 385.183 48.5997 371.831 48.5997Z" fill="white"/>
<path d="M503.577 118.171H479.71L460.517 89.044L441.157 118.171H417.792L448.501 73.5653L420.629 33.121H444.161L460.851 58.0867L477.207 33.121H500.573L473.035 72.7331L503.577 118.171Z" fill="white"/>
<path d="M553.931 2.33011C570.12 2.33011 581.803 10.3191 588.479 23.3012C593.82 33.6204 596.49 46.9353 596.49 61.5818C596.49 76.2283 593.82 89.5433 588.479 99.8624C581.803 112.845 570.12 120.834 553.931 120.834C537.742 120.834 526.059 112.845 519.384 99.8624C514.043 89.5433 511.373 76.2283 511.373 61.5818C511.373 46.9353 514.043 33.6204 519.384 23.3012C526.059 10.3191 537.742 2.33011 553.931 2.33011ZM553.931 14.9794C544.084 14.9794 536.908 20.1389 532.402 29.6259C528.396 37.7813 526.393 48.9326 526.393 61.5818C526.393 74.2311 528.396 85.3824 532.402 93.5378C536.908 103.025 544.084 108.184 553.931 108.184C563.778 108.184 570.955 103.025 575.461 93.5378C579.467 85.3824 581.469 74.2311 581.469 61.5818C581.469 48.9326 579.467 37.7813 575.461 29.6259C570.955 20.1389 563.778 14.9794 553.931 14.9794Z" fill="white"/>
<path d="M625.329 105.688H691.421V118.171H610.309V112.678C610.309 87.7125 625.997 78.0591 644.356 66.7414C660.044 57.088 676.233 51.5956 676.233 34.7854C676.233 21.6369 665.885 14.9794 654.203 14.9794C640.684 14.9794 632.506 21.4704 621.324 35.2847L610.476 27.6286C621.491 11.9835 634.509 2.33011 653.869 2.33011C676.734 2.33011 691.087 16.3109 691.087 34.2861C691.087 58.2531 671.727 65.5763 653.034 77.0605C638.514 85.8817 627.165 91.707 625.329 105.688Z" fill="white"/>
<path d="M825.139 0H847.837V118.171H822.969L792.928 70.2366C784.75 57.088 776.405 43.9395 769.562 31.4567C770.23 45.271 770.564 60.5832 770.564 77.3934V118.171H747.866V0H773.234L805.112 50.9298C812.288 62.5805 819.632 74.0646 825.974 85.5488C825.306 73.066 825.139 59.0853 825.139 42.9409V0Z" fill="white"/>
<path d="M909.609 30.2916C935.478 30.2916 953.836 48.5997 953.836 75.5626C953.836 102.525 935.478 120.834 909.609 120.834C883.573 120.834 865.214 102.525 865.214 75.5626C865.214 48.5997 883.573 30.2916 909.609 30.2916ZM909.609 48.5997C896.09 48.5997 887.244 59.2517 887.244 75.5626C887.244 92.0399 896.09 102.525 909.609 102.525C922.96 102.525 931.806 92.0399 931.806 75.5626C931.806 59.2517 922.96 48.5997 909.609 48.5997Z" fill="white"/>
<path d="M1021.08 33.121H1043.61L1014.57 118.171H988.203L959.33 33.121H982.195L990.706 60.9161C995.213 75.729 998.884 88.2118 1001.72 99.5296C1004.56 88.2118 1008.06 75.729 1012.57 60.9161L1021.08 33.121Z" fill="white"/>
<path d="M1090.95 30.2916C1115.48 30.2916 1128 42.7744 1128 60.7497V118.171H1108.47V109.349C1103.3 116.506 1094.12 121 1080.94 121C1064.75 121 1050.39 114.01 1050.39 96.7001C1050.39 77.0605 1067.92 70.2366 1087.28 66.7414L1107.3 63.0798V61.0825C1107.3 52.7607 1101.13 48.1004 1091.28 48.1004C1079.6 48.1004 1073.59 53.4264 1064.75 61.9147L1051.06 49.4319C1061.74 36.7827 1074.09 30.2916 1090.95 30.2916ZM1084.61 103.69C1095.62 103.69 1107.3 98.3645 1107.3 83.5516V78.5585L1092.95 81.5543C1080.1 84.2173 1071.59 87.2132 1071.59 95.2022C1071.59 100.528 1076.43 103.69 1084.61 103.69Z" fill="white"/>
</svg>