<svg id="Layer_1" data-name="Layer 1" xmlns="http://www.w3.org/2000/svg" viewBox="0 0 256.46 62.63"><defs><style>.cls-1{fill:#FFFFFF;}.cls-2{fill:#e11a27;}</style></defs><title>bitbox-logo</title><path class="cls-1" d="M49.77,44c0,10.7-7.33,17.26-19,17.26H0V0H29.16C39.94,0,47.62,5.78,47.62,15.79a13.28,13.28,0,0,1-9.49,13.28C45.63,31.4,49.77,36.32,49.77,44ZM12.08,24.67H26.22c6.21,0,9.67-3,9.67-7.93s-3.2-7.42-9.58-7.42H12.08Zm14.4,27.26c7.34,0,11.22-3.28,11.22-8.88s-4-9-11.22-9H12.08V51.93Z"/><rect class="cls-2" x="57.59" width="11.21" height="11.21"/><rect class="cls-1" x="57.59" y="17.17" width="11.21" height="44.08"/><path class="cls-1" d="M104.22,60.64a30,30,0,0,1-9.92,1.64c-8.71,0-12.5-4.05-12.5-12.42V25.71H74V17.17H81.8V3.54H93V17.17h10.53v8.54H93V48.48c0,3,1.29,4.05,4.4,4.05a23.92,23.92,0,0,0,5.52-.77Z"/><path class="cls-1" d="M160.93,44c0,10.7-7.33,17.26-19,17.26H111.16V0h29.16c10.78,0,18.45,5.78,18.45,15.79a13.27,13.27,0,0,1-9.48,13.28C156.79,31.4,160.93,36.32,160.93,44ZM123.24,24.67h14.14c6.21,0,9.66-3,9.66-7.93s-3.19-7.42-9.57-7.42H123.24Zm14.4,27.26c7.33,0,11.21-3.28,11.21-8.88s-4-9-11.21-9h-14.4V51.93Z"/><path class="cls-1" d="M212,39.16c0,14-9.58,23.47-22.86,23.47s-23-9.49-23-23.47,9.58-23.46,23-23.46S212,25.19,212,39.16Zm-34.42,0c0,8.54,4.57,14,11.56,14s11.47-5.44,11.47-14c0-8.36-4.57-14-11.47-14S177.62,30.8,177.62,39.16Z"/><path class="cls-1" d="M244.12,61.25l-9.92-15.1-10,15.1H212.12L228,38.13l-14.4-21h12.16l8.63,12.94,8.45-12.94h12.08L240.67,37.7l15.79,23.55Z"/></svg>
