<svg xmlns="http://www.w3.org/2000/svg" viewBox="0 0 155.89 21.78"><defs><style>.cls-1{fill:#191919;}</style></defs><title>Element 200</title><g id="Ebene_2" data-name="Ebene 2"><g id="Ebene_3" data-name="Ebene 3"><path class="cls-1" d="M109.33,15.33c0,3.69-2.58,6-6.54,6H93V0h9.42c3.72,0,6.21,1.92,6.21,5.4a4.65,4.65,0,0,1-3.3,4.65A5.21,5.21,0,0,1,109.33,15.33ZM95.74,9h6.06c2.55,0,4.08-1.29,4.08-3.48s-1.47-3.33-4.08-3.33H95.74Zm6.18,10c3,0,4.65-1.47,4.65-3.9s-1.71-3.93-4.62-3.93H95.74v7.83Z"/><path class="cls-1" d="M124.63,11V21.3h-2.34V19.5a5.75,5.75,0,0,1-5,2.28c-3.12,0-5.28-1.35-5.28-4.14a3.71,3.71,0,0,1,1.8-3.45,14.9,14.9,0,0,1,5.07-1.68l3.3-.6v-.75c0-1.83-1.38-2.91-3.45-2.91-1.83,0-3.06.69-4.86,2.49l-1.65-1.47a8,8,0,0,1,6.42-3.15C122.44,6.12,124.63,8.07,124.63,11Zm-2.46,4.74V13.83l-2.7.54c-3.36.69-4.8,1.17-5,3.18,0,1.35,1.11,2.1,3,2.1C120.19,19.65,122.17,18.15,122.17,15.78Z"/><path class="cls-1" d="M139.72,8.28,138.31,10a6.75,6.75,0,0,0-4.65-1.8c-1.95,0-3.24.9-3.24,2.19.18,1.32.81,1.47,4,2.19,4,.93,5.58,2,5.58,4.53,0,2.76-2.34,4.59-5.91,4.59A9.29,9.29,0,0,1,127.24,19l1.53-1.68c2.13,1.77,3.48,2.31,5.31,2.31s3.36-.9,3.36-2.34-1.26-1.95-4.14-2.58c-4.11-.93-5.28-1.65-5.37-4.17s2.34-4.38,5.73-4.38A8.77,8.77,0,0,1,139.72,8.28Z"/><path class="cls-1" d="M155.89,18.66c-2.13,2.25-3.93,3.06-6.45,3.06-4.47,0-7.29-3.09-7.29-7.71s2.79-7.89,7-7.89,6.66,2.7,6.66,7.11c0,.39,0,.78-.06,1.14H144.7c.15,3,1.77,5.19,4.77,5.19a5.06,5.06,0,0,0,2.4-.54,12.1,12.1,0,0,0,2.49-1.92Zm-11.1-6.21h8.52c-.12-2.61-1.62-4.26-4.14-4.26S145.18,9.72,144.79,12.45Z"/><path class="cls-1" d="M9.21,18.06c2.55,0,3.9-1.14,3.9-3.09s-1.38-3.12-3.9-3.12h-5v6.21Zm-5-9.48H9.12c2.16,0,3.36-1,3.36-2.76S11.37,3.24,9.15,3.24H4.2ZM17.31,15.3c0,3.72-2.55,6-6.6,6H0V0H10.14c3.75,0,6.42,2,6.42,5.49a4.62,4.62,0,0,1-3.3,4.62c2.61.81,4,2.52,4,5.19"/><rect class="cls-1" x="20.03" width="3.9" height="3.9"/><rect class="cls-1" x="20.03" y="5.97" width="3.9" height="15.33"/><path class="cls-1" d="M36.24,21.09a10.53,10.53,0,0,1-3.45.57c-3,0-4.35-1.41-4.35-4.32V8.94H25.71V6h2.73V1.23h3.9V6H36v3H32.34v7.92c0,1.05.45,1.41,1.53,1.41A8.37,8.37,0,0,0,35.79,18Z"/><path class="cls-1" d="M47.86,18.06c2.55,0,3.9-1.14,3.9-3.09s-1.38-3.12-3.9-3.12h-5v6.21Zm-5-9.48h4.92c2.16,0,3.36-1,3.36-2.76S50,3.24,47.8,3.24H42.85ZM56,15.3c0,3.72-2.55,6-6.6,6H38.65V0H48.79c3.75,0,6.42,2,6.42,5.49a4.62,4.62,0,0,1-3.3,4.62c2.61.81,4.05,2.52,4.05,5.19"/><path class="cls-1" d="M61.76,13.62c0,3,1.59,4.86,4,4.86s4-1.89,4-4.86-1.59-4.86-4-4.86-4,2-4,4.86m12,0c0,4.86-3.33,8.16-8,8.16s-8-3.3-8-8.16,3.33-8.16,8-8.16,8,3.3,8,8.16"/><polygon class="cls-1" points="84.89 21.3 81.44 16.05 77.96 21.3 73.76 21.3 79.28 13.26 74.27 5.97 78.5 5.97 81.5 10.47 84.44 5.97 88.63 5.97 83.69 13.11 89.17 21.3 84.89 21.3"/></g></g></svg>