<svg xmlns="http://www.w3.org/2000/svg" viewBox="0 0 123.53 21.81"><defs><style>.cls-1{fill:#fff;}</style></defs><title>Element 208</title><g id="Ebene_2" data-name="Ebene 2"><g id="Ebene_3" data-name="Ebene 3"><path class="cls-1" d="M105,4.23a15,15,0,0,1,1.44,6.9A15,15,0,0,1,105,18,7,7,0,0,1,92.6,18a15,15,0,0,1-1.44-6.9,15,15,0,0,1,1.44-6.9,7,7,0,0,1,12.42,0ZM94.94,5.37a13.15,13.15,0,0,0-1.08,5.76,13.15,13.15,0,0,0,1.08,5.76,4.16,4.16,0,0,0,7.74,0,13.15,13.15,0,0,0,1.08-5.76,13.15,13.15,0,0,0-1.08-5.76,4.16,4.16,0,0,0-7.74,0Z"/><path class="cls-1" d="M123.53,19.08v2.25H109v-1a7.39,7.39,0,0,1,2.79-6,30.59,30.59,0,0,1,3.33-2.28l1.5-.87c2-1.11,3-1.74,3.69-2.88a3.66,3.66,0,0,0,.54-2c0-2.28-1.71-3.57-4-3.57s-3.78,1-5.91,3.66L109,5c2.07-3,4.47-4.56,7.8-4.56,4,0,6.69,2.49,6.69,5.76a6,6,0,0,1-2.49,5A32.35,32.35,0,0,1,118,13.08l-1.41.84-.57.33c-2,1.2-2.94,1.83-3.69,2.91a4,4,0,0,0-.72,1.92Z"/><path class="cls-1" d="M9.21,18.06c2.55,0,3.9-1.14,3.9-3.09s-1.38-3.12-3.9-3.12h-5v6.21Zm-5-9.48H9.12c2.16,0,3.36-1,3.36-2.76S11.37,3.24,9.15,3.24H4.2ZM17.31,15.3c0,3.72-2.55,6-6.6,6H0V0H10.14c3.75,0,6.42,2,6.42,5.49a4.62,4.62,0,0,1-3.3,4.62c2.61.81,4,2.52,4,5.19"/><rect class="cls-1" x="20.03" width="3.9" height="3.9"/><rect class="cls-1" x="20.03" y="5.97" width="3.9" height="15.33"/><path class="cls-1" d="M36.24,21.09a10.53,10.53,0,0,1-3.45.57c-3,0-4.35-1.41-4.35-4.32V8.94H25.71V6h2.73V1.23h3.9V6H36v3H32.34v7.92c0,1.05.45,1.41,1.53,1.41A8.37,8.37,0,0,0,35.79,18Z"/><path class="cls-1" d="M47.86,18.06c2.55,0,3.9-1.14,3.9-3.09s-1.38-3.12-3.9-3.12h-5v6.21Zm-5-9.48h4.92c2.16,0,3.36-1,3.36-2.76S50,3.24,47.8,3.24H42.85ZM56,15.3c0,3.72-2.55,6-6.6,6H38.65V0H48.79c3.75,0,6.42,2,6.42,5.49a4.62,4.62,0,0,1-3.3,4.62c2.61.81,4.05,2.52,4.05,5.19"/><path class="cls-1" d="M61.76,13.62c0,3,1.59,4.86,4,4.86s4-1.89,4-4.86-1.59-4.86-4-4.86-4,2-4,4.86m12,0c0,4.86-3.33,8.16-8,8.16s-8-3.3-8-8.16,3.33-8.16,8-8.16,8,3.3,8,8.16"/><polygon class="cls-1" points="84.89 21.3 81.44 16.05 77.96 21.3 73.76 21.3 79.28 13.26 74.27 5.97 78.5 5.97 81.5 10.47 84.44 5.97 88.63 5.97 83.69 13.11 89.17 21.3 84.89 21.3"/></g></g></svg>