<svg
   xmlns="http://www.w3.org/2000/svg"
   width="32"
   height="32"
   viewBox="0 0 32 32">
  <g
     fill="none">
    <circle
       cx="16"
       cy="16"
       r="16"
       fill="#f4b731" />
    <path
       style="clip-rule:evenodd;fill:#ffffff;fill-rule:evenodd;stroke-width:0.05394046"
       d="m 9.872488,8.3784 h 6.13725 c 3.73313,0 6.562852,2.024227 7.615613,4.969724 h 1.911759 v 1.780302 h -1.509193 c 0.02953,0.281346 0.04463,0.567948 0.04463,0.859152 v 0.04372 c 0,0.32783 -0.01907,0.650135 -0.05639,0.965776 h 1.520953 v 1.780284 h -1.948177 c -1.080471,2.904532 -3.888281,4.90944 -7.579201,4.90944 H 9.872486 V 18.777359 H 7.7398438 V 16.997075 H 9.872486 V 15.128424 H 7.7398448 V 13.348122 H 9.872487 Z m 1.715733,10.398961 v 3.312384 h 4.421517 c 2.728488,0 4.755657,-1.326654 5.699292,-3.312384 z m 10.64641,-1.780284 h -10.64641 v -1.868651 h 10.649148 c 0.03947,0.294077 0.05962,0.595524 0.05962,0.902875 v 0.04372 c 0,0.314451 -0.02105,0.622289 -0.06235,0.922056 z M 16.009738,9.972823 c 2.741055,0 4.774293,1.361655 5.712234,3.375301 H 11.588221 V 9.972823 Z" />
  </g>
</svg>
