<svg xmlns="http://www.w3.org/2000/svg" viewBox="0 0 32 32" width="32" height="32">
  <g fill="#bfbbbb" transform="translate(100.6136 1.7357)">
    <path fill-rule="evenodd" d="M-84.6136 30.2643c-8.837 0-16-7.163-16-16s7.163-16 16-16 16 7.163 16 16-7.163 16-16 16zm7.189-17.98c.314-2.096-1.283-3.223-3.465-3.975l.708-2.84-1.728-.43-.69 2.765c-.454-.114-.92-.22-1.385-.326l.695-2.783-1.728-.431-.708 2.839c-.376-.086-.746-.17-1.104-.26l.002-.009-2.384-.595-.46 1.846s1.283.294 1.256.312c.7.175.826.638.805 1.006l-.806 3.235c.048.012.11.03.18.057l-.183-.045-1.13 4.532c-.086.212-.303.531-.793.41.018.025-1.256-.313-1.256-.313l-.858 1.978 2.25.561c.418.105.828.215 1.231.318l-.715 2.872 1.727.43.708-2.84c.472.127.93.245 1.378.357l-.706 2.828 1.728.43.715-2.866c2.948.558 5.164.333 6.097-2.333.752-2.146-.037-3.385-1.588-4.192 1.13-.26 1.98-1.003 2.207-2.538zm-3.95 5.538c-.533 2.147-4.148.986-5.32.695l.95-3.805c1.172.293 4.929.872 4.37 3.11zm.535-5.569c-.487 1.953-3.495.96-4.47.717l.86-3.45c.975.243 4.118.696 3.61 2.733z"/>
    <ellipse cx="-84.3364" cy="15.0033" rx="8.7754" ry="12.378"/>
  </g>
  <path fill="#2a5ada" d="m15.9722 4.3694-2.2018 1.266-5.9999 3.4678-2.2018 1.266v11.9999l2.2018 1.266 6.055 3.4678 2.2018 1.266 2.2018-1.266 5.9448-3.4678 2.2018-1.266V10.3693l-2.2018-1.266-5.9999-3.4679ZM9.9723 19.837v-6.9357l6-3.4678 5.9998 3.4678v6.9357l-5.9999 3.4678z"/>
</svg>
