<?xml version="1.0" encoding="UTF-8" standalone="no"?>
<svg
   xmlns:dc="http://purl.org/dc/elements/1.1/"
   xmlns:cc="http://creativecommons.org/ns#"
   xmlns:rdf="http://www.w3.org/1999/02/22-rdf-syntax-ns#"
   xmlns:svg="http://www.w3.org/2000/svg"
   xmlns="http://www.w3.org/2000/svg"
   height="32"
   width="32.000004"
   id="svg4"
   version="1.1"
   viewBox="0 0 32.000004 32.000001">
  <metadata
     id="metadata10">
    <rdf:RDF>
      <cc:Work
         rdf:about="">
        <dc:format>image/svg+xml</dc:format>
        <dc:type
           rdf:resource="http://purl.org/dc/dcmitype/StillImage" />
        <dc:title></dc:title>
      </cc:Work>
    </rdf:RDF>
  </metadata>
  <defs
     id="defs8" />
  <g
     style="fill:#bfbbbb;fill-opacity:1"
     transform="translate(100.61356,1.7357299)"
     id="g4536">
    <g
       style="fill:#bfbbbb;fill-opacity:1"
       id="g830">
      <path
         id="path2-5"
         d="m -84.613556,30.26427 c -8.837,0 -16.000004,-7.163 -16.000004,-16 0,-8.8369999 7.163004,-15.9999999 16.000004,-15.9999999 8.837,0 16,7.163 16,15.9999999 0,8.837 -7.163,16 -16,16 z m 7.189,-17.98 c 0.314,-2.096 -1.283,-3.2229999 -3.465,-3.9749999 l 0.708,-2.84 -1.728,-0.43 -0.69,2.765 c -0.454,-0.114 -0.92,-0.22 -1.385,-0.326 l 0.695,-2.783 -1.728,-0.431 -0.708,2.839 c -0.376,-0.086 -0.746,-0.17 -1.104,-0.26 l 0.002,-0.009 -2.384,-0.595 -0.46,1.846 c 0,0 1.283,0.294 1.256,0.312 0.7,0.175 0.826,0.638 0.805,1.006 l -0.806,3.2349999 c 0.048,0.012 0.11,0.03 0.18,0.057 l -0.183,-0.045 -1.13,4.532 c -0.086,0.212 -0.303,0.531 -0.793,0.41 0.018,0.025 -1.256,-0.313 -1.256,-0.313 l -0.858,1.978 2.25,0.561 c 0.418,0.105 0.828,0.215 1.231,0.318 l -0.715,2.872 1.727,0.43 0.708,-2.84 c 0.472,0.127 0.93,0.245 1.378,0.357 l -0.706,2.828 1.728,0.43 0.715,-2.866 c 2.948,0.558 5.164,0.333 6.097,-2.333 0.752,-2.146 -0.037,-3.385 -1.588,-4.192 1.13,-0.26 1.98,-1.003 2.207,-2.538 z m -3.95,5.538 c -0.533,2.147 -4.148,0.986 -5.32,0.695 l 0.95,-3.805 c 1.172,0.293 4.929,0.872 4.37,3.11 z m 0.535,-5.569 c -0.487,1.953 -3.495,0.96 -4.47,0.717 l 0.86,-3.4499999 c 0.975,0.243 4.118,0.6959999 3.61,2.7329999 z"
         style="fill:#bfbbbb;fill-opacity:1;fill-rule:evenodd" />
    </g>
    <ellipse
       style="opacity:1;fill:#bfbbbb;fill-opacity:1"
       id="path4530"
       cx="-84.336441"
       cy="15.003253"
       rx="8.775423"
       ry="12.377966" />
  </g>
  <path
     style="fill:#2a5ada;stroke-width:0.55044979"
     id="path2"
     d="M 15.972224,4.3693614 13.770425,5.6353958 7.7705228,9.1032297 5.568724,10.369264 v 11.999804 l 2.2017988,1.266035 6.0549472,3.467834 2.201799,1.266034 2.201799,-1.266034 5.944857,-3.467834 2.201799,-1.266034 V 10.369264 L 24.173925,9.1032297 18.174023,5.6353958 Z M 9.9723215,19.837001 v -6.935668 l 5.9999025,-3.4678335 5.999902,3.4678335 v 6.935668 l -5.999902,3.467832 z" />
</svg>
