<svg xmlns="http://www.w3.org/2000/svg" viewBox="0 0 32 32">
  <defs>
    <mask id="a" width="23.84" height="54.6" x="0" y="4.82" maskUnits="userSpaceOnUse">
      <path fill="#fff" fill-rule="evenodd" d="M0 4.82h23.84v54.6H0V4.82z"/>
    </mask>
  </defs>
  <g mask="url(#a)" transform="matrix(.44033 0 0 .46817 .1938 .061)">
    <path fill="#efe812" d="M20 8.84c1.37-1.56 2.63-2.88 3.83-4-20.26-.65-14.36 14-21 28.87-7.6 17.14.9 23.67 13.56 25.71a27.56 27.56 0 0 1-4.28-7C3.94 42.09 7.25 23.26 20 8.84"/>
  </g>
  <path fill="#ede70a" d="M30.4664 12.7484a25.4819 27.093 0 0 1-4.5046 8.0198 21.6158 22.9824 0 0 1-5.4733 5.0421 14.7775 15.7117 0 0 1-8.0756 2.4392 31.7918 33.8018 0 0 1-4.9845-.3698 10.1892 10.8334 0 0 0 3.3333 2.7762c8.0668 4.148 8.5732-3.5534 17.1068-7.4626 4.7907-2.1957 4.8084-6.4842 2.5935-10.4449m-9.9735-8.0057a10.5987 11.2688 0 0 1 3.329 1.2547 18.5687 19.7427 0 0 1 6.6489 6.751c1.453-4.354.775-7.7716-2.3998-8.3896-3.4962-.6788-6.2263-.8988-8.8506-2.8464-3.232-2.3877-6.0678-1.6105-8.5248.8193l.5328.0234c3.4082.2153 6.6666.9363 9.247 2.3783"/>
  <path fill="#dec21c" d="M9.0003 4.1997c-5.6142 6.751-7.0717 15.5666-3.4565 20.4028a13.8087 14.6818 0 0 1 .7793-13.1088c3.0427-5.3933 9.15-7.7341 14.1654-6.751-2.598-1.4606-5.8563-2.1629-9.2469-2.3783l-.5328-.028c-.546.5337-1.1008 1.133-1.7085 1.8633"/>
  <path fill="#e5cb22" d="M23.8174 5.988a10.5987 11.2688 0 0 0-3.3289-1.2453c3.417 1.9102 5.6847 5.1499 5.6847 10.2717a12.1223 12.8887 0 0 1-5.6847 10.796 21.5277 22.8888 0 0 0 5.4733-5.0422 25.4819 27.093 0 0 0 4.5046-8.0198 18.5687 19.7427 0 0 0-6.649-6.7603"/>
  <path fill="#666" d="M20.4885 4.7427c-5.0153-.9831-11.1227 1.3577-14.1654 6.7276a13.7955 14.6677 0 0 0-.7793 13.1322 12.0122 12.7716 0 0 0 1.8846 3.2772 31.7918 33.8018 0 0 0 4.9845.3698 14.7775 15.7117 0 0 0 8.0756-2.4392 12.1179 12.884 0 0 0 5.6847-10.796c0-5.1217-2.2677-8.3614-5.6847-10.2716M19.925 23.376a8.3398 8.8671 0 0 1-11.5014-2.6311c-2.4923-4.0872-1.2593-9.3634 2.479-12.1724 4.1832-3.1602 9.5464-1.9148 11.5015 2.631 1.9066 4.429 1.3826 9.546-2.479 12.1725"/>
  <path fill="#666" d="M10.5934 28.2019c-.8813-.0492-1.7025-.1296-2.6411-.2588l-.519-.0714-.2143-.2868c-1.2807-1.7145-2.1549-3.8284-2.5483-6.1625-.154-.9135-.1968-1.4567-.1984-2.5184-.0015-.973.0156-1.268.1209-2.0759.3027-2.324 1.172-4.6394 2.4047-6.4045 1.0734-1.5372 2.4858-2.8714 4.0583-3.8337 1.5354-.9395 3.212-1.5726 4.9347-1.8634 1.4053-.2372 2.7852-.2494 4.1185-.0363.413.066.4874.1011 1.1735.5527 2.1727 1.4302 3.6472 3.4149 4.3537 5.86.5142 1.7795.6552 3.8285.391 5.679-.5393 3.7774-2.542 7.0137-5.6073 9.0614-1.9019 1.2704-4.0532 2.0519-6.3935 2.3223-.4549.0526-2.7136.0764-3.4334.0363zm5.4609-3.4315c1.3682-.1169 2.631-.5618 3.7983-1.3383 2.896-1.9264 4.164-5.399 3.4304-9.3942-.232-1.264-.7432-2.7259-1.2761-3.6496-1.5862-2.7496-4.5659-4.0722-7.6952-3.4156-2.3243.4876-4.56 2.1291-5.847 4.2932-.9715 1.6335-1.4558 3.5649-1.3374 5.3335.0716 1.0688.251 1.8855.6138 2.7936.4683 1.172 1.0778 2.0957 1.9708 2.9868.5008.4998.7401.6971 1.287 1.0617 1.4976.9983 3.3191 1.4771 5.0554 1.3289z" opacity=".8752"/>
  <path fill="#666" d="M5.2219 24.1022c-.242-.375-.307-.4895-.511-.8998-.5932-1.1926-.9447-2.5247-1.081-4.0957-.0547-.6322-.04-2.1251.027-2.7431.1702-1.5681.4691-2.9118.9896-4.4479C5.7638 8.618 7.8085 5.3176 10.32 2.758l.3913-.3988h.1446c.2396 0 1.2261.0788 1.8674.1492 2.3803.2612 4.4019.7471 6.183 1.486.47.195 1.4315.6596 1.4098.6812-.0074.0074-.1937-.0119-.4142-.0428-.6106-.0857-.9885-.1103-1.7012-.1106-.7186-.0003-1.1435.0263-1.7544.1097-4.6411.6338-8.69 3.5954-10.5995 7.7532-.6334 1.3793-1.0808 2.9275-1.2794 4.4281-.0986.745-.1234 1.1668-.1221 2.0773.0025 1.7789.2336 3.2156.7846 4.877.1105.333.1962.6102.1905.6159-.0057.0057-.095-.1208-.1985-.2812z" opacity=".8752"/>
  <path fill="gray" d="M5.1303 23.9274c-.742-1.1931-1.2095-2.5956-1.4342-4.3028-.0718-.5453-.1017-2.1979-.0523-2.8927.1942-2.732 1.1593-5.8047 2.6958-8.5828C7.4593 6.1247 9.0127 4.0566 10.53 2.5704l.2121-.2078.419.0254c2.8366.1724 5.4116.6957 7.502 1.5245.4827.1914 1.6064.7227 1.5607.738-.0147.0049-.2198-.0177-.4558-.0501-.3505-.0483-.602-.0613-1.3727-.0714-.989-.013-1.3519.0056-2.0301.104-1.5251.2215-2.9267.6645-4.3133 1.3637-2.9741 1.4995-5.259 3.968-6.4825 7.0036-.7908 1.962-1.1707 3.97-1.133 5.9891.0358 1.9235.2153 3.0168.7891 4.8052.083.2588.146.4755.1399.4816-.0062.0061-.112-.1508-.2351-.3488z" opacity=".8752"/>
  <path fill="#999" d="M22.2949 24.3446c1.094-1.0882 1.803-2.0689 2.4771-3.4266.4696-.9458.7607-1.7309 1.0003-2.698.4154-1.6767.5127-3.2587.3087-5.0202-.223-1.9257-.803-3.5747-1.769-5.0283-.808-1.2161-2.0229-2.3619-3.371-3.1794-.1814-.1099-.3116-.1998-.2894-.1998.0708 0 .7038.1606 1.0258.2603 1.6753.5186 3.522 1.6868 5.3318 3.3729 1.19 1.1086 2.4543 2.6722 3.2787 4.0547l.1593.2671-.0622.179c-.0342.0984-.1567.4161-.2721.706-.9335 2.3452-2.2034 4.5857-3.7157 6.5558-1.4494 1.8881-2.6081 3.0976-4.1656 4.3481-.2528.203-.4689.369-.4802.3692-.0113 0 .2333-.2523.5435-.5608zM6.8929 27.7597c-2.3726-.4847-4.0177-1.2716-5.1615-2.4689-.6986-.7313-1.1357-1.5598-1.3793-2.6143-.0959-.415-.1075-.5448-.1222-1.3621-.014-.7773-.0049-.9828.0652-1.472.1607-1.1215.538-2.4297 1.1158-3.8692.7645-1.9045 1.044-2.9446 1.62-6.0279.504-2.6985.751-3.6381 1.206-4.5902.8142-1.7035 2.1778-2.6297 4.3-2.9209.459-.063 1.6135-.12 1.8656-.092l.2217.0244-.3183.3294c-.6863.7102-1.4893 1.6604-2.1484 2.542-3.8026 5.087-5.4293 11.2802-4.2087 16.0235.2688 1.045.772 2.1972 1.3024 2.9825.142.2103.3134.5114.3808.669.3505.8196.887 1.776 1.3925 2.4821.1708.2386.3057.4376.2998.4422-.006.0046-.2001-.0303-.4314-.0775z" opacity=".8752"/>
  <path fill="#999" d="M14.2099 31.7946c-1.4733-.1697-3.4513-1.009-4.851-2.0585-.6637-.4975-1.9251-1.7536-1.8022-1.7946.0244-.008.3151.0214.646.0656 1.9033.2542 4.334.3361 5.744.1935 1.7125-.1732 3.3866-.66 4.9387-1.4362.6538-.327.9012-.4719 1.6945-.9927 2.2903-1.5037 3.9954-3.1303 5.8917-5.6204 1.5649-2.055 2.8964-4.4445 3.7863-6.7949.0973-.257.1896-.4814.2052-.4987.0349-.0388.512.9217.724 1.4575.5077 1.2827.7484 2.6364.6561 3.6895-.1266 1.4447-.632 2.5587-1.6098 3.5486-.684.6924-1.2302 1.0552-2.6105 1.734-1.3395.6588-2.2863 1.2312-3.345 2.0222-1.0381.7757-1.6734 1.3342-3.5069 3.0836-1.295 1.2357-1.507 1.4287-2.0454 1.862-1.0042.8082-1.9715 1.3002-2.916 1.4834-.3793.0735-1.1992.1023-1.5997.0561z" opacity=".8752"/>
  <path fill="gray" d="M30.3515 12.5147c-.1803-.3158-.7284-1.1292-1.0646-1.5799-.5809-.7788-1.1048-1.381-1.8427-2.1184-2.1825-2.1806-4.4807-3.572-6.6626-4.0338-.1643-.0348-.4747-.1632-.8602-.3558-2.3405-1.1692-5.2778-1.8727-8.7397-2.0932l-.4136-.0263.1651-.1701c.2452-.2526.8793-.7556 1.302-1.0328 1.952-1.2801 3.9658-1.3416 6.0274-.184.202.1134.6144.3805.9163.5935 1.4432 1.0183 2.5637 1.52 4.4396 1.988.7446.1858 1.4024.3192 3.0211.6128 1.4785.2682 1.8209.3443 2.1727.4835 1.927.762 2.7284 2.909 2.2033 5.9029-.1248.7112-.4698 2.0667-.5466 2.1474-.0141.0148-.067-.0454-.1175-.1338z" opacity=".8752"/>
  <path fill="#999" d="M30.0973 12.0771c-.8117-1.2491-1.4443-2.042-2.4446-3.0635-2.1874-2.234-4.376-3.6276-6.5542-4.1731-.5195-.1301-.5497-.1418-1.3558-.5223-1.8082-.8537-3.7702-1.4152-6.1123-1.7493-.7725-.1102-1.6288-.2-2.2453-.2356-.2418-.014-.4626-.0375-.4906-.0522-.0683-.036.3353-.4057.9258-.8477C13.5139.1654 15.1936-.1794 16.967.3764c.6298.1975 1.2865.544 2.2373 1.1805 1.3344.8933 2.1151 1.2827 3.3255 1.6589 1.016.3157 1.7624.4828 4.0907.9154.736.1368 1.51.2924 1.72.3458 1.2339.3135 2.0848 1.1236 2.5277 2.4063.3399.9845.3674 2.436.0737 3.8782-.159.7805-.4114 1.7406-.4765 1.8126-.0145.016-.18-.2077-.368-.497z" opacity=".8752"/>
  <path fill="#999" d="M30.379 12.46c-.0324-.0373-.236-.3345-.4523-.6604-.79-1.1902-1.5253-2.066-2.68-3.1924-1.453-1.4173-2.7957-2.396-4.22-3.0762-.6692-.3195-1.167-.4975-2.1792-.7789-.1893-.0526-.6108-.2196-.9367-.371-2.4537-1.1402-5.0298-1.7878-8.0478-2.0231a57.978 57.978 0 0 1-.7404-.062l-.2435-.0232.167-.172c.2137-.22.8385-.706 1.2566-.9773.6634-.4305 1.4007-.744 2.109-.8967.474-.1022 1.488-.093 1.99.018.9226.204 1.5249.4918 2.8687 1.3707 2.0963 1.371 3.016 1.6971 6.8845 2.4418 1.0352.1993 2.0178.397 2.1835.4394 1.4029.3588 2.3212 1.3794 2.6664 2.9636.0983.451.1364 1.6565.0726 2.2966-.071.712-.4928 2.6243-.6032 2.7347-.0227.0228-.058.011-.0951-.0316zM14.1378 31.7715l-.4014-.0769c-1.509-.2887-3.4327-1.1994-4.6183-2.186-.6523-.543-1.563-1.4663-1.5043-1.5251.0129-.0129.3462.0137.7408.0591 1.5399.177 2.4767.234 3.8565.2345 1.1523.0004 1.7473-.0396 2.5767-.1735 1.7206-.2778 3.4735-.9075 4.9556-1.7802.4832-.2846 1.4812-.9559 2.0408-1.3728 3.4427-2.5654 6.6058-6.8237 8.3588-11.253.1593-.4026.3028-.746.3189-.7633.0323-.0346.3276.5213.5712 1.0754.3636.8267.6393 1.8143.7511 2.6899.1486 1.1642-.0525 2.473-.5232 3.4055-.433.8578-1.2083 1.7087-2.1022 2.307-.202.1353-.8558.497-1.4528.8037-1.2927.6643-1.7114.901-2.4273 1.3718-1.5015.9875-2.1497 1.5384-5.0811 4.318-1.3802 1.3088-2.1093 1.8727-2.9856 2.309-.8502.4234-1.3271.5411-2.2713.5606-.389.008-.7503.0063-.8029-.0037zM6.7973 27.7176C3.374 27.0074 1.2737 25.503.5336 23.2309c-.2459-.755-.2548-.8288-.2548-2.1028 0-1.0551.0083-1.2097.0873-1.6248.2053-1.0779.5094-2.0806 1.0786-3.5556.72-1.8659.9648-2.738 1.4167-5.0466.7743-3.9553.9113-4.5001 1.3789-5.4852.8427-1.7752 2.271-2.7243 4.4877-2.9822.5313-.0618 1.8294-.0976 1.8117-.05-.0081.022-.25.2957-.5373.6084-3.7104 4.0368-5.9494 8.7529-6.4 13.48-.0861.9042-.0584 2.6436.0542 3.3944.2025 1.3502.489 2.3014 1.0193 3.3835.1546.3154.3949.7541.534.975.1391.2207.4312.7626.649 1.2042.384.7783.8067 1.5022 1.2117 2.075.1081.1528.1898.284.1815.2913-.0083.0073-.213-.0277-.4548-.0779z" opacity=".8752"/>
  <path fill="#999" d="M6.7782 27.7009c-2.3786-.511-4.059-1.355-5.1523-2.5879-.4791-.5403-.8529-1.2056-1.1-1.9579-.2151-.6554-.2371-.8835-.2177-2.2587l.017-1.202.135-.5925c.2287-1.0047.4368-1.658 1.0535-3.3071.7183-1.9209.8904-2.5614 1.4947-5.5636.7045-3.4998.793-3.8424 1.232-4.7751.382-.8119.9826-1.56 1.6095-2.005.746-.5293 1.8325-.8978 2.9942-1.0152.3791-.0384 1.6151-.0624 1.6455-.032.0086.0086-.1159.1605-.2767.3377-1.5575 1.716-2.5388 3.0103-3.52 4.6431-1.7481 2.9089-2.8235 6.0672-3.1045 9.1174-.0516.5604-.0526 2.1345-.0016 2.7758.1382 1.7405.6527 3.334 1.5823 4.9003.1338.2255.4576.8228.7195 1.3275.504.971.6435 1.212 1.0658 1.8414.145.2159.2635.4018.2635.413 0 .0303-.0614.022-.4397-.0592zM13.6408 31.6647c-1.68-.3771-3.4511-1.2507-4.6735-2.305-.4095-.3532-1.1334-1.068-1.2561-1.2403l-.078-.1095.165.0003c.0909.0002.4731.0346.8494.0764 1.6266.1809 4.0262.2514 5.1461.1513 1.9679-.1759 4.0958-.8393 5.7555-1.7944 1.8172-1.0458 3.6636-2.5193 5.0974-4.0682 2.387-2.5782 4.2259-5.4877 5.5486-8.7788.131-.326.2518-.6074.2684-.6254.0393-.0425.6024 1.1073.7808 1.5942.3524.9617.5587 2.0212.5604 2.8781.0034 1.7276-.4747 2.9279-1.6287 4.0891-.717.7216-.9628.8826-2.8726 1.8818-1.4464.7567-2.2783 1.2793-3.3975 2.1342-.5873.4487-1.8397 1.5668-3.0776 2.7475-1.9026 1.8148-2.6522 2.4144-3.632 2.9055-.8745.4383-1.2121.5168-2.313.5375-.778.0147-.8714.0091-1.2426-.0743z" opacity=".8752"/>
  <path fill="gray" d="M30.3783 12.4582c-.031-.0363-.2674-.3791-.5252-.7618-.7716-1.1453-1.4776-1.9838-2.5688-3.051-1.4237-1.3924-2.6542-2.3059-4.046-3.0037-.7807-.3914-1.2865-.581-2.2871-.8572-.1953-.054-.5308-.177-.7455-.2734-.9467-.4252-1.184-.527-1.6521-.7087-1.9667-.7631-4.2182-1.249-6.6906-1.444a61.1009 61.1009 0 0 1-.7403-.0624l-.2433-.0231.1477-.153c.427-.4424 1.4207-1.1292 2.0944-1.4475.8272-.391 1.359-.5127 2.2397-.5127 1.2616 0 2.1551.321 3.7276 1.3388 2.3627 1.5292 3.0834 1.7884 7.1685 2.5773 2.133.412 2.4652.4955 2.9056.7308 1.0516.562 1.7523 1.7033 1.9106 3.1125.0506.4507.0498 1.4168-.0015 1.8844-.0853.7762-.5033 2.6379-.6066 2.7018-.0168.0104-.056-.0108-.087-.0471z" opacity=".8752"/>
  <path fill="gray" d="M10.9263 28.2137c-1.0315-.0447-2.958-.2343-3.4223-.3367-.1098-.0243-.641-.756-1.0423-1.436-.971-1.6451-1.5961-3.5302-1.889-5.6952-.115-.851-.1248-2.7715-.0184-3.632.3535-2.859 1.4044-5.4554 3.0174-7.4552 2.2268-2.7608 5.5359-4.5912 9.0894-5.0279 1.4121-.1735 3.384-.0686 3.957.2105.3351.1633 1.0445.6454 1.5484 1.0523.425.3431 1.1829 1.0792 1.4756 1.433 1.34 1.6194 2.0875 3.4278 2.4099 5.8303.0791.5894.1106 2.2071.0557 2.8674-.2298 2.7689-1.2912 5.3677-3.0449 7.4552-2.2715 2.704-5.8473 4.4702-9.5558 4.72-.5147.0347-1.93.0426-2.5807.0143zm5.7343-3.5097c.8468-.1443 1.4539-.3417 2.2419-.729 2.5462-1.2511 4.1442-3.5604 4.5123-6.5203.084-.6752.0833-1.9017-.0015-2.5966-.1724-1.4141-.607-2.882-1.2136-4.0984-.8647-1.7341-2.2908-2.9895-4.087-3.5978-2.3323-.7897-4.988-.2681-7.2401 1.422-.5112.3836-1.47 1.3412-1.8298 1.8275-1.268 1.7137-1.9315 3.6614-1.9383 5.6893-.002.5742.1292 1.6083.2787 2.1983.2793 1.1017.8365 2.2584 1.5407 3.1983.2829.3776 1.0532 1.1738 1.4258 1.4737 1.25 1.0062 2.6888 1.6013 4.3616 1.804.2963.036 1.601-.0116 1.9493-.071z" opacity=".8752"/>
  <path fill="#666" d="M10.5058 28.1781c-.0736-.0077-.3747-.0328-.669-.0557-.6913-.0538-1.8832-.182-2.1338-.2295-.2401-.0455-.3351-.1314-.6745-.6094-1.252-1.7642-2.0808-3.9759-2.4367-6.5036-.0855-.6076-.0987-3.1267-.0194-3.7043.3765-2.7416 1.2964-5.1175 2.7162-7.0156.4557-.6092.7957-.9922 1.4254-1.6057 1.7375-1.6928 3.9003-2.8937 6.2896-3.4921 1.2605-.3157 2.0961-.406 3.4926-.3774 1.3244.0272 1.8602.1157 2.3116.3816.7442.4385 1.3982.9497 2.1318 1.6667.9276.9064 1.4584 1.6336 1.9989 2.7388.5376 1.0992.8315 2.0836 1.073 3.5938.0835.5225.1201 2.6659.0563 3.2936-.2389 2.3467-1.0811 4.574-2.4477 6.4731-.7641 1.0619-1.7927 2.082-2.8873 2.8637-1.6044 1.1457-3.5387 1.9763-5.4813 2.3537-1.0578.2054-1.298.2241-3.0062.2335-.8831.005-1.666.0025-1.7395-.0052zm6.1362-3.4576c.1472-.0226.2934-.051.325-.0631.0315-.0121.1066-.0284.1669-.0362.1835-.024.9097-.2449 1.133-.3448.7988-.3575 1.2327-.5874 1.6741-.8871 1.104-.7497 2.0292-1.8122 2.603-2.9892.1183-.2427.2383-.5007.2667-.5735a8.8267 8.8267 0 0 1 .1014-.2469c.0505-.1164.2293-.6718.2675-.8306.242-1.0074.2963-1.5006.2922-2.6484-.003-.8635-.0312-1.2416-.1352-1.816a10.1071 10.1071 0 0 1-.04-.2487c-.0191-.1292-.1193-.5581-.1963-.841a2.7297 2.7297 0 0 1-.0412-.1911c-.0113-.0631-.0382-.1362-.0598-.1625-.0216-.0263-.0294-.0478-.0172-.0478.0121 0-.0043-.0731-.0366-.1625-.0323-.0893-.0668-.2043-.0767-.2554-.01-.051-.0297-.1113-.0437-.1338a.2856.2856 0 0 1-.0332-.091c-.0414-.273-.63-1.5458-.9471-2.0478-.4723-.7477-1.2003-1.5237-1.8973-2.0222-.4322-.3092-1.3674-.7803-1.8718-.943-.323-.1043-.9537-.2555-1.1087-.2658-.0316-.0021-.1692-.0202-.3059-.0402-.3267-.0478-1.07-.0472-1.5484.0011-.3815.0386-1.1665.1966-1.3539.2725-.0544.022-.1333.0449-.1753.0507-.1532.0213-.919.3382-1.3483.5578-1.356.6937-2.6986 1.8987-3.535 3.1725-.8516 1.297-1.4076 2.7969-1.5503 4.1819-.044.4258-.0277 1.8444.0247 2.16.0261.1578.0566.3556.0676.4398.011.084.045.2561.0754.3823.0304.1261.0647.2787.0763.339.0398.2068.3239.9875.5075 1.3946.468 1.0378.9315 1.6972 1.8204 2.5895.587.5893.7617.7397 1.1854 1.0203.9988.6613 1.9974 1.0702 3.1543 1.2915.2304.044.433.0715.4502.0609.0171-.0106.0562-.002.0867.0191.0698.0483 1.6649.0132 2.0436-.045z" opacity=".8752"/>
  <path fill="#666" d="M9.5578 28.0846c-.9608-.0904-1.7505-.1848-1.9243-.2302-.1625-.0423-.344-.2284-.65-.6665-1.036-1.483-1.7998-3.3615-2.2075-5.429-.2043-1.0358-.2147-1.1788-.2149-2.9629-.0002-1.6495.0007-1.6679.1054-2.2488.5962-3.3081 1.7651-5.7322 3.734-7.7434 2.0559-2.1002 4.406-3.3828 7.2936-3.9808.7778-.161 1.3552-.211 2.4387-.211 1.467 0 2.0958.0787 2.5736.3216 1.1014.56 2.8197 2.1566 3.5875 3.3334.6529 1.0006 1.1829 2.261 1.4658 3.486.2534 1.097.276 1.3174.2963 2.9013.0158 1.2357.0087 1.5345-.0466 1.9499-.5435 4.0783-2.7548 7.4947-6.1942 9.5695-1.746 1.0534-4.0088 1.8033-5.8877 1.9512-.81.0638-3.5301.0387-4.3697-.0403zm6.7667-3.3245c1.5424-.1278 3.3435-.9658 4.5858-2.1337 1.1785-1.1079 2.0297-2.6495 2.3787-4.3083.1555-.7392.1848-1.087.1836-2.1792-.0012-1.1672-.0615-1.722-.2908-2.6762-.2755-1.1465-.547-1.8905-1.0395-2.8483-.357-.6945-.6765-1.1213-1.3328-1.781-.669-.6723-.9984-.9073-1.8657-1.331-1.028-.5022-1.7265-.6746-2.8458-.7021-1.4183-.035-2.5466.2336-3.9126.931-1.0257.5237-2.2139 1.4965-2.976 2.4367-.9138 1.1273-1.6617 2.7033-1.9466 4.1016-.1374.6741-.1717 1.1563-.1457 2.047.0349 1.1917.162 1.8795.5285 2.8617.5196 1.3918 1.1372 2.3076 2.3402 3.4696 1.115 1.077 2.6692 1.8297 4.324 2.094.3717.0594 1.405.0687 2.0147.0182z" opacity=".8752"/>
  <path fill="#999" d="M5.0493 23.7564c-.3087-.5216-.3848-.6789-.6333-1.3093-.2891-.7334-.477-1.4308-.641-2.3794-.1173-.6787-.1785-2.3092-.12-3.1966.3183-4.8284 2.794-10.0568 6.6635-14.072l.4052-.4206.7226.0474c3.1859.209 6.1178.9107 8.2542 1.9757.4.1993.4121.2088.2485.194-.8802-.08-1.892-.1063-2.569-.067-2.8711.167-5.7386 1.3194-8.002 3.2162-2.8 2.3463-4.5198 5.7449-4.896 9.6749-.0501.5245-.0594.9003-.0428 1.7395.0346 1.7515.1808 2.6832.6792 4.3274.1055.3478.1852.639.1773.647-.008.008-.1189-.1618-.2464-.3772zM22.5802 24.0815c.7573-.81 1.1822-1.3622 1.6616-2.1591 1.2998-2.1603 1.9438-4.4799 1.9453-7.007.0017-2.6357-.6148-4.8719-1.861-6.7502-.7256-1.0936-1.8134-2.1607-3.0095-2.9524-.2887-.191-.518-.3545-.5093-.363.0314-.0315 1.0465.2714 1.4739.4398 2.8722 1.1311 6.0993 4.0439 8.0044 7.2247l.1419.2368-.1917.5024c-1.2941 3.3924-3.2456 6.4909-5.8403 9.2726-.5615.602-2.1082 2.0047-2.2105 2.0047-.0136 0 .1642-.2022.3952-.4493z" opacity=".8752"/>
  <path fill="#b3b3b3" d="M30.3837 12.4226a3.6568 3.6568 0 0 1-.1352-.1834c-.0436-.063-.2554-.3705-.4708-.6833-.6763-.9821-1.2524-1.6801-2.0912-2.5337-2.118-2.1553-4.062-3.446-6.1508-4.0837-.9209-.281-1.05-.3284-1.837-.6732-2.0664-.9054-3.7507-1.3888-5.9814-1.7167-.5706-.0839-1.79-.2127-2.4016-.2536l-.3945-.0264.1842-.1883c.522-.5337 1.6667-1.2598 2.5212-1.5993.588-.2336.872-.28 1.7155-.2802.651-.0002.818.0121 1.1237.083.819.1902 1.3773.4613 2.8466 1.3822.5387.3376.9868.6139.9958.6139.009 0 .141.0706.2935.157.4291.2432 1.132.5497 1.6493.7193.9168.3005 1.554.4488 4.1307.9614.941.1872 1.8701.3849 2.0645.4393.5774.1615 1.0464.4243 1.423.7974.6362.6304.9921 1.3696 1.1703 2.431.0195.1156.0356.5907.036 1.0557.0006.857-.0232 1.091-.2118 2.0793-.091.4772-.316 1.3647-.3739 1.4753-.0475.0907-.053.0922-.106.027zM6.8355 27.717c-2.4092-.5504-3.8602-1.2412-4.981-2.3714-.6186-.6236-1.0452-1.3277-1.33-2.1948-.2093-.6375-.2357-.9148-.2175-2.2788.0148-1.1113.0215-1.2034.1193-1.6363.2305-1.0204.4635-1.7687.9872-3.1708.8388-2.2456.968-2.722 1.6182-5.9666.6195-3.0916.7939-3.764 1.1995-4.6238.5326-1.1291 1.3606-1.993 2.3474-2.4488.9423-.4354 2.1138-.6513 3.3844-.6239l.5469.0119-.4647.5161C8.257 4.9156 6.9892 6.71 5.9524 8.722c-1.236 2.3986-1.9534 4.6346-2.294 7.1494-.1524 1.125-.1398 3.2017.0257 4.2308.2388 1.4852.652 2.6224 1.4714 4.0494.164.2856.4395.7932.6124 1.1279.4883.9453.7068 1.3293 1.0928 1.92.1964.3007.3572.5545.3572.564 0 .0281-.1193.0136-.3824-.0465zM13.6114 31.6588c-1.4048-.3128-3.0252-1.0601-4.1926-1.9335-.3761-.2814-1.1556-1.0008-1.5478-1.4287l-.2454-.2676.1278-.0125c.0703-.007.3785.0146.685.0478 1.2678.1371 1.9659.1798 3.2908.2013 1.5426.0251 2.1814-.0085 3.095-.1628 1.9888-.3358 3.7794-1.0294 5.4818-2.1235 1.859-1.1946 3.4058-2.5238 4.8388-4.1578 2.1928-2.5003 3.8248-5.1728 5.1101-8.3685.1036-.2576.2057-.4635.2268-.4575.0603.017.596 1.1177.759 1.5596.1936.5246.4234 1.4342.5045 1.997.0791.5492.0601 1.615-.0383 2.1483-.1377.7458-.4464 1.4724-.8924 2.1006-.2628.3702-.9958 1.1164-1.3649 1.3894-.321.2375-1.0467.652-2.16 1.2338-2.4478 1.279-3.4259 2.0175-6.4993 4.9072-1.2451 1.1707-1.3086 1.2289-1.7397 1.5952-.721.6125-1.243.9707-1.8734 1.2853-.8503.4245-1.2062.5056-2.313.527-.7703.015-.849.0099-1.2528-.08z" opacity=".8752"/>
</svg>
