<?xml version="1.0" encoding="UTF-8" standalone="no"?>
<svg
   xmlns:dc="http://purl.org/dc/elements/1.1/"
   xmlns:cc="http://creativecommons.org/ns#"
   xmlns:rdf="http://www.w3.org/1999/02/22-rdf-syntax-ns#"
   xmlns:svg="http://www.w3.org/2000/svg"
   xmlns="http://www.w3.org/2000/svg"
   xmlns:sodipodi="http://sodipodi.sourceforge.net/DTD/sodipodi-0.dtd"
   xmlns:inkscape="http://www.inkscape.org/namespaces/inkscape"
   width="32"
   height="32"
   viewBox="0 0 32 32"
   version="1.1"
   id="svg4"
   sodipodi:docname="paxgi-white.svg"
   inkscape:version="1.0.1 (3bc2e813f5, 2020-09-07)">
  <metadata
     id="metadata10">
    <rdf:RDF>
      <cc:Work
         rdf:about="">
        <dc:format>image/svg+xml</dc:format>
        <dc:type
           rdf:resource="http://purl.org/dc/dcmitype/StillImage" />
      </cc:Work>
    </rdf:RDF>
  </metadata>
  <defs
     id="defs8">
    <mask
       id="a"
       width="23.84"
       height="54.6"
       x="0"
       y="4.82"
       maskUnits="userSpaceOnUse">
      <path
         fill="#fff"
         fill-rule="evenodd"
         d="M0 4.82h23.84v54.6H0V4.82z"
         id="path837" />
    </mask>
  </defs>
  <sodipodi:namedview
     pagecolor="#ffffff"
     bordercolor="#666666"
     borderopacity="1"
     objecttolerance="10"
     gridtolerance="10"
     guidetolerance="10"
     inkscape:pageopacity="0"
     inkscape:pageshadow="2"
     inkscape:window-width="1916"
     inkscape:window-height="1017"
     id="namedview6"
     showgrid="false"
     inkscape:zoom="22.627417"
     inkscape:cx="8.4133242"
     inkscape:cy="18.997953"
     inkscape:window-x="0"
     inkscape:window-y="0"
     inkscape:window-maximized="1"
     inkscape:current-layer="svg4" />
  <g
     inkscape:groupmode="layer"
     id="layer1"
     inkscape:label="Layer 1" />
  <g
     inkscape:groupmode="layer"
     id="layer2"
     inkscape:label="Layer 2">
    <g
       id="g868"
       transform="matrix(0.44032941,0,0,0.46816885,0.19375056,0.06105742)">
      <g
         mask="url(#a)"
         id="g844">
        <path
           fill="#efe812"
           d="m 20,8.84 c 1.37,-1.56 2.63,-2.88 3.83,-4 -20.26,-0.65 -14.36,14 -21,28.87 -7.6,17.14 0.9,23.67 13.56,25.71 a 27.56,27.56 0 0 1 -4.28,-7 C 3.94,42.09 7.25,23.26 20,8.84"
           id="path842" />
      </g>
      <path
         fill="#ede70a"
         d="M 68.75,27.1 A 57.87,57.87 0 0 1 58.52,44.23 49.09,49.09 0 0 1 46.09,55 33.56,33.56 0 0 1 27.75,60.21 72.2,72.2 0 0 1 16.43,59.42 23.14,23.14 0 0 0 24,65.35 C 42.32,74.21 43.47,57.76 62.85,49.41 73.73,44.72 73.77,35.56 68.74,27.1 M 46.09,10 a 24.07,24.07 0 0 1 7.56,2.68 42.17,42.17 0 0 1 15.1,14.42 C 72.05,17.8 70.51,10.5 63.3,9.18 55.36,7.73 49.16,7.26 43.2,3.1 35.86,-2 29.42,-0.34 23.84,4.85 l 1.21,0.05 c 7.74,0.46 15.14,2 21,5.08"
         id="path846" />
      <path
         fill="#dec21c"
         d="M 20,8.84 C 7.25,23.26 3.94,42.09 12.15,52.42 a 31.36,31.36 0 0 1 1.77,-28 C 20.83,12.9 34.7,7.9 46.09,10 40.19,6.88 32.79,5.38 25.09,4.92 L 23.88,4.86 C 22.64,6 21.38,7.28 20,8.84"
         id="path848" />
      <path
         fill="#e5cb22"
         d="M 53.65,12.66 A 24.07,24.07 0 0 0 46.09,10 C 53.85,14.08 59,21 59,31.94 A 27.53,27.53 0 0 1 46.09,55 48.89,48.89 0 0 0 58.52,44.23 57.87,57.87 0 0 0 68.75,27.1 42.17,42.17 0 0 0 53.65,12.66"
         id="path850" />
      <path
         fill="#cca727"
         d="M 46.09,10 C 34.7,7.9 20.83,12.9 13.92,24.37 a 31.33,31.33 0 0 0 -1.77,28.05 27.28,27.28 0 0 0 4.28,7 72.2,72.2 0 0 0 11.32,0.79 A 33.56,33.56 0 0 0 46.09,55 27.52,27.52 0 0 0 59,31.94 C 59,21 53.85,14.08 46.09,10 M 44.81,49.8 A 18.94,18.94 0 0 1 18.69,44.18 c -5.66,-8.73 -2.86,-20 5.63,-26 9.5,-6.75 21.68,-4.09 26.12,5.62 4.33,9.46 3.14,20.39 -5.63,26"
         id="path852"
         style="fill:#666666" />
      <path
         style="opacity:0.875194;fill:#666666;stroke-width:0.141225"
         d="M 10.593443,28.201874 C 9.7121187,28.152708 8.8909238,28.072253 7.9522688,27.943111 L 7.4332604,27.871704 7.2189915,27.584864 C 5.9382798,25.870386 5.0641438,23.756481 4.6706862,21.42235 4.5167058,20.508883 4.4739084,19.965677 4.4722725,18.903983 c -0.0015,-0.973065 0.015674,-1.267916 0.1209074,-2.075856 0.3027042,-2.324046 1.1720319,-4.639389 2.4046834,-6.404566 1.0734092,-1.5371399 2.4858139,-2.871324 4.0583757,-3.8336184 1.535395,-0.9395514 3.212036,-1.5726913 4.934707,-1.8634645 1.405284,-0.2372007 2.785107,-0.2493491 4.118447,-0.03626 0.412921,0.065991 0.487454,0.1010942 1.173473,0.5526693 2.172722,1.4302053 3.64727,3.4148957 4.353734,5.8599746 0.514154,1.779495 0.655242,3.828514 0.391031,5.678955 -0.539362,3.777512 -2.542032,7.013819 -5.607347,9.061452 -1.901853,1.27044 -4.053227,2.051884 -6.39353,2.322326 -0.454853,0.05256 -2.713588,0.07643 -3.433311,0.03628 z m 5.460858,-3.431503 c 1.368214,-0.116846 2.631078,-0.561789 3.79827,-1.338239 2.895944,-1.926466 4.164029,-5.399099 3.430455,-9.394261 -0.232081,-1.263952 -0.743258,-2.725822 -1.276161,-3.649583 -1.58618,-2.74956 -4.565864,-4.0721399 -7.695199,-3.4156366 -2.324259,0.4876063 -4.5598817,2.1291519 -5.8469665,4.2932386 -0.9715481,1.633548 -1.4558333,3.564894 -1.3373763,5.333501 0.071586,1.068802 0.2510426,1.885531 0.6138201,2.793568 0.4682332,1.171993 1.0777436,2.095747 1.9707845,2.986855 0.5008222,0.499739 0.7400852,0.697118 1.2870242,1.061724 1.497525,0.998297 3.319098,1.47711 5.055349,1.328833 z"
         id="path891"
         transform="matrix(2.271027,0,0,2.1359815,-0.44001276,-0.13041752)" />
      <path
         style="opacity:0.875194;fill:#666666;stroke-width:0.141225"
         d="M 5.2219024,24.10221 C 4.979961,23.727253 4.9148853,23.612677 4.7108263,23.202381 4.1177111,22.009819 3.766158,20.677685 3.6299764,19.106737 3.5751663,18.474465 3.589807,16.981574 3.6568782,16.363598 3.8270701,14.795494 4.1260163,13.451833 4.6464731,11.915706 5.7637759,8.6179899 7.8084884,5.3175952 10.320027,2.7579553 l 0.391258,-0.3987508 h 0.144623 c 0.239551,0 1.226092,0.078822 1.86735,0.1491971 2.380318,0.2612274 4.401917,0.7471073 6.183124,1.4860793 0.470012,0.1949943 1.431392,0.6595113 1.409747,0.6811571 -0.0074,0.00737 -0.193758,-0.011919 -0.414199,-0.04286 C 19.291284,4.5470657 18.913407,4.5225046 18.200667,4.5221995 17.482063,4.5218919 17.057233,4.5484518 16.446293,4.6318813 11.80518,5.2656675 7.7562942,8.2273096 5.8468175,12.38509 c -0.6334631,1.379331 -1.0807927,2.927545 -1.279427,4.428115 -0.098626,0.745063 -0.1234205,1.166761 -0.1221364,2.077261 0.00251,1.778921 0.2336703,3.21563 0.784685,4.876955 0.1104717,0.333076 0.1961863,0.610263 0.1904769,0.615973 -0.00571,0.0057 -0.095041,-0.120824 -0.1985136,-0.281184 z"
         id="path893"
         transform="matrix(2.271027,0,0,2.1359815,-0.44001276,-0.13041752)" />
      <path
         style="opacity:0.875194;fill:#808080;stroke-width:0.141225"
         d="M 5.1302973,23.92737 C 4.388282,22.734257 3.9208268,21.331847 3.6960734,19.624562 3.6242876,19.079259 3.594444,17.426738 3.6438328,16.731858 3.8380111,13.999846 4.8031099,10.927224 6.3396495,8.149082 7.4593114,6.1246759 9.0127255,4.0565698 10.529956,2.5704018 l 0.212173,-0.207829 0.419026,0.025467 c 2.836524,0.1723928 5.411545,0.6956518 7.501922,1.524433 0.482738,0.1913934 1.606467,0.7227738 1.560722,0.7380223 -0.01467,0.00489 -0.219769,-0.017671 -0.455773,-0.050136 -0.350503,-0.048215 -0.601941,-0.061293 -1.372714,-0.071397 -0.989021,-0.012966 -1.351885,0.00564 -2.030121,0.1040975 -1.525086,0.2213905 -2.926675,0.6644902 -4.313305,1.363613 C 9.0777632,7.496191 6.7929289,9.9647119 5.5694288,13.000279 4.7786207,14.962315 4.3987162,16.970355 4.4363364,18.9894 c 0.03584,1.923528 0.2154072,3.016833 0.7892098,4.80516 0.083035,0.25879 0.1459527,0.475547 0.1398165,0.481683 -0.00614,0.0061 -0.1119156,-0.150857 -0.2350654,-0.348873 z"
         id="path895"
         transform="matrix(2.271027,0,0,2.1359815,-0.44001276,-0.13041752)" />
      <path
         style="opacity:0.875194;fill:#999999;stroke-width:0.141225"
         d="m 22.294893,24.344565 c 1.094072,-1.088186 1.802992,-2.068827 2.477105,-3.426553 0.469596,-0.945809 0.760662,-1.730889 1.000262,-2.69797 0.41543,-1.676765 0.512731,-3.258736 0.308774,-5.020223 C 25.858058,11.274062 25.277944,9.6250903 24.312056,8.171504 23.503965,6.9553879 22.289111,5.8096429 20.940931,4.9921499 20.759623,4.8822105 20.629437,4.7922601 20.65163,4.7922601 c 0.07075,0 0.703799,0.1606547 1.025732,0.2603115 1.675312,0.5186047 3.522047,1.6868572 5.331812,3.3729271 1.189959,1.1086272 2.454288,2.6721593 3.278769,4.0546913 l 0.159293,0.26711 -0.06225,0.17895 c -0.03423,0.09842 -0.156676,0.416173 -0.272092,0.706112 -0.933529,2.345136 -2.203423,4.585657 -3.715691,6.555733 -1.449379,1.88815 -2.608118,3.097652 -4.16565,4.348143 -0.252767,0.202938 -0.468819,0.369047 -0.480115,0.36913 -0.0113,8.1e-5 0.233256,-0.252278 0.54345,-0.560803 z"
         id="path897"
         transform="matrix(2.271027,0,0,2.1359815,-0.44001276,-0.13041752)" />
      <path
         style="opacity:0.875194;fill:#999999;stroke-width:0.199723"
         d="M 6.8928915,27.759749 C 4.5202532,27.274977 2.8751537,26.488061 1.7314008,25.290801 1.0328108,24.55953 0.59566386,23.730974 0.35210464,22.676522 0.25622924,22.261444 0.2445861,22.131684 0.22988002,21.314354 0.21589426,20.537058 0.2249976,20.331614 0.29510195,19.842431 0.45583327,18.720858 0.83307813,17.412735 1.4109469,15.97316 2.1754454,14.068657 2.4549577,13.028579 3.0308738,9.9453394 3.5349295,7.2468134 3.7818058,6.3071565 4.2368747,5.3550772 5.0510904,3.6516022 6.4146658,2.72536 8.536858,2.4342073 8.9958604,2.3712348 10.150404,2.3142497 10.402536,2.3421226 l 0.221711,0.02451 L 10.305938,2.69601 C 9.6196214,3.4061907 8.8165728,4.3563633 8.1575181,5.2380343 4.3549497,10.325038 2.7282298,16.518229 3.9487519,21.261502 c 0.2688956,1.045 0.7720419,2.197177 1.3024444,2.982523 0.1420138,0.210275 0.3133886,0.51135 0.3808321,0.669056 0.3504604,0.819494 0.8870664,1.775953 1.3925081,2.48204 0.1707936,0.238593 0.3056673,0.437574 0.2997192,0.44218 -0.00595,0.0046 -0.2000619,-0.03029 -0.4313642,-0.07755 z"
         id="path899"
         transform="matrix(2.271027,0,0,2.1359815,-0.44001276,-0.13041752)" />
      <path
         style="opacity:0.875194;fill:#999999;stroke-width:0.199723"
         d="m 14.209854,31.794646 c -1.473234,-0.169757 -3.451278,-1.00914 -4.8510127,-2.058527 -0.66368,-0.497564 -1.9250649,-1.753631 -1.8021875,-1.794591 0.024425,-0.0081 0.3151784,0.02136 0.6461182,0.06557 1.903197,0.25422 4.333864,0.336102 5.743883,0.193496 1.712585,-0.173207 3.38666,-0.660026 4.938766,-1.436188 0.653793,-0.326943 0.901227,-0.471903 1.694448,-0.992697 2.290338,-1.503734 3.995432,-3.130326 5.891704,-5.620449 1.56492,-2.055002 2.896413,-4.444484 3.786289,-6.79483 0.0973,-0.256985 0.189645,-0.481423 0.205216,-0.498751 0.03488,-0.03881 0.512055,0.921681 0.724088,1.457484 0.507606,1.282713 0.74831,2.636396 0.656047,3.689504 -0.126577,1.444778 -0.631923,2.55875 -1.60982,3.548646 -0.684014,0.692407 -1.230194,1.055215 -2.610521,1.734076 -1.339457,0.65876 -2.286296,1.231153 -3.34499,2.022146 -1.038112,0.775617 -1.673379,1.334213 -3.506854,3.083613 -1.295038,1.235653 -1.507085,1.428678 -2.045401,1.861918 -1.004244,0.808222 -1.971518,1.30028 -2.91605,1.48341 -0.379276,0.07353 -1.199171,0.102323 -1.599723,0.05617 z"
         id="path901"
         transform="matrix(2.271027,0,0,2.1359815,-0.44001276,-0.13041752)" />
      <path
         style="opacity:0.875194;fill:#808080;stroke-width:0.199723"
         d="M 30.351547,12.514673 C 30.171189,12.1989 29.623087,11.385549 29.286901,10.934803 28.706019,10.155977 28.182149,9.5537305 27.444185,8.816395 25.261694,6.6357648 22.96348,5.2443237 20.781621,4.7825829 20.617345,4.7478175 20.306922,4.6194436 19.921406,4.4268445 17.580945,3.2575805 14.643589,2.554067 11.181744,2.3336455 l -0.413656,-0.026338 0.16515,-0.1701336 c 0.245205,-0.2526057 0.87924,-0.7555423 1.30198,-1.0327729 1.952002,-1.28011066 3.965766,-1.34161532 6.027341,-0.18408787 0.202119,0.11348527 0.614484,0.38061497 0.916368,0.59362167 1.443195,1.0183084 2.563687,1.5200495 4.439583,1.9879846 0.744589,0.1857347 1.40241,0.3191582 3.021096,0.6127582 1.478499,0.2681726 1.82087,0.3443594 2.172718,0.4834875 1.927051,0.7619976 2.728418,2.9089961 2.203259,5.9029019 -0.124757,0.711234 -0.469783,2.066718 -0.546605,2.147418 -0.0141,0.01481 -0.06694,-0.04541 -0.117431,-0.133812 z"
         id="path903"
         transform="matrix(2.271027,0,0,2.1359815,-0.44001276,-0.13041752)" />
      <path
         style="opacity:0.875194;fill:#999999;stroke-width:0.199723"
         d="M 30.097313,12.077126 C 29.285616,10.827972 28.652984,10.035165 27.652748,9.0136236 25.465268,6.7795488 23.276616,5.3860218 21.098461,4.8404715 20.579049,4.7103772 20.548811,4.6987279 19.742731,4.3181654 17.934524,3.4644837 15.97248,2.9029592 13.630418,2.5688597 12.857876,2.4586552 12.001631,2.3688166 11.385126,2.3332802 11.14331,2.3193415 10.922537,2.2958428 10.894519,2.281061 c -0.06834,-0.036053 0.33531,-0.405656 0.925768,-0.8476912 1.693591,-1.26787525 3.373292,-1.61281703 5.146679,-1.05691669 0.629849,0.19743767 1.286527,0.54390201 2.23733,1.18041779 1.334427,0.8933336 2.115112,1.2827722 3.325553,1.658926 1.015979,0.3157235 1.762345,0.482754 4.090641,0.9154521 0.735962,0.1367735 1.510009,0.2923573 1.720105,0.3457419 1.233792,0.3135025 2.084741,1.1236328 2.527595,2.4063503 0.339867,0.9844167 0.367439,2.4359986 0.07367,3.8781228 -0.159011,0.780575 -0.411377,1.740647 -0.476481,1.812667 -0.01443,0.01597 -0.180061,-0.207685 -0.368061,-0.497005 z"
         id="path905"
         transform="matrix(2.271027,0,0,2.1359815,-0.44001276,-0.13041752)" />
      <path
         style="opacity:0.875194;fill:#999999;stroke-width:0.199723"
         d="M 30.379055,12.459982 C 30.346615,12.422687 30.143059,12.125507 29.92671,11.799581 29.13664,10.609356 28.401449,9.7336137 27.246714,8.6072271 25.793671,7.1898572 24.451019,6.2111206 23.026703,5.5310181 22.357511,5.211483 21.859669,5.0335439 20.847491,4.7521228 20.658244,4.6995052 20.236739,4.5325363 19.910813,4.3810807 17.457095,3.2408545 14.88104,2.5932713 11.863023,2.3579818 11.589666,2.3366705 11.256458,2.3087902 11.122561,2.2960257 l -0.24345,-0.023208 0.166986,-0.1719768 c 0.213666,-0.2200528 0.838457,-0.7060108 1.256591,-0.9773688 0.663366,-0.43050629 1.400684,-0.74399631 2.109021,-0.89670592 0.474064,-0.10220283 1.487984,-0.0930269 1.989949,0.018009 0.922664,0.20409544 1.524929,0.49185993 2.86873,1.37068992 2.096321,1.3709697 3.015951,1.697149 6.884467,2.4418186 1.035233,0.1992775 2.017844,0.3970034 2.18358,0.4393914 1.402837,0.3587854 2.32115,1.3794649 2.666373,2.9635988 0.09829,0.4510264 0.136392,1.6565474 0.07259,2.296578 -0.07099,0.7121231 -0.492763,2.6243481 -0.603196,2.7347811 -0.02272,0.02272 -0.05807,0.01096 -0.09514,-0.03165 z"
         id="path907"
         transform="matrix(2.271027,0,0,2.1359815,-0.44001276,-0.13041752)" />
      <path
         style="opacity:0.875194;fill:#999999;stroke-width:0.199723"
         d="m 14.137814,31.771484 c -0.05257,-0.01007 -0.233214,-0.04465 -0.401434,-0.07684 -1.508989,-0.288771 -3.432718,-1.199395 -4.6182455,-2.18611 -0.652302,-0.542911 -1.5630928,-1.466283 -1.5042984,-1.525077 0.012837,-0.01284 0.3461983,0.01378 0.7408033,0.05915 1.5398113,0.177028 2.4766546,0.233997 3.8564756,0.234508 1.152279,4.28e-4 1.747266,-0.03965 2.576639,-0.173555 1.720666,-0.277807 3.4735,-0.907469 4.955696,-1.780208 0.48319,-0.284509 1.481102,-0.955808 2.04072,-1.372799 3.442769,-2.565329 6.605878,-6.823631 8.358786,-11.252927 0.159323,-0.402583 0.302843,-0.746091 0.318932,-0.763352 0.03227,-0.03462 0.327585,0.521327 0.57124,1.075394 0.363559,0.826729 0.639315,1.814317 0.751077,2.689898 0.148603,1.164213 -0.05248,2.473028 -0.523218,3.405557 -0.433024,0.857817 -1.208309,1.708647 -2.102192,2.307033 -0.20202,0.135238 -0.855784,0.496897 -1.452807,0.803688 -1.292735,0.664294 -1.711404,0.900895 -2.427307,1.371738 -1.501447,0.987488 -2.149673,1.538372 -5.08113,4.318112 -1.380136,1.308707 -2.109247,1.872586 -2.985544,2.30896 -0.850193,0.423373 -1.327143,0.541084 -2.271326,0.560559 -0.389008,0.008 -0.750298,0.0063 -0.802867,-0.0037 z"
         id="path909"
         transform="matrix(2.271027,0,0,2.1359815,-0.44001276,-0.13041752)" />
      <path
         style="opacity:0.875194;fill:#999999;stroke-width:0.199723"
         d="M 6.797312,27.717597 C 3.3739466,27.007359 1.2737243,25.502953 0.53364427,23.230883 0.28774023,22.475949 0.27879352,22.402131 0.27879352,21.128135 c 0,-1.055136 0.00831,-1.209715 0.0873463,-1.624851 C 0.57135247,18.425417 0.87550088,17.422744 1.4446734,15.947729 2.1646803,14.081825 2.409492,13.209784 2.861425,10.901134 3.6357071,6.9457978 3.772668,6.4009609 4.2402888,5.4159459 5.0830392,3.6407423 6.5113628,2.6915814 8.7280169,2.4337249 9.2593209,2.37192 10.557446,2.3360957 10.539725,2.3837274 10.531577,2.4056285 10.289759,2.6793916 10.002352,2.9920898 6.2920431,7.0288919 4.052992,11.74497 3.6024694,16.472062 c -0.086175,0.904192 -0.058425,2.643592 0.054154,3.394424 0.2024502,1.350211 0.4889966,2.301374 1.0193134,3.383513 0.1545719,0.315412 0.394859,0.754122 0.5339711,0.97491 0.139112,0.220789 0.4311638,0.762724 0.6490039,1.204301 0.383961,0.778317 0.8066948,1.502221 1.2116695,2.074904 0.1081275,0.152906 0.1898005,0.284016 0.1814958,0.291355 -0.00831,0.0073 -0.2129495,-0.0277 -0.4547655,-0.07787 z"
         id="path911"
         transform="matrix(2.271027,0,0,2.1359815,-0.44001276,-0.13041752)" />
      <path
         style="opacity:0.875194;fill:#999999;stroke-width:0.199723"
         d="M 6.7781961,27.70086 C 4.3996243,27.189943 2.7191071,26.345876 1.6258844,25.113028 1.1467861,24.572739 0.7730157,23.907394 0.52598825,23.155111 0.31078071,22.499731 0.28877996,22.271553 0.30820649,20.896413 l 0.0169802,-1.20197 0.13492474,-0.592592 C 0.68886323,18.097167 0.89699808,17.443854 1.5136834,15.794802 2.2320266,13.87391 2.4041009,13.233434 3.0084436,10.231172 3.7129269,6.7314306 3.8013234,6.3887768 4.2403113,5.4560511 4.6223936,4.6442329 5.2230237,3.8961074 5.8499255,3.451167 6.5958183,2.9217734 7.6823502,2.5533358 8.8440531,2.4358733 c 0.3791644,-0.038338 1.6151589,-0.062405 1.6455229,-0.032041 0.0086,0.00863 -0.115853,0.1606135 -0.27663,0.3377395 C 8.6553613,4.4575403 7.6741074,5.7518521 6.6928326,7.384738 4.9447862,10.293566 3.8693592,13.451942 3.5883747,16.50209 c -0.051624,0.560385 -0.052541,2.134476 -0.00162,2.77581 0.1381986,1.740505 0.6527528,3.334021 1.5823402,4.900326 0.1337944,0.225437 0.4575916,0.822788 0.7195489,1.327448 0.5040088,0.97097 0.643481,1.211939 1.0657873,1.841376 0.1448858,0.215949 0.2634288,0.40181 0.2634288,0.413024 0,0.03031 -0.0614,0.02204 -0.4396655,-0.05921 z"
         id="path913"
         transform="matrix(2.271027,0,0,2.1359815,-0.44001276,-0.13041752)" />
      <path
         style="opacity:0.875194;fill:#999999;stroke-width:0.199723"
         d="M 13.640801,31.664725 C 11.960796,31.28758 10.189688,30.414045 8.967251,29.359666 8.5577682,29.006478 7.8338724,28.291668 7.7111736,28.119353 L 7.6332046,28.009855 7.798293,28.0102 c 0.090799,1.91e-4 0.473003,0.03457 0.8493431,0.07642 1.6265909,0.180853 4.0261169,0.251407 5.1460919,0.151302 1.967846,-0.175889 4.095743,-0.83933 5.755423,-1.794442 1.817259,-1.045795 3.663635,-2.519322 5.097496,-4.068131 2.38691,-2.57826 4.225815,-5.487737 5.548593,-8.778872 0.130997,-0.325926 0.251778,-0.607328 0.268403,-0.625339 0.03923,-0.0425 0.602321,1.107234 0.780758,1.594157 0.352424,0.96171 0.558702,2.021184 0.560365,2.878118 0.0034,1.727607 -0.474706,2.927875 -1.628664,4.089108 -0.717046,0.721567 -0.962849,0.882584 -2.872581,1.88173 -1.446458,0.756767 -2.278315,1.279334 -3.397487,2.134277 -0.587292,0.448637 -1.839743,1.566734 -3.077659,2.747512 -1.902579,1.814762 -2.652134,2.414383 -3.632019,2.905507 -0.874469,0.438288 -1.212066,0.516734 -2.313022,0.537463 -0.777854,0.01464 -0.871285,0.0091 -1.242533,-0.07428 z"
         id="path915"
         transform="matrix(2.271027,0,0,2.1359815,-0.44001276,-0.13041752)" />
      <path
         style="opacity:0.875194;fill:#808080;stroke-width:0.199723"
         d="M 30.37831,12.458177 C 30.34726,12.421877 30.110923,12.079093 29.853125,11.696439 29.081515,10.551128 28.375505,9.7125839 27.284283,8.6453671 25.860628,7.2530295 24.630102,6.3394956 23.238392,5.6417255 22.457624,5.2502672 21.951771,5.0606785 20.951176,4.7845002 20.755873,4.7305934 20.420389,4.6075662 20.205656,4.5111055 19.259031,4.0858702 19.021785,3.9840991 18.553584,3.8024201 16.586918,3.0392794 14.335377,2.5533368 11.863023,2.3584181 11.589666,2.3368668 11.256532,2.3087982 11.122727,2.2960435 l -0.243283,-0.02319 0.147703,-0.1530353 c 0.426911,-0.442321 1.420627,-1.12911719 2.094322,-1.4474681 0.827279,-0.39092629 1.359065,-0.51264275 2.239762,-0.51264275 1.26152,0 2.155069,0.3209141 3.727598,1.33874985 2.362699,1.5292815 3.083397,1.7884005 7.168459,2.5773409 2.132977,0.4119378 2.465175,0.4954922 2.905615,0.730818 1.051645,0.5618906 1.75228,1.7032817 1.910548,3.1124393 0.05063,0.450747 0.04985,1.4168434 -0.0015,1.8844219 -0.08526,0.7762547 -0.503213,2.6379107 -0.60656,2.7017837 -0.01684,0.01041 -0.05602,-0.01078 -0.08708,-0.04708 z"
         id="path917"
         transform="matrix(2.271027,0,0,2.1359815,-0.44001276,-0.13041752)" />
      <path
         style="opacity:0.875194;fill:#808080;stroke-width:0.199723"
         d="M 10.926344,28.213737 C 9.8948115,28.169007 7.9682737,27.979438 7.5040415,27.876987 7.3941839,27.852742 6.862984,27.120938 6.4617424,26.441069 5.4907768,24.795854 4.8655572,22.910845 4.5727418,20.745817 4.4576502,19.894849 4.4478919,17.97425 4.5542882,17.113798 4.907807,14.254807 5.9586668,11.658393 7.5716681,9.658601 9.7984815,6.8978071 13.107574,5.0673699 16.661111,4.6307399 c 1.412101,-0.1735075 3.384071,-0.068604 3.95699,0.2105008 0.335129,0.1632626 1.044478,0.6453194 1.548387,1.052246 0.424927,0.3431466 1.182871,1.0791922 1.475609,1.4329757 1.340003,1.6194413 2.087487,3.4278526 2.4099,5.8303466 0.0791,0.589432 0.110557,2.20713 0.05575,2.867383 -0.229821,2.768881 -1.291243,5.367686 -3.044904,7.455198 -2.271555,2.704 -5.847309,4.470215 -9.555858,4.720041 -0.514695,0.03467 -1.930032,0.04252 -2.580645,0.01431 z m 5.734234,-3.509701 c 0.846872,-0.144356 1.453923,-0.341739 2.241896,-0.728952 2.546194,-1.251211 4.14427,-3.560444 4.512346,-6.520377 0.08396,-0.675158 0.08326,-1.901675 -0.0015,-2.596584 C 23.24091,13.443954 22.80624,11.976074 22.199728,10.759729 21.33502,9.0255802 19.908885,7.7701601 18.112694,7.161932 15.780438,6.3721812 13.124706,6.8937654 10.872552,8.5838919 10.361427,8.9674649 9.4026828,9.925057 9.0428373,10.411408 c -1.2679539,1.713709 -1.9315556,3.661429 -1.9383836,5.689299 -0.00193,0.574156 0.1292028,1.608326 0.2787483,2.198276 0.2792597,1.101667 0.8364783,2.258397 1.540705,3.198349 0.2828827,0.377571 1.0531873,1.173758 1.425752,1.473656 1.249965,1.006168 2.688849,1.601304 4.361632,1.804012 0.296308,0.03591 1.600966,-0.01159 1.949287,-0.07096 z"
         id="path919"
         transform="matrix(2.271027,0,0,2.1359815,-0.44001276,-0.13041752)" />
      <path
         style="opacity:0.875194;fill:#666666;stroke-width:0.199723"
         d="m 10.505795,28.178141 c -0.0736,-0.0077 -0.374672,-0.03282 -0.6690564,-0.05573 C 9.1455282,28.068634 7.9535576,27.940425 7.703003,27.892909 7.4628923,27.847373 7.3678647,27.761503 7.02855,27.283452 5.7764069,25.519343 4.9477258,23.307601 4.5918288,20.779868 4.506292,20.172349 4.4930779,17.653172 4.5723981,17.075566 4.9488907,14.333967 5.8687677,11.958079 7.2886149,10.060035 7.7443316,9.450835 8.0843483,9.0678045 8.7140287,8.4542999 10.451511,6.7614522 12.614264,5.5606448 15.003618,4.9621837 c 1.260519,-0.3157219 2.096113,-0.4060003 3.492619,-0.3773462 1.324324,0.027173 1.860148,0.1156211 2.311545,0.3815654 0.744264,0.4384886 1.398172,0.9497035 2.131854,1.666648 0.927575,0.9064153 1.458322,1.6336461 1.998838,2.7388118 0.537634,1.0992743 0.831528,2.0836233 1.072985,3.5937873 0.08355,0.522573 0.120191,2.665935 0.0563,3.29364 -0.238854,2.346665 -1.081077,4.574018 -2.447663,6.473124 -0.764099,1.061846 -1.792686,2.082025 -2.8873,2.863699 -1.604395,1.145713 -3.538687,1.976288 -5.481329,2.353653 -1.057743,0.20547 -1.298042,0.224142 -3.006126,0.233582 -0.883154,0.0049 -1.66595,0.0025 -1.739546,-0.0052 z m 6.1362,-3.457676 c 0.147193,-0.02261 0.293429,-0.051 0.324971,-0.06308 0.03154,-0.01209 0.10664,-0.02839 0.166887,-0.03623 0.183539,-0.02388 0.909698,-0.244832 1.132993,-0.344749 0.798899,-0.35748 1.232727,-0.587367 1.674184,-0.887155 1.103974,-0.749694 2.029127,-1.812115 2.602927,-2.989132 0.118318,-0.242702 0.238362,-0.500767 0.266764,-0.573477 0.0284,-0.07271 0.07402,-0.183813 0.101373,-0.246895 0.0505,-0.116467 0.229334,-0.671826 0.267471,-0.830618 0.241946,-1.00739 0.296378,-1.500665 0.29225,-2.648474 -0.0031,-0.863439 -0.03125,-1.241544 -0.135193,-1.81601 -0.0095,-0.05257 -0.02752,-0.16448 -0.04001,-0.248692 -0.01916,-0.129137 -0.119269,-0.55806 -0.196264,-0.840913 -0.01145,-0.04205 -0.03002,-0.128077 -0.04126,-0.191159 -0.01125,-0.06308 -0.03815,-0.136201 -0.05977,-0.162485 -0.02163,-0.02629 -0.02937,-0.04779 -0.01722,-0.04779 0.01215,0 -0.0043,-0.07312 -0.03658,-0.162485 -0.03227,-0.08937 -0.06682,-0.20429 -0.07676,-0.255386 -0.0099,-0.0511 -0.02961,-0.11131 -0.04369,-0.133811 -0.01408,-0.0225 -0.02902,-0.06348 -0.0332,-0.09106 C 22.750538,11.877993 22.161809,10.60509 21.844776,10.103125 21.372545,9.3554371 20.64447,8.5794085 19.94752,8.0809138 19.515261,7.7717392 18.580073,7.3005597 18.075687,7.1378199 17.75278,7.033634 17.121996,6.8824483 16.966966,6.8720823 c -0.03154,-0.00211 -0.169176,-0.020192 -0.305855,-0.040184 -0.326667,-0.047782 -1.070012,-0.047228 -1.548387,0.00115 -0.381516,0.038586 -1.166552,0.196585 -1.353904,0.2724911 -0.0544,0.022039 -0.133312,0.044855 -0.175367,0.050702 -0.153113,0.021288 -0.919031,0.3381195 -1.348241,0.5577162 -1.355928,0.6937338 -2.6986086,1.8987647 -3.5349586,3.1725594 -0.8516238,1.297057 -1.4076563,2.796846 -1.5503913,4.181877 -0.043881,0.425799 -0.027642,1.844394 0.024727,2.160095 0.026161,0.157707 0.056603,0.355556 0.067651,0.439666 0.011047,0.08411 0.044949,0.256153 0.075336,0.382318 0.030388,0.126165 0.064742,0.278698 0.076342,0.338962 0.039826,0.206901 0.3238685,0.987564 0.5074353,1.394636 0.4679933,1.037809 0.931572,1.697259 1.8204062,2.589566 0.5869794,0.589273 0.7617134,0.739652 1.1854684,1.020236 0.998736,0.661298 1.997355,1.070187 3.15426,1.291527 0.230431,0.04409 0.433016,0.07147 0.450188,0.06086 0.01717,-0.01061 0.05621,-0.002 0.08675,0.01916 0.06974,0.0483 1.664863,0.01321 2.043574,-0.04496 z"
         id="path921"
         transform="matrix(2.271027,0,0,2.1359815,-0.44001276,-0.13041752)" />
      <path
         style="opacity:0.875194;fill:#666666;stroke-width:0.199723"
         d="M 9.5577853,28.084636 C 8.5970245,27.994247 7.807265,27.899772 7.6335233,27.854448 7.4710072,27.812051 7.2895373,27.625959 6.9835036,27.187872 5.9475423,25.704894 5.1837123,23.826416 4.77599,21.758959 4.5717172,20.723144 4.5613474,20.580147 4.5611244,18.795996 4.5609182,17.146545 4.5617818,17.128113 4.6664837,16.547178 5.2627023,13.239078 6.4316241,10.815032 8.4004952,8.8037877 10.456397,6.7036402 12.806516,5.4209714 15.6941,4.8230194 16.47192,4.661951 17.049259,4.6120032 18.1328,4.612038 c 1.466907,4.7e-5 2.095843,0.07863 2.57359,0.3215575 1.10144,0.5600678 2.81974,2.1566473 3.587554,3.3334191 0.652854,1.0005808 1.182834,2.2609924 1.465759,3.4859044 0.25341,1.09713 0.27591,1.317478 0.296259,2.901422 0.01587,1.235693 0.0087,1.534461 -0.04661,1.949821 -0.543447,4.078333 -2.7548,7.494759 -6.194114,9.569584 -1.746107,1.053369 -4.008818,1.803229 -5.887694,1.951176 -0.81001,0.06378 -3.53016,0.0387 -4.3697537,-0.04029 z M 16.32446,24.760125 c 1.542466,-0.127822 3.343496,-0.965812 4.585814,-2.133704 1.178507,-1.107905 2.029684,-2.649571 2.37869,-4.308322 0.155526,-0.739179 0.184834,-1.086912 0.18367,-2.179211 -0.0012,-1.167208 -0.06154,-1.722041 -0.290852,-2.676225 C 22.906258,12.316176 22.634755,11.572242 22.142288,10.614396 21.785227,9.9199145 21.465812,9.4930987 20.809504,8.8334766 20.140509,8.1611043 19.811059,7.9260503 18.943817,7.5023574 17.915893,7.0001632 17.217342,6.8278276 16.097992,6.80028 14.67975,6.7653766 13.55143,7.0338684 12.185394,7.7313103 11.159687,8.2549944 9.9715476,9.2278432 9.2094445,10.168018 c -0.9138084,1.127328 -1.6617566,2.703234 -1.9466802,4.101601 -0.137353,0.67411 -0.1716522,1.156254 -0.1456148,2.046909 0.034839,1.191726 0.1618671,1.879587 0.5284905,2.861786 0.5195142,1.3918 1.137157,2.307555 2.3401203,3.469604 1.1149717,1.077051 2.6691937,1.829722 4.3240967,2.09405 0.371627,0.05936 1.405027,0.06867 2.014603,0.01816 z"
         id="path923"
         transform="matrix(2.271027,0,0,2.1359815,-0.44001276,-0.13041752)" />
      <path
         style="opacity:0.875194;fill:#999999;stroke-width:0.199723"
         d="M 5.0493116,23.756388 C 4.7405781,23.234778 4.6645209,23.077541 4.4160073,22.447131 4.126882,21.713701 3.9390112,21.01628 3.7750431,20.067719 3.6577165,19.388981 3.5964796,17.758547 3.6549828,16.871109 3.9732889,12.042704 6.4490641,6.8143175 10.318473,2.7990287 l 0.405271,-0.4205501 0.722567,0.047396 c 3.185845,0.2089717 6.117752,0.9107373 8.254227,1.9756873 0.39992,0.1993449 0.41211,0.2088614 0.248506,0.1940069 -0.880252,-0.079923 -1.892037,-0.106286 -2.568978,-0.066936 -2.871196,0.1669 -5.738691,1.3193761 -8.0021088,3.2161314 -2.7999004,2.3463288 -4.5197296,5.7449378 -4.8958733,9.6748878 -0.050201,0.524502 -0.05947,0.900343 -0.042899,1.739546 0.034586,1.751544 0.1808291,2.68325 0.6792387,4.327375 0.1054562,0.347872 0.1852107,0.639023 0.1772322,0.647002 -0.00798,0.008 -0.1188334,-0.161756 -0.2463442,-0.377187 z"
         id="path925"
         transform="matrix(2.271027,0,0,2.1359815,-0.44001276,-0.13041752)" />
      <path
         style="opacity:0.875194;fill:#999999;stroke-width:0.199723"
         d="m 22.580166,24.08154 c 0.757301,-0.810118 1.182248,-1.362284 1.661679,-2.159143 1.299738,-2.16029 1.943711,-4.479867 1.945297,-7.006926 0.0017,-2.63582 -0.61486,-4.871955 -1.861098,-6.7502979 C 23.600456,7.0715592 22.512734,6.0044648 21.31659,5.2127907 21.027881,5.0217065 20.798693,4.8583352 20.807285,4.8497433 c 0.03141,-0.031415 1.046466,0.2714803 1.473898,0.4398162 2.872199,1.1311619 6.099317,4.0439146 8.004466,7.2247235 l 0.141835,0.236805 -0.191677,0.502456 c -1.294119,3.39238 -3.245655,6.490824 -5.840269,9.272567 -0.56154,0.60204 -2.108192,2.004652 -2.210517,2.004652 -0.01363,0 0.164181,-0.20215 0.395145,-0.449223 z"
         id="path927"
         transform="matrix(2.271027,0,0,2.1359815,-0.44001276,-0.13041752)" />
      <path
         style="opacity:0.875194;fill:#b3b3b3;stroke-width:0.199723"
         d="m 30.383711,12.422642 c -0.03077,-0.03779 -0.09161,-0.120313 -0.135195,-0.183396 -0.04359,-0.06308 -0.255452,-0.370583 -0.470804,-0.683335 C 29.101447,10.573781 28.525337,9.8757518 27.686544,9.022199 25.568523,6.8669069 23.624514,5.5762509 21.535663,4.9385387 20.61481,4.6574082 20.485751,4.6101071 19.698679,4.265264 17.632329,3.3599262 15.948009,2.8765238 13.717264,2.548589 13.146696,2.4647116 11.92724,2.3359447 11.315656,2.2949943 l -0.394439,-0.026411 0.184165,-0.1883019 c 0.521931,-0.5336574 1.666729,-1.25982119 2.521264,-1.59927847 0.587936,-0.23355314 0.871956,-0.27994685 1.715469,-0.28021548 0.65097,-2.0721e-4 0.818002,0.0121455 1.123639,0.083098 0.818989,0.1901256 1.377354,0.4612234 2.846643,1.38210435 0.538701,0.3376326 0.986806,0.6138774 0.995788,0.6138774 0.009,0 0.141058,0.070678 0.293502,0.1570628 0.429114,0.2431632 1.131977,0.5496733 1.64928,0.7192308 0.916801,0.3005019 1.554051,0.448824 4.130734,0.9614424 0.941068,0.1872206 1.8701,0.3848888 2.064516,0.4392625 0.577423,0.1614921 1.046407,0.4243131 1.423028,0.7974721 0.636183,0.6303338 0.99206,1.3695499 1.170299,2.4309058 0.01942,0.1156511 0.03559,0.5907601 0.03593,1.0557977 6.23e-4,0.857022 -0.0232,1.0908911 -0.211749,2.0792087 -0.09105,0.477237 -0.315981,1.364795 -0.373885,1.475308 -0.04757,0.09078 -0.05311,0.0922 -0.106126,0.02708 z"
         id="path929"
         transform="matrix(2.271027,0,0,2.1359815,-0.44001276,-0.13041752)" />
      <path
         style="opacity:0.875194;fill:#b3b3b3;stroke-width:0.199723"
         d="M 6.8355438,27.716948 C 4.4263311,27.166597 2.9752697,26.475809 1.8544124,25.345646 1.2359402,24.722039 0.80930026,24.017892 0.52458291,23.150831 0.3152324,22.513288 0.28875173,22.236007 0.3069502,20.871986 0.32177611,19.760746 0.32849695,19.668611 0.42631211,19.235662 0.65683792,18.21531 0.88983088,17.466973 1.4135245,16.064894 2.252292,13.81927 2.3814867,13.342885 3.0316636,10.098266 3.6511617,7.0067461 3.8255932,6.3343672 4.2311701,5.474545 4.763808,4.3453527 5.5917826,3.4815778 6.5785571,3.0256599 7.5208592,2.5902895 8.6923884,2.3743589 9.9630411,2.4018481 l 0.5468529,0.011831 -0.464743,0.516129 C 8.257045,4.9156274 6.9891316,6.7099956 5.9524027,8.7219224 4.7164534,11.120466 3.9989786,13.356479 3.6583766,15.871265 c -0.1523723,1.125019 -0.1397421,3.201759 0.025731,4.230794 0.2388262,1.485203 0.6520149,2.622397 1.4713433,4.049487 0.1639566,0.285577 0.439565,0.793104 0.6124628,1.127838 0.488291,0.945342 0.7067997,1.329276 1.0927366,1.920006 0.1964666,0.30072 0.3572117,0.554483 0.3572117,0.563919 0,0.02819 -0.1192793,0.01373 -0.3823178,-0.04636 z"
         id="path931"
         transform="matrix(2.271027,0,0,2.1359815,-0.44001276,-0.13041752)" />
      <path
         style="opacity:0.875194;fill:#b3b3b3;stroke-width:0.199723"
         d="M 13.611367,31.658843 C 12.206641,31.345962 10.586235,30.598665 9.4188487,29.725342 9.0426693,29.443922 8.2632188,28.724465 7.8709616,28.296594 l -0.2453469,-0.267623 0.1277792,-0.01248 c 0.070279,-0.0069 0.3785342,0.01464 0.6850124,0.04779 1.2678097,0.137122 1.9658797,0.179837 3.2908057,0.201363 1.542616,0.02506 2.181359,-0.0085 3.094948,-0.162803 1.988844,-0.33583 3.779391,-1.029445 5.481874,-2.123544 1.858921,-1.194634 3.405809,-2.523811 4.838814,-4.157792 2.192784,-2.500318 3.824707,-5.172834 5.110051,-8.368462 0.10362,-0.257621 0.205687,-0.463509 0.226816,-0.457529 0.06024,0.01705 0.595899,1.117724 0.759012,1.559621 0.193612,0.524521 0.423397,1.434127 0.504496,1.997042 0.07911,0.549116 0.06008,1.614983 -0.03836,2.148239 -0.13768,0.745816 -0.446345,1.472398 -0.89238,2.100619 -0.26279,0.370128 -0.995818,1.116325 -1.364836,1.389355 -0.320991,0.237496 -1.046769,0.652041 -2.160096,1.23379 -2.447746,1.279026 -3.425837,2.017527 -6.499206,4.907186 -1.245142,1.170715 -1.308615,1.228914 -1.739742,1.595207 -0.720976,0.612552 -1.243037,0.970754 -1.873358,1.285368 -0.850341,0.424433 -1.20622,0.505509 -2.313022,0.526948 -0.770305,0.01492 -0.849073,0.0099 -1.252851,-0.08005 z"
         id="path933"
         transform="matrix(2.271027,0,0,2.1359815,-0.44001276,-0.13041752)" />
    </g>
  </g>
</svg>
