<svg viewBox="0 0 173.81 13.93" xmlns="http://www.w3.org/2000/svg"><path d="m0 0h12.76v12.77h-12.76z" fill="#e30613"/><path d="m10.64 7.67h-2.98v2.97h-2.55v-2.97h-2.98v-2.56h2.98v-2.99h2.55v2.99h2.98z" fill="#fff"/><path d="m24.71 1.43a7.17 7.17 0 0 1 1.86 1.19l-1.15 1.38a6 6 0 0 0 -1.42-1 3.55 3.55 0 0 0 -1.41-.25c-1.11 0-1.82.5-1.82 1.22 0 .5.33.77.95 1 .31.1.8.24 1.47.39 2.55.63 3.49 1.19 3.55 2.9 0 1.89-1.53 3.24-3.94 3.24a5.83 5.83 0 0 1 -2.3-.42 7.3 7.3 0 0 1 -2.11-1.42l1.17-1.38a7.86 7.86 0 0 0 1.7 1.19 3.74 3.74 0 0 0 1.58.32c1.16 0 1.95-.52 1.95-1.37 0-.52-.35-.82-.87-1-.27-.08-.66-.18-1.18-.29l-.51-.13c-2.66-.65-3.43-1.38-3.43-3s1.54-3 3.79-3a5.75 5.75 0 0 1 2.12.43z"/><path d="m37.69 4.08-2 7.17h-2.15l-.54-1.95c-.24-.88-.46-1.84-.7-2.91-.23 1.11-.45 2.09-.66 2.91l-.5 1.95h-2.14l-2-7.17h1.9l.58 2.35c.18.72.4 1.77.68 3.17.27-1.25.51-2.31.73-3.17l.62-2.35h1.68l.62 2.35c.23.9.47 2 .74 3.2.27-1.34.49-2.4.69-3.2l.57-2.35z"/><path d="m40.5 3h-1.82v-1.69h1.82zm0 8.24h-1.82v-7.15h1.82z"/><path d="m47.92 5-1 1.19a3.08 3.08 0 0 0 -2.15-.84c-.72 0-1.2.28-1.2.71s.22.45.62.56c.19.06.54.14 1 .25 2 .45 2.77 1 2.77 2.29s-1.09 2.32-2.96 2.32a4.7 4.7 0 0 1 -3.46-1.36l1-1.18a5.48 5.48 0 0 0 1.29.84 2.89 2.89 0 0 0 1.17.22c.73 0 1.25-.26 1.25-.75s-.32-.58-.71-.69l-1-.24c-2.05-.44-2.64-1-2.64-2.22s1.11-2.25 3-2.25a4.34 4.34 0 0 1 3.02 1.15z"/><path d="m55 5-1 1.19a3.07 3.07 0 0 0 -2.14-.84c-.73 0-1.2.28-1.2.71s.22.45.61.56c.2.06.55.14 1.05.25 2 .45 2.78 1 2.78 2.29s-1.1 2.32-3.01 2.32a4.69 4.69 0 0 1 -3.46-1.36l1-1.18a5.48 5.48 0 0 0 1.37.84 2.89 2.89 0 0 0 1.16.22c.73 0 1.25-.26 1.25-.75s-.32-.58-.72-.69l-1-.24c-2-.44-2.63-1-2.63-2.22s1.11-2.25 3-2.25a4.31 4.31 0 0 1 2.94 1.15z"/><path d="m70.16 6.25v5h-1.82v-4.45c0-.86-.35-1.38-1.13-1.38a1.26 1.26 0 0 0 -1.21 1.43v4.4h-1.87v-4.45c0-.91-.38-1.38-1.14-1.38a1.26 1.26 0 0 0 -1.26 1.43v4.4h-1.82v-7.16h1.7v.8a2.23 2.23 0 0 1 2-1 2.16 2.16 0 0 1 2 1.06 2.46 2.46 0 0 1 2.14-1.06 2.2 2.2 0 0 1 2.41 2.36z"/><path d="m78 6.42v4.83h-1.64v-.74a2.69 2.69 0 0 1 -2.31 1c-1.47 0-2.56-.69-2.56-2.05s1.19-2.18 3.09-2.52l1.69-.31v-.18c0-.69-.51-1.1-1.35-1.1a2.11 2.11 0 0 0 -1.12.27 7.27 7.27 0 0 0 -1.11.9l-1.14-1a4.12 4.12 0 0 1 3.34-1.62c2.01-.05 3.11.96 3.11 2.52zm-1.73 1.92v-.42l-1.21.25c-1.22.27-1.79.53-1.79 1.15 0 .45.4.71 1.09.71a1.68 1.68 0 0 0 1.91-1.69z"/><path d="m86.39 1.31v9.94h-1.7v-.94a2.55 2.55 0 0 1 -2.28 1.15c-1.83 0-3.16-1.51-3.16-3.78s1.35-3.78 3.17-3.78a2.56 2.56 0 0 1 2.15.94v-3.53zm-1.75 6.37c0-1.36-.74-2.2-1.79-2.2s-1.76.85-1.76 2.2.68 2.21 1.74 2.21 1.81-.89 1.81-2.21z"/><path d="m92.44 9.72a5.93 5.93 0 0 0 1.09-.72l1 1.12a4.13 4.13 0 0 1 -3.19 1.41 3.52 3.52 0 0 1 -3.74-3.82 3.54 3.54 0 0 1 3.6-3.86c2.15 0 3.35 1.34 3.35 3.58v.71h-5.17a1.89 1.89 0 0 0 2 1.79 2.38 2.38 0 0 0 1.06-.21zm-3-2.88h3.35a1.53 1.53 0 0 0 -1.62-1.56 1.72 1.72 0 0 0 -1.75 1.56z"/><path d="m108.69 6.49c0 3-1.81 5.16-4.69 5.16s-4.69-2.2-4.69-5.16 1.82-5.16 4.69-5.16 4.69 2.2 4.69 5.16zm-8.08 0c0 2.38 1.38 4 3.39 4s3.38-1.65 3.38-4-1.35-4-3.38-4-3.39 1.65-3.39 4z"/><path d="m116.18 8c0 2.16-1.26 3.61-3 3.61a2.56 2.56 0 0 1 -2.27-1.08v3.41h-1.2v-9.36h1.13v1.07a2.54 2.54 0 0 1 2.34-1.25c1.74 0 3 1.46 3 3.6zm-1.18 0c0-1.54-.77-2.57-2-2.57s-2.12 1-2.12 2.57.86 2.59 2.12 2.59 2-1.04 2-2.59z"/><path d="m123.48 10.2a3.77 3.77 0 0 1 -3 1.42 3.27 3.27 0 0 1 -3.38-3.57c0-2.15 1.3-3.66 3.27-3.66s3.09 1.25 3.09 3.29v.53h-5.15a2.22 2.22 0 0 0 2.21 2.41 2.44 2.44 0 0 0 1.12-.25 5.79 5.79 0 0 0 1.15-.89zm-5.14-2.88h3.94a1.84 1.84 0 0 0 -1.91-2 2 2 0 0 0 -2.03 2z"/><path d="m130.47 6.74v4.68h-1.19v-4.31c0-1.11-.56-1.71-1.57-1.71a1.75 1.75 0 0 0 -1.77 1.78v4.24h-1.2v-6.84h1.13v.89a2.42 2.42 0 0 1 2.13-1.08 2.23 2.23 0 0 1 2.47 2.35z"/><path d="m140.7 5.39-.65.81a3.12 3.12 0 0 0 -2.16-.84c-.9 0-1.5.42-1.5 1s.38.68 1.84 1c1.84.43 2.58.93 2.58 2.1s-1.08 2.13-2.74 2.13a4.32 4.32 0 0 1 -3.15-1.28l.71-.78a3.51 3.51 0 0 0 2.46 1.07c.9 0 1.55-.42 1.55-1.08s-.58-.91-1.91-1.2c-1.91-.43-2.45-.76-2.49-1.93s1.08-2 2.65-2a4.07 4.07 0 0 1 2.81 1z"/><path d="m148.39 8a3.39 3.39 0 1 1 -6.77 0 3.39 3.39 0 1 1 6.77 0zm-5.55 0c0 1.56.83 2.62 2.16 2.62s2.16-1.06 2.16-2.62-.84-2.61-2.16-2.61-2.16 1.06-2.16 2.61z"/><path d="m155.23 4.58v6.84h-1.12v-.84a2.31 2.31 0 0 1 -2.07 1 2.12 2.12 0 0 1 -2.43-2.24v-4.76h1.2v4.51a1.31 1.31 0 0 0 1.43 1.5 1.68 1.68 0 0 0 1.76-1.84v-4.17z"/><path d="m160.79 4.71-.23 1a3 3 0 0 0 -.89-.14c-.94 0-1.59.84-1.59 2.18v3.67h-1.2v-6.84h1.12v1a1.82 1.82 0 0 1 1.69-1.12 3.46 3.46 0 0 1 1.1.25z"/><path d="m166.14 6.42a2.53 2.53 0 0 0 -2-1 1.72 1.72 0 0 0 -1.53.77 3.1 3.1 0 0 0 -.53 1.81 3.06 3.06 0 0 0 .54 1.84 1.79 1.79 0 0 0 1.56.76 2.54 2.54 0 0 0 2-1.14l.78.67a3.29 3.29 0 0 1 -2.82 1.49c-2 0-3.32-1.43-3.32-3.62a3.39 3.39 0 0 1 6.06-2.3z"/><path d="m173.81 10.2a3.76 3.76 0 0 1 -3 1.42 3.26 3.26 0 0 1 -3.37-3.57c0-2.15 1.29-3.66 3.26-3.66s3.09 1.25 3.09 3.29v.53h-5.14a2.22 2.22 0 0 0 2.21 2.41 2.42 2.42 0 0 0 1.11-.25 5.79 5.79 0 0 0 1.15-.89zm-5.14-2.88h4a1.85 1.85 0 0 0 -1.92-2 2 2 0 0 0 -2.08 2z"/></svg>