<svg xmlns="http://www.w3.org/2000/svg" xml:space="preserve" viewBox="0 0 3157.2901 278.88">
  <path fill="#e11a27" fill-rule="evenodd" d="M1456.5299 0h278.76v278.88h-278.76z" clip-rule="evenodd"/>
  <path fill="#fff" d="M1503.05 167.48v-55.93h65.06V46.38h55.78v65.17h65.08v55.93h-65.08v64.93h-55.78v-64.93z"/>
  <path d="M115.9 51.23c10.72 4.34 21.95 11.5 33.95 21.72l-20.93 25.04c-10.47-8.69-19.15-14.57-26.55-17.63-7.4-3.07-15.83-4.6-25.78-4.6-20.17 0-33.19 9.2-33.19 22.23 0 9.2 6.13 14.05 17.36 17.63 5.62 1.79 14.55 4.34 26.8 7.15 46.46 11.5 63.56 21.72 64.59 52.9 0 34.5-27.83 59.03-71.73 59.03-16.08 0-29.87-2.56-41.87-7.67-12-4.86-25.02-13.54-38.55-25.81l21.44-25.3c12 10.48 22.46 17.89 30.89 21.72 8.42 3.83 17.87 5.88 28.85 5.88 21.19 0 35.48-9.46 35.48-25.04 0-9.45-6.38-14.82-15.83-18.14-4.85-1.53-12-3.32-21.44-5.37l-8.68-2.04c-48.5-11.75-62.54-25.04-62.54-53.92 0-30.41 28.08-54.17 69.18-54.17 14.8 0 27.57 2.04 38.55 6.39zM352.55 99.52 316.3 230.36h-39.32l-9.7-35.52c-4.34-16.1-8.42-33.73-12.76-53.15-4.08 20.19-8.17 38.08-12 53.15l-9.19 35.52h-39.57L157.51 99.52h34.97l10.47 42.93c3.32 13.03 7.4 32.2 12.51 57.75 4.85-22.74 9.19-42.16 13.27-57.75l11.23-42.93h30.63l11.23 42.93c4.34 16.35 8.68 35.78 13.53 58.26 4.85-24.28 8.94-43.7 12.51-58.26l10.47-42.93zM403.86 80.1h-33.19V48.92h33.19zm0 150.26h-33.19V99.78h33.19zM539.15 115.88l-17.87 21.72c-15.32-12.01-25.02-15.33-39.06-15.33-13.27 0-21.95 5.11-21.95 13.03 0 5.37 4.08 8.18 11.23 10.22 3.57 1.02 9.96 2.56 19.15 4.6 36.76 8.18 50.55 17.38 50.55 41.65 0 25.55-21.19 42.68-55.91 42.68-24.76 0-42.38-6.39-63.05-24.79l19.15-21.47c9.45 7.67 17.1 12.78 23.49 15.33 6.38 2.81 13.27 4.09 21.19 4.09 13.27 0 22.72-4.85 22.72-13.8 0-6.9-5.87-10.48-13.02-12.52-3.57-.77-9.96-2.3-19.15-4.34-37.27-8.18-47.99-17.38-47.99-40.63 0-22.49 20.17-40.89 54.37-40.89 22.45 0 38.03 5.37 56.15 20.45zM669.09 115.88l-17.87 21.72c-15.32-12.01-25.02-15.33-39.06-15.33-13.27 0-21.95 5.11-21.95 13.03 0 5.37 4.08 8.18 11.23 10.22 3.57 1.02 9.96 2.56 19.15 4.6 36.76 8.18 50.55 17.38 50.55 41.65 0 25.55-21.19 42.68-55.91 42.68-24.76 0-42.38-6.39-63.05-24.79l19.15-21.47c9.45 7.67 17.1 12.78 23.49 15.33 6.38 2.81 13.27 4.09 21.19 4.09 13.27 0 22.72-4.85 22.72-13.8 0-6.9-5.87-10.48-13.02-12.52-3.57-.77-9.96-2.3-19.15-4.34-37.27-8.18-47.99-17.38-47.99-40.63 0-22.49 20.17-40.89 54.37-40.89 22.45 0 38.02 5.37 56.15 20.45zM935.85 139.13v91.23h-33.19V149.1c0-15.59-6.38-25.04-20.68-25.04-14.55 0-22.98 10.73-22.98 26.06v80.24h-33.19V149.1c0-16.61-6.89-25.04-20.68-25.04-14.55 0-22.98 10.73-22.98 26.06v80.24h-33.19V99.78h30.89v14.57c7.66-12.52 20.17-18.91 37.27-18.91 16.59 0 29.1 6.9 36.25 19.17 8.93-12.78 21.95-19.17 39.06-19.17 27.59-.01 43.42 16.86 43.42 43.69zM1078.81 142.2v88.16h-29.87v-13.54c-8.17 11.24-22.46 17.89-42.12 17.89-26.8 0-46.72-12.52-46.72-37.31 0-27.6 21.7-39.86 56.42-46l30.63-5.62v-3.07c0-12.52-9.19-19.93-24.51-19.93-8.17 0-15.06 1.53-20.42 4.86-5.36 3.32-12.25 8.69-20.17 16.35l-20.93-19.17c16.59-19.68 35.74-29.39 61.01-29.39 36.51 0 56.68 18.4 56.68 46.77zm-31.66 35.01v-7.67l-21.95 4.6c-22.21 4.86-32.68 9.71-32.68 20.95 0 8.18 7.4 13.03 19.91 13.03 19.15.01 34.72-9.7 34.72-30.91zM1231.72 48.93v181.43h-30.89v-17.12c-9.45 14.05-23.23 20.95-41.61 20.95-33.44 0-57.69-27.6-57.69-69 0-41.91 24.76-69 57.95-69 17.1 0 30.12 5.62 39.06 17.12v-64.4h33.18zm-31.91 116.27c0-24.79-13.53-40.12-32.68-40.12s-31.91 15.59-31.91 40.12c0 24.53 12.25 40.38 31.65 40.38s32.94-15.85 32.94-40.38zM1342 202.51c5.11-2.56 11.74-7.16 19.91-14.05l18.64 20.44c-18.38 18.65-35.99 25.55-58.2 25.55-42.12 0-68.42-27.09-68.42-68.74 0-40.63 25.02-70.27 65.61-70.27 39.06 0 61.01 24.28 61.01 65.16 0 4.86-.25 9.2-.51 13.03h-93.69c3.06 20.19 15.06 32.71 36.76 32.71 7.4 0 13.53-1.28 18.89-3.83zm-54.88-52.65h61.01c-1.28-17.63-12-28.36-29.61-28.36-17.11 0-27.58 10.73-31.4 28.36z"/>
  <g>
    <path d="M1927.85 163.8c0 39.1-25.78 66.44-62.29 66.44-36.25 0-62.03-27.34-62.03-66.44 0-39.1 25.78-66.44 62.03-66.44 36.5 0 62.29 27.34 62.29 66.44zm-101.86 0c0 28.62 15.32 48.04 39.57 48.04s39.82-19.42 39.82-48.04c0-28.62-15.57-48.04-39.82-48.04s-39.57 19.42-39.57 48.04zM2073.35 163.54c0 39.61-23.23 66.44-55.4 66.44-18.63 0-32.68-6.64-41.61-19.93v62.61h-21.95V100.93h20.68v19.68c9.19-15.33 23.49-23 42.89-23 32.16 0 55.39 26.83 55.39 65.93zm-22.46 0c0-28.36-14.04-47.27-36.25-47.27-23.23 0-39.06 17.89-39.06 47.27 0 29.64 15.83 47.53 39.06 47.53 21.7 0 36.25-18.91 36.25-47.53z"/>
  </g>
  <g>
    <path d="M2211.21 204.17c-18.12 19.17-33.44 26.06-54.88 26.06-38.04 0-62.03-26.32-62.03-65.67s23.74-67.21 59.99-67.21c35.74 0 56.67 23 56.67 60.56 0 3.32-.26 6.64-.51 9.71H2116c1.28 25.55 15.06 44.21 40.59 44.21 7.91 0 14.55-1.53 20.42-4.6 5.87-3.07 12.76-8.43 21.19-16.35zm-94.45-52.89h72.5c-1.02-22.23-13.79-36.29-35.23-36.29-20.42 0-33.95 13.03-37.27 36.29zM2343.45 140.54v86.12h-21.95v-79.22c0-20.44-10.21-31.43-28.85-31.43-18.12 0-32.42 14.05-32.42 32.71v77.94h-21.95V100.93h20.68v16.35c8.17-13.03 22.21-19.93 39.57-19.93 29.35.01 44.92 18.41 44.92 43.19zM2529.8 115.76l-12 14.82c-15.57-12.01-25.27-15.33-39.57-15.33-16.59 0-27.57 7.67-27.57 18.65 1.53 11.24 6.89 12.52 33.7 18.65 33.95 7.92 47.48 17.12 47.48 38.59 0 23.51-19.91 39.1-50.29 39.1-22.46 0-38.29-6.13-57.95-23.51l13.02-14.31c18.12 15.08 29.61 19.68 45.18 19.68 16.59 0 28.59-7.67 28.59-19.93 0-12.52-10.72-16.61-35.23-21.98-34.97-7.92-44.93-14.05-45.7-35.52 0-21.98 19.91-37.31 48.76-37.31 20.69 0 34.99 5.11 51.58 18.4z"/>
  </g>
  <g>
    <path d="M2674.81 163.8c0 39.1-25.78 66.44-62.29 66.44-36.25 0-62.03-27.34-62.03-66.44 0-39.1 25.78-66.44 62.03-66.44 36.5 0 62.29 27.34 62.29 66.44zm-101.86 0c0 28.62 15.32 48.04 39.57 48.04s39.82-19.42 39.82-48.04c0-28.62-15.57-48.04-39.82-48.04s-39.57 19.42-39.57 48.04zM2804.23 100.93v125.73h-20.42v-15.59c-7.4 12.27-20.93 19.17-38.04 19.17-30.38 0-44.67-16.61-44.67-41.14v-88.16h21.95v82.79c0 18.14 9.19 27.6 26.29 27.6 19.4 0 32.93-12.01 32.93-33.73v-76.66h21.96zM2910.17 103.23l-4.08 18.4c-6.13-1.79-11.49-2.56-16.34-2.56-17.36 0-29.36 15.33-29.36 40.12v67.46h-21.95V100.93h20.68v19.17c5.87-12.52 16.85-20.44 31.14-20.44 6.12 0 12.76 1.27 19.91 3.57z"/>
  </g>
  <g>
    <path d="M3012.29 134.67c-13.27-14.31-23.49-18.91-36.5-18.91-12.25 0-21.7 4.6-28.08 14.05-6.64 9.45-9.96 20.7-9.96 33.99 0 13.29 3.32 24.53 9.96 33.73 6.64 9.46 16.08 14.05 28.59 14.05 13.53 0 22.98-4.86 37.53-20.95l14.3 12.27c-16.34 20.19-30.63 27.34-51.82 27.34-36.76 0-61.01-26.32-61.01-66.44 0-39.86 24.76-66.44 61.01-66.44 20.68 0 35.23 6.64 50.29 24.02zM3157.29 204.17c-18.12 19.17-33.44 26.06-54.88 26.06-38.04 0-62.03-26.32-62.03-65.67s23.74-67.21 59.99-67.21c35.74 0 56.67 23 56.67 60.56 0 3.32-.26 6.64-.51 9.71h-94.45c1.28 25.55 15.06 44.21 40.59 44.21 7.91 0 14.55-1.53 20.42-4.6 5.87-3.07 12.76-8.43 21.19-16.35zm-94.45-52.89h72.5c-1.02-22.23-13.79-36.29-35.23-36.29-20.42 0-33.95 13.03-37.27 36.29z"/>
  </g>
</svg>
