<svg xmlns="http://www.w3.org/2000/svg" viewBox="0 0 32 32" width="32" height="32">
  <path fill="gray" d="M14.321 31.024c-3.1268-.497-5.8962-1.8518-8.1193-3.9722C1.4626 22.5316.1937 15.652 3.0167 9.7825c2.4918-5.1812 7.6565-8.4572 13.3355-8.459 3.8915-.001 7.5246 1.4555 10.2795 4.1212 3.0414 2.9428 4.6134 6.6203 4.6134 10.792 0 4.2019-1.5785 7.87-4.656 10.819-2.011 1.9271-4.3676 3.1723-7.1906 3.7993-1.0275.2283-4.0678.3294-5.0774.169zm5.4245-1.5476c4.3658-1.1392 7.9276-4.3678 9.4575-8.5726 1.1098-3.0502 1.0692-6.564-.1114-9.6346-.6569-1.7086-1.5646-3.0977-2.9461-4.5083-2.5966-2.6515-5.5235-3.9901-9.0705-4.1486-3.895-.174-7.2563 1.0725-10.0234 3.7172-1.2905 1.2334-2.0843 2.3048-2.837 3.829-1.169 2.3673-1.6395 4.8667-1.3814 7.3391.6505 6.2311 5.0888 11.0373 11.2845 12.2198 1.4223.2715 4.104.1567 5.6278-.241zm-5.476-.6399c-2.3159-.422-4.452-1.41-6.0535-2.7997l-.4373-.3795.4196-.438.4195-.4378.763.6167c.9383.7583 2.6878 1.6369 4.0204 2.0189.8539.2447 1.2908.2865 2.9986.2865 1.7078 0 2.1448-.0418 2.9987-.2865 1.3326-.382 3.0821-1.2606 4.0203-2.0189l.763-.6167.408.422c.4898.507.4773.5292-.7925 1.4071-2.9044 2.0079-6.331 2.8084-9.5278 2.226zM6.358 24.1153c-.7918-.9906-1.9259-3.246-2.2601-4.495-.7764-2.9008-.5079-6.0592.7428-8.7361.4775-1.0221 1.5564-2.7034 1.9838-3.0913.205-.186.2505-.17.6308.2236l.4098.4242-.5486.6755c-1.6636 2.0488-2.6133 5.0929-2.4331 7.7996.1482 2.227.9928 4.5043 2.3231 6.2645l.6541.8654-.4324.4337-.4324.4337Zm18.9986.3557-.414-.43.6536-.863c.8435-1.1139 1.657-2.8395 2.0058-4.2544.406-1.6467.3854-3.9379-.05-5.5773-.3796-1.4293-1.0967-2.9094-1.971-4.068l-.6384-.846.4059-.42c.3764-.3896.4217-.4054.6267-.2194.4312.3914 1.5082 2.0733 1.9954 3.1161 2.0626 4.4148 1.3225 9.8584-1.8457 13.5761l-.3543.4158zM14.0618 23.098l-.0359-1.1592-1.4192-.0356-1.4191-.0355.0831-.5911c.1423-1.0115.1438-1.0134.8532-1.0547.5402-.0315.6712-.0877.797-.3419.106-.214.1499-1.2658.1482-3.5514-.0028-3.7989.0199-3.7264-1.1672-3.7264h-.6872v-1.4957l1.4056-.0354 1.4056-.0354.036-1.1593.0359-1.1592h1.365v2.2558h1.1245V8.7173h1.4993v2.3378l.831.1536c1.6367.3025 2.3867.9448 2.5988 2.2254.1184.715-.1134 1.4732-.6234 2.0395l-.4288.476.4888.2211c1.0006.4526 1.3817 1.1136 1.3817 2.3966 0 1.8937-1.1637 3.0068-3.3939 3.2464-.8292.089-.8316.0905-.9137.529-.0452.242-.0673.7576-.0491 1.146l.033.706-.7118.0376-.712.0376v-2.4081l-.531.0385-.531.0386-.0359 1.1592-.036 1.1593h-1.3555zm3.6421-2.975c1.6088-.306 2.2577-1.142 1.666-2.1466-.3594-.6104-1.1385-.8972-2.6165-.9632l-1.2906-.0575v3.2912h.795c.4373 0 1.088-.0557 1.4461-.1238zm-.2228-4.6542c.8555-.184 1.3551-.6629 1.3551-1.2987 0-.639-.189-.9257-.791-1.1998-.3739-.1703-.8117-.238-1.5517-.24l-1.0307-.0028V15.61h.681c.3746 0 .9764-.0635 1.3373-.1412zm5.9198-8.3991c-.8992-.7377-2.6607-1.6287-3.94-1.9927-1.1987-.3412-3.6275-.4645-4.9457-.2512-1.8046.292-3.5301 1.0306-4.9812 2.1322-.4573.3472-.8742.6313-.9264.6313-.0522 0-.26-.1745-.462-.3877l-.3669-.3877.5426-.4717c.8314-.7227 2.4004-1.6257 3.6287-2.0885 4.018-1.5138 8.5463-.8613 12.0367 1.7345.5345.3975.9718.7683.9718.824 0 .0557-.1827.274-.406.4852l-.4061.384z"/>
</svg>
