<?xml version="1.0" encoding="UTF-8" standalone="no"?>
<svg
   xmlns:dc="http://purl.org/dc/elements/1.1/"
   xmlns:cc="http://creativecommons.org/ns#"
   xmlns:rdf="http://www.w3.org/1999/02/22-rdf-syntax-ns#"
   xmlns:svg="http://www.w3.org/2000/svg"
   xmlns="http://www.w3.org/2000/svg"
   xmlns:sodipodi="http://sodipodi.sourceforge.net/DTD/sodipodi-0.dtd"
   xmlns:inkscape="http://www.inkscape.org/namespaces/inkscape"
   width="32"
   height="32"
   viewBox="0 0 32 32"
   version="1.1"
   id="svg4"
   sodipodi:docname="wbtc-white.svg"
   inkscape:version="1.0.1 (3bc2e813f5, 2020-09-07)">
  <metadata
     id="metadata10">
    <rdf:RDF>
      <cc:Work
         rdf:about="">
        <dc:format>image/svg+xml</dc:format>
        <dc:type
           rdf:resource="http://purl.org/dc/dcmitype/StillImage" />
      </cc:Work>
    </rdf:RDF>
  </metadata>
  <defs
     id="defs8" />
  <sodipodi:namedview
     pagecolor="#ffffff"
     bordercolor="#666666"
     borderopacity="1"
     objecttolerance="10"
     gridtolerance="10"
     guidetolerance="10"
     inkscape:pageopacity="0"
     inkscape:pageshadow="2"
     inkscape:window-width="1916"
     inkscape:window-height="1017"
     id="namedview6"
     showgrid="false"
     inkscape:zoom="20.48"
     inkscape:cx="19.814101"
     inkscape:cy="13.535232"
     inkscape:window-x="0"
     inkscape:window-y="0"
     inkscape:window-maximized="1"
     inkscape:current-layer="svg4"
     inkscape:document-rotation="0" />
  <path
     style="fill:#808080;stroke-width:0.125133"
     d="M 14.321088,31.023953 C 11.19419,30.527064 8.4247795,29.172226 6.2017011,27.051825 1.4625764,22.531587 0.19375142,15.652027 3.0166518,9.7825116 5.508518,4.6012989 10.673163,1.3253033 16.35224,1.3235895 c 3.891444,-0.00117 7.524598,1.4553653 10.279495,4.1210726 3.04133,2.9428677 4.613358,6.6203019 4.613358,10.7919989 0,4.201925 -1.57852,7.869956 -4.655904,10.818999 -2.011056,1.927185 -4.36772,3.172387 -7.190693,3.799381 -1.027496,0.228211 -4.067764,0.329353 -5.077408,0.168912 z m 5.424421,-1.547506 c 4.365801,-1.139276 7.927586,-4.367804 9.457507,-8.572615 1.109809,-3.050183 1.069179,-6.563963 -0.111408,-9.634621 C 28.434705,9.5606313 27.52696,8.1715488 26.145467,6.7608623 23.548904,4.1094281 20.622009,2.7707511 17.074968,2.6122799 13.180039,2.4382661 9.8187474,3.684821 7.0516237,6.3294967 5.7611219,7.5628925 4.9673099,8.6342637 4.2146107,10.158481 c -1.1690519,2.367334 -1.6395072,4.86676 -1.3814156,7.339161 0.6504572,6.231087 5.08877,11.037253 11.2845279,12.219803 1.422292,0.271465 4.104065,0.156624 5.627786,-0.240998 z m -5.47601,-0.639939 C 11.953638,28.414533 9.8174417,27.426544 8.2160165,26.036774 l -0.4373037,-0.379507 0.4195534,-0.437902 0.4195535,-0.437902 0.7630701,0.616756 c 0.9381882,0.758296 2.6877252,1.636846 4.0202992,2.018839 0.853899,0.244778 1.290854,0.286529 2.998653,0.286529 1.7078,0 2.144755,-0.04175 2.998654,-0.286529 1.332574,-0.381993 3.08211,-1.260543 4.020299,-2.018839 l 0.76307,-0.616756 0.407866,0.422088 c 0.489911,0.506994 0.477413,0.529186 -0.79247,1.407079 -2.904376,2.007853 -6.330949,2.808369 -9.527762,2.225878 z M 6.3580382,24.115287 C 5.5661979,23.124662 4.4321488,20.869315 4.0978835,19.62039 3.3214709,16.719462 3.5900036,13.561148 4.840671,10.88419 5.3181922,9.8620926 6.3971453,8.1808166 6.8245033,7.7928884 7.0294608,7.6068414 7.0750015,7.622987 7.4552705,8.0165165 L 7.865131,8.4406691 7.3165454,9.1162294 C 5.652854,11.164996 4.7032021,14.209102 4.8833689,16.915771 c 0.148234,2.22694 0.9927817,4.504326 2.323134,6.264505 L 7.8606032,24.045713 7.4281987,24.47943 6.9957942,24.913148 Z M 25.356633,24.470962 24.94263,24.04101 25.596216,23.177926 c 0.843442,-1.113793 1.65702,-2.839398 2.005815,-4.254341 0.405924,-1.646695 0.385372,-3.937871 -0.05003,-5.577328 -0.379584,-1.429294 -1.096686,-2.90934 -1.970962,-4.0679267 L 24.94263,8.4323118 25.348453,8.0123377 c 0.376482,-0.3896107 0.421793,-0.4054765 0.626728,-0.2194493 0.431248,0.3914583 1.508226,2.0733004 1.995429,3.1161246 2.062583,4.4148 1.322533,9.858394 -1.84566,13.576127 l -0.354314,0.415774 z m -11.2948,-1.37285 -0.03593,-1.159241 -1.419173,-0.03556 -1.419173,-0.03556 0.08314,-0.591055 c 0.142292,-1.011542 0.14377,-1.013368 0.853191,-1.05469 0.540213,-0.03147 0.671252,-0.08767 0.797052,-0.341864 0.105965,-0.214117 0.149839,-1.265884 0.148146,-3.551487 -0.0028,-3.798821 0.01988,-3.726365 -1.167232,-3.726365 H 11.21467 v -0.74784 -0.747835 l 1.405619,-0.03543 1.405619,-0.03543 0.03593,-1.159241 0.03592,-1.1592405 h 0.682504 0.682502 v 1.1279097 1.1279098 h 0.562248 0.562247 V 9.8451732 8.7172635 h 0.749664 0.749663 v 1.168909 1.1689085 l 0.831091,0.1536 c 1.63662,0.302475 2.386657,0.944777 2.598697,2.225423 0.118401,0.71509 -0.113332,1.473202 -0.623421,2.039524 l -0.428732,0.475994 0.488777,0.221077 c 1.000563,0.452561 1.381681,1.113637 1.381681,2.396627 0,1.893643 -1.163725,3.006773 -3.393881,3.246327 -0.829157,0.08907 -0.831627,0.0905 -0.913666,0.529129 -0.04524,0.241902 -0.06737,0.757542 -0.04917,1.145865 l 0.03309,0.706044 -0.711897,0.03758 -0.711897,0.03759 V 23.06583 21.861797 l -0.531011,0.03854 -0.531012,0.03854 -0.03593,1.159241 -0.03592,1.15924 h -0.677814 -0.677815 z m 3.642091,-2.97494 c 1.608819,-0.306032 2.257687,-1.142065 1.666065,-2.146641 -0.359525,-0.610476 -1.138635,-0.897279 -2.616599,-0.96321 l -1.290627,-0.05757 v 1.645631 1.64563 h 0.795082 c 0.437295,0 1.08803,-0.05572 1.446079,-0.123835 z m -0.222793,-4.654303 c 0.855447,-0.184017 1.355118,-0.662863 1.355118,-1.298641 0,-0.639023 -0.188997,-0.925722 -0.79098,-1.199874 -0.373941,-0.170299 -0.811787,-0.238017 -1.551719,-0.239993 l -1.030787,-0.0028 v 1.441218 1.441218 h 0.681042 c 0.374573,0 0.976369,-0.06353 1.337326,-0.141176 z M 23.400884,7.0698047 C 22.501688,6.3320747 20.740153,5.441126 19.460968,5.077076 18.262238,4.7359228 15.833424,4.6125541 14.515155,4.8258595 12.710567,5.1178547 10.985079,5.8564741 9.5340423,6.9580951 9.0767263,7.3052875 8.6598306,7.5893539 8.6076073,7.5893539 c -0.052223,0 -0.2600885,-0.1744655 -0.4619229,-0.3877012 L 7.7787128,6.8139517 8.321293,6.3423094 c 0.831359,-0.7226658 2.400441,-1.6257582 3.628682,-2.0885048 4.018094,-1.51384 8.546337,-0.8613123 12.036729,1.7345135 0.534487,0.397502 0.971796,0.7682981 0.971796,0.823991 0,0.055693 -0.18273,0.2740266 -0.406068,0.4851861 l -0.406067,0.3839264 z"
     id="path836" />
</svg>
