<svg xmlns="http://www.w3.org/2000/svg" viewBox="0 0 32 32" width="32" height="32">
  <path fill="#fc0" d="m13.9969 22.9578-.0556-1.1852H11.1148l.0493-.325c.124-.8178.2114-1.1318.3329-1.1942.0705-.0363.3446-.0847.609-.1075.2645-.0228.5309-.083.592-.1338.2003-.1662.2503-.62.2948-2.6743.0488-2.252-.0304-4.2078-.1834-4.5303-.1228-.2587-.4556-.3624-1.165-.363l-.5161-.0004v-1.3546l.47-.049c.2585-.0271.8914-.0492 1.4065-.0492h.9365l.0556-1.1852.0555-1.1852h1.2814v2.294h1.2234v-2.294h1.3763v2.3635l.2868.0491c2.2294.3823 3.0503 1.0339 3.1377 2.4908.0453.7557-.0994 1.1951-.5971 1.8128-.2093.2597-.3805.4886-.3805.5087 0 .0201.1806.127.4014.2376.8893.4453 1.2145.865 1.3692 1.767.0727.424.0736.6758.004 1.1237-.1156.7433-.3415 1.2171-.7994 1.6765-.5765.5783-1.4113.8902-2.8997 1.0833-.1963.0254-.4027.1014-.4587.1688-.0702.0845-.1101.4396-.1285 1.1432l-.0266 1.0207-.241.0006c-.1326.0004-.4208.0223-.6405.0487l-.3994.048-.0211-1.2092-.0211-1.209-.5348.0194c-.2942.0107-.5461.0307-.5599.0445-.0137.0137-.045.5444-.0694 1.1792l-.0443 1.1542h-1.2582zm3.5569-2.899c1.0722-.1913 1.816-.6708 1.944-1.2532.0727-.3313-.0796-.8145-.356-1.1293-.406-.4624-.9921-.6777-2.0494-.753a890.7232 890.7232 0 0 1-1.166-.084l-.5926-.0432v3.3708l.822-.0027c.452-.0015 1.0812-.0489 1.398-.1054zm-.869-4.5562c1.5471-.163 2.2261-.7364 2.063-1.742-.1295-.7972-.9267-1.1601-2.5538-1.1624l-.8602-.0012v2.982l.325-.0012c.1787-.0007.6404-.0346 1.026-.0752z" opacity=".8752"/>
  <path fill="gray" d="M14.6027 28.7715c-2.4096-.3704-4.938-1.4977-6.4745-2.8866l-.3622-.3273.3692-.4145.3692-.4145.5282.4244c1.2477 1.0025 2.9911 1.8724 4.5808 2.2858.6329.1646.8447.1791 2.638.1811 1.6412.0018 2.0466-.0204 2.5615-.1408 1.5808-.3697 3.4047-1.2555 4.7008-2.2831l.5718-.4534.3267.3457c.1796.1901.3266.3929.3266.4505 0 .2803-1.519 1.3167-2.9438 2.0085-1.0865.5275-2.0519.8594-3.2196 1.1068-.9918.2102-2.9858.2691-3.9727.1174zM25.2584 24.3158l-.3554-.364.4537-.6117c1.1947-1.6108 2.0465-3.538 2.3263-5.2628.1498-.9235.1473-2.8298-.005-3.8551-.2684-1.8084-1.1433-3.758-2.4482-5.4557l-.329-.428.3613-.3558c.1987-.1957.4023-.3558.4524-.3558.1199 0 .815.9328 1.3389 1.7969 1.3364 2.204 1.903 4.1789 1.9084 6.6523.0051 2.3102-.5109 4.3314-1.614 6.3228-.39.704-1.4905 2.2037-1.6554 2.256-.0432.0136-.2385-.139-.434-.3391zM8.1109 7.0946l-.3669-.3725.2885-.2549c1.3112-1.1583 3.3468-2.2183 5.1198-2.6661 1.1709-.2957 1.8633-.3798 3.1237-.3793 1.7374.0008 3.2013.2847 4.7866.9283 1.2124.4922 2.7268 1.4238 3.505 2.1561l.2492.2346-.3611.3666c-.1986.2016-.385.3666-.4143.3666-.0293 0-.2385-.151-.465-.3354-.6407-.522-1.4458-1.0175-2.379-1.4642-1.7416-.8337-2.7722-1.0482-5.0607-1.053-1.2217-.0025-1.58.0242-2.2524.1678-1.559.333-2.8872.9304-4.3568 1.9594-.4863.3406-.9215.6416-.967.6689-.0455.0273-.2478-.118-.4496-.3229ZM6.4549 24.1944c-.846-1.0798-1.8629-3.0012-2.2899-4.327-.4167-1.2939-.5519-2.3598-.5099-4.0207.0416-1.6446.184-2.4927.6381-3.8002.4744-1.366 1.501-3.2159 2.2505-4.0551.3413-.3823.3505-.3868.5352-.2644.1034.0685.2811.2423.395.3863l.2069.2617-.4872.6184c-.5931.7529-.9487 1.3298-1.3346 2.1658-1.8679 4.0456-1.377 8.505 1.3314 12.0959l.5126.6795-.4092.4041-.4092.404z" opacity=".8752"/>
  <path fill="#4d4d4d" d="M13.9192 30.8355c-2.4293-.4493-4.7255-1.4624-6.6523-2.9351-.6522-.4985-1.8863-1.7077-2.4301-2.381-1.3631-1.6879-2.4093-3.7638-2.9094-5.773-.3513-1.4112-.3955-1.8255-.3915-3.6703.0035-1.609.0213-1.841.2093-2.7265.113-.5323.2957-1.2533.406-1.6023C4.1276 5.4904 9.8143 1.2804 16.2895 1.2804c5.223 0 9.8629 2.6373 12.7123 7.2258 2.2468 3.618 2.7228 8.4965 1.2386 12.6927-1.075 3.039-3.5329 5.9948-6.4506 7.7572-1.6973 1.0252-3.8163 1.741-5.6652 1.9135-1.147.1071-3.5472.0876-4.2055-.0341zm4.7045-1.2203c1.363-.2147 2.5308-.6129 3.9741-1.355 1.2701-.6531 2.193-1.3392 3.3267-2.4727 1.1082-1.1083 1.8088-2.0426 2.4409-3.2555 1.0112-1.9401 1.4654-3.665 1.5488-5.8824.0736-1.954-.2466-3.8377-.9646-5.674-1.1542-2.952-3.8456-5.7989-6.8488-7.2446-1.7902-.8618-3.505-1.228-5.773-1.2328-3.0996-.0066-5.4092.7105-7.8946 2.451-1.053.7374-2.7239 2.4381-3.4138 3.4748-1.0163 1.5273-1.741 3.2588-2.1285 5.0861-.182.8586-.2039 1.1262-.2057 2.5278-.0016 1.1982.0309 1.7469.138 2.329.9076 4.937 4.0205 8.7555 8.6 10.5493.8073.3162 2.2291.7002 2.9852.8061.7016.0983 3.3363.0313 4.2153-.1071z" opacity=".8752"/>
</svg>
