<?xml version="1.0" encoding="UTF-8" standalone="no"?>
<svg
   xmlns:dc="http://purl.org/dc/elements/1.1/"
   xmlns:cc="http://creativecommons.org/ns#"
   xmlns:rdf="http://www.w3.org/1999/02/22-rdf-syntax-ns#"
   xmlns:svg="http://www.w3.org/2000/svg"
   xmlns="http://www.w3.org/2000/svg"
   xmlns:sodipodi="http://sodipodi.sourceforge.net/DTD/sodipodi-0.dtd"
   xmlns:inkscape="http://www.inkscape.org/namespaces/inkscape"
   width="32"
   height="32"
   viewBox="0 0 32 32"
   version="1.1"
   id="svg8"
   sodipodi:docname="wbtc-color.svg"
   inkscape:version="1.0.1 (3bc2e813f5, 2020-09-07)">
  <metadata
     id="metadata14">
    <rdf:RDF>
      <cc:Work
         rdf:about="">
        <dc:format>image/svg+xml</dc:format>
        <dc:type
           rdf:resource="http://purl.org/dc/dcmitype/StillImage" />
      </cc:Work>
    </rdf:RDF>
  </metadata>
  <defs
     id="defs12" />
  <sodipodi:namedview
     pagecolor="#ffffff"
     bordercolor="#666666"
     borderopacity="1"
     objecttolerance="10"
     gridtolerance="10"
     guidetolerance="10"
     inkscape:pageopacity="0"
     inkscape:pageshadow="2"
     inkscape:window-width="1916"
     inkscape:window-height="1017"
     id="namedview10"
     showgrid="false"
     inkscape:zoom="13.078125"
     inkscape:cx="25.350511"
     inkscape:cy="21.2374"
     inkscape:window-x="0"
     inkscape:window-y="0"
     inkscape:window-maximized="1"
     inkscape:current-layer="svg8"
     inkscape:document-rotation="0" />
  <path
     style="opacity:0.875194;fill:#ffcc00;stroke-width:0.399446"
     d="m 13.996885,22.95783 -0.05555,-1.185185 h -1.413247 -1.413246 l 0.04924,-0.32497 c 0.123924,-0.817839 0.21145,-1.131869 0.332872,-1.1943 0.07059,-0.03629 0.34468,-0.08465 0.609095,-0.107466 0.264414,-0.02281 0.530834,-0.08304 0.592044,-0.133841 0.200194,-0.166146 0.250198,-0.619895 0.294715,-2.674309 0.0488,-2.251986 -0.0304,-4.207714 -0.183449,-4.530232 -0.122786,-0.258739 -0.455524,-0.362424 -1.164948,-0.36301 l -0.516129,-4.26e-4 v -0.67728 -0.677279 l 0.469998,-0.04912 c 0.258498,-0.02702 0.891435,-0.04913 1.406525,-0.04913 h 0.936528 l 0.05555,-1.1851851 0.05555,-1.1851851 h 0.640677 0.640677 V 9.7678662 10.91482 h 0.611708 0.611709 V 9.7678662 8.6209128 h 0.688172 0.688172 v 1.1817204 1.1817208 l 0.286738,0.04917 c 2.229456,0.38229 3.050271,1.033864 3.137688,2.490742 0.04535,0.755729 -0.09939,1.195158 -0.597091,1.812798 -0.209276,0.259708 -0.380501,0.488648 -0.380501,0.508755 0,0.02011 0.180645,0.127009 0.401433,0.237559 0.889293,0.445274 1.21447,0.864942 1.369158,1.767015 0.07272,0.424057 0.07361,0.675833 0.004,1.123677 -0.115558,0.743298 -0.341486,1.217149 -0.799337,1.676494 -0.576491,0.57837 -1.411341,0.890259 -2.899693,1.083286 -0.196323,0.02546 -0.402774,0.101455 -0.458782,0.168874 -0.0702,0.08451 -0.110099,0.43958 -0.128449,1.143206 l -0.02662,1.020625 -0.241005,6.88e-4 c -0.132552,3.82e-4 -0.420752,0.02226 -0.640443,0.04865 l -0.399439,0.04796 -0.02111,-1.209117 -0.02111,-1.209117 -0.53482,0.01946 c -0.294152,0.01071 -0.546081,0.03073 -0.559843,0.04449 -0.01376,0.01376 -0.04498,0.544419 -0.06938,1.179238 l -0.04436,1.154216 h -0.629068 -0.629068 z m 3.556899,-2.899033 c 1.072226,-0.191312 1.816056,-0.670844 1.943972,-1.253239 0.07275,-0.331228 -0.07956,-0.814502 -0.355887,-1.129222 -0.405984,-0.462391 -0.992167,-0.677784 -2.049423,-0.753062 -0.315412,-0.02246 -0.840143,-0.06025 -1.166069,-0.08398 l -0.592592,-0.04315 v 1.685387 1.685386 l 0.821983,-0.0027 c 0.452091,-0.0015 1.081198,-0.04892 1.398016,-0.105446 z m -0.869042,-4.556216 c 1.547162,-0.163023 2.226165,-0.736372 2.062978,-1.741974 -0.129372,-0.797226 -0.926663,-1.160135 -2.55372,-1.162395 l -0.860215,-0.0012 v 1.491039 1.49104 l 0.32497,-0.0013 c 0.178733,-7.27e-4 0.640428,-0.03456 1.025987,-0.07519 z"
     id="path840" />
  <path
     style="opacity:0.875194;fill:#808080;stroke-width:0.399446"
     d="M 14.602659,28.771488 C 12.193075,28.401071 9.6646851,27.273827 8.1281597,25.884933 l -0.3621363,-0.327342 0.3691872,-0.414477 0.3691873,-0.414477 0.5281939,0.424361 c 1.2477462,1.002462 2.9911502,1.872422 4.5807622,2.285804 0.632928,0.164593 0.844699,0.179134 2.637993,0.181133 1.641273,0.0018 2.046621,-0.02046 2.56153,-0.140869 1.580808,-0.369654 3.40474,-1.255501 4.700851,-2.28311 l 0.57182,-0.453361 0.326627,0.3457 c 0.179645,0.190134 0.326628,0.392877 0.326628,0.45054 0,0.280268 -1.519045,1.316626 -2.943848,2.00842 -1.08645,0.527513 -2.051823,0.8594 -3.219574,1.106864 -0.991782,0.210174 -2.985805,0.269084 -3.972722,0.117369 z"
     id="path842" />
  <path
     style="opacity:0.875194;fill:#808080;stroke-width:0.399446"
     d="m 25.258424,24.31578 -0.355381,-0.363923 0.453676,-0.611709 c 1.194676,-1.610829 2.046518,-3.538004 2.326269,-5.262863 0.149776,-0.923472 0.14736,-2.829776 -0.0049,-3.855104 -0.26851,-1.808409 -1.143428,-3.758029 -2.448312,-5.4557139 L 24.900864,8.3385448 25.262125,7.9827156 c 0.198694,-0.195706 0.402272,-0.3558291 0.452395,-0.3558291 0.119857,0 0.814902,0.9328427 1.338836,1.7968936 1.336406,2.2039489 1.90299,4.1789169 1.90844,6.6523299 0.0051,2.310166 -0.510888,4.331414 -1.614052,6.322755 -0.38999,0.703977 -1.49045,2.20374 -1.655311,2.255942 -0.04325,0.01369 -0.238549,-0.13887 -0.434009,-0.339027 z"
     id="path844" />
  <path
     style="opacity:0.875194;fill:#808080;stroke-width:0.399446"
     d="M 8.1108935,7.0946014 7.7440054,6.7221124 8.0325436,6.4672115 C 9.3437281,5.3088824 11.379251,4.2488793 13.152288,3.8010932 c 1.170873,-0.2957078 1.8633,-0.3797759 3.123708,-0.3792518 1.737402,7.226e-4 3.201348,0.2846121 4.78663,0.9282276 1.212338,0.4922021 2.726769,1.4238493 3.504884,2.1561332 l 0.249258,0.2345761 -0.361079,0.3665905 c -0.198592,0.2016248 -0.385024,0.3665906 -0.414291,0.3665906 -0.02927,0 -0.23848,-0.1509179 -0.464918,-0.3353729 C 22.935737,6.6166408 22.130596,6.1211142 21.197448,5.6744027 19.455806,4.8406542 18.425228,4.6262345 16.136652,4.6214651 14.914968,4.6189192 14.556645,4.6456066 13.88429,4.789218 12.325252,5.1222199 10.997052,5.7195631 9.5275322,6.7486203 9.0411622,7.0892096 8.6059987,7.3901974 8.5605023,7.417482 8.5150058,7.4447666 8.3126819,7.2994704 8.1108935,7.0946014 Z"
     id="path846" />
  <path
     style="opacity:0.875194;fill:#808080;stroke-width:0.399446"
     d="M 6.4548842,24.194391 C 5.608833,23.114591 4.5920352,21.193217 4.1650312,19.86741 3.7483091,18.573528 3.6131292,17.507642 3.6551115,15.846719 3.6966813,14.202113 3.8390858,13.354004 4.2932071,12.046455 4.7676161,10.680491 5.7942598,8.8305983 6.5436673,7.9913873 6.885022,7.6091271 6.8941516,7.6046173 7.0789122,7.7269905 7.1822939,7.7954636 7.3600095,7.9692854 7.4738358,8.113261 L 7.6807926,8.3750349 7.1935775,8.9934332 C 6.6004571,9.7462521 6.2449466,10.323158 5.8589663,11.159176 3.9911265,15.204848 4.481987,19.664234 7.1904058,23.255081 l 0.5125685,0.679567 -0.4092066,0.404067 -0.4092065,0.404066 z"
     id="path848" />
  <path
     style="opacity:0.875194;fill:#4d4d4d;stroke-width:0.399446"
     d="M 13.919209,30.835488 C 11.489862,30.386228 9.1937255,29.373134 7.266879,27.90037 6.6146785,27.401867 5.3805755,26.192688 4.8367923,25.51936 3.4736965,23.831536 2.4274876,21.755613 1.9273577,19.746361 1.5761123,18.335246 1.5319249,17.92092 1.53593,16.07611 1.5394231,14.467121 1.5572342,14.235081 1.7452108,13.349631 1.8582153,12.817332 2.0408722,12.096286 2.1511151,11.747305 4.1276694,5.4904034 9.8144399,1.280411 16.289579,1.280411 c 5.223115,0 9.862923,2.6373065 12.712347,7.2258064 2.246746,3.6179926 2.722793,8.4964936 1.238559,12.6926746 -1.074913,3.038962 -3.532866,5.994779 -6.450582,7.757163 -1.697328,1.025235 -3.816338,1.740988 -5.665198,1.913575 -1.147065,0.107076 -3.547236,0.08759 -4.205496,-0.03414 z m 4.704453,-1.220304 c 1.363094,-0.214705 2.530877,-0.61287 3.974161,-1.355019 1.270117,-0.653107 2.193066,-1.33914 3.326636,-2.472711 1.108276,-1.108276 1.808826,-2.04258 2.440944,-3.255416 1.011193,-1.940162 1.465361,-3.665075 1.548846,-5.882451 0.07357,-1.954008 -0.246687,-3.837638 -0.964689,-5.67398 C 27.795351,8.0236337 25.103974,5.1767095 22.10081,3.7310335 20.310581,2.8692455 18.595725,2.5030436 16.327811,2.4982279 13.228219,2.4916461 10.918557,3.2086882 8.4332085,4.9491318 7.3801091,5.6865979 5.7092969,7.3873092 5.0194433,8.4239862 4.0030928,9.9513061 3.2784502,11.682838 2.8909074,13.510118 c -0.182095,0.858585 -0.203877,1.126224 -0.2057237,2.52776 -0.00158,1.198198 0.030921,1.746926 0.1379452,2.329056 0.9076608,4.937 4.020587,8.755463 8.6001131,10.549308 0.807209,0.316192 2.229061,0.700115 2.985196,0.806053 0.701518,0.09829 3.336276,0.03133 4.215224,-0.107111 z"
     id="path850" />
</svg>
