<svg width="10" height="15" viewBox="0 0 10 15" xmlns="http://www.w3.org/2000/svg"><title>icon-transfer-in</title><path d="M0 9.443c0-1.001.321-1.955.897-2.74.323-.44.547-.426.822-.256.176.248.48.414.272.653a3.564 3.564 0 0 0-.872 2.342c0 1.97 1.621 3.575 3.61 3.575 1.99 0 3.61-1.605 3.61-3.575 0-.837-.288-1.625-.801-2.254-.23-.28-.19-.484.067-.723.258-.239.455-.366.747-.018a4.651 4.651 0 0 1 1.092 2.995c.016 2.583-2.106 4.685-4.714 4.685-2.608 0-4.73-2.1-4.73-4.684zm4.854-1.747a.179.179 0 0 1-.135.05.181.181 0 0 1-.135-.05L1.977 5.172a.17.17 0 0 1 0-.244l.718-.695a.183.183 0 0 1 .251 0l1.088 1.053V.48c0-.095.08-.172.178-.172h1.015c.097 0 .177.077.177.172v4.806l1.088-1.053a.183.183 0 0 1 .252 0l.718.695a.17.17 0 0 1 0 .244L4.853 7.696z" fill="#757171"/></svg>