<svg xmlns="http://www.w3.org/2000/svg" width="10" height="15" viewBox="0 0 10 15"><path fill="#757171" d="M0 9.644c0-1.56.781-3.006 2.092-3.881.25-.175.457-.06.62.187.176.248.25.557 0 .717a3.57 3.57 0 0 0-1.593 2.977c0 1.97 1.621 3.575 3.61 3.575 1.99 0 3.61-1.605 3.61-3.575 0-1.212-.604-2.32-1.62-2.992-.25-.16-.224-.454-.062-.702.162-.248.415-.377.666-.217a4.681 4.681 0 0 1 2.121 3.91c.016 2.584-2.106 4.686-4.714 4.686-2.608 0-4.73-2.101-4.73-4.685zM4.62.05A.179.179 0 0 1 4.756 0a.181.181 0 0 1 .135.05l2.607 2.524a.17.17 0 0 1 0 .244l-.718.695a.183.183 0 0 1-.252 0L5.441 2.459v4.807c0 .095-.08.172-.178.172H4.248a.176.176 0 0 1-.178-.172V2.46L2.982 3.513a.183.183 0 0 1-.251 0l-.718-.695a.17.17 0 0 1 0-.244L4.62.049z"/></svg>