<svg width="320" height="147" viewBox="0 0 320 147" fill="none" xmlns="http://www.w3.org/2000/svg">
<circle cx="205" cy="127" r="3.5" stroke="#F5F5F5"/>
<circle cx="216" cy="127" r="3.5" stroke="#F5F5F5"/>
<circle cx="227" cy="127" r="3.5" stroke="#F5F5F5"/>
<rect x="103.891" y="0.907227" width="111.609" height="52.9004" rx="4.5" stroke="#F5F5F5"/>
<path d="M124.021 16.3525C124.993 16.6405 125.653 17.3485 125.653 18.4645C125.653 19.9405 124.609 20.8525 123.037 20.8525H119.101V12.3325H122.857C124.285 12.3325 125.353 13.0645 125.353 14.4925C125.353 15.4525 124.801 16.0765 124.021 16.3525ZM120.205 13.2205V15.9445H122.629C123.661 15.9445 124.273 15.4285 124.273 14.5525C124.273 13.6885 123.673 13.2205 122.641 13.2205H120.205ZM122.689 19.9645C123.913 19.9645 124.549 19.3525 124.549 18.4045C124.549 17.4685 123.877 16.8325 122.689 16.8325H120.205V19.9645H122.689ZM127.957 12.5485V13.7845H126.925V12.5485H127.957ZM127.957 14.9485V20.8525H126.925V14.9485H127.957ZM132.658 19.9405L132.814 20.7565C132.382 20.9125 131.95 20.9605 131.602 20.9605C130.474 20.9605 130.078 20.4205 130.078 19.4845V15.7285H128.974V14.9485H130.078V12.9685H131.11V14.9485H132.706V15.7285H131.11V19.3645C131.11 19.8925 131.314 20.0845 131.806 20.0845C132.022 20.0845 132.262 20.0485 132.658 19.9405ZM138.939 16.3525C139.911 16.6405 140.571 17.3485 140.571 18.4645C140.571 19.9405 139.527 20.8525 137.955 20.8525H134.019V12.3325H137.775C139.203 12.3325 140.271 13.0645 140.271 14.4925C140.271 15.4525 139.719 16.0765 138.939 16.3525ZM135.123 13.2205V15.9445H137.547C138.579 15.9445 139.191 15.4285 139.191 14.5525C139.191 13.6885 138.591 13.2205 137.559 13.2205H135.123ZM137.607 19.9645C138.831 19.9645 139.467 19.3525 139.467 18.4045C139.467 17.4685 138.795 16.8325 137.607 16.8325H135.123V19.9645H137.607ZM144.528 14.7805C146.244 14.7805 147.444 16.0525 147.444 17.9005C147.444 19.7485 146.244 21.0205 144.528 21.0205C142.8 21.0205 141.6 19.7485 141.6 17.9005C141.6 16.0525 142.8 14.7805 144.528 14.7805ZM144.528 15.6445C143.388 15.6445 142.656 16.5685 142.656 17.9005C142.656 19.2325 143.388 20.1565 144.528 20.1565C145.668 20.1565 146.388 19.2325 146.388 17.9005C146.388 16.5685 145.668 15.6445 144.528 15.6445ZM153.265 20.8525H152.125L150.529 18.4765L148.921 20.8525H147.793L149.941 17.7685L147.973 14.9485H149.113L150.541 17.0485L151.945 14.9485H153.073L151.141 17.7205L153.265 20.8525ZM156.954 12.5005C158.118 12.5005 158.958 13.0765 159.438 14.0125C159.822 14.7565 160.014 15.7165 160.014 16.7725C160.014 17.8285 159.822 18.7885 159.438 19.5325C158.958 20.4685 158.118 21.0445 156.954 21.0445C155.79 21.0445 154.95 20.4685 154.47 19.5325C154.086 18.7885 153.894 17.8285 153.894 16.7725C153.894 15.7165 154.086 14.7565 154.47 14.0125C154.95 13.0765 155.79 12.5005 156.954 12.5005ZM156.954 13.4125C156.246 13.4125 155.73 13.7845 155.406 14.4685C155.118 15.0565 154.974 15.8605 154.974 16.7725C154.974 17.6845 155.118 18.4885 155.406 19.0765C155.73 19.7605 156.246 20.1325 156.954 20.1325C157.662 20.1325 158.178 19.7605 158.502 19.0765C158.79 18.4885 158.934 17.6845 158.934 16.7725C158.934 15.8605 158.79 15.0565 158.502 14.4685C158.178 13.7845 157.662 13.4125 156.954 13.4125ZM162.088 19.9525H166.84V20.8525H161.008V20.4565C161.008 18.6565 162.136 17.9605 163.456 17.1445C164.584 16.4485 165.748 16.0525 165.748 14.8405C165.748 13.8925 165.004 13.4125 164.164 13.4125C163.192 13.4125 162.604 13.8805 161.8 14.8765L161.02 14.3245C161.812 13.1965 162.748 12.5005 164.14 12.5005C165.784 12.5005 166.816 13.5085 166.816 14.8045C166.816 16.5325 165.424 17.0605 164.08 17.8885C163.036 18.5245 162.22 18.9445 162.088 19.9525ZM177.614 14.9485H178.67L177.014 20.8525H175.766L175.214 18.9685C174.878 17.7805 174.662 16.9165 174.494 16.1845C174.326 16.9045 174.11 17.7925 173.774 18.9805L173.258 20.8525H172.01L170.354 14.9485H171.422L172.01 17.1565C172.298 18.2485 172.502 19.1485 172.682 19.9525C172.874 19.1605 173.102 18.2485 173.402 17.1565L174.026 14.9485H174.998L175.622 17.1565C175.934 18.2605 176.162 19.1725 176.342 19.9765C176.522 19.1725 176.738 18.2485 177.026 17.1565L177.614 14.9485ZM182.059 14.7805C183.619 14.7805 184.459 15.5965 184.459 16.7485V20.8525H183.523V20.1205C183.127 20.7205 182.407 21.0445 181.519 21.0445C180.367 21.0445 179.407 20.5645 179.407 19.3885C179.407 18.0085 180.679 17.6005 182.155 17.3365L183.475 17.0965V16.7965C183.475 16.0525 182.911 15.6325 182.095 15.6325C181.339 15.6325 180.847 15.9205 180.151 16.6285L179.491 16.0405C180.223 15.1765 181.039 14.7805 182.059 14.7805ZM181.627 20.1925C182.647 20.1925 183.475 19.6165 183.475 18.6445V17.8645L182.395 18.0805C181.243 18.3205 180.415 18.5365 180.415 19.3525C180.415 19.8925 180.871 20.1925 181.627 20.1925ZM187.126 12.3325V20.8525H186.094V12.3325H187.126ZM189.833 12.3325V20.8525H188.801V12.3325H189.833ZM195.996 19.1725L196.608 19.7965C195.744 20.7205 195 21.0205 194.04 21.0205C192.24 21.0205 191.112 19.7845 191.112 17.9365C191.112 16.0885 192.204 14.7805 193.932 14.7805C195.636 14.7805 196.596 15.8845 196.596 17.6245C196.596 17.7445 196.584 17.9725 196.572 18.0805H192.144C192.204 19.1725 192.768 20.1565 194.052 20.1565C194.808 20.1565 195.252 19.8805 195.996 19.1725ZM193.92 15.6085C192.96 15.6085 192.324 16.2205 192.168 17.3125H195.576C195.528 16.2925 194.952 15.6085 193.92 15.6085ZM200.908 19.9405L201.064 20.7565C200.632 20.9125 200.2 20.9605 199.852 20.9605C198.724 20.9605 198.328 20.4205 198.328 19.4845V15.7285H197.224V14.9485H198.328V12.9685H199.36V14.9485H200.956V15.7285H199.36V19.3645C199.36 19.8925 199.564 20.0845 200.056 20.0845C200.272 20.0845 200.512 20.0485 200.908 19.9405Z" fill="#F5F5F5"/>
<path d="M161.573 28.7764C158.293 28.7764 155.635 31.3017 155.635 34.417C155.635 35.7214 156.102 36.9219 156.883 37.8774L156.081 38.64L154.864 37.4841C154.834 37.4564 154.794 37.4409 154.752 37.4409C154.711 37.4409 154.671 37.4564 154.641 37.4841L153.864 38.2226C153.835 38.2508 153.818 38.2888 153.818 38.3283C153.818 38.3679 153.835 38.4058 153.864 38.4341L155.081 39.59L154.204 40.4231L152.987 39.2672C152.957 39.2395 152.917 39.2241 152.875 39.2241C152.834 39.2241 152.794 39.2395 152.764 39.2672L151.987 40.0057C151.958 40.0339 151.941 40.0719 151.941 40.1114C151.941 40.151 151.958 40.1889 151.987 40.2172L153.204 41.3731L151.928 42.5848C151.899 42.6127 151.883 42.6503 151.883 42.6896C151.883 42.7289 151.899 42.7665 151.928 42.7944L152.754 43.5793C152.815 43.6368 152.915 43.6368 152.975 43.5793L157.928 38.8738C158.971 39.6421 160.253 40.0586 161.573 40.0576C164.852 40.0576 167.51 37.5323 167.51 34.417C167.51 31.3017 164.852 28.7764 161.573 28.7764ZM164.721 37.408C163.881 38.2077 162.762 38.6475 161.573 38.6475C160.383 38.6475 159.264 38.2077 158.424 37.408C157.582 36.6102 157.12 35.547 157.12 34.417C157.12 33.287 157.582 32.2238 158.424 31.426C159.264 30.6263 160.383 30.1865 161.573 30.1865C162.762 30.1865 163.881 30.6263 164.721 31.426C165.563 32.2238 166.026 33.287 166.026 34.417C166.026 35.547 165.563 36.6102 164.721 37.408Z" fill="#F5F5F5"/>
<rect x="116" y="107.5" width="79" height="39" rx="4.5" stroke="#F5F5F5"/>
<path d="M132.611 116.74C133.521 116.74 134.261 117.01 135.131 117.75L134.591 118.39C133.781 117.71 133.211 117.55 132.611 117.55C131.071 117.55 130.121 118.75 130.121 120.45C130.121 122.15 131.091 123.35 132.551 123.35C133.401 123.35 133.961 122.99 134.691 122.31L135.261 122.93C134.351 123.81 133.611 124.16 132.561 124.16C130.461 124.16 129.191 122.58 129.191 120.44C129.191 118.32 130.441 116.74 132.611 116.74ZM138.491 118.94C139.681 118.94 140.251 119.71 140.251 120.63V124H139.391V120.9C139.391 120.09 138.991 119.67 138.261 119.67C137.551 119.67 136.991 120.22 136.991 120.95V124H136.131V116.9H136.991V119.64C137.321 119.18 137.861 118.94 138.491 118.94ZM142.44 117.08V118.11H141.58V117.08H142.44ZM142.44 119.08V124H141.58V119.08H142.44ZM144.667 116.9V124H143.807V116.9H144.667ZM149.553 116.9H150.413V124H149.603V123.24C149.263 123.8 148.703 124.13 147.923 124.13C146.663 124.13 145.753 123.1 145.753 121.54C145.753 119.98 146.683 118.95 147.943 118.95C148.683 118.95 149.213 119.24 149.553 119.74V116.9ZM148.053 123.4C148.943 123.4 149.583 122.71 149.583 121.54C149.583 120.37 148.943 119.69 148.053 119.69C147.203 119.69 146.633 120.43 146.633 121.54C146.633 122.65 147.183 123.4 148.053 123.4ZM157.412 124L155.772 121.53L154.882 122.42V124H154.022V116.9H154.882V121.47L157.172 119.08H158.222L156.352 120.98L158.372 124H157.412ZM162.694 122.6L163.204 123.12C162.484 123.89 161.864 124.14 161.064 124.14C159.564 124.14 158.624 123.11 158.624 121.57C158.624 120.03 159.534 118.94 160.974 118.94C162.394 118.94 163.194 119.86 163.194 121.31C163.194 121.41 163.184 121.6 163.174 121.69H159.484C159.534 122.6 160.004 123.42 161.074 123.42C161.704 123.42 162.074 123.19 162.694 122.6ZM160.964 119.63C160.164 119.63 159.634 120.14 159.504 121.05H162.344C162.304 120.2 161.824 119.63 160.964 119.63ZM167.386 119.08H168.256L166.286 124.68C165.986 125.53 165.666 125.93 164.806 125.93C164.536 125.93 164.256 125.89 164.046 125.83L164.196 125.17C164.376 125.21 164.566 125.23 164.726 125.23C165.106 125.23 165.346 125.07 165.556 124.45L165.616 124.26L163.766 119.08H164.676L165.226 120.71C165.496 121.49 165.806 122.44 166.036 123.14C166.266 122.44 166.566 121.5 166.836 120.69L167.386 119.08ZM176.287 119.64H175.297L174.897 121.54H175.877L175.747 122.15H174.767L174.377 124H173.677L174.067 122.15H172.517L172.127 124H171.427L171.817 122.15H170.817L170.947 121.54H171.947L172.347 119.64H171.357L171.487 119.03H172.477L172.867 117.2H173.567L173.177 119.03H174.727L175.117 117.2H175.817L175.427 119.03H176.417L176.287 119.64ZM174.197 121.54L174.597 119.64H173.047L172.647 121.54H174.197ZM177.816 123.25H181.776V124H176.916V123.67C176.916 122.17 177.856 121.59 178.956 120.91C179.896 120.33 180.866 120 180.866 118.99C180.866 118.2 180.246 117.8 179.546 117.8C178.736 117.8 178.246 118.19 177.576 119.02L176.926 118.56C177.586 117.62 178.366 117.04 179.526 117.04C180.896 117.04 181.756 117.88 181.756 118.96C181.756 120.4 180.596 120.84 179.476 121.53C178.606 122.06 177.926 122.41 177.816 123.25Z" fill="#F5F5F5"/>
<path d="M156.908 130.141C154.449 130.141 152.455 132.134 152.455 134.594C152.455 135.624 152.805 136.571 153.391 137.326L152.789 137.928L151.876 137.015C151.854 136.993 151.824 136.981 151.793 136.981C151.762 136.981 151.732 136.993 151.709 137.015L151.126 137.598C151.104 137.62 151.092 137.65 151.092 137.682C151.092 137.713 151.104 137.743 151.126 137.765L152.039 138.678L151.381 139.335L150.469 138.423C150.446 138.401 150.416 138.389 150.385 138.389C150.354 138.389 150.324 138.401 150.302 138.423L149.719 139.006C149.697 139.028 149.685 139.058 149.685 139.089C149.685 139.121 149.697 139.151 149.719 139.173L150.631 140.085L149.675 141.042C149.653 141.064 149.641 141.094 149.641 141.125C149.641 141.156 149.653 141.185 149.675 141.208L150.294 141.827C150.34 141.873 150.414 141.873 150.46 141.827L154.175 138.112C154.957 138.719 155.918 139.048 156.908 139.047C159.368 139.047 161.361 137.053 161.361 134.594C161.361 132.134 159.368 130.141 156.908 130.141ZM159.269 136.955C158.64 137.586 157.8 137.934 156.908 137.934C156.016 137.934 155.177 137.586 154.547 136.955C153.915 136.325 153.568 135.486 153.568 134.594C153.568 133.702 153.915 132.862 154.547 132.232C155.177 131.601 156.016 131.254 156.908 131.254C157.8 131.254 158.64 131.601 159.269 132.232C159.901 132.862 160.248 133.702 160.248 134.594C160.248 135.486 159.901 136.325 159.269 136.955Z" fill="#F5F5F5"/>
<rect x="240" y="107.5" width="79" height="39" rx="4.5" stroke="#F5F5F5"/>
<path d="M257.889 116.74C258.799 116.74 259.539 117.01 260.409 117.75L259.869 118.39C259.059 117.71 258.489 117.55 257.889 117.55C256.349 117.55 255.399 118.75 255.399 120.45C255.399 122.15 256.369 123.35 257.829 123.35C258.679 123.35 259.239 122.99 259.969 122.31L260.539 122.93C259.629 123.81 258.889 124.16 257.839 124.16C255.739 124.16 254.469 122.58 254.469 120.44C254.469 118.32 255.719 116.74 257.889 116.74ZM263.768 118.94C264.958 118.94 265.528 119.71 265.528 120.63V124H264.668V120.9C264.668 120.09 264.268 119.67 263.538 119.67C262.828 119.67 262.268 120.22 262.268 120.95V124H261.408V116.9H262.268V119.64C262.598 119.18 263.138 118.94 263.768 118.94ZM267.718 117.08V118.11H266.858V117.08H267.718ZM267.718 119.08V124H266.858V119.08H267.718ZM269.945 116.9V124H269.085V116.9H269.945ZM274.831 116.9H275.691V124H274.881V123.24C274.541 123.8 273.981 124.13 273.201 124.13C271.941 124.13 271.031 123.1 271.031 121.54C271.031 119.98 271.961 118.95 273.221 118.95C273.961 118.95 274.491 119.24 274.831 119.74V116.9ZM273.331 123.4C274.221 123.4 274.861 122.71 274.861 121.54C274.861 120.37 274.221 119.69 273.331 119.69C272.481 119.69 271.911 120.43 271.911 121.54C271.911 122.65 272.461 123.4 273.331 123.4ZM282.689 124L281.049 121.53L280.159 122.42V124H279.299V116.9H280.159V121.47L282.449 119.08H283.499L281.629 120.98L283.649 124H282.689ZM287.971 122.6L288.481 123.12C287.761 123.89 287.141 124.14 286.341 124.14C284.841 124.14 283.901 123.11 283.901 121.57C283.901 120.03 284.811 118.94 286.251 118.94C287.671 118.94 288.471 119.86 288.471 121.31C288.471 121.41 288.461 121.6 288.451 121.69H284.761C284.811 122.6 285.281 123.42 286.351 123.42C286.981 123.42 287.351 123.19 287.971 122.6ZM286.241 119.63C285.441 119.63 284.911 120.14 284.781 121.05H287.621C287.581 120.2 287.101 119.63 286.241 119.63ZM292.663 119.08H293.533L291.563 124.68C291.263 125.53 290.943 125.93 290.083 125.93C289.813 125.93 289.533 125.89 289.323 125.83L289.473 125.17C289.653 125.21 289.843 125.23 290.003 125.23C290.383 125.23 290.623 125.07 290.833 124.45L290.893 124.26L289.043 119.08H289.953L290.503 120.71C290.773 121.49 291.083 122.44 291.313 123.14C291.543 122.44 291.843 121.5 292.113 120.69L292.663 119.08ZM301.785 119.44C302.765 119.44 303.445 120.16 303.445 121.1C303.445 122.04 302.755 122.75 301.845 122.75C301.115 122.75 300.525 122.34 299.945 121.67L299.905 121.62C299.195 122.45 298.695 122.75 297.975 122.75C297.085 122.75 296.405 122.04 296.405 121.1C296.405 120.16 297.095 119.44 298.075 119.44C298.795 119.44 299.335 119.84 299.915 120.54L299.925 120.55C300.615 119.74 301.205 119.44 301.785 119.44ZM298.005 122.08C298.525 122.08 298.915 121.8 299.475 121.13L299.455 121.11C298.945 120.53 298.675 120.13 298.065 120.13C297.495 120.13 297.125 120.54 297.125 121.11C297.125 121.69 297.505 122.08 298.005 122.08ZM301.815 122.08C302.345 122.08 302.715 121.7 302.715 121.11C302.715 120.54 302.355 120.13 301.775 120.13C301.255 120.13 300.805 120.48 300.355 121.08L300.395 121.13C300.825 121.65 301.245 122.08 301.815 122.08Z" fill="#F5F5F5"/>
<path d="M280.908 130.141C278.449 130.141 276.455 132.134 276.455 134.594C276.455 135.624 276.805 136.571 277.391 137.326L276.789 137.928L275.876 137.015C275.854 136.993 275.824 136.981 275.793 136.981C275.762 136.981 275.732 136.993 275.709 137.015L275.126 137.598C275.104 137.62 275.092 137.65 275.092 137.682C275.092 137.713 275.104 137.743 275.126 137.765L276.039 138.678L275.381 139.335L274.469 138.423C274.446 138.401 274.416 138.389 274.385 138.389C274.354 138.389 274.324 138.401 274.302 138.423L273.719 139.006C273.697 139.028 273.685 139.058 273.685 139.089C273.685 139.121 273.697 139.151 273.719 139.173L274.631 140.085L273.675 141.042C273.653 141.064 273.641 141.094 273.641 141.125C273.641 141.156 273.653 141.185 273.675 141.208L274.294 141.827C274.34 141.873 274.414 141.873 274.46 141.827L278.175 138.112C278.957 138.719 279.918 139.048 280.908 139.047C283.368 139.047 285.361 137.053 285.361 134.594C285.361 132.134 283.368 130.141 280.908 130.141ZM283.269 136.955C282.64 137.586 281.8 137.934 280.908 137.934C280.016 137.934 279.177 137.586 278.547 136.955C277.915 136.325 277.568 135.486 277.568 134.594C277.568 133.702 277.915 132.862 278.547 132.232C279.177 131.601 280.016 131.254 280.908 131.254C281.8 131.254 282.64 131.601 283.269 132.232C283.901 132.862 284.248 133.702 284.248 134.594C284.248 135.486 283.901 136.325 283.269 136.955Z" fill="#F5F5F5"/>
<rect x="0.859375" y="107.5" width="79" height="39" rx="4.5" stroke="#F5F5F5"/>
<path d="M18.0324 116.74C18.9424 116.74 19.6824 117.01 20.5524 117.75L20.0124 118.39C19.2024 117.71 18.6324 117.55 18.0324 117.55C16.4924 117.55 15.5424 118.75 15.5424 120.45C15.5424 122.15 16.5124 123.35 17.9724 123.35C18.8224 123.35 19.3824 122.99 20.1124 122.31L20.6824 122.93C19.7724 123.81 19.0324 124.16 17.9824 124.16C15.8824 124.16 14.6124 122.58 14.6124 120.44C14.6124 118.32 15.8624 116.74 18.0324 116.74ZM23.9118 118.94C25.1018 118.94 25.6718 119.71 25.6718 120.63V124H24.8118V120.9C24.8118 120.09 24.4118 119.67 23.6818 119.67C22.9718 119.67 22.4118 120.22 22.4118 120.95V124H21.5518V116.9H22.4118V119.64C22.7418 119.18 23.2818 118.94 23.9118 118.94ZM27.8611 117.08V118.11H27.0011V117.08H27.8611ZM27.8611 119.08V124H27.0011V119.08H27.8611ZM30.0883 116.9V124H29.2283V116.9H30.0883ZM34.9742 116.9H35.8342V124H35.0242V123.24C34.6842 123.8 34.1242 124.13 33.3442 124.13C32.0842 124.13 31.1742 123.1 31.1742 121.54C31.1742 119.98 32.1042 118.95 33.3642 118.95C34.1042 118.95 34.6342 119.24 34.9742 119.74V116.9ZM33.4742 123.4C34.3642 123.4 35.0042 122.71 35.0042 121.54C35.0042 120.37 34.3642 119.69 33.4742 119.69C32.6242 119.69 32.0542 120.43 32.0542 121.54C32.0542 122.65 32.6042 123.4 33.4742 123.4ZM42.8325 124L41.1925 121.53L40.3025 122.42V124H39.4425V116.9H40.3025V121.47L42.5925 119.08H43.6425L41.7725 120.98L43.7925 124H42.8325ZM48.1148 122.6L48.6248 123.12C47.9048 123.89 47.2848 124.14 46.4848 124.14C44.9848 124.14 44.0448 123.11 44.0448 121.57C44.0448 120.03 44.9548 118.94 46.3948 118.94C47.8148 118.94 48.6148 119.86 48.6148 121.31C48.6148 121.41 48.6048 121.6 48.5948 121.69H44.9048C44.9548 122.6 45.4248 123.42 46.4948 123.42C47.1248 123.42 47.4948 123.19 48.1148 122.6ZM46.3848 119.63C45.5848 119.63 45.0548 120.14 44.9248 121.05H47.7648C47.7248 120.2 47.2448 119.63 46.3848 119.63ZM52.8066 119.08H53.6766L51.7066 124.68C51.4066 125.53 51.0866 125.93 50.2266 125.93C49.9566 125.93 49.6766 125.89 49.4666 125.83L49.6166 125.17C49.7966 125.21 49.9866 125.23 50.1466 125.23C50.5266 125.23 50.7666 125.07 50.9766 124.45L51.0366 124.26L49.1866 119.08H50.0966L50.6466 120.71C50.9166 121.49 51.2266 122.44 51.4566 123.14C51.6866 122.44 51.9866 121.5 52.2566 120.69L52.8066 119.08ZM61.7083 119.64H60.7183L60.3183 121.54H61.2983L61.1683 122.15H60.1883L59.7983 124H59.0983L59.4883 122.15H57.9383L57.5483 124H56.8483L57.2383 122.15H56.2383L56.3683 121.54H57.3683L57.7683 119.64H56.7783L56.9083 119.03H57.8983L58.2883 117.2H58.9883L58.5983 119.03H60.1483L60.5383 117.2H61.2383L60.8483 119.03H61.8383L61.7083 119.64ZM59.6183 121.54L60.0183 119.64H58.4683L58.0683 121.54H59.6183ZM64.3568 117.2H65.0268V124H64.1468V118.32L62.7068 119.34L62.2668 118.73L64.3568 117.2Z" fill="#F5F5F5"/>
<path d="M41.7674 131.641C39.308 131.641 37.3143 133.634 37.3143 136.094C37.3143 137.124 37.6644 138.071 38.2504 138.826L37.6483 139.428L36.7357 138.515C36.7134 138.493 36.6834 138.481 36.6522 138.481C36.621 138.481 36.591 138.493 36.5687 138.515L35.9857 139.098C35.9639 139.12 35.9516 139.15 35.9516 139.182C35.9516 139.213 35.9639 139.243 35.9857 139.265L36.8983 140.178L36.2406 140.835L35.328 139.923C35.3057 139.901 35.2757 139.889 35.2445 139.889C35.2133 139.889 35.1833 139.901 35.161 139.923L34.578 140.506C34.5562 140.528 34.5439 140.558 34.5439 140.589C34.5439 140.621 34.5562 140.651 34.578 140.673L35.4906 141.585L34.534 142.542C34.5122 142.564 34.5 142.594 34.5 142.625C34.5 142.656 34.5122 142.685 34.534 142.708L35.1537 143.327C35.1991 143.373 35.2738 143.373 35.3192 143.327L39.034 139.612C39.816 140.219 40.7778 140.548 41.7674 140.547C44.2269 140.547 46.2206 138.553 46.2206 136.094C46.2206 133.634 44.2269 131.641 41.7674 131.641ZM44.1288 138.455C43.4989 139.086 42.6595 139.434 41.7674 139.434C40.8754 139.434 40.036 139.086 39.4061 138.455C38.7748 137.825 38.4276 136.986 38.4276 136.094C38.4276 135.202 38.7748 134.362 39.4061 133.732C40.036 133.101 40.8754 132.754 41.7674 132.754C42.6595 132.754 43.4989 133.101 44.1288 133.732C44.7601 134.362 45.1073 135.202 45.1073 136.094C45.1073 136.986 44.7601 137.825 44.1288 138.455Z" fill="#F5F5F5"/>
<path d="M40.3594 107L46.1014 107.602L43.7519 102.328L40.3594 107ZM159.336 53.4495L44.2665 104.712L44.6734 105.626L159.743 54.363L159.336 53.4495Z" fill="#F5F5F5"/>
<path d="M279.5 107L276.102 102.332L273.759 107.608L279.5 107ZM275.59 104.716L161.081 53.8508L160.675 54.7647L275.185 105.63L275.59 104.716Z" fill="#F5F5F5"/>
<path d="M159.539 107L162.426 102L156.652 102L159.539 107ZM159.039 53.9062L159.039 102.5L160.039 102.5L160.039 53.9063L159.039 53.9062Z" fill="#F5F5F5"/>
</svg>
