<svg width="48" height="40" viewBox="0 0 48 40" fill="none" xmlns="http://www.w3.org/2000/svg">
<path d="M46.5547 1.15234H12.9062C12.6527 1.15234 12.4453 1.35977 12.4453 1.61328V4.83984C12.4453 5.09336 12.6527 5.30078 12.9062 5.30078H46.5547C46.8082 5.30078 47.0156 5.09336 47.0156 4.83984V1.61328C47.0156 1.35977 46.8082 1.15234 46.5547 1.15234ZM46.5547 17.5156H12.9062C12.6527 17.5156 12.4453 17.723 12.4453 17.9766V21.2031C12.4453 21.4566 12.6527 21.6641 12.9062 21.6641H46.5547C46.8082 21.6641 47.0156 21.4566 47.0156 21.2031V17.9766C47.0156 17.723 46.8082 17.5156 46.5547 17.5156ZM46.5547 33.8789H12.9062C12.6527 33.8789 12.4453 34.0863 12.4453 34.3398V37.5664C12.4453 37.8199 12.6527 38.0273 12.9062 38.0273H46.5547C46.8082 38.0273 47.0156 37.8199 47.0156 37.5664V34.3398C47.0156 34.0863 46.8082 33.8789 46.5547 33.8789ZM0 3.22656C-6.31389e-09 3.65028 0.0834577 4.06985 0.245608 4.46131C0.407758 4.85278 0.645424 5.20847 0.945038 5.50809C1.24465 5.8077 1.60035 6.04537 1.99181 6.20752C2.38328 6.36967 2.80284 6.45313 3.22656 6.45312C3.65028 6.45313 4.06985 6.36967 4.46131 6.20752C4.85278 6.04537 5.20847 5.8077 5.50809 5.50809C5.8077 5.20847 6.04537 4.85278 6.20752 4.46131C6.36967 4.06985 6.45313 3.65028 6.45312 3.22656C6.45313 2.80284 6.36967 2.38328 6.20752 1.99181C6.04537 1.60035 5.8077 1.24465 5.50809 0.945038C5.20847 0.645424 4.85278 0.407757 4.46131 0.245607C4.06985 0.0834572 3.65028 0 3.22656 0C2.80284 0 2.38328 0.0834572 1.99181 0.245607C1.60035 0.407757 1.24465 0.645424 0.945038 0.945038C0.645424 1.24465 0.407758 1.60035 0.245608 1.99181C0.0834577 2.38328 -6.31389e-09 2.80284 0 3.22656V3.22656ZM0 19.5898C-6.31389e-09 20.0136 0.0834577 20.4331 0.245608 20.8246C0.407758 21.2161 0.645424 21.5718 0.945038 21.8714C1.24465 22.171 1.60035 22.4086 1.99181 22.5708C2.38328 22.7329 2.80284 22.8164 3.22656 22.8164C3.65028 22.8164 4.06985 22.7329 4.46131 22.5708C4.85278 22.4086 5.20847 22.171 5.50809 21.8714C5.8077 21.5718 6.04537 21.2161 6.20752 20.8246C6.36967 20.4331 6.45313 20.0136 6.45312 19.5898C6.45313 19.1661 6.36967 18.7466 6.20752 18.3551C6.04537 17.9636 5.8077 17.6079 5.50809 17.3083C5.20847 17.0087 4.85278 16.771 4.46131 16.6089C4.06985 16.4467 3.65028 16.3633 3.22656 16.3633C2.80284 16.3633 2.38328 16.4467 1.99181 16.6089C1.60035 16.771 1.24465 17.0087 0.945038 17.3083C0.645424 17.6079 0.407758 17.9636 0.245608 18.3551C0.0834577 18.7466 -6.31389e-09 19.1661 0 19.5898V19.5898ZM0 35.9531C-6.31389e-09 36.3768 0.0834577 36.7964 0.245608 37.1879C0.407758 37.5793 0.645424 37.935 0.945038 38.2346C1.24465 38.5343 1.60035 38.7719 1.99181 38.9341C2.38328 39.0962 2.80284 39.1797 3.22656 39.1797C3.65028 39.1797 4.06985 39.0962 4.46131 38.9341C4.85278 38.7719 5.20847 38.5343 5.50809 38.2346C5.8077 37.935 6.04537 37.5793 6.20752 37.1879C6.36967 36.7964 6.45313 36.3768 6.45312 35.9531C6.45313 35.5294 6.36967 35.1098 6.20752 34.7184C6.04537 34.3269 5.8077 33.9712 5.50809 33.6716C5.20847 33.372 4.85278 33.1343 4.46131 32.9722C4.06985 32.81 3.65028 32.7266 3.22656 32.7266C2.80284 32.7266 2.38328 32.81 1.99181 32.9722C1.60035 33.1343 1.24465 33.372 0.945038 33.6716C0.645424 33.9712 0.407758 34.3269 0.245608 34.7184C0.0834577 35.1098 -6.31389e-09 35.5294 0 35.9531V35.9531Z" fill="#1D1D1B"/>
</svg>
