<svg width="53" height="55" viewBox="0 0 53 55" fill="none" xmlns="http://www.w3.org/2000/svg">
<path d="M19.015 8.45269L21.9485 2H30.4893L33.4228 8.45269L39.1124 11.7375L46.1673 11.0517L50.4378 18.4484L46.3163 24.2151V30.785L50.4378 36.5517L46.1673 43.9484L39.1124 43.2625L33.4228 46.5473L30.4893 53H21.9485L19.015 46.5473L13.3253 43.2625L6.27049 43.9484L2 36.5517L6.12138 30.785V24.2151L2 18.4484L6.27049 11.0517L13.3253 11.7375L19.015 8.45269Z" stroke="#1D1D1B" stroke-width="4" stroke-miterlimit="10" stroke-linecap="round" stroke-linejoin="round"/>
<path d="M11.332 43.4563L19.8423 38.5429C23.657 40.7409 28.5071 40.9014 32.5941 38.5418C37.4016 35.7662 39.7168 30.3326 38.7566 25.1689L28.3441 31.1806L24.0941 23.8195L34.5067 17.8077C30.5148 14.3945 24.6516 13.6826 19.8441 16.4582C15.7571 18.8178 13.4711 23.0984 13.4673 27.501L4.95703 32.4145" stroke="#1D1D1B" stroke-width="4" stroke-miterlimit="10" stroke-linecap="round" stroke-linejoin="round"/>
</svg>
