<svg width="14" height="14" viewBox="0 0 14 14" fill="none" xmlns="http://www.w3.org/2000/svg">
<path d="M12.969 6.21888C13.4518 6.21888 13.6533 5.59857 13.2611 5.31263L7.29395 0.972009C7.20873 0.909575 7.10584 0.875916 7.0002 0.875916C6.89456 0.875916 6.79167 0.909575 6.70645 0.972009L0.739264 5.31263C0.347076 5.59701 0.548639 6.21888 1.03301 6.21888H2.0002V12.0626H0.875201C0.806451 12.0626 0.750201 12.1189 0.750201 12.1876V13.0001C0.750201 13.0689 0.806451 13.1251 0.875201 13.1251H13.1252C13.194 13.1251 13.2502 13.0689 13.2502 13.0001V12.1876C13.2502 12.1189 13.194 12.0626 13.1252 12.0626H12.0002V6.21888H12.969ZM4.95333 12.0626H3.1252V6.21888H4.95333V12.0626ZM7.90645 12.0626H6.07833V6.21888H7.90645V12.0626ZM10.8752 12.0626H9.03145V6.21888H10.8752V12.0626Z" fill="#262626"/>
</svg>
