<svg width="13" height="13" viewBox="0 0 13 13" fill="none" xmlns="http://www.w3.org/2000/svg">
<path d="M12.4369 5.34297C12.9198 5.34297 13.1213 4.72266 12.7291 4.43672L6.76195 0.0960935C6.67673 0.033659 6.57384 0 6.4682 0C6.36255 0 6.25966 0.033659 6.17445 0.0960935L0.207258 4.43672C-0.184929 4.72109 0.0166333 5.34297 0.501008 5.34297H1.4682V11.1867H0.343196C0.274446 11.1867 0.218196 11.243 0.218196 11.3117V12.1242C0.218196 12.193 0.274446 12.2492 0.343196 12.2492H12.5932C12.6619 12.2492 12.7182 12.193 12.7182 12.1242V11.3117C12.7182 11.243 12.6619 11.1867 12.5932 11.1867H11.4682V5.34297H12.4369ZM4.42132 11.1867H2.5932V5.34297H4.42132V11.1867ZM7.37445 11.1867H5.54632V5.34297H7.37445V11.1867ZM10.3432 11.1867H8.49945V5.34297H10.3432V11.1867Z" fill="white"/>
</svg>
