<svg width="24" height="23" viewBox="0 0 24 23" fill="none" xmlns="http://www.w3.org/2000/svg">
<path d="M21.9314 3.02451H14.4167C14.2451 2.92157 14.0735 2.81863 13.8676 2.75C13.5931 2.37255 12.4608 1 10.4706 1C7.51961 1 5.66667 3.98529 3.98529 3.98529C3.67647 3.98529 3.5049 4.39706 3.7451 4.60294C3.77941 4.63726 4.46569 5.22059 5.32353 5.35784C5.08333 5.97549 4.94608 7.07353 5.97549 8.2402C5.73529 8.72059 5.4951 9.71569 6.73039 10.7451C6.83333 11.0539 7.17647 11.9461 7.79412 12.8039C7.7598 13.4216 7.72549 13.6618 7.72549 13.902L6.66177 14.451C-0.612746 17.848 2.9902 16.1667 1.96078 16.6471C1.37745 16.9216 1 17.5049 1 18.1912V21.3137C1 21.6912 1.30882 22 1.68627 22H19.5637C19.9412 22 20.25 21.6912 20.25 21.3137V18.1912C20.25 17.5392 19.8726 16.9216 19.2549 16.6471L14.5539 14.451L13.4902 13.902L13.4216 12.7696C13.4902 12.6667 13.5588 12.5637 13.6275 12.4951H18.3971L20.2157 14.3137C20.4216 14.5196 20.7304 14.4167 20.799 14.1422L21.1078 12.5294H22C22.5833 12.5294 23.0294 12.049 23.0294 11.5V4.05392C22.9608 3.5049 22.4804 3.02451 21.9314 3.02451ZM6.21569 4.84314C5.97549 4.46569 5.80392 4.91176 4.87745 4.46569C6.90196 3.71078 8.06863 1.68627 10.5049 1.68627C12.5294 1.68627 13.2843 3.26471 13.5245 3.33333C14.3137 3.64216 14.8284 4.12255 15 4.77451C15.2059 5.42647 15.0343 6.14706 14.8284 6.73039C14.4853 5.32353 13.4559 4.29412 13.3873 4.22549C13.3186 4.15686 13.1814 4.12255 13.0784 4.12255C12.9755 4.15686 12.8726 4.22549 12.8382 4.32843C12.2892 5.4951 10.5735 6.14706 9.71569 6.38726C9.75 5.15196 8.9951 4.91177 8.82353 5.35784C8.27451 6.76471 7.03922 7.51961 6.52451 7.7598C5.32353 6.38726 6.14706 5.2549 6.18137 5.22059C6.25 5.11765 6.28431 4.94608 6.21569 4.84314ZM6.66177 8.48039C7.0049 8.34314 8.20588 7.7598 9.02941 6.45588C9.02941 6.55882 9.02941 6.66176 8.9951 6.79902C8.96078 7.03922 9.16667 7.2451 9.40686 7.17647C9.5098 7.14216 12.1176 6.59314 13.2157 5.04902C13.6618 5.59804 14.3824 6.73039 14.2451 7.93137C14.2108 8.27451 14.7255 8.34314 14.6912 9.06373C14.6569 9.81863 13.8676 10.1961 13.799 10.4363C13.0784 12.7696 11.2598 14.0392 10.4706 13.902C8.30882 13.4902 7.34804 10.4706 7.34804 10.4363C7.31373 10.1618 6.07843 9.5098 6.66177 8.48039ZM8.03431 14.5196L10.0931 16.9902L8.54902 17.8137L7.31373 14.9314L8.03431 14.5196ZM19.5637 18.1912V21.3137H1.68627V18.1912C1.68627 17.7794 1.92647 17.4363 2.26961 17.2647L6.66177 15.2059L8.03431 18.3971C8.10294 18.5686 8.34314 18.6716 8.51471 18.5686L10.6078 17.4363L12.701 18.5686C12.8725 18.6716 13.1127 18.6029 13.1814 18.3971L14.5539 15.2059L18.9461 17.2647C19.3235 17.402 19.5637 17.7794 19.5637 18.1912ZM13.9363 14.8971L12.701 17.7794L11.1569 16.9559L13.2157 14.4853L13.9363 14.8971ZM12.8039 13.9363L10.6422 16.5441L8.48039 13.9363C8.48039 13.902 8.51471 13.5588 8.51471 13.5245C9.09804 14.0735 10.1275 14.6912 10.8824 14.5539C11.6716 14.4167 12.2892 14.0049 12.8039 13.4902V13.9363ZM22.2745 11.4314C22.2745 11.6373 22.1029 11.7745 21.9314 11.7745H20.7304C20.5588 11.7745 20.4216 11.8775 20.3873 12.049L20.1471 13.3186L18.7059 11.8775C18.6373 11.8088 18.5686 11.7745 18.4657 11.7745H14.0049C14.2451 11.2941 14.3824 10.9167 14.451 10.7108C15.549 9.78431 15.6176 8.72059 15.0343 7.93137C15.3431 7.38235 16.098 5.94118 15.6863 4.56863C15.5833 4.2598 15.4461 3.95098 15.2402 3.71078H21.9657C22.1716 3.71078 22.3088 3.88235 22.3088 4.05392V11.4314H22.2745Z" fill="#5E94BF" stroke="#5E94BF" stroke-width="0.5"/>
<path d="M20.2235 5.1875H18.8509C18.6451 5.1875 18.5078 5.32475 18.5078 5.53064C18.5078 5.73652 18.6451 5.87377 18.8509 5.87377H20.2235C20.4294 5.87377 20.5666 5.73652 20.5666 5.53064C20.5666 5.32475 20.4294 5.1875 20.2235 5.1875Z" fill="#5E94BF" stroke="#5E94BF" stroke-width="0.5"/>
<path d="M20.2223 7.38281H18.1634C17.9576 7.38281 17.8203 7.52007 17.8203 7.72595C17.8203 7.93183 17.9576 8.06909 18.1634 8.06909H20.2223C20.4282 8.06909 20.5654 7.93183 20.5654 7.72595C20.5654 7.52007 20.4282 7.38281 20.2223 7.38281Z" fill="#5E94BF" stroke="#5E94BF" stroke-width="0.5"/>
<path d="M20.212 9.57812H16.7806C16.5748 9.57812 16.4375 9.71538 16.4375 9.92126C16.4375 10.1271 16.5748 10.2644 16.7806 10.2644H20.212C20.4179 10.2644 20.5551 10.1271 20.5551 9.92126C20.5551 9.71538 20.4179 9.57812 20.212 9.57812Z" fill="#5E94BF" stroke="#5E94BF" stroke-width="0.5"/>
</svg>
