<?xml version="1.0"?>
<svg xmlns="http://www.w3.org/2000/svg" xmlns:xlink="http://www.w3.org/1999/xlink" version="1.1" viewBox="0 0 252 252" width="100px" height="100px"><g transform="translate(-15.12,-15.12) scale(1.12,1.12)"><g fill="none" fill-rule="nonzero" stroke="none" stroke-width="1" stroke-linecap="butt" stroke-linejoin="miter" stroke-miterlimit="10" stroke-dasharray="" stroke-dashoffset="0" font-family="none" font-weight="none" font-size="none" text-anchor="none" style="mix-blend-mode: normal"><path d="M0,252v-252h252v252z" fill="none"/><g fill="#ec644b"><path d="M126,15.12c-61.17764,0 -110.88,49.70236 -110.88,110.88c0,61.17764 49.70236,110.88 110.88,110.88c61.17764,0 110.88,-49.70236 110.88,-110.88c0,-61.17764 -49.70236,-110.88 -110.88,-110.88zM126,25.2c55.73,0 100.8,45.07 100.8,100.8c0,55.73 -45.07,100.8 -100.8,100.8c-55.73,0 -100.8,-45.07 -100.8,-100.8c0,-55.73 45.07,-100.8 100.8,-100.8zM85.63078,80.59078c-2.05089,0.00054 -3.89697,1.24365 -4.66871,3.1438c-0.77173,1.90015 -0.31523,4.07844 1.15449,5.50885l36.75656,36.75656l-36.75656,36.75656c-1.31665,1.26412 -1.84704,3.14127 -1.3866,4.90749c0.46044,1.76623 1.83975,3.14554 3.60598,3.60598c1.76623,0.46044 3.64338,-0.06995 4.90749,-1.3866l36.75656,-36.75656l36.75656,36.75656c1.26412,1.31665 3.14127,1.84704 4.90749,1.3866c1.76623,-0.46044 3.14554,-1.83975 3.60598,-3.60598c0.46044,-1.76623 -0.06995,-3.64338 -1.3866,-4.90749l-36.75656,-36.75656l36.75656,-36.75656c1.49063,-1.44896 1.93883,-3.66441 1.12863,-5.57884c-0.8102,-1.91443 -2.71259,-3.13509 -4.7905,-3.07382c-1.30939,0.03902 -2.55215,0.58626 -3.465,1.52578l-36.75656,36.75656l-36.75656,-36.75656c-0.94889,-0.97541 -2.25185,-1.5257 -3.61266,-1.52578z"/></g><path d="" fill="none"/></g></g></svg>
