<svg
    xmlns="http://www.w3.org/2000/svg"
    width="14"
    height="14"
    viewBox="0 0 14 14"
    fill="none">
    <path d="M0.3677 14H2.94161C3.14384 14 3.30931 13.8788 3.30931 13.7308V2.96154C3.30931 2.81346 3.14384 2.69231 2.94161 2.69231H0.3677C0.165464 2.69231 -1.66893e-06 2.81346 -1.66893e-06 2.96154V13.7308C-1.66893e-06 13.8788 0.165464 14 0.3677 14ZM5.67702 14H8.25093C8.45317 14 8.61863 13.8788 8.61863 13.7308V5.58654C8.61863 5.43846 8.45317 5.31731 8.25093 5.31731H5.67702C5.47479 5.31731 5.30932 5.43846 5.30932 5.58654V13.7308C5.30932 13.8788 5.47479 14 5.67702 14ZM10.8677 14H13.4416C13.6439 14 13.8093 13.8788 13.8093 13.7308V0.269231C13.8093 0.121154 13.6439 0 13.4416 0H10.8677C10.6655 0 10.5 0.121154 10.5 0.269231V13.7308C10.5 13.8788 10.6655 14 10.8677 14Z" fill="#1D1D1B" />
</svg>
