<svg
    xmlns="http://www.w3.org/2000/svg"
    width="20"
    height="15"
    viewBox="0 0 20 15"
    fill="none">
    <path d="M19.1959 0.00172379L14.5271 0.564224C14.3724 0.582974 14.3068 0.772817 14.417 0.882973L15.8068 2.27282L10.5099 7.56969L8.124 5.1861C7.97634 5.03844 7.73962 5.04079 7.59431 5.1861L0.0544689 12.7283C0.0195746 12.7635 0 12.8111 0 12.8607C0 12.9103 0.0195746 12.9579 0.0544689 12.9931L1.10916 14.0525C1.18181 14.1252 1.30134 14.1252 1.374 14.0525L7.85916 7.56969L10.2428 9.95329C10.3904 10.0986 10.6271 10.0986 10.7724 9.95329L17.1334 3.59704L18.5232 4.98688C18.5481 5.01166 18.5795 5.02896 18.6137 5.0368C18.648 5.04464 18.6837 5.04272 18.717 5.03124C18.7502 5.01976 18.7795 4.9992 18.8016 4.97188C18.8237 4.94457 18.8377 4.9116 18.842 4.87672L19.4045 0.207973C19.4209 0.0884423 19.3178 -0.0146825 19.1959 0.00172379Z" fill="#fff" />
</svg>
