<svg width="20" height="20" viewBox="0 0 20 20" fill="none" xmlns="http://www.w3.org/2000/svg">
<path d="M20 10C20 15.5228 15.5228 20 10 20C4.47715 20 0 15.5228 0 10C0 4.47715 4.47715 0 10 0C15.5228 0 20 4.47715 20 10Z" fill="#7ABA7A"/>
<path d="M15.0003 6.15295L9.60063 13.6663C9.52516 13.772 9.42567 13.8582 9.31041 13.9176C9.19515 13.977 9.06743 14.008 8.93785 14.008C8.80827 14.008 8.68056 13.977 8.56529 13.9176C8.45003 13.8582 8.35054 13.772 8.27507 13.6663L5.07785 9.22005C4.98042 9.08367 5.07785 8.89327 5.2445 8.89327H6.44699C6.70851 8.89327 6.95721 9.01935 7.11105 9.23549L8.93657 11.7777L10.9518 8.97303L12.9671 6.16839C13.1209 5.95482 13.3671 5.82617 13.6311 5.82617H14.8336C15.0003 5.82617 15.0977 6.01658 15.0003 6.15295Z" fill="white"/>
</svg>
