<svg width="8" height="12" viewBox="0 0 8 12" fill="none" xmlns="http://www.w3.org/2000/svg">
<path d="M7.43753 1.41058V0.202767C7.43753 0.0980799 7.31721 0.0402674 7.23596 0.10433L0.192206 5.60589C0.132366 5.65243 0.083938 5.71203 0.050627 5.78013C0.017316 5.84824 0 5.92305 0 5.99886C0 6.07467 0.017316 6.14949 0.050627 6.21759C0.083938 6.28569 0.132366 6.34529 0.192206 6.39183L7.23596 11.8934C7.31878 11.9575 7.43753 11.8996 7.43753 11.795V10.5871C7.43753 10.5106 7.40159 10.4371 7.34221 10.3903L1.71721 5.99964L7.34221 1.60745C7.40159 1.56058 7.43753 1.48714 7.43753 1.41058Z" fill="white"/>
</svg>
