<svg width="9" height="12" viewBox="0 0 9 12" fill="none" xmlns="http://www.w3.org/2000/svg">
<g clip-path="url(#clip0_2_5)">
<path d="M8.31277 1.4107V0.202889C8.31277 0.0982019 8.19245 0.0403894 8.1112 0.104452L1.06745 5.60601C1.00761 5.65255 0.959182 5.71215 0.925871 5.78025C0.89256 5.84836 0.875244 5.92317 0.875244 5.99898C0.875244 6.07479 0.89256 6.14961 0.925871 6.21771C0.959182 6.28581 1.00761 6.34541 1.06745 6.39195L8.1112 11.8935C8.19402 11.9576 8.31277 11.8997 8.31277 11.7951V10.5872C8.31277 10.5107 8.27683 10.4372 8.21745 10.3904L2.59245 5.99976L8.21745 1.60757C8.27683 1.5607 8.31277 1.48726 8.31277 1.4107Z" fill="#262626"/>
</g>
<defs>
<clipPath id="clip0_2_5">
<rect width="9" height="12" fill="white"/>
</clipPath>
</defs>
</svg>
