<svg width="49" height="52" viewBox="0 0 49 52" fill="none" xmlns="http://www.w3.org/2000/svg">
<path d="M48.2256 32.3722L44.4517 29.1457C44.6303 28.0509 44.7225 26.9332 44.7225 25.8154C44.7225 24.6976 44.6303 23.5798 44.4517 22.4851L48.2256 19.2585C48.5102 19.0149 48.714 18.6903 48.8097 18.328C48.9054 17.9657 48.8886 17.5829 48.7614 17.2304L48.7096 17.0806C47.6706 14.1769 46.1149 11.485 44.1175 9.1352L44.0138 9.01421C43.7715 8.7293 43.4485 8.5245 43.0875 8.42679C42.7265 8.32908 42.3443 8.34304 41.9914 8.46685L37.3071 10.132C35.5786 8.7146 33.6484 7.59683 31.5627 6.81323L30.6581 1.91577C30.5899 1.54726 30.4111 1.20825 30.1456 0.943757C29.8801 0.679267 29.5404 0.501827 29.1716 0.43501L29.016 0.406201C26.0142 -0.1354 22.8567 -0.1354 19.8549 0.406201L19.6993 0.43501C19.3306 0.501827 18.9908 0.679267 18.7253 0.943757C18.4598 1.20825 18.2811 1.54726 18.2128 1.91577L17.3025 6.83628C15.2334 7.62004 13.3065 8.73722 11.5984 10.1435L6.8795 8.46685C6.52669 8.34206 6.14426 8.32759 5.78302 8.42536C5.42179 8.52313 5.09885 8.72851 4.85714 9.01421L4.75343 9.1352C2.75841 11.4867 1.20292 14.1781 0.16134 17.0806L0.109484 17.2304C-0.149793 17.9506 0.0633906 18.7573 0.645324 19.2585L4.46534 22.5197C4.28673 23.6029 4.2003 24.7091 4.2003 25.8096C4.2003 26.9159 4.28673 28.0221 4.46534 29.0996L0.645324 32.3607C0.360671 32.6044 0.15694 32.9289 0.061224 33.2912C-0.0344923 33.6535 -0.0176597 34.0363 0.109484 34.3888L0.16134 34.5386C1.20421 37.4425 2.74835 40.1217 4.75343 42.484L4.85714 42.605C5.09945 42.8899 5.42239 43.0947 5.78341 43.1925C6.14443 43.2902 6.52658 43.2762 6.8795 43.1524L11.5984 41.4757C13.3153 42.8874 15.234 44.0051 17.3025 44.783L18.2128 49.7035C18.2811 50.072 18.4598 50.411 18.7253 50.6755C18.9908 50.94 19.3306 51.1174 19.6993 51.1842L19.8549 51.213C22.8843 51.7575 25.9866 51.7575 29.016 51.213L29.1716 51.1842C29.5404 51.1174 29.8801 50.94 30.1456 50.6755C30.4111 50.411 30.5899 50.072 30.6581 49.7035L31.5627 44.806C33.6476 44.0245 35.5887 42.903 37.3071 41.4873L41.9914 43.1524C42.3442 43.2772 42.7267 43.2916 43.0879 43.1939C43.4491 43.0961 43.7721 42.8907 44.0138 42.605L44.1175 42.484C46.1226 40.116 47.6667 37.4425 48.7096 34.5386L48.7614 34.3888C49.0207 33.6801 48.8075 32.8735 48.2256 32.3722ZM40.3608 23.165C40.5049 24.035 40.5798 24.9281 40.5798 25.8211C40.5798 26.7142 40.5049 27.6073 40.3608 28.4773L39.9806 30.7877L44.2846 34.4695C43.6321 35.9727 42.8085 37.3956 41.8301 38.7101L36.4832 36.8145L34.674 38.301C33.297 39.4303 31.7644 40.3176 30.105 40.9399L27.9098 41.7638L26.8784 47.3527C25.2511 47.5371 23.6082 47.5371 21.981 47.3527L20.9496 41.7523L18.7717 40.9168C17.1296 40.2946 15.6027 39.4073 14.2372 38.2837L12.428 36.7915L7.04659 38.7043C6.0671 37.3849 5.24894 35.9618 4.5921 34.4637L8.9422 30.7474L8.56769 28.4427C8.42941 27.5842 8.3545 26.6969 8.3545 25.8211C8.3545 24.9396 8.42364 24.0581 8.56769 23.1996L8.9422 20.8949L4.5921 17.1786C5.24318 15.6748 6.0671 14.2574 7.04659 12.9379L12.428 14.8508L14.2372 13.3585C15.6027 12.235 17.1296 11.3477 18.7717 10.7254L20.9554 9.90151L21.9867 4.30112C23.6058 4.11675 25.2594 4.11675 26.8842 4.30112L27.9155 9.88999L30.1108 10.7139C31.7644 11.3362 33.3027 12.2235 34.6798 13.3528L36.489 14.8393L41.8358 12.9437C42.8153 14.2631 43.6335 15.6863 44.2903 17.1843L39.9863 20.8661L40.3608 23.165ZM24.4412 15.1043C18.8408 15.1043 14.3006 19.6446 14.3006 25.245C14.3006 30.8454 18.8408 35.3856 24.4412 35.3856C30.0416 35.3856 34.5818 30.8454 34.5818 25.245C34.5818 19.6446 30.0416 15.1043 24.4412 15.1043ZM29.0045 29.8083C28.406 30.4085 27.6947 30.8845 26.9116 31.2088C26.1284 31.5331 25.2889 31.6994 24.4412 31.6981C22.7185 31.6981 21.0994 31.024 19.8779 29.8083C19.2777 29.2097 18.8017 28.4984 18.4774 27.7153C18.1531 26.9322 17.9868 26.0926 17.9881 25.245C17.9881 23.5222 18.6622 21.9032 19.8779 20.6817C21.0994 19.4602 22.7185 18.7918 24.4412 18.7918C26.164 18.7918 27.783 19.4602 29.0045 20.6817C29.6047 21.2802 30.0807 21.9915 30.405 22.7746C30.7294 23.5578 30.8957 24.3973 30.8943 25.245C30.8943 26.9677 30.2202 28.5868 29.0045 29.8083Z" fill="#848484"/>
</svg>
