<svg width="57" height="57" viewBox="0 0 57 57" fill="none" xmlns="http://www.w3.org/2000/svg">
<path d="M51.4815 34.8256L47.8355 31.7084C48.008 30.6508 48.0971 29.5709 48.0971 28.4911C48.0971 27.4112 48.008 26.3313 47.8355 25.2737L51.4815 22.1565C51.7565 21.9211 51.9533 21.6075 52.0458 21.2575C52.1382 20.9075 52.122 20.5377 51.9991 20.1971L51.949 20.0524C50.9453 17.2471 49.4423 14.6465 47.5126 12.3763L47.4124 12.2594C47.1783 11.9842 46.8663 11.7863 46.5175 11.6919C46.1688 11.5975 45.7996 11.611 45.4586 11.7306L40.9331 13.3393C39.2632 11.97 37.3984 10.8901 35.3834 10.1331L34.5095 5.40161C34.4435 5.0456 34.2708 4.71807 34.0143 4.46255C33.7578 4.20702 33.4296 4.0356 33.0733 3.97104L32.9231 3.94321C30.023 3.41997 26.9726 3.41997 24.0725 3.94321L23.9222 3.97104C23.5659 4.0356 23.2377 4.20702 22.9812 4.46255C22.7247 4.71807 22.552 5.0456 22.486 5.40161L21.6066 10.1553C19.6076 10.9125 17.7461 11.9918 16.0958 13.3504L11.5369 11.7306C11.1961 11.6101 10.8266 11.5961 10.4776 11.6905C10.1286 11.785 9.81664 11.9834 9.58312 12.2594L9.48292 12.3763C7.55553 14.6481 6.05277 17.2482 5.0465 20.0524L4.9964 20.1971C4.74591 20.8929 4.95187 21.6722 5.51407 22.1565L9.2046 25.3071C9.03204 26.3536 8.94855 27.4223 8.94855 28.4855C8.94855 29.5542 9.03204 30.623 9.2046 31.6639L5.51407 34.8145C5.23907 35.0499 5.04225 35.3635 4.94977 35.7135C4.8573 36.0635 4.87356 36.4333 4.9964 36.7739L5.0465 36.9186C6.05402 39.7241 7.54581 42.3125 9.48292 44.5947L9.58312 44.7116C9.81721 44.9868 10.1292 45.1847 10.478 45.2791C10.8268 45.3735 11.196 45.36 11.5369 45.2404L16.0958 43.6206C17.7546 44.9843 19.6082 46.0642 21.6066 46.8157L22.486 51.5694C22.552 51.9254 22.7247 52.2529 22.9812 52.5084C23.2377 52.764 23.5659 52.9354 23.9222 52.9999L24.0725 53.0278C26.9992 53.5538 29.9963 53.5538 32.9231 53.0278L33.0733 52.9999C33.4296 52.9354 33.7578 52.764 34.0143 52.5084C34.2708 52.2529 34.4435 51.9254 34.5095 51.5694L35.3834 46.8379C37.3976 46.0829 39.2729 44.9995 40.9331 43.6317L45.4586 45.2404C45.7995 45.3609 46.1689 45.3749 46.5179 45.2805C46.8669 45.186 47.1789 44.9876 47.4124 44.7116L47.5126 44.5947C49.4497 42.3069 50.9415 39.7241 51.949 36.9186L51.9991 36.7739C52.2496 36.0892 52.0437 35.3099 51.4815 34.8256V34.8256ZM43.8833 25.9305C44.0225 26.771 44.0948 27.6338 44.0948 28.4966C44.0948 29.3594 44.0225 30.2222 43.8833 31.0627L43.5159 33.2949L47.674 36.8518C47.0437 38.304 46.248 39.6787 45.3027 40.9487L40.1371 39.1173L38.3893 40.5535C37.0589 41.6445 35.5782 42.5017 33.9751 43.1029L31.8543 43.8989L30.8579 49.2983C29.2858 49.4764 27.6986 49.4764 26.1265 49.2983L25.1301 43.8877L23.026 43.0806C21.4396 42.4794 19.9645 41.6222 18.6452 40.5368L16.8974 39.0951L11.6984 40.9431C10.7521 39.6684 9.96163 38.2935 9.32706 36.8462L13.5297 33.2559L13.1679 31.0293C13.0343 30.1999 12.9619 29.3427 12.9619 28.4966C12.9619 27.645 13.0287 26.7933 13.1679 25.9639L13.5297 23.7374L9.32706 20.147C9.95607 18.6942 10.7521 17.3249 11.6984 16.0501L16.8974 17.8982L18.6452 16.4565C19.9645 15.371 21.4396 14.5138 23.026 13.9126L25.1357 13.1166L26.132 7.7061C27.6962 7.52798 29.2938 7.52798 30.8635 7.7061L31.8599 13.1055L33.9807 13.9015C35.5782 14.5027 37.0645 15.3599 38.3948 16.4509L40.1427 17.8871L45.3083 16.0557C46.2546 17.3304 47.045 18.7053 47.6796 20.1526L43.5215 23.7095L43.8833 25.9305ZM28.5033 18.1431C23.0928 18.1431 18.7065 22.5294 18.7065 27.94C18.7065 33.3505 23.0928 37.7369 28.5033 37.7369C33.9139 37.7369 38.3002 33.3505 38.3002 27.94C38.3002 22.5294 33.9139 18.1431 28.5033 18.1431ZM32.9119 32.3486C32.3337 32.9285 31.6465 33.3883 30.8899 33.7017C30.1333 34.015 29.3222 34.1756 28.5033 34.1744C26.839 34.1744 25.2748 33.5231 24.0947 32.3486C23.5148 31.7704 23.055 31.0832 22.7417 30.3266C22.4283 29.57 22.2677 28.7589 22.269 27.94C22.269 26.2756 22.9202 24.7115 24.0947 23.5314C25.2748 22.3513 26.839 21.7056 28.5033 21.7056C30.1677 21.7056 31.7318 22.3513 32.9119 23.5314C33.4918 24.1096 33.9517 24.7968 34.265 25.5534C34.5783 26.31 34.739 27.1211 34.7377 27.94C34.7377 29.6043 34.0864 31.1685 32.9119 32.3486Z" fill="#5E94BF"/>
</svg>