<svg width="11" height="11" viewBox="0 0 11 11" fill="none" xmlns="http://www.w3.org/2000/svg">
<path d="M4.00012 1.6H2.92012C2.24805 1.6 1.91177 1.6 1.65508 1.73079C1.42928 1.84584 1.24584 2.02928 1.13079 2.25508C1 2.51177 1 2.84805 1 3.52012V8.08012C1 8.75218 1 9.08806 1.13079 9.34474C1.24584 9.57052 1.42928 9.7543 1.65508 9.86932C1.91152 10 2.24739 10 2.91815 10H7.48186C8.1526 10 8.488 10 8.74444 9.86932C8.97022 9.7543 9.1543 9.57034 9.26932 9.34456C9.4 9.08812 9.4 8.7526 9.4 8.08186V7M10 4V1M10 1H7M10 1L5.8 5.2" stroke="#ffffff" stroke-linecap="round" stroke-linejoin="round"/>
</svg>
