<svg width="25" height="23" viewBox="0 0 25 23" fill="none" xmlns="http://www.w3.org/2000/svg">
<path d="M24.6223 10.891C23.6547 8.85249 22.5033 7.19001 21.168 5.90352L19.7675 7.30396C20.9095 8.39531 21.9042 9.82301 22.7644 11.6011C20.4743 16.3408 17.2237 18.5923 12.7812 18.5923C11.4478 18.5923 10.2195 18.387 9.09653 17.9763L7.5791 19.4937C9.13882 20.214 10.8729 20.5741 12.7812 20.5741C18.0714 20.5741 22.0185 17.8189 24.6223 12.3085C24.727 12.0869 24.7813 11.8448 24.7813 11.5997C24.7813 11.3546 24.727 11.1126 24.6223 10.891V10.891ZM22.8725 2.0655L21.6992 0.890752C21.6787 0.870279 21.6544 0.854038 21.6277 0.842957C21.601 0.831876 21.5723 0.826172 21.5434 0.826172C21.5145 0.826172 21.4858 0.831876 21.4591 0.842957C21.4323 0.854038 21.408 0.870279 21.3876 0.890752L18.3772 3.89973C16.7175 3.05198 14.8522 2.6281 12.7812 2.6281C7.49102 2.6281 3.54401 5.3833 0.940191 10.8937C0.83553 11.1153 0.78125 11.3574 0.78125 11.6025C0.78125 11.8476 0.83553 12.0896 0.940191 12.3112C1.98043 14.5022 3.2328 16.2583 4.69729 17.5797L1.78464 20.4915C1.74338 20.5328 1.7202 20.5888 1.7202 20.6472C1.7202 20.7055 1.74338 20.7615 1.78464 20.8028L2.95966 21.9778C3.00095 22.0191 3.05694 22.0423 3.11532 22.0423C3.17369 22.0423 3.22968 22.0191 3.27097 21.9778L22.8725 2.37708C22.893 2.35663 22.9093 2.33234 22.9203 2.30561C22.9314 2.27888 22.9371 2.25022 22.9371 2.22129C22.9371 2.19235 22.9314 2.1637 22.9203 2.13697C22.9093 2.11023 22.893 2.08595 22.8725 2.0655ZM2.7981 11.6011C5.09089 6.86137 8.34153 4.60986 12.7812 4.60986C14.2824 4.60986 15.6474 4.86749 16.8857 5.39129L14.9507 7.32626C14.0343 6.83732 12.9851 6.65586 11.9577 6.80865C10.9304 6.96143 9.97931 7.44037 9.24486 8.17482C8.51042 8.90926 8.03148 9.86031 7.8787 10.8877C7.72591 11.915 7.90737 12.9643 8.39631 13.8807L6.10021 16.1768C4.8294 15.0551 3.73393 13.5355 2.7981 11.6011ZM9.58839 11.6011C9.58887 11.1157 9.70384 10.6373 9.92395 10.2048C10.1441 9.77219 10.4631 9.39763 10.8552 9.11152C11.2472 8.82542 11.7012 8.63582 12.1803 8.55815C12.6594 8.48048 13.1501 8.51692 13.6125 8.6645L9.73455 12.5424C9.63735 12.2381 9.58804 11.9205 9.58839 11.6011V11.6011Z" fill="#5E94BF"/>
<path d="M12.6735 14.682C12.5782 14.682 12.4844 14.6776 12.3913 14.669L10.9375 16.1229C11.8119 16.4578 12.7646 16.5322 13.6804 16.3371C14.5963 16.1421 15.436 15.686 16.0981 15.0239C16.7602 14.3618 17.2163 13.522 17.4114 12.6062C17.6064 11.6904 17.532 10.7377 17.1971 9.86328L15.7433 11.3171C15.7518 11.4102 15.7562 11.504 15.7562 11.5992C15.7564 12.0041 15.6768 12.4051 15.522 12.7792C15.3671 13.1533 15.1401 13.4933 14.8538 13.7796C14.5675 14.0659 14.2275 14.2929 13.8534 14.4478C13.4793 14.6026 13.0784 14.6822 12.6735 14.682V14.682Z" fill="#5E94BF"/>
</svg>
