<svg width="24" height="18" viewBox="0 0 24 18" fill="none" xmlns="http://www.w3.org/2000/svg">
<path d="M23.841 8.26286C21.2317 2.76622 17.2875 0 12 0C6.70978 0 2.76827 2.76621 0.158941 8.26562C0.0542802 8.48723 0 8.72928 0 8.97437C0 9.21946 0.0542802 9.46151 0.158941 9.68313C2.76827 15.1798 6.71253 17.946 12 17.946C17.2902 17.946 21.2317 15.1798 23.841 9.68038C24.053 9.23448 24.053 8.71702 23.841 8.26286ZM12 15.9642C7.56029 15.9642 4.30964 13.7127 2.01685 8.973C4.30964 4.23327 7.56029 1.98177 12 1.98177C16.4397 1.98177 19.6903 4.23327 21.9831 8.973C19.6931 13.7127 16.4425 15.9642 12 15.9642ZM11.8899 4.12868C9.21451 4.12868 7.04558 6.29761 7.04558 8.973C7.04558 11.6484 9.21451 13.8173 11.8899 13.8173C14.5653 13.8173 16.7342 11.6484 16.7342 8.973C16.7342 6.29761 14.5653 4.12868 11.8899 4.12868ZM11.8899 12.0557C10.1861 12.0557 8.80715 10.6768 8.80715 8.973C8.80715 7.26923 10.1861 5.89025 11.8899 5.89025C13.5937 5.89025 14.9726 7.26923 14.9726 8.973C14.9726 10.6768 13.5937 12.0557 11.8899 12.0557Z" fill="#999999"/>
</svg>
