<svg width="42" height="32" viewBox="0 0 42 32" fill="none" xmlns="http://www.w3.org/2000/svg">
<path d="M37.8119 15.2303L20.6659 1.54545C20.0276 1.03636 19.0909 1.49697 19.0909 2.31515V29.6848C19.0909 30.503 20.0276 30.9636 20.6659 30.4545L37.8119 16.7697C37.9268 16.6782 38.0197 16.5613 38.0835 16.428C38.1474 16.2946 38.1806 16.1483 38.1806 16C38.1806 15.8517 38.1474 15.7054 38.0835 15.572C38.0197 15.4387 37.9268 15.3218 37.8119 15.2303ZM18.721 15.2303L1.575 1.54545C0.936647 1.03636 0 1.49697 0 2.31515V29.6788C0 30.497 0.936647 30.9576 1.575 30.4485L18.721 16.7636C18.9656 16.5697 19.0909 16.2788 19.0909 15.9939C19.0909 15.7152 18.9656 15.4242 18.721 15.2303ZM41.6182 0H38.5636C38.3548 0 38.1818 0.163636 38.1818 0.363636V31.6364C38.1818 31.8364 38.3548 32 38.5636 32H41.6182C41.827 32 42 31.8364 42 31.6364V0.363636C42 0.163636 41.827 0 41.6182 0Z" fill="white"/>
</svg>
