<svg xmlns="http://www.w3.org/2000/svg" viewBox="0 0 14 14" width="14" height="14" fill="none">
  <path fill="#262626" d="m12.35 11.51.01-.01a6.97 6.97 0 0 0 0-9v-.01l-.06-.06-.02-.02-.06-.08-.07-.08-.16-.16-.07-.07a2.63 2.63 0 0 0-.1-.1l-.05-.04-.02-.02a6.97 6.97 0 0 0-9.5 0l-.02.02-.05.04-.02.03-.07.06L2 2.1l-.16.16-.07.08-.06.08-.02.02-.05.06-.01.01a6.97 6.97 0 0 0 0 9v.01l.06.06c0 .01 0 .02.02.02l.06.08.07.08.15.16.08.07.16.16a6.99 6.99 0 0 0 9.67-.15l.08-.08.15-.16.07-.08.07-.08.02-.02.05-.06Zm.06-2.22c-.21.5-.5.98-.84 1.4-.4-.33-.82-.63-1.28-.87.19-.73.3-1.54.33-2.38h2.24c-.05.64-.2 1.26-.45 1.85Zm.45-2.73h-2.24c-.03-.84-.14-1.65-.33-2.38.46-.25.89-.54 1.28-.88.75.93 1.2 2.07 1.29 3.26ZM9.29 1.6c.62.26 1.18.62 1.68 1.08-.3.24-.6.46-.93.65a6.7 6.7 0 0 0-.93-1.8l.18.07ZM7.87 12.53c-.14.12-.29.2-.43.26v-2.9c.62.04 1.23.18 1.8.41-.12.38-.27.74-.45 1.06-.27.5-.59.91-.92 1.17Zm.92-9.89c.17.32.33.68.46 1.06-.58.23-1.2.37-1.81.4V1.22c.14.06.29.14.43.26.33.26.65.66.92 1.17ZM7.44 9.01V7.44h2.3c-.02.69-.1 1.36-.25 2v.01a6.95 6.95 0 0 0-2.05-.44Zm0-2.45V5c.71-.05 1.4-.2 2.04-.44v.02c.15.63.24 1.3.26 2h-2.3Zm-.88.88V9c-.71.05-1.4.2-2.04.44v-.02c-.15-.63-.24-1.3-.26-2h2.3Zm-2.3-.88c.02-.69.1-1.36.25-2v-.01c.65.24 1.34.4 2.05.44v1.57h-2.3Zm2.3 3.33v2.9a1.75 1.75 0 0 1-.43-.26 3.76 3.76 0 0 1-.92-1.17 7.06 7.06 0 0 1-.46-1.06 6.1 6.1 0 0 1 1.81-.4Zm0-5.78a6.08 6.08 0 0 1-1.8-.41c.12-.38.27-.74.45-1.06.27-.5.59-.91.92-1.17.15-.12.29-.2.43-.26v2.9ZM4.71 1.59l.18-.07a6.7 6.7 0 0 0-.93 1.8c-.33-.19-.64-.4-.93-.65.5-.46 1.06-.82 1.68-1.08ZM1.6 4.7c.21-.5.5-.98.84-1.4.4.33.82.62 1.28.87-.19.73-.3 1.54-.33 2.38H1.14c.05-.64.2-1.26.45-1.85Zm-.45 2.73h2.24c.03.84.15 1.65.33 2.38-.46.24-.89.54-1.28.88a5.84 5.84 0 0 1-1.29-3.26Zm3.57 4.97a5.84 5.84 0 0 1-1.68-1.08c.3-.24.6-.46.93-.65.25.7.56 1.31.93 1.8a5.78 5.78 0 0 1-.18-.07Zm4.58 0-.18.07c.37-.49.68-1.1.93-1.8.33.19.64.4.93.65-.5.46-1.07.82-1.68 1.08Z"/>
</svg>