<svg width="18" height="18" viewBox="0 0 18 18" fill="none" xmlns="http://www.w3.org/2000/svg">
<path d="M15.8786 14.8038C15.8826 14.7978 15.8886 14.7917 15.8926 14.7857C17.2085 13.2208 18 11.2038 18 9C18 6.79621 17.2085 4.77924 15.8946 3.21429C15.8906 3.20826 15.8846 3.20424 15.8806 3.19821C15.8585 3.1721 15.8384 3.14799 15.8163 3.12388C15.8083 3.11384 15.8002 3.1058 15.7922 3.09576L15.7098 3.00134L15.7078 2.99933C15.6777 2.96518 15.6455 2.93103 15.6154 2.89687L15.6134 2.89487C15.5491 2.82656 15.4848 2.75826 15.4185 2.69196L15.4165 2.68996L15.3201 2.59353L15.3141 2.5875C15.2839 2.55737 15.2538 2.52924 15.2237 2.50112C15.2136 2.49107 15.2036 2.48103 15.1915 2.47098C15.1714 2.45089 15.1513 2.43281 15.1313 2.41473C15.1252 2.40871 15.1172 2.40268 15.1112 2.39464C13.508 0.908036 11.3605 0 9 0C6.63951 0 4.49196 0.908036 2.88683 2.39464C2.8808 2.40067 2.87277 2.4067 2.86674 2.41473C2.84665 2.43281 2.82656 2.4529 2.80647 2.47299C2.79643 2.48304 2.78638 2.49308 2.77433 2.50313C2.7442 2.53125 2.71406 2.56138 2.68393 2.58951L2.6779 2.59554L2.58147 2.69196L2.57946 2.69397C2.51317 2.76027 2.44888 2.82857 2.3846 2.89687L2.38259 2.89888C2.35045 2.93304 2.32031 2.96719 2.29018 3.00134L2.28817 3.00335C2.26004 3.03348 2.23192 3.06562 2.2058 3.09777C2.19777 3.10781 2.18973 3.11585 2.1817 3.12589C2.1596 3.15 2.13951 3.17612 2.11741 3.20022C2.11339 3.20625 2.10737 3.21027 2.10335 3.21629C0.791518 4.77924 0 6.79621 0 9C0 11.2038 0.791518 13.2208 2.10536 14.7857C2.10938 14.7917 2.1154 14.7978 2.11942 14.8038L2.1817 14.8781C2.18973 14.8882 2.19777 14.8962 2.2058 14.9062L2.28817 15.0007C2.28817 15.0027 2.29018 15.0027 2.29018 15.0047C2.32031 15.0388 2.35045 15.073 2.38259 15.1051L2.3846 15.1071C2.44888 15.1754 2.51317 15.2437 2.57746 15.31L2.57946 15.3121C2.61161 15.3442 2.64174 15.3763 2.67388 15.4065L2.67991 15.4125C2.74621 15.4788 2.81451 15.5431 2.88281 15.6054C4.49196 17.092 6.63951 18 9 18C11.3605 18 13.508 17.092 15.1132 15.6054C15.1816 15.5426 15.2486 15.4783 15.3141 15.4125L15.3201 15.4065C15.3522 15.3743 15.3844 15.3442 15.4145 15.3121L15.4165 15.31C15.4828 15.2437 15.5471 15.1754 15.6094 15.1071L15.6114 15.1051C15.6415 15.071 15.6737 15.0388 15.7038 15.0047C15.7038 15.0027 15.7058 15.0027 15.7058 15.0007C15.7339 14.9705 15.7621 14.9384 15.7882 14.9062C15.7962 14.8962 15.8042 14.8882 15.8123 14.8781C15.835 14.8539 15.8571 14.8291 15.8786 14.8038V14.8038ZM15.9609 11.9391C15.6837 12.594 15.3181 13.2007 14.8721 13.7511C14.3698 13.317 13.8207 12.9404 13.2348 12.6281C13.4679 11.6859 13.6125 10.6513 13.6507 9.5625H16.5335C16.4732 10.3842 16.2804 11.1817 15.9609 11.9391ZM16.5335 8.4375H13.6507C13.6125 7.34866 13.4679 6.31406 13.2348 5.37187C13.8234 5.05848 14.3719 4.6808 14.8721 4.24888C15.8415 5.44214 16.4214 6.90416 16.5335 8.4375V8.4375ZM11.9391 2.03906C12.7366 2.37656 13.4618 2.84263 14.1007 3.42924C13.7296 3.74523 13.3301 4.02633 12.9074 4.26897C12.592 3.36496 12.1882 2.57946 11.7181 1.95067C11.7924 1.97879 11.8667 2.00893 11.9391 2.03906ZM10.119 16.1136C9.93415 16.2583 9.74933 16.3687 9.5625 16.4431V12.7165C10.3596 12.7721 11.1435 12.9496 11.8868 13.2429C11.7201 13.7371 11.5272 14.1931 11.3042 14.6049C10.9547 15.2558 10.5449 15.7761 10.119 16.1136ZM11.3042 3.39509C11.5252 3.80893 11.7201 4.26496 11.8868 4.75714C11.1435 5.05036 10.3596 5.22787 9.5625 5.28348V1.55893C9.74732 1.63326 9.93415 1.74174 10.119 1.88839C10.5449 2.22388 10.9547 2.7442 11.3042 3.39509V3.39509ZM9.5625 11.5895V9.5625H12.5257C12.4935 10.4504 12.383 11.3123 12.1982 12.1299L12.1922 12.154C11.3491 11.8343 10.4625 11.644 9.5625 11.5895V11.5895ZM9.5625 8.4375V6.41049C10.4826 6.35424 11.3665 6.15937 12.1922 5.84598L12.1982 5.87009C12.383 6.68772 12.4935 7.54754 12.5257 8.4375H9.5625ZM8.4375 9.5625V11.5895C7.51741 11.6458 6.63348 11.8406 5.80781 12.154L5.80179 12.1299C5.61696 11.3123 5.50647 10.4525 5.47433 9.5625H8.4375ZM5.47433 8.4375C5.50647 7.54955 5.61696 6.68772 5.80179 5.87009L5.80781 5.84598C6.63348 6.15937 7.5154 6.35424 8.4375 6.41049V8.4375H5.47433ZM8.4375 12.7165V16.4411C8.25268 16.3667 8.06585 16.2583 7.88103 16.1116C7.45513 15.7761 7.0433 15.2538 6.69375 14.6029C6.47277 14.1891 6.2779 13.733 6.11116 13.2408C6.85848 12.9475 7.63594 12.7728 8.4375 12.7165ZM8.4375 5.28348C7.64037 5.22787 6.85649 5.05036 6.11317 4.75714C6.27991 4.26295 6.47277 3.80692 6.69576 3.39509C7.04531 2.7442 7.45513 2.22187 7.88304 1.88638C8.06786 1.74174 8.25268 1.63125 8.43951 1.55692V5.28348H8.4375ZM6.06094 2.03906C6.13527 2.00893 6.20759 1.97879 6.28192 1.95067C5.81183 2.57946 5.40804 3.36496 5.09263 4.26897C4.67076 4.0279 4.27098 3.74665 3.89933 3.42924C4.53817 2.84263 5.26339 2.37656 6.06094 2.03906V2.03906ZM2.03906 6.06094C2.31629 5.40603 2.68192 4.79933 3.1279 4.24888C3.62812 4.6808 4.17656 5.05848 4.76518 5.37187C4.53214 6.31406 4.3875 7.34866 4.34933 8.4375H1.46652C1.52679 7.61585 1.71964 6.8183 2.03906 6.06094ZM1.46652 9.5625H4.34933C4.3875 10.6513 4.53214 11.6859 4.76518 12.6281C4.17934 12.9404 3.63018 13.317 3.1279 13.7511C2.15845 12.5579 1.57855 11.0958 1.46652 9.5625V9.5625ZM6.06094 15.9609C5.26339 15.6234 4.53817 15.1574 3.89933 14.5708C4.27098 14.2533 4.67076 13.9741 5.09263 13.731C5.40804 14.635 5.81183 15.4205 6.28192 16.0493C6.20759 16.0212 6.13326 15.9911 6.06094 15.9609ZM11.9391 15.9609C11.8647 15.9911 11.7924 16.0212 11.7181 16.0493C12.1882 15.4205 12.592 14.635 12.9074 13.731C13.3292 13.9721 13.729 14.2533 14.1007 14.5708C13.4654 15.1549 12.7341 15.6252 11.9391 15.9609V15.9609Z" fill="#262626"/>
</svg>
