<svg width="24" height="24" viewBox="0 0 24 24" fill="none" xmlns="http://www.w3.org/2000/svg">
<path d="M16.3831 8.27344H15.2839C15.0449 8.27344 14.8175 8.38828 14.6769 8.58516L10.9925 13.6945L9.32374 11.3789C9.18311 11.1844 8.95811 11.0672 8.71671 11.0672H7.61748C7.46514 11.0672 7.37608 11.2406 7.46514 11.3648L10.3855 15.4148C10.4545 15.5111 10.5454 15.5896 10.6508 15.6437C10.7561 15.6978 10.8729 15.7261 10.9913 15.7261C11.1098 15.7261 11.2265 15.6978 11.3319 15.6437C11.4373 15.5896 11.5282 15.5111 11.5972 15.4148L16.5331 8.57109C16.6245 8.44688 16.5355 8.27344 16.3831 8.27344V8.27344Z" fill="#7ABA7A"/>
<path d="M12 1.5C6.20156 1.5 1.5 6.20156 1.5 12C1.5 17.7984 6.20156 22.5 12 22.5C17.7984 22.5 22.5 17.7984 22.5 12C22.5 6.20156 17.7984 1.5 12 1.5ZM12 20.7188C7.18594 20.7188 3.28125 16.8141 3.28125 12C3.28125 7.18594 7.18594 3.28125 12 3.28125C16.8141 3.28125 20.7188 7.18594 20.7188 12C20.7188 16.8141 16.8141 20.7188 12 20.7188Z" fill="#7ABA7A"/>
</svg>
