<svg width="52" height="52" viewBox="0 0 52 52" fill="none" xmlns="http://www.w3.org/2000/svg">
<path d="M25.8125 0C11.558 0 0 11.558 0 25.8125C0 40.067 11.558 51.625 25.8125 51.625C40.067 51.625 51.625 40.067 51.625 25.8125C51.625 11.558 40.067 0 25.8125 0ZM25.8125 47.2461C13.9779 47.2461 4.37891 37.6471 4.37891 25.8125C4.37891 13.9779 13.9779 4.37891 25.8125 4.37891C37.6471 4.37891 47.2461 13.9779 47.2461 25.8125C47.2461 37.6471 37.6471 47.2461 25.8125 47.2461Z" fill="white"/>
<path d="M23.0469 15.6719C23.0469 16.4054 23.3383 17.1088 23.8569 17.6275C24.3756 18.1461 25.079 18.4375 25.8125 18.4375C26.546 18.4375 27.2494 18.1461 27.7681 17.6275C28.2867 17.1088 28.5781 16.4054 28.5781 15.6719C28.5781 14.9384 28.2867 14.2349 27.7681 13.7163C27.2494 13.1976 26.546 12.9063 25.8125 12.9062C25.079 12.9063 24.3756 13.1976 23.8569 13.7163C23.3383 14.2349 23.0469 14.9384 23.0469 15.6719V15.6719ZM27.1953 22.125H24.4297C24.1762 22.125 23.9688 22.3324 23.9688 22.5859V38.2578C23.9688 38.5113 24.1762 38.7188 24.4297 38.7188H27.1953C27.4488 38.7188 27.6562 38.5113 27.6562 38.2578V22.5859C27.6562 22.3324 27.4488 22.125 27.1953 22.125Z" fill="white"/>
</svg>
