<svg width="30" height="30" viewBox="0 0 30 30" fill="none" xmlns="http://www.w3.org/2000/svg">
<path d="M25.5859 23.2056H6.10156V5.53369C6.10156 5.40908 5.99961 5.30713 5.875 5.30713H4.28906C4.16445 5.30713 4.0625 5.40908 4.0625 5.53369V25.0181C4.0625 25.1427 4.16445 25.2446 4.28906 25.2446H25.5859C25.7105 25.2446 25.8125 25.1427 25.8125 25.0181V23.4321C25.8125 23.3075 25.7105 23.2056 25.5859 23.2056ZM9.09785 18.8357C9.18564 18.9235 9.32725 18.9235 9.41787 18.8357L13.3346 14.9389L16.9482 18.5752C17.036 18.663 17.1805 18.663 17.2683 18.5752L25.0677 10.7786C25.1555 10.6908 25.1555 10.5464 25.0677 10.4586L23.9462 9.33711C23.9036 9.29495 23.8461 9.27129 23.7862 9.27129C23.7263 9.27129 23.6688 9.29495 23.6262 9.33711L17.1125 15.8479L13.5045 12.2173C13.4619 12.1751 13.4044 12.1515 13.3445 12.1515C13.2846 12.1515 13.2271 12.1751 13.1845 12.2173L7.9792 17.3914C7.93703 17.434 7.91338 17.4915 7.91338 17.5514C7.91338 17.6113 7.93703 17.6688 7.9792 17.7114L9.09785 18.8357Z" fill="#999999"/>
</svg>
