<svg preserveAspectRatio="none" width="100%" height="100%" overflow="visible" style="display: block;" viewBox="0 0 42.5938 49.3906" fill="none" xmlns="http://www.w3.org/2000/svg">
<path id="Vector" d="M28.8131 33.5992C28.7712 33.5409 28.7159 33.4934 28.6518 33.4609C28.5877 33.4284 28.5168 33.4117 28.4449 33.4123H25.9414C25.5732 33.4123 25.358 33.8314 25.5732 34.1316L29.7533 39.9146C29.9346 40.1639 30.3027 40.1639 30.484 39.9146L36.9523 30.9654C37.1676 30.6652 36.9523 30.2461 36.5842 30.2461H34.075C33.9277 30.2461 33.7918 30.3141 33.7068 30.433L30.1102 35.4061L28.8131 33.5992ZM31.2656 13.0273V10.3086C31.2656 10.0594 31.0617 9.85547 30.8125 9.85547H9.0625C8.81328 9.85547 8.60938 10.0594 8.60938 10.3086V13.0273C8.60938 13.2766 8.81328 13.4805 9.0625 13.4805H30.8125C31.0617 13.4805 31.2656 13.2766 31.2656 13.0273ZM9.0625 18.0117C8.81328 18.0117 8.60938 18.2156 8.60938 18.4648V21.1836C8.60938 21.4328 8.81328 21.6367 9.0625 21.6367H19.4844C19.7336 21.6367 19.9375 21.4328 19.9375 21.1836V18.4648C19.9375 18.2156 19.7336 18.0117 19.4844 18.0117H9.0625ZM19.4844 43.9531H4.07812V4.07812H35.7969V20.8438C35.7969 21.093 36.0008 21.2969 36.25 21.2969H39.4219C39.6711 21.2969 39.875 21.093 39.875 20.8438V1.8125C39.875 0.809961 39.065 0 38.0625 0H1.8125C0.809961 0 0 0.809961 0 1.8125V46.2188C0 47.2213 0.809961 48.0312 1.8125 48.0312H19.4844C19.7336 48.0312 19.9375 47.8273 19.9375 47.5781V44.4062C19.9375 44.157 19.7336 43.9531 19.4844 43.9531ZM42.2879 25.7828L31.4129 22.0049C31.3619 21.9879 31.3166 21.9822 31.2656 21.9822C31.2146 21.9822 31.1637 21.9879 31.1184 22.0049L20.2434 25.7828C20.1545 25.813 20.0773 25.8701 20.0225 25.9463C19.9676 26.0224 19.9379 26.1138 19.9375 26.2076V40.4301C19.9375 40.5717 19.9998 40.702 20.1131 40.7869L30.9881 49.2943C31.0674 49.3566 31.1693 49.3906 31.2656 49.3906C31.3619 49.3906 31.4639 49.3566 31.5432 49.2943L42.4182 40.7869C42.5258 40.702 42.5938 40.5717 42.5938 40.4301V26.2076C42.5938 26.015 42.4691 25.8451 42.2879 25.7828ZM39.082 38.9518L31.2656 45.0633L23.4492 38.9518V28.377L31.2656 25.6582L39.082 28.377V38.9518Z" fill="var(--fill-0, black)"/>
</svg>
