<svg preserveAspectRatio="none" width="100%" height="100%" overflow="visible" style="display: block;" viewBox="0 0 42.3672 39.8789" fill="none" xmlns="http://www.w3.org/2000/svg">
<path id="Vector" d="M14.8398 8.93616H19.0256V28.0977C19.0256 28.3469 19.2295 28.5508 19.4787 28.5508H22.8771C23.1264 28.5508 23.3303 28.3469 23.3303 28.0977V8.93616H27.5273C27.9068 8.93616 28.1164 8.50003 27.8842 8.2055L21.5404 0.173858C21.498 0.119699 21.4439 0.0758991 21.3821 0.0457768C21.3202 0.0156545 21.2524 0 21.1836 0C21.1148 0 21.047 0.0156545 20.9851 0.0457768C20.9233 0.0758991 20.8691 0.119699 20.8268 0.173858L14.483 8.19984C14.2508 8.50003 14.4604 8.93616 14.8398 8.93616V8.93616ZM41.9141 26.3985H38.5156C38.2664 26.3985 38.0625 26.6024 38.0625 26.8516V35.5742H4.30469V26.8516C4.30469 26.6024 4.10078 26.3985 3.85156 26.3985H0.453125C0.203906 26.3985 0 26.6024 0 26.8516V38.0664C0 39.069 0.809961 39.8789 1.8125 39.8789H40.5547C41.5572 39.8789 42.3672 39.069 42.3672 38.0664V26.8516C42.3672 26.6024 42.1633 26.3985 41.9141 26.3985Z" fill="var(--fill-0, black)"/>
</svg>
