<svg preserveAspectRatio="none" width="100%" height="100%" overflow="visible" style="display: block;" viewBox="0 0 46.2188 38.5156" fill="none" xmlns="http://www.w3.org/2000/svg">
<path id="Vector" d="M45.7656 1.13281H12.6875C12.4383 1.13281 12.2344 1.33672 12.2344 1.58594V4.75781C12.2344 5.00703 12.4383 5.21094 12.6875 5.21094H45.7656C46.0148 5.21094 46.2188 5.00703 46.2188 4.75781V1.58594C46.2188 1.33672 46.0148 1.13281 45.7656 1.13281ZM45.7656 17.2188H12.6875C12.4383 17.2188 12.2344 17.4227 12.2344 17.6719V20.8438C12.2344 21.093 12.4383 21.2969 12.6875 21.2969H45.7656C46.0148 21.2969 46.2188 21.093 46.2188 20.8438V17.6719C46.2188 17.4227 46.0148 17.2188 45.7656 17.2188ZM45.7656 33.3047H12.6875C12.4383 33.3047 12.2344 33.5086 12.2344 33.7578V36.9297C12.2344 37.1789 12.4383 37.3828 12.6875 37.3828H45.7656C46.0148 37.3828 46.2188 37.1789 46.2188 36.9297V33.7578C46.2188 33.5086 46.0148 33.3047 45.7656 33.3047ZM0 3.17188C-6.20688e-09 3.58841 0.0820431 4.00087 0.241445 4.3857C0.400846 4.77053 0.634485 5.12019 0.929021 5.41473C1.22356 5.70927 1.57322 5.9429 1.95805 6.1023C2.34288 6.26171 2.75534 6.34375 3.17188 6.34375C3.58841 6.34375 4.00087 6.26171 4.3857 6.1023C4.77053 5.9429 5.12019 5.70927 5.41473 5.41473C5.70926 5.12019 5.9429 4.77053 6.10231 4.3857C6.26171 4.00087 6.34375 3.58841 6.34375 3.17188C6.34375 2.75534 6.26171 2.34288 6.10231 1.95805C5.9429 1.57322 5.70926 1.22356 5.41473 0.929021C5.12019 0.634485 4.77053 0.400846 4.3857 0.241444C4.00087 0.0820427 3.58841 0 3.17188 0C2.75534 0 2.34288 0.0820427 1.95805 0.241444C1.57322 0.400846 1.22356 0.634485 0.929021 0.929021C0.634485 1.22356 0.400846 1.57322 0.241445 1.95805C0.0820431 2.34288 -6.20688e-09 2.75534 0 3.17188V3.17188ZM0 19.2578C-6.20688e-09 19.6743 0.0820431 20.0868 0.241445 20.4716C0.400846 20.8565 0.634485 21.2061 0.929021 21.5007C1.22356 21.7952 1.57322 22.0288 1.95805 22.1882C2.34288 22.3476 2.75534 22.4297 3.17188 22.4297C3.58841 22.4297 4.00087 22.3476 4.3857 22.1882C4.77053 22.0288 5.12019 21.7952 5.41473 21.5007C5.70926 21.2061 5.9429 20.8565 6.10231 20.4716C6.26171 20.0868 6.34375 19.6743 6.34375 19.2578C6.34375 18.8413 6.26171 18.4288 6.10231 18.044C5.9429 17.6592 5.70926 17.3095 5.41473 17.015C5.12019 16.7204 4.77053 16.4868 4.3857 16.3274C4.00087 16.168 3.58841 16.0859 3.17188 16.0859C2.75534 16.0859 2.34288 16.168 1.95805 16.3274C1.57322 16.4868 1.22356 16.7204 0.929021 17.015C0.634485 17.3095 0.400846 17.6592 0.241445 18.044C0.0820431 18.4288 -6.20688e-09 18.8413 0 19.2578V19.2578ZM0 35.3438C-6.20688e-09 35.7603 0.0820431 36.1727 0.241445 36.5576C0.400846 36.9424 0.634485 37.2921 0.929021 37.5866C1.22356 37.8811 1.57322 38.1148 1.95805 38.2742C2.34288 38.4336 2.75534 38.5156 3.17188 38.5156C3.58841 38.5156 4.00087 38.4336 4.3857 38.2742C4.77053 38.1148 5.12019 37.8811 5.41473 37.5866C5.70926 37.2921 5.9429 36.9424 6.10231 36.5576C6.26171 36.1727 6.34375 35.7603 6.34375 35.3438C6.34375 34.9272 6.26171 34.5148 6.10231 34.1299C5.9429 33.7451 5.70926 33.3954 5.41473 33.1009C5.12019 32.8064 4.77053 32.5727 4.3857 32.4133C4.00087 32.2539 3.58841 32.1719 3.17188 32.1719C2.75534 32.1719 2.34288 32.2539 1.95805 32.4133C1.57322 32.5727 1.22356 32.8064 0.929021 33.1009C0.634485 33.3954 0.400846 33.7451 0.241445 34.1299C0.0820431 34.5148 -6.20688e-09 34.9272 0 35.3438V35.3438Z" fill="var(--fill-0, black)"/>
</svg>
