<svg preserveAspectRatio="none" width="100%" height="100%" overflow="visible" style="display: block;" viewBox="0 0 43.5 43.5" fill="none" xmlns="http://www.w3.org/2000/svg">
<path id="Vector" d="M19.2578 0H1.8125C0.809961 0 0 0.809961 0 1.8125V19.2578C0 19.507 0.203906 19.7109 0.453125 19.7109H19.2578C19.507 19.7109 19.7109 19.507 19.7109 19.2578V0.453125C19.7109 0.203906 19.507 0 19.2578 0ZM16.0859 16.0859H3.625V3.625H16.0859V16.0859ZM8.26953 11.8945H11.4414C11.6906 11.8945 11.8945 11.6906 11.8945 11.4414V8.26953C11.8945 8.02031 11.6906 7.81641 11.4414 7.81641H8.26953C8.02031 7.81641 7.81641 8.02031 7.81641 8.26953V11.4414C7.81641 11.6906 8.02031 11.8945 8.26953 11.8945ZM19.2578 23.7891H0.453125C0.203906 23.7891 0 23.993 0 24.2422V41.6875C0 42.69 0.809961 43.5 1.8125 43.5H19.2578C19.507 43.5 19.7109 43.2961 19.7109 43.0469V24.2422C19.7109 23.993 19.507 23.7891 19.2578 23.7891ZM16.0859 39.875H3.625V27.4141H16.0859V39.875ZM8.26953 35.6836H11.4414C11.6906 35.6836 11.8945 35.4797 11.8945 35.2305V32.0586C11.8945 31.8094 11.6906 31.6055 11.4414 31.6055H8.26953C8.02031 31.6055 7.81641 31.8094 7.81641 32.0586V35.2305C7.81641 35.4797 8.02031 35.6836 8.26953 35.6836ZM41.6875 0H24.2422C23.993 0 23.7891 0.203906 23.7891 0.453125V19.2578C23.7891 19.507 23.993 19.7109 24.2422 19.7109H43.0469C43.2961 19.7109 43.5 19.507 43.5 19.2578V1.8125C43.5 0.809961 42.69 0 41.6875 0ZM39.875 16.0859H27.4141V3.625H39.875V16.0859ZM32.0586 11.8945H35.2305C35.4797 11.8945 35.6836 11.6906 35.6836 11.4414V8.26953C35.6836 8.02031 35.4797 7.81641 35.2305 7.81641H32.0586C31.8094 7.81641 31.6055 8.02031 31.6055 8.26953V11.4414C31.6055 11.6906 31.8094 11.8945 32.0586 11.8945ZM43.0469 23.7891H40.3281C40.0789 23.7891 39.875 23.993 39.875 24.2422V31.832H35.457V24.2422C35.457 23.993 35.2531 23.7891 35.0039 23.7891H24.2422C23.993 23.7891 23.7891 23.993 23.7891 24.2422V43.0469C23.7891 43.2961 23.993 43.5 24.2422 43.5H26.9609C27.2102 43.5 27.4141 43.2961 27.4141 43.0469V29.2266H31.832V35.0039C31.832 35.2531 32.0359 35.457 32.2852 35.457H43.0469C43.2961 35.457 43.5 35.2531 43.5 35.0039V24.2422C43.5 23.993 43.2961 23.7891 43.0469 23.7891ZM35.0039 39.875H32.2852C32.0359 39.875 31.832 40.0789 31.832 40.3281V43.0469C31.832 43.2961 32.0359 43.5 32.2852 43.5H35.0039C35.2531 43.5 35.457 43.2961 35.457 43.0469V40.3281C35.457 40.0789 35.2531 39.875 35.0039 39.875ZM43.0469 39.875H40.3281C40.0789 39.875 39.875 40.0789 39.875 40.3281V43.0469C39.875 43.2961 40.0789 43.5 40.3281 43.5H43.0469C43.2961 43.5 43.5 43.2961 43.5 43.0469V40.3281C43.5 40.0789 43.2961 39.875 43.0469 39.875Z" fill="var(--fill-0, black)"/>
</svg>
