<svg width="20" height="17" viewBox="0 0 20 17" fill="none" xmlns="http://www.w3.org/2000/svg">
<path d="M19.6138 0.48549H5.4375C5.3307 0.48549 5.24331 0.57288 5.24331 0.679689V2.03906C5.24331 2.14587 5.3307 2.23326 5.4375 2.23326H19.6138C19.7206 2.23326 19.8081 2.14587 19.8081 2.03906V0.679689C19.8081 0.57288 19.7206 0.48549 19.6138 0.48549ZM19.6138 7.37949H5.4375C5.3307 7.37949 5.24331 7.46687 5.24331 7.57367V8.93306C5.24331 9.03986 5.3307 9.12724 5.4375 9.12724H19.6138C19.7206 9.12724 19.8081 9.03986 19.8081 8.93306V7.57367C19.8081 7.46687 19.7206 7.37949 19.6138 7.37949ZM19.6138 14.2734H5.4375C5.3307 14.2734 5.24331 14.3608 5.24331 14.4676V15.827C5.24331 15.9338 5.3307 16.0212 5.4375 16.0212H19.6138C19.7206 16.0212 19.8081 15.9338 19.8081 15.827V14.4676C19.8081 14.3608 19.7206 14.2734 19.6138 14.2734ZM0 1.35938C-2.66009e-09 1.53789 0.0351613 1.71466 0.103476 1.87959C0.171791 2.04451 0.271922 2.19437 0.398152 2.3206C0.524383 2.44683 0.674237 2.54696 0.839164 2.61527C1.00409 2.68359 1.18086 2.71875 1.35938 2.71875C1.53789 2.71875 1.71466 2.68359 1.87959 2.61527C2.04451 2.54696 2.19437 2.44683 2.3206 2.3206C2.44683 2.19437 2.54696 2.04451 2.61528 1.87959C2.68359 1.71466 2.71875 1.53789 2.71875 1.35938C2.71875 1.18086 2.68359 1.00409 2.61528 0.839164C2.54696 0.674237 2.44683 0.524383 2.3206 0.398152C2.19437 0.271922 2.04451 0.171791 1.87959 0.103476C1.71466 0.0351612 1.53789 0 1.35938 0C1.18086 0 1.00409 0.0351612 0.839164 0.103476C0.674237 0.171791 0.524383 0.271922 0.398152 0.398152C0.271922 0.524383 0.171791 0.674237 0.103476 0.839164C0.0351613 1.00409 -2.66009e-09 1.18086 0 1.35938ZM0 8.25334C-2.66009e-09 8.43184 0.0351613 8.60863 0.103476 8.77354C0.171791 8.9385 0.271922 9.08833 0.398152 9.21459C0.524383 9.3408 0.674237 9.44091 0.839164 9.50923C1.00409 9.57754 1.18086 9.61273 1.35938 9.61273C1.53789 9.61273 1.71466 9.57754 1.87959 9.50923C2.04451 9.44091 2.19437 9.3408 2.3206 9.21459C2.44683 9.08833 2.54696 8.9385 2.61528 8.77354C2.68359 8.60863 2.71875 8.43184 2.71875 8.25334C2.71875 8.07484 2.68359 7.89806 2.61528 7.73314C2.54696 7.56823 2.44683 7.41836 2.3206 7.29214C2.19437 7.16589 2.04451 7.06577 1.87959 6.99746C1.71466 6.92914 1.53789 6.89396 1.35938 6.89396C1.18086 6.89396 1.00409 6.92914 0.839164 6.99746C0.674237 7.06577 0.524383 7.16589 0.398152 7.29214C0.271922 7.41836 0.171791 7.56823 0.103476 7.73314C0.0351613 7.89806 -2.66009e-09 8.07484 0 8.25334ZM0 15.1473C-2.66009e-09 15.3258 0.0351613 15.5026 0.103476 15.6675C0.171791 15.8325 0.271922 15.9823 0.398152 16.1085C0.524383 16.2348 0.674237 16.3349 0.839164 16.4032C1.00409 16.4715 1.18086 16.5067 1.35938 16.5067C1.53789 16.5067 1.71466 16.4715 1.87959 16.4032C2.04451 16.3349 2.19437 16.2348 2.3206 16.1085C2.44683 15.9823 2.54696 15.8325 2.61528 15.6675C2.68359 15.5026 2.71875 15.3258 2.71875 15.1473C2.71875 14.9688 2.68359 14.7921 2.61528 14.6271C2.54696 14.4622 2.44683 14.3123 2.3206 14.1861C2.19437 14.0599 2.04451 13.9597 1.87959 13.8914C1.71466 13.8231 1.53789 13.788 1.35938 13.788C1.18086 13.788 1.00409 13.8231 0.839164 13.8914C0.674237 13.9597 0.524383 14.0599 0.398152 14.1861C0.271922 14.3123 0.171791 14.4622 0.103476 14.6271C0.0351613 14.7921 -2.66009e-09 14.9688 0 15.1473Z" fill="white"/>
</svg>
