<svg width="20" height="22" viewBox="0 0 20 22" fill="none" xmlns="http://www.w3.org/2000/svg">
<path d="M0.191406 5.44117C0.216428 4.94195 0.232095 4.44194 0.268875 3.94378C0.314914 3.32182 0.818268 2.82118 1.4229 2.78081C1.95928 2.74497 2.49855 2.73685 3.03244 2.67754C5.16648 2.44072 7.13796 1.71689 8.94799 0.529698C9.31381 0.289776 9.69551 0.211387 10.1092 0.355261C10.2195 0.39368 10.3258 0.452728 10.4245 0.517452C12.0373 1.57738 13.7879 2.26625 15.6747 2.58677C16.3876 2.70784 17.1065 2.76405 17.8292 2.77451C18.5944 2.78547 19.092 3.30132 19.1452 4.09076C19.2155 5.13649 19.2068 6.18057 19.1105 7.22284C18.7764 10.841 17.6101 14.1198 15.3293 16.9317C13.9335 18.6523 12.2364 19.9727 10.2506 20.8959C9.87275 21.0716 9.50065 21.0612 9.12334 20.8851C7.32618 20.046 5.76482 18.8739 4.43924 17.37C2.71356 15.4125 1.56005 13.1331 0.876225 10.5941C0.422435 8.90912 0.209796 7.1897 0.191406 5.44117ZM1.52048 4.08983C1.50674 4.33702 1.48745 4.57928 1.48082 4.82204C1.4474 6.03191 1.51888 7.23472 1.71034 8.42977C2.01621 10.3382 2.59652 12.1497 3.5215 13.8364C4.94621 16.4342 6.9406 18.4074 9.58062 19.6673C9.66325 19.7068 9.7287 19.7091 9.8128 19.6692C12.207 18.5307 14.0937 16.7941 15.4891 14.4997C17.3614 11.4206 18.0535 8.03264 17.8991 4.43422C17.8941 4.3187 17.8801 4.2037 17.8699 4.08548C17.8246 4.08251 17.7902 4.07888 17.7558 4.07838C16.9588 4.06561 16.1664 3.99804 15.3807 3.85945C13.3797 3.50645 11.5191 2.77438 9.80479 1.65217C9.72969 1.60306 9.67674 1.59725 9.59603 1.64831C9.2794 1.84813 8.96203 2.04771 8.63488 2.22809C6.74049 3.27373 4.7207 3.87724 2.57627 4.033C2.23222 4.05802 1.88719 4.07053 1.52048 4.08983Z" fill="#9E9E9E"/>
<path d="M8.44002 12.2927C8.4867 12.2356 8.51496 12.1948 8.54888 12.1599C10.0297 10.6337 11.5117 9.10842 12.9913 7.58083C13.1553 7.41157 13.3386 7.30945 13.576 7.3449C13.8223 7.38164 13.9936 7.52204 14.0824 7.76031C14.1716 8.00037 14.1239 8.22032 13.9674 8.41657C13.9342 8.4582 13.8954 8.49533 13.8584 8.53352C12.2257 10.2157 10.5931 11.8976 8.96026 13.5796C8.60194 13.9487 8.26493 13.9479 7.9045 13.5772C7.09678 12.7465 6.28842 11.9164 5.48173 11.0844C5.21789 10.8124 5.19899 10.4256 5.43117 10.1611C5.67694 9.88135 6.08456 9.86947 6.35413 10.1423C6.74096 10.5338 7.12305 10.9302 7.50626 11.3255C7.81162 11.6406 8.11573 11.9567 8.44002 12.2927Z" fill="#9E9E9E"/>
</svg>