<svg width="16" height="16" viewBox="0 0 16 16" fill="none" xmlns="http://www.w3.org/2000/svg">
<path d="M2.62504 7.87813C2.64066 7.19531 2.78129 6.53281 3.04535 5.90938C3.31566 5.26875 3.70316 4.69531 4.19691 4.2C4.69066 3.70469 5.26566 3.31719 5.90629 3.04688C6.56879 2.76719 7.27191 2.625 7.99848 2.625C8.72504 2.625 9.42817 2.76719 10.0891 3.04688C10.7279 3.31663 11.308 3.70831 11.7969 4.2C11.9516 4.35469 12.0969 4.51875 12.2313 4.69063L11.2907 5.425C11.2721 5.4394 11.2579 5.45875 11.2498 5.48085C11.2417 5.50294 11.24 5.52687 11.2449 5.54988C11.2498 5.5729 11.2611 5.59406 11.2775 5.61094C11.2939 5.62783 11.3147 5.63974 11.3375 5.64531L14.0829 6.31719C14.161 6.33594 14.2375 6.27656 14.2375 6.19688L14.25 3.37031C14.25 3.26562 14.1297 3.20625 14.0485 3.27187L13.1672 3.96094C11.9657 2.42344 10.0969 1.4375 7.99691 1.4375C4.41723 1.4375 1.50473 4.30625 1.43754 7.87187C1.43712 7.88855 1.44005 7.90514 1.44614 7.92067C1.45224 7.9362 1.46138 7.95035 1.47303 7.96229C1.48468 7.97423 1.4986 7.98372 1.51397 7.9902C1.52934 7.99667 1.54586 8.00001 1.56254 8H2.50004C2.56879 8 2.62348 7.94531 2.62504 7.87813ZM14.4375 8H13.5C13.4313 8 13.3766 8.05469 13.375 8.12187C13.3594 8.80469 13.2188 9.46719 12.9547 10.0906C12.6844 10.7312 12.2969 11.3063 11.8032 11.8C11.3048 12.3004 10.7123 12.6972 10.0598 12.9675C9.40737 13.2379 8.70785 13.3763 8.0016 13.375C7.29559 13.3763 6.59631 13.2378 5.9441 12.9675C5.29189 12.6972 4.69967 12.3004 4.2016 11.8C4.04691 11.6453 3.9016 11.4812 3.76723 11.3094L4.70785 10.575C4.72646 10.5606 4.74063 10.5412 4.74873 10.5192C4.75683 10.4971 4.75853 10.4731 4.75363 10.4501C4.74873 10.4271 4.73744 10.4059 4.72105 10.3891C4.70466 10.3722 4.68384 10.3603 4.66098 10.3547L1.91566 9.68281C1.83754 9.66406 1.76098 9.72344 1.76098 9.80313L1.75004 12.6313C1.75004 12.7359 1.87035 12.7953 1.9516 12.7297L2.83285 12.0406C4.03441 13.5766 5.90316 14.5625 8.00317 14.5625C11.5844 14.5625 14.4954 11.6922 14.5625 8.12813C14.563 8.11145 14.56 8.09486 14.5539 8.07933C14.5478 8.0638 14.5387 8.04965 14.5271 8.03771C14.5154 8.02577 14.5015 8.01628 14.4861 8.0098C14.4707 8.00333 14.4542 7.99999 14.4375 8V8Z" fill="white"/>
</svg>
