<svg width="16" height="17" viewBox="0 0 16 17" fill="none" xmlns="http://www.w3.org/2000/svg">
<path d="M2.62504 8.76484C2.64066 8.08203 2.78129 7.41953 3.04535 6.79609C3.31566 6.15547 3.70316 5.58203 4.19691 5.08672C4.69066 4.59141 5.26566 4.20391 5.90629 3.93359C6.56879 3.65391 7.27191 3.51172 7.99848 3.51172C8.72504 3.51172 9.42817 3.65391 10.0891 3.93359C10.7279 4.20335 11.308 4.59503 11.7969 5.08672C11.9516 5.24141 12.0969 5.40547 12.2313 5.57734L11.2907 6.31172C11.2721 6.32612 11.2579 6.34547 11.2498 6.36757C11.2417 6.38966 11.24 6.41359 11.2449 6.4366C11.2498 6.45962 11.2611 6.48078 11.2775 6.49766C11.2939 6.51454 11.3147 6.52646 11.3375 6.53203L14.0829 7.20391C14.161 7.22266 14.2375 7.16328 14.2375 7.08359L14.25 4.25703C14.25 4.15234 14.1297 4.09297 14.0485 4.15859L13.1672 4.84766C11.9657 3.31016 10.0969 2.32422 7.99691 2.32422C4.41723 2.32422 1.50473 5.19297 1.43754 8.75859C1.43712 8.77527 1.44005 8.79186 1.44614 8.80739C1.45224 8.82292 1.46138 8.83707 1.47303 8.84901C1.48468 8.86095 1.4986 8.87044 1.51397 8.87691C1.52934 8.88339 1.54586 8.88672 1.56254 8.88672H2.50004C2.56879 8.88672 2.62348 8.83203 2.62504 8.76484ZM14.4375 8.88672H13.5C13.4313 8.88672 13.3766 8.94141 13.375 9.00859C13.3594 9.69141 13.2188 10.3539 12.9547 10.9773C12.6844 11.618 12.2969 12.193 11.8032 12.6867C11.3048 13.1871 10.7123 13.5839 10.0598 13.8543C9.40737 14.1246 8.70785 14.2631 8.0016 14.2617C7.29559 14.263 6.59631 14.1245 5.9441 13.8542C5.29189 13.5839 4.69967 13.1871 4.2016 12.6867C4.04691 12.532 3.9016 12.368 3.76723 12.1961L4.70785 11.4617C4.72646 11.4473 4.74063 11.428 4.74873 11.4059C4.75683 11.3838 4.75853 11.3599 4.75363 11.3368C4.74873 11.3138 4.73744 11.2927 4.72105 11.2758C4.70466 11.2589 4.68384 11.247 4.66098 11.2414L1.91566 10.5695C1.83754 10.5508 1.76098 10.6102 1.76098 10.6898L1.75004 13.518C1.75004 13.6227 1.87035 13.682 1.9516 13.6164L2.83285 12.9273C4.03441 14.4633 5.90316 15.4492 8.00317 15.4492C11.5844 15.4492 14.4954 12.5789 14.5625 9.01484C14.563 8.99817 14.56 8.98158 14.5539 8.96605C14.5478 8.95052 14.5387 8.93637 14.5271 8.92443C14.5154 8.91249 14.5015 8.903 14.4861 8.89652C14.4707 8.89005 14.4542 8.88671 14.4375 8.88672Z" fill="#262626"/>
</svg>