<svg width="9" height="9" viewBox="0 0 9 9" fill="none" xmlns="http://www.w3.org/2000/svg">
<path d="M7.30859 3.49023V0.396484C7.30859 0.206348 7.15498 0.0527344 6.96484 0.0527344H2.32422C2.13408 0.0527344 1.98047 0.206348 1.98047 0.396484V3.49023C1.26934 3.49023 0.691406 4.0499 0.691406 4.73633V8.56055C0.691406 8.60781 0.730078 8.64648 0.777344 8.64648H1.37891C1.42617 8.64648 1.46484 8.60781 1.46484 8.56055V4.73633C1.46484 4.47529 1.69688 4.26367 1.98154 4.26367H7.30752C7.59219 4.26367 7.82422 4.47529 7.82422 4.73633V8.56055C7.82422 8.60781 7.86289 8.64648 7.91016 8.64648H8.51172C8.55898 8.64648 8.59766 8.60781 8.59766 8.56055V4.73633C8.59766 4.0499 8.01973 3.49023 7.30859 3.49023V3.49023ZM2.75391 3.49023V0.826172H6.53516V3.49023H2.75391ZM4.04297 1.51367H3.52734C3.48008 1.51367 3.44141 1.55234 3.44141 1.59961V2.11523C3.44141 2.1625 3.48008 2.20117 3.52734 2.20117H4.04297C4.09023 2.20117 4.12891 2.1625 4.12891 2.11523V1.59961C4.12891 1.55234 4.09023 1.51367 4.04297 1.51367ZM5.76172 1.51367H5.24609C5.19883 1.51367 5.16016 1.55234 5.16016 1.59961V2.11523C5.16016 2.1625 5.19883 2.20117 5.24609 2.20117H5.76172C5.80898 2.20117 5.84766 2.1625 5.84766 2.11523V1.59961C5.84766 1.55234 5.80898 1.51367 5.76172 1.51367Z" fill="#4F9879"/>
</svg>
