<svg width="20" height="12" viewBox="0 0 20 12" fill="none" xmlns="http://www.w3.org/2000/svg">
<path d="M3.93065 2.29921C7.06175 -0.766403 12.1382 -0.766403 15.2694 2.29921L15.6462 2.66815C15.8027 2.82145 15.8027 3.06995 15.6462 3.22325L14.3571 4.48535C14.2788 4.562 14.1519 4.562 14.0736 4.48535L13.5551 3.97765C11.3707 1.83898 7.82925 1.83898 5.6449 3.97765L5.08955 4.52135C5.0113 4.598 4.8844 4.598 4.8061 4.52135L3.51705 3.25925C3.36045 3.10595 3.36045 2.85745 3.51705 2.70415L3.93065 2.29921ZM17.9353 4.9094L19.0826 6.03265C19.2391 6.18595 19.2391 6.43445 19.0826 6.58775L13.9094 11.6528C13.7529 11.806 13.499 11.806 13.3425 11.6528L9.6709 8.058C9.63175 8.01965 9.56829 8.01965 9.52915 8.058L5.85765 11.6528C5.7011 11.806 5.44725 11.806 5.2907 11.6528L0.117416 6.5877C-0.0391387 6.4344 -0.0391387 6.1859 0.117416 6.0326L1.2647 4.9093C1.42125 4.75605 1.67508 4.75605 1.83163 4.9093L5.5033 8.50414C5.5424 8.54249 5.60585 8.54249 5.645 8.50414L9.31645 4.9093C9.47299 4.75605 9.72684 4.75605 9.8834 4.9093L13.555 8.50414C13.5942 8.54249 13.6576 8.54249 13.6968 8.50414L17.3683 4.9094C17.5249 4.7561 17.7787 4.7561 17.9353 4.9094Z" fill="white"/>
</svg>
