<svg width="24" height="24" viewBox="0 0 24 24" fill="none" xmlns="http://www.w3.org/2000/svg">
<path d="M10.3756 14.0625C10.3756 14.3609 10.4941 14.647 10.7051 14.858C10.9161 15.069 11.2022 15.1875 11.5006 15.1875C11.799 15.1875 12.0851 15.069 12.2961 14.858C12.5071 14.647 12.6256 14.3609 12.6256 14.0625C12.6256 13.7641 12.5071 13.478 12.2961 13.267C12.0851 13.056 11.799 12.9375 11.5006 12.9375C11.2022 12.9375 10.9161 13.056 10.7051 13.267C10.4941 13.478 10.3756 13.7641 10.3756 14.0625ZM10.7506 6.9375V11.25C10.7506 11.3531 10.835 11.4375 10.9381 11.4375H12.0631C12.1662 11.4375 12.2506 11.3531 12.2506 11.25V6.9375C12.2506 6.83437 12.1662 6.75 12.0631 6.75H10.9381C10.835 6.75 10.7506 6.83437 10.7506 6.9375ZM21.8998 17.25L12.1498 0.375C12.0045 0.124219 11.7537 0 11.5006 0C11.2475 0 10.9943 0.124219 10.8514 0.375L1.10138 17.25C0.813094 17.7516 1.17403 18.375 1.75059 18.375H21.2506C21.8272 18.375 22.1881 17.7516 21.8998 17.25ZM3.53653 16.5961L11.5006 2.81016L19.4647 16.5961H3.53653Z" fill="#F7931A"/>
</svg>
