<svg width="14" height="14" viewBox="0 0 14 14" fill="none" xmlns="http://www.w3.org/2000/svg">
<path d="M6.25015 10.25C6.25015 10.4489 6.32917 10.6397 6.46982 10.7803C6.61047 10.921 6.80124 11 7.00015 11C7.19906 11 7.38983 10.921 7.53048 10.7803C7.67113 10.6397 7.75015 10.4489 7.75015 10.25C7.75015 10.0511 7.67113 9.86032 7.53048 9.71967C7.38983 9.57902 7.19906 9.5 7.00015 9.5C6.80124 9.5 6.61047 9.57902 6.46982 9.71967C6.32917 9.86032 6.25015 10.0511 6.25015 10.25ZM6.50015 5.5V8.375C6.50015 8.44375 6.5564 8.5 6.62515 8.5H7.37515C7.4439 8.5 7.50015 8.44375 7.50015 8.375V5.5C7.50015 5.43125 7.4439 5.375 7.37515 5.375H6.62515C6.5564 5.375 6.50015 5.43125 6.50015 5.5ZM13.933 12.375L7.43296 1.125C7.33609 0.957813 7.1689 0.875 7.00015 0.875C6.8314 0.875 6.66265 0.957813 6.56734 1.125L0.0673393 12.375C-0.124848 12.7094 0.115777 13.125 0.500152 13.125H13.5002C13.8845 13.125 14.1252 12.7094 13.933 12.375ZM1.69078 11.9391L7.00015 2.74844L12.3095 11.9391H1.69078Z" fill="#E30613"/>
</svg>
